%FSLAX46Y46*%
%MOMM*%
%LPD*%
G01*
%ADD10C,0.050000*%
D10*
%LPD*%
%ADD11C,0.0305514*%
D11*
X0057880196Y0003051525D02*
G01*
X0003492497Y0003051525D01*
X0003492497Y0031936942D01*
X0003492497Y0031936942D01*
X0003492626Y0031967588D01*
X0003494173Y0032028572D01*
X0003497246Y0032089171D01*
X0003501829Y0032149367D01*
X0003507902Y0032209141D01*
X0003515448Y0032268473D01*
X0003524446Y0032327345D01*
X0003534879Y0032385738D01*
X0003546729Y0032443634D01*
X0003559976Y0032501013D01*
X0003574602Y0032557857D01*
X0003590588Y0032614147D01*
X0003607917Y0032669864D01*
X0003626568Y0032724989D01*
X0003646525Y0032779503D01*
X0003667767Y0032833388D01*
X0003690278Y0032886626D01*
X0003714037Y0032939196D01*
X0003739027Y0032991080D01*
X0003765228Y0033042259D01*
X0003792623Y0033092716D01*
X0003821193Y0033142429D01*
X0003850919Y0033191382D01*
X0003881782Y0033239555D01*
X0003913765Y0033286930D01*
X0003946848Y0033333487D01*
X0003981013Y0033379207D01*
X0004016241Y0033424072D01*
X0004052514Y0033468064D01*
X0004089813Y0033511163D01*
X0004128120Y0033553350D01*
X0004167415Y0033594607D01*
X0004207682Y0033634914D01*
X0004248900Y0033674254D01*
X0004291051Y0033712606D01*
X0004334117Y0033749954D01*
X0004378080Y0033786276D01*
X0004422920Y0033821556D01*
X0004468619Y0033855773D01*
X0004515158Y0033888909D01*
X0004562520Y0033920946D01*
X0004610684Y0033951865D01*
X0004659634Y0033981645D01*
X0004709350Y0034010270D01*
X0004759813Y0034037720D01*
X0004811005Y0034063976D01*
X0004862908Y0034089020D01*
X0004915503Y0034112832D01*
X0004968771Y0034135394D01*
X0005022693Y0034156687D01*
X0005077252Y0034176692D01*
X0005132429Y0034195390D01*
X0005188205Y0034212763D01*
X0005244561Y0034228792D01*
X0005301479Y0034243457D01*
X0005358940Y0034256741D01*
X0005416926Y0034268624D01*
X0005475418Y0034279087D01*
X0005534398Y0034288113D01*
X0005593847Y0034295681D01*
X0005653746Y0034301773D01*
X0005714078Y0034306370D01*
X0005774822Y0034309453D01*
X0005835962Y0034311005D01*
X0005866689Y0034311135D01*
X0055502476Y0034311135D01*
X0055502476Y0034311135D01*
X0055533121Y0034311005D01*
X0055594106Y0034309459D01*
X0055654705Y0034306385D01*
X0055714901Y0034301802D01*
X0055774674Y0034295729D01*
X0055834007Y0034288184D01*
X0055892879Y0034279185D01*
X0055951272Y0034268752D01*
X0056009168Y0034256903D01*
X0056066547Y0034243656D01*
X0056123391Y0034229030D01*
X0056179680Y0034213043D01*
X0056235397Y0034195715D01*
X0056290522Y0034177063D01*
X0056345037Y0034157107D01*
X0056398922Y0034135864D01*
X0056452159Y0034113354D01*
X0056504729Y0034089595D01*
X0056556613Y0034064605D01*
X0056607793Y0034038403D01*
X0056658249Y0034011008D01*
X0056707963Y0033982439D01*
X0056756916Y0033952713D01*
X0056805089Y0033921849D01*
X0056852463Y0033889867D01*
X0056899020Y0033856784D01*
X0056944741Y0033822619D01*
X0056989606Y0033787391D01*
X0057033597Y0033751118D01*
X0057076696Y0033713819D01*
X0057118883Y0033675512D01*
X0057160140Y0033636216D01*
X0057200448Y0033595950D01*
X0057239787Y0033554732D01*
X0057278140Y0033512580D01*
X0057315487Y0033469514D01*
X0057351810Y0033425552D01*
X0057387089Y0033380712D01*
X0057421307Y0033335013D01*
X0057454443Y0033288473D01*
X0057486480Y0033241112D01*
X0057517398Y0033192947D01*
X0057547179Y0033143998D01*
X0057575804Y0033094282D01*
X0057603254Y0033043819D01*
X0057629510Y0032992626D01*
X0057654553Y0032940723D01*
X0057678365Y0032888129D01*
X0057700927Y0032834861D01*
X0057722220Y0032780938D01*
X0057742225Y0032726379D01*
X0057760924Y0032671202D01*
X0057778297Y0032615427D01*
X0057794325Y0032559071D01*
X0057808991Y0032502153D01*
X0057822275Y0032444691D01*
X0057834158Y0032386705D01*
X0057844621Y0032328213D01*
X0057853646Y0032269233D01*
X0057861214Y0032209784D01*
X0057867306Y0032149885D01*
X0057871903Y0032089554D01*
X0057874987Y0032028809D01*
X0057876538Y0031967670D01*
X0057876668Y0031936942D01*
X0057876668Y0003051525D01*
X0057880196Y0003051525D01*
M02*
