%FSLAX46Y46*%
%MOMM*%
%LPD*%
G01*
%ADD10C,0.050000*%
D10*
%LPC*%
%LPC*%
G36*
X0055533382Y0034328643D02*
G01*
X0055594776Y0034327086D01*
X0055655821Y0034323990D01*
X0055716462Y0034319373D01*
X0055776679Y0034313255D01*
X0055836452Y0034305654D01*
X0055895763Y0034296588D01*
X0055954592Y0034286077D01*
X0056012921Y0034274139D01*
X0056070729Y0034260793D01*
X0056127999Y0034246058D01*
X0056184710Y0034229951D01*
X0056240844Y0034212493D01*
X0056296382Y0034193702D01*
X0056351304Y0034173596D01*
X0056405592Y0034152195D01*
X0056459227Y0034129516D01*
X0056512189Y0034105580D01*
X0056564461Y0034080403D01*
X0056616021Y0034054007D01*
X0056666853Y0034026408D01*
X0056716936Y0033997626D01*
X0056766253Y0033967679D01*
X0056814783Y0033936587D01*
X0056862508Y0033904368D01*
X0056909409Y0033871040D01*
X0056955468Y0033836622D01*
X0057000665Y0033801134D01*
X0057044981Y0033764593D01*
X0057088398Y0033727019D01*
X0057130896Y0033688429D01*
X0057172458Y0033648844D01*
X0057213063Y0033608280D01*
X0057252692Y0033566758D01*
X0057291328Y0033524296D01*
X0057328951Y0033480911D01*
X0057365542Y0033436624D01*
X0057401082Y0033391453D01*
X0057435553Y0033345416D01*
X0057468935Y0033298531D01*
X0057501209Y0033250819D01*
X0057532357Y0033202297D01*
X0057562359Y0033152983D01*
X0057591197Y0033102898D01*
X0057618851Y0033052059D01*
X0057645303Y0033000485D01*
X0057670533Y0032948195D01*
X0057694523Y0032895207D01*
X0057717254Y0032841541D01*
X0057738706Y0032787214D01*
X0057758861Y0032732247D01*
X0057777700Y0032676657D01*
X0057795203Y0032620463D01*
X0057811351Y0032563685D01*
X0057826127Y0032506340D01*
X0057839510Y0032448449D01*
X0057851482Y0032390029D01*
X0057862023Y0032331101D01*
X0057871116Y0032271681D01*
X0057878740Y0032211791D01*
X0057884877Y0032151448D01*
X0057889508Y0032090671D01*
X0057892614Y0032029480D01*
X0057894176Y0031967931D01*
X0057894307Y0031936980D01*
X0057894307Y0003069164D01*
X0057897835Y0003069164D01*
X0057897835Y0003033886D01*
X0030684164Y0003033886D01*
X0030684164Y0003069164D01*
X0057859029Y0003069164D01*
X0057859029Y0031936901D01*
X0057858900Y0031967410D01*
X0057857359Y0032028138D01*
X0057854299Y0032088436D01*
X0057849735Y0032148323D01*
X0057843688Y0032207778D01*
X0057836177Y0032266785D01*
X0057827219Y0032325326D01*
X0057816833Y0032383381D01*
X0057805039Y0032440935D01*
X0057791855Y0032497965D01*
X0057777299Y0032554457D01*
X0057761391Y0032610390D01*
X0057744148Y0032665749D01*
X0057725590Y0032720511D01*
X0057705734Y0032774662D01*
X0057684601Y0032828180D01*
X0057662208Y0032881051D01*
X0057638573Y0032933252D01*
X0057613717Y0032984768D01*
X0057587657Y0033035578D01*
X0057560411Y0033085666D01*
X0057531999Y0033135011D01*
X0057502439Y0033183597D01*
X0057471751Y0033231405D01*
X0057439951Y0033278415D01*
X0057407061Y0033324609D01*
X0057373097Y0033369970D01*
X0057338077Y0033414480D01*
X0057302023Y0033458117D01*
X0057264952Y0033500865D01*
X0057226882Y0033542705D01*
X0057187833Y0033583619D01*
X0057147822Y0033623589D01*
X0057106870Y0033662595D01*
X0057064995Y0033700618D01*
X0057022214Y0033737642D01*
X0056978547Y0033773648D01*
X0056934013Y0033808615D01*
X0056888631Y0033842528D01*
X0056842419Y0033875365D01*
X0056795395Y0033907112D01*
X0056747579Y0033937746D01*
X0056698990Y0033967251D01*
X0056649646Y0033995608D01*
X0056599564Y0034022800D01*
X0056548766Y0034048806D01*
X0056497269Y0034073609D01*
X0056445090Y0034097192D01*
X0056392252Y0034119533D01*
X0056338770Y0034140617D01*
X0056284663Y0034160424D01*
X0056229949Y0034178937D01*
X0056174652Y0034196135D01*
X0056118783Y0034212002D01*
X0056062364Y0034226519D01*
X0056005415Y0034239666D01*
X0055947951Y0034251427D01*
X0055889995Y0034261782D01*
X0055831560Y0034270714D01*
X0055772671Y0034278203D01*
X0055713339Y0034284231D01*
X0055653589Y0034288780D01*
X0055593435Y0034291831D01*
X0055532862Y0034293367D01*
X0055502435Y0034293496D01*
X0030684164Y0034293496D01*
X0030684164Y0034328774D01*
X0055502513Y0034328774D01*
G37*
G36*
X0030684164Y0034293496D02*
G01*
X0005866730Y0034293496D01*
X0005836222Y0034293367D01*
X0005775493Y0034291826D01*
X0005715196Y0034288765D01*
X0005655309Y0034284202D01*
X0005595853Y0034278155D01*
X0005536847Y0034270643D01*
X0005478306Y0034261685D01*
X0005420251Y0034251300D01*
X0005362697Y0034239505D01*
X0005305667Y0034226321D01*
X0005249174Y0034211765D01*
X0005193242Y0034195857D01*
X0005137882Y0034178614D01*
X0005083121Y0034160056D01*
X0005028969Y0034140201D01*
X0004975451Y0034119067D01*
X0004922581Y0034096674D01*
X0004870379Y0034073040D01*
X0004818864Y0034048183D01*
X0004768053Y0034022123D01*
X0004717966Y0033994877D01*
X0004668620Y0033966466D01*
X0004620034Y0033936906D01*
X0004572227Y0033906217D01*
X0004525216Y0033874418D01*
X0004479022Y0033841527D01*
X0004433661Y0033807563D01*
X0004389152Y0033772544D01*
X0004345514Y0033736490D01*
X0004302767Y0033699419D01*
X0004260926Y0033661349D01*
X0004220012Y0033622299D01*
X0004180042Y0033582289D01*
X0004141037Y0033541336D01*
X0004103013Y0033499461D01*
X0004065989Y0033456680D01*
X0004029984Y0033413013D01*
X0003995016Y0033368480D01*
X0003961104Y0033323097D01*
X0003928266Y0033276886D01*
X0003896520Y0033229861D01*
X0003865885Y0033182045D01*
X0003836380Y0033133457D01*
X0003808023Y0033084112D01*
X0003780831Y0033034030D01*
X0003754825Y0032983232D01*
X0003730022Y0032931736D01*
X0003706440Y0032879557D01*
X0003684098Y0032826719D01*
X0003663014Y0032773236D01*
X0003643207Y0032719130D01*
X0003624694Y0032664416D01*
X0003607497Y0032609119D01*
X0003591629Y0032553249D01*
X0003577113Y0032496831D01*
X0003563965Y0032439882D01*
X0003552204Y0032382417D01*
X0003541849Y0032324462D01*
X0003532917Y0032266026D01*
X0003525428Y0032207137D01*
X0003519400Y0032147806D01*
X0003514851Y0032088055D01*
X0003511800Y0032027901D01*
X0003510264Y0031967328D01*
X0003510136Y0031936901D01*
X0003510136Y0003069164D01*
X0030684164Y0003069164D01*
X0030684164Y0003033886D01*
X0003474858Y0003033886D01*
X0003474858Y0031936980D01*
X0003474988Y0031967849D01*
X0003476545Y0032029242D01*
X0003479641Y0032090288D01*
X0003484258Y0032150929D01*
X0003490376Y0032211145D01*
X0003497978Y0032270919D01*
X0003507043Y0032330229D01*
X0003517554Y0032389059D01*
X0003529492Y0032447387D01*
X0003542838Y0032505196D01*
X0003557574Y0032562465D01*
X0003573680Y0032619176D01*
X0003591138Y0032675310D01*
X0003609930Y0032730848D01*
X0003630035Y0032785771D01*
X0003651437Y0032840059D01*
X0003674115Y0032893694D01*
X0003698052Y0032946656D01*
X0003723228Y0032998927D01*
X0003749625Y0033050488D01*
X0003777223Y0033101319D01*
X0003806005Y0033151403D01*
X0003835952Y0033200719D01*
X0003867044Y0033249249D01*
X0003899264Y0033296974D01*
X0003932592Y0033343876D01*
X0003967009Y0033389934D01*
X0004002498Y0033435131D01*
X0004039038Y0033479448D01*
X0004076613Y0033522864D01*
X0004115202Y0033565363D01*
X0004154788Y0033606924D01*
X0004195351Y0033647529D01*
X0004236873Y0033687159D01*
X0004279336Y0033725795D01*
X0004322720Y0033763417D01*
X0004367007Y0033800008D01*
X0004412179Y0033835549D01*
X0004458216Y0033870019D01*
X0004505100Y0033903401D01*
X0004552813Y0033935675D01*
X0004601335Y0033966823D01*
X0004650648Y0033996825D01*
X0004700733Y0034025663D01*
X0004751572Y0034053317D01*
X0004803146Y0034079769D01*
X0004855437Y0034105000D01*
X0004908424Y0034128990D01*
X0004962091Y0034151720D01*
X0005016417Y0034173173D01*
X0005071385Y0034193327D01*
X0005126975Y0034212166D01*
X0005183168Y0034229669D01*
X0005239947Y0034245818D01*
X0005297291Y0034260593D01*
X0005355182Y0034273976D01*
X0005413602Y0034285948D01*
X0005472531Y0034296490D01*
X0005531950Y0034305582D01*
X0005591841Y0034313206D01*
X0005652184Y0034319343D01*
X0005712960Y0034323975D01*
X0005774151Y0034327081D01*
X0005835701Y0034328643D01*
X0005866652Y0034328774D01*
X0030684164Y0034328774D01*
G37*
%LPD*%
G36*
X0029298331Y0012230555D02*
G01*
X0029354500Y0012227715D01*
X0029409884Y0012222105D01*
X0029464415Y0012213790D01*
X0029518024Y0012202840D01*
X0029570643Y0012189322D01*
X0029622203Y0012173303D01*
X0029672636Y0012154853D01*
X0029721873Y0012134037D01*
X0029769846Y0012110925D01*
X0029816487Y0012085585D01*
X0029861726Y0012058083D01*
X0029905496Y0012028488D01*
X0029947728Y0011996867D01*
X0029988353Y0011963289D01*
X0030027304Y0011927822D01*
X0030064511Y0011890532D01*
X0030099906Y0011851488D01*
X0030133420Y0011810758D01*
X0030164986Y0011768410D01*
X0030194535Y0011724510D01*
X0030221998Y0011679129D01*
X0030247306Y0011632332D01*
X0030270392Y0011584188D01*
X0030291187Y0011534764D01*
X0030309621Y0011484130D01*
X0030325628Y0011432351D01*
X0030339138Y0011379497D01*
X0030350083Y0011325635D01*
X0030358395Y0011270832D01*
X0030364004Y0011215157D01*
X0030366843Y0011158678D01*
X0030367083Y0011130129D01*
X0030366843Y0011101743D01*
X0030364004Y0011045574D01*
X0030358395Y0010990189D01*
X0030350083Y0010935659D01*
X0030339138Y0010882050D01*
X0030325628Y0010829431D01*
X0030309621Y0010777871D01*
X0030291187Y0010727438D01*
X0030270392Y0010678200D01*
X0030247306Y0010630227D01*
X0030221998Y0010583587D01*
X0030194535Y0010538347D01*
X0030164986Y0010494577D01*
X0030133420Y0010452346D01*
X0030099906Y0010411720D01*
X0030064511Y0010372770D01*
X0030027304Y0010335563D01*
X0029988353Y0010300168D01*
X0029947728Y0010266653D01*
X0029905496Y0010235087D01*
X0029861726Y0010205539D01*
X0029816487Y0010178076D01*
X0029769846Y0010152767D01*
X0029721873Y0010129681D01*
X0029672636Y0010108887D01*
X0029622203Y0010090452D01*
X0029570643Y0010074445D01*
X0029518024Y0010060935D01*
X0029464415Y0010049990D01*
X0029409884Y0010041679D01*
X0029354500Y0010036069D01*
X0029298331Y0010033230D01*
X0029269945Y0010032991D01*
X0029241721Y0010033068D01*
X0029185842Y0010035617D01*
X0029130710Y0010040974D01*
X0029076395Y0010049070D01*
X0029022966Y0010059835D01*
X0028970496Y0010073196D01*
X0028919053Y0010089086D01*
X0028868709Y0010107432D01*
X0028819534Y0010128164D01*
X0028771598Y0010151213D01*
X0028724972Y0010176507D01*
X0028679725Y0010203977D01*
X0028635930Y0010233551D01*
X0028593655Y0010265160D01*
X0028552971Y0010298733D01*
X0028513950Y0010334199D01*
X0028476660Y0010371489D01*
X0028441173Y0010410532D01*
X0028407559Y0010451256D01*
X0028375888Y0010493593D01*
X0028346231Y0010537472D01*
X0028318658Y0010582821D01*
X0028293239Y0010629572D01*
X0028270046Y0010677652D01*
X0028249148Y0010726993D01*
X0028230616Y0010777523D01*
X0028214520Y0010829172D01*
X0028200931Y0010881870D01*
X0028189919Y0010935546D01*
X0028181554Y0010990131D01*
X0028175907Y0011045552D01*
X0028173048Y0011101741D01*
X0028172807Y0011130129D01*
X0028173046Y0011158516D01*
X0028175885Y0011214705D01*
X0028181495Y0011270128D01*
X0028189806Y0011324715D01*
X0028200751Y0011378396D01*
X0028214262Y0011431103D01*
X0028230268Y0011482763D01*
X0028248703Y0011533309D01*
X0028269498Y0011582671D01*
X0028292584Y0011630777D01*
X0028317892Y0011677560D01*
X0028345355Y0011722949D01*
X0028374903Y0011766874D01*
X0028406469Y0011809265D01*
X0028439984Y0011850053D01*
X0028475379Y0011889168D01*
X0028512586Y0011926541D01*
X0028551537Y0011962101D01*
X0028592162Y0011995778D01*
X0028634394Y0012027504D01*
X0028678164Y0012057207D01*
X0028723403Y0012084819D01*
X0028770044Y0012110270D01*
X0028818017Y0012133489D01*
X0028867254Y0012154408D01*
X0028917687Y0012172956D01*
X0028969247Y0012189063D01*
X0029021866Y0012202661D01*
X0029075475Y0012213678D01*
X0029130006Y0012222046D01*
X0029185390Y0012227694D01*
X0029241559Y0012230553D01*
X0029269945Y0012230794D01*
G37*
%LPD*%
G36*
X0032014717Y0012230555D02*
G01*
X0032070886Y0012227715D01*
X0032126270Y0012222105D01*
X0032180801Y0012213790D01*
X0032234410Y0012202840D01*
X0032287029Y0012189322D01*
X0032338589Y0012173303D01*
X0032389022Y0012154853D01*
X0032438259Y0012134037D01*
X0032486232Y0012110925D01*
X0032532873Y0012085585D01*
X0032578112Y0012058083D01*
X0032621882Y0012028488D01*
X0032664114Y0011996867D01*
X0032704740Y0011963289D01*
X0032743690Y0011927822D01*
X0032780897Y0011890532D01*
X0032816292Y0011851488D01*
X0032849807Y0011810758D01*
X0032881373Y0011768410D01*
X0032910921Y0011724510D01*
X0032938384Y0011679129D01*
X0032963693Y0011632332D01*
X0032986778Y0011584188D01*
X0033007573Y0011534764D01*
X0033026008Y0011484130D01*
X0033042015Y0011432351D01*
X0033055525Y0011379497D01*
X0033066470Y0011325635D01*
X0033074781Y0011270832D01*
X0033080391Y0011215157D01*
X0033083230Y0011158678D01*
X0033083469Y0011130129D01*
X0033083230Y0011101743D01*
X0033080391Y0011045574D01*
X0033074781Y0010990189D01*
X0033066470Y0010935659D01*
X0033055525Y0010882050D01*
X0033042015Y0010829431D01*
X0033026008Y0010777871D01*
X0033007573Y0010727438D01*
X0032986778Y0010678200D01*
X0032963693Y0010630227D01*
X0032938384Y0010583587D01*
X0032910921Y0010538347D01*
X0032881373Y0010494577D01*
X0032849807Y0010452346D01*
X0032816292Y0010411720D01*
X0032780897Y0010372770D01*
X0032743690Y0010335563D01*
X0032704740Y0010300168D01*
X0032664114Y0010266653D01*
X0032621882Y0010235087D01*
X0032578112Y0010205539D01*
X0032532873Y0010178076D01*
X0032486232Y0010152767D01*
X0032438259Y0010129681D01*
X0032389022Y0010108887D01*
X0032338589Y0010090452D01*
X0032287029Y0010074445D01*
X0032234410Y0010060935D01*
X0032180801Y0010049990D01*
X0032126270Y0010041679D01*
X0032070886Y0010036069D01*
X0032014717Y0010033230D01*
X0031986331Y0010032991D01*
X0031957945Y0010033068D01*
X0031901776Y0010035617D01*
X0031846392Y0010040974D01*
X0031791861Y0010049070D01*
X0031738252Y0010059835D01*
X0031685634Y0010073196D01*
X0031634073Y0010089086D01*
X0031583640Y0010107432D01*
X0031534403Y0010128164D01*
X0031486430Y0010151213D01*
X0031439790Y0010176507D01*
X0031394550Y0010203977D01*
X0031350780Y0010233551D01*
X0031308548Y0010265160D01*
X0031267923Y0010298733D01*
X0031228973Y0010334199D01*
X0031191766Y0010371489D01*
X0031156370Y0010410532D01*
X0031122856Y0010451256D01*
X0031091290Y0010493593D01*
X0031061741Y0010537472D01*
X0031034279Y0010582821D01*
X0031008970Y0010629572D01*
X0030985884Y0010677652D01*
X0030965090Y0010726993D01*
X0030946655Y0010777523D01*
X0030930648Y0010829172D01*
X0030917138Y0010881870D01*
X0030906193Y0010935546D01*
X0030897881Y0010990131D01*
X0030892272Y0011045552D01*
X0030889433Y0011101741D01*
X0030889193Y0011130129D01*
X0030889433Y0011158516D01*
X0030892272Y0011214705D01*
X0030897881Y0011270128D01*
X0030906193Y0011324715D01*
X0030917138Y0011378396D01*
X0030930648Y0011431103D01*
X0030946655Y0011482763D01*
X0030965090Y0011533309D01*
X0030985884Y0011582671D01*
X0031008970Y0011630777D01*
X0031034279Y0011677560D01*
X0031061741Y0011722949D01*
X0031091290Y0011766874D01*
X0031122856Y0011809265D01*
X0031156370Y0011850053D01*
X0031191766Y0011889168D01*
X0031228973Y0011926541D01*
X0031267923Y0011962101D01*
X0031308548Y0011995778D01*
X0031350780Y0012027504D01*
X0031394550Y0012057207D01*
X0031439790Y0012084819D01*
X0031486430Y0012110270D01*
X0031534403Y0012133489D01*
X0031583640Y0012154408D01*
X0031634073Y0012172956D01*
X0031685634Y0012189063D01*
X0031738252Y0012202661D01*
X0031791861Y0012213678D01*
X0031846392Y0012222046D01*
X0031901776Y0012227694D01*
X0031957945Y0012230553D01*
X0031986331Y0012230794D01*
G37*
%LPD*%
G36*
X0034826315Y0012212915D02*
G01*
X0034882414Y0012210072D01*
X0034937738Y0012204453D01*
X0034992217Y0012196129D01*
X0035045783Y0012185168D01*
X0035098366Y0012171639D01*
X0035149898Y0012155611D01*
X0035200310Y0012137153D01*
X0035249532Y0012116333D01*
X0035297497Y0012093222D01*
X0035344134Y0012067887D01*
X0035389375Y0012040398D01*
X0035433151Y0012010823D01*
X0035475393Y0011979232D01*
X0035516032Y0011945694D01*
X0035555000Y0011910277D01*
X0035592227Y0011873050D01*
X0035627644Y0011834082D01*
X0035661182Y0011793443D01*
X0035692773Y0011751201D01*
X0035722348Y0011707425D01*
X0035749837Y0011662184D01*
X0035775172Y0011615546D01*
X0035798283Y0011567582D01*
X0035819103Y0011518360D01*
X0035837561Y0011467948D01*
X0035853589Y0011416416D01*
X0035867118Y0011363833D01*
X0035878079Y0011310267D01*
X0035886403Y0011255788D01*
X0035892022Y0011200464D01*
X0035894866Y0011144364D01*
X0035895105Y0011116017D01*
X0035894866Y0011087670D01*
X0035892022Y0011031571D01*
X0035886403Y0010976247D01*
X0035878079Y0010921768D01*
X0035867118Y0010868202D01*
X0035853589Y0010815619D01*
X0035837561Y0010764087D01*
X0035819103Y0010713675D01*
X0035798283Y0010664453D01*
X0035775172Y0010616488D01*
X0035749837Y0010569851D01*
X0035722348Y0010524610D01*
X0035692773Y0010480834D01*
X0035661182Y0010438592D01*
X0035627644Y0010397953D01*
X0035592227Y0010358985D01*
X0035555000Y0010321758D01*
X0035516032Y0010286341D01*
X0035475393Y0010252803D01*
X0035433151Y0010221212D01*
X0035389375Y0010191637D01*
X0035344134Y0010164148D01*
X0035297497Y0010138813D01*
X0035249532Y0010115702D01*
X0035200310Y0010094882D01*
X0035149898Y0010076424D01*
X0035098366Y0010060396D01*
X0035045783Y0010046867D01*
X0034992217Y0010035906D01*
X0034937738Y0010027582D01*
X0034882414Y0010021963D01*
X0034826315Y0010019119D01*
X0034797968Y0010018880D01*
X0034769620Y0010019119D01*
X0034713521Y0010021963D01*
X0034658197Y0010027582D01*
X0034603718Y0010035906D01*
X0034550152Y0010046867D01*
X0034497569Y0010060396D01*
X0034446037Y0010076424D01*
X0034395625Y0010094882D01*
X0034346403Y0010115702D01*
X0034298439Y0010138813D01*
X0034251801Y0010164148D01*
X0034206560Y0010191637D01*
X0034162784Y0010221212D01*
X0034120542Y0010252803D01*
X0034079903Y0010286341D01*
X0034040935Y0010321758D01*
X0034003708Y0010358985D01*
X0033968291Y0010397953D01*
X0033934753Y0010438592D01*
X0033903162Y0010480834D01*
X0033873587Y0010524610D01*
X0033846098Y0010569851D01*
X0033820763Y0010616488D01*
X0033797652Y0010664453D01*
X0033776832Y0010713675D01*
X0033758374Y0010764087D01*
X0033742346Y0010815619D01*
X0033728817Y0010868202D01*
X0033717856Y0010921768D01*
X0033709532Y0010976247D01*
X0033703913Y0011031571D01*
X0033701070Y0011087670D01*
X0033700830Y0011116017D01*
X0033701070Y0011144364D01*
X0033703913Y0011200464D01*
X0033709532Y0011255788D01*
X0033717856Y0011310267D01*
X0033728817Y0011363833D01*
X0033742346Y0011416416D01*
X0033758374Y0011467948D01*
X0033776832Y0011518360D01*
X0033797652Y0011567582D01*
X0033820763Y0011615546D01*
X0033846098Y0011662184D01*
X0033873587Y0011707425D01*
X0033903162Y0011751201D01*
X0033934753Y0011793443D01*
X0033968291Y0011834082D01*
X0034003708Y0011873050D01*
X0034040935Y0011910277D01*
X0034079903Y0011945694D01*
X0034120542Y0011979232D01*
X0034162784Y0012010823D01*
X0034206560Y0012040398D01*
X0034251801Y0012067887D01*
X0034298439Y0012093222D01*
X0034346403Y0012116333D01*
X0034395625Y0012137153D01*
X0034446037Y0012155611D01*
X0034497569Y0012171639D01*
X0034550152Y0012185168D01*
X0034603718Y0012196129D01*
X0034658197Y0012204453D01*
X0034713521Y0012210072D01*
X0034769620Y0012212915D01*
X0034797968Y0012213155D01*
G37*
%LPD*%
G36*
X0037627406Y0012212916D02*
G01*
X0037683575Y0012210077D01*
X0037738960Y0012204467D01*
X0037793490Y0012196156D01*
X0037847099Y0012185211D01*
X0037899718Y0012171701D01*
X0037951278Y0012155694D01*
X0038001711Y0012137259D01*
X0038050949Y0012116464D01*
X0038098922Y0012093379D01*
X0038145562Y0012068070D01*
X0038190802Y0012040607D01*
X0038234572Y0012011059D01*
X0038276803Y0011979493D01*
X0038317429Y0011945978D01*
X0038356379Y0011910583D01*
X0038393586Y0011873376D01*
X0038428981Y0011834426D01*
X0038462496Y0011793800D01*
X0038494062Y0011751568D01*
X0038523611Y0011707799D01*
X0038551073Y0011662559D01*
X0038576382Y0011615919D01*
X0038599468Y0011567945D01*
X0038620262Y0011518708D01*
X0038638697Y0011468275D01*
X0038654704Y0011416715D01*
X0038668214Y0011364096D01*
X0038679159Y0011310487D01*
X0038687470Y0011255956D01*
X0038693080Y0011200572D01*
X0038695919Y0011144403D01*
X0038696158Y0011116017D01*
X0038695919Y0011087632D01*
X0038693080Y0011031463D01*
X0038687470Y0010976078D01*
X0038679159Y0010921548D01*
X0038668214Y0010867938D01*
X0038654704Y0010815320D01*
X0038638697Y0010763760D01*
X0038620262Y0010713327D01*
X0038599468Y0010664089D01*
X0038576382Y0010616116D01*
X0038551073Y0010569476D01*
X0038523611Y0010524236D01*
X0038494062Y0010480466D01*
X0038462496Y0010438234D01*
X0038428981Y0010397609D01*
X0038393586Y0010358659D01*
X0038356379Y0010321452D01*
X0038317429Y0010286057D01*
X0038276803Y0010252542D01*
X0038234572Y0010220976D01*
X0038190802Y0010191427D01*
X0038145562Y0010163965D01*
X0038098922Y0010138656D01*
X0038050949Y0010115570D01*
X0038001711Y0010094776D01*
X0037951278Y0010076341D01*
X0037899718Y0010060334D01*
X0037847099Y0010046824D01*
X0037793490Y0010035879D01*
X0037738960Y0010027567D01*
X0037683575Y0010021958D01*
X0037627406Y0010019119D01*
X0037599020Y0010018880D01*
X0037570471Y0010019119D01*
X0037513992Y0010021958D01*
X0037458317Y0010027567D01*
X0037403514Y0010035879D01*
X0037349652Y0010046824D01*
X0037296798Y0010060334D01*
X0037245019Y0010076341D01*
X0037194385Y0010094776D01*
X0037144961Y0010115570D01*
X0037096817Y0010138656D01*
X0037050020Y0010163965D01*
X0037004639Y0010191427D01*
X0036960739Y0010220976D01*
X0036918391Y0010252542D01*
X0036877661Y0010286057D01*
X0036838617Y0010321452D01*
X0036801327Y0010358659D01*
X0036765860Y0010397609D01*
X0036732282Y0010438234D01*
X0036700661Y0010480466D01*
X0036671066Y0010524236D01*
X0036643564Y0010569476D01*
X0036618224Y0010616116D01*
X0036595112Y0010664089D01*
X0036574296Y0010713327D01*
X0036555846Y0010763760D01*
X0036539827Y0010815320D01*
X0036526309Y0010867938D01*
X0036515359Y0010921548D01*
X0036507044Y0010976078D01*
X0036501434Y0011031463D01*
X0036498594Y0011087632D01*
X0036498355Y0011116017D01*
X0036498594Y0011144403D01*
X0036501434Y0011200572D01*
X0036507044Y0011255956D01*
X0036515359Y0011310487D01*
X0036526309Y0011364096D01*
X0036539827Y0011416715D01*
X0036555846Y0011468275D01*
X0036574296Y0011518708D01*
X0036595112Y0011567945D01*
X0036618224Y0011615919D01*
X0036643564Y0011662559D01*
X0036671066Y0011707799D01*
X0036700661Y0011751568D01*
X0036732282Y0011793800D01*
X0036765860Y0011834426D01*
X0036801327Y0011873376D01*
X0036838617Y0011910583D01*
X0036877661Y0011945978D01*
X0036918391Y0011979493D01*
X0036960739Y0012011059D01*
X0037004639Y0012040607D01*
X0037050020Y0012068070D01*
X0037096817Y0012093379D01*
X0037144961Y0012116464D01*
X0037194385Y0012137259D01*
X0037245019Y0012155694D01*
X0037296798Y0012171701D01*
X0037349652Y0012185211D01*
X0037403514Y0012196156D01*
X0037458317Y0012204467D01*
X0037513992Y0012210077D01*
X0037570471Y0012212916D01*
X0037599020Y0012213155D01*
G37*
%LPD*%
G36*
X0027929554Y0014763497D02*
G01*
X0027985723Y0014760658D01*
X0028041107Y0014755047D01*
X0028095638Y0014746732D01*
X0028149247Y0014735782D01*
X0028201866Y0014722264D01*
X0028253426Y0014706246D01*
X0028303859Y0014687795D01*
X0028353096Y0014666980D01*
X0028401070Y0014643868D01*
X0028447710Y0014618527D01*
X0028492950Y0014591025D01*
X0028536719Y0014561430D01*
X0028578951Y0014529809D01*
X0028619577Y0014496231D01*
X0028658527Y0014460764D01*
X0028695734Y0014423474D01*
X0028731129Y0014384430D01*
X0028764644Y0014343700D01*
X0028796210Y0014301352D01*
X0028825758Y0014257453D01*
X0028853221Y0014212071D01*
X0028878530Y0014165274D01*
X0028901615Y0014117130D01*
X0028922410Y0014067707D01*
X0028940845Y0014017072D01*
X0028956852Y0013965293D01*
X0028970362Y0013912439D01*
X0028981307Y0013858577D01*
X0028989618Y0013803774D01*
X0028995228Y0013748099D01*
X0028998067Y0013691620D01*
X0028998306Y0013663071D01*
X0028998067Y0013634685D01*
X0028995228Y0013578516D01*
X0028989618Y0013523132D01*
X0028981307Y0013468601D01*
X0028970362Y0013414992D01*
X0028956852Y0013362373D01*
X0028940845Y0013310813D01*
X0028922410Y0013260380D01*
X0028901615Y0013211143D01*
X0028878530Y0013163169D01*
X0028853221Y0013116529D01*
X0028825758Y0013071289D01*
X0028796210Y0013027520D01*
X0028764644Y0012985288D01*
X0028731129Y0012944662D01*
X0028695734Y0012905712D01*
X0028658527Y0012868505D01*
X0028619577Y0012833110D01*
X0028578951Y0012799595D01*
X0028536719Y0012768029D01*
X0028492950Y0012738481D01*
X0028447710Y0012711018D01*
X0028401070Y0012685709D01*
X0028353096Y0012662624D01*
X0028303859Y0012641829D01*
X0028253426Y0012623394D01*
X0028201866Y0012607387D01*
X0028149247Y0012593877D01*
X0028095638Y0012582932D01*
X0028041107Y0012574621D01*
X0027985723Y0012569011D01*
X0027929554Y0012566172D01*
X0027901168Y0012565933D01*
X0027872783Y0012566172D01*
X0027816614Y0012569011D01*
X0027761229Y0012574621D01*
X0027706699Y0012582932D01*
X0027653089Y0012593877D01*
X0027600471Y0012607387D01*
X0027548911Y0012623394D01*
X0027498478Y0012641829D01*
X0027449240Y0012662624D01*
X0027401267Y0012685709D01*
X0027354627Y0012711018D01*
X0027309387Y0012738481D01*
X0027265617Y0012768029D01*
X0027223386Y0012799595D01*
X0027182760Y0012833110D01*
X0027143810Y0012868505D01*
X0027106603Y0012905712D01*
X0027071208Y0012944662D01*
X0027037693Y0012985288D01*
X0027006127Y0013027520D01*
X0026976578Y0013071289D01*
X0026949116Y0013116529D01*
X0026923807Y0013163169D01*
X0026900721Y0013211143D01*
X0026879927Y0013260380D01*
X0026861492Y0013310813D01*
X0026845485Y0013362373D01*
X0026831975Y0013414992D01*
X0026821030Y0013468601D01*
X0026812718Y0013523132D01*
X0026807109Y0013578516D01*
X0026804270Y0013634685D01*
X0026804031Y0013663071D01*
X0026804270Y0013691458D01*
X0026807109Y0013747647D01*
X0026812718Y0013803070D01*
X0026821030Y0013857657D01*
X0026831975Y0013911339D01*
X0026845485Y0013964045D01*
X0026861492Y0014015705D01*
X0026879927Y0014066251D01*
X0026900721Y0014115613D01*
X0026923807Y0014163720D01*
X0026949116Y0014210502D01*
X0026976578Y0014255891D01*
X0027006127Y0014299816D01*
X0027037693Y0014342207D01*
X0027071208Y0014382995D01*
X0027106603Y0014422111D01*
X0027143810Y0014459483D01*
X0027182760Y0014495043D01*
X0027223386Y0014528720D01*
X0027265617Y0014560446D01*
X0027309387Y0014590149D01*
X0027354627Y0014617761D01*
X0027401267Y0014643212D01*
X0027449240Y0014666431D01*
X0027498478Y0014687350D01*
X0027548911Y0014705898D01*
X0027600471Y0014722005D01*
X0027653089Y0014735603D01*
X0027706699Y0014746620D01*
X0027761229Y0014754988D01*
X0027816614Y0014760636D01*
X0027872783Y0014763495D01*
X0027901168Y0014763736D01*
G37*
%LPD*%
G36*
X0030705913Y0014763497D02*
G01*
X0030762082Y0014760658D01*
X0030817466Y0014755047D01*
X0030871997Y0014746732D01*
X0030925606Y0014735782D01*
X0030978225Y0014722264D01*
X0031029785Y0014706246D01*
X0031080218Y0014687795D01*
X0031129455Y0014666980D01*
X0031177428Y0014643868D01*
X0031224069Y0014618527D01*
X0031269308Y0014591025D01*
X0031313078Y0014561430D01*
X0031355310Y0014529809D01*
X0031395935Y0014496231D01*
X0031434886Y0014460764D01*
X0031472093Y0014423474D01*
X0031507488Y0014384430D01*
X0031541002Y0014343700D01*
X0031572568Y0014301352D01*
X0031602117Y0014257453D01*
X0031629580Y0014212071D01*
X0031654888Y0014165274D01*
X0031677974Y0014117130D01*
X0031698769Y0014067707D01*
X0031717203Y0014017072D01*
X0031733210Y0013965293D01*
X0031746720Y0013912439D01*
X0031757665Y0013858577D01*
X0031765977Y0013803774D01*
X0031771586Y0013748099D01*
X0031774425Y0013691620D01*
X0031774665Y0013663071D01*
X0031774425Y0013634685D01*
X0031771586Y0013578516D01*
X0031765977Y0013523132D01*
X0031757665Y0013468601D01*
X0031746720Y0013414992D01*
X0031733210Y0013362373D01*
X0031717203Y0013310813D01*
X0031698769Y0013260380D01*
X0031677974Y0013211143D01*
X0031654888Y0013163169D01*
X0031629580Y0013116529D01*
X0031602117Y0013071289D01*
X0031572568Y0013027520D01*
X0031541002Y0012985288D01*
X0031507488Y0012944662D01*
X0031472093Y0012905712D01*
X0031434886Y0012868505D01*
X0031395935Y0012833110D01*
X0031355310Y0012799595D01*
X0031313078Y0012768029D01*
X0031269308Y0012738481D01*
X0031224069Y0012711018D01*
X0031177428Y0012685709D01*
X0031129455Y0012662624D01*
X0031080218Y0012641829D01*
X0031029785Y0012623394D01*
X0030978225Y0012607387D01*
X0030925606Y0012593877D01*
X0030871997Y0012582932D01*
X0030817466Y0012574621D01*
X0030762082Y0012569011D01*
X0030705913Y0012566172D01*
X0030677527Y0012565933D01*
X0030649139Y0012566172D01*
X0030592950Y0012569011D01*
X0030537527Y0012574621D01*
X0030482940Y0012582932D01*
X0030429259Y0012593877D01*
X0030376553Y0012607387D01*
X0030324892Y0012623394D01*
X0030274346Y0012641829D01*
X0030224985Y0012662624D01*
X0030176878Y0012685709D01*
X0030130095Y0012711018D01*
X0030084707Y0012738481D01*
X0030040782Y0012768029D01*
X0029998390Y0012799595D01*
X0029957602Y0012833110D01*
X0029918487Y0012868505D01*
X0029881115Y0012905712D01*
X0029845555Y0012944662D01*
X0029811877Y0012985288D01*
X0029780152Y0013027520D01*
X0029750448Y0013071289D01*
X0029722836Y0013116529D01*
X0029697386Y0013163169D01*
X0029674166Y0013211143D01*
X0029653248Y0013260380D01*
X0029634700Y0013310813D01*
X0029618592Y0013362373D01*
X0029604995Y0013414992D01*
X0029593977Y0013468601D01*
X0029585610Y0013523132D01*
X0029579961Y0013578516D01*
X0029577102Y0013634685D01*
X0029576861Y0013663071D01*
X0029577101Y0013691458D01*
X0029579940Y0013747647D01*
X0029585551Y0013803070D01*
X0029593865Y0013857657D01*
X0029604815Y0013911339D01*
X0029618334Y0013964045D01*
X0029634352Y0014015705D01*
X0029652803Y0014066251D01*
X0029673618Y0014115613D01*
X0029696730Y0014163720D01*
X0029722071Y0014210502D01*
X0029749573Y0014255891D01*
X0029779168Y0014299816D01*
X0029810788Y0014342207D01*
X0029844366Y0014382995D01*
X0029879834Y0014422111D01*
X0029917124Y0014459483D01*
X0029956167Y0014495043D01*
X0029996897Y0014528720D01*
X0030039246Y0014560446D01*
X0030083145Y0014590149D01*
X0030128527Y0014617761D01*
X0030175324Y0014643212D01*
X0030223468Y0014666431D01*
X0030272891Y0014687350D01*
X0030323526Y0014705898D01*
X0030375304Y0014722005D01*
X0030428158Y0014735603D01*
X0030482021Y0014746620D01*
X0030536823Y0014754988D01*
X0030592498Y0014760636D01*
X0030648977Y0014763495D01*
X0030677527Y0014763736D01*
G37*
%LPD*%
G36*
X0033404662Y0014774080D02*
G01*
X0033460851Y0014771241D01*
X0033516274Y0014765630D01*
X0033570861Y0014757316D01*
X0033624542Y0014746365D01*
X0033677248Y0014732847D01*
X0033728909Y0014716829D01*
X0033779455Y0014698378D01*
X0033828817Y0014677563D01*
X0033876923Y0014654451D01*
X0033923706Y0014629110D01*
X0033969095Y0014601608D01*
X0034013020Y0014572013D01*
X0034055411Y0014540393D01*
X0034096199Y0014506815D01*
X0034135314Y0014471347D01*
X0034172687Y0014434057D01*
X0034208247Y0014395013D01*
X0034241924Y0014354283D01*
X0034273649Y0014311935D01*
X0034303353Y0014268036D01*
X0034330965Y0014222654D01*
X0034356416Y0014175857D01*
X0034379635Y0014127713D01*
X0034400554Y0014078290D01*
X0034419102Y0014027655D01*
X0034435209Y0013975877D01*
X0034448807Y0013923022D01*
X0034459824Y0013869160D01*
X0034468192Y0013814358D01*
X0034473840Y0013758683D01*
X0034476699Y0013702203D01*
X0034476940Y0013673654D01*
X0034476699Y0013645268D01*
X0034473840Y0013589099D01*
X0034468192Y0013533715D01*
X0034459824Y0013479184D01*
X0034448807Y0013425575D01*
X0034435209Y0013372956D01*
X0034419102Y0013321396D01*
X0034400554Y0013270963D01*
X0034379635Y0013221726D01*
X0034356416Y0013173753D01*
X0034330965Y0013127112D01*
X0034303353Y0013081873D01*
X0034273649Y0013038103D01*
X0034241924Y0012995871D01*
X0034208247Y0012955246D01*
X0034172687Y0012916295D01*
X0034135314Y0012879088D01*
X0034096199Y0012843693D01*
X0034055411Y0012810178D01*
X0034013020Y0012778612D01*
X0033969095Y0012749064D01*
X0033923706Y0012721601D01*
X0033876923Y0012696293D01*
X0033828817Y0012673207D01*
X0033779455Y0012652412D01*
X0033728909Y0012633977D01*
X0033677248Y0012617971D01*
X0033624542Y0012604460D01*
X0033570861Y0012593515D01*
X0033516274Y0012585204D01*
X0033460851Y0012579594D01*
X0033404662Y0012576755D01*
X0033376274Y0012576516D01*
X0033348051Y0012576755D01*
X0033292172Y0012579594D01*
X0033237040Y0012585204D01*
X0033182724Y0012593515D01*
X0033129296Y0012604460D01*
X0033076825Y0012617971D01*
X0033025383Y0012633977D01*
X0032975039Y0012652412D01*
X0032925863Y0012673207D01*
X0032877928Y0012696293D01*
X0032831301Y0012721601D01*
X0032786055Y0012749064D01*
X0032742259Y0012778612D01*
X0032699984Y0012810178D01*
X0032659301Y0012843693D01*
X0032620279Y0012879088D01*
X0032582989Y0012916295D01*
X0032547502Y0012955246D01*
X0032513888Y0012995871D01*
X0032482217Y0013038103D01*
X0032452560Y0013081873D01*
X0032424987Y0013127112D01*
X0032399569Y0013173753D01*
X0032376376Y0013221726D01*
X0032355478Y0013270963D01*
X0032336946Y0013321396D01*
X0032320850Y0013372956D01*
X0032307260Y0013425575D01*
X0032296248Y0013479184D01*
X0032287883Y0013533715D01*
X0032282236Y0013589099D01*
X0032279378Y0013645268D01*
X0032279137Y0013673654D01*
X0032279376Y0013702041D01*
X0032282215Y0013758231D01*
X0032287824Y0013813653D01*
X0032296136Y0013868240D01*
X0032307081Y0013921922D01*
X0032320591Y0013974628D01*
X0032336598Y0014026289D01*
X0032355033Y0014076835D01*
X0032375827Y0014126196D01*
X0032398913Y0014174303D01*
X0032424222Y0014221086D01*
X0032451684Y0014266474D01*
X0032481233Y0014310399D01*
X0032512799Y0014352791D01*
X0032546314Y0014393579D01*
X0032581709Y0014432694D01*
X0032618916Y0014470066D01*
X0032657866Y0014505626D01*
X0032698492Y0014539304D01*
X0032740723Y0014571029D01*
X0032784493Y0014600733D01*
X0032829733Y0014628345D01*
X0032876373Y0014653795D01*
X0032924346Y0014677015D01*
X0032973584Y0014697933D01*
X0033024017Y0014716481D01*
X0033075577Y0014732589D01*
X0033128195Y0014746186D01*
X0033181805Y0014757203D01*
X0033236335Y0014765571D01*
X0033291720Y0014771219D01*
X0033347889Y0014774078D01*
X0033376274Y0014774320D01*
G37*
%LPD*%
G36*
X0036219824Y0014774080D02*
G01*
X0036275993Y0014771241D01*
X0036331377Y0014765630D01*
X0036385908Y0014757316D01*
X0036439517Y0014746365D01*
X0036492136Y0014732847D01*
X0036543696Y0014716829D01*
X0036594129Y0014698378D01*
X0036643367Y0014677563D01*
X0036691340Y0014654451D01*
X0036737980Y0014629110D01*
X0036783220Y0014601608D01*
X0036826990Y0014572013D01*
X0036869221Y0014540393D01*
X0036909847Y0014506815D01*
X0036948797Y0014471347D01*
X0036986004Y0014434057D01*
X0037021399Y0014395013D01*
X0037054914Y0014354283D01*
X0037086480Y0014311935D01*
X0037116028Y0014268036D01*
X0037143491Y0014222654D01*
X0037168800Y0014175857D01*
X0037191886Y0014127713D01*
X0037212680Y0014078290D01*
X0037231115Y0014027655D01*
X0037247122Y0013975877D01*
X0037260632Y0013923022D01*
X0037271577Y0013869160D01*
X0037279888Y0013814358D01*
X0037285498Y0013758683D01*
X0037288337Y0013702203D01*
X0037288576Y0013673654D01*
X0037288337Y0013645268D01*
X0037285498Y0013589099D01*
X0037279888Y0013533715D01*
X0037271577Y0013479184D01*
X0037260632Y0013425575D01*
X0037247122Y0013372956D01*
X0037231115Y0013321396D01*
X0037212680Y0013270963D01*
X0037191886Y0013221726D01*
X0037168800Y0013173753D01*
X0037143491Y0013127112D01*
X0037116028Y0013081873D01*
X0037086480Y0013038103D01*
X0037054914Y0012995871D01*
X0037021399Y0012955246D01*
X0036986004Y0012916295D01*
X0036948797Y0012879088D01*
X0036909847Y0012843693D01*
X0036869221Y0012810178D01*
X0036826990Y0012778612D01*
X0036783220Y0012749064D01*
X0036737980Y0012721601D01*
X0036691340Y0012696293D01*
X0036643367Y0012673207D01*
X0036594129Y0012652412D01*
X0036543696Y0012633977D01*
X0036492136Y0012617971D01*
X0036439517Y0012604460D01*
X0036385908Y0012593515D01*
X0036331377Y0012585204D01*
X0036275993Y0012579594D01*
X0036219824Y0012576755D01*
X0036191438Y0012576516D01*
X0036163051Y0012576755D01*
X0036106862Y0012579594D01*
X0036051439Y0012585204D01*
X0035996852Y0012593515D01*
X0035943170Y0012604460D01*
X0035890464Y0012617971D01*
X0035838804Y0012633977D01*
X0035788258Y0012652412D01*
X0035738896Y0012673207D01*
X0035690789Y0012696293D01*
X0035644007Y0012721601D01*
X0035598618Y0012749064D01*
X0035554693Y0012778612D01*
X0035512302Y0012810178D01*
X0035471514Y0012843693D01*
X0035432399Y0012879088D01*
X0035395026Y0012916295D01*
X0035359466Y0012955246D01*
X0035325789Y0012995871D01*
X0035294063Y0013038103D01*
X0035264360Y0013081873D01*
X0035236748Y0013127112D01*
X0035211297Y0013173753D01*
X0035188078Y0013221726D01*
X0035167159Y0013270963D01*
X0035148611Y0013321396D01*
X0035132504Y0013372956D01*
X0035118906Y0013425575D01*
X0035107889Y0013479184D01*
X0035099521Y0013533715D01*
X0035093873Y0013589099D01*
X0035091014Y0013645268D01*
X0035090773Y0013673654D01*
X0035091012Y0013702041D01*
X0035093852Y0013758231D01*
X0035099462Y0013813653D01*
X0035107777Y0013868240D01*
X0035118727Y0013921922D01*
X0035132245Y0013974628D01*
X0035148264Y0014026289D01*
X0035166714Y0014076835D01*
X0035187530Y0014126196D01*
X0035210641Y0014174303D01*
X0035235982Y0014221086D01*
X0035263484Y0014266474D01*
X0035293079Y0014310399D01*
X0035324700Y0014352791D01*
X0035358278Y0014393579D01*
X0035393745Y0014432694D01*
X0035431035Y0014470066D01*
X0035470079Y0014505626D01*
X0035510809Y0014539304D01*
X0035553157Y0014571029D01*
X0035597056Y0014600733D01*
X0035642438Y0014628345D01*
X0035689235Y0014653795D01*
X0035737379Y0014677015D01*
X0035786802Y0014697933D01*
X0035837437Y0014716481D01*
X0035889216Y0014732589D01*
X0035942070Y0014746186D01*
X0035995932Y0014757203D01*
X0036050735Y0014765571D01*
X0036106410Y0014771219D01*
X0036162889Y0014774078D01*
X0036191438Y0014774320D01*
G37*
%LPD*%
G36*
X0039017349Y0014763497D02*
G01*
X0039073518Y0014760658D01*
X0039128903Y0014755047D01*
X0039183434Y0014746732D01*
X0039237043Y0014735782D01*
X0039289661Y0014722264D01*
X0039341222Y0014706246D01*
X0039391654Y0014687795D01*
X0039440892Y0014666980D01*
X0039488865Y0014643868D01*
X0039535505Y0014618527D01*
X0039580745Y0014591025D01*
X0039624515Y0014561430D01*
X0039666747Y0014529809D01*
X0039707372Y0014496231D01*
X0039746322Y0014460764D01*
X0039783529Y0014423474D01*
X0039818924Y0014384430D01*
X0039852439Y0014343700D01*
X0039884005Y0014301352D01*
X0039913554Y0014257453D01*
X0039941016Y0014212071D01*
X0039966325Y0014165274D01*
X0039989411Y0014117130D01*
X0040010205Y0014067707D01*
X0040028640Y0014017072D01*
X0040044647Y0013965293D01*
X0040058157Y0013912439D01*
X0040069102Y0013858577D01*
X0040077414Y0013803774D01*
X0040083023Y0013748099D01*
X0040085862Y0013691620D01*
X0040086102Y0013663071D01*
X0040085862Y0013634685D01*
X0040083023Y0013578516D01*
X0040077414Y0013523132D01*
X0040069102Y0013468601D01*
X0040058157Y0013414992D01*
X0040044647Y0013362373D01*
X0040028640Y0013310813D01*
X0040010205Y0013260380D01*
X0039989411Y0013211143D01*
X0039966325Y0013163169D01*
X0039941016Y0013116529D01*
X0039913554Y0013071289D01*
X0039884005Y0013027520D01*
X0039852439Y0012985288D01*
X0039818924Y0012944662D01*
X0039783529Y0012905712D01*
X0039746322Y0012868505D01*
X0039707372Y0012833110D01*
X0039666747Y0012799595D01*
X0039624515Y0012768029D01*
X0039580745Y0012738481D01*
X0039535505Y0012711018D01*
X0039488865Y0012685709D01*
X0039440892Y0012662624D01*
X0039391654Y0012641829D01*
X0039341222Y0012623394D01*
X0039289661Y0012607387D01*
X0039237043Y0012593877D01*
X0039183434Y0012582932D01*
X0039128903Y0012574621D01*
X0039073518Y0012569011D01*
X0039017349Y0012566172D01*
X0038988964Y0012565933D01*
X0038960578Y0012566172D01*
X0038904409Y0012569011D01*
X0038849025Y0012574621D01*
X0038794494Y0012582932D01*
X0038740885Y0012593877D01*
X0038688266Y0012607387D01*
X0038636706Y0012623394D01*
X0038586273Y0012641829D01*
X0038537036Y0012662624D01*
X0038489062Y0012685709D01*
X0038442422Y0012711018D01*
X0038397182Y0012738481D01*
X0038353413Y0012768029D01*
X0038311181Y0012799595D01*
X0038270555Y0012833110D01*
X0038231605Y0012868505D01*
X0038194398Y0012905712D01*
X0038159003Y0012944662D01*
X0038125488Y0012985288D01*
X0038093922Y0013027520D01*
X0038064374Y0013071289D01*
X0038036911Y0013116529D01*
X0038011602Y0013163169D01*
X0037988517Y0013211143D01*
X0037967722Y0013260380D01*
X0037949287Y0013310813D01*
X0037933280Y0013362373D01*
X0037919770Y0013414992D01*
X0037908825Y0013468601D01*
X0037900514Y0013523132D01*
X0037894904Y0013578516D01*
X0037892065Y0013634685D01*
X0037891826Y0013663071D01*
X0037892065Y0013691458D01*
X0037894904Y0013747647D01*
X0037900514Y0013803070D01*
X0037908825Y0013857657D01*
X0037919770Y0013911339D01*
X0037933280Y0013964045D01*
X0037949287Y0014015705D01*
X0037967722Y0014066251D01*
X0037988517Y0014115613D01*
X0038011602Y0014163720D01*
X0038036911Y0014210502D01*
X0038064374Y0014255891D01*
X0038093922Y0014299816D01*
X0038125488Y0014342207D01*
X0038159003Y0014382995D01*
X0038194398Y0014422111D01*
X0038231605Y0014459483D01*
X0038270555Y0014495043D01*
X0038311181Y0014528720D01*
X0038353413Y0014560446D01*
X0038397182Y0014590149D01*
X0038442422Y0014617761D01*
X0038489062Y0014643212D01*
X0038537036Y0014666431D01*
X0038586273Y0014687350D01*
X0038636706Y0014705898D01*
X0038688266Y0014722005D01*
X0038740885Y0014735603D01*
X0038794494Y0014746620D01*
X0038849025Y0014754988D01*
X0038904409Y0014760636D01*
X0038960578Y0014763495D01*
X0038988964Y0014763736D01*
G37*
%LPD*%
G36*
X0040431987Y0012198805D02*
G01*
X0040488156Y0012195965D01*
X0040543540Y0012190355D01*
X0040598071Y0012182040D01*
X0040651680Y0012171090D01*
X0040704299Y0012157572D01*
X0040755859Y0012141553D01*
X0040806292Y0012123103D01*
X0040855529Y0012102287D01*
X0040903502Y0012079176D01*
X0040950143Y0012053835D01*
X0040995382Y0012026333D01*
X0041039152Y0011996738D01*
X0041081384Y0011965117D01*
X0041122010Y0011931539D01*
X0041160960Y0011896072D01*
X0041198167Y0011858782D01*
X0041233562Y0011819738D01*
X0041267077Y0011779008D01*
X0041298643Y0011736660D01*
X0041328191Y0011692761D01*
X0041355654Y0011647379D01*
X0041380962Y0011600582D01*
X0041404048Y0011552438D01*
X0041424843Y0011503015D01*
X0041443278Y0011452380D01*
X0041459284Y0011400601D01*
X0041472795Y0011347747D01*
X0041483740Y0011293885D01*
X0041492051Y0011239082D01*
X0041497661Y0011183407D01*
X0041500500Y0011126928D01*
X0041500739Y0011098379D01*
X0041500500Y0011069993D01*
X0041497661Y0011013824D01*
X0041492051Y0010958440D01*
X0041483740Y0010903909D01*
X0041472795Y0010850300D01*
X0041459284Y0010797681D01*
X0041443278Y0010746121D01*
X0041424843Y0010695688D01*
X0041404048Y0010646450D01*
X0041380962Y0010598477D01*
X0041355654Y0010551837D01*
X0041328191Y0010506597D01*
X0041298643Y0010462827D01*
X0041267077Y0010420596D01*
X0041233562Y0010379970D01*
X0041198167Y0010341020D01*
X0041160960Y0010303813D01*
X0041122010Y0010268418D01*
X0041081384Y0010234903D01*
X0041039152Y0010203337D01*
X0040995382Y0010173789D01*
X0040950143Y0010146326D01*
X0040903502Y0010121017D01*
X0040855529Y0010097932D01*
X0040806292Y0010077137D01*
X0040755859Y0010058702D01*
X0040704299Y0010042695D01*
X0040651680Y0010029185D01*
X0040598071Y0010018240D01*
X0040543540Y0010009929D01*
X0040488156Y0010004319D01*
X0040431987Y0010001480D01*
X0040403601Y0010001241D01*
X0040375215Y0010001482D01*
X0040319046Y0010004340D01*
X0040263662Y0010009987D01*
X0040209131Y0010018352D01*
X0040155522Y0010029364D01*
X0040102903Y0010042954D01*
X0040051343Y0010059050D01*
X0040000910Y0010077582D01*
X0039951673Y0010098480D01*
X0039903700Y0010121673D01*
X0039857060Y0010147091D01*
X0039811820Y0010174664D01*
X0039768050Y0010204321D01*
X0039725818Y0010235992D01*
X0039685193Y0010269606D01*
X0039646242Y0010305093D01*
X0039609035Y0010342383D01*
X0039573640Y0010381405D01*
X0039540126Y0010422089D01*
X0039508560Y0010464363D01*
X0039479011Y0010508159D01*
X0039451548Y0010553405D01*
X0039426240Y0010600032D01*
X0039403154Y0010647968D01*
X0039382360Y0010697143D01*
X0039363925Y0010747487D01*
X0039347918Y0010798930D01*
X0039334408Y0010851400D01*
X0039323463Y0010904828D01*
X0039315151Y0010959144D01*
X0039309542Y0011014276D01*
X0039306703Y0011070155D01*
X0039306463Y0011098379D01*
X0039306703Y0011126766D01*
X0039309542Y0011182955D01*
X0039315151Y0011238378D01*
X0039323463Y0011292965D01*
X0039334408Y0011346647D01*
X0039347918Y0011399353D01*
X0039363925Y0011451013D01*
X0039382360Y0011501559D01*
X0039403154Y0011550921D01*
X0039426240Y0011599028D01*
X0039451548Y0011645810D01*
X0039479011Y0011691199D01*
X0039508560Y0011735124D01*
X0039540126Y0011777515D01*
X0039573640Y0011818303D01*
X0039609035Y0011857418D01*
X0039646242Y0011894791D01*
X0039685193Y0011930351D01*
X0039725818Y0011964028D01*
X0039768050Y0011995754D01*
X0039811820Y0012025457D01*
X0039857060Y0012053069D01*
X0039903700Y0012078520D01*
X0039951673Y0012101739D01*
X0040000910Y0012122658D01*
X0040051343Y0012141206D01*
X0040102903Y0012157313D01*
X0040155522Y0012170911D01*
X0040209131Y0012181928D01*
X0040263662Y0012190296D01*
X0040319046Y0012195944D01*
X0040375215Y0012198803D01*
X0040403601Y0012199044D01*
G37*
%LPD*%
G36*
X0043243585Y0012184693D02*
G01*
X0043299684Y0012181850D01*
X0043355008Y0012176231D01*
X0043409487Y0012167907D01*
X0043463053Y0012156946D01*
X0043515636Y0012143417D01*
X0043567168Y0012127389D01*
X0043617580Y0012108930D01*
X0043666802Y0012088111D01*
X0043714767Y0012064999D01*
X0043761404Y0012039665D01*
X0043806645Y0012012176D01*
X0043850421Y0011982601D01*
X0043892663Y0011951010D01*
X0043933302Y0011917471D01*
X0043972270Y0011882054D01*
X0044009497Y0011844828D01*
X0044044914Y0011805860D01*
X0044078452Y0011765221D01*
X0044110043Y0011722979D01*
X0044139618Y0011679202D01*
X0044167107Y0011633961D01*
X0044192442Y0011587324D01*
X0044215553Y0011539360D01*
X0044236373Y0011490138D01*
X0044254831Y0011439726D01*
X0044270859Y0011388194D01*
X0044284388Y0011335611D01*
X0044295349Y0011282045D01*
X0044303673Y0011227566D01*
X0044309292Y0011172242D01*
X0044312135Y0011116142D01*
X0044312375Y0011087795D01*
X0044312135Y0011059448D01*
X0044309292Y0011003349D01*
X0044303673Y0010948025D01*
X0044295349Y0010893546D01*
X0044284388Y0010839980D01*
X0044270859Y0010787396D01*
X0044254831Y0010735864D01*
X0044236373Y0010685453D01*
X0044215553Y0010636230D01*
X0044192442Y0010588266D01*
X0044167107Y0010541629D01*
X0044139618Y0010496388D01*
X0044110043Y0010452612D01*
X0044078452Y0010410370D01*
X0044044914Y0010369730D01*
X0044009497Y0010330763D01*
X0043972270Y0010293536D01*
X0043933302Y0010258119D01*
X0043892663Y0010224580D01*
X0043850421Y0010192989D01*
X0043806645Y0010163415D01*
X0043761404Y0010135926D01*
X0043714767Y0010110591D01*
X0043666802Y0010087479D01*
X0043617580Y0010066660D01*
X0043567168Y0010048202D01*
X0043515636Y0010032174D01*
X0043463053Y0010018645D01*
X0043409487Y0010007684D01*
X0043355008Y0009999359D01*
X0043299684Y0009993741D01*
X0043243585Y0009990897D01*
X0043215237Y0009990657D01*
X0043186890Y0009990897D01*
X0043130791Y0009993741D01*
X0043075467Y0009999359D01*
X0043020988Y0010007684D01*
X0042967422Y0010018645D01*
X0042914839Y0010032174D01*
X0042863307Y0010048202D01*
X0042812895Y0010066660D01*
X0042763673Y0010087479D01*
X0042715708Y0010110591D01*
X0042669071Y0010135926D01*
X0042623830Y0010163415D01*
X0042580054Y0010192989D01*
X0042537812Y0010224580D01*
X0042497173Y0010258119D01*
X0042458205Y0010293536D01*
X0042420978Y0010330763D01*
X0042385561Y0010369730D01*
X0042352023Y0010410370D01*
X0042320432Y0010452612D01*
X0042290857Y0010496388D01*
X0042263368Y0010541629D01*
X0042238033Y0010588266D01*
X0042214922Y0010636230D01*
X0042194102Y0010685453D01*
X0042175644Y0010735864D01*
X0042159616Y0010787396D01*
X0042146087Y0010839980D01*
X0042135126Y0010893546D01*
X0042126802Y0010948025D01*
X0042121183Y0011003349D01*
X0042118339Y0011059448D01*
X0042118100Y0011087795D01*
X0042118339Y0011116142D01*
X0042121183Y0011172242D01*
X0042126802Y0011227566D01*
X0042135126Y0011282045D01*
X0042146087Y0011335611D01*
X0042159616Y0011388194D01*
X0042175644Y0011439726D01*
X0042194102Y0011490138D01*
X0042214922Y0011539360D01*
X0042238033Y0011587324D01*
X0042263368Y0011633961D01*
X0042290857Y0011679202D01*
X0042320432Y0011722979D01*
X0042352023Y0011765221D01*
X0042385561Y0011805860D01*
X0042420978Y0011844828D01*
X0042458205Y0011882054D01*
X0042497173Y0011917471D01*
X0042537812Y0011951010D01*
X0042580054Y0011982601D01*
X0042623830Y0012012176D01*
X0042669071Y0012039665D01*
X0042715708Y0012064999D01*
X0042763673Y0012088111D01*
X0042812895Y0012108930D01*
X0042863307Y0012127389D01*
X0042914839Y0012143417D01*
X0042967422Y0012156946D01*
X0043020988Y0012167907D01*
X0043075467Y0012176231D01*
X0043130791Y0012181850D01*
X0043186890Y0012184693D01*
X0043215237Y0012184933D01*
G37*
%LPD*%
G36*
X0046044676Y0012184694D02*
G01*
X0046100845Y0012181855D01*
X0046156229Y0012176245D01*
X0046210760Y0012167934D01*
X0046264369Y0012156989D01*
X0046316988Y0012143478D01*
X0046368548Y0012127472D01*
X0046418981Y0012109037D01*
X0046468218Y0012088242D01*
X0046516192Y0012065156D01*
X0046562832Y0012039848D01*
X0046608072Y0012012385D01*
X0046651841Y0011982837D01*
X0046694073Y0011951271D01*
X0046734699Y0011917756D01*
X0046773649Y0011882361D01*
X0046810856Y0011845154D01*
X0046846251Y0011806204D01*
X0046879766Y0011765578D01*
X0046911332Y0011723346D01*
X0046940880Y0011679576D01*
X0046968343Y0011634337D01*
X0046993652Y0011587696D01*
X0047016737Y0011539723D01*
X0047037532Y0011490486D01*
X0047055967Y0011440053D01*
X0047071974Y0011388493D01*
X0047085484Y0011335874D01*
X0047096429Y0011282265D01*
X0047104740Y0011227734D01*
X0047110350Y0011172350D01*
X0047113189Y0011116181D01*
X0047113428Y0011087795D01*
X0047113189Y0011059409D01*
X0047110350Y0011003240D01*
X0047104740Y0010947856D01*
X0047096429Y0010893325D01*
X0047085484Y0010839716D01*
X0047071974Y0010787097D01*
X0047055967Y0010735537D01*
X0047037532Y0010685104D01*
X0047016737Y0010635867D01*
X0046993652Y0010587894D01*
X0046968343Y0010541254D01*
X0046940880Y0010496014D01*
X0046911332Y0010452244D01*
X0046879766Y0010410012D01*
X0046846251Y0010369387D01*
X0046810856Y0010330436D01*
X0046773649Y0010293229D01*
X0046734699Y0010257834D01*
X0046694073Y0010224320D01*
X0046651841Y0010192754D01*
X0046608072Y0010163205D01*
X0046562832Y0010135742D01*
X0046516192Y0010110434D01*
X0046468218Y0010087348D01*
X0046418981Y0010066554D01*
X0046368548Y0010048119D01*
X0046316988Y0010032112D01*
X0046264369Y0010018602D01*
X0046210760Y0010007657D01*
X0046156229Y0009999345D01*
X0046100845Y0009993736D01*
X0046044676Y0009990897D01*
X0046016290Y0009990657D01*
X0045987741Y0009990897D01*
X0045931262Y0009993736D01*
X0045875587Y0009999345D01*
X0045820784Y0010007657D01*
X0045766922Y0010018602D01*
X0045714068Y0010032112D01*
X0045662289Y0010048119D01*
X0045611654Y0010066554D01*
X0045562231Y0010087348D01*
X0045514087Y0010110434D01*
X0045467290Y0010135742D01*
X0045421908Y0010163205D01*
X0045378009Y0010192754D01*
X0045335661Y0010224320D01*
X0045294931Y0010257834D01*
X0045255887Y0010293229D01*
X0045218597Y0010330436D01*
X0045183130Y0010369387D01*
X0045149552Y0010410012D01*
X0045117931Y0010452244D01*
X0045088336Y0010496014D01*
X0045060834Y0010541254D01*
X0045035493Y0010587894D01*
X0045012381Y0010635867D01*
X0044991566Y0010685104D01*
X0044973116Y0010735537D01*
X0044957097Y0010787097D01*
X0044943579Y0010839716D01*
X0044932629Y0010893325D01*
X0044924314Y0010947856D01*
X0044918704Y0011003240D01*
X0044915864Y0011059409D01*
X0044915625Y0011087795D01*
X0044915864Y0011116181D01*
X0044918704Y0011172350D01*
X0044924314Y0011227734D01*
X0044932629Y0011282265D01*
X0044943579Y0011335874D01*
X0044957097Y0011388493D01*
X0044973116Y0011440053D01*
X0044991566Y0011490486D01*
X0045012381Y0011539723D01*
X0045035493Y0011587696D01*
X0045060834Y0011634337D01*
X0045088336Y0011679576D01*
X0045117931Y0011723346D01*
X0045149552Y0011765578D01*
X0045183130Y0011806204D01*
X0045218597Y0011845154D01*
X0045255887Y0011882361D01*
X0045294931Y0011917756D01*
X0045335661Y0011951271D01*
X0045378009Y0011982837D01*
X0045421908Y0012012385D01*
X0045467290Y0012039848D01*
X0045514087Y0012065156D01*
X0045562231Y0012088242D01*
X0045611654Y0012109037D01*
X0045662289Y0012127472D01*
X0045714068Y0012143478D01*
X0045766922Y0012156989D01*
X0045820784Y0012167934D01*
X0045875587Y0012176245D01*
X0045931262Y0012181855D01*
X0045987741Y0012184694D01*
X0046016290Y0012184933D01*
G37*
%LPD*%
G36*
X0041821932Y0014745858D02*
G01*
X0041878121Y0014743019D01*
X0041933544Y0014737408D01*
X0041988131Y0014729093D01*
X0042041812Y0014718143D01*
X0042094518Y0014704625D01*
X0042146179Y0014688607D01*
X0042196725Y0014670156D01*
X0042246087Y0014649341D01*
X0042294193Y0014626229D01*
X0042340976Y0014600888D01*
X0042386365Y0014573386D01*
X0042430290Y0014543791D01*
X0042472681Y0014512171D01*
X0042513469Y0014478593D01*
X0042552584Y0014443125D01*
X0042589957Y0014405835D01*
X0042625516Y0014366791D01*
X0042659194Y0014326061D01*
X0042690919Y0014283713D01*
X0042720623Y0014239814D01*
X0042748235Y0014194432D01*
X0042773686Y0014147635D01*
X0042796905Y0014099491D01*
X0042817824Y0014050068D01*
X0042836372Y0013999433D01*
X0042852479Y0013947655D01*
X0042866077Y0013894800D01*
X0042877094Y0013840938D01*
X0042885462Y0013786135D01*
X0042891110Y0013730461D01*
X0042893969Y0013673981D01*
X0042894210Y0013645432D01*
X0042893969Y0013617046D01*
X0042891110Y0013560877D01*
X0042885462Y0013505493D01*
X0042877094Y0013450962D01*
X0042866077Y0013397353D01*
X0042852479Y0013344734D01*
X0042836372Y0013293174D01*
X0042817824Y0013242741D01*
X0042796905Y0013193504D01*
X0042773686Y0013145531D01*
X0042748235Y0013098890D01*
X0042720623Y0013053651D01*
X0042690919Y0013009881D01*
X0042659194Y0012967649D01*
X0042625516Y0012927023D01*
X0042589957Y0012888073D01*
X0042552584Y0012850866D01*
X0042513469Y0012815471D01*
X0042472681Y0012781956D01*
X0042430290Y0012750390D01*
X0042386365Y0012720842D01*
X0042340976Y0012693379D01*
X0042294193Y0012668070D01*
X0042246087Y0012644985D01*
X0042196725Y0012624190D01*
X0042146179Y0012605755D01*
X0042094518Y0012589748D01*
X0042041812Y0012576238D01*
X0041988131Y0012565293D01*
X0041933544Y0012556982D01*
X0041878121Y0012551372D01*
X0041821932Y0012548533D01*
X0041793544Y0012548294D01*
X0041765320Y0012548533D01*
X0041709442Y0012551372D01*
X0041654310Y0012556982D01*
X0041599994Y0012565293D01*
X0041546566Y0012576238D01*
X0041494095Y0012589748D01*
X0041442653Y0012605755D01*
X0041392309Y0012624190D01*
X0041343133Y0012644985D01*
X0041295197Y0012668070D01*
X0041248571Y0012693379D01*
X0041203325Y0012720842D01*
X0041159529Y0012750390D01*
X0041117254Y0012781956D01*
X0041076571Y0012815471D01*
X0041037549Y0012850866D01*
X0041000259Y0012888073D01*
X0040964772Y0012927023D01*
X0040931158Y0012967649D01*
X0040899487Y0013009881D01*
X0040869830Y0013053651D01*
X0040842257Y0013098890D01*
X0040816839Y0013145531D01*
X0040793646Y0013193504D01*
X0040772748Y0013242741D01*
X0040754215Y0013293174D01*
X0040738120Y0013344734D01*
X0040724530Y0013397353D01*
X0040713518Y0013450962D01*
X0040705153Y0013505493D01*
X0040699506Y0013560877D01*
X0040696648Y0013617046D01*
X0040696406Y0013645432D01*
X0040696646Y0013673819D01*
X0040699485Y0013730008D01*
X0040705094Y0013785431D01*
X0040713406Y0013840018D01*
X0040724351Y0013893700D01*
X0040737861Y0013946406D01*
X0040753868Y0013998067D01*
X0040772303Y0014048613D01*
X0040793097Y0014097974D01*
X0040816183Y0014146081D01*
X0040841492Y0014192863D01*
X0040868954Y0014238252D01*
X0040898503Y0014282177D01*
X0040930069Y0014324568D01*
X0040963584Y0014365357D01*
X0040998979Y0014404472D01*
X0041036186Y0014441844D01*
X0041075136Y0014477404D01*
X0041115761Y0014511081D01*
X0041157993Y0014542807D01*
X0041201763Y0014572510D01*
X0041247003Y0014600122D01*
X0041293643Y0014625573D01*
X0041341616Y0014648792D01*
X0041390854Y0014669711D01*
X0041441286Y0014688259D01*
X0041492847Y0014704367D01*
X0041545465Y0014717964D01*
X0041599074Y0014728981D01*
X0041653605Y0014737349D01*
X0041708990Y0014742997D01*
X0041765159Y0014745856D01*
X0041793544Y0014746097D01*
G37*
%LPD*%
G36*
X0044637094Y0014745858D02*
G01*
X0044693263Y0014743019D01*
X0044748647Y0014737408D01*
X0044803178Y0014729093D01*
X0044856787Y0014718143D01*
X0044909406Y0014704625D01*
X0044960966Y0014688607D01*
X0045011399Y0014670156D01*
X0045060636Y0014649341D01*
X0045108610Y0014626229D01*
X0045155250Y0014600888D01*
X0045200490Y0014573386D01*
X0045244259Y0014543791D01*
X0045286491Y0014512171D01*
X0045327117Y0014478593D01*
X0045366067Y0014443125D01*
X0045403274Y0014405835D01*
X0045438669Y0014366791D01*
X0045472184Y0014326061D01*
X0045503750Y0014283713D01*
X0045533298Y0014239814D01*
X0045560761Y0014194432D01*
X0045586070Y0014147635D01*
X0045609155Y0014099491D01*
X0045629950Y0014050068D01*
X0045648385Y0013999433D01*
X0045664392Y0013947655D01*
X0045677902Y0013894800D01*
X0045688847Y0013840938D01*
X0045697158Y0013786135D01*
X0045702768Y0013730461D01*
X0045705607Y0013673981D01*
X0045705846Y0013645432D01*
X0045705607Y0013617046D01*
X0045702768Y0013560877D01*
X0045697158Y0013505493D01*
X0045688847Y0013450962D01*
X0045677902Y0013397353D01*
X0045664392Y0013344734D01*
X0045648385Y0013293174D01*
X0045629950Y0013242741D01*
X0045609155Y0013193504D01*
X0045586070Y0013145531D01*
X0045560761Y0013098890D01*
X0045533298Y0013053651D01*
X0045503750Y0013009881D01*
X0045472184Y0012967649D01*
X0045438669Y0012927023D01*
X0045403274Y0012888073D01*
X0045366067Y0012850866D01*
X0045327117Y0012815471D01*
X0045286491Y0012781956D01*
X0045244259Y0012750390D01*
X0045200490Y0012720842D01*
X0045155250Y0012693379D01*
X0045108610Y0012668070D01*
X0045060636Y0012644985D01*
X0045011399Y0012624190D01*
X0044960966Y0012605755D01*
X0044909406Y0012589748D01*
X0044856787Y0012576238D01*
X0044803178Y0012565293D01*
X0044748647Y0012556982D01*
X0044693263Y0012551372D01*
X0044637094Y0012548533D01*
X0044608708Y0012548294D01*
X0044580321Y0012548533D01*
X0044524132Y0012551372D01*
X0044468709Y0012556982D01*
X0044414122Y0012565293D01*
X0044360440Y0012576238D01*
X0044307734Y0012589748D01*
X0044256074Y0012605755D01*
X0044205528Y0012624190D01*
X0044156166Y0012644985D01*
X0044108059Y0012668070D01*
X0044061277Y0012693379D01*
X0044015888Y0012720842D01*
X0043971963Y0012750390D01*
X0043929572Y0012781956D01*
X0043888784Y0012815471D01*
X0043849668Y0012850866D01*
X0043812296Y0012888073D01*
X0043776736Y0012927023D01*
X0043743059Y0012967649D01*
X0043711333Y0013009881D01*
X0043681630Y0013053651D01*
X0043654018Y0013098890D01*
X0043628567Y0013145531D01*
X0043605348Y0013193504D01*
X0043584429Y0013242741D01*
X0043565881Y0013293174D01*
X0043549774Y0013344734D01*
X0043536176Y0013397353D01*
X0043525159Y0013450962D01*
X0043516791Y0013505493D01*
X0043511143Y0013560877D01*
X0043508284Y0013617046D01*
X0043508043Y0013645432D01*
X0043508282Y0013673819D01*
X0043511121Y0013730008D01*
X0043516732Y0013785431D01*
X0043525047Y0013840018D01*
X0043535997Y0013893700D01*
X0043549515Y0013946406D01*
X0043565533Y0013998067D01*
X0043583984Y0014048613D01*
X0043604799Y0014097974D01*
X0043627911Y0014146081D01*
X0043653252Y0014192863D01*
X0043680754Y0014238252D01*
X0043710349Y0014282177D01*
X0043741970Y0014324568D01*
X0043775548Y0014365357D01*
X0043811015Y0014404472D01*
X0043848305Y0014441844D01*
X0043887349Y0014477404D01*
X0043928079Y0014511081D01*
X0043970427Y0014542807D01*
X0044014326Y0014572510D01*
X0044059708Y0014600122D01*
X0044106505Y0014625573D01*
X0044154649Y0014648792D01*
X0044204072Y0014669711D01*
X0044254707Y0014688259D01*
X0044306486Y0014704367D01*
X0044359340Y0014717964D01*
X0044413202Y0014728981D01*
X0044468005Y0014737349D01*
X0044523680Y0014742997D01*
X0044580159Y0014745856D01*
X0044608708Y0014746097D01*
G37*
%LPD*%
G36*
X0047434619Y0014735275D02*
G01*
X0047490788Y0014732435D01*
X0047546173Y0014726825D01*
X0047600703Y0014718510D01*
X0047654313Y0014707560D01*
X0047706931Y0014694042D01*
X0047758491Y0014678023D01*
X0047808924Y0014659573D01*
X0047858162Y0014638757D01*
X0047906135Y0014615645D01*
X0047952775Y0014590305D01*
X0047998015Y0014562803D01*
X0048041785Y0014533208D01*
X0048084016Y0014501587D01*
X0048124642Y0014468009D01*
X0048163592Y0014432541D01*
X0048200799Y0014395252D01*
X0048236194Y0014356208D01*
X0048269709Y0014315478D01*
X0048301275Y0014273129D01*
X0048330824Y0014229230D01*
X0048358286Y0014183848D01*
X0048383595Y0014137052D01*
X0048406681Y0014088908D01*
X0048427475Y0014039484D01*
X0048445910Y0013988850D01*
X0048461917Y0013937071D01*
X0048475427Y0013884217D01*
X0048486372Y0013830355D01*
X0048494684Y0013775552D01*
X0048500293Y0013719877D01*
X0048503132Y0013663398D01*
X0048503371Y0013634848D01*
X0048503132Y0013606463D01*
X0048500293Y0013550294D01*
X0048494684Y0013494909D01*
X0048486372Y0013440379D01*
X0048475427Y0013386769D01*
X0048461917Y0013334151D01*
X0048445910Y0013282591D01*
X0048427475Y0013232158D01*
X0048406681Y0013182920D01*
X0048383595Y0013134947D01*
X0048358286Y0013088307D01*
X0048330824Y0013043067D01*
X0048301275Y0012999297D01*
X0048269709Y0012957065D01*
X0048236194Y0012916440D01*
X0048200799Y0012877490D01*
X0048163592Y0012840283D01*
X0048124642Y0012804888D01*
X0048084016Y0012771373D01*
X0048041785Y0012739807D01*
X0047998015Y0012710258D01*
X0047952775Y0012682796D01*
X0047906135Y0012657487D01*
X0047858162Y0012634401D01*
X0047808924Y0012613607D01*
X0047758491Y0012595172D01*
X0047706931Y0012579165D01*
X0047654313Y0012565655D01*
X0047600703Y0012554710D01*
X0047546173Y0012546398D01*
X0047490788Y0012540789D01*
X0047434619Y0012537950D01*
X0047406234Y0012537711D01*
X0047377848Y0012537950D01*
X0047321679Y0012540789D01*
X0047266295Y0012546398D01*
X0047211764Y0012554710D01*
X0047158155Y0012565655D01*
X0047105536Y0012579165D01*
X0047053976Y0012595172D01*
X0047003543Y0012613607D01*
X0046954306Y0012634401D01*
X0046906332Y0012657487D01*
X0046859692Y0012682796D01*
X0046814452Y0012710258D01*
X0046770683Y0012739807D01*
X0046728451Y0012771373D01*
X0046687825Y0012804888D01*
X0046648875Y0012840283D01*
X0046611668Y0012877490D01*
X0046576273Y0012916440D01*
X0046542758Y0012957065D01*
X0046511192Y0012999297D01*
X0046481644Y0013043067D01*
X0046454181Y0013088307D01*
X0046428872Y0013134947D01*
X0046405787Y0013182920D01*
X0046384992Y0013232158D01*
X0046366557Y0013282591D01*
X0046350550Y0013334151D01*
X0046337040Y0013386769D01*
X0046326095Y0013440379D01*
X0046317784Y0013494909D01*
X0046312174Y0013550294D01*
X0046309335Y0013606463D01*
X0046309096Y0013634848D01*
X0046309335Y0013663236D01*
X0046312174Y0013719425D01*
X0046317784Y0013774848D01*
X0046326095Y0013829435D01*
X0046337040Y0013883116D01*
X0046350550Y0013935822D01*
X0046366557Y0013987483D01*
X0046384992Y0014038029D01*
X0046405787Y0014087391D01*
X0046428872Y0014135497D01*
X0046454181Y0014182280D01*
X0046481644Y0014227669D01*
X0046511192Y0014271594D01*
X0046542758Y0014313985D01*
X0046576273Y0014354773D01*
X0046611668Y0014393888D01*
X0046648875Y0014431261D01*
X0046687825Y0014466821D01*
X0046728451Y0014500498D01*
X0046770683Y0014532223D01*
X0046814452Y0014561927D01*
X0046859692Y0014589539D01*
X0046906332Y0014614990D01*
X0046954306Y0014638209D01*
X0047003543Y0014659128D01*
X0047053976Y0014677676D01*
X0047105536Y0014693783D01*
X0047158155Y0014707381D01*
X0047211764Y0014718398D01*
X0047266295Y0014726766D01*
X0047321679Y0014732414D01*
X0047377848Y0014735273D01*
X0047406234Y0014735514D01*
G37*
%LPD*%
G36*
X0054363599Y0015028183D02*
G01*
X0054427958Y0015026552D01*
X0054491904Y0015023311D01*
X0054555418Y0015018478D01*
X0054618480Y0015012074D01*
X0054681070Y0015004117D01*
X0054743170Y0014994629D01*
X0054804758Y0014983628D01*
X0054865816Y0014971133D01*
X0054926324Y0014957166D01*
X0054986263Y0014941744D01*
X0055045611Y0014924889D01*
X0055104351Y0014906619D01*
X0055162462Y0014886954D01*
X0055219925Y0014865914D01*
X0055276720Y0014843518D01*
X0055332827Y0014819787D01*
X0055388227Y0014794739D01*
X0055442900Y0014768395D01*
X0055496827Y0014740774D01*
X0055549987Y0014711896D01*
X0055602362Y0014681780D01*
X0055653931Y0014650446D01*
X0055704674Y0014617913D01*
X0055754574Y0014584202D01*
X0055803608Y0014549332D01*
X0055851759Y0014513322D01*
X0055899006Y0014476193D01*
X0055945329Y0014437963D01*
X0055990710Y0014398653D01*
X0056035128Y0014358282D01*
X0056078564Y0014316870D01*
X0056120997Y0014274436D01*
X0056162410Y0014231000D01*
X0056202781Y0014186582D01*
X0056242091Y0014141202D01*
X0056280320Y0014094878D01*
X0056317450Y0014047631D01*
X0056353459Y0013999481D01*
X0056388330Y0013950446D01*
X0056422041Y0013900547D01*
X0056454573Y0013849803D01*
X0056485907Y0013798234D01*
X0056516023Y0013745859D01*
X0056544902Y0013692699D01*
X0056572523Y0013638773D01*
X0056598867Y0013584099D01*
X0056623915Y0013528700D01*
X0056647646Y0013472592D01*
X0056670042Y0013415797D01*
X0056691082Y0013358335D01*
X0056710746Y0013300224D01*
X0056729016Y0013241484D01*
X0056745872Y0013182135D01*
X0056761293Y0013122197D01*
X0056775261Y0013061689D01*
X0056787755Y0013000631D01*
X0056798756Y0012939042D01*
X0056808245Y0012876943D01*
X0056816201Y0012814352D01*
X0056822606Y0012751290D01*
X0056827438Y0012687776D01*
X0056830680Y0012623830D01*
X0056832310Y0012559471D01*
X0056832447Y0012527127D01*
X0056832310Y0012494783D01*
X0056830680Y0012430424D01*
X0056827438Y0012366478D01*
X0056822606Y0012302964D01*
X0056816201Y0012239902D01*
X0056808245Y0012177312D01*
X0056798756Y0012115212D01*
X0056787755Y0012053624D01*
X0056775261Y0011992566D01*
X0056761293Y0011932058D01*
X0056745872Y0011872119D01*
X0056729016Y0011812771D01*
X0056710746Y0011754031D01*
X0056691082Y0011695920D01*
X0056670042Y0011638457D01*
X0056647646Y0011581662D01*
X0056623915Y0011525555D01*
X0056598867Y0011470155D01*
X0056572523Y0011415482D01*
X0056544902Y0011361555D01*
X0056516023Y0011308395D01*
X0056485907Y0011256021D01*
X0056454573Y0011204452D01*
X0056422041Y0011153708D01*
X0056388330Y0011103809D01*
X0056353459Y0011054774D01*
X0056317450Y0011006623D01*
X0056280320Y0010959376D01*
X0056242091Y0010913053D01*
X0056202781Y0010867672D01*
X0056162410Y0010823254D01*
X0056120997Y0010779818D01*
X0056078564Y0010737385D01*
X0056035128Y0010695973D01*
X0055990710Y0010655602D01*
X0055945329Y0010616291D01*
X0055899006Y0010578062D01*
X0055851759Y0010540932D01*
X0055803608Y0010504923D01*
X0055754574Y0010470052D01*
X0055704674Y0010436341D01*
X0055653931Y0010403809D01*
X0055602362Y0010372475D01*
X0055549987Y0010342359D01*
X0055496827Y0010313480D01*
X0055442900Y0010285859D01*
X0055388227Y0010259515D01*
X0055332827Y0010234467D01*
X0055276720Y0010210736D01*
X0055219925Y0010188341D01*
X0055162462Y0010167301D01*
X0055104351Y0010147636D01*
X0055045611Y0010129366D01*
X0054986263Y0010112510D01*
X0054926324Y0010097089D01*
X0054865816Y0010083121D01*
X0054804758Y0010070627D01*
X0054743170Y0010059626D01*
X0054681070Y0010050137D01*
X0054618480Y0010042181D01*
X0054555418Y0010035776D01*
X0054491904Y0010030944D01*
X0054427958Y0010027702D01*
X0054363599Y0010026072D01*
X0054331255Y0010025935D01*
X0054298911Y0010026072D01*
X0054234552Y0010027702D01*
X0054170606Y0010030944D01*
X0054107092Y0010035776D01*
X0054044030Y0010042181D01*
X0053981439Y0010050137D01*
X0053919340Y0010059626D01*
X0053857751Y0010070627D01*
X0053796693Y0010083121D01*
X0053736185Y0010097089D01*
X0053676247Y0010112510D01*
X0053616898Y0010129366D01*
X0053558159Y0010147636D01*
X0053500047Y0010167301D01*
X0053442585Y0010188341D01*
X0053385790Y0010210736D01*
X0053329683Y0010234467D01*
X0053274283Y0010259515D01*
X0053219610Y0010285859D01*
X0053165683Y0010313480D01*
X0053112523Y0010342359D01*
X0053060148Y0010372475D01*
X0053008579Y0010403809D01*
X0052957835Y0010436341D01*
X0052907936Y0010470052D01*
X0052858902Y0010504923D01*
X0052810751Y0010540932D01*
X0052763504Y0010578062D01*
X0052717180Y0010616291D01*
X0052671800Y0010655602D01*
X0052627382Y0010695973D01*
X0052583946Y0010737385D01*
X0052541512Y0010779818D01*
X0052500100Y0010823254D01*
X0052459729Y0010867672D01*
X0052420419Y0010913053D01*
X0052382190Y0010959376D01*
X0052345060Y0011006623D01*
X0052309050Y0011054774D01*
X0052274180Y0011103809D01*
X0052240469Y0011153708D01*
X0052207936Y0011204452D01*
X0052176602Y0011256021D01*
X0052146486Y0011308395D01*
X0052117608Y0011361555D01*
X0052089987Y0011415482D01*
X0052063643Y0011470155D01*
X0052038595Y0011525555D01*
X0052014864Y0011581662D01*
X0051992468Y0011638457D01*
X0051971428Y0011695920D01*
X0051951763Y0011754031D01*
X0051933493Y0011812771D01*
X0051916638Y0011872119D01*
X0051901217Y0011932058D01*
X0051887249Y0011992566D01*
X0051874755Y0012053624D01*
X0051863753Y0012115212D01*
X0051854265Y0012177312D01*
X0051846308Y0012239902D01*
X0051839904Y0012302964D01*
X0051835071Y0012366478D01*
X0051831830Y0012430424D01*
X0051830199Y0012494783D01*
X0051830063Y0012527127D01*
X0051830199Y0012559471D01*
X0051831830Y0012623830D01*
X0051835071Y0012687776D01*
X0051839904Y0012751290D01*
X0051846308Y0012814352D01*
X0051854265Y0012876943D01*
X0051863753Y0012939042D01*
X0051874755Y0013000631D01*
X0051887249Y0013061689D01*
X0051901217Y0013122197D01*
X0051916638Y0013182135D01*
X0051933493Y0013241484D01*
X0051951763Y0013300224D01*
X0051971428Y0013358335D01*
X0051992468Y0013415797D01*
X0052014864Y0013472592D01*
X0052038595Y0013528700D01*
X0052063643Y0013584099D01*
X0052089987Y0013638773D01*
X0052117608Y0013692699D01*
X0052146486Y0013745859D01*
X0052176602Y0013798234D01*
X0052207936Y0013849803D01*
X0052240469Y0013900547D01*
X0052274180Y0013950446D01*
X0052309050Y0013999481D01*
X0052345060Y0014047631D01*
X0052382190Y0014094878D01*
X0052420419Y0014141202D01*
X0052459729Y0014186582D01*
X0052500100Y0014231000D01*
X0052541512Y0014274436D01*
X0052583946Y0014316870D01*
X0052627382Y0014358282D01*
X0052671800Y0014398653D01*
X0052717180Y0014437963D01*
X0052763504Y0014476193D01*
X0052810751Y0014513322D01*
X0052858902Y0014549332D01*
X0052907936Y0014584202D01*
X0052957835Y0014617913D01*
X0053008579Y0014650446D01*
X0053060148Y0014681780D01*
X0053112523Y0014711896D01*
X0053165683Y0014740774D01*
X0053219610Y0014768395D01*
X0053274283Y0014794739D01*
X0053329683Y0014819787D01*
X0053385790Y0014843518D01*
X0053442585Y0014865914D01*
X0053500047Y0014886954D01*
X0053558159Y0014906619D01*
X0053616898Y0014924889D01*
X0053676247Y0014941744D01*
X0053736185Y0014957166D01*
X0053796693Y0014971133D01*
X0053857751Y0014983628D01*
X0053919340Y0014994629D01*
X0053981439Y0015004117D01*
X0054044030Y0015012074D01*
X0054107092Y0015018478D01*
X0054170606Y0015023311D01*
X0054234552Y0015026552D01*
X0054298911Y0015028183D01*
X0054331255Y0015028319D01*
G37*
%LPD*%
G36*
X0018168202Y0012237610D02*
G01*
X0018224371Y0012234771D01*
X0018279755Y0012229160D01*
X0018334286Y0012220846D01*
X0018387895Y0012209896D01*
X0018440514Y0012196377D01*
X0018492074Y0012180359D01*
X0018542507Y0012161908D01*
X0018591744Y0012141093D01*
X0018639718Y0012117981D01*
X0018686358Y0012092640D01*
X0018731598Y0012065138D01*
X0018775367Y0012035543D01*
X0018817599Y0012003923D01*
X0018858225Y0011970345D01*
X0018897175Y0011934877D01*
X0018934382Y0011897587D01*
X0018969777Y0011858544D01*
X0019003292Y0011817814D01*
X0019034858Y0011775465D01*
X0019064406Y0011731566D01*
X0019091869Y0011686184D01*
X0019117178Y0011639387D01*
X0019140263Y0011591243D01*
X0019161058Y0011541820D01*
X0019179493Y0011491185D01*
X0019195500Y0011439407D01*
X0019209010Y0011386553D01*
X0019219955Y0011332690D01*
X0019228266Y0011277888D01*
X0019233876Y0011222213D01*
X0019236715Y0011165734D01*
X0019236954Y0011137184D01*
X0019236715Y0011108798D01*
X0019233876Y0011052629D01*
X0019228266Y0010997245D01*
X0019219955Y0010942714D01*
X0019209010Y0010889105D01*
X0019195500Y0010836486D01*
X0019179493Y0010784926D01*
X0019161058Y0010734493D01*
X0019140263Y0010685256D01*
X0019117178Y0010637283D01*
X0019091869Y0010590642D01*
X0019064406Y0010545403D01*
X0019034858Y0010501633D01*
X0019003292Y0010459401D01*
X0018969777Y0010418776D01*
X0018934382Y0010379825D01*
X0018897175Y0010342618D01*
X0018858225Y0010307223D01*
X0018817599Y0010273709D01*
X0018775367Y0010242143D01*
X0018731598Y0010212594D01*
X0018686358Y0010185131D01*
X0018639718Y0010159823D01*
X0018591744Y0010136737D01*
X0018542507Y0010115942D01*
X0018492074Y0010097508D01*
X0018440514Y0010081501D01*
X0018387895Y0010067991D01*
X0018334286Y0010057046D01*
X0018279755Y0010048734D01*
X0018224371Y0010043125D01*
X0018168202Y0010040286D01*
X0018139816Y0010040046D01*
X0018111592Y0010040286D01*
X0018055714Y0010043125D01*
X0018000582Y0010048734D01*
X0017946266Y0010057046D01*
X0017892838Y0010067991D01*
X0017840367Y0010081501D01*
X0017788925Y0010097508D01*
X0017738581Y0010115942D01*
X0017689405Y0010136737D01*
X0017641470Y0010159823D01*
X0017594843Y0010185131D01*
X0017549597Y0010212594D01*
X0017505801Y0010242143D01*
X0017463526Y0010273709D01*
X0017422843Y0010307223D01*
X0017383821Y0010342618D01*
X0017346531Y0010379825D01*
X0017311044Y0010418776D01*
X0017277430Y0010459401D01*
X0017245759Y0010501633D01*
X0017216102Y0010545403D01*
X0017188529Y0010590642D01*
X0017163111Y0010637283D01*
X0017139918Y0010685256D01*
X0017119020Y0010734493D01*
X0017100488Y0010784926D01*
X0017084392Y0010836486D01*
X0017070802Y0010889105D01*
X0017059790Y0010942714D01*
X0017051425Y0010997245D01*
X0017045778Y0011052629D01*
X0017042920Y0011108798D01*
X0017042679Y0011137184D01*
X0017042918Y0011165572D01*
X0017045757Y0011221761D01*
X0017051366Y0011277184D01*
X0017059678Y0011331771D01*
X0017070623Y0011385452D01*
X0017084133Y0011438158D01*
X0017100140Y0011489819D01*
X0017118575Y0011540365D01*
X0017139369Y0011589726D01*
X0017162455Y0011637833D01*
X0017187764Y0011684616D01*
X0017215226Y0011730004D01*
X0017244775Y0011773929D01*
X0017276341Y0011816321D01*
X0017309856Y0011857109D01*
X0017345251Y0011896224D01*
X0017382458Y0011933596D01*
X0017421408Y0011969156D01*
X0017462034Y0012002834D01*
X0017504265Y0012034559D01*
X0017548035Y0012064263D01*
X0017593275Y0012091875D01*
X0017639915Y0012117325D01*
X0017687888Y0012140545D01*
X0017737126Y0012161463D01*
X0017787559Y0012180011D01*
X0017839119Y0012196119D01*
X0017891737Y0012209716D01*
X0017945347Y0012220734D01*
X0017999877Y0012229101D01*
X0018055262Y0012234750D01*
X0018111431Y0012237609D01*
X0018139816Y0012237850D01*
G37*
%LPD*%
G36*
X0020884589Y0012237610D02*
G01*
X0020940758Y0012234771D01*
X0020996142Y0012229160D01*
X0021050673Y0012220846D01*
X0021104282Y0012209896D01*
X0021156901Y0012196377D01*
X0021208461Y0012180359D01*
X0021258894Y0012161908D01*
X0021308131Y0012141093D01*
X0021356104Y0012117981D01*
X0021402744Y0012092640D01*
X0021447984Y0012065138D01*
X0021491754Y0012035543D01*
X0021533986Y0012003923D01*
X0021574611Y0011970345D01*
X0021613562Y0011934877D01*
X0021650769Y0011897587D01*
X0021686164Y0011858544D01*
X0021719678Y0011817814D01*
X0021751244Y0011775465D01*
X0021780793Y0011731566D01*
X0021808256Y0011686184D01*
X0021833564Y0011639387D01*
X0021856650Y0011591243D01*
X0021877444Y0011541820D01*
X0021895879Y0011491185D01*
X0021911886Y0011439407D01*
X0021925396Y0011386553D01*
X0021936341Y0011332690D01*
X0021944653Y0011277888D01*
X0021950262Y0011222213D01*
X0021953101Y0011165734D01*
X0021953341Y0011137184D01*
X0021953101Y0011108798D01*
X0021950262Y0011052629D01*
X0021944653Y0010997245D01*
X0021936341Y0010942714D01*
X0021925396Y0010889105D01*
X0021911886Y0010836486D01*
X0021895879Y0010784926D01*
X0021877444Y0010734493D01*
X0021856650Y0010685256D01*
X0021833564Y0010637283D01*
X0021808256Y0010590642D01*
X0021780793Y0010545403D01*
X0021751244Y0010501633D01*
X0021719678Y0010459401D01*
X0021686164Y0010418776D01*
X0021650769Y0010379825D01*
X0021613562Y0010342618D01*
X0021574611Y0010307223D01*
X0021533986Y0010273709D01*
X0021491754Y0010242143D01*
X0021447984Y0010212594D01*
X0021402744Y0010185131D01*
X0021356104Y0010159823D01*
X0021308131Y0010136737D01*
X0021258894Y0010115942D01*
X0021208461Y0010097508D01*
X0021156901Y0010081501D01*
X0021104282Y0010067991D01*
X0021050673Y0010057046D01*
X0020996142Y0010048734D01*
X0020940758Y0010043125D01*
X0020884589Y0010040286D01*
X0020856203Y0010040046D01*
X0020827817Y0010040286D01*
X0020771648Y0010043125D01*
X0020716264Y0010048734D01*
X0020661733Y0010057046D01*
X0020608124Y0010067991D01*
X0020555505Y0010081501D01*
X0020503945Y0010097508D01*
X0020453512Y0010115942D01*
X0020404275Y0010136737D01*
X0020356302Y0010159823D01*
X0020309661Y0010185131D01*
X0020264422Y0010212594D01*
X0020220652Y0010242143D01*
X0020178420Y0010273709D01*
X0020137794Y0010307223D01*
X0020098844Y0010342618D01*
X0020061637Y0010379825D01*
X0020026242Y0010418776D01*
X0019992727Y0010459401D01*
X0019961161Y0010501633D01*
X0019931613Y0010545403D01*
X0019904150Y0010590642D01*
X0019878841Y0010637283D01*
X0019855756Y0010685256D01*
X0019834961Y0010734493D01*
X0019816526Y0010784926D01*
X0019800520Y0010836486D01*
X0019787009Y0010889105D01*
X0019776064Y0010942714D01*
X0019767753Y0010997245D01*
X0019762143Y0011052629D01*
X0019759304Y0011108798D01*
X0019759065Y0011137184D01*
X0019759304Y0011165572D01*
X0019762143Y0011221761D01*
X0019767753Y0011277184D01*
X0019776064Y0011331771D01*
X0019787009Y0011385452D01*
X0019800520Y0011438158D01*
X0019816526Y0011489819D01*
X0019834961Y0011540365D01*
X0019855756Y0011589726D01*
X0019878841Y0011637833D01*
X0019904150Y0011684616D01*
X0019931613Y0011730004D01*
X0019961161Y0011773929D01*
X0019992727Y0011816321D01*
X0020026242Y0011857109D01*
X0020061637Y0011896224D01*
X0020098844Y0011933596D01*
X0020137794Y0011969156D01*
X0020178420Y0012002834D01*
X0020220652Y0012034559D01*
X0020264422Y0012064263D01*
X0020309661Y0012091875D01*
X0020356302Y0012117325D01*
X0020404275Y0012140545D01*
X0020453512Y0012161463D01*
X0020503945Y0012180011D01*
X0020555505Y0012196119D01*
X0020608124Y0012209716D01*
X0020661733Y0012220734D01*
X0020716264Y0012229101D01*
X0020771648Y0012234750D01*
X0020827817Y0012237609D01*
X0020856203Y0012237850D01*
G37*
%LPD*%
G36*
X0023696186Y0012223499D02*
G01*
X0023752286Y0012220655D01*
X0023807609Y0012215037D01*
X0023862089Y0012206712D01*
X0023915654Y0012195751D01*
X0023968238Y0012182222D01*
X0024019770Y0012166194D01*
X0024070181Y0012147736D01*
X0024119404Y0012126917D01*
X0024167368Y0012103805D01*
X0024214005Y0012078470D01*
X0024259246Y0012050981D01*
X0024303022Y0012021407D01*
X0024345265Y0011989816D01*
X0024385904Y0011956277D01*
X0024424871Y0011920860D01*
X0024462098Y0011883633D01*
X0024497515Y0011844666D01*
X0024531054Y0011804026D01*
X0024562645Y0011761784D01*
X0024592219Y0011718008D01*
X0024619708Y0011672767D01*
X0024645043Y0011626130D01*
X0024668155Y0011578166D01*
X0024688974Y0011528943D01*
X0024707432Y0011478531D01*
X0024723460Y0011427000D01*
X0024736990Y0011374416D01*
X0024747951Y0011320850D01*
X0024756275Y0011266371D01*
X0024761893Y0011211047D01*
X0024764737Y0011154948D01*
X0024764977Y0011126601D01*
X0024764737Y0011098254D01*
X0024761893Y0011042154D01*
X0024756275Y0010986830D01*
X0024747951Y0010932351D01*
X0024736990Y0010878785D01*
X0024723460Y0010826202D01*
X0024707432Y0010774670D01*
X0024688974Y0010724258D01*
X0024668155Y0010675036D01*
X0024645043Y0010627072D01*
X0024619708Y0010580435D01*
X0024592219Y0010535194D01*
X0024562645Y0010491417D01*
X0024531054Y0010449175D01*
X0024497515Y0010408536D01*
X0024462098Y0010369568D01*
X0024424871Y0010332342D01*
X0024385904Y0010296925D01*
X0024345265Y0010263386D01*
X0024303022Y0010231795D01*
X0024259246Y0010202220D01*
X0024214005Y0010174731D01*
X0024167368Y0010149396D01*
X0024119404Y0010126285D01*
X0024070181Y0010105466D01*
X0024019770Y0010087007D01*
X0023968238Y0010070979D01*
X0023915654Y0010057450D01*
X0023862089Y0010046489D01*
X0023807609Y0010038165D01*
X0023752286Y0010032546D01*
X0023696186Y0010029703D01*
X0023667839Y0010029463D01*
X0023639492Y0010029703D01*
X0023583392Y0010032546D01*
X0023528069Y0010038165D01*
X0023473589Y0010046489D01*
X0023420024Y0010057450D01*
X0023367440Y0010070979D01*
X0023315908Y0010087007D01*
X0023265497Y0010105466D01*
X0023216274Y0010126285D01*
X0023168310Y0010149396D01*
X0023121673Y0010174731D01*
X0023076432Y0010202220D01*
X0023032656Y0010231795D01*
X0022990414Y0010263386D01*
X0022949774Y0010296925D01*
X0022910807Y0010332342D01*
X0022873580Y0010369568D01*
X0022838163Y0010408536D01*
X0022804624Y0010449175D01*
X0022773033Y0010491417D01*
X0022743459Y0010535194D01*
X0022715970Y0010580435D01*
X0022690635Y0010627072D01*
X0022667523Y0010675036D01*
X0022646704Y0010724258D01*
X0022628246Y0010774670D01*
X0022612218Y0010826202D01*
X0022598689Y0010878785D01*
X0022587727Y0010932351D01*
X0022579403Y0010986830D01*
X0022573785Y0011042154D01*
X0022570941Y0011098254D01*
X0022570701Y0011126601D01*
X0022570941Y0011154948D01*
X0022573785Y0011211047D01*
X0022579403Y0011266371D01*
X0022587727Y0011320850D01*
X0022598689Y0011374416D01*
X0022612218Y0011427000D01*
X0022628246Y0011478531D01*
X0022646704Y0011528943D01*
X0022667523Y0011578166D01*
X0022690635Y0011626130D01*
X0022715970Y0011672767D01*
X0022743459Y0011718008D01*
X0022773033Y0011761784D01*
X0022804624Y0011804026D01*
X0022838163Y0011844666D01*
X0022873580Y0011883633D01*
X0022910807Y0011920860D01*
X0022949774Y0011956277D01*
X0022990414Y0011989816D01*
X0023032656Y0012021407D01*
X0023076432Y0012050981D01*
X0023121673Y0012078470D01*
X0023168310Y0012103805D01*
X0023216274Y0012126917D01*
X0023265497Y0012147736D01*
X0023315908Y0012166194D01*
X0023367440Y0012182222D01*
X0023420024Y0012195751D01*
X0023473589Y0012206712D01*
X0023528069Y0012215037D01*
X0023583392Y0012220655D01*
X0023639492Y0012223499D01*
X0023667839Y0012223739D01*
G37*
%LPD*%
G36*
X0026497278Y0012223499D02*
G01*
X0026553447Y0012220660D01*
X0026608831Y0012215051D01*
X0026663362Y0012206739D01*
X0026716971Y0012195794D01*
X0026769590Y0012182284D01*
X0026821150Y0012166277D01*
X0026871583Y0012147842D01*
X0026920820Y0012127048D01*
X0026968793Y0012103962D01*
X0027015434Y0012078653D01*
X0027060673Y0012051191D01*
X0027104443Y0012021642D01*
X0027146675Y0011990076D01*
X0027187300Y0011956562D01*
X0027226251Y0011921166D01*
X0027263458Y0011883959D01*
X0027298853Y0011845009D01*
X0027332368Y0011804384D01*
X0027363933Y0011762152D01*
X0027393482Y0011718382D01*
X0027420945Y0011673142D01*
X0027446253Y0011626502D01*
X0027469339Y0011578529D01*
X0027490134Y0011529292D01*
X0027508569Y0011478859D01*
X0027524575Y0011427298D01*
X0027538085Y0011374680D01*
X0027549030Y0011321071D01*
X0027557342Y0011266540D01*
X0027562951Y0011211156D01*
X0027565790Y0011154987D01*
X0027566030Y0011126601D01*
X0027565790Y0011098215D01*
X0027562951Y0011042046D01*
X0027557342Y0010986662D01*
X0027549030Y0010932131D01*
X0027538085Y0010878522D01*
X0027524575Y0010825903D01*
X0027508569Y0010774343D01*
X0027490134Y0010723910D01*
X0027469339Y0010674673D01*
X0027446253Y0010626700D01*
X0027420945Y0010580059D01*
X0027393482Y0010534820D01*
X0027363933Y0010491050D01*
X0027332368Y0010448818D01*
X0027298853Y0010408192D01*
X0027263458Y0010369242D01*
X0027226251Y0010332035D01*
X0027187300Y0010296640D01*
X0027146675Y0010263125D01*
X0027104443Y0010231559D01*
X0027060673Y0010202011D01*
X0027015434Y0010174548D01*
X0026968793Y0010149239D01*
X0026920820Y0010126154D01*
X0026871583Y0010105359D01*
X0026821150Y0010086924D01*
X0026769590Y0010070917D01*
X0026716971Y0010057407D01*
X0026663362Y0010046462D01*
X0026608831Y0010038151D01*
X0026553447Y0010032541D01*
X0026497278Y0010029702D01*
X0026468892Y0010029463D01*
X0026440504Y0010029540D01*
X0026384315Y0010032089D01*
X0026328892Y0010037447D01*
X0026274305Y0010045543D01*
X0026220624Y0010056307D01*
X0026167918Y0010069669D01*
X0026116257Y0010085558D01*
X0026065711Y0010103904D01*
X0026016350Y0010124637D01*
X0025968243Y0010147685D01*
X0025921460Y0010172980D01*
X0025876072Y0010200449D01*
X0025832147Y0010230023D01*
X0025789755Y0010261632D01*
X0025748967Y0010295205D01*
X0025709852Y0010330672D01*
X0025672480Y0010367961D01*
X0025636920Y0010407004D01*
X0025603242Y0010447729D01*
X0025571517Y0010490065D01*
X0025541813Y0010533944D01*
X0025514201Y0010579293D01*
X0025488751Y0010626044D01*
X0025465531Y0010674124D01*
X0025444613Y0010723465D01*
X0025426065Y0010773995D01*
X0025409957Y0010825644D01*
X0025396360Y0010878342D01*
X0025385342Y0010932019D01*
X0025376975Y0010986603D01*
X0025371326Y0011042024D01*
X0025368468Y0011098213D01*
X0025368226Y0011126601D01*
X0025368466Y0011154987D01*
X0025371305Y0011211156D01*
X0025376916Y0011266540D01*
X0025385230Y0011321071D01*
X0025396180Y0011374680D01*
X0025409699Y0011427298D01*
X0025425717Y0011478859D01*
X0025444168Y0011529292D01*
X0025464983Y0011578529D01*
X0025488095Y0011626502D01*
X0025513436Y0011673142D01*
X0025540938Y0011718382D01*
X0025570533Y0011762152D01*
X0025602153Y0011804384D01*
X0025635731Y0011845009D01*
X0025671199Y0011883959D01*
X0025708489Y0011921166D01*
X0025747532Y0011956562D01*
X0025788262Y0011990076D01*
X0025830611Y0012021642D01*
X0025874510Y0012051191D01*
X0025919892Y0012078653D01*
X0025966689Y0012103962D01*
X0026014833Y0012127048D01*
X0026064256Y0012147842D01*
X0026114891Y0012166277D01*
X0026166669Y0012182284D01*
X0026219524Y0012195794D01*
X0026273386Y0012206739D01*
X0026328188Y0012215051D01*
X0026383863Y0012220660D01*
X0026440343Y0012223499D01*
X0026468892Y0012223739D01*
G37*
%LPD*%
G36*
X0016799426Y0014770552D02*
G01*
X0016855595Y0014767713D01*
X0016910979Y0014762102D01*
X0016965510Y0014753788D01*
X0017019119Y0014742838D01*
X0017071738Y0014729319D01*
X0017123298Y0014713301D01*
X0017173731Y0014694850D01*
X0017222968Y0014674035D01*
X0017270941Y0014650923D01*
X0017317582Y0014625582D01*
X0017362821Y0014598080D01*
X0017406591Y0014568485D01*
X0017448823Y0014536865D01*
X0017489448Y0014503287D01*
X0017528399Y0014467819D01*
X0017565606Y0014430530D01*
X0017601001Y0014391486D01*
X0017634515Y0014350756D01*
X0017666081Y0014308407D01*
X0017695630Y0014264508D01*
X0017723093Y0014219126D01*
X0017748401Y0014172329D01*
X0017771487Y0014124185D01*
X0017792282Y0014074762D01*
X0017810716Y0014024127D01*
X0017826723Y0013972349D01*
X0017840233Y0013919495D01*
X0017851178Y0013865632D01*
X0017859490Y0013810830D01*
X0017865099Y0013755155D01*
X0017867938Y0013698676D01*
X0017868178Y0013670126D01*
X0017867938Y0013641740D01*
X0017865099Y0013585571D01*
X0017859490Y0013530187D01*
X0017851178Y0013475656D01*
X0017840233Y0013422047D01*
X0017826723Y0013369428D01*
X0017810716Y0013317868D01*
X0017792282Y0013267435D01*
X0017771487Y0013218198D01*
X0017748401Y0013170225D01*
X0017723093Y0013123584D01*
X0017695630Y0013078345D01*
X0017666081Y0013034575D01*
X0017634515Y0012992343D01*
X0017601001Y0012951718D01*
X0017565606Y0012912767D01*
X0017528399Y0012875560D01*
X0017489448Y0012840165D01*
X0017448823Y0012806651D01*
X0017406591Y0012775085D01*
X0017362821Y0012745536D01*
X0017317582Y0012718073D01*
X0017270941Y0012692765D01*
X0017222968Y0012669679D01*
X0017173731Y0012648885D01*
X0017123298Y0012630450D01*
X0017071738Y0012614443D01*
X0017019119Y0012600933D01*
X0016965510Y0012589988D01*
X0016910979Y0012581676D01*
X0016855595Y0012576067D01*
X0016799426Y0012573228D01*
X0016771040Y0012572988D01*
X0016742654Y0012573229D01*
X0016686485Y0012576088D01*
X0016631101Y0012581735D01*
X0016576570Y0012590100D01*
X0016522961Y0012601112D01*
X0016470342Y0012614701D01*
X0016418782Y0012630797D01*
X0016368349Y0012649329D01*
X0016319112Y0012670227D01*
X0016271139Y0012693421D01*
X0016224498Y0012718839D01*
X0016179259Y0012746412D01*
X0016135489Y0012776069D01*
X0016093257Y0012807740D01*
X0016052632Y0012841354D01*
X0016013681Y0012876841D01*
X0015976474Y0012914131D01*
X0015941079Y0012953153D01*
X0015907564Y0012993836D01*
X0015875998Y0013036111D01*
X0015846450Y0013079907D01*
X0015818987Y0013125153D01*
X0015793679Y0013171779D01*
X0015770593Y0013219715D01*
X0015749798Y0013268890D01*
X0015731363Y0013319235D01*
X0015715357Y0013370677D01*
X0015701846Y0013423148D01*
X0015690901Y0013476576D01*
X0015682590Y0013530891D01*
X0015676980Y0013586024D01*
X0015674141Y0013641902D01*
X0015673902Y0013670126D01*
X0015674141Y0013698514D01*
X0015676980Y0013754703D01*
X0015682590Y0013810126D01*
X0015690901Y0013864713D01*
X0015701846Y0013918394D01*
X0015715357Y0013971100D01*
X0015731363Y0014022761D01*
X0015749798Y0014073307D01*
X0015770593Y0014122668D01*
X0015793679Y0014170775D01*
X0015818987Y0014217558D01*
X0015846450Y0014262946D01*
X0015875998Y0014306871D01*
X0015907564Y0014349263D01*
X0015941079Y0014390051D01*
X0015976474Y0014429166D01*
X0016013681Y0014466538D01*
X0016052632Y0014502098D01*
X0016093257Y0014535776D01*
X0016135489Y0014567501D01*
X0016179259Y0014597205D01*
X0016224498Y0014624817D01*
X0016271139Y0014650267D01*
X0016319112Y0014673487D01*
X0016368349Y0014694405D01*
X0016418782Y0014712953D01*
X0016470342Y0014729061D01*
X0016522961Y0014742658D01*
X0016576570Y0014753676D01*
X0016631101Y0014762043D01*
X0016686485Y0014767692D01*
X0016742654Y0014770551D01*
X0016771040Y0014770792D01*
G37*
%LPD*%
G36*
X0019575784Y0014770552D02*
G01*
X0019631953Y0014767713D01*
X0019687337Y0014762102D01*
X0019741868Y0014753788D01*
X0019795477Y0014742838D01*
X0019848096Y0014729319D01*
X0019899656Y0014713301D01*
X0019950089Y0014694850D01*
X0019999326Y0014674035D01*
X0020047300Y0014650923D01*
X0020093940Y0014625582D01*
X0020139180Y0014598080D01*
X0020182949Y0014568485D01*
X0020225181Y0014536865D01*
X0020265807Y0014503287D01*
X0020304757Y0014467819D01*
X0020341964Y0014430530D01*
X0020377359Y0014391486D01*
X0020410874Y0014350756D01*
X0020442440Y0014308407D01*
X0020471988Y0014264508D01*
X0020499451Y0014219126D01*
X0020524760Y0014172329D01*
X0020547845Y0014124185D01*
X0020568640Y0014074762D01*
X0020587075Y0014024127D01*
X0020603082Y0013972349D01*
X0020616592Y0013919495D01*
X0020627537Y0013865632D01*
X0020635848Y0013810830D01*
X0020641458Y0013755155D01*
X0020644297Y0013698676D01*
X0020644536Y0013670126D01*
X0020644297Y0013641740D01*
X0020641458Y0013585571D01*
X0020635848Y0013530187D01*
X0020627537Y0013475656D01*
X0020616592Y0013422047D01*
X0020603082Y0013369428D01*
X0020587075Y0013317868D01*
X0020568640Y0013267435D01*
X0020547845Y0013218198D01*
X0020524760Y0013170225D01*
X0020499451Y0013123584D01*
X0020471988Y0013078345D01*
X0020442440Y0013034575D01*
X0020410874Y0012992343D01*
X0020377359Y0012951718D01*
X0020341964Y0012912767D01*
X0020304757Y0012875560D01*
X0020265807Y0012840165D01*
X0020225181Y0012806651D01*
X0020182949Y0012775085D01*
X0020139180Y0012745536D01*
X0020093940Y0012718073D01*
X0020047300Y0012692765D01*
X0019999326Y0012669679D01*
X0019950089Y0012648885D01*
X0019899656Y0012630450D01*
X0019848096Y0012614443D01*
X0019795477Y0012600933D01*
X0019741868Y0012589988D01*
X0019687337Y0012581676D01*
X0019631953Y0012576067D01*
X0019575784Y0012573228D01*
X0019547398Y0012572988D01*
X0019519011Y0012573229D01*
X0019462822Y0012576088D01*
X0019407399Y0012581735D01*
X0019352812Y0012590100D01*
X0019299130Y0012601112D01*
X0019246424Y0012614701D01*
X0019194764Y0012630797D01*
X0019144218Y0012649329D01*
X0019094856Y0012670227D01*
X0019046749Y0012693421D01*
X0018999967Y0012718839D01*
X0018954578Y0012746412D01*
X0018910653Y0012776069D01*
X0018868262Y0012807740D01*
X0018827474Y0012841354D01*
X0018788358Y0012876841D01*
X0018750986Y0012914131D01*
X0018715426Y0012953153D01*
X0018681749Y0012993836D01*
X0018650023Y0013036111D01*
X0018620320Y0013079907D01*
X0018592708Y0013125153D01*
X0018567257Y0013171779D01*
X0018544038Y0013219715D01*
X0018523119Y0013268890D01*
X0018504571Y0013319235D01*
X0018488464Y0013370677D01*
X0018474866Y0013423148D01*
X0018463849Y0013476576D01*
X0018455481Y0013530891D01*
X0018449833Y0013586024D01*
X0018446974Y0013641902D01*
X0018446733Y0013670126D01*
X0018446972Y0013698514D01*
X0018449812Y0013754703D01*
X0018455422Y0013810126D01*
X0018463737Y0013864713D01*
X0018474687Y0013918394D01*
X0018488205Y0013971100D01*
X0018504224Y0014022761D01*
X0018522674Y0014073307D01*
X0018543489Y0014122668D01*
X0018566601Y0014170775D01*
X0018591942Y0014217558D01*
X0018619444Y0014262946D01*
X0018649039Y0014306871D01*
X0018680660Y0014349263D01*
X0018714238Y0014390051D01*
X0018749705Y0014429166D01*
X0018786995Y0014466538D01*
X0018826039Y0014502098D01*
X0018866769Y0014535776D01*
X0018909117Y0014567501D01*
X0018953016Y0014597205D01*
X0018998398Y0014624817D01*
X0019045195Y0014650267D01*
X0019093339Y0014673487D01*
X0019142762Y0014694405D01*
X0019193397Y0014712953D01*
X0019245176Y0014729061D01*
X0019298030Y0014742658D01*
X0019351892Y0014753676D01*
X0019406695Y0014762043D01*
X0019462370Y0014767692D01*
X0019518849Y0014770551D01*
X0019547398Y0014770792D01*
G37*
%LPD*%
G36*
X0022278061Y0014784663D02*
G01*
X0022334250Y0014781824D01*
X0022389673Y0014776213D01*
X0022444260Y0014767899D01*
X0022497942Y0014756949D01*
X0022550648Y0014743431D01*
X0022602309Y0014727412D01*
X0022652855Y0014708961D01*
X0022702216Y0014688146D01*
X0022750323Y0014665034D01*
X0022797105Y0014639693D01*
X0022842494Y0014612192D01*
X0022886419Y0014582597D01*
X0022928810Y0014550976D01*
X0022969598Y0014517398D01*
X0023008714Y0014481930D01*
X0023046086Y0014444641D01*
X0023081646Y0014405597D01*
X0023115323Y0014364867D01*
X0023147049Y0014322518D01*
X0023176752Y0014278619D01*
X0023204364Y0014233237D01*
X0023229815Y0014186440D01*
X0023253034Y0014138297D01*
X0023273953Y0014088873D01*
X0023292501Y0014038238D01*
X0023308609Y0013986460D01*
X0023322206Y0013933606D01*
X0023333223Y0013879743D01*
X0023341591Y0013824941D01*
X0023347239Y0013769266D01*
X0023350098Y0013712787D01*
X0023350339Y0013684237D01*
X0023350098Y0013655851D01*
X0023347239Y0013599682D01*
X0023341591Y0013544298D01*
X0023333223Y0013489767D01*
X0023322206Y0013436158D01*
X0023308609Y0013383539D01*
X0023292501Y0013331979D01*
X0023273953Y0013281546D01*
X0023253034Y0013232309D01*
X0023229815Y0013184336D01*
X0023204364Y0013137696D01*
X0023176752Y0013092456D01*
X0023147049Y0013048686D01*
X0023115323Y0013006454D01*
X0023081646Y0012965829D01*
X0023046086Y0012926878D01*
X0023008714Y0012889671D01*
X0022969598Y0012854276D01*
X0022928810Y0012820762D01*
X0022886419Y0012789196D01*
X0022842494Y0012759647D01*
X0022797105Y0012732184D01*
X0022750323Y0012706876D01*
X0022702216Y0012683790D01*
X0022652855Y0012662996D01*
X0022602309Y0012644561D01*
X0022550648Y0012628554D01*
X0022497942Y0012615044D01*
X0022444260Y0012604099D01*
X0022389673Y0012595787D01*
X0022334250Y0012590178D01*
X0022278061Y0012587339D01*
X0022249674Y0012587099D01*
X0022221288Y0012587177D01*
X0022165119Y0012589726D01*
X0022109735Y0012595083D01*
X0022055204Y0012603179D01*
X0022001595Y0012613943D01*
X0021948976Y0012627305D01*
X0021897416Y0012643194D01*
X0021846983Y0012661540D01*
X0021797746Y0012682273D01*
X0021749772Y0012705322D01*
X0021703132Y0012730616D01*
X0021657893Y0012758086D01*
X0021614123Y0012787660D01*
X0021571891Y0012819269D01*
X0021531265Y0012852842D01*
X0021492315Y0012888308D01*
X0021455108Y0012925598D01*
X0021419713Y0012964640D01*
X0021386198Y0013005365D01*
X0021354632Y0013047702D01*
X0021325084Y0013091580D01*
X0021297621Y0013136930D01*
X0021272312Y0013183680D01*
X0021249227Y0013231761D01*
X0021228432Y0013281102D01*
X0021209997Y0013331632D01*
X0021193990Y0013383281D01*
X0021180480Y0013435979D01*
X0021169535Y0013489655D01*
X0021161224Y0013544239D01*
X0021155614Y0013599661D01*
X0021152775Y0013655850D01*
X0021152536Y0013684237D01*
X0021152775Y0013712625D01*
X0021155614Y0013768814D01*
X0021161224Y0013824237D01*
X0021169535Y0013878824D01*
X0021180480Y0013932505D01*
X0021193990Y0013985211D01*
X0021209997Y0014036872D01*
X0021228432Y0014087418D01*
X0021249227Y0014136779D01*
X0021272312Y0014184886D01*
X0021297621Y0014231669D01*
X0021325084Y0014277058D01*
X0021354632Y0014320982D01*
X0021386198Y0014363374D01*
X0021419713Y0014404162D01*
X0021455108Y0014443277D01*
X0021492315Y0014480650D01*
X0021531265Y0014516209D01*
X0021571891Y0014549887D01*
X0021614123Y0014581612D01*
X0021657893Y0014611316D01*
X0021703132Y0014638928D01*
X0021749772Y0014664378D01*
X0021797746Y0014687598D01*
X0021846983Y0014708517D01*
X0021897416Y0014727065D01*
X0021948976Y0014743172D01*
X0022001595Y0014756769D01*
X0022055204Y0014767787D01*
X0022109735Y0014776154D01*
X0022165119Y0014781803D01*
X0022221288Y0014784662D01*
X0022249674Y0014784903D01*
G37*
%LPD*%
G36*
X0025093224Y0014784663D02*
G01*
X0025149393Y0014781824D01*
X0025204777Y0014776213D01*
X0025259308Y0014767899D01*
X0025312917Y0014756949D01*
X0025365535Y0014743431D01*
X0025417096Y0014727412D01*
X0025467529Y0014708961D01*
X0025516766Y0014688146D01*
X0025564739Y0014665034D01*
X0025611379Y0014639693D01*
X0025656619Y0014612192D01*
X0025700389Y0014582597D01*
X0025742621Y0014550976D01*
X0025783246Y0014517398D01*
X0025822196Y0014481930D01*
X0025859404Y0014444641D01*
X0025894799Y0014405597D01*
X0025928313Y0014364867D01*
X0025959879Y0014322518D01*
X0025989428Y0014278619D01*
X0026016890Y0014233237D01*
X0026042199Y0014186440D01*
X0026065285Y0014138297D01*
X0026086079Y0014088873D01*
X0026104514Y0014038238D01*
X0026120521Y0013986460D01*
X0026134031Y0013933606D01*
X0026144976Y0013879743D01*
X0026153288Y0013824941D01*
X0026158897Y0013769266D01*
X0026161736Y0013712787D01*
X0026161976Y0013684237D01*
X0026161736Y0013655851D01*
X0026158897Y0013599682D01*
X0026153288Y0013544298D01*
X0026144976Y0013489767D01*
X0026134031Y0013436158D01*
X0026120521Y0013383539D01*
X0026104514Y0013331979D01*
X0026086079Y0013281546D01*
X0026065285Y0013232309D01*
X0026042199Y0013184336D01*
X0026016890Y0013137696D01*
X0025989428Y0013092456D01*
X0025959879Y0013048686D01*
X0025928313Y0013006454D01*
X0025894799Y0012965829D01*
X0025859404Y0012926878D01*
X0025822196Y0012889671D01*
X0025783246Y0012854276D01*
X0025742621Y0012820762D01*
X0025700389Y0012789196D01*
X0025656619Y0012759647D01*
X0025611379Y0012732184D01*
X0025564739Y0012706876D01*
X0025516766Y0012683790D01*
X0025467529Y0012662996D01*
X0025417096Y0012644561D01*
X0025365535Y0012628554D01*
X0025312917Y0012615044D01*
X0025259308Y0012604099D01*
X0025204777Y0012595787D01*
X0025149393Y0012590178D01*
X0025093224Y0012587339D01*
X0025064838Y0012587099D01*
X0025036288Y0012587177D01*
X0024979809Y0012589726D01*
X0024924134Y0012595083D01*
X0024869332Y0012603179D01*
X0024815469Y0012613943D01*
X0024762615Y0012627305D01*
X0024710837Y0012643194D01*
X0024660202Y0012661540D01*
X0024610778Y0012682273D01*
X0024562634Y0012705322D01*
X0024515838Y0012730616D01*
X0024470456Y0012758086D01*
X0024426557Y0012787660D01*
X0024384208Y0012819269D01*
X0024343478Y0012852842D01*
X0024304434Y0012888308D01*
X0024267145Y0012925598D01*
X0024231677Y0012964640D01*
X0024198099Y0013005365D01*
X0024166478Y0013047702D01*
X0024136883Y0013091580D01*
X0024109382Y0013136930D01*
X0024084041Y0013183680D01*
X0024060929Y0013231761D01*
X0024040114Y0013281102D01*
X0024021663Y0013331632D01*
X0024005644Y0013383281D01*
X0023992126Y0013435979D01*
X0023981176Y0013489655D01*
X0023972862Y0013544239D01*
X0023967251Y0013599661D01*
X0023964412Y0013655850D01*
X0023964172Y0013684237D01*
X0023964412Y0013712625D01*
X0023967251Y0013768814D01*
X0023972862Y0013824237D01*
X0023981176Y0013878824D01*
X0023992126Y0013932505D01*
X0024005644Y0013985211D01*
X0024021663Y0014036872D01*
X0024040114Y0014087418D01*
X0024060929Y0014136779D01*
X0024084041Y0014184886D01*
X0024109382Y0014231669D01*
X0024136883Y0014277058D01*
X0024166478Y0014320982D01*
X0024198099Y0014363374D01*
X0024231677Y0014404162D01*
X0024267145Y0014443277D01*
X0024304434Y0014480650D01*
X0024343478Y0014516209D01*
X0024384208Y0014549887D01*
X0024426557Y0014581612D01*
X0024470456Y0014611316D01*
X0024515838Y0014638928D01*
X0024562634Y0014664378D01*
X0024610778Y0014687598D01*
X0024660202Y0014708517D01*
X0024710837Y0014727065D01*
X0024762615Y0014743172D01*
X0024815469Y0014756769D01*
X0024869332Y0014767787D01*
X0024924134Y0014776154D01*
X0024979809Y0014781803D01*
X0025036288Y0014784662D01*
X0025064838Y0014784903D01*
G37*
%LPD*%
G36*
X0015391844Y0012237610D02*
G01*
X0015448013Y0012234771D01*
X0015503397Y0012229160D01*
X0015557928Y0012220846D01*
X0015611537Y0012209896D01*
X0015664156Y0012196377D01*
X0015715716Y0012180359D01*
X0015766149Y0012161908D01*
X0015815386Y0012141093D01*
X0015863359Y0012117981D01*
X0015910000Y0012092640D01*
X0015955239Y0012065138D01*
X0015999009Y0012035543D01*
X0016041241Y0012003923D01*
X0016081866Y0011970345D01*
X0016120817Y0011934877D01*
X0016158024Y0011897587D01*
X0016193419Y0011858544D01*
X0016226933Y0011817814D01*
X0016258499Y0011775465D01*
X0016288048Y0011731566D01*
X0016315511Y0011686184D01*
X0016340819Y0011639387D01*
X0016363905Y0011591243D01*
X0016384700Y0011541820D01*
X0016403134Y0011491185D01*
X0016419141Y0011439407D01*
X0016432651Y0011386553D01*
X0016443596Y0011332690D01*
X0016451908Y0011277888D01*
X0016457517Y0011222213D01*
X0016460356Y0011165734D01*
X0016460596Y0011137184D01*
X0016460356Y0011108798D01*
X0016457517Y0011052629D01*
X0016451908Y0010997245D01*
X0016443596Y0010942714D01*
X0016432651Y0010889105D01*
X0016419141Y0010836486D01*
X0016403134Y0010784926D01*
X0016384700Y0010734493D01*
X0016363905Y0010685256D01*
X0016340819Y0010637283D01*
X0016315511Y0010590642D01*
X0016288048Y0010545403D01*
X0016258499Y0010501633D01*
X0016226933Y0010459401D01*
X0016193419Y0010418776D01*
X0016158024Y0010379825D01*
X0016120817Y0010342618D01*
X0016081866Y0010307223D01*
X0016041241Y0010273709D01*
X0015999009Y0010242143D01*
X0015955239Y0010212594D01*
X0015910000Y0010185131D01*
X0015863359Y0010159823D01*
X0015815386Y0010136737D01*
X0015766149Y0010115942D01*
X0015715716Y0010097508D01*
X0015664156Y0010081501D01*
X0015611537Y0010067991D01*
X0015557928Y0010057046D01*
X0015503397Y0010048734D01*
X0015448013Y0010043125D01*
X0015391844Y0010040286D01*
X0015363458Y0010040046D01*
X0015335234Y0010040124D01*
X0015279355Y0010042672D01*
X0015224223Y0010048030D01*
X0015169908Y0010056126D01*
X0015116479Y0010066890D01*
X0015064009Y0010080252D01*
X0015012566Y0010096141D01*
X0014962222Y0010114487D01*
X0014913047Y0010135220D01*
X0014865111Y0010158269D01*
X0014818485Y0010183563D01*
X0014773238Y0010211032D01*
X0014729443Y0010240607D01*
X0014687168Y0010272216D01*
X0014646484Y0010305788D01*
X0014607463Y0010341255D01*
X0014570173Y0010378545D01*
X0014534686Y0010417587D01*
X0014501072Y0010458312D01*
X0014469401Y0010500649D01*
X0014439744Y0010544527D01*
X0014412171Y0010589877D01*
X0014386752Y0010636627D01*
X0014363559Y0010684708D01*
X0014342661Y0010734048D01*
X0014324129Y0010784579D01*
X0014308033Y0010836228D01*
X0014294444Y0010888926D01*
X0014283432Y0010942602D01*
X0014275067Y0010997186D01*
X0014269420Y0011052608D01*
X0014266561Y0011108796D01*
X0014266320Y0011137184D01*
X0014266559Y0011165572D01*
X0014269398Y0011221761D01*
X0014275008Y0011277184D01*
X0014283319Y0011331771D01*
X0014294264Y0011385452D01*
X0014307775Y0011438158D01*
X0014323781Y0011489819D01*
X0014342216Y0011540365D01*
X0014363011Y0011589726D01*
X0014386097Y0011637833D01*
X0014411405Y0011684616D01*
X0014438868Y0011730004D01*
X0014468416Y0011773929D01*
X0014499982Y0011816321D01*
X0014533497Y0011857109D01*
X0014568892Y0011896224D01*
X0014606099Y0011933596D01*
X0014645050Y0011969156D01*
X0014685675Y0012002834D01*
X0014727907Y0012034559D01*
X0014771677Y0012064263D01*
X0014816916Y0012091875D01*
X0014863557Y0012117325D01*
X0014911530Y0012140545D01*
X0014960767Y0012161463D01*
X0015011200Y0012180011D01*
X0015062760Y0012196119D01*
X0015115379Y0012209716D01*
X0015168988Y0012220734D01*
X0015223519Y0012229101D01*
X0015278903Y0012234750D01*
X0015335072Y0012237609D01*
X0015363458Y0012237850D01*
G37*
%LPD*%
G36*
X0014023067Y0014770552D02*
G01*
X0014079236Y0014767713D01*
X0014134620Y0014762102D01*
X0014189151Y0014753788D01*
X0014242760Y0014742838D01*
X0014295379Y0014729319D01*
X0014346939Y0014713301D01*
X0014397372Y0014694850D01*
X0014446609Y0014674035D01*
X0014494583Y0014650923D01*
X0014541223Y0014625582D01*
X0014586463Y0014598080D01*
X0014630232Y0014568485D01*
X0014672464Y0014536865D01*
X0014713090Y0014503287D01*
X0014752040Y0014467819D01*
X0014789247Y0014430530D01*
X0014824642Y0014391486D01*
X0014858157Y0014350756D01*
X0014889723Y0014308407D01*
X0014919271Y0014264508D01*
X0014946734Y0014219126D01*
X0014972043Y0014172329D01*
X0014995128Y0014124185D01*
X0015015923Y0014074762D01*
X0015034358Y0014024127D01*
X0015050365Y0013972349D01*
X0015063875Y0013919495D01*
X0015074820Y0013865632D01*
X0015083131Y0013810830D01*
X0015088741Y0013755155D01*
X0015091580Y0013698676D01*
X0015091819Y0013670126D01*
X0015091580Y0013641740D01*
X0015088741Y0013585571D01*
X0015083131Y0013530187D01*
X0015074820Y0013475656D01*
X0015063875Y0013422047D01*
X0015050365Y0013369428D01*
X0015034358Y0013317868D01*
X0015015923Y0013267435D01*
X0014995128Y0013218198D01*
X0014972043Y0013170225D01*
X0014946734Y0013123584D01*
X0014919271Y0013078345D01*
X0014889723Y0013034575D01*
X0014858157Y0012992343D01*
X0014824642Y0012951718D01*
X0014789247Y0012912767D01*
X0014752040Y0012875560D01*
X0014713090Y0012840165D01*
X0014672464Y0012806651D01*
X0014630232Y0012775085D01*
X0014586463Y0012745536D01*
X0014541223Y0012718073D01*
X0014494583Y0012692765D01*
X0014446609Y0012669679D01*
X0014397372Y0012648885D01*
X0014346939Y0012630450D01*
X0014295379Y0012614443D01*
X0014242760Y0012600933D01*
X0014189151Y0012589988D01*
X0014134620Y0012581676D01*
X0014079236Y0012576067D01*
X0014023067Y0012573228D01*
X0013994681Y0012572988D01*
X0013966296Y0012573228D01*
X0013910127Y0012576067D01*
X0013854742Y0012581676D01*
X0013800212Y0012589988D01*
X0013746602Y0012600933D01*
X0013693984Y0012614443D01*
X0013642424Y0012630450D01*
X0013591991Y0012648885D01*
X0013542753Y0012669679D01*
X0013494780Y0012692765D01*
X0013448140Y0012718073D01*
X0013402900Y0012745536D01*
X0013359130Y0012775085D01*
X0013316898Y0012806651D01*
X0013276273Y0012840165D01*
X0013237323Y0012875560D01*
X0013200116Y0012912767D01*
X0013164721Y0012951718D01*
X0013131206Y0012992343D01*
X0013099640Y0013034575D01*
X0013070091Y0013078345D01*
X0013042629Y0013123584D01*
X0013017320Y0013170225D01*
X0012994234Y0013218198D01*
X0012973440Y0013267435D01*
X0012955005Y0013317868D01*
X0012938998Y0013369428D01*
X0012925488Y0013422047D01*
X0012914543Y0013475656D01*
X0012906231Y0013530187D01*
X0012900622Y0013585571D01*
X0012897783Y0013641740D01*
X0012897544Y0013670126D01*
X0012897783Y0013698514D01*
X0012900622Y0013754703D01*
X0012906231Y0013810126D01*
X0012914543Y0013864713D01*
X0012925488Y0013918394D01*
X0012938998Y0013971100D01*
X0012955005Y0014022761D01*
X0012973440Y0014073307D01*
X0012994234Y0014122668D01*
X0013017320Y0014170775D01*
X0013042629Y0014217558D01*
X0013070091Y0014262946D01*
X0013099640Y0014306871D01*
X0013131206Y0014349263D01*
X0013164721Y0014390051D01*
X0013200116Y0014429166D01*
X0013237323Y0014466538D01*
X0013276273Y0014502098D01*
X0013316898Y0014535776D01*
X0013359130Y0014567501D01*
X0013402900Y0014597205D01*
X0013448140Y0014624817D01*
X0013494780Y0014650267D01*
X0013542753Y0014673487D01*
X0013591991Y0014694405D01*
X0013642424Y0014712953D01*
X0013693984Y0014729061D01*
X0013746602Y0014742658D01*
X0013800212Y0014753676D01*
X0013854742Y0014762043D01*
X0013910127Y0014767692D01*
X0013966296Y0014770551D01*
X0013994681Y0014770792D01*
G37*
%LPD*%
G36*
X0007137282Y0015035238D02*
G01*
X0007201641Y0015033608D01*
X0007265587Y0015030366D01*
X0007329101Y0015025534D01*
X0007392163Y0015019129D01*
X0007454753Y0015011173D01*
X0007516853Y0015001684D01*
X0007578441Y0014990683D01*
X0007639499Y0014978189D01*
X0007700007Y0014964221D01*
X0007759946Y0014948800D01*
X0007819294Y0014931944D01*
X0007878034Y0014913674D01*
X0007936145Y0014894009D01*
X0007993608Y0014872969D01*
X0008050403Y0014850574D01*
X0008106510Y0014826843D01*
X0008161910Y0014801795D01*
X0008216583Y0014775451D01*
X0008270510Y0014747830D01*
X0008323670Y0014718951D01*
X0008376044Y0014688835D01*
X0008427613Y0014657501D01*
X0008478357Y0014624969D01*
X0008528256Y0014591258D01*
X0008577291Y0014556387D01*
X0008625442Y0014520378D01*
X0008672689Y0014483248D01*
X0008719012Y0014445019D01*
X0008764393Y0014405708D01*
X0008808811Y0014365337D01*
X0008852247Y0014323925D01*
X0008894680Y0014281491D01*
X0008936092Y0014238056D01*
X0008976463Y0014193638D01*
X0009015774Y0014148257D01*
X0009054003Y0014101934D01*
X0009091133Y0014054687D01*
X0009127142Y0014006536D01*
X0009162013Y0013957501D01*
X0009195724Y0013907602D01*
X0009228256Y0013856858D01*
X0009259590Y0013805289D01*
X0009289706Y0013752915D01*
X0009318585Y0013699755D01*
X0009346206Y0013645828D01*
X0009372550Y0013591155D01*
X0009397598Y0013535755D01*
X0009421329Y0013479648D01*
X0009443724Y0013422853D01*
X0009464764Y0013365390D01*
X0009484429Y0013307279D01*
X0009502699Y0013248539D01*
X0009519555Y0013189190D01*
X0009534976Y0013129252D01*
X0009548944Y0013068744D01*
X0009561438Y0013007686D01*
X0009572439Y0012946098D01*
X0009581928Y0012883998D01*
X0009589884Y0012821408D01*
X0009596289Y0012758346D01*
X0009601121Y0012694832D01*
X0009604363Y0012630885D01*
X0009605993Y0012566527D01*
X0009606130Y0012534183D01*
X0009605993Y0012501839D01*
X0009604363Y0012437480D01*
X0009601121Y0012373534D01*
X0009596289Y0012310020D01*
X0009589884Y0012246958D01*
X0009581928Y0012184367D01*
X0009572439Y0012122268D01*
X0009561438Y0012060679D01*
X0009548944Y0011999621D01*
X0009534976Y0011939113D01*
X0009519555Y0011879175D01*
X0009502699Y0011819826D01*
X0009484429Y0011761086D01*
X0009464764Y0011702975D01*
X0009443724Y0011645512D01*
X0009421329Y0011588718D01*
X0009397598Y0011532610D01*
X0009372550Y0011477210D01*
X0009346206Y0011422537D01*
X0009318585Y0011368611D01*
X0009289706Y0011315451D01*
X0009259590Y0011263076D01*
X0009228256Y0011211507D01*
X0009195724Y0011160763D01*
X0009162013Y0011110864D01*
X0009127142Y0011061829D01*
X0009091133Y0011013679D01*
X0009054003Y0010966432D01*
X0009015774Y0010920108D01*
X0008976463Y0010874728D01*
X0008936092Y0010830310D01*
X0008894680Y0010786874D01*
X0008852247Y0010744440D01*
X0008808811Y0010703028D01*
X0008764393Y0010662657D01*
X0008719012Y0010623347D01*
X0008672689Y0010585117D01*
X0008625442Y0010547988D01*
X0008577291Y0010511978D01*
X0008528256Y0010477108D01*
X0008478357Y0010443397D01*
X0008427613Y0010410864D01*
X0008376044Y0010379530D01*
X0008323670Y0010349414D01*
X0008270510Y0010320536D01*
X0008216583Y0010292915D01*
X0008161910Y0010266570D01*
X0008106510Y0010241523D01*
X0008050403Y0010217792D01*
X0007993608Y0010195396D01*
X0007936145Y0010174356D01*
X0007878034Y0010154691D01*
X0007819294Y0010136421D01*
X0007759946Y0010119566D01*
X0007700007Y0010104144D01*
X0007639499Y0010090177D01*
X0007578441Y0010077682D01*
X0007516853Y0010066681D01*
X0007454753Y0010057193D01*
X0007392163Y0010049236D01*
X0007329101Y0010042832D01*
X0007265587Y0010037999D01*
X0007201641Y0010034758D01*
X0007137282Y0010033127D01*
X0007104938Y0010032991D01*
X0007072594Y0010033127D01*
X0007008235Y0010034758D01*
X0006944289Y0010037999D01*
X0006880775Y0010042832D01*
X0006817713Y0010049236D01*
X0006755122Y0010057193D01*
X0006693023Y0010066681D01*
X0006631434Y0010077682D01*
X0006570376Y0010090177D01*
X0006509868Y0010104144D01*
X0006449930Y0010119566D01*
X0006390581Y0010136421D01*
X0006331841Y0010154691D01*
X0006273730Y0010174356D01*
X0006216268Y0010195396D01*
X0006159473Y0010217792D01*
X0006103365Y0010241523D01*
X0006047966Y0010266570D01*
X0005993292Y0010292915D01*
X0005939366Y0010320536D01*
X0005886206Y0010349414D01*
X0005833831Y0010379530D01*
X0005782262Y0010410864D01*
X0005731518Y0010443397D01*
X0005681619Y0010477108D01*
X0005632584Y0010511978D01*
X0005584434Y0010547988D01*
X0005537187Y0010585117D01*
X0005490863Y0010623347D01*
X0005445483Y0010662657D01*
X0005401065Y0010703028D01*
X0005357629Y0010744440D01*
X0005315195Y0010786874D01*
X0005273783Y0010830310D01*
X0005233412Y0010874728D01*
X0005194102Y0010920108D01*
X0005155872Y0010966432D01*
X0005118743Y0011013679D01*
X0005082733Y0011061829D01*
X0005047863Y0011110864D01*
X0005014152Y0011160763D01*
X0004981619Y0011211507D01*
X0004950285Y0011263076D01*
X0004920169Y0011315451D01*
X0004891291Y0011368611D01*
X0004863670Y0011422537D01*
X0004837326Y0011477210D01*
X0004812278Y0011532610D01*
X0004788547Y0011588718D01*
X0004766151Y0011645512D01*
X0004745111Y0011702975D01*
X0004725446Y0011761086D01*
X0004707176Y0011819826D01*
X0004690321Y0011879175D01*
X0004674899Y0011939113D01*
X0004660932Y0011999621D01*
X0004648437Y0012060679D01*
X0004637436Y0012122268D01*
X0004627948Y0012184367D01*
X0004619991Y0012246958D01*
X0004613587Y0012310020D01*
X0004608754Y0012373534D01*
X0004605513Y0012437480D01*
X0004603882Y0012501839D01*
X0004603746Y0012534183D01*
X0004603882Y0012566527D01*
X0004605513Y0012630885D01*
X0004608754Y0012694832D01*
X0004613587Y0012758346D01*
X0004619991Y0012821408D01*
X0004627948Y0012883998D01*
X0004637436Y0012946098D01*
X0004648437Y0013007686D01*
X0004660932Y0013068744D01*
X0004674899Y0013129252D01*
X0004690321Y0013189190D01*
X0004707176Y0013248539D01*
X0004725446Y0013307279D01*
X0004745111Y0013365390D01*
X0004766151Y0013422853D01*
X0004788547Y0013479648D01*
X0004812278Y0013535755D01*
X0004837326Y0013591155D01*
X0004863670Y0013645828D01*
X0004891291Y0013699755D01*
X0004920169Y0013752915D01*
X0004950285Y0013805289D01*
X0004981619Y0013856858D01*
X0005014152Y0013907602D01*
X0005047863Y0013957501D01*
X0005082733Y0014006536D01*
X0005118743Y0014054687D01*
X0005155872Y0014101934D01*
X0005194102Y0014148257D01*
X0005233412Y0014193638D01*
X0005273783Y0014238056D01*
X0005315195Y0014281491D01*
X0005357629Y0014323925D01*
X0005401065Y0014365337D01*
X0005445483Y0014405708D01*
X0005490863Y0014445019D01*
X0005537187Y0014483248D01*
X0005584434Y0014520378D01*
X0005632584Y0014556387D01*
X0005681619Y0014591258D01*
X0005731518Y0014624969D01*
X0005782262Y0014657501D01*
X0005833831Y0014688835D01*
X0005886206Y0014718951D01*
X0005939366Y0014747830D01*
X0005993292Y0014775451D01*
X0006047966Y0014801795D01*
X0006103365Y0014826843D01*
X0006159473Y0014850574D01*
X0006216268Y0014872969D01*
X0006273730Y0014894009D01*
X0006331841Y0014913674D01*
X0006390581Y0014931944D01*
X0006449930Y0014948800D01*
X0006509868Y0014964221D01*
X0006570376Y0014978189D01*
X0006631434Y0014990683D01*
X0006693023Y0015001684D01*
X0006755122Y0015011173D01*
X0006817713Y0015019129D01*
X0006880775Y0015025534D01*
X0006944289Y0015030366D01*
X0007008235Y0015033608D01*
X0007072594Y0015035238D01*
X0007104938Y0015035375D01*
G37*
%LPD*%
G36*
X0029382834Y0028705501D02*
G01*
X0029399007Y0028705365D01*
X0029431006Y0028703752D01*
X0029462554Y0028700565D01*
X0029493613Y0028695843D01*
X0029524144Y0028689626D01*
X0029554107Y0028681954D01*
X0029583464Y0028672865D01*
X0029612177Y0028662400D01*
X0029640206Y0028650597D01*
X0029667513Y0028637496D01*
X0029694059Y0028623137D01*
X0029719806Y0028607558D01*
X0029744714Y0028590799D01*
X0029768745Y0028572900D01*
X0029791860Y0028553900D01*
X0029814020Y0028533838D01*
X0029835186Y0028512754D01*
X0029855321Y0028490687D01*
X0029874384Y0028467677D01*
X0029892338Y0028443763D01*
X0029909143Y0028418984D01*
X0029924761Y0028393380D01*
X0029939153Y0028366990D01*
X0029952280Y0028339854D01*
X0029964103Y0028312011D01*
X0029974585Y0028283500D01*
X0029983685Y0028254361D01*
X0029991365Y0028224633D01*
X0029997587Y0028194356D01*
X0030002312Y0028163569D01*
X0030005500Y0028132311D01*
X0030007114Y0028100622D01*
X0030007250Y0028084613D01*
X0030006809Y0027931595D01*
X0030003998Y0027314455D01*
X0030001517Y0026999932D01*
X0030000194Y0026955725D01*
X0029995481Y0026927751D01*
X0029982035Y0026873297D01*
X0029963969Y0026820845D01*
X0029941511Y0026770629D01*
X0029914887Y0026722880D01*
X0029884325Y0026677831D01*
X0029850054Y0026635715D01*
X0029812299Y0026596763D01*
X0029771289Y0026561210D01*
X0029727250Y0026529287D01*
X0029680410Y0026501227D01*
X0029630997Y0026477262D01*
X0029579238Y0026457625D01*
X0029525361Y0026442548D01*
X0029469591Y0026432265D01*
X0029426613Y0026428000D01*
X0029397524Y0026426671D01*
X0029382834Y0026426559D01*
X0029368144Y0026426672D01*
X0029339054Y0026428022D01*
X0029296079Y0026432352D01*
X0029240320Y0026442790D01*
X0029186465Y0026458092D01*
X0029134747Y0026478018D01*
X0029085399Y0026502332D01*
X0029038653Y0026530795D01*
X0028994741Y0026563170D01*
X0028953896Y0026599220D01*
X0028916350Y0026638706D01*
X0028882337Y0026681390D01*
X0028852088Y0026727036D01*
X0028825836Y0026775405D01*
X0028803814Y0026826260D01*
X0028786255Y0026879363D01*
X0028773390Y0026934476D01*
X0028769001Y0026962780D01*
X0028767678Y0027005775D01*
X0028765198Y0027318810D01*
X0028762386Y0027935123D01*
X0028761945Y0028088140D01*
X0028762081Y0028104150D01*
X0028763695Y0028135838D01*
X0028766882Y0028167095D01*
X0028771603Y0028197879D01*
X0028777820Y0028228151D01*
X0028785492Y0028257871D01*
X0028794581Y0028286998D01*
X0028805047Y0028315493D01*
X0028816849Y0028343316D01*
X0028829950Y0028370426D01*
X0028844310Y0028396783D01*
X0028859889Y0028422348D01*
X0028876647Y0028447081D01*
X0028894546Y0028470940D01*
X0028913547Y0028493887D01*
X0028933608Y0028515881D01*
X0028954692Y0028536883D01*
X0028976759Y0028556851D01*
X0028999769Y0028575747D01*
X0029023683Y0028593529D01*
X0029048462Y0028610158D01*
X0029074066Y0028625595D01*
X0029100456Y0028639798D01*
X0029127592Y0028652728D01*
X0029155436Y0028664345D01*
X0029183946Y0028674609D01*
X0029213085Y0028683479D01*
X0029242813Y0028690916D01*
X0029273091Y0028696879D01*
X0029303878Y0028701329D01*
X0029335135Y0028704226D01*
X0029366824Y0028705529D01*
G37*
%LPD*%
G36*
X0029382834Y0032734219D02*
G01*
X0029399007Y0032734083D01*
X0029431006Y0032732470D01*
X0029462554Y0032729283D01*
X0029493613Y0032724561D01*
X0029524144Y0032718345D01*
X0029554107Y0032710672D01*
X0029583464Y0032701584D01*
X0029612177Y0032691118D01*
X0029640206Y0032679315D01*
X0029667513Y0032666215D01*
X0029694059Y0032651855D01*
X0029719806Y0032636276D01*
X0029744714Y0032619517D01*
X0029768745Y0032601618D01*
X0029791860Y0032582618D01*
X0029814020Y0032562557D01*
X0029835186Y0032541473D01*
X0029855321Y0032519406D01*
X0029874384Y0032496396D01*
X0029892338Y0032472481D01*
X0029909143Y0032447703D01*
X0029924761Y0032422099D01*
X0029939153Y0032395709D01*
X0029952280Y0032368572D01*
X0029964103Y0032340729D01*
X0029974585Y0032312218D01*
X0029983685Y0032283079D01*
X0029991365Y0032253352D01*
X0029997587Y0032223074D01*
X0030002312Y0032192287D01*
X0030005500Y0032161029D01*
X0030007114Y0032129341D01*
X0030007250Y0032113331D01*
X0030006809Y0031996915D01*
X0030003998Y0031544478D01*
X0030001517Y0031312306D01*
X0030000194Y0031277249D01*
X0029995481Y0031249274D01*
X0029982035Y0031194820D01*
X0029963969Y0031142369D01*
X0029941511Y0031092152D01*
X0029914887Y0031044403D01*
X0029884325Y0030999355D01*
X0029850054Y0030957238D01*
X0029812299Y0030918287D01*
X0029771289Y0030882734D01*
X0029727250Y0030850811D01*
X0029680410Y0030822751D01*
X0029630997Y0030798786D01*
X0029579238Y0030779149D01*
X0029525361Y0030764072D01*
X0029469591Y0030753788D01*
X0029426613Y0030749523D01*
X0029397524Y0030748194D01*
X0029382834Y0030748082D01*
X0029368144Y0030748196D01*
X0029339054Y0030749546D01*
X0029296079Y0030753875D01*
X0029240320Y0030764314D01*
X0029186465Y0030779615D01*
X0029134747Y0030799542D01*
X0029085399Y0030823856D01*
X0029038653Y0030852319D01*
X0028994741Y0030884694D01*
X0028953896Y0030920744D01*
X0028916350Y0030960229D01*
X0028882337Y0031002914D01*
X0028852088Y0031048560D01*
X0028825836Y0031096929D01*
X0028803814Y0031147784D01*
X0028786255Y0031200886D01*
X0028773390Y0031255999D01*
X0028769001Y0031284304D01*
X0028767678Y0031318039D01*
X0028765198Y0031547730D01*
X0028762386Y0031997356D01*
X0028761945Y0032113331D01*
X0028762081Y0032129504D01*
X0028763695Y0032161503D01*
X0028766882Y0032193050D01*
X0028771603Y0032224106D01*
X0028777820Y0032254631D01*
X0028785492Y0032284587D01*
X0028794581Y0032313932D01*
X0028805047Y0032342629D01*
X0028816849Y0032370638D01*
X0028829950Y0032397919D01*
X0028844310Y0032424433D01*
X0028859889Y0032450140D01*
X0028876647Y0032475001D01*
X0028894546Y0032498978D01*
X0028913547Y0032522029D01*
X0028933608Y0032544117D01*
X0028954692Y0032565201D01*
X0028976759Y0032585242D01*
X0028999769Y0032604201D01*
X0029023683Y0032622038D01*
X0029048462Y0032638714D01*
X0029074066Y0032654189D01*
X0029100456Y0032668425D01*
X0029127592Y0032681381D01*
X0029155436Y0032693018D01*
X0029183946Y0032703298D01*
X0029213085Y0032712180D01*
X0029242813Y0032719625D01*
X0029273091Y0032725593D01*
X0029303878Y0032730046D01*
X0029335135Y0032732944D01*
X0029366824Y0032734247D01*
G37*
%LPD*%
G36*
X0020739786Y0028705501D02*
G01*
X0020755959Y0028705365D01*
X0020787959Y0028703752D01*
X0020819507Y0028700565D01*
X0020850566Y0028695843D01*
X0020881096Y0028689626D01*
X0020911059Y0028681954D01*
X0020940417Y0028672865D01*
X0020969129Y0028662400D01*
X0020997159Y0028650597D01*
X0021024466Y0028637496D01*
X0021051012Y0028623137D01*
X0021076758Y0028607558D01*
X0021101666Y0028590799D01*
X0021125697Y0028572900D01*
X0021148812Y0028553900D01*
X0021170972Y0028533838D01*
X0021192139Y0028512754D01*
X0021212273Y0028490687D01*
X0021231337Y0028467677D01*
X0021249290Y0028443763D01*
X0021266096Y0028418984D01*
X0021281713Y0028393380D01*
X0021296105Y0028366990D01*
X0021309232Y0028339854D01*
X0021321056Y0028312011D01*
X0021331537Y0028283500D01*
X0021340637Y0028254361D01*
X0021348318Y0028224633D01*
X0021354540Y0028194356D01*
X0021359264Y0028163569D01*
X0021362453Y0028132311D01*
X0021364066Y0028100622D01*
X0021364202Y0028084613D01*
X0021363761Y0027931595D01*
X0021360950Y0027314455D01*
X0021358470Y0026999932D01*
X0021357147Y0026955725D01*
X0021352434Y0026927751D01*
X0021338988Y0026873297D01*
X0021320922Y0026820845D01*
X0021298463Y0026770629D01*
X0021271839Y0026722880D01*
X0021241278Y0026677831D01*
X0021207006Y0026635715D01*
X0021169251Y0026596763D01*
X0021128241Y0026561210D01*
X0021084202Y0026529287D01*
X0021037363Y0026501227D01*
X0020987950Y0026477262D01*
X0020936191Y0026457625D01*
X0020882313Y0026442548D01*
X0020826544Y0026432265D01*
X0020783566Y0026428000D01*
X0020754476Y0026426671D01*
X0020739786Y0026426559D01*
X0020725096Y0026426672D01*
X0020696007Y0026428022D01*
X0020653031Y0026432352D01*
X0020597272Y0026442790D01*
X0020543418Y0026458092D01*
X0020491700Y0026478018D01*
X0020442352Y0026502332D01*
X0020395605Y0026530795D01*
X0020351693Y0026563170D01*
X0020310848Y0026599220D01*
X0020273303Y0026638706D01*
X0020239289Y0026681390D01*
X0020209040Y0026727036D01*
X0020182789Y0026775405D01*
X0020160767Y0026826260D01*
X0020143207Y0026879363D01*
X0020130343Y0026934476D01*
X0020125953Y0026962780D01*
X0020124631Y0027005775D01*
X0020122150Y0027318810D01*
X0020119339Y0027935123D01*
X0020118898Y0028088140D01*
X0020119034Y0028104150D01*
X0020120647Y0028135838D01*
X0020123834Y0028167095D01*
X0020128556Y0028197879D01*
X0020134773Y0028228151D01*
X0020142445Y0028257871D01*
X0020151534Y0028286998D01*
X0020161999Y0028315493D01*
X0020173802Y0028343316D01*
X0020186903Y0028370426D01*
X0020201262Y0028396783D01*
X0020216841Y0028422348D01*
X0020233600Y0028447081D01*
X0020251499Y0028470940D01*
X0020270499Y0028493887D01*
X0020290561Y0028515881D01*
X0020311645Y0028536883D01*
X0020333712Y0028556851D01*
X0020356722Y0028575747D01*
X0020380636Y0028593529D01*
X0020405415Y0028610158D01*
X0020431019Y0028625595D01*
X0020457409Y0028639798D01*
X0020484545Y0028652728D01*
X0020512388Y0028664345D01*
X0020540899Y0028674609D01*
X0020570038Y0028683479D01*
X0020599766Y0028690916D01*
X0020630043Y0028696879D01*
X0020660830Y0028701329D01*
X0020692088Y0028704226D01*
X0020723777Y0028705529D01*
G37*
%LPD*%
G36*
X0020739786Y0032734219D02*
G01*
X0020755959Y0032734083D01*
X0020787959Y0032732470D01*
X0020819507Y0032729283D01*
X0020850566Y0032724561D01*
X0020881096Y0032718345D01*
X0020911059Y0032710672D01*
X0020940417Y0032701584D01*
X0020969129Y0032691118D01*
X0020997159Y0032679315D01*
X0021024466Y0032666215D01*
X0021051012Y0032651855D01*
X0021076758Y0032636276D01*
X0021101666Y0032619517D01*
X0021125697Y0032601618D01*
X0021148812Y0032582618D01*
X0021170972Y0032562557D01*
X0021192139Y0032541473D01*
X0021212273Y0032519406D01*
X0021231337Y0032496396D01*
X0021249290Y0032472481D01*
X0021266096Y0032447703D01*
X0021281713Y0032422099D01*
X0021296105Y0032395709D01*
X0021309232Y0032368572D01*
X0021321056Y0032340729D01*
X0021331537Y0032312218D01*
X0021340637Y0032283079D01*
X0021348318Y0032253352D01*
X0021354540Y0032223074D01*
X0021359264Y0032192287D01*
X0021362453Y0032161029D01*
X0021364066Y0032129341D01*
X0021364202Y0032113331D01*
X0021363761Y0031996915D01*
X0021360950Y0031544478D01*
X0021358470Y0031312306D01*
X0021357147Y0031277249D01*
X0021352434Y0031249274D01*
X0021338988Y0031194820D01*
X0021320922Y0031142369D01*
X0021298463Y0031092152D01*
X0021271839Y0031044403D01*
X0021241278Y0030999355D01*
X0021207006Y0030957238D01*
X0021169251Y0030918287D01*
X0021128241Y0030882734D01*
X0021084202Y0030850811D01*
X0021037363Y0030822751D01*
X0020987950Y0030798786D01*
X0020936191Y0030779149D01*
X0020882313Y0030764072D01*
X0020826544Y0030753788D01*
X0020783566Y0030749523D01*
X0020754476Y0030748194D01*
X0020739786Y0030748082D01*
X0020725096Y0030748196D01*
X0020696007Y0030749546D01*
X0020653031Y0030753875D01*
X0020597272Y0030764314D01*
X0020543418Y0030779615D01*
X0020491700Y0030799542D01*
X0020442352Y0030823856D01*
X0020395605Y0030852319D01*
X0020351693Y0030884694D01*
X0020310848Y0030920744D01*
X0020273303Y0030960229D01*
X0020239289Y0031002914D01*
X0020209040Y0031048560D01*
X0020182789Y0031096929D01*
X0020160767Y0031147784D01*
X0020143207Y0031200886D01*
X0020130343Y0031255999D01*
X0020125953Y0031284304D01*
X0020124631Y0031318039D01*
X0020122150Y0031547730D01*
X0020119339Y0031997356D01*
X0020118898Y0032113331D01*
X0020119034Y0032129504D01*
X0020120647Y0032161503D01*
X0020123834Y0032193050D01*
X0020128556Y0032224106D01*
X0020134773Y0032254631D01*
X0020142445Y0032284587D01*
X0020151534Y0032313932D01*
X0020161999Y0032342629D01*
X0020173802Y0032370638D01*
X0020186903Y0032397919D01*
X0020201262Y0032424433D01*
X0020216841Y0032450140D01*
X0020233600Y0032475001D01*
X0020251499Y0032498978D01*
X0020270499Y0032522029D01*
X0020290561Y0032544117D01*
X0020311645Y0032565201D01*
X0020333712Y0032585242D01*
X0020356722Y0032604201D01*
X0020380636Y0032622038D01*
X0020405415Y0032638714D01*
X0020431019Y0032654189D01*
X0020457409Y0032668425D01*
X0020484545Y0032681381D01*
X0020512388Y0032693018D01*
X0020540899Y0032703298D01*
X0020570038Y0032712180D01*
X0020599766Y0032719625D01*
X0020630043Y0032725593D01*
X0020660830Y0032730046D01*
X0020692088Y0032732944D01*
X0020723777Y0032734247D01*
G37*
%LPD*%
G36*
X0017174560Y0027862101D02*
G01*
X0017204801Y0027859030D01*
X0017234081Y0027853038D01*
X0017262250Y0027844277D01*
X0017289156Y0027832896D01*
X0017314649Y0027819048D01*
X0017338578Y0027802881D01*
X0017360792Y0027784548D01*
X0017381142Y0027764199D01*
X0017399474Y0027741985D01*
X0017415641Y0027718056D01*
X0017429489Y0027692563D01*
X0017440870Y0027665657D01*
X0017449631Y0027637488D01*
X0017455623Y0027608208D01*
X0017458694Y0027577967D01*
X0017458956Y0027562502D01*
X0017458694Y0027547038D01*
X0017455623Y0027516796D01*
X0017449631Y0027487516D01*
X0017440870Y0027459347D01*
X0017429489Y0027432441D01*
X0017415641Y0027406948D01*
X0017399474Y0027383019D01*
X0017381142Y0027360805D01*
X0017360792Y0027340456D01*
X0017338578Y0027322123D01*
X0017314649Y0027305957D01*
X0017289156Y0027292108D01*
X0017262250Y0027280728D01*
X0017234081Y0027271966D01*
X0017204801Y0027265975D01*
X0017174560Y0027262903D01*
X0017159095Y0027262641D01*
X0017143631Y0027262903D01*
X0017113389Y0027265975D01*
X0017084109Y0027271966D01*
X0017055940Y0027280728D01*
X0017029034Y0027292108D01*
X0017003541Y0027305957D01*
X0016979612Y0027322123D01*
X0016957398Y0027340456D01*
X0016937049Y0027360805D01*
X0016918716Y0027383019D01*
X0016902550Y0027406948D01*
X0016888701Y0027432441D01*
X0016877321Y0027459347D01*
X0016868559Y0027487516D01*
X0016862568Y0027516796D01*
X0016859496Y0027547038D01*
X0016859234Y0027562502D01*
X0016859496Y0027577967D01*
X0016862568Y0027608208D01*
X0016868559Y0027637488D01*
X0016877321Y0027665657D01*
X0016888701Y0027692563D01*
X0016902550Y0027718056D01*
X0016918716Y0027741985D01*
X0016937049Y0027764199D01*
X0016957398Y0027784548D01*
X0016979612Y0027802881D01*
X0017003541Y0027819048D01*
X0017029034Y0027832896D01*
X0017055940Y0027844277D01*
X0017084109Y0027853038D01*
X0017113389Y0027859030D01*
X0017143631Y0027862101D01*
X0017159095Y0027862363D01*
G37*
%LPD*%
G36*
X0017174560Y0028835766D02*
G01*
X0017204801Y0028832695D01*
X0017234081Y0028826704D01*
X0017262250Y0028817942D01*
X0017289156Y0028806562D01*
X0017314649Y0028792713D01*
X0017338578Y0028776547D01*
X0017360792Y0028758214D01*
X0017381142Y0028737865D01*
X0017399474Y0028715651D01*
X0017415641Y0028691722D01*
X0017429489Y0028666229D01*
X0017440870Y0028639323D01*
X0017449631Y0028611154D01*
X0017455623Y0028581874D01*
X0017458694Y0028551632D01*
X0017458956Y0028536168D01*
X0017458694Y0028520703D01*
X0017455623Y0028490462D01*
X0017449631Y0028461182D01*
X0017440870Y0028433013D01*
X0017429489Y0028406107D01*
X0017415641Y0028380614D01*
X0017399474Y0028356685D01*
X0017381142Y0028334470D01*
X0017360792Y0028314121D01*
X0017338578Y0028295788D01*
X0017314649Y0028279622D01*
X0017289156Y0028265774D01*
X0017262250Y0028254393D01*
X0017234081Y0028245632D01*
X0017204801Y0028239640D01*
X0017174560Y0028236569D01*
X0017159095Y0028236307D01*
X0017143631Y0028236569D01*
X0017113389Y0028239640D01*
X0017084109Y0028245632D01*
X0017055940Y0028254393D01*
X0017029034Y0028265774D01*
X0017003541Y0028279622D01*
X0016979612Y0028295788D01*
X0016957398Y0028314121D01*
X0016937049Y0028334470D01*
X0016918716Y0028356685D01*
X0016902550Y0028380614D01*
X0016888701Y0028406107D01*
X0016877321Y0028433013D01*
X0016868559Y0028461182D01*
X0016862568Y0028490462D01*
X0016859496Y0028520703D01*
X0016859234Y0028536168D01*
X0016859496Y0028551632D01*
X0016862568Y0028581874D01*
X0016868559Y0028611154D01*
X0016877321Y0028639323D01*
X0016888701Y0028666229D01*
X0016902550Y0028691722D01*
X0016918716Y0028715651D01*
X0016937049Y0028737865D01*
X0016957398Y0028758214D01*
X0016979612Y0028776547D01*
X0017003541Y0028792713D01*
X0017029034Y0028806562D01*
X0017055940Y0028817942D01*
X0017084109Y0028826704D01*
X0017113389Y0028832695D01*
X0017143631Y0028835766D01*
X0017159095Y0028836029D01*
G37*
%LPD*%
G36*
X0017174560Y0026891963D02*
G01*
X0017204801Y0026888892D01*
X0017234081Y0026882900D01*
X0017262250Y0026874139D01*
X0017289156Y0026862758D01*
X0017314649Y0026848910D01*
X0017338578Y0026832743D01*
X0017360792Y0026814411D01*
X0017381142Y0026794061D01*
X0017399474Y0026771847D01*
X0017415641Y0026747918D01*
X0017429489Y0026722425D01*
X0017440870Y0026695519D01*
X0017449631Y0026667350D01*
X0017455623Y0026638070D01*
X0017458694Y0026607829D01*
X0017458956Y0026592364D01*
X0017458694Y0026576900D01*
X0017455623Y0026546658D01*
X0017449631Y0026517378D01*
X0017440870Y0026489209D01*
X0017429489Y0026462303D01*
X0017415641Y0026436810D01*
X0017399474Y0026412881D01*
X0017381142Y0026390667D01*
X0017360792Y0026370318D01*
X0017338578Y0026351985D01*
X0017314649Y0026335819D01*
X0017289156Y0026321970D01*
X0017262250Y0026310590D01*
X0017234081Y0026301828D01*
X0017204801Y0026295837D01*
X0017174560Y0026292765D01*
X0017159095Y0026292503D01*
X0017143631Y0026292765D01*
X0017113389Y0026295837D01*
X0017084109Y0026301828D01*
X0017055940Y0026310590D01*
X0017029034Y0026321970D01*
X0017003541Y0026335819D01*
X0016979612Y0026351985D01*
X0016957398Y0026370318D01*
X0016937049Y0026390667D01*
X0016918716Y0026412881D01*
X0016902550Y0026436810D01*
X0016888701Y0026462303D01*
X0016877321Y0026489209D01*
X0016868559Y0026517378D01*
X0016862568Y0026546658D01*
X0016859496Y0026576900D01*
X0016859234Y0026592364D01*
X0016859496Y0026607829D01*
X0016862568Y0026638070D01*
X0016868559Y0026667350D01*
X0016877321Y0026695519D01*
X0016888701Y0026722425D01*
X0016902550Y0026747918D01*
X0016918716Y0026771847D01*
X0016937049Y0026794061D01*
X0016957398Y0026814411D01*
X0016979612Y0026832743D01*
X0017003541Y0026848910D01*
X0017029034Y0026862758D01*
X0017055940Y0026874139D01*
X0017084109Y0026882900D01*
X0017113389Y0026888892D01*
X0017143631Y0026891963D01*
X0017159095Y0026892225D01*
G37*
%LPD*%
G36*
X0017174560Y0029805904D02*
G01*
X0017204801Y0029802833D01*
X0017234081Y0029796842D01*
X0017262250Y0029788080D01*
X0017289156Y0029776700D01*
X0017314649Y0029762851D01*
X0017338578Y0029746685D01*
X0017360792Y0029728352D01*
X0017381142Y0029708003D01*
X0017399474Y0029685789D01*
X0017415641Y0029661860D01*
X0017429489Y0029636367D01*
X0017440870Y0029609461D01*
X0017449631Y0029581292D01*
X0017455623Y0029552012D01*
X0017458694Y0029521770D01*
X0017458956Y0029506306D01*
X0017458694Y0029490841D01*
X0017455623Y0029460600D01*
X0017449631Y0029431320D01*
X0017440870Y0029403151D01*
X0017429489Y0029376245D01*
X0017415641Y0029350752D01*
X0017399474Y0029326823D01*
X0017381142Y0029304608D01*
X0017360792Y0029284259D01*
X0017338578Y0029265926D01*
X0017314649Y0029249760D01*
X0017289156Y0029235912D01*
X0017262250Y0029224531D01*
X0017234081Y0029215770D01*
X0017204801Y0029209778D01*
X0017174560Y0029206707D01*
X0017159095Y0029206445D01*
X0017143631Y0029206707D01*
X0017113389Y0029209778D01*
X0017084109Y0029215770D01*
X0017055940Y0029224531D01*
X0017029034Y0029235912D01*
X0017003541Y0029249760D01*
X0016979612Y0029265926D01*
X0016957398Y0029284259D01*
X0016937049Y0029304608D01*
X0016918716Y0029326823D01*
X0016902550Y0029350752D01*
X0016888701Y0029376245D01*
X0016877321Y0029403151D01*
X0016868559Y0029431320D01*
X0016862568Y0029460600D01*
X0016859496Y0029490841D01*
X0016859234Y0029506306D01*
X0016859496Y0029521770D01*
X0016862568Y0029552012D01*
X0016868559Y0029581292D01*
X0016877321Y0029609461D01*
X0016888701Y0029636367D01*
X0016902550Y0029661860D01*
X0016918716Y0029685789D01*
X0016937049Y0029708003D01*
X0016957398Y0029728352D01*
X0016979612Y0029746685D01*
X0017003541Y0029762851D01*
X0017029034Y0029776700D01*
X0017055940Y0029788080D01*
X0017084109Y0029796842D01*
X0017113389Y0029802833D01*
X0017143631Y0029805904D01*
X0017159095Y0029806167D01*
G37*
M02*
