%FSLAX46Y46*%
%MOMM*%
%LPD*%
G01*
%ADD10C,0.050000*%
D10*
%LPD*%
%ADD11C,0.0305514*%
D11*
X0082179510Y0036205550D02*
G01*
X0003929941Y0036205550D01*
X0003929941Y0036205550D01*
X0003899214Y0036205420D01*
X0003838074Y0036203868D01*
X0003777330Y0036200785D01*
X0003716998Y0036196187D01*
X0003657099Y0036190095D01*
X0003597650Y0036182527D01*
X0003538670Y0036173502D01*
X0003480178Y0036163039D01*
X0003422192Y0036151156D01*
X0003364730Y0036137872D01*
X0003307812Y0036123207D01*
X0003251456Y0036107178D01*
X0003195681Y0036089805D01*
X0003140504Y0036071107D01*
X0003085945Y0036051102D01*
X0003032022Y0036029809D01*
X0002978754Y0036007247D01*
X0002926160Y0035983435D01*
X0002874257Y0035958391D01*
X0002823065Y0035932135D01*
X0002772601Y0035904685D01*
X0002722886Y0035876060D01*
X0002673936Y0035846279D01*
X0002625771Y0035815361D01*
X0002578410Y0035783324D01*
X0002531871Y0035750188D01*
X0002486172Y0035715971D01*
X0002441332Y0035680691D01*
X0002397369Y0035644368D01*
X0002354303Y0035607021D01*
X0002312151Y0035568669D01*
X0002270933Y0035529329D01*
X0002230667Y0035489021D01*
X0002191371Y0035447765D01*
X0002153065Y0035405577D01*
X0002115765Y0035362479D01*
X0002079493Y0035318487D01*
X0002044264Y0035273622D01*
X0002010099Y0035227901D01*
X0001977016Y0035181345D01*
X0001945034Y0035133970D01*
X0001914170Y0035085797D01*
X0001884445Y0035036844D01*
X0001855875Y0034987130D01*
X0001828480Y0034936674D01*
X0001802278Y0034885495D01*
X0001777289Y0034833610D01*
X0001753529Y0034781040D01*
X0001731019Y0034727803D01*
X0001709777Y0034673918D01*
X0001689820Y0034619404D01*
X0001671168Y0034564279D01*
X0001653840Y0034508562D01*
X0001637853Y0034452272D01*
X0001623227Y0034395428D01*
X0001609980Y0034338049D01*
X0001598131Y0034280153D01*
X0001587698Y0034221760D01*
X0001578699Y0034162888D01*
X0001571154Y0034103556D01*
X0001565081Y0034043782D01*
X0001560498Y0033983586D01*
X0001557424Y0033922987D01*
X0001555878Y0033862003D01*
X0001555749Y0033831357D01*
X0001555749Y0001065388D01*
X0084553699Y0001065388D01*
X0084553699Y0033831357D01*
X0084553699Y0033831357D01*
X0084553569Y0033862085D01*
X0084552018Y0033923224D01*
X0084548934Y0033983969D01*
X0084544337Y0034044300D01*
X0084538245Y0034104199D01*
X0084530677Y0034163648D01*
X0084521652Y0034222628D01*
X0084511188Y0034281120D01*
X0084499305Y0034339106D01*
X0084486022Y0034396568D01*
X0084471356Y0034453486D01*
X0084455327Y0034509842D01*
X0084437954Y0034565617D01*
X0084419256Y0034620794D01*
X0084399251Y0034675353D01*
X0084377958Y0034729276D01*
X0084355396Y0034782544D01*
X0084331584Y0034835138D01*
X0084306541Y0034887041D01*
X0084280284Y0034938233D01*
X0084252835Y0034988697D01*
X0084224210Y0035038412D01*
X0084194429Y0035087362D01*
X0084163511Y0035135527D01*
X0084131474Y0035182888D01*
X0084098338Y0035229428D01*
X0084064120Y0035275127D01*
X0084028841Y0035319967D01*
X0083992518Y0035363929D01*
X0083955171Y0035406995D01*
X0083916818Y0035449147D01*
X0083877479Y0035490365D01*
X0083837171Y0035530631D01*
X0083795915Y0035569927D01*
X0083753727Y0035608234D01*
X0083710629Y0035645533D01*
X0083666637Y0035681806D01*
X0083621772Y0035717034D01*
X0083576052Y0035751199D01*
X0083529495Y0035784282D01*
X0083482120Y0035816264D01*
X0083433948Y0035847128D01*
X0083384995Y0035876854D01*
X0083335281Y0035905423D01*
X0083284825Y0035932818D01*
X0083233645Y0035959020D01*
X0083181761Y0035984009D01*
X0083129191Y0036007769D01*
X0083075954Y0036030279D01*
X0083022069Y0036051522D01*
X0082967555Y0036071478D01*
X0082912430Y0036090130D01*
X0082856713Y0036107458D01*
X0082800423Y0036123445D01*
X0082743580Y0036138071D01*
X0082686201Y0036151318D01*
X0082628305Y0036163167D01*
X0082569912Y0036173600D01*
X0082511040Y0036182599D01*
X0082451708Y0036190144D01*
X0082391935Y0036196217D01*
X0082331739Y0036200800D01*
X0082271140Y0036203874D01*
X0082210156Y0036205420D01*
X0082179510Y0036205550D01*
X0082179510Y0036205550D01*
M02*
