%FSLAX46Y46*%
%MOMM*%
%LPD*%
G01*
%ADD10C,0.050000*%
D10*
%LPD*%
%LPD*%
G36*
X0003778447Y0036183180D02*
G01*
X0003718561Y0036178616D01*
X0003659105Y0036172570D01*
X0003600098Y0036165058D01*
X0003541558Y0036156100D01*
X0003483503Y0036145715D01*
X0003425949Y0036133920D01*
X0003368918Y0036120736D01*
X0003312426Y0036106180D01*
X0003256494Y0036090272D01*
X0003201134Y0036073029D01*
X0003146373Y0036054471D01*
X0003092221Y0036034615D01*
X0003038703Y0036013482D01*
X0002985833Y0035991089D01*
X0002933631Y0035967455D01*
X0002882116Y0035942598D01*
X0002831305Y0035916538D01*
X0002781217Y0035889292D01*
X0002731872Y0035860881D01*
X0002683286Y0035831321D01*
X0002635479Y0035800632D01*
X0002588468Y0035768832D01*
X0002542274Y0035735942D01*
X0002496913Y0035701978D01*
X0002452404Y0035666959D01*
X0002408766Y0035630904D01*
X0002366018Y0035593833D01*
X0002324178Y0035555764D01*
X0002283264Y0035516714D01*
X0002243294Y0035476703D01*
X0002204289Y0035435751D01*
X0002166265Y0035393876D01*
X0002129241Y0035351095D01*
X0002093236Y0035307428D01*
X0002058268Y0035262894D01*
X0002024355Y0035217512D01*
X0001991518Y0035171300D01*
X0001959772Y0035124276D01*
X0001929137Y0035076460D01*
X0001899632Y0035027872D01*
X0001871275Y0034978527D01*
X0001844083Y0034928445D01*
X0001818077Y0034877647D01*
X0001793274Y0034826151D01*
X0001769691Y0034773972D01*
X0001747350Y0034721134D01*
X0001726266Y0034667651D01*
X0001706459Y0034613544D01*
X0001687946Y0034558831D01*
X0001670748Y0034503533D01*
X0001654881Y0034447664D01*
X0001640365Y0034391245D01*
X0001627217Y0034334297D01*
X0001615456Y0034276832D01*
X0001605101Y0034218877D01*
X0001596169Y0034160441D01*
X0001588680Y0034101552D01*
X0001582652Y0034042221D01*
X0001578103Y0033982470D01*
X0001575052Y0033922316D01*
X0001573516Y0033861743D01*
X0001573387Y0033831316D01*
X0001573387Y0001083027D01*
X0084536060Y0001083027D01*
X0084536060Y0033831316D01*
X0084535931Y0033861825D01*
X0084534390Y0033922553D01*
X0084531329Y0033982851D01*
X0084526766Y0034042738D01*
X0084520719Y0034102193D01*
X0084513207Y0034161200D01*
X0084504249Y0034219740D01*
X0084493864Y0034277796D01*
X0084482070Y0034335349D01*
X0084468886Y0034392380D01*
X0084454330Y0034448872D01*
X0084438422Y0034504805D01*
X0084421178Y0034560164D01*
X0084402620Y0034614926D01*
X0084382765Y0034669077D01*
X0084361632Y0034722595D01*
X0084339238Y0034775467D01*
X0084315604Y0034827667D01*
X0084290748Y0034879183D01*
X0084264687Y0034929993D01*
X0084237442Y0034980081D01*
X0084209030Y0035029426D01*
X0084179470Y0035078012D01*
X0084148782Y0035125819D01*
X0084116982Y0035172830D01*
X0084084092Y0035219024D01*
X0084050127Y0035264385D01*
X0084015108Y0035308894D01*
X0083979055Y0035352531D01*
X0083941982Y0035395281D01*
X0083903913Y0035437120D01*
X0083864863Y0035478035D01*
X0083824854Y0035518003D01*
X0083783901Y0035557010D01*
X0083742026Y0035595033D01*
X0083699245Y0035632057D01*
X0083655579Y0035668062D01*
X0083611044Y0035703031D01*
X0083565662Y0035736943D01*
X0083519451Y0035769780D01*
X0083472425Y0035801527D01*
X0083424611Y0035832161D01*
X0083376022Y0035861666D01*
X0083326676Y0035890024D01*
X0083276597Y0035917215D01*
X0083225798Y0035943221D01*
X0083174301Y0035968024D01*
X0083122123Y0035991607D01*
X0083069285Y0036013948D01*
X0083015802Y0036035032D01*
X0082961695Y0036054839D01*
X0082906982Y0036073352D01*
X0082851685Y0036090550D01*
X0082795815Y0036106417D01*
X0082739397Y0036120933D01*
X0082682448Y0036134081D01*
X0082624984Y0036145842D01*
X0082567028Y0036156197D01*
X0082508593Y0036165129D01*
X0082449704Y0036172618D01*
X0082390373Y0036178646D01*
X0082330623Y0036183195D01*
X0082270469Y0036186246D01*
X0082209896Y0036187782D01*
X0082179469Y0036187911D01*
X0003929982Y0036187911D01*
X0082245399Y0036222171D01*
X0082271810Y0036221501D01*
X0082332855Y0036218405D01*
X0082393496Y0036213788D01*
X0082453712Y0036207670D01*
X0082513485Y0036200069D01*
X0082572796Y0036191003D01*
X0082631625Y0036180492D01*
X0082689954Y0036168554D01*
X0082747762Y0036155208D01*
X0082805031Y0036140472D01*
X0082861742Y0036124366D01*
X0082917876Y0036106908D01*
X0082973414Y0036088117D01*
X0083028337Y0036068011D01*
X0083082625Y0036046609D01*
X0083136259Y0036023931D01*
X0083189222Y0035999994D01*
X0083241493Y0035974818D01*
X0083293053Y0035948422D01*
X0083343885Y0035920823D01*
X0083393968Y0035892041D01*
X0083443284Y0035862094D01*
X0083491814Y0035831002D01*
X0083539540Y0035798783D01*
X0083586441Y0035765455D01*
X0083632499Y0035731037D01*
X0083677696Y0035695549D01*
X0083722012Y0035659008D01*
X0083765429Y0035621434D01*
X0083807928Y0035582844D01*
X0083849489Y0035543258D01*
X0083890094Y0035502695D01*
X0083929723Y0035461173D01*
X0083968359Y0035418710D01*
X0084005982Y0035375326D01*
X0084042573Y0035331039D01*
X0084078113Y0035285868D01*
X0084112584Y0035239830D01*
X0084145966Y0035192946D01*
X0084178240Y0035145234D01*
X0084209388Y0035096712D01*
X0084239390Y0035047398D01*
X0084268227Y0034997313D01*
X0084295882Y0034946474D01*
X0084322333Y0034894900D01*
X0084347564Y0034842610D01*
X0084371554Y0034789622D01*
X0084394285Y0034735956D01*
X0084415737Y0034681629D01*
X0084435892Y0034626662D01*
X0084454730Y0034571072D01*
X0084472233Y0034514878D01*
X0084488382Y0034458100D01*
X0084503158Y0034400755D01*
X0084516541Y0034342864D01*
X0084528512Y0034284444D01*
X0084539054Y0034225516D01*
X0084548146Y0034166096D01*
X0084555771Y0034106206D01*
X0084561908Y0034045863D01*
X0084566539Y0033985086D01*
X0084569645Y0033923895D01*
X0084571207Y0033862346D01*
X0084571338Y0033831395D01*
X0084571338Y0001047749D01*
X0001538110Y0001047749D01*
X0001538110Y0033831395D01*
X0001538240Y0033862264D01*
X0001539797Y0033923657D01*
X0001542893Y0033984703D01*
X0001547510Y0034045343D01*
X0001553628Y0034105560D01*
X0001561229Y0034165333D01*
X0001570295Y0034224644D01*
X0001580806Y0034283473D01*
X0001592744Y0034341802D01*
X0001606090Y0034399610D01*
X0001620826Y0034456880D01*
X0001636932Y0034513591D01*
X0001654390Y0034569725D01*
X0001673181Y0034625263D01*
X0001693287Y0034680186D01*
X0001714689Y0034734474D01*
X0001737367Y0034788108D01*
X0001761304Y0034841071D01*
X0001786480Y0034893342D01*
X0001812877Y0034944903D01*
X0001840475Y0034995734D01*
X0001869257Y0035045818D01*
X0001899204Y0035095134D01*
X0001930296Y0035143664D01*
X0001962516Y0035191389D01*
X0001995843Y0035238291D01*
X0002030261Y0035284349D01*
X0002065749Y0035329546D01*
X0002102290Y0035373863D01*
X0002139865Y0035417279D01*
X0002178454Y0035459778D01*
X0002218040Y0035501339D01*
X0002258603Y0035541944D01*
X0002300125Y0035581574D01*
X0002342588Y0035620209D01*
X0002385972Y0035657832D01*
X0002430259Y0035694423D01*
X0002475431Y0035729964D01*
X0002521468Y0035764434D01*
X0002568352Y0035797816D01*
X0002616064Y0035830090D01*
X0002664587Y0035861238D01*
X0002713900Y0035891240D01*
X0002763985Y0035920078D01*
X0002814824Y0035947732D01*
X0002866398Y0035974184D01*
X0002918689Y0035999414D01*
X0002971676Y0036023405D01*
X0003025343Y0036046135D01*
X0003079669Y0036067587D01*
X0003134637Y0036087742D01*
X0003190227Y0036106581D01*
X0003246420Y0036124084D01*
X0003303198Y0036140233D01*
X0003360543Y0036155008D01*
X0003418434Y0036168391D01*
X0003476854Y0036180363D01*
X0003535783Y0036190905D01*
X0003549651Y0036193027D01*
X0003899474Y0036187782D01*
X0003838745Y0036186241D01*
G37*
G36*
X0082210416Y0036223058D02*
G01*
X0082245399Y0036222171D01*
X0003929982Y0036187911D01*
X0003899474Y0036187782D01*
X0003549651Y0036193027D01*
X0003595202Y0036199997D01*
X0003655092Y0036207621D01*
X0003715436Y0036213758D01*
X0003776212Y0036218390D01*
X0003837403Y0036221496D01*
X0003898953Y0036223057D01*
X0003929903Y0036223188D01*
X0082179548Y0036223188D01*
G37*
%LPD*%
%LPD*%
G36*
X0036908830Y0024652088D02*
G01*
X0044428790Y0024652088D01*
X0044428790Y0032810955D01*
X0044605179Y0033002330D01*
X0044605179Y0024475699D01*
X0036835768Y0024475699D01*
X0036078546Y0025232917D01*
X0036078546Y0033002330D01*
X0036254935Y0025305980D01*
G37*
G36*
X0044428790Y0032810955D02*
G01*
X0044428790Y0032825942D01*
X0036254935Y0032825942D01*
X0036254935Y0025305980D01*
X0036078546Y0033002330D01*
X0044605179Y0033002330D01*
G37*
%LPD*%
%LPD*%
G36*
X0037972965Y0019536814D02*
G01*
X0037972965Y0022334340D01*
X0034654824Y0022334340D01*
X0038149353Y0022510729D01*
X0038149353Y0019360426D01*
X0034152381Y0019360426D01*
X0034152381Y0022077827D01*
X0034264096Y0022190584D01*
X0034328770Y0022005243D01*
X0034328770Y0019536814D01*
G37*
G36*
X0034654824Y0022334340D02*
G01*
X0034328770Y0022005243D01*
X0034264096Y0022190584D01*
X0034581281Y0022510729D01*
X0038149353Y0022510729D01*
G37*
%LPD*%
%LPD*%
G36*
X0036618299Y0018041039D02*
G01*
X0036794688Y0019039399D01*
X0036794688Y0017864650D01*
X0036046800Y0017864650D01*
X0036046800Y0019039399D01*
X0036223188Y0018041039D01*
G37*
G36*
X0036223188Y0018863010D02*
G01*
X0036223188Y0018041039D01*
X0036046800Y0019039399D01*
X0036794688Y0019039399D01*
X0036618299Y0018041039D01*
X0036618299Y0018863010D01*
G37*
%LPD*%
%LPD*%
G36*
X0081394798Y0022884812D02*
G01*
X0081382664Y0020625929D01*
X0081378116Y0019935454D01*
X0068195409Y0019935454D01*
X0068195409Y0034783856D01*
X0068371797Y0020111842D01*
X0081202885Y0020111842D01*
G37*
G36*
X0082218312Y0031690507D02*
G01*
X0082203567Y0031660759D01*
X0082158574Y0031560641D01*
X0082113267Y0031452294D01*
X0082057231Y0031308983D01*
X0081992864Y0031131723D01*
X0081958494Y0031029719D01*
X0082000708Y0031639670D01*
X0082041923Y0031731382D01*
X0082041923Y0032235197D01*
X0082218312Y0034783856D01*
G37*
G36*
X0082041923Y0032235197D02*
G01*
X0082041923Y0034607468D01*
X0068371797Y0034607468D01*
X0068371797Y0020111842D01*
X0068195409Y0034783856D01*
X0082218312Y0034783856D01*
G37*
G36*
X0081224145Y0023953000D02*
G01*
X0081231217Y0025808826D01*
X0081233822Y0026955822D01*
X0081234070Y0027463888D01*
X0081234467Y0027586929D01*
X0081239082Y0027828015D01*
X0081248020Y0028063252D01*
X0081260981Y0028292378D01*
X0081277667Y0028515276D01*
X0081297781Y0028731826D01*
X0081321026Y0028941911D01*
X0081347104Y0029145412D01*
X0081375718Y0029342213D01*
X0081406571Y0029532194D01*
X0081439364Y0029715239D01*
X0081473802Y0029891229D01*
X0081509586Y0030060048D01*
X0081546421Y0030221578D01*
X0081584007Y0030375701D01*
X0081622050Y0030522301D01*
X0081660250Y0030661260D01*
X0081698313Y0030792460D01*
X0081735940Y0030915786D01*
X0081772865Y0031031211D01*
X0081826366Y0031189994D01*
X0081892170Y0031371211D01*
X0081949739Y0031518446D01*
X0081996735Y0031630830D01*
X0082000708Y0031639670D01*
X0081958494Y0031029719D01*
X0081940453Y0030976174D01*
X0081904304Y0030863175D01*
X0081867378Y0030742147D01*
X0081830000Y0030613306D01*
X0081792465Y0030476769D01*
X0081755067Y0030332652D01*
X0081718100Y0030181071D01*
X0081681861Y0030022149D01*
X0081646643Y0029856003D01*
X0081612740Y0029682747D01*
X0081580448Y0029502503D01*
X0081550061Y0029315384D01*
X0081521872Y0029121510D01*
X0081496178Y0028921000D01*
X0081473271Y0028713970D01*
X0081453446Y0028500533D01*
X0081436997Y0028280813D01*
X0081424220Y0028054921D01*
X0081415407Y0027822979D01*
X0081410851Y0027584956D01*
X0081410459Y0027463564D01*
X0081410211Y0026955576D01*
X0081407605Y0025808296D01*
X0081400532Y0023952192D01*
X0081394798Y0022884812D01*
X0081202885Y0020111842D01*
X0081206278Y0020626988D01*
G37*
%LPD*%
G36*
X0083587089Y0033397441D02*
G01*
X0082941502Y0033397441D01*
X0083259009Y0033933663D01*
G37*
%LPD*%
%ADD11C,0.152757*%
D11*
X0083259009Y0033933663D02*
G01*
X0083587089Y0033397441D01*
X0082941502Y0033397441D01*
X0083259009Y0033933663D01*
%LPD*%
%LPD*%
G36*
X0046847981Y0024272245D02*
G01*
X0046887506Y0024259979D01*
X0046925247Y0024244044D01*
X0046960977Y0024224660D01*
X0046994482Y0024202044D01*
X0047025563Y0024176405D01*
X0047054022Y0024147946D01*
X0047079661Y0024116865D01*
X0047102278Y0024083359D01*
X0047121661Y0024047630D01*
X0047137597Y0024009889D01*
X0047149863Y0023970364D01*
X0047158243Y0023929302D01*
X0047162453Y0023887719D01*
X0047162830Y0023865394D01*
X0047162453Y0023843070D01*
X0047158243Y0023801486D01*
X0047149863Y0023760425D01*
X0047137597Y0023720900D01*
X0047121661Y0023683159D01*
X0047102278Y0023647430D01*
X0047079661Y0023613924D01*
X0047054022Y0023582843D01*
X0047025563Y0023554384D01*
X0046994482Y0023528745D01*
X0046960977Y0023506129D01*
X0046925247Y0023486745D01*
X0046887506Y0023470810D01*
X0046847981Y0023458543D01*
X0046831206Y0023455120D01*
X0046831206Y0022235563D01*
X0052683784Y0022235563D01*
X0052683784Y0025505810D01*
X0052108032Y0025505810D01*
X0052860173Y0025682198D01*
X0052860173Y0022059174D01*
X0046654818Y0022059174D01*
X0046654818Y0023620501D01*
X0046754945Y0023622192D01*
X0046780335Y0023624762D01*
X0046804096Y0023629612D01*
X0046826913Y0023636693D01*
X0046848704Y0023645893D01*
X0046869364Y0023657102D01*
X0046888775Y0023670204D01*
X0046906807Y0023685079D01*
X0046923327Y0023701599D01*
X0046938202Y0023719632D01*
X0046951305Y0023739043D01*
X0046962513Y0023759703D01*
X0046971713Y0023781493D01*
X0046978795Y0023804310D01*
X0046983644Y0023828072D01*
X0046986214Y0023853461D01*
X0046986416Y0023865394D01*
X0046986214Y0023877328D01*
X0046983644Y0023902717D01*
X0046978795Y0023926479D01*
X0046971713Y0023949296D01*
X0046962513Y0023971086D01*
X0046951305Y0023991746D01*
X0046938202Y0024011157D01*
X0046923327Y0024029189D01*
X0046906807Y0024045709D01*
X0046888775Y0024060585D01*
X0046869364Y0024073687D01*
X0046848704Y0024084896D01*
X0046826913Y0024094096D01*
X0046804096Y0024101177D01*
X0046780335Y0024106026D01*
X0046754945Y0024108597D01*
X0046654818Y0024110288D01*
X0046654818Y0025682198D01*
X0046831206Y0024275669D01*
G37*
G36*
X0052108032Y0025505810D02*
G01*
X0046831206Y0025505810D01*
X0046831206Y0024275669D01*
X0046654818Y0025682198D01*
X0052860173Y0025682198D01*
G37*
%LPD*%
%LPD*%
G36*
X0059600886Y0024272245D02*
G01*
X0059640411Y0024259979D01*
X0059678152Y0024244044D01*
X0059713881Y0024224660D01*
X0059747387Y0024202044D01*
X0059778468Y0024176405D01*
X0059806927Y0024147946D01*
X0059832566Y0024116865D01*
X0059855182Y0024083359D01*
X0059874566Y0024047630D01*
X0059890501Y0024009889D01*
X0059902768Y0023970364D01*
X0059911148Y0023929302D01*
X0059915357Y0023887719D01*
X0059915735Y0023865394D01*
X0059915357Y0023843070D01*
X0059911148Y0023801486D01*
X0059902768Y0023760425D01*
X0059890501Y0023720900D01*
X0059874566Y0023683159D01*
X0059855182Y0023647430D01*
X0059832566Y0023613924D01*
X0059806927Y0023582843D01*
X0059778468Y0023554384D01*
X0059747387Y0023528745D01*
X0059713881Y0023506129D01*
X0059678152Y0023486745D01*
X0059640411Y0023470810D01*
X0059600886Y0023458543D01*
X0059584111Y0023455120D01*
X0059584111Y0022235563D01*
X0065436689Y0022235563D01*
X0065436689Y0025505810D01*
X0064860937Y0025505810D01*
X0065613078Y0025682198D01*
X0065613078Y0022059174D01*
X0059407722Y0022059174D01*
X0059407722Y0023620501D01*
X0059507850Y0023622192D01*
X0059533239Y0023624762D01*
X0059557001Y0023629612D01*
X0059579818Y0023636693D01*
X0059601608Y0023645893D01*
X0059622268Y0023657102D01*
X0059641679Y0023670204D01*
X0059659712Y0023685079D01*
X0059676232Y0023701599D01*
X0059691107Y0023719632D01*
X0059704209Y0023739043D01*
X0059715418Y0023759703D01*
X0059724618Y0023781493D01*
X0059731699Y0023804310D01*
X0059736549Y0023828072D01*
X0059739119Y0023853461D01*
X0059739321Y0023865394D01*
X0059739119Y0023877328D01*
X0059736549Y0023902717D01*
X0059731699Y0023926479D01*
X0059724618Y0023949296D01*
X0059715418Y0023971086D01*
X0059704209Y0023991746D01*
X0059691107Y0024011157D01*
X0059676232Y0024029189D01*
X0059659712Y0024045709D01*
X0059641679Y0024060585D01*
X0059622268Y0024073687D01*
X0059601608Y0024084896D01*
X0059579818Y0024094096D01*
X0059557001Y0024101177D01*
X0059533239Y0024106026D01*
X0059507850Y0024108597D01*
X0059407722Y0024110288D01*
X0059407722Y0025682198D01*
X0059584111Y0024275669D01*
G37*
G36*
X0064860937Y0025505810D02*
G01*
X0059584111Y0025505810D01*
X0059584111Y0024275669D01*
X0059407722Y0025682198D01*
X0065613078Y0025682198D01*
G37*
%LPD*%
%LPD*%
G36*
X0034829718Y0025431726D02*
G01*
X0034829718Y0027767113D01*
X0031504280Y0027767113D01*
X0035006106Y0027943502D01*
X0035006106Y0025255338D01*
X0031026777Y0025255338D01*
X0031026777Y0027539061D01*
X0031135875Y0027648160D01*
X0031203165Y0027465999D01*
X0031203165Y0025431726D01*
G37*
G36*
X0031504280Y0027767113D02*
G01*
X0031203165Y0027465999D01*
X0031135875Y0027648160D01*
X0031431217Y0027943502D01*
X0035006106Y0027943502D01*
G37*
%LPD*%
%LPD*%
G36*
X0054136363Y0024272245D02*
G01*
X0054175888Y0024259979D01*
X0054213629Y0024244044D01*
X0054249359Y0024224660D01*
X0054282864Y0024202044D01*
X0054313945Y0024176405D01*
X0054342404Y0024147946D01*
X0054368043Y0024116865D01*
X0054390660Y0024083359D01*
X0054410044Y0024047630D01*
X0054425979Y0024009889D01*
X0054438245Y0023970364D01*
X0054446625Y0023929302D01*
X0054450835Y0023887719D01*
X0054451212Y0023865394D01*
X0054450835Y0023843070D01*
X0054446625Y0023801486D01*
X0054438245Y0023760425D01*
X0054425979Y0023720900D01*
X0054410044Y0023683159D01*
X0054390660Y0023647430D01*
X0054368043Y0023613924D01*
X0054342404Y0023582843D01*
X0054313945Y0023554384D01*
X0054282864Y0023528745D01*
X0054249359Y0023506129D01*
X0054213629Y0023486745D01*
X0054175888Y0023470810D01*
X0054136363Y0023458543D01*
X0054119588Y0023455120D01*
X0054119588Y0022235563D01*
X0058014251Y0022235563D01*
X0058014251Y0025505810D01*
X0057683440Y0025505810D01*
X0058190640Y0025682198D01*
X0058190640Y0022059174D01*
X0053943200Y0022059174D01*
X0053943200Y0023620501D01*
X0054043327Y0023622192D01*
X0054068717Y0023624762D01*
X0054092478Y0023629612D01*
X0054115295Y0023636693D01*
X0054137086Y0023645893D01*
X0054157746Y0023657102D01*
X0054177157Y0023670204D01*
X0054195189Y0023685079D01*
X0054211709Y0023701599D01*
X0054226584Y0023719632D01*
X0054239687Y0023739043D01*
X0054250895Y0023759703D01*
X0054260096Y0023781493D01*
X0054267177Y0023804310D01*
X0054272026Y0023828072D01*
X0054274596Y0023853461D01*
X0054274798Y0023865394D01*
X0054274596Y0023877328D01*
X0054272026Y0023902717D01*
X0054267177Y0023926479D01*
X0054260096Y0023949296D01*
X0054250895Y0023971086D01*
X0054239687Y0023991746D01*
X0054226584Y0024011157D01*
X0054211709Y0024029189D01*
X0054195189Y0024045709D01*
X0054177157Y0024060585D01*
X0054157746Y0024073687D01*
X0054137086Y0024084896D01*
X0054115295Y0024094096D01*
X0054092478Y0024101177D01*
X0054068717Y0024106026D01*
X0054043327Y0024108597D01*
X0053943200Y0024110288D01*
X0053943200Y0025682198D01*
X0054119588Y0024275669D01*
G37*
G36*
X0057683440Y0025505810D02*
G01*
X0054119588Y0025505810D01*
X0054119588Y0024275669D01*
X0053943200Y0025682198D01*
X0058190640Y0025682198D01*
G37*
%LPD*%
%LPD*%
G36*
X0065101554Y0018764234D02*
G01*
X0065277943Y0019335732D01*
X0065277943Y0018587845D01*
X0064455968Y0018587845D01*
X0064455968Y0019335732D01*
X0064632356Y0018764234D01*
G37*
G36*
X0064632356Y0019159343D02*
G01*
X0064632356Y0018764234D01*
X0064455968Y0019335732D01*
X0065277943Y0019335732D01*
X0065101554Y0018764234D01*
X0065101554Y0019159343D01*
G37*
%LPD*%
%LPD*%
G36*
X0066233966Y0018764234D02*
G01*
X0066410355Y0019335732D01*
X0066410355Y0018587845D01*
X0065588383Y0018587845D01*
X0065588383Y0019335732D01*
X0065764772Y0018764234D01*
G37*
G36*
X0065764772Y0019159343D02*
G01*
X0065764772Y0018764234D01*
X0065588383Y0019335732D01*
X0066410355Y0019335732D01*
X0066233966Y0018764234D01*
X0066233966Y0019159343D01*
G37*
%LPD*%
%LPD*%
G36*
X0062836712Y0018764234D02*
G01*
X0063013101Y0019335732D01*
X0063013101Y0018587845D01*
X0062191136Y0018587845D01*
X0062191136Y0019335732D01*
X0062367525Y0018764234D01*
G37*
G36*
X0062367525Y0019159343D02*
G01*
X0062367525Y0018764234D01*
X0062191136Y0019335732D01*
X0063013101Y0019335732D01*
X0062836712Y0018764234D01*
X0062836712Y0019159343D01*
G37*
%LPD*%
%LPD*%
G36*
X0063969135Y0018764234D02*
G01*
X0064145524Y0019335732D01*
X0064145524Y0018587845D01*
X0063323545Y0018587845D01*
X0063323545Y0019335732D01*
X0063499934Y0018764234D01*
G37*
G36*
X0063499934Y0019159343D02*
G01*
X0063499934Y0018764234D01*
X0063323545Y0019335732D01*
X0064145524Y0019335732D01*
X0063969135Y0018764234D01*
X0063969135Y0019159343D01*
G37*
%LPD*%
%LPD*%
G36*
X0060568360Y0018764234D02*
G01*
X0060744749Y0019335732D01*
X0060744749Y0018587845D01*
X0059922777Y0018587845D01*
X0059922777Y0019335732D01*
X0060099166Y0018764234D01*
G37*
G36*
X0060099166Y0019159343D02*
G01*
X0060099166Y0018764234D01*
X0059922777Y0019335732D01*
X0060744749Y0019335732D01*
X0060568360Y0018764234D01*
X0060568360Y0019159343D01*
G37*
%LPD*%
%LPD*%
G36*
X0061700783Y0018764234D02*
G01*
X0061877172Y0019335732D01*
X0061877172Y0018587845D01*
X0061055193Y0018587845D01*
X0061055193Y0019335732D01*
X0061231582Y0018764234D01*
G37*
G36*
X0061231582Y0019159343D02*
G01*
X0061231582Y0018764234D01*
X0061055193Y0019335732D01*
X0061877172Y0019335732D01*
X0061700783Y0018764234D01*
X0061700783Y0019159343D01*
G37*
%LPD*%
%LPD*%
G36*
X0058303529Y0018764234D02*
G01*
X0058479918Y0019335732D01*
X0058479918Y0018587845D01*
X0057657946Y0018587845D01*
X0057657946Y0019335732D01*
X0057834335Y0018764234D01*
G37*
G36*
X0057834335Y0019159343D02*
G01*
X0057834335Y0018764234D01*
X0057657946Y0019335732D01*
X0058479918Y0019335732D01*
X0058303529Y0018764234D01*
X0058303529Y0019159343D01*
G37*
%LPD*%
%LPD*%
G36*
X0059435945Y0018764234D02*
G01*
X0059612333Y0019335732D01*
X0059612333Y0018587845D01*
X0058790362Y0018587845D01*
X0058790362Y0019335732D01*
X0058966751Y0018764234D01*
G37*
G36*
X0058966751Y0019159343D02*
G01*
X0058966751Y0018764234D01*
X0058790362Y0019335732D01*
X0059612333Y0019335732D01*
X0059435945Y0018764234D01*
X0059435945Y0019159343D01*
G37*
%LPD*%
%LPD*%
G36*
X0056035170Y0018764234D02*
G01*
X0056211559Y0019335732D01*
X0056211559Y0018587845D01*
X0055389587Y0018587845D01*
X0055389587Y0019335732D01*
X0055565976Y0018764234D01*
G37*
G36*
X0055565976Y0019159343D02*
G01*
X0055565976Y0018764234D01*
X0055389587Y0019335732D01*
X0056211559Y0019335732D01*
X0056035170Y0018764234D01*
X0056035170Y0019159343D01*
G37*
%LPD*%
%LPD*%
G36*
X0057167586Y0018764234D02*
G01*
X0057343974Y0019335732D01*
X0057343974Y0018587845D01*
X0056522003Y0018587845D01*
X0056522003Y0019335732D01*
X0056698392Y0018764234D01*
G37*
G36*
X0056698392Y0019159343D02*
G01*
X0056698392Y0018764234D01*
X0056522003Y0019335732D01*
X0057343974Y0019335732D01*
X0057167586Y0018764234D01*
X0057167586Y0019159343D01*
G37*
%LPD*%
%LPD*%
G36*
X0053766811Y0018764234D02*
G01*
X0053943200Y0019335732D01*
X0053943200Y0018587845D01*
X0053121228Y0018587845D01*
X0053121228Y0019335732D01*
X0053297617Y0018764234D01*
G37*
G36*
X0053297617Y0019159343D02*
G01*
X0053297617Y0018764234D01*
X0053121228Y0019335732D01*
X0053943200Y0019335732D01*
X0053766811Y0018764234D01*
X0053766811Y0019159343D01*
G37*
%LPD*%
%LPD*%
G36*
X0054902754Y0018764234D02*
G01*
X0055079143Y0019335732D01*
X0055079143Y0018587845D01*
X0054257172Y0018587845D01*
X0054257172Y0019335732D01*
X0054433560Y0018764234D01*
G37*
G36*
X0054433560Y0019159343D02*
G01*
X0054433560Y0018764234D01*
X0054257172Y0019335732D01*
X0055079143Y0019335732D01*
X0054902754Y0018764234D01*
X0054902754Y0019159343D01*
G37*
%LPD*%
%LPD*%
G36*
X0051501980Y0018764234D02*
G01*
X0051678368Y0019335732D01*
X0051678368Y0018587845D01*
X0050856397Y0018587845D01*
X0050856397Y0019335732D01*
X0051032786Y0018764234D01*
G37*
G36*
X0051032786Y0019159343D02*
G01*
X0051032786Y0018764234D01*
X0050856397Y0019335732D01*
X0051678368Y0019335732D01*
X0051501980Y0018764234D01*
X0051501980Y0019159343D01*
G37*
%LPD*%
%LPD*%
G36*
X0052634395Y0018764234D02*
G01*
X0052810784Y0019335732D01*
X0052810784Y0018587845D01*
X0051988813Y0018587845D01*
X0051988813Y0019335732D01*
X0052165201Y0018764234D01*
G37*
G36*
X0052165201Y0019159343D02*
G01*
X0052165201Y0018764234D01*
X0051988813Y0019335732D01*
X0052810784Y0019335732D01*
X0052634395Y0018764234D01*
X0052634395Y0019159343D01*
G37*
%LPD*%
%LPD*%
G36*
X0049233621Y0018764234D02*
G01*
X0049410009Y0019335732D01*
X0049410009Y0018587845D01*
X0048588038Y0018587845D01*
X0048588038Y0019335732D01*
X0048764427Y0018764234D01*
G37*
G36*
X0048764427Y0019159343D02*
G01*
X0048764427Y0018764234D01*
X0048588038Y0019335732D01*
X0049410009Y0019335732D01*
X0049233621Y0018764234D01*
X0049233621Y0019159343D01*
G37*
%LPD*%
%LPD*%
G36*
X0050369564Y0018764234D02*
G01*
X0050545953Y0019335732D01*
X0050545953Y0018587845D01*
X0049723981Y0018587845D01*
X0049723981Y0019335732D01*
X0049900370Y0018764234D01*
G37*
G36*
X0049900370Y0019159343D02*
G01*
X0049900370Y0018764234D01*
X0049723981Y0019335732D01*
X0050545953Y0019335732D01*
X0050369564Y0018764234D01*
X0050369564Y0019159343D01*
G37*
%LPD*%
%LPD*%
G36*
X0046968790Y0018764234D02*
G01*
X0047145178Y0019335732D01*
X0047145178Y0018587845D01*
X0046323207Y0018587845D01*
X0046323207Y0019335732D01*
X0046499596Y0018764234D01*
G37*
G36*
X0046499596Y0019159343D02*
G01*
X0046499596Y0018764234D01*
X0046323207Y0019335732D01*
X0047145178Y0019335732D01*
X0046968790Y0018764234D01*
X0046968790Y0019159343D01*
G37*
%LPD*%
%LPD*%
G36*
X0048101205Y0018764234D02*
G01*
X0048277594Y0019335732D01*
X0048277594Y0018587845D01*
X0047455622Y0018587845D01*
X0047455622Y0019335732D01*
X0047632011Y0018764234D01*
G37*
G36*
X0047632011Y0019159343D02*
G01*
X0047632011Y0018764234D01*
X0047455622Y0019335732D01*
X0048277594Y0019335732D01*
X0048101205Y0018764234D01*
X0048101205Y0019159343D01*
G37*
%LPD*%
%LPD*%
G36*
X0033718472Y0019931926D02*
G01*
X0033894861Y0022055648D01*
X0033894861Y0019755537D01*
X0031171415Y0019755537D01*
X0031171415Y0022055648D01*
X0031347804Y0019931926D01*
G37*
G36*
X0031347804Y0021879259D02*
G01*
X0031347804Y0019931926D01*
X0031171415Y0022055648D01*
X0033894861Y0022055648D01*
X0033718472Y0019931926D01*
X0033718472Y0021879259D01*
G37*
%LPD*%
%LPD*%
G36*
X0059600886Y0031796988D02*
G01*
X0059640411Y0031784722D01*
X0059678152Y0031768787D01*
X0059713881Y0031749403D01*
X0059747387Y0031726787D01*
X0059778468Y0031701148D01*
X0059806927Y0031672689D01*
X0059832566Y0031641608D01*
X0059855182Y0031608102D01*
X0059874566Y0031572373D01*
X0059890501Y0031534632D01*
X0059902768Y0031495107D01*
X0059911148Y0031454045D01*
X0059915357Y0031412462D01*
X0059915735Y0031390137D01*
X0059915357Y0031367813D01*
X0059911148Y0031326229D01*
X0059902768Y0031285168D01*
X0059890501Y0031245643D01*
X0059874566Y0031207902D01*
X0059855182Y0031172173D01*
X0059832566Y0031138667D01*
X0059806927Y0031107586D01*
X0059778468Y0031079127D01*
X0059747387Y0031053488D01*
X0059713881Y0031030872D01*
X0059678152Y0031011488D01*
X0059640411Y0030995553D01*
X0059600886Y0030983286D01*
X0059584111Y0030979863D01*
X0059584111Y0029760305D01*
X0063478774Y0029760305D01*
X0063478774Y0033030553D01*
X0063147962Y0033030553D01*
X0063655163Y0033206941D01*
X0063655163Y0029583916D01*
X0059407722Y0029583916D01*
X0059407722Y0031145244D01*
X0059507850Y0031146935D01*
X0059533239Y0031149505D01*
X0059557001Y0031154355D01*
X0059579818Y0031161436D01*
X0059601608Y0031170636D01*
X0059622268Y0031181845D01*
X0059641679Y0031194947D01*
X0059659712Y0031209822D01*
X0059676232Y0031226342D01*
X0059691107Y0031244375D01*
X0059704209Y0031263786D01*
X0059715418Y0031284446D01*
X0059724618Y0031306236D01*
X0059731699Y0031329053D01*
X0059736549Y0031352815D01*
X0059739119Y0031378204D01*
X0059739321Y0031390137D01*
X0059739119Y0031402071D01*
X0059736549Y0031427460D01*
X0059731699Y0031451222D01*
X0059724618Y0031474039D01*
X0059715418Y0031495829D01*
X0059704209Y0031516489D01*
X0059691107Y0031535900D01*
X0059676232Y0031553932D01*
X0059659712Y0031570452D01*
X0059641679Y0031585328D01*
X0059622268Y0031598430D01*
X0059601608Y0031609639D01*
X0059579818Y0031618839D01*
X0059557001Y0031625920D01*
X0059533239Y0031630769D01*
X0059507850Y0031633340D01*
X0059407722Y0031635031D01*
X0059407722Y0033206941D01*
X0059584111Y0031800412D01*
G37*
G36*
X0063147962Y0033030553D02*
G01*
X0059584111Y0033030553D01*
X0059584111Y0031800412D01*
X0059407722Y0033206941D01*
X0063655163Y0033206941D01*
G37*
%LPD*%
%LPD*%
G36*
X0033051719Y0018041039D02*
G01*
X0033228108Y0019039399D01*
X0033228108Y0017864650D01*
X0032480220Y0017864650D01*
X0032480220Y0019039399D01*
X0032656608Y0018041039D01*
G37*
G36*
X0032656608Y0018863010D02*
G01*
X0032656608Y0018041039D01*
X0032480220Y0019039399D01*
X0033228108Y0019039399D01*
X0033051719Y0018041039D01*
X0033051719Y0018863010D01*
G37*
%LPD*%
%LPD*%
G36*
X0044781569Y0021561760D02*
G01*
X0044957958Y0023946533D01*
X0044957958Y0021385371D01*
X0041927600Y0021385371D01*
X0041927600Y0023946533D01*
X0042103989Y0021561760D01*
G37*
G36*
X0042103989Y0023770145D02*
G01*
X0042103989Y0021561760D01*
X0041927600Y0023946533D01*
X0044957958Y0023946533D01*
X0044781569Y0021561760D01*
X0044781569Y0023770145D01*
G37*
%LPD*%
%LPD*%
G36*
X0041663017Y0019837929D02*
G01*
X0041663017Y0020604633D01*
X0041750444Y0020914668D01*
X0041839405Y0020825706D01*
X0041839405Y0019764867D01*
X0041434965Y0019360426D01*
X0038424520Y0019360426D01*
X0038424520Y0021230147D01*
X0038600908Y0019536814D01*
X0041361902Y0019536814D01*
G37*
G36*
X0041750444Y0020914668D02*
G01*
X0041663017Y0020604633D01*
X0041663017Y0020752644D01*
X0041361902Y0021053758D01*
X0038600908Y0021053758D01*
X0038600908Y0019536814D01*
X0038424520Y0021230147D01*
X0041434965Y0021230147D01*
G37*
%LPD*%
%LPD*%
G36*
X0040375381Y0018041039D02*
G01*
X0040551770Y0019039399D01*
X0040551770Y0017864650D01*
X0039803880Y0017864650D01*
X0039803880Y0019039399D01*
X0039980268Y0018041039D01*
G37*
G36*
X0039980268Y0018863010D02*
G01*
X0039980268Y0018041039D01*
X0039803880Y0019039399D01*
X0040551770Y0019039399D01*
X0040375381Y0018041039D01*
X0040375381Y0018863010D01*
G37*
%LPD*%
%LPD*%
G36*
X0043776157Y0018041039D02*
G01*
X0043952546Y0019039399D01*
X0043952546Y0017864650D01*
X0043204654Y0017864650D01*
X0043204654Y0019039399D01*
X0043381043Y0018041039D01*
G37*
G36*
X0043381043Y0018863010D02*
G01*
X0043381043Y0018041039D01*
X0043204654Y0019039399D01*
X0043952546Y0019039399D01*
X0043776157Y0018041039D01*
X0043776157Y0018863010D01*
G37*
%LPD*%
%LPD*%
G36*
X0042412158Y0019536814D02*
G01*
X0045173152Y0019536814D01*
X0045173152Y0021053758D01*
X0042412158Y0021053758D01*
X0045349541Y0021230147D01*
X0045349541Y0019360426D01*
X0042339096Y0019360426D01*
X0041934655Y0019764867D01*
X0041934655Y0020825706D01*
X0042043754Y0020934805D01*
X0042111044Y0020752644D01*
X0042111044Y0019837929D01*
G37*
G36*
X0042412158Y0021053758D02*
G01*
X0042111044Y0020752644D01*
X0042043754Y0020934805D01*
X0042339096Y0021230147D01*
X0045349541Y0021230147D01*
G37*
%LPD*%
%LPD*%
G36*
X0056130420Y0028779584D02*
G01*
X0056306809Y0036127939D01*
X0056306809Y0028603195D01*
X0047191039Y0028603195D01*
X0047191039Y0036127939D01*
X0047367428Y0028779584D01*
G37*
G36*
X0047367428Y0035951550D02*
G01*
X0047367428Y0028779584D01*
X0047191039Y0036127939D01*
X0056306809Y0036127939D01*
X0056130420Y0028779584D01*
X0056130420Y0035951550D01*
G37*
%LPD*%
%LPD*%
G36*
X0033415080Y0030776304D02*
G01*
X0033591469Y0034603940D01*
X0033591469Y0030599915D01*
X0031323113Y0030599915D01*
X0031323113Y0034603940D01*
X0031499502Y0030776304D01*
G37*
G36*
X0031499502Y0034427551D02*
G01*
X0031499502Y0030776304D01*
X0031323113Y0034603940D01*
X0033591469Y0034603940D01*
X0033415080Y0030776304D01*
X0033415080Y0034427551D01*
G37*
%LPD*%
%LPD*%
G36*
X0072531040Y0018051622D02*
G01*
X0072707429Y0018697204D01*
X0072707429Y0017875233D01*
X0071959544Y0017875233D01*
X0071959544Y0018697204D01*
X0072135933Y0018051622D01*
G37*
G36*
X0072135933Y0018520815D02*
G01*
X0072135933Y0018051622D01*
X0071959544Y0018697204D01*
X0072707429Y0018697204D01*
X0072531040Y0018051622D01*
X0072531040Y0018520815D01*
G37*
%LPD*%
%LPD*%
G36*
X0075226260Y0018051622D02*
G01*
X0075402648Y0018697204D01*
X0075402648Y0017875233D01*
X0074654767Y0017875233D01*
X0074654767Y0018697204D01*
X0074831156Y0018051622D01*
G37*
G36*
X0074831156Y0018520815D02*
G01*
X0074831156Y0018051622D01*
X0074654767Y0018697204D01*
X0075402648Y0018697204D01*
X0075226260Y0018051622D01*
X0075226260Y0018520815D01*
G37*
%LPD*%
G36*
X0083587089Y0018728955D02*
G01*
X0082941502Y0018728955D01*
X0083259009Y0019265176D01*
G37*
%LPD*%
X0083259009Y0019265176D02*
G01*
X0083587089Y0018728955D01*
X0082941502Y0018728955D01*
X0083259009Y0019265176D01*
%LPD*%
%LPD*%
G36*
X0045931624Y0026902808D02*
G01*
X0045215486Y0026902808D01*
X0045215486Y0027079197D01*
X0045931624Y0027079197D01*
G37*
%LPD*%
%LPD*%
G36*
X0045931624Y0028864251D02*
G01*
X0045215486Y0028864251D01*
X0045215486Y0029040640D01*
X0045931624Y0029040640D01*
G37*
%LPD*%
%LPD*%
G36*
X0045931624Y0030836277D02*
G01*
X0045215486Y0030836277D01*
X0045215486Y0031012666D01*
X0045931624Y0031012666D01*
G37*
%LPD*%
%LPD*%
G36*
X0045931624Y0024754394D02*
G01*
X0045215486Y0024754394D01*
X0045215486Y0024930782D01*
X0045931624Y0024930782D01*
G37*
%LPD*%
%LPD*%
G36*
X0045931624Y0022577757D02*
G01*
X0045215486Y0022577757D01*
X0045215486Y0022754145D01*
X0045931624Y0022754145D01*
G37*
%LPD*%
%LPD*%
G36*
X0039207689Y0022577757D02*
G01*
X0038491544Y0022577757D01*
X0038491544Y0022754145D01*
X0039207689Y0022754145D01*
G37*
%LPD*%
%LPD*%
G36*
X0040266018Y0022577757D02*
G01*
X0039549880Y0022577757D01*
X0039549880Y0022754145D01*
X0040266018Y0022754145D01*
G37*
%LPD*%
%LPD*%
G36*
X0041677128Y0022577757D02*
G01*
X0040960990Y0022577757D01*
X0040960990Y0022754145D01*
X0041677128Y0022754145D01*
G37*
%LPD*%
%LPD*%
G36*
X0070745990Y0018587845D02*
G01*
X0070033386Y0018587845D01*
X0070033386Y0018764234D01*
X0070745990Y0018764234D01*
G37*
%LPD*%
%LPD*%
G36*
X0069687650Y0018587845D02*
G01*
X0068975047Y0018587845D01*
X0068975047Y0018764234D01*
X0069687650Y0018764234D01*
G37*
%LPD*%
%LPD*%
G36*
X0036868771Y0022824701D02*
G01*
X0036692382Y0022824701D01*
X0036692382Y0023540839D01*
X0036868771Y0023540839D01*
G37*
%LPD*%
%LPD*%
G36*
X0034720357Y0022824701D02*
G01*
X0034543968Y0022824701D01*
X0034543968Y0023540839D01*
X0034720357Y0023540839D01*
G37*
%LPD*%
%LPD*%
G36*
X0034720357Y0024006505D02*
G01*
X0034543968Y0024006505D01*
X0034543968Y0024722644D01*
X0034720357Y0024722644D01*
G37*
%LPD*%
%LPD*%
G36*
X0032568414Y0022824701D02*
G01*
X0032392025Y0022824701D01*
X0032392025Y0023540839D01*
X0032568414Y0023540839D01*
G37*
%LPD*%
%LPD*%
G36*
X0032568414Y0024017089D02*
G01*
X0032392025Y0024017089D01*
X0032392025Y0024733227D01*
X0032568414Y0024733227D01*
G37*
%LPD*%
%LPD*%
G36*
X0034752106Y0028328028D02*
G01*
X0034575718Y0028328028D01*
X0034575718Y0029044167D01*
X0034752106Y0029044167D01*
G37*
%LPD*%
%LPD*%
G36*
X0034752106Y0029386361D02*
G01*
X0034575718Y0029386361D01*
X0034575718Y0030102500D01*
X0034752106Y0030102500D01*
G37*
%LPD*%
%LPD*%
G36*
X0034752106Y0030444694D02*
G01*
X0034575718Y0030444694D01*
X0034575718Y0031160832D01*
X0034752106Y0031160832D01*
G37*
%LPD*%
%LPD*%
G36*
X0034752106Y0031503026D02*
G01*
X0034575718Y0031503026D01*
X0034575718Y0032219164D01*
X0034752106Y0032219164D01*
G37*
%LPD*%
%LPD*%
G36*
X0032603688Y0028328028D02*
G01*
X0032427300Y0028328028D01*
X0032427300Y0029044167D01*
X0032603688Y0029044167D01*
G37*
%LPD*%
%LPD*%
G36*
X0032603688Y0029386361D02*
G01*
X0032427300Y0029386361D01*
X0032427300Y0030102500D01*
X0032603688Y0030102500D01*
G37*
%LPD*%
%LPD*%
G36*
X0034752106Y0034678023D02*
G01*
X0034575718Y0034678023D01*
X0034575718Y0035394161D01*
X0034752106Y0035394161D01*
G37*
%LPD*%
%LPD*%
G36*
X0034752106Y0033619691D02*
G01*
X0034575718Y0033619691D01*
X0034575718Y0034335829D01*
X0034752106Y0034335829D01*
G37*
%LPD*%
%LPD*%
G36*
X0034752106Y0032561359D02*
G01*
X0034575718Y0032561359D01*
X0034575718Y0033277497D01*
X0034752106Y0033277497D01*
G37*
%LPD*%
%LPD*%
G36*
X0036868771Y0034678023D02*
G01*
X0036692382Y0034678023D01*
X0036692382Y0035394161D01*
X0036868771Y0035394161D01*
G37*
%LPD*%
%LPD*%
G36*
X0038981912Y0034678023D02*
G01*
X0038805523Y0034678023D01*
X0038805523Y0035394161D01*
X0038981912Y0035394161D01*
G37*
%LPD*%
%LPD*%
G36*
X0041095045Y0034678023D02*
G01*
X0040918656Y0034678023D01*
X0040918656Y0035394161D01*
X0041095045Y0035394161D01*
G37*
%LPD*%
%LPD*%
G36*
X0043211710Y0034678023D02*
G01*
X0043035321Y0034678023D01*
X0043035321Y0035394161D01*
X0043211710Y0035394161D01*
G37*
%LPD*%
%LPD*%
G36*
X0045324847Y0034678023D02*
G01*
X0045148458Y0034678023D01*
X0045148458Y0035394161D01*
X0045324847Y0035394161D01*
G37*
%LPD*%
%LPD*%
G36*
X0036868771Y0033619691D02*
G01*
X0036692382Y0033619691D01*
X0036692382Y0034335829D01*
X0036868771Y0034335829D01*
G37*
%LPD*%
%LPD*%
G36*
X0038981912Y0033619691D02*
G01*
X0038805523Y0033619691D01*
X0038805523Y0034335829D01*
X0038981912Y0034335829D01*
G37*
%LPD*%
%LPD*%
G36*
X0041095045Y0033619691D02*
G01*
X0040918656Y0033619691D01*
X0040918656Y0034335829D01*
X0041095045Y0034335829D01*
G37*
%LPD*%
%LPD*%
G36*
X0043211710Y0033619691D02*
G01*
X0043035321Y0033619691D01*
X0043035321Y0034335829D01*
X0043211710Y0034335829D01*
G37*
%LPD*%
%LPD*%
G36*
X0045324847Y0033619691D02*
G01*
X0045148458Y0033619691D01*
X0045148458Y0034335829D01*
X0045324847Y0034335829D01*
G37*
%LPD*%
%LPD*%
G36*
X0058053057Y0033813719D02*
G01*
X0057876668Y0033813719D01*
X0057876668Y0034529857D01*
X0058053057Y0034529857D01*
G37*
%LPD*%
%LPD*%
G36*
X0058053057Y0032783608D02*
G01*
X0057876668Y0032783608D01*
X0057876668Y0033499747D01*
X0058053057Y0033499747D01*
G37*
%LPD*%
%LPD*%
G36*
X0058053057Y0031428943D02*
G01*
X0057876668Y0031428943D01*
X0057876668Y0032145081D01*
X0058053057Y0032145081D01*
G37*
%LPD*%
%LPD*%
G36*
X0058053057Y0030106027D02*
G01*
X0057876668Y0030106027D01*
X0057876668Y0030822166D01*
X0058053057Y0030822166D01*
G37*
%LPD*%
%LPD*%
G36*
X0058053057Y0029047695D02*
G01*
X0057876668Y0029047695D01*
X0057876668Y0029763833D01*
X0058053057Y0029763833D01*
G37*
%LPD*%
%LPD*%
G36*
X0058053057Y0027989363D02*
G01*
X0057876668Y0027989363D01*
X0057876668Y0028705501D01*
X0058053057Y0028705501D01*
G37*
%LPD*%
%LPD*%
G36*
X0065207377Y0032822414D02*
G01*
X0065030988Y0032822414D01*
X0065030988Y0033538552D01*
X0065207377Y0033538552D01*
G37*
%LPD*%
%LPD*%
G36*
X0065207377Y0031164360D02*
G01*
X0065030988Y0031164360D01*
X0065030988Y0031880498D01*
X0065207377Y0031880498D01*
G37*
%LPD*%
%LPD*%
G36*
X0065207377Y0030106027D02*
G01*
X0065030988Y0030106027D01*
X0065030988Y0030822166D01*
X0065207377Y0030822166D01*
G37*
%LPD*%
%LPD*%
G36*
X0065207377Y0029047695D02*
G01*
X0065030988Y0029047695D01*
X0065030988Y0029763833D01*
X0065207377Y0029763833D01*
G37*
%LPD*%
%LPD*%
G36*
X0065207377Y0027989363D02*
G01*
X0065030988Y0027989363D01*
X0065030988Y0028705501D01*
X0065207377Y0028705501D01*
G37*
%LPD*%
%LPD*%
G36*
X0080595536Y0018386759D02*
G01*
X0080419147Y0018386759D01*
X0080419147Y0019102900D01*
X0080595536Y0019102900D01*
G37*
%LPD*%
G36*
X0016280679Y0014629681D02*
G01*
X0014280431Y0013627793D01*
X0014280431Y0015628041D01*
G37*
%LPD*%
%LPD*%
G36*
X0084225616Y0001361721D02*
G01*
X0084402005Y0017473067D01*
X0084402005Y0001185332D01*
X0001693332Y0001185332D01*
X0001693332Y0017473067D01*
X0001869720Y0001361721D01*
G37*
G36*
X0001869720Y0017296678D02*
G01*
X0001869720Y0001361721D01*
X0001693332Y0017473067D01*
X0084402005Y0017473067D01*
X0084225616Y0001361721D01*
X0084225616Y0017296678D01*
G37*
%LPD*%
G36*
X0068374277Y0004017887D02*
G01*
X0068419917Y0004014910D01*
X0068463573Y0004008957D01*
X0068505245Y0004000027D01*
X0068544933Y0003988121D01*
X0068582636Y0003973238D01*
X0068618355Y0003955379D01*
X0068652090Y0003934543D01*
X0068668130Y0003922885D01*
X0068683812Y0003910759D01*
X0068713247Y0003884321D01*
X0068740367Y0003855300D01*
X0068765172Y0003823736D01*
X0068787661Y0003789671D01*
X0068807836Y0003753147D01*
X0068825695Y0003714204D01*
X0068841239Y0003672885D01*
X0068848047Y0003651250D01*
X0068682242Y0003612441D01*
X0068676839Y0003629446D01*
X0068664932Y0003661527D01*
X0068651703Y0003691292D01*
X0068637151Y0003718743D01*
X0068621277Y0003743878D01*
X0068604081Y0003766697D01*
X0068585562Y0003787202D01*
X0068565720Y0003805391D01*
X0068555249Y0003813521D01*
X0068544554Y0003821293D01*
X0068522062Y0003835184D01*
X0068498247Y0003847091D01*
X0068473110Y0003857014D01*
X0068446650Y0003864952D01*
X0068418867Y0003870907D01*
X0068389762Y0003874876D01*
X0068359334Y0003876861D01*
X0068343568Y0003877026D01*
X0068325820Y0003876833D01*
X0068291425Y0003874539D01*
X0068258352Y0003869991D01*
X0068226602Y0003863232D01*
X0068196176Y0003854302D01*
X0068167072Y0003843243D01*
X0068139292Y0003830097D01*
X0068112835Y0003814905D01*
X0068100159Y0003806472D01*
X0068087756Y0003797735D01*
X0068064605Y0003778903D01*
X0068043439Y0003758480D01*
X0068024256Y0003736506D01*
X0068007059Y0003713024D01*
X0067991845Y0003688075D01*
X0067978616Y0003661699D01*
X0067967371Y0003633938D01*
X0067962576Y0003619497D01*
X0067953645Y0003590282D01*
X0067939258Y0003530750D01*
X0067929336Y0003469896D01*
X0067924211Y0003407720D01*
X0067923770Y0003376080D01*
X0067923880Y0003356319D01*
X0067925224Y0003317645D01*
X0067927952Y0003280024D01*
X0067932106Y0003243499D01*
X0067937728Y0003208112D01*
X0067944859Y0003173902D01*
X0067953541Y0003140912D01*
X0067963815Y0003109183D01*
X0067969631Y0003093860D01*
X0067975722Y0003078812D01*
X0067989261Y0003050368D01*
X0068004392Y0003023910D01*
X0068021073Y0002999435D01*
X0068039263Y0002976945D01*
X0068058920Y0002956440D01*
X0068080003Y0002937919D01*
X0068102471Y0002921382D01*
X0068114266Y0002913940D01*
X0068126256Y0002906802D01*
X0068151020Y0002893925D01*
X0068176652Y0002882763D01*
X0068203069Y0002873358D01*
X0068230189Y0002865752D01*
X0068257928Y0002859985D01*
X0068286206Y0002856099D01*
X0068314939Y0002854135D01*
X0068329464Y0002853970D01*
X0068346579Y0002854190D01*
X0068379942Y0002856815D01*
X0068412188Y0002862024D01*
X0068443235Y0002869776D01*
X0068473000Y0002880029D01*
X0068501401Y0002892742D01*
X0068528354Y0002907873D01*
X0068553778Y0002925382D01*
X0068565821Y0002935112D01*
X0068579492Y0002945254D01*
X0068604649Y0002967721D01*
X0068627222Y0002992773D01*
X0068647253Y0003020368D01*
X0068664781Y0003050464D01*
X0068679851Y0003083020D01*
X0068692501Y0003117995D01*
X0068702774Y0003155346D01*
X0068706936Y0003174997D01*
X0068872741Y0003132664D01*
X0068865906Y0003107115D01*
X0068850031Y0003058518D01*
X0068831510Y0003012960D01*
X0068810344Y0002970482D01*
X0068786531Y0002931125D01*
X0068760073Y0002894931D01*
X0068730969Y0002861941D01*
X0068699219Y0002832196D01*
X0068682242Y0002818692D01*
X0068664906Y0002805711D01*
X0068628814Y0002782271D01*
X0068590945Y0002761931D01*
X0068551215Y0002744775D01*
X0068509543Y0002730885D01*
X0068465845Y0002720344D01*
X0068420040Y0002713234D01*
X0068372044Y0002709637D01*
X0068347103Y0002709334D01*
X0068321527Y0002709555D01*
X0068272558Y0002712200D01*
X0068226173Y0002717492D01*
X0068182331Y0002725428D01*
X0068140990Y0002736011D01*
X0068102109Y0002749240D01*
X0068065646Y0002765114D01*
X0068031560Y0002783635D01*
X0068015492Y0002793997D01*
X0067999755Y0002804746D01*
X0067969700Y0002827938D01*
X0067941423Y0002853239D01*
X0067915006Y0002880731D01*
X0067890532Y0002910497D01*
X0067868084Y0002942619D01*
X0067847744Y0002977180D01*
X0067829595Y0003014263D01*
X0067821465Y0003033886D01*
X0067813059Y0003053785D01*
X0067798155Y0003094134D01*
X0067785505Y0003135144D01*
X0067775067Y0003176816D01*
X0067766800Y0003219149D01*
X0067760661Y0003262144D01*
X0067756610Y0003305800D01*
X0067754606Y0003350118D01*
X0067754440Y0003372552D01*
X0067754633Y0003396916D01*
X0067756948Y0003444520D01*
X0067761578Y0003490740D01*
X0067768522Y0003535533D01*
X0067777782Y0003578859D01*
X0067789357Y0003620676D01*
X0067803247Y0003660943D01*
X0067819453Y0003699619D01*
X0067828520Y0003718278D01*
X0067837946Y0003736605D01*
X0067858472Y0003771331D01*
X0067881044Y0003803741D01*
X0067905704Y0003833837D01*
X0067932493Y0003861618D01*
X0067961452Y0003887084D01*
X0067992624Y0003910235D01*
X0068026048Y0003931071D01*
X0068043714Y0003940524D01*
X0068060995Y0003949620D01*
X0068096383Y0003966115D01*
X0068132763Y0003980502D01*
X0068170135Y0003992697D01*
X0068208500Y0004002619D01*
X0068247857Y0004010184D01*
X0068288206Y0004015310D01*
X0068329547Y0004017915D01*
X0068350631Y0004018135D01*
G37*
%LPD*%
G36*
X0069998094Y0003848802D02*
G01*
X0069253741Y0003848802D01*
X0069253741Y0003460747D01*
X0069952244Y0003460747D01*
X0069952244Y0003312580D01*
X0069253741Y0003312580D01*
X0069253741Y0002882192D01*
X0070029851Y0002882192D01*
X0070029851Y0002734022D01*
X0069084408Y0002734022D01*
X0069084408Y0003996968D01*
X0069998094Y0003996968D01*
G37*
%LPD*%
G36*
X0071091711Y0003005660D02*
G01*
X0071091711Y0003996968D01*
X0071250458Y0003996968D01*
X0071250458Y0002734022D01*
X0071077593Y0002734022D01*
X0070414379Y0003725330D01*
X0070414379Y0002734022D01*
X0070255629Y0002734022D01*
X0070255629Y0003996968D01*
X0070428490Y0003996968D01*
G37*
%LPD*%
G36*
X0072439321Y0003848802D02*
G01*
X0072023044Y0003848802D01*
X0072023044Y0002734022D01*
X0071853711Y0002734022D01*
X0071853711Y0003848802D01*
X0071437433Y0003848802D01*
X0071437433Y0003996968D01*
X0072439321Y0003996968D01*
G37*
%LPD*%
G36*
X0073166263Y0003439801D02*
G01*
X0073217028Y0003442612D01*
X0073261345Y0003448565D01*
X0073300206Y0003457991D01*
X0073317737Y0003464275D01*
X0073325591Y0003467031D01*
X0073340493Y0003473583D01*
X0073361225Y0003485386D01*
X0073385700Y0003504568D01*
X0073407034Y0003526562D01*
X0073416515Y0003538358D01*
X0073424232Y0003551697D01*
X0073437130Y0003579313D01*
X0073446391Y0003607757D01*
X0073451352Y0003636697D01*
X0073451793Y0003651250D01*
X0073451627Y0003662412D01*
X0073449643Y0003683908D01*
X0073445674Y0003704412D01*
X0073439721Y0003723925D01*
X0073439329Y0003724840D01*
X0073568403Y0003846957D01*
X0073571744Y0003841746D01*
X0073578220Y0003831108D01*
X0073589793Y0003809280D01*
X0073599714Y0003786790D01*
X0073607982Y0003763640D01*
X0073614597Y0003739827D01*
X0073619558Y0003715354D01*
X0073622865Y0003690219D01*
X0073624519Y0003664424D01*
X0073624657Y0003651250D01*
X0073624437Y0003634796D01*
X0073621770Y0003602757D01*
X0073616395Y0003571833D01*
X0073608271Y0003542108D01*
X0073597357Y0003513665D01*
X0073583611Y0003486586D01*
X0073566992Y0003460954D01*
X0073547459Y0003436852D01*
X0073536463Y0003425469D01*
X0073524997Y0003414362D01*
X0073499840Y0003393588D01*
X0073471975Y0003374654D01*
X0073441361Y0003357683D01*
X0073407957Y0003342801D01*
X0073371721Y0003330130D01*
X0073332611Y0003319794D01*
X0073290587Y0003311919D01*
X0073268345Y0003309052D01*
X0073284002Y0003301115D01*
X0073312942Y0003285240D01*
X0073338739Y0003269365D01*
X0073361063Y0003253490D01*
X0073370654Y0003245553D01*
X0073389064Y0003228024D01*
X0073424783Y0003189659D01*
X0073459179Y0003147326D01*
X0073492252Y0003101024D01*
X0073508237Y0003076219D01*
X0073726959Y0002734022D01*
X0073515293Y0002734022D01*
X0073349487Y0002995081D01*
X0073313768Y0003048879D01*
X0073268293Y0003116017D01*
X0073241670Y0003152728D01*
X0073229543Y0003167941D01*
X0073217747Y0003182163D01*
X0073195259Y0003207299D01*
X0073174094Y0003228465D01*
X0073154249Y0003245663D01*
X0073144876Y0003252608D01*
X0073135616Y0003259002D01*
X0073117095Y0003269751D01*
X0073098574Y0003278350D01*
X0073080053Y0003285130D01*
X0073070793Y0003287886D01*
X0073055800Y0003290534D01*
X0073009498Y0003294502D01*
X0072979071Y0003294943D01*
X0072785043Y0003294943D01*
X0072785043Y0002734022D01*
X0072612182Y0002734022D01*
X0072612182Y0003996968D01*
X0072785043Y0003439580D01*
X0073137821Y0003439580D01*
G37*
%LPD*%
G36*
X0073214552Y0003996638D02*
G01*
X0073270878Y0003993806D01*
X0073305460Y0003990643D01*
X0073337540Y0003986343D01*
X0073367161Y0003980866D01*
X0073394363Y0003974168D01*
X0073419188Y0003966210D01*
X0073430626Y0003961691D01*
X0073441761Y0003956950D01*
X0073462948Y0003946346D01*
X0073482875Y0003934357D01*
X0073501583Y0003920942D01*
X0073519112Y0003906059D01*
X0073535505Y0003889667D01*
X0073550803Y0003871725D01*
X0073565046Y0003852192D01*
X0073568403Y0003846957D01*
X0073439329Y0003724840D01*
X0073431784Y0003742445D01*
X0073421862Y0003759974D01*
X0073409955Y0003776510D01*
X0073396065Y0003792054D01*
X0073388293Y0003799413D01*
X0073380135Y0003806524D01*
X0073361655Y0003819112D01*
X0073340654Y0003829777D01*
X0073317213Y0003838562D01*
X0073291415Y0003845506D01*
X0073263344Y0003850653D01*
X0073233081Y0003854042D01*
X0073200708Y0003855716D01*
X0073183675Y0003855854D01*
X0072785043Y0003855854D01*
X0072785043Y0003439580D01*
X0072612182Y0003996968D01*
X0073173102Y0003996968D01*
G37*
%LPD*%
G36*
X0074293345Y0003854605D02*
G01*
X0074255312Y0003839722D01*
X0074218704Y0003821014D01*
X0074183399Y0003798442D01*
X0074149272Y0003771963D01*
X0074132653Y0003757080D01*
X0074124798Y0003748722D01*
X0074109915Y0003731103D01*
X0074096025Y0003712386D01*
X0074083126Y0003692555D01*
X0074071220Y0003671595D01*
X0074060306Y0003649490D01*
X0074050384Y0003626226D01*
X0074041455Y0003601785D01*
X0074029796Y0003563038D01*
X0074017890Y0003506917D01*
X0074009953Y0003445814D01*
X0074005984Y0003379605D01*
X0074005653Y0003344327D01*
X0074005984Y0003316133D01*
X0074009932Y0003262225D01*
X0074017787Y0003211293D01*
X0074029507Y0003163337D01*
X0074045051Y0003118358D01*
X0074064378Y0003076355D01*
X0074087447Y0003037330D01*
X0074114215Y0003001281D01*
X0074129125Y0002984497D01*
X0074144504Y0002968319D01*
X0074176914Y0002939525D01*
X0074211310Y0002914968D01*
X0074247690Y0002894608D01*
X0074286055Y0002878402D01*
X0074326404Y0002866310D01*
X0074368738Y0002858290D01*
X0074413056Y0002854300D01*
X0074436042Y0002853970D01*
X0074459662Y0002854328D01*
X0074504994Y0002858607D01*
X0074548072Y0002867123D01*
X0074588938Y0002879835D01*
X0074627632Y0002896702D01*
X0074664198Y0002917683D01*
X0074698675Y0002942736D01*
X0074731107Y0002971819D01*
X0074746486Y0002988025D01*
X0074761397Y0003004865D01*
X0074788167Y0003041555D01*
X0074811236Y0003081821D01*
X0074830563Y0003125621D01*
X0074846106Y0003172915D01*
X0074857826Y0003223662D01*
X0074865680Y0003277819D01*
X0074869627Y0003335345D01*
X0074869958Y0003365497D01*
X0074869820Y0003384596D01*
X0074868167Y0003421927D01*
X0074864859Y0003458142D01*
X0074859898Y0003493158D01*
X0074853284Y0003526893D01*
X0074845016Y0003559263D01*
X0074835094Y0003590186D01*
X0074823518Y0003619579D01*
X0074817041Y0003633608D01*
X0074810317Y0003648022D01*
X0074795744Y0003675472D01*
X0074779786Y0003701269D01*
X0074762402Y0003725412D01*
X0074743551Y0003747901D01*
X0074723190Y0003768737D01*
X0074701279Y0003787918D01*
X0074677777Y0003805446D01*
X0074665347Y0003813521D01*
X0074652724Y0003821293D01*
X0074626906Y0003835184D01*
X0074600364Y0003847091D01*
X0074573057Y0003857014D01*
X0074544944Y0003864952D01*
X0074515983Y0003870907D01*
X0074486134Y0003874876D01*
X0074455355Y0003876861D01*
X0074439562Y0003877026D01*
X0074417239Y0003876723D01*
X0074729517Y0003947313D01*
X0074736227Y0003943832D01*
X0074753534Y0003933469D01*
X0074771202Y0003922720D01*
X0074804628Y0003899570D01*
X0074835801Y0003874434D01*
X0074864762Y0003847314D01*
X0074891552Y0003818210D01*
X0074916213Y0003787120D01*
X0074938786Y0003754046D01*
X0074959313Y0003718988D01*
X0074968739Y0003700632D01*
X0074977805Y0003682001D01*
X0074994008Y0003643638D01*
X0075007897Y0003603951D01*
X0075019473Y0003562942D01*
X0075028733Y0003520609D01*
X0075035679Y0003476954D01*
X0075040310Y0003431975D01*
X0075042626Y0003385674D01*
X0075042819Y0003361973D01*
X0075042626Y0003338242D01*
X0075040290Y0003291649D01*
X0075035576Y0003246173D01*
X0075028444Y0003201896D01*
X0075018853Y0003158900D01*
X0075006762Y0003117270D01*
X0074992129Y0003077086D01*
X0074974914Y0003038433D01*
X0074965215Y0003019775D01*
X0074955154Y0003001419D01*
X0074933613Y0002966383D01*
X0074910294Y0002933393D01*
X0074885115Y0002902490D01*
X0074857994Y0002873717D01*
X0074828848Y0002847114D01*
X0074797595Y0002822723D01*
X0074764151Y0002800584D01*
X0074746486Y0002790470D01*
X0074728573Y0002780768D01*
X0074692194Y0002763550D01*
X0074655153Y0002748915D01*
X0074617449Y0002736823D01*
X0074579083Y0002727232D01*
X0074540055Y0002720100D01*
X0074500365Y0002715387D01*
X0074460014Y0002713052D01*
X0074439562Y0002712859D01*
X0074417184Y0002713079D01*
X0074373530Y0002715725D01*
X0074331197Y0002721017D01*
X0074290186Y0002728954D01*
X0074250499Y0002739537D01*
X0074212134Y0002752767D01*
X0074175092Y0002768642D01*
X0074139374Y0002787162D01*
X0074122066Y0002797525D01*
X0074104401Y0002808274D01*
X0074070999Y0002831446D01*
X0074039912Y0002856664D01*
X0074011139Y0002883969D01*
X0073984680Y0002913404D01*
X0073960537Y0002945010D01*
X0073938708Y0002978827D01*
X0073919195Y0003014897D01*
X0073910403Y0003033886D01*
X0073901915Y0003053041D01*
X0073886143Y0003091179D01*
X0073872004Y0003129296D01*
X0073859705Y0003167598D01*
X0073849453Y0003206293D01*
X0073841453Y0003245588D01*
X0073835914Y0003285688D01*
X0073833040Y0003326802D01*
X0073832792Y0003347858D01*
X0073832903Y0003367288D01*
X0073834225Y0003405320D01*
X0073836871Y0003442351D01*
X0073840840Y0003478377D01*
X0073846132Y0003513393D01*
X0073852746Y0003547393D01*
X0073860684Y0003580373D01*
X0073869944Y0003612327D01*
X0073880527Y0003643251D01*
X0073892434Y0003673138D01*
X0073905663Y0003701983D01*
X0073920215Y0003729783D01*
X0073936090Y0003756530D01*
X0073953288Y0003782221D01*
X0073971809Y0003806850D01*
X0073991652Y0003830412D01*
X0074002125Y0003841746D01*
X0074012771Y0003852867D01*
X0074034685Y0003873874D01*
X0074057351Y0003893407D01*
X0074080773Y0003911479D01*
X0074104958Y0003928098D01*
X0074124483Y0003939974D01*
X0074374185Y0003873064D01*
X0074332928Y0003865705D01*
G37*
%LPD*%
G36*
X0074461309Y0004017915D02*
G01*
X0074503954Y0004015269D01*
X0074545545Y0004009978D01*
X0074586039Y0004002040D01*
X0074625396Y0003991457D01*
X0074663574Y0003978228D01*
X0074700531Y0003962353D01*
X0074729517Y0003947313D01*
X0074417239Y0003876723D01*
X0074374185Y0003873064D01*
X0074124483Y0003939974D01*
X0074129910Y0003943275D01*
X0074155634Y0003957021D01*
X0074182136Y0003969346D01*
X0074209420Y0003980260D01*
X0074237493Y0003989773D01*
X0074266359Y0003997897D01*
X0074296023Y0004004641D01*
X0074326490Y0004010015D01*
X0074357766Y0004014030D01*
X0074389856Y0004016697D01*
X0074422765Y0004018025D01*
X0074439562Y0004018135D01*
G37*
%LPD*%
G36*
X0076090564Y0003005660D02*
G01*
X0076090564Y0003996968D01*
X0076249318Y0003996968D01*
X0076249318Y0002734022D01*
X0076076457Y0002734022D01*
X0075413232Y0003725330D01*
X0075413232Y0002734022D01*
X0075254485Y0002734022D01*
X0075254485Y0003996968D01*
X0075427346Y0003996968D01*
G37*
%LPD*%
G36*
X0076722033Y0002734022D02*
G01*
X0076556234Y0002734022D01*
X0076556234Y0003996968D01*
X0076722033Y0003996968D01*
G37*
%LPD*%
G36*
X0077588828Y0004017887D02*
G01*
X0077634467Y0004014910D01*
X0077678123Y0004008957D01*
X0077719794Y0004000027D01*
X0077759481Y0003988121D01*
X0077797184Y0003973238D01*
X0077832903Y0003955379D01*
X0077866637Y0003934543D01*
X0077882677Y0003922885D01*
X0077898359Y0003910759D01*
X0077927794Y0003884321D01*
X0077954914Y0003855300D01*
X0077979718Y0003823736D01*
X0078002207Y0003789671D01*
X0078022380Y0003753147D01*
X0078040238Y0003714204D01*
X0078055781Y0003672885D01*
X0078062587Y0003651250D01*
X0077896788Y0003612441D01*
X0077891387Y0003629446D01*
X0077879480Y0003661527D01*
X0077866251Y0003691292D01*
X0077851699Y0003718743D01*
X0077835824Y0003743878D01*
X0077818626Y0003766697D01*
X0077800105Y0003787202D01*
X0077780262Y0003805391D01*
X0077769789Y0003813521D01*
X0077759095Y0003821293D01*
X0077736605Y0003835184D01*
X0077712793Y0003847091D01*
X0077687658Y0003857014D01*
X0077661201Y0003864952D01*
X0077633420Y0003870907D01*
X0077604318Y0003874876D01*
X0077573893Y0003876861D01*
X0077558129Y0003877026D01*
X0077540379Y0003876833D01*
X0077505982Y0003874539D01*
X0077472908Y0003869991D01*
X0077441158Y0003863232D01*
X0077410731Y0003854302D01*
X0077381627Y0003843243D01*
X0077353845Y0003830097D01*
X0077327385Y0003814905D01*
X0077314706Y0003806472D01*
X0077302938Y0003797735D01*
X0077280779Y0003778903D01*
X0077260274Y0003758480D01*
X0077241422Y0003736506D01*
X0077224223Y0003713024D01*
X0077208679Y0003688075D01*
X0077194788Y0003661699D01*
X0077182551Y0003633938D01*
X0077177122Y0003619497D01*
X0077171969Y0003604917D01*
X0077162998Y0003575481D01*
X0077155556Y0003545716D01*
X0077149562Y0003515619D01*
X0077142947Y0003469896D01*
X0077138648Y0003407720D01*
X0077138317Y0003376080D01*
X0077138427Y0003356319D01*
X0077139771Y0003317645D01*
X0077142499Y0003280024D01*
X0077146654Y0003243499D01*
X0077152276Y0003208112D01*
X0077159408Y0003173902D01*
X0077168089Y0003140912D01*
X0077178363Y0003109183D01*
X0077184178Y0003093860D01*
X0077190269Y0003078812D01*
X0077203808Y0003050368D01*
X0077218939Y0003023910D01*
X0077235620Y0002999435D01*
X0077253810Y0002976945D01*
X0077273468Y0002956440D01*
X0077294552Y0002937919D01*
X0077317021Y0002921382D01*
X0077328817Y0002913940D01*
X0077341412Y0002906802D01*
X0077366899Y0002893925D01*
X0077392778Y0002882763D01*
X0077419092Y0002873358D01*
X0077445881Y0002865752D01*
X0077473187Y0002859985D01*
X0077501051Y0002856099D01*
X0077529514Y0002854135D01*
X0077544011Y0002853970D01*
X0077561126Y0002854190D01*
X0077594489Y0002856815D01*
X0077626735Y0002862024D01*
X0077657782Y0002869776D01*
X0077687547Y0002880029D01*
X0077715949Y0002892742D01*
X0077742903Y0002907873D01*
X0077768328Y0002925382D01*
X0077780372Y0002935112D01*
X0077794014Y0002945254D01*
X0077818902Y0002967721D01*
X0077841061Y0002992773D01*
X0077860656Y0003020368D01*
X0077877854Y0003050464D01*
X0077892819Y0003083020D01*
X0077905716Y0003117995D01*
X0077916712Y0003155346D01*
X0077921479Y0003174997D01*
X0078087288Y0003132664D01*
X0078080453Y0003107115D01*
X0078064578Y0003058518D01*
X0078046057Y0003012960D01*
X0078024891Y0002970482D01*
X0078001078Y0002931125D01*
X0077974620Y0002894931D01*
X0077945516Y0002861941D01*
X0077913766Y0002832196D01*
X0077896788Y0002818692D01*
X0077879453Y0002805711D01*
X0077843363Y0002782271D01*
X0077805495Y0002761931D01*
X0077765768Y0002744775D01*
X0077724097Y0002730885D01*
X0077680401Y0002720344D01*
X0077634596Y0002713234D01*
X0077586599Y0002709637D01*
X0077561657Y0002709334D01*
X0077536079Y0002709555D01*
X0077487109Y0002712200D01*
X0077440723Y0002717492D01*
X0077396879Y0002725428D01*
X0077355537Y0002736011D01*
X0077316656Y0002749240D01*
X0077280193Y0002765114D01*
X0077246107Y0002783635D01*
X0077230039Y0002793997D01*
X0077214302Y0002804746D01*
X0077184247Y0002827938D01*
X0077155969Y0002853239D01*
X0077129552Y0002880731D01*
X0077105077Y0002910497D01*
X0077082628Y0002942619D01*
X0077062287Y0002977180D01*
X0077044136Y0003014263D01*
X0077036004Y0003033886D01*
X0077027600Y0003053785D01*
X0077012698Y0003094134D01*
X0077000049Y0003135144D01*
X0076989612Y0003176816D01*
X0076981344Y0003219149D01*
X0076975205Y0003262144D01*
X0076971154Y0003305800D01*
X0076969149Y0003350118D01*
X0076968984Y0003372552D01*
X0076969177Y0003396916D01*
X0076971492Y0003444520D01*
X0076976122Y0003490740D01*
X0076983067Y0003535533D01*
X0076992328Y0003578859D01*
X0077003903Y0003620676D01*
X0077017794Y0003660943D01*
X0077034000Y0003699619D01*
X0077043067Y0003718278D01*
X0077052493Y0003736605D01*
X0077073019Y0003771331D01*
X0077095592Y0003803741D01*
X0077120252Y0003833837D01*
X0077147041Y0003861618D01*
X0077176001Y0003887084D01*
X0077207172Y0003910235D01*
X0077240595Y0003931071D01*
X0077258261Y0003940524D01*
X0077275541Y0003949620D01*
X0077310927Y0003966115D01*
X0077347307Y0003980502D01*
X0077384680Y0003992697D01*
X0077423045Y0004002619D01*
X0077462403Y0004010184D01*
X0077502754Y0004015310D01*
X0077544097Y0004017915D01*
X0077565181Y0004018135D01*
G37*
%LPD*%
G36*
X0078746490Y0004014494D02*
G01*
X0078780182Y0004013150D01*
X0078813089Y0004010422D01*
X0078845128Y0004006268D01*
X0078876216Y0004000646D01*
X0078906270Y0003993516D01*
X0078935209Y0003984835D01*
X0078962948Y0003974562D01*
X0078976287Y0003968746D01*
X0078989406Y0003963317D01*
X0079014521Y0003951101D01*
X0079038251Y0003937293D01*
X0079060554Y0003921934D01*
X0079081389Y0003905067D01*
X0079100715Y0003886732D01*
X0079118490Y0003866971D01*
X0079134673Y0003845825D01*
X0079142086Y0003834691D01*
X0079149226Y0003823419D01*
X0079162127Y0003800557D01*
X0079173374Y0003777240D01*
X0079182966Y0003753387D01*
X0079190904Y0003728913D01*
X0079197187Y0003703736D01*
X0079201817Y0003677774D01*
X0079204794Y0003650943D01*
X0079205593Y0003637135D01*
X0079046843Y0003626552D01*
X0079044721Y0003641600D01*
X0079039078Y0003670043D01*
X0079031719Y0003696501D01*
X0079022603Y0003720976D01*
X0079011689Y0003743465D01*
X0078998935Y0003763971D01*
X0078984301Y0003782493D01*
X0078967744Y0003799030D01*
X0078958649Y0003806472D01*
X0078949195Y0003814216D01*
X0078928380Y0003827816D01*
X0078905312Y0003839226D01*
X0078880032Y0003848527D01*
X0078852581Y0003855803D01*
X0078823002Y0003861135D01*
X0078791334Y0003864608D01*
X0078757621Y0003866303D01*
X0078739927Y0003866441D01*
X0078720966Y0003866303D01*
X0078685249Y0003864629D01*
X0078652176Y0003861239D01*
X0078621749Y0003856092D01*
X0078593967Y0003849146D01*
X0078568831Y0003840361D01*
X0078546341Y0003829695D01*
X0078526496Y0003817107D01*
X0078517677Y0003809996D01*
X0078509243Y0003802693D01*
X0078494050Y0003787769D01*
X0078480904Y0003772390D01*
X0078469845Y0003756474D01*
X0078460915Y0003739938D01*
X0078454156Y0003722699D01*
X0078449609Y0003704675D01*
X0078447314Y0003685783D01*
X0078447121Y0003675945D01*
X0078447259Y0003667427D01*
X0078448891Y0003651179D01*
X0078452115Y0003635799D01*
X0078456889Y0003621205D01*
X0078463172Y0003607315D01*
X0078470924Y0003594045D01*
X0078485043Y0003575071D01*
X0078496510Y0003563056D01*
X0078502877Y0003557736D01*
X0078519723Y0003546862D01*
X0078541469Y0003535782D01*
X0078568072Y0003524578D01*
X0078599491Y0003513332D01*
X0078635685Y0003502128D01*
X0078676613Y0003491048D01*
X0078722233Y0003480174D01*
X0078746982Y0003474854D01*
X0078796040Y0003464272D01*
X0078881699Y0003443272D01*
X0078951814Y0003422768D01*
X0078993279Y0003407947D01*
X0079016058Y0003398377D01*
X0079025676Y0003393719D01*
X0079039402Y0003387049D01*
X0079065219Y0003373138D01*
X0079089114Y0003358503D01*
X0079111128Y0003343103D01*
X0079131303Y0003326897D01*
X0079149679Y0003309844D01*
X0079166298Y0003291902D01*
X0079181202Y0003273030D01*
X0079187954Y0003263191D01*
X0079194430Y0003253214D01*
X0079206005Y0003232709D01*
X0079215927Y0003211543D01*
X0079224195Y0003189714D01*
X0079230810Y0003167225D01*
X0079235771Y0003144074D01*
X0079239079Y0003120261D01*
X0079240733Y0003095787D01*
X0079240871Y0003083275D01*
X0079240733Y0003070735D01*
X0079239058Y0003045930D01*
X0079235668Y0003021456D01*
X0079230520Y0002997313D01*
X0079223575Y0002973501D01*
X0079214790Y0002950019D01*
X0079204124Y0002926869D01*
X0079191536Y0002904049D01*
X0079184426Y0002892777D01*
X0079177012Y0002881642D01*
X0079160827Y0002860475D01*
X0079143050Y0002840631D01*
X0079123722Y0002822110D01*
X0079102886Y0002804912D01*
X0079080583Y0002789036D01*
X0079056853Y0002774484D01*
X0079031739Y0002761255D01*
X0079018621Y0002755192D01*
X0079004703Y0002749349D01*
X0078976529Y0002738786D01*
X0078947839Y0002729609D01*
X0078918507Y0002721857D01*
X0078888411Y0002715573D01*
X0078857425Y0002710798D01*
X0078825426Y0002707574D01*
X0078792290Y0002705941D01*
X0078775201Y0002705803D01*
X0078754145Y0002705941D01*
X0078713198Y0002707574D01*
X0078673759Y0002710798D01*
X0078635953Y0002715573D01*
X0078599904Y0002721857D01*
X0078565736Y0002729609D01*
X0078533572Y0002738786D01*
X0078503538Y0002749349D01*
X0078489455Y0002755192D01*
X0078475042Y0002761310D01*
X0078447572Y0002775160D01*
X0078421693Y0002790869D01*
X0078397363Y0002808357D01*
X0078374542Y0002827539D01*
X0078353189Y0002848333D01*
X0078333262Y0002870658D01*
X0078314720Y0002894429D01*
X0078306010Y0002906886D01*
X0078297604Y0002920171D01*
X0078282680Y0002947292D01*
X0078269948Y0002975073D01*
X0078259323Y0003003516D01*
X0078250724Y0003032619D01*
X0078244068Y0003062385D01*
X0078239271Y0003092811D01*
X0078236252Y0003123899D01*
X0078235451Y0003139719D01*
X0078394205Y0003153830D01*
X0078397181Y0003130350D01*
X0078406443Y0003086859D01*
X0078416117Y0003057300D01*
X0078423724Y0003038965D01*
X0078432322Y0003021849D01*
X0078441913Y0003005995D01*
X0078447121Y0002998608D01*
X0078458146Y0002984165D01*
X0078484604Y0002956714D01*
X0078508086Y0002937698D01*
X0078525284Y0002925833D01*
X0078543804Y0002914754D01*
X0078563648Y0002904543D01*
X0078574121Y0002899831D01*
X0078595619Y0002890901D01*
X0078641590Y0002876514D01*
X0078690538Y0002866592D01*
X0078741801Y0002861466D01*
X0078768149Y0002861025D01*
X0078791741Y0002861356D01*
X0078836720Y0002865158D01*
X0078879053Y0002872433D01*
X0078918741Y0002882851D01*
X0078937482Y0002889246D01*
X0078946632Y0002892636D01*
X0078963851Y0002900202D01*
X0078987477Y0002913060D01*
X0079014597Y0002932905D01*
X0079037252Y0002955063D01*
X0079046843Y0002966858D01*
X0079051363Y0002972867D01*
X0079059321Y0002985393D01*
X0079069057Y0003005113D01*
X0079077656Y0003032894D01*
X0079081790Y0003061667D01*
X0079082121Y0003076219D01*
X0079081790Y0003090661D01*
X0079077656Y0003118276D01*
X0079069057Y0003144074D01*
X0079059321Y0003161956D01*
X0079051363Y0003173181D01*
X0079046843Y0003178528D01*
X0079037252Y0003189001D01*
X0079014432Y0003208842D01*
X0078986650Y0003227361D01*
X0078953247Y0003244559D01*
X0078933954Y0003252608D01*
X0078919512Y0003258120D01*
X0078878337Y0003271184D01*
X0078822113Y0003286398D01*
X0078750510Y0003303430D01*
X0078708177Y0003312580D01*
X0078665623Y0003323053D01*
X0078591539Y0003343062D01*
X0078530684Y0003362245D01*
X0078494136Y0003376280D01*
X0078473629Y0003385561D01*
X0078464753Y0003390191D01*
X0078442707Y0003402318D01*
X0078412716Y0003421996D01*
X0078394383Y0003435887D01*
X0078377517Y0003450439D01*
X0078362159Y0003465653D01*
X0078348352Y0003481528D01*
X0078336137Y0003498064D01*
X0078330708Y0003506608D01*
X0078320454Y0003524026D01*
X0078307513Y0003551643D01*
X0078300277Y0003570826D01*
X0078294323Y0003590670D01*
X0078289733Y0003611175D01*
X0078286591Y0003632341D01*
X0078284978Y0003654169D01*
X0078284840Y0003665358D01*
X0078284978Y0003677236D01*
X0078286632Y0003700718D01*
X0078289940Y0003723868D01*
X0078294901Y0003746688D01*
X0078301516Y0003769178D01*
X0078309785Y0003791336D01*
X0078319708Y0003813165D01*
X0078331283Y0003834663D01*
X0078337760Y0003845274D01*
X0078344512Y0003855747D01*
X0078359394Y0003875589D01*
X0078375930Y0003894110D01*
X0078394121Y0003911307D01*
X0078413965Y0003927182D01*
X0078435462Y0003941734D01*
X0078458614Y0003954964D01*
X0078483419Y0003966872D01*
X0078496510Y0003972274D01*
X0078509794Y0003977455D01*
X0078536914Y0003986716D01*
X0078564696Y0003994653D01*
X0078593140Y0004001267D01*
X0078622244Y0004006558D01*
X0078652011Y0004010526D01*
X0078682438Y0004013171D01*
X0078713527Y0004014494D01*
X0078729347Y0004014604D01*
G37*
%LPD*%
G36*
X0080189842Y0003824108D02*
G01*
X0079685370Y0003824108D01*
X0079618342Y0003485441D01*
X0079632288Y0003495143D01*
X0079660710Y0003512361D01*
X0079689731Y0003526997D01*
X0079719311Y0003539090D01*
X0079749406Y0003548681D01*
X0079779977Y0003555813D01*
X0079810981Y0003560527D01*
X0079842378Y0003562863D01*
X0079858224Y0003563056D01*
X0079878620Y0003562753D01*
X0079918268Y0003559135D01*
X0079956469Y0003551941D01*
X0079993140Y0003541213D01*
X0080028198Y0003526991D01*
X0080061560Y0003509318D01*
X0080093145Y0003488234D01*
X0080122869Y0003463781D01*
X0080136925Y0003450167D01*
X0080150541Y0003435449D01*
X0080174995Y0003404359D01*
X0080196079Y0003371285D01*
X0080213752Y0003336227D01*
X0080227973Y0003299185D01*
X0080238701Y0003260158D01*
X0080245894Y0003219148D01*
X0080249511Y0003176154D01*
X0080249814Y0003153830D01*
X0080249566Y0003132774D01*
X0080246569Y0003091764D01*
X0080240533Y0003052076D01*
X0080231417Y0003013712D01*
X0080219180Y0002976670D01*
X0080203781Y0002940951D01*
X0080185177Y0002906555D01*
X0080163328Y0002873483D01*
X0080151036Y0002857497D01*
X0080135604Y0002838728D01*
X0080110952Y0002813353D01*
X0080093732Y0002797868D01*
X0080075831Y0002783605D01*
X0080057246Y0002770560D01*
X0080037971Y0002758726D01*
X0080018000Y0002748098D01*
X0079997329Y0002738673D01*
X0079975953Y0002730443D01*
X0079953866Y0002723405D01*
X0079931063Y0002717553D01*
X0079895597Y0002710840D01*
X0079845636Y0002706189D01*
X0079819426Y0002705803D01*
X0079797790Y0002706051D01*
X0079756408Y0002709028D01*
X0079717216Y0002714981D01*
X0079680133Y0002723910D01*
X0079645076Y0002735816D01*
X0079611961Y0002750699D01*
X0079580706Y0002768558D01*
X0079551229Y0002789393D01*
X0079537200Y0002801051D01*
X0079522924Y0002814390D01*
X0079497108Y0002842213D01*
X0079474536Y0002871482D01*
X0079455168Y0002902282D01*
X0079438962Y0002934694D01*
X0079425877Y0002968801D01*
X0079415871Y0003004685D01*
X0079408903Y0003042430D01*
X0079406669Y0003062108D01*
X0079568954Y0003076219D01*
X0079571077Y0003061805D01*
X0079576701Y0003034355D01*
X0079583977Y0003008558D01*
X0079592907Y0002984415D01*
X0079603489Y0002961925D01*
X0079615726Y0002941089D01*
X0079629615Y0002921907D01*
X0079645159Y0002904378D01*
X0079653620Y0002896303D01*
X0079661640Y0002889165D01*
X0079678508Y0002876287D01*
X0079696367Y0002865125D01*
X0079715218Y0002855720D01*
X0079735062Y0002848113D01*
X0079755898Y0002842346D01*
X0079777726Y0002838460D01*
X0079800546Y0002836496D01*
X0079812370Y0002836331D01*
X0079826178Y0002836551D01*
X0079852967Y0002839197D01*
X0079878764Y0002844489D01*
X0079903568Y0002852427D01*
X0079927381Y0002863011D01*
X0079950201Y0002876240D01*
X0079972029Y0002892115D01*
X0079992865Y0002910635D01*
X0080002870Y0002920997D01*
X0080012571Y0002931719D01*
X0080029790Y0002954540D01*
X0080044425Y0002979014D01*
X0080056517Y0003005142D01*
X0080066108Y0003032923D01*
X0080073239Y0003062357D01*
X0080077952Y0003093445D01*
X0080080288Y0003126187D01*
X0080080481Y0003143247D01*
X0080080288Y0003159645D01*
X0080077973Y0003191043D01*
X0080073343Y0003220726D01*
X0080066397Y0003248652D01*
X0080057137Y0003274780D01*
X0080045561Y0003299068D01*
X0080031671Y0003321475D01*
X0080015465Y0003341960D01*
X0080006398Y0003351386D01*
X0079996999Y0003360481D01*
X0079976867Y0003376976D01*
X0079955205Y0003391362D01*
X0079932096Y0003403557D01*
X0079907623Y0003413479D01*
X0079881868Y0003421044D01*
X0079854913Y0003426170D01*
X0079826841Y0003428774D01*
X0079812370Y0003428995D01*
X0079793959Y0003428664D01*
X0079758405Y0003424530D01*
X0079724670Y0003415932D01*
X0079700837Y0003406197D01*
X0079685645Y0003398239D01*
X0079678315Y0003393719D01*
X0079663983Y0003384348D01*
X0079637525Y0003364339D01*
X0079613713Y0003342511D01*
X0079592548Y0003318533D01*
X0079583068Y0003305525D01*
X0079438426Y0003323164D01*
X0079561898Y0003972274D01*
X0080189842Y0003972274D01*
G37*
%LPD*%
G36*
X0080715589Y0003852151D02*
G01*
X0080694423Y0003840575D01*
X0080674580Y0003826209D01*
X0080656059Y0003809094D01*
X0080638861Y0003789271D01*
X0080630814Y0003778246D01*
X0080625577Y0003771170D01*
X0080615654Y0003755709D01*
X0080601927Y0003729767D01*
X0080586052Y0003689419D01*
X0080572823Y0003642787D01*
X0080562240Y0003589870D01*
X0080554304Y0003530670D01*
X0080549013Y0003465185D01*
X0080546368Y0003393416D01*
X0080546147Y0003354914D01*
X0080546340Y0003316439D01*
X0080548655Y0003245001D01*
X0080553284Y0003180178D01*
X0080560228Y0003121970D01*
X0080569488Y0003070376D01*
X0080581063Y0003025397D01*
X0080594955Y0002987033D01*
X0080606965Y0002962807D01*
X0080615648Y0002948586D01*
X0080620230Y0002942164D01*
X0080629573Y0002929844D01*
X0080649086Y0002907706D01*
X0080669591Y0002888607D01*
X0080691088Y0002872587D01*
X0080713577Y0002859688D01*
X0080737058Y0002849953D01*
X0080761531Y0002843421D01*
X0080786995Y0002840134D01*
X0080800140Y0002839858D01*
X0080813288Y0002840134D01*
X0080838756Y0002843421D01*
X0080863231Y0002849953D01*
X0080886714Y0002859688D01*
X0080909204Y0002872587D01*
X0080930702Y0002888607D01*
X0080951207Y0002907706D01*
X0080970720Y0002929844D01*
X0080980063Y0002942164D01*
X0080989131Y0002955917D01*
X0081005337Y0002988659D01*
X0081019227Y0003027685D01*
X0081030803Y0003072995D01*
X0081040063Y0003124588D01*
X0081047008Y0003182466D01*
X0081051639Y0003246627D01*
X0081053954Y0003317073D01*
X0081054147Y0003354914D01*
X0081053954Y0003393389D01*
X0081051639Y0003464827D01*
X0081047008Y0003529650D01*
X0081040063Y0003587857D01*
X0081030803Y0003639450D01*
X0081019227Y0003684429D01*
X0081005337Y0003722793D01*
X0080993327Y0003747019D01*
X0080984645Y0003761241D01*
X0080980063Y0003767663D01*
X0080970720Y0003779983D01*
X0080951207Y0003802121D01*
X0080930702Y0003821221D01*
X0080909204Y0003837240D01*
X0080886714Y0003850139D01*
X0080863231Y0003859874D01*
X0080838756Y0003866406D01*
X0080813288Y0003869693D01*
X0080800140Y0003869969D01*
X0080787022Y0003869721D01*
X0081009100Y0003938485D01*
X0081023083Y0003928645D01*
X0081039952Y0003915086D01*
X0081055827Y0003900533D01*
X0081070710Y0003884989D01*
X0081084601Y0003868453D01*
X0081097500Y0003850924D01*
X0081103535Y0003841746D01*
X0081115331Y0003822785D01*
X0081137490Y0003780617D01*
X0081157334Y0003733653D01*
X0081174201Y0003682225D01*
X0081181147Y0003654774D01*
X0081187538Y0003626221D01*
X0081197955Y0003561233D01*
X0081205233Y0003486489D01*
X0081209038Y0003401657D01*
X0081209369Y0003354914D01*
X0081209258Y0003327353D01*
X0081207915Y0003274437D01*
X0081205186Y0003224166D01*
X0081201030Y0003176541D01*
X0081195408Y0003131562D01*
X0081188276Y0003089228D01*
X0081179595Y0003049541D01*
X0081169322Y0003012499D01*
X0081163508Y0002995081D01*
X0081157444Y0002978048D01*
X0081144215Y0002945637D01*
X0081129663Y0002915210D01*
X0081113788Y0002886767D01*
X0081096589Y0002860309D01*
X0081078067Y0002835835D01*
X0081058222Y0002813345D01*
X0081037053Y0002792840D01*
X0081025917Y0002783414D01*
X0081014536Y0002774346D01*
X0080990415Y0002758140D01*
X0080964701Y0002744249D01*
X0080937437Y0002732675D01*
X0080908663Y0002723415D01*
X0080878421Y0002716471D01*
X0080846753Y0002711842D01*
X0080813700Y0002709527D01*
X0080796612Y0002709334D01*
X0080774289Y0002709665D01*
X0080731358Y0002713654D01*
X0080690598Y0002721675D01*
X0080652131Y0002733767D01*
X0080616082Y0002749972D01*
X0080582575Y0002770332D01*
X0080551735Y0002794888D01*
X0080523685Y0002823681D01*
X0080510869Y0002839858D01*
X0080503338Y0002849911D01*
X0080489036Y0002871323D01*
X0080475652Y0002894298D01*
X0080463190Y0002918832D01*
X0080451656Y0002944918D01*
X0080441055Y0002972551D01*
X0080431392Y0003001728D01*
X0080422672Y0003032441D01*
X0080411252Y0003081193D01*
X0080399533Y0003151782D01*
X0080391679Y0003228429D01*
X0080387731Y0003311091D01*
X0080387401Y0003354914D01*
X0080387511Y0003382474D01*
X0080388854Y0003435391D01*
X0080391582Y0003485662D01*
X0080395736Y0003533287D01*
X0080401358Y0003578266D01*
X0080408489Y0003620599D01*
X0080417170Y0003660287D01*
X0080427443Y0003697328D01*
X0080433258Y0003714747D01*
X0080439322Y0003731780D01*
X0080452551Y0003764192D01*
X0080467103Y0003794620D01*
X0080482977Y0003823062D01*
X0080500175Y0003849521D01*
X0080518694Y0003873994D01*
X0080538537Y0003896483D01*
X0080559701Y0003916988D01*
X0080570834Y0003926413D01*
X0080578270Y0003932336D01*
X0080761889Y0003866765D01*
X0080738078Y0003860894D01*
G37*
%LPD*%
G36*
X0080812654Y0004000386D02*
G01*
X0080837109Y0003999063D01*
X0080860841Y0003996417D01*
X0080883807Y0003992448D01*
X0080905966Y0003987156D01*
X0080927277Y0003980542D01*
X0080947698Y0003972604D01*
X0080967187Y0003963344D01*
X0080976529Y0003958163D01*
X0080986369Y0003952789D01*
X0081005223Y0003941213D01*
X0081009100Y0003938485D01*
X0080787022Y0003869721D01*
X0080761889Y0003866765D01*
X0080578270Y0003932336D01*
X0080582218Y0003935480D01*
X0080606342Y0003951686D01*
X0080632057Y0003965577D01*
X0080659321Y0003977152D01*
X0080688094Y0003986413D01*
X0080718334Y0003993358D01*
X0080750001Y0003997988D01*
X0080783052Y0004000303D01*
X0080800140Y0004000496D01*
G37*
%LPD*%
G36*
X0081974896Y0003104442D02*
G01*
X0081995182Y0003044028D01*
X0082018829Y0002972589D01*
X0082030569Y0002933892D01*
X0082034868Y0002917466D01*
X0082046331Y0002954509D01*
X0082079406Y0003055050D01*
X0082101896Y0003118549D01*
X0082405288Y0003996968D01*
X0082631065Y0003996968D01*
X0082631065Y0002734022D01*
X0082468784Y0002734022D01*
X0082468784Y0003792358D01*
X0082101896Y0002734022D01*
X0081950208Y0002734022D01*
X0081583313Y0003809996D01*
X0081583313Y0002734022D01*
X0081424556Y0002734022D01*
X0081424556Y0003996968D01*
X0081675035Y0003996968D01*
G37*
M02*
