%FSLAX46Y46*%
%MOMM*%
%LPD*%
%ADD10C,0.303389*%
%ADD11C,1.001889*%
%ADD12C,0.197556*%
%ADD13C,0.599722*%
%ADD16C,0.211667*%
%ADD18C,0.797278*%
%ADD14O,0.635000X1.693000*%
%ADD15O,0.635000X1.411000*%
%ADD17O,3.281000X0.811000*%
D12*
X35902194Y29665083D03*
X44569944Y27738916D03*
X44866277Y27340277D03*
X44569944Y26941638D03*
X44866277Y26539472D03*
X44569944Y26140833D03*
X42943638Y24214666D03*
X42541472Y24514527D03*
X42142833Y24214666D03*
X41740666Y24514527D03*
X32328555Y25872722D03*
X32681333Y25872722D03*
X33630305Y24373416D03*
X33471555Y23177499D03*
X34759194Y28684361D03*
X34759194Y29742694D03*
X34759194Y30801027D03*
X34759194Y31859361D03*
X33665583Y33976027D03*
X33411583Y27375555D03*
X33058805Y27375555D03*
X40541222Y24288749D03*
X40943388Y24510999D03*
X39740416Y24285222D03*
X40142583Y24510999D03*
X38943138Y24288749D03*
X39341777Y24510999D03*
X38142333Y24510999D03*
X35902194Y30215416D03*
X44238333Y33976027D03*
X44238333Y35034361D03*
X38540972Y32967083D03*
X38943138Y33263416D03*
X39341777Y32967083D03*
X40745833Y32967083D03*
X38142333Y24002999D03*
X35831638Y33284583D03*
X32377944Y24373416D03*
X42142833Y32967083D03*
X42541472Y33319861D03*
X41740666Y33263416D03*
X42943638Y32967083D03*
X44866277Y30942138D03*
X44866277Y30141333D03*
X44569944Y29739166D03*
X44569944Y30543499D03*
X34759194Y35034361D03*
X38791444Y35034361D03*
X40908111Y35034361D03*
X40908111Y33976027D03*
X42125194Y35034361D03*
X45575361Y29044194D03*
X38791444Y33976027D03*
X36678305Y33976027D03*
X36678305Y35034361D03*
X57862611Y29404027D03*
X44933305Y28567944D03*
D16*
X57869666Y34162999D03*
D10*
X40343666Y27682472D03*
X40343666Y28740805D03*
X40343666Y29799138D03*
X39285333Y27682472D03*
X39285333Y28740805D03*
X39285333Y29799138D03*
X41401999Y27682472D03*
X41401999Y28740805D03*
X41401999Y29799138D03*
X60226222Y22588361D03*
X60875333Y22129749D03*
X61524444Y22588361D03*
X65426166Y22129749D03*
X66004722Y17448388D03*
X64875833Y17448388D03*
X63739888Y17448388D03*
X62607472Y19085277D03*
X62607472Y17448388D03*
X61475055Y19085277D03*
X61475055Y17448388D03*
X60342638Y19085277D03*
X60342638Y17448388D03*
X59206694Y19085277D03*
X59206694Y17448388D03*
X58074277Y19085277D03*
X58074277Y17448388D03*
X56941861Y19085277D03*
X56941861Y17448388D03*
X55809444Y19085277D03*
X55809444Y17448388D03*
X54673499Y19085277D03*
X51272722Y17448388D03*
X50140305Y19085277D03*
X50140305Y17448388D03*
X49007888Y19085277D03*
X49007888Y17448388D03*
X47875472Y19085277D03*
X47875472Y17448388D03*
X46739527Y19085277D03*
X46739527Y17448388D03*
X54673499Y17448388D03*
X56712555Y23413861D03*
X49565277Y29964944D03*
X53932666Y29964944D03*
X49565277Y30412972D03*
X53932666Y30412972D03*
X63739888Y19085277D03*
X39084249Y19759083D03*
X66269305Y24454555D03*
X68385972Y24454555D03*
X68385972Y26652361D03*
X66269305Y26652361D03*
X53541083Y17448388D03*
X53541083Y19085277D03*
X52408666Y19085277D03*
X65426166Y25611666D03*
X64777055Y25258888D03*
X64124416Y24906111D03*
X63475305Y24553333D03*
X62826194Y24200555D03*
X62177083Y23847777D03*
X61524444Y23494999D03*
X60875333Y23142222D03*
X39084249Y20810361D03*
X45585944Y19413361D03*
X45585944Y20013083D03*
X57351083Y23837194D03*
X59026777Y25523472D03*
X66269305Y25555222D03*
X68636444Y27502555D03*
X68639972Y29107694D03*
X68632916Y29954361D03*
X68632916Y23353888D03*
X68632916Y22253222D03*
X52204055Y31361944D03*
X52909611Y31615944D03*
X53632805Y31855833D03*
X54592361Y32099249D03*
X50076805Y25611666D03*
X48129472Y25611666D03*
X51375027Y24849666D03*
X52024138Y23837194D03*
X47473305Y24094722D03*
X54112583Y24334611D03*
X51375027Y25611666D03*
X56063444Y25611666D03*
X54112583Y25611666D03*
X68530611Y18125722D03*
X71504527Y19215805D03*
X76542194Y18295055D03*
X79286805Y18743083D03*
X63863361Y31520694D03*
X59210222Y31785277D03*
X59210222Y29922611D03*
X46824194Y25611666D03*
X39913277Y21057305D03*
X58504666Y34942638D03*
X34656888Y17854083D03*
X33055277Y18429111D03*
X33055277Y19007666D03*
X34656888Y18429111D03*
X34656888Y19007666D03*
X33055277Y17854083D03*
X31044444Y19603861D03*
X31037388Y18429111D03*
X31037388Y19007666D03*
X31044444Y20182416D03*
X31044444Y20757444D03*
X31037388Y17854083D03*
X31044444Y21911027D03*
X31044444Y21335999D03*
X83604805Y5506861D03*
X83604805Y9034638D03*
X48080083Y35309527D03*
X51607861Y35309527D03*
X55135638Y35309527D03*
X66318694Y35309527D03*
X69846472Y35309527D03*
X73374250Y35309527D03*
X80429805Y35309527D03*
X31037388Y23646694D03*
X31037388Y29481638D03*
X31037388Y33161111D03*
X33090555Y35309527D03*
X83604805Y22941138D03*
X83604805Y26472444D03*
X83604805Y30000222D03*
X33055277Y32540222D03*
X36681833Y25216555D03*
X44608749Y32039277D03*
X40209611Y19540361D03*
X40209611Y17321388D03*
X62177083Y33139944D03*
X60226222Y33139944D03*
X62177083Y29654499D03*
X63475305Y29654499D03*
X58804527Y21064361D03*
X60212111Y29922611D03*
X54789916Y23904222D03*
X52172305Y24849666D03*
X56063444Y24754416D03*
X35877499Y24373416D03*
X83604805Y1979083D03*
X83604805Y16090194D03*
X80077027Y1979083D03*
X76549250Y1979083D03*
X73021472Y1979083D03*
X69493694Y1979083D03*
X65965916Y1979083D03*
X62438138Y1979083D03*
X58910361Y1979083D03*
X55382583Y1979083D03*
X51854805Y1979083D03*
X48327027Y1979083D03*
X44799249Y1979083D03*
X41271472Y1979083D03*
X37743694Y1979083D03*
X2455333Y1979083D03*
X13045722Y1979083D03*
X9517944Y1979083D03*
X5990166Y1979083D03*
X27156833Y1979083D03*
X23629055Y1979083D03*
X20101277Y1979083D03*
X16573499Y1979083D03*
X34212388Y1979083D03*
X30684611Y1979083D03*
X2455333Y9034638D03*
X2455333Y5506861D03*
X2455333Y15518694D03*
X64875833Y19085277D03*
X66008250Y19085277D03*
X56377416Y16905111D03*
X55237944Y16915694D03*
X52119388Y16915694D03*
D13*
X48859722Y29964944D03*
X54638222Y29964944D03*
D18*
X66816111Y14661444D03*
X68975111Y14661444D03*
X66816111Y10660944D03*
X68975111Y10660944D03*
X62494583Y14661444D03*
X64653583Y14661444D03*
X62494583Y10660944D03*
X64653583Y10660944D03*
X58173055Y14661444D03*
X60335583Y14661444D03*
X58173055Y10660944D03*
X60335583Y10660944D03*
X53855055Y14661444D03*
X56014055Y14661444D03*
X53855055Y10660944D03*
X56014055Y10660944D03*
X49533527Y14661444D03*
X51696055Y14661444D03*
X49533527Y10660944D03*
X51696055Y10660944D03*
X45215527Y14661444D03*
X47374527Y14661444D03*
X45215527Y10660944D03*
X47374527Y10660944D03*
X40893999Y14661444D03*
X43052999Y14661444D03*
X40893999Y10660944D03*
X43052999Y10660944D03*
X36576000Y14661444D03*
X38734999Y14661444D03*
X36576000Y10660944D03*
X38734999Y10660944D03*
X32254472Y14661444D03*
X34413472Y14661444D03*
X32254472Y10660944D03*
X34413472Y10660944D03*
X27936472Y14661444D03*
X30095472Y14661444D03*
X27936472Y10660944D03*
X30095472Y10660944D03*
X23614944Y14661444D03*
X25773944Y14661444D03*
X23614944Y10660944D03*
X25773944Y10660944D03*
X19293416Y14661444D03*
X21455944Y14661444D03*
X19293416Y10660944D03*
X21455944Y10660944D03*
X17134416Y14661444D03*
X17134416Y10660944D03*
D11*
X77893333Y22803555D03*
X77893333Y30755166D03*
D17*
X80323999Y12653999D03*
X5777999Y12653999D03*
X80323999Y12653999D03*
X5782000Y12653999D03*
D15*
X56048999Y33637000D03*
X47409999Y33637000D03*
D14*
X56048999Y29471000D03*
X47409999Y29471000D03*
M02*
