<?xml version="1.0" encoding="utf-8"?>
<!-- Generator: Adobe Illustrator 27.0.0, SVG Export Plug-In . SVG Version: 6.00 Build 0)  -->
<svg version="1.1" id="Calque_1" xmlns="http://www.w3.org/2000/svg" xmlns:xlink="http://www.w3.org/1999/xlink" x="0px" y="0px"
	 viewBox="0 0 172.88 106.64" style="enable-background:new 0 0 172.88 106.64;" xml:space="preserve">
<style type="text/css">
	.st0{fill:none;stroke:#000000;stroke-width:0.1;stroke-miterlimit:10;}
</style>
<path class="st0" d="M164.07,94.99H9.9V16.11c0-3.71,3.01-6.73,6.73-6.73h140.7c3.71,0,6.73,3.01,6.73,6.73v78.88H164.07z"/>
<g>
	<g>
		<path d="M17.43,89.05c-0.23-0.19-0.51-0.29-0.85-0.29c-0.27,0-0.53,0.07-0.77,0.21s-0.41,0.36-0.52,0.64
			c-0.11,0.29-0.17,0.62-0.17,1c0,0.3,0.05,0.59,0.14,0.87c0.09,0.28,0.26,0.5,0.49,0.67s0.52,0.25,0.87,0.25
			c0.3,0,0.55-0.08,0.75-0.22c0.2-0.15,0.35-0.39,0.46-0.72l0.59,0.14c-0.12,0.42-0.34,0.74-0.64,0.97s-0.69,0.34-1.14,0.34
			c-0.4,0-0.76-0.09-1.09-0.27s-0.59-0.45-0.77-0.8c-0.18-0.35-0.27-0.76-0.27-1.23c0-0.43,0.08-0.83,0.24-1.21s0.39-0.66,0.7-0.86
			c0.3-0.2,0.7-0.3,1.19-0.3c0.47,0,0.87,0.13,1.19,0.39s0.55,0.63,0.67,1.12l-0.6,0.15C17.81,89.53,17.66,89.24,17.43,89.05z"/>
		<path d="M22.61,88.33v0.53h-2.77v1.54h2.49v0.53h-2.49v1.38h2.66v0.53h-3.26v-4.51C19.24,88.33,22.61,88.33,22.61,88.33z"/>
		<path d="M24.04,88.33v2h0.69c0.15,0,0.26-0.01,0.33-0.02c0.09-0.02,0.18-0.06,0.27-0.12s0.19-0.16,0.3-0.3s0.26-0.35,0.43-0.62
			l0.6-0.94h0.75l-0.78,1.23c-0.16,0.24-0.32,0.44-0.5,0.6c-0.08,0.07-0.2,0.15-0.36,0.22c0.43,0.06,0.75,0.2,0.96,0.42
			s0.31,0.49,0.31,0.81c0,0.25-0.06,0.47-0.19,0.68c-0.13,0.21-0.29,0.35-0.5,0.43s-0.52,0.12-0.92,0.12h-2v-4.51
			C23.43,88.33,24.04,88.33,24.04,88.33z M24.04,92.34h1.43c0.33,0,0.58-0.07,0.73-0.21s0.23-0.31,0.23-0.53
			c0-0.15-0.04-0.28-0.12-0.4s-0.2-0.21-0.35-0.27s-0.37-0.08-0.64-0.08h-1.28C24.04,90.85,24.04,92.34,24.04,92.34z"/>
		<path d="M28.55,88.33v3.54l2.37-3.54h0.61v4.51h-0.57V89.3l-2.37,3.54h-0.61v-4.51H28.55z"/>
		<path d="M34.36,89.4c0.17-0.35,0.43-0.63,0.76-0.84s0.71-0.31,1.14-0.31c0.39,0,0.76,0.09,1.1,0.28s0.6,0.46,0.78,0.82
			s0.28,0.77,0.28,1.23c0,0.45-0.09,0.85-0.26,1.21c-0.18,0.36-0.43,0.63-0.76,0.83c-0.33,0.2-0.71,0.3-1.13,0.3
			c-0.64,0-1.15-0.21-1.56-0.63c-0.4-0.42-0.6-1.01-0.6-1.76C34.1,90.13,34.18,89.75,34.36,89.4z M35.17,91.97
			c0.3,0.29,0.67,0.44,1.09,0.44c0.3,0,0.57-0.08,0.8-0.23c0.24-0.15,0.42-0.36,0.54-0.64c0.12-0.27,0.19-0.59,0.19-0.96
			c0-0.58-0.15-1.03-0.44-1.34c-0.29-0.32-0.66-0.47-1.11-0.47c-0.44,0-0.81,0.16-1.1,0.47c-0.29,0.31-0.44,0.74-0.44,1.28
			C34.71,91.19,34.87,91.68,35.17,91.97z"/>
		<path d="M39.79,88.33v2.13h2.34v-2.13h0.6v4.51h-0.6v-1.85h-2.34v1.85h-0.6v-4.51H39.79z"/>
		<path d="M46.52,88.33v0.53H44.3v3.98h-0.6v-4.51H46.52z"/>
		<path d="M48.65,89.68v0.56h-1.7v-0.56H48.65z"/>
		<path d="M49.38,88.96c0.16-0.24,0.37-0.42,0.65-0.54s0.62-0.18,1.03-0.18c0.32,0,0.61,0.06,0.87,0.18s0.45,0.28,0.59,0.5
			c0.14,0.21,0.21,0.44,0.21,0.68s-0.06,0.46-0.19,0.64c-0.12,0.19-0.32,0.34-0.58,0.46c-0.18,0.08-0.51,0.18-1,0.29
			c-0.48,0.11-0.78,0.22-0.9,0.32c-0.12,0.1-0.18,0.24-0.18,0.4c0,0.19,0.08,0.35,0.25,0.48c0.17,0.13,0.43,0.2,0.79,0.2
			c0.35,0,0.61-0.07,0.79-0.22s0.28-0.36,0.31-0.65l0.57,0.04c-0.01,0.26-0.08,0.5-0.22,0.71s-0.33,0.37-0.59,0.48
			c-0.25,0.11-0.55,0.16-0.88,0.16c-0.3,0-0.58-0.05-0.83-0.15s-0.44-0.25-0.57-0.45s-0.19-0.41-0.19-0.64
			c0-0.21,0.05-0.39,0.16-0.56s0.27-0.31,0.48-0.42c0.17-0.09,0.46-0.18,0.87-0.28s0.68-0.17,0.8-0.22
			c0.19-0.07,0.32-0.16,0.41-0.27c0.08-0.11,0.12-0.23,0.12-0.37s-0.04-0.27-0.13-0.39c-0.08-0.12-0.21-0.21-0.39-0.28
			c-0.17-0.07-0.38-0.1-0.6-0.1c-0.26,0-0.49,0.04-0.69,0.13c-0.21,0.09-0.36,0.21-0.45,0.35c-0.1,0.14-0.16,0.33-0.19,0.55
			l-0.56-0.05C49.14,89.47,49.22,89.2,49.38,88.96z"/>
		<path d="M57.19,88.33l1.77,4.51h-0.61l-1.22-3.28c-0.09-0.25-0.17-0.49-0.24-0.74c-0.06,0.23-0.14,0.48-0.24,0.74l-1.17,3.28
			h-0.65l1.75-4.51H57.19z"/>
		<path d="M59.96,88.86c0.06,0.1,0.14,0.2,0.23,0.3c0.09,0.1,0.31,0.29,0.64,0.57c0.4,0.34,0.68,0.6,0.85,0.79s0.29,0.38,0.37,0.55
			c0.07,0.17,0.11,0.35,0.11,0.53c0,0.35-0.13,0.65-0.38,0.89s-0.59,0.36-1.03,0.36c-0.43,0-0.77-0.11-1.02-0.33
			s-0.4-0.55-0.44-0.97l0.57-0.06c0,0.28,0.08,0.5,0.24,0.66s0.37,0.24,0.64,0.24c0.25,0,0.46-0.08,0.61-0.23
			c0.16-0.15,0.24-0.34,0.24-0.55c0-0.21-0.09-0.43-0.26-0.67s-0.5-0.55-0.99-0.96c-0.32-0.26-0.56-0.49-0.72-0.68
			c-0.17-0.2-0.29-0.4-0.36-0.6c-0.05-0.12-0.07-0.25-0.06-0.38h2.98v0.53L59.96,88.86L59.96,88.86z"/>
		<path d="M67.95,88.33v0.53h-2.88l0.27,0.32l2.53,3.13v0.53h-3.23V92.3h2.52c-0.15-0.15-0.3-0.33-0.47-0.54l-2.31-2.89v-0.55h3.57
			V88.33z"/>
		<path d="M71.15,88.33v3.27H70.6v-1.75c0-0.28-0.03-0.49-0.09-0.64s-0.16-0.26-0.31-0.35c-0.15-0.09-0.3-0.13-0.47-0.13
			s-0.31,0.04-0.42,0.12s-0.19,0.2-0.22,0.34c-0.02,0.1-0.03,0.29-0.03,0.58v1.81H68.5v-2.02c0-0.24,0.01-0.41,0.03-0.52
			c0.03-0.16,0.09-0.3,0.17-0.41s0.21-0.2,0.37-0.28c0.17-0.07,0.35-0.11,0.54-0.11c0.44,0,0.78,0.18,1.04,0.55v-0.48h0.5V88.33z"/>
		<path d="M72.56,88.33v4.51h-0.55v-4.51H72.56z"/>
		<path d="M76.06,88.33v3.27H75.5v-1.75c0-0.28-0.03-0.49-0.09-0.64s-0.16-0.26-0.31-0.35c-0.15-0.09-0.3-0.13-0.47-0.13
			s-0.31,0.04-0.42,0.12s-0.19,0.2-0.22,0.34c-0.02,0.1-0.03,0.29-0.03,0.58v1.81h-0.55v-2.02c0-0.24,0.01-0.41,0.03-0.52
			c0.03-0.16,0.09-0.3,0.17-0.41s0.21-0.2,0.37-0.28c0.17-0.07,0.35-0.11,0.54-0.11c0.44,0,0.78,0.18,1.04,0.55v-0.48h0.5V88.33z"/>
		<path d="M77.04,88.96c0.16-0.24,0.37-0.42,0.65-0.54s0.62-0.18,1.03-0.18c0.32,0,0.61,0.06,0.87,0.18s0.45,0.28,0.59,0.5
			c0.14,0.21,0.21,0.44,0.21,0.68s-0.06,0.46-0.19,0.64c-0.12,0.19-0.32,0.34-0.58,0.46c-0.18,0.08-0.51,0.18-1,0.29
			c-0.48,0.11-0.78,0.22-0.9,0.32s-0.18,0.24-0.18,0.4c0,0.19,0.08,0.35,0.25,0.48c0.17,0.13,0.43,0.2,0.79,0.2
			c0.35,0,0.61-0.07,0.79-0.22s0.28-0.36,0.31-0.65l0.57,0.04c-0.01,0.26-0.08,0.5-0.22,0.71s-0.33,0.37-0.59,0.48
			c-0.25,0.11-0.55,0.16-0.88,0.16c-0.3,0-0.58-0.05-0.83-0.15s-0.44-0.25-0.57-0.45s-0.19-0.41-0.19-0.64
			c0-0.21,0.05-0.39,0.16-0.56s0.27-0.31,0.48-0.42c0.17-0.09,0.46-0.18,0.87-0.28s0.68-0.17,0.8-0.22
			c0.19-0.07,0.32-0.16,0.41-0.27c0.08-0.11,0.12-0.23,0.12-0.37s-0.04-0.27-0.13-0.39c-0.08-0.12-0.21-0.21-0.39-0.28
			c-0.17-0.07-0.38-0.1-0.6-0.1c-0.26,0-0.49,0.04-0.69,0.13c-0.21,0.09-0.36,0.21-0.45,0.35c-0.1,0.14-0.16,0.33-0.19,0.55
			l-0.56-0.05C76.8,89.47,76.88,89.2,77.04,88.96z"/>
		<path d="M83.94,89.05c-0.23-0.19-0.51-0.29-0.85-0.29c-0.27,0-0.53,0.07-0.77,0.21s-0.41,0.36-0.52,0.64
			c-0.11,0.29-0.17,0.62-0.17,1c0,0.3,0.05,0.59,0.14,0.87c0.09,0.28,0.26,0.5,0.49,0.67c0.23,0.17,0.52,0.25,0.87,0.25
			c0.3,0,0.55-0.08,0.75-0.22s0.35-0.39,0.46-0.72l0.59,0.14c-0.12,0.42-0.34,0.74-0.64,0.97s-0.69,0.34-1.14,0.34
			c-0.4,0-0.76-0.09-1.09-0.27c-0.33-0.18-0.59-0.45-0.77-0.8c-0.18-0.35-0.27-0.76-0.27-1.23c0-0.43,0.08-0.83,0.24-1.21
			c0.16-0.38,0.39-0.66,0.7-0.86c0.3-0.2,0.7-0.3,1.19-0.3c0.47,0,0.87,0.13,1.19,0.39c0.33,0.26,0.55,0.63,0.67,1.12l-0.6,0.15
			C84.33,89.53,84.18,89.24,83.94,89.05z"/>
		<path d="M85.79,88.96c0.16-0.24,0.37-0.42,0.65-0.54s0.62-0.18,1.03-0.18c0.32,0,0.61,0.06,0.87,0.18s0.46,0.28,0.59,0.5
			c0.14,0.21,0.21,0.44,0.21,0.68s-0.06,0.46-0.19,0.64c-0.12,0.19-0.32,0.34-0.58,0.46c-0.18,0.08-0.51,0.18-1,0.29
			s-0.79,0.22-0.9,0.32c-0.12,0.1-0.18,0.24-0.18,0.4c0,0.19,0.08,0.35,0.25,0.48c0.17,0.13,0.43,0.2,0.79,0.2
			c0.35,0,0.61-0.07,0.79-0.22s0.28-0.36,0.31-0.65L89,91.56c-0.01,0.26-0.08,0.5-0.22,0.71s-0.33,0.37-0.59,0.48
			c-0.25,0.11-0.55,0.16-0.88,0.16c-0.3,0-0.58-0.05-0.83-0.15s-0.44-0.25-0.57-0.45s-0.19-0.41-0.19-0.64
			c0-0.21,0.05-0.39,0.16-0.56s0.27-0.31,0.48-0.42c0.17-0.09,0.46-0.18,0.87-0.28s0.68-0.17,0.8-0.22
			c0.19-0.07,0.32-0.16,0.41-0.27c0.08-0.11,0.12-0.23,0.12-0.37s-0.04-0.27-0.13-0.39c-0.08-0.12-0.21-0.21-0.39-0.28
			c-0.17-0.07-0.38-0.1-0.6-0.1c-0.26,0-0.49,0.04-0.69,0.13c-0.21,0.09-0.36,0.21-0.45,0.35c-0.1,0.14-0.16,0.33-0.19,0.55
			l-0.56-0.05C85.55,89.47,85.63,89.2,85.79,88.96z"/>
		<path d="M90.65,88.33v4.51h-0.6v-4.51H90.65z"/>
		<path d="M93.14,90.33v2.13h0.82v0.37h-2.05v-0.37h0.81v-2.13H93.14z M94.62,90.33v2.13l0.67-2.13h0.38l0.65,2.1v-2.1h0.38v2.51
			h-0.6l-0.61-2l-0.63,2h-0.62v-2.51H94.62z"/>
		<path d="M100.23,87.07v1.59c0.09-0.12,0.21-0.22,0.36-0.3s0.31-0.12,0.5-0.12c0.25,0,0.49,0.07,0.72,0.21s0.4,0.35,0.52,0.62
			c0.12,0.27,0.18,0.57,0.18,0.9c0,0.31-0.05,0.6-0.16,0.86s-0.27,0.46-0.48,0.61c-0.21,0.14-0.46,0.21-0.74,0.21
			c-0.21,0-0.39-0.04-0.54-0.12s-0.28-0.21-0.4-0.37v0.42h-0.5v-4.52h0.54V87.07z M100.45,90.9c0.18,0.22,0.39,0.33,0.63,0.33
			s0.44-0.1,0.61-0.31s0.26-0.52,0.26-0.94c0-0.44-0.09-0.76-0.26-0.97c-0.18-0.21-0.39-0.31-0.63-0.31s-0.45,0.1-0.62,0.3
			c-0.17,0.2-0.25,0.51-0.25,0.93C100.18,90.36,100.27,90.68,100.45,90.9z"/>
		<path d="M103.74,88.33v3.27h-0.55v-3.27H103.74z M103.74,92.2v0.64h-0.55V92.2H103.74z"/>
		<path d="M106.44,88.91c-0.15-0.13-0.33-0.2-0.54-0.2c-0.27,0-0.49,0.1-0.66,0.3c-0.17,0.2-0.25,0.52-0.25,0.96
			c0,0.43,0.09,0.75,0.26,0.95c0.17,0.2,0.4,0.3,0.68,0.3c0.18,0,0.34-0.06,0.47-0.17c0.13-0.11,0.22-0.28,0.27-0.5l0.54,0.08
			c-0.06,0.33-0.21,0.58-0.43,0.76c-0.23,0.18-0.52,0.27-0.87,0.27c-0.28,0-0.54-0.07-0.78-0.2s-0.42-0.33-0.53-0.6
			c-0.12-0.26-0.18-0.57-0.18-0.93c0-0.54,0.14-0.96,0.41-1.26c0.27-0.29,0.63-0.44,1.08-0.44c0.36,0,0.66,0.11,0.9,0.32
			c0.25,0.21,0.4,0.51,0.46,0.88l-0.54,0.07C106.68,89.25,106.58,89.04,106.44,88.91z"/>
		<path d="M107.95,88.69c0.28-0.29,0.65-0.44,1.11-0.44c0.29,0,0.55,0.07,0.79,0.2s0.42,0.32,0.55,0.56s0.19,0.57,0.19,0.99
			c0,0.52-0.14,0.93-0.43,1.22s-0.65,0.44-1.1,0.44c-0.4,0-0.75-0.12-1.03-0.36c-0.34-0.29-0.5-0.74-0.5-1.34
			C107.53,89.41,107.67,88.98,107.95,88.69z M108.37,90.9c0.18,0.21,0.41,0.31,0.69,0.31c0.27,0,0.5-0.1,0.68-0.31
			s0.28-0.51,0.28-0.92c0-0.43-0.09-0.75-0.27-0.96s-0.41-0.31-0.69-0.31s-0.51,0.1-0.69,0.31s-0.27,0.52-0.27,0.94
			C108.1,90.38,108.19,90.69,108.37,90.9z"/>
		<path d="M113.13,89.4c0.17-0.35,0.42-0.63,0.76-0.84c0.33-0.21,0.71-0.31,1.14-0.31c0.39,0,0.76,0.09,1.1,0.28s0.6,0.46,0.78,0.82
			s0.28,0.77,0.28,1.23c0,0.45-0.09,0.85-0.26,1.21c-0.17,0.36-0.43,0.63-0.76,0.83c-0.33,0.2-0.71,0.3-1.13,0.3
			c-0.64,0-1.15-0.21-1.56-0.63c-0.4-0.42-0.6-1.01-0.6-1.76C112.88,90.13,112.96,89.75,113.13,89.4z M113.95,91.97
			c0.3,0.29,0.67,0.44,1.09,0.44c0.3,0,0.57-0.08,0.8-0.23c0.24-0.15,0.42-0.36,0.54-0.64c0.12-0.27,0.19-0.59,0.19-0.96
			c0-0.58-0.14-1.03-0.43-1.34c-0.29-0.32-0.66-0.47-1.11-0.47c-0.44,0-0.81,0.16-1.1,0.47s-0.44,0.74-0.44,1.28
			C113.49,91.19,113.64,91.68,113.95,91.97z"/>
		<path d="M118,88.96c0.16-0.24,0.37-0.42,0.65-0.54s0.62-0.18,1.03-0.18c0.32,0,0.61,0.06,0.87,0.18s0.45,0.28,0.59,0.5
			c0.14,0.21,0.21,0.44,0.21,0.68s-0.06,0.46-0.19,0.64s-0.32,0.34-0.58,0.46c-0.18,0.08-0.51,0.18-1,0.29
			c-0.48,0.11-0.78,0.22-0.9,0.32s-0.18,0.24-0.18,0.4c0,0.19,0.08,0.35,0.25,0.48c0.17,0.13,0.43,0.2,0.79,0.2
			c0.35,0,0.61-0.07,0.79-0.22s0.28-0.36,0.31-0.65l0.57,0.04c-0.01,0.26-0.08,0.5-0.22,0.71s-0.33,0.37-0.59,0.48
			c-0.25,0.11-0.55,0.16-0.88,0.16c-0.3,0-0.58-0.05-0.83-0.15s-0.44-0.25-0.57-0.45s-0.19-0.41-0.19-0.64
			c0-0.21,0.05-0.39,0.16-0.56s0.27-0.31,0.48-0.42c0.17-0.09,0.46-0.18,0.87-0.28s0.68-0.17,0.8-0.22
			c0.19-0.07,0.32-0.16,0.41-0.27c0.08-0.11,0.12-0.23,0.12-0.37s-0.04-0.27-0.13-0.39c-0.08-0.12-0.21-0.21-0.39-0.28
			c-0.17-0.07-0.38-0.1-0.6-0.1c-0.26,0-0.49,0.04-0.69,0.13c-0.21,0.09-0.36,0.21-0.45,0.35s-0.16,0.33-0.19,0.55l-0.56-0.05
			C117.76,89.47,117.85,89.2,118,88.96z"/>
		<path d="M122.78,88.33v2.13h2.34v-2.13h0.6v4.51h-0.6v-1.85h-2.34v1.85h-0.6v-4.51H122.78z"/>
		<path d="M128.11,88.33l0.96,3.44c0.04,0.15,0.08,0.32,0.13,0.53c0.01-0.07,0.06-0.24,0.14-0.53l0.95-3.44h0.58l1.24,4.51h-0.6
			l-0.71-2.9c-0.09-0.37-0.17-0.7-0.22-0.98c-0.07,0.5-0.19,1.03-0.35,1.6l-0.65,2.28h-0.72L128,89.8c-0.02-0.07-0.09-0.35-0.2-0.83
			c-0.05,0.31-0.12,0.61-0.19,0.92l-0.69,2.96h-0.61l1.2-4.51L128.11,88.33L128.11,88.33z"/>
		<path d="M136.97,88.33v4.51h-0.55v-1.62c-0.1,0.13-0.22,0.24-0.38,0.33c-0.15,0.08-0.33,0.12-0.53,0.12
			c-0.27,0-0.51-0.07-0.73-0.21s-0.38-0.35-0.49-0.61c-0.11-0.27-0.16-0.56-0.16-0.89s0.06-0.63,0.18-0.89s0.29-0.46,0.51-0.6
			s0.46-0.21,0.72-0.21c0.4,0,0.71,0.16,0.91,0.49v-0.41h0.52V88.33z M134.95,90.91c0.17,0.2,0.37,0.3,0.62,0.3s0.46-0.1,0.64-0.31
			c0.17-0.21,0.26-0.54,0.26-0.98c0-0.41-0.08-0.71-0.25-0.91c-0.17-0.2-0.37-0.3-0.62-0.3c-0.24,0-0.45,0.1-0.62,0.31
			c-0.18,0.21-0.26,0.52-0.26,0.94C134.7,90.39,134.79,90.71,134.95,90.91z"/>
		<path d="M139.73,88.87c-0.14-0.11-0.32-0.16-0.52-0.16c-0.27,0-0.5,0.09-0.68,0.29c-0.18,0.19-0.28,0.46-0.3,0.82h2.44
			c0,0.07,0,0.12,0,0.15c0,0.54-0.14,0.96-0.42,1.25c-0.28,0.3-0.63,0.45-1.07,0.45c-0.45,0-0.82-0.15-1.1-0.46
			s-0.42-0.73-0.42-1.28c0-0.53,0.14-0.94,0.42-1.24c0.28-0.29,0.66-0.44,1.14-0.44c0.38,0,0.69,0.09,0.94,0.28s0.41,0.44,0.5,0.78
			l-0.57,0.07C139.99,89.14,139.88,88.97,139.73,88.87z M138.54,90.96c0.17,0.17,0.39,0.26,0.64,0.26c0.28,0,0.51-0.11,0.69-0.32
			c0.11-0.14,0.18-0.34,0.21-0.62h-1.82C138.28,90.56,138.37,90.79,138.54,90.96z"/>
		<path d="M141.89,88.33v1.71c0,0.23,0.03,0.45,0.09,0.65c0.04,0.13,0.11,0.23,0.21,0.3s0.21,0.11,0.33,0.11
			c0.14,0,0.27-0.04,0.41-0.12l0.19,0.51c-0.19,0.12-0.38,0.18-0.57,0.18c-0.13,0-0.25-0.04-0.36-0.11s-0.23-0.23-0.35-0.46v0.5
			h-0.5v-3.27C141.34,88.33,141.89,88.33,141.89,88.33z"/>
		<path d="M144,88.33v3.27h-0.55v-3.27H144z M144,92.2v0.64h-0.55V92.2H144z"/>
		<path d="M146.26,88.33l1.24,3.27h-0.57l-0.73-1.99c-0.09-0.24-0.16-0.45-0.21-0.62c-0.06,0.23-0.13,0.45-0.21,0.66l-0.7,1.96
			h-0.58l1.24-3.27h0.52V88.33z"/>
		<path d="M150.23,88.33h0.58c-0.07,0.12-0.12,0.26-0.14,0.39s-0.04,0.46-0.04,0.98v0.74c0,0.25-0.01,0.42-0.03,0.51
			c-0.03,0.15-0.09,0.28-0.17,0.38s-0.21,0.18-0.38,0.25s-0.4,0.1-0.68,0.1s-0.53-0.04-0.74-0.12s-0.38-0.19-0.49-0.33
			s-0.19-0.33-0.24-0.56l0.54-0.07c0.06,0.23,0.15,0.39,0.28,0.49c0.12,0.09,0.32,0.14,0.58,0.14c0.28,0,0.49-0.06,0.63-0.19
			c0.1-0.09,0.16-0.25,0.16-0.48c0-0.02,0-0.07,0-0.14c-0.21-0.07-0.54-0.14-0.99-0.19c-0.22-0.03-0.38-0.05-0.49-0.08
			c-0.15-0.04-0.28-0.1-0.4-0.18s-0.21-0.19-0.29-0.32c-0.07-0.13-0.11-0.28-0.11-0.44c0-0.27,0.1-0.5,0.29-0.67
			c0.19-0.18,0.47-0.26,0.83-0.26c0.22,0,0.42,0.04,0.61,0.11s0.39,0.19,0.59,0.37C150.14,88.57,150.18,88.44,150.23,88.33z
			 M150.08,89.76c0-0.24-0.03-0.43-0.09-0.55c-0.08-0.16-0.2-0.29-0.37-0.38s-0.36-0.14-0.57-0.14s-0.38,0.05-0.49,0.15
			s-0.17,0.22-0.17,0.37c0,0.1,0.03,0.18,0.08,0.26s0.12,0.14,0.22,0.18c0.09,0.04,0.25,0.08,0.48,0.11c0.4,0.06,0.7,0.13,0.9,0.21
			v-0.21H150.08z"/>
		<path d="M152.46,88.8c-0.08,0-0.14,0.01-0.19,0.04c-0.04,0.03-0.08,0.06-0.09,0.11c-0.02,0.04-0.03,0.15-0.03,0.3v1.91h0.56v0.43
			h-0.56v1.14l-0.55-0.33v-0.81h-0.41v-0.43h0.41v-1.88c0-0.33,0.02-0.55,0.07-0.65c0.04-0.1,0.12-0.19,0.23-0.25s0.27-0.1,0.47-0.1
			c0.12,0,0.26,0.02,0.42,0.05l-0.08,0.49C152.6,88.81,152.52,88.8,152.46,88.8z"/>
		<path d="M153.8,88.33v3.27h-0.55v-3.27H153.8z M153.8,92.2v0.64h-0.55V92.2H153.8z"/>
		<path d="M156.07,88.33l1.24,3.27h-0.57l-0.73-1.99c-0.09-0.24-0.16-0.45-0.21-0.62c-0.06,0.23-0.13,0.45-0.21,0.66l-0.7,1.96
			h-0.58l1.24-3.27h0.52V88.33z"/>
		<path d="M159.69,88.87c-0.14-0.11-0.32-0.16-0.52-0.16c-0.27,0-0.5,0.09-0.68,0.29c-0.18,0.19-0.28,0.46-0.3,0.82h2.44
			c0,0.07,0,0.12,0,0.15c0,0.54-0.14,0.96-0.42,1.25c-0.28,0.3-0.63,0.45-1.07,0.45c-0.45,0-0.82-0.15-1.1-0.46
			s-0.42-0.73-0.42-1.28c0-0.53,0.14-0.94,0.42-1.24c0.28-0.29,0.66-0.44,1.14-0.44c0.38,0,0.69,0.09,0.94,0.28s0.41,0.44,0.5,0.78
			l-0.57,0.07C159.95,89.14,159.83,88.97,159.69,88.87z M158.5,90.96c0.17,0.17,0.39,0.26,0.64,0.26c0.28,0,0.51-0.11,0.69-0.32
			c0.11-0.14,0.18-0.34,0.21-0.62h-1.82C158.23,90.56,158.33,90.79,158.5,90.96z"/>
	</g>
	<g>
		<path d="M87.43,19.62c0.16-0.24,0.37-0.42,0.65-0.54s0.62-0.18,1.03-0.18c0.32,0,0.61,0.06,0.87,0.18s0.46,0.28,0.59,0.5
			c0.14,0.21,0.21,0.44,0.21,0.68s-0.06,0.46-0.19,0.64c-0.12,0.19-0.32,0.34-0.58,0.46c-0.18,0.08-0.51,0.18-1,0.29
			s-0.79,0.22-0.9,0.32c-0.12,0.1-0.18,0.24-0.18,0.4c0,0.19,0.08,0.35,0.25,0.48s0.43,0.2,0.79,0.2c0.35,0,0.61-0.07,0.79-0.22
			s0.28-0.36,0.31-0.65l0.57,0.04c-0.01,0.26-0.08,0.5-0.22,0.71s-0.33,0.37-0.59,0.47c-0.25,0.11-0.55,0.16-0.88,0.16
			c-0.3,0-0.58-0.05-0.83-0.15s-0.44-0.25-0.57-0.45s-0.19-0.41-0.19-0.64c0-0.21,0.05-0.39,0.16-0.56s0.27-0.31,0.48-0.42
			c0.17-0.09,0.46-0.18,0.87-0.28s0.68-0.17,0.8-0.22c0.19-0.07,0.32-0.16,0.41-0.27s0.12-0.23,0.12-0.37
			c0-0.14-0.04-0.27-0.13-0.39c-0.08-0.12-0.21-0.21-0.39-0.28c-0.17-0.07-0.38-0.1-0.6-0.1c-0.26,0-0.49,0.04-0.69,0.13
			c-0.21,0.09-0.36,0.21-0.45,0.35c-0.1,0.15-0.16,0.33-0.19,0.56l-0.56-0.05C87.19,20.13,87.27,19.86,87.43,19.62z"/>
		<path d="M94.33,19.71c-0.23-0.19-0.51-0.29-0.85-0.29c-0.27,0-0.53,0.07-0.77,0.21s-0.41,0.35-0.52,0.64
			c-0.11,0.29-0.17,0.62-0.17,1c0,0.3,0.05,0.59,0.14,0.87s0.26,0.5,0.49,0.67c0.23,0.17,0.52,0.25,0.87,0.25
			c0.3,0,0.55-0.08,0.75-0.22c0.2-0.15,0.35-0.39,0.46-0.72l0.59,0.14c-0.12,0.42-0.34,0.74-0.64,0.97s-0.69,0.34-1.14,0.34
			c-0.4,0-0.76-0.09-1.09-0.27s-0.59-0.45-0.77-0.8c-0.18-0.35-0.27-0.76-0.27-1.23c0-0.43,0.08-0.83,0.24-1.21
			c0.16-0.38,0.39-0.66,0.7-0.86c0.3-0.2,0.7-0.3,1.19-0.3c0.47,0,0.87,0.13,1.19,0.39c0.33,0.26,0.55,0.63,0.67,1.12l-0.6,0.15
			C94.72,20.18,94.56,19.9,94.33,19.71z"/>
		<path d="M96.18,19.62c0.16-0.24,0.37-0.42,0.65-0.54s0.62-0.18,1.03-0.18c0.32,0,0.61,0.06,0.87,0.18s0.45,0.28,0.59,0.5
			c0.14,0.21,0.21,0.44,0.21,0.68s-0.06,0.46-0.19,0.64s-0.32,0.34-0.58,0.46c-0.18,0.08-0.51,0.18-1,0.29
			c-0.48,0.11-0.78,0.22-0.9,0.32s-0.18,0.24-0.18,0.4c0,0.19,0.08,0.35,0.25,0.48s0.43,0.2,0.79,0.2c0.35,0,0.61-0.07,0.79-0.22
			s0.28-0.36,0.31-0.65l0.57,0.04c-0.01,0.26-0.08,0.5-0.22,0.71s-0.33,0.37-0.59,0.47c-0.25,0.11-0.55,0.16-0.88,0.16
			c-0.3,0-0.58-0.05-0.83-0.15s-0.44-0.25-0.57-0.45s-0.19-0.41-0.19-0.64c0-0.21,0.05-0.39,0.16-0.56s0.27-0.31,0.48-0.42
			c0.17-0.09,0.46-0.18,0.87-0.28s0.68-0.17,0.8-0.22c0.19-0.07,0.32-0.16,0.41-0.27s0.12-0.23,0.12-0.37
			c0-0.14-0.04-0.27-0.13-0.39c-0.08-0.12-0.21-0.21-0.39-0.28c-0.17-0.07-0.38-0.1-0.6-0.1c-0.26,0-0.49,0.04-0.69,0.13
			c-0.21,0.09-0.36,0.21-0.45,0.35c-0.1,0.15-0.16,0.33-0.19,0.56l-0.56-0.05C95.94,20.13,96.02,19.86,96.18,19.62z"/>
		<path d="M101.03,18.98v4.51h-0.6v-4.51H101.03z"/>
		<path d="M102.57,18.98v1.29l0.39,0.38l1.08-1.67h0.68l-1.38,2.05l1.25,1.21h-0.72l-1.31-1.33v2.57h-0.55v-4.51h0.56V18.98z"/>
		<path d="M105.72,18.98v1.78c0,0.42,0.09,0.7,0.26,0.85c0.17,0.15,0.37,0.22,0.61,0.22c0.15,0,0.28-0.03,0.39-0.1
			s0.19-0.16,0.23-0.27s0.06-0.28,0.06-0.51v-1.99h0.55v2.01c0,0.26-0.01,0.44-0.03,0.54c-0.03,0.16-0.09,0.29-0.17,0.41
			c-0.08,0.12-0.21,0.21-0.37,0.28c-0.17,0.07-0.35,0.11-0.54,0.11c-0.45,0-0.8-0.18-1.04-0.54v0.46h-0.5v-3.27h0.55V18.98z"/>
		<path d="M109.23,18.98v3.27h-0.55v-3.27H109.23z M109.23,22.86v0.64h-0.55v-0.64H109.23z"/>
		<path d="M110.75,18.98v2.84h0.64v0.43h-0.64v0.3c0,0.2,0.03,0.33,0.1,0.4s0.19,0.11,0.36,0.11c0.1,0,0.21-0.01,0.33-0.03
			l0.08,0.48c-0.19,0.04-0.36,0.06-0.52,0.06c-0.24,0-0.43-0.04-0.56-0.13c-0.13-0.09-0.23-0.21-0.28-0.35
			c-0.04-0.11-0.06-0.27-0.06-0.49v-0.35h-0.49v-0.43h0.49v-2.84C110.2,18.98,110.75,18.98,110.75,18.98z"/>
		<path d="M113.71,19.52c-0.14-0.11-0.32-0.16-0.52-0.16c-0.27,0-0.5,0.09-0.68,0.29c-0.18,0.19-0.28,0.46-0.3,0.82h2.44
			c0,0.07,0,0.11,0,0.15c0,0.54-0.14,0.96-0.42,1.25c-0.28,0.3-0.63,0.45-1.07,0.45c-0.45,0-0.82-0.15-1.1-0.46
			c-0.28-0.3-0.42-0.73-0.42-1.28c0-0.53,0.14-0.94,0.42-1.24c0.28-0.29,0.66-0.44,1.14-0.44c0.38,0,0.69,0.09,0.94,0.28
			c0.24,0.18,0.41,0.44,0.5,0.78l-0.57,0.07C113.97,19.8,113.86,19.63,113.71,19.52z M112.52,21.61c0.17,0.17,0.39,0.26,0.64,0.26
			c0.28,0,0.51-0.11,0.69-0.32c0.12-0.14,0.18-0.34,0.21-0.62h-1.82C112.25,21.22,112.35,21.44,112.52,21.61z"/>
		<path d="M117.74,18.98v1.83h1.16c0.64,0,1.08,0.13,1.32,0.4s0.37,0.59,0.37,0.97c0,0.22-0.04,0.43-0.14,0.62
			c-0.09,0.19-0.21,0.33-0.36,0.44s-0.33,0.17-0.56,0.21c-0.16,0.03-0.39,0.04-0.69,0.04h-1.7v-4.51H117.74z M117.74,22.96h1.15
			c0.27,0,0.46-0.01,0.56-0.04c0.16-0.04,0.28-0.13,0.38-0.27c0.09-0.13,0.14-0.3,0.14-0.49c0-0.26-0.08-0.46-0.24-0.61
			c-0.16-0.14-0.44-0.22-0.82-0.22h-1.17V22.96z"/>
		<path d="M121.49,19.35c0.28-0.29,0.65-0.44,1.11-0.44c0.29,0,0.55,0.07,0.79,0.2c0.24,0.13,0.42,0.32,0.55,0.56
			c0.13,0.24,0.19,0.57,0.19,0.99c0,0.52-0.14,0.93-0.43,1.22s-0.65,0.44-1.1,0.44c-0.4,0-0.75-0.12-1.03-0.36
			c-0.34-0.29-0.5-0.74-0.5-1.34C121.07,20.06,121.21,19.64,121.49,19.35z M121.91,21.55c0.18,0.21,0.41,0.31,0.69,0.31
			c0.27,0,0.5-0.1,0.68-0.31s0.27-0.51,0.27-0.92c0-0.43-0.09-0.75-0.27-0.96s-0.41-0.31-0.69-0.31s-0.51,0.1-0.69,0.31
			s-0.27,0.52-0.27,0.94C121.64,21.03,121.73,21.35,121.91,21.55z"/>
		<path d="M126.63,19.56c-0.15-0.13-0.33-0.2-0.54-0.2c-0.27,0-0.49,0.1-0.66,0.3s-0.25,0.52-0.25,0.96c0,0.43,0.09,0.75,0.26,0.95
			c0.17,0.2,0.4,0.3,0.68,0.3c0.18,0,0.34-0.06,0.47-0.17c0.13-0.11,0.22-0.28,0.27-0.5l0.54,0.08c-0.06,0.33-0.21,0.58-0.43,0.76
			s-0.52,0.27-0.87,0.27c-0.28,0-0.54-0.07-0.78-0.2c-0.24-0.13-0.42-0.33-0.53-0.6c-0.12-0.26-0.17-0.57-0.17-0.93
			c0-0.55,0.14-0.96,0.41-1.26c0.27-0.29,0.63-0.44,1.08-0.44c0.36,0,0.66,0.11,0.9,0.32c0.25,0.21,0.4,0.51,0.46,0.88l-0.54,0.07
			C126.87,19.9,126.78,19.7,126.63,19.56z"/>
		<path d="M128.49,18.98v1.29l0.39,0.38l1.08-1.67h0.68l-1.38,2.05l1.25,1.21h-0.72l-1.31-1.33v2.57h-0.55v-4.51h0.56V18.98z"/>
		<path d="M132.97,19.52c-0.14-0.11-0.32-0.16-0.52-0.16c-0.27,0-0.5,0.09-0.68,0.29c-0.18,0.19-0.28,0.46-0.3,0.82h2.44
			c0,0.07,0,0.11,0,0.15c0,0.54-0.14,0.96-0.42,1.25c-0.28,0.3-0.63,0.45-1.07,0.45c-0.45,0-0.82-0.15-1.1-0.46
			c-0.28-0.3-0.42-0.73-0.42-1.28c0-0.53,0.14-0.94,0.42-1.24c0.28-0.29,0.66-0.44,1.14-0.44c0.38,0,0.69,0.09,0.94,0.28
			c0.24,0.18,0.41,0.44,0.5,0.78l-0.57,0.07C133.23,19.8,133.12,19.63,132.97,19.52z M131.78,21.61c0.17,0.17,0.39,0.26,0.64,0.26
			c0.28,0,0.51-0.11,0.69-0.32c0.12-0.14,0.18-0.34,0.21-0.62h-1.82C131.51,21.22,131.61,21.44,131.78,21.61z"/>
		<path d="M135.55,19.46c-0.08,0-0.14,0.01-0.19,0.04c-0.04,0.03-0.08,0.06-0.09,0.11s-0.03,0.15-0.03,0.3v1.91h0.56v0.43h-0.56
			v1.14l-0.55-0.33v-0.81h-0.41v-0.43h0.41v-1.88c0-0.33,0.02-0.55,0.07-0.65s0.12-0.19,0.23-0.25s0.27-0.1,0.47-0.1
			c0.12,0,0.26,0.02,0.42,0.05l-0.08,0.49C135.69,19.46,135.61,19.46,135.55,19.46z"/>
		<path d="M88.09,16.77c-0.37-0.2-0.66-0.49-0.87-0.86s-0.31-0.76-0.31-1.17c0-0.4,0.1-0.78,0.31-1.15s0.49-0.66,0.86-0.86
			s0.75-0.31,1.15-0.31s0.79,0.1,1.16,0.31s0.65,0.49,0.86,0.86s0.31,0.75,0.31,1.15s-0.1,0.79-0.31,1.17
			c-0.21,0.37-0.5,0.66-0.87,0.86c-0.37,0.2-0.75,0.3-1.14,0.3S88.46,16.97,88.09,16.77z M90.18,16.43
			c0.31-0.17,0.55-0.41,0.72-0.72s0.26-0.63,0.26-0.97c0-0.33-0.08-0.65-0.26-0.96c-0.17-0.31-0.41-0.55-0.72-0.72
			s-0.63-0.26-0.96-0.26s-0.65,0.09-0.96,0.26s-0.55,0.41-0.72,0.72s-0.26,0.63-0.26,0.96c0,0.34,0.09,0.66,0.26,0.97
			c0.17,0.31,0.42,0.55,0.72,0.72c0.31,0.17,0.63,0.25,0.95,0.25C89.55,16.68,89.87,16.6,90.18,16.43z M89.69,13.94
			c-0.14-0.11-0.3-0.16-0.49-0.16c-0.23,0-0.42,0.08-0.56,0.24s-0.22,0.4-0.22,0.71s0.08,0.55,0.23,0.72S89,15.7,89.23,15.7
			c0.16,0,0.3-0.04,0.42-0.12s0.21-0.2,0.27-0.35l0.37,0.09c-0.07,0.22-0.19,0.4-0.37,0.53s-0.41,0.2-0.68,0.2
			c-0.24,0-0.46-0.05-0.65-0.15c-0.19-0.1-0.34-0.25-0.44-0.45S88,15.01,88,14.74c0-0.41,0.11-0.74,0.34-0.97
			c0.23-0.23,0.52-0.35,0.88-0.35c0.28,0,0.53,0.08,0.73,0.23c0.2,0.15,0.33,0.36,0.39,0.61l-0.38,0.11
			C89.93,14.19,89.83,14.04,89.69,13.94z"/>
		<path d="M92.5,13.01c0.06,0.1,0.14,0.2,0.23,0.3c0.09,0.1,0.31,0.29,0.64,0.57c0.4,0.34,0.68,0.6,0.85,0.79s0.29,0.38,0.37,0.55
			c0.07,0.17,0.11,0.35,0.11,0.53c0,0.35-0.13,0.65-0.38,0.89S93.73,17,93.29,17c-0.43,0-0.77-0.11-1.02-0.33s-0.4-0.55-0.44-0.97
			l0.57-0.06c0,0.28,0.08,0.5,0.24,0.67s0.37,0.24,0.64,0.24c0.25,0,0.46-0.08,0.61-0.23s0.24-0.34,0.24-0.56
			c0-0.21-0.09-0.43-0.26-0.67c-0.17-0.23-0.5-0.55-0.99-0.96c-0.32-0.26-0.56-0.49-0.72-0.68s-0.29-0.4-0.36-0.6
			c-0.05-0.12-0.07-0.25-0.06-0.38h2.98V13H92.5V13.01z"/>
		<path d="M95.75,12.87c0.25-0.31,0.59-0.47,1.02-0.47c0.33,0,0.6,0.09,0.82,0.27s0.38,0.43,0.49,0.75
			c0.11,0.33,0.16,0.75,0.16,1.28c0,0.45-0.03,0.8-0.1,1.07c-0.07,0.26-0.16,0.49-0.28,0.67s-0.27,0.32-0.45,0.42
			s-0.39,0.15-0.64,0.15c-0.33,0-0.6-0.09-0.82-0.26c-0.22-0.18-0.38-0.43-0.49-0.75c-0.11-0.33-0.16-0.75-0.16-1.29
			C95.3,13.86,95.45,13.25,95.75,12.87z M96.16,16.23c0.15,0.21,0.35,0.32,0.61,0.32s0.47-0.12,0.65-0.37
			c0.17-0.24,0.26-0.74,0.26-1.48s-0.09-1.23-0.26-1.48c-0.17-0.25-0.39-0.37-0.64-0.37s-0.47,0.12-0.64,0.37s-0.26,0.74-0.26,1.48
			C95.87,15.45,95.97,15.95,96.16,16.23z"/>
		<path d="M99.5,13.01c0.06,0.1,0.14,0.2,0.23,0.3s0.31,0.29,0.64,0.57c0.4,0.34,0.68,0.6,0.85,0.79s0.29,0.38,0.37,0.55
			c0.07,0.17,0.11,0.35,0.11,0.53c0,0.35-0.13,0.65-0.38,0.89S100.73,17,100.29,17c-0.43,0-0.77-0.11-1.02-0.33s-0.4-0.55-0.44-0.97
			l0.57-0.06c0,0.28,0.08,0.5,0.24,0.67s0.37,0.24,0.64,0.24c0.25,0,0.46-0.08,0.61-0.23c0.16-0.15,0.24-0.34,0.24-0.56
			c0-0.21-0.09-0.43-0.26-0.67c-0.17-0.23-0.5-0.55-0.99-0.96c-0.32-0.26-0.56-0.49-0.72-0.68c-0.17-0.2-0.29-0.4-0.36-0.6
			c-0.05-0.12-0.07-0.25-0.06-0.38h2.98V13H99.5V13.01z"/>
		<path d="M104.64,12.48v1.08h0.61v0.51h-0.61v2.92h-0.45l-2.06-2.92v-0.51h1.96v-1.08H104.64z M102.67,14.07l1.41,2.03v-2.03
			C104.08,14.07,102.67,14.07,102.67,14.07z"/>
		<path d="M107.58,12.48l0.5,1.37h1.89l0.53-1.37h0.68l-1.85,4.51h-0.64l-1.73-4.51H107.58z M108.74,15.66
			c0.1,0.29,0.19,0.57,0.24,0.86c0.07-0.24,0.18-0.56,0.32-0.94l0.47-1.25h-1.53L108.74,15.66z"/>
		<path d="M112.13,12.48v1.78c0,0.42,0.09,0.7,0.26,0.85c0.17,0.15,0.38,0.22,0.61,0.22c0.15,0,0.28-0.03,0.39-0.1
			c0.11-0.07,0.19-0.16,0.23-0.27c0.04-0.11,0.06-0.28,0.06-0.51v-1.99h0.55v2.01c0,0.26-0.01,0.44-0.03,0.54
			c-0.03,0.16-0.09,0.29-0.17,0.41s-0.21,0.21-0.37,0.28c-0.17,0.07-0.35,0.11-0.54,0.11c-0.45,0-0.8-0.18-1.04-0.54v0.46h-0.5
			v-3.27h0.55V12.48z"/>
		<path d="M116.04,12.96c-0.08,0-0.14,0.01-0.19,0.04c-0.04,0.03-0.08,0.06-0.09,0.11s-0.03,0.15-0.03,0.3v1.91h0.56v0.43h-0.56
			v1.14l-0.55-0.33v-0.81h-0.41v-0.43h0.41v-1.88c0-0.33,0.02-0.55,0.07-0.65s0.12-0.19,0.23-0.25s0.27-0.1,0.47-0.1
			c0.12,0,0.26,0.02,0.42,0.05l-0.08,0.49C116.18,12.96,116.1,12.96,116.04,12.96z"/>
		<path d="M117.04,12.85c0.28-0.29,0.65-0.44,1.11-0.44c0.29,0,0.55,0.07,0.79,0.2s0.42,0.32,0.55,0.56
			c0.13,0.24,0.19,0.57,0.19,0.99c0,0.52-0.14,0.93-0.43,1.22s-0.65,0.44-1.1,0.44c-0.4,0-0.75-0.12-1.03-0.36
			c-0.34-0.29-0.5-0.74-0.5-1.34C116.62,13.56,116.76,13.14,117.04,12.85z M117.46,15.05c0.18,0.21,0.41,0.31,0.69,0.31
			c0.27,0,0.5-0.1,0.68-0.31s0.27-0.51,0.27-0.92c0-0.43-0.09-0.75-0.27-0.96s-0.41-0.31-0.69-0.31s-0.51,0.1-0.69,0.31
			s-0.27,0.52-0.27,0.94C117.19,14.53,117.28,14.85,117.46,15.05z"/>
		<path d="M120.89,12.48v3.27h-0.55v-3.27H120.89z M120.89,16.36V17h-0.55v-0.64H120.89z"/>
		<path d="M122.28,12.48v1.78c0,0.42,0.09,0.7,0.26,0.85c0.17,0.15,0.37,0.22,0.61,0.22c0.15,0,0.28-0.03,0.39-0.1
			s0.19-0.16,0.23-0.27c0.04-0.11,0.06-0.28,0.06-0.51v-1.99h0.55v2.01c0,0.26-0.01,0.44-0.03,0.54c-0.03,0.16-0.09,0.29-0.17,0.41
			s-0.21,0.21-0.37,0.28c-0.17,0.07-0.35,0.11-0.54,0.11c-0.45,0-0.8-0.18-1.04-0.54v0.46h-0.5v-3.27h0.55V12.48z"/>
		<path d="M127.13,13.02c-0.14-0.11-0.32-0.16-0.52-0.16c-0.27,0-0.5,0.09-0.68,0.29c-0.18,0.19-0.28,0.46-0.3,0.82h2.44
			c0,0.07,0,0.11,0,0.15c0,0.54-0.14,0.96-0.42,1.25c-0.28,0.3-0.63,0.45-1.07,0.45c-0.45,0-0.82-0.15-1.1-0.46
			c-0.28-0.3-0.42-0.73-0.42-1.28c0-0.53,0.14-0.94,0.42-1.24c0.28-0.29,0.66-0.44,1.14-0.44c0.38,0,0.69,0.09,0.94,0.28
			c0.24,0.18,0.41,0.44,0.5,0.78l-0.57,0.07C127.39,13.3,127.27,13.13,127.13,13.02z M125.94,15.11c0.17,0.17,0.39,0.26,0.64,0.26
			c0.28,0,0.51-0.11,0.69-0.32c0.12-0.14,0.18-0.34,0.21-0.62h-1.82C125.67,14.72,125.77,14.94,125.94,15.11z"/>
		<path d="M132.25,12.48c0.29,0,0.53,0.03,0.73,0.08s0.36,0.12,0.49,0.22s0.24,0.24,0.33,0.42s0.13,0.38,0.13,0.59
			c0,0.26-0.07,0.49-0.22,0.68c-0.15,0.19-0.36,0.33-0.63,0.41c0.21,0.1,0.37,0.24,0.47,0.41c0.11,0.17,0.16,0.35,0.16,0.54
			c0,0.21-0.06,0.41-0.18,0.59s-0.28,0.33-0.49,0.42s-0.48,0.14-0.83,0.14h-1.69v-4.51h1.73V12.48z M131.13,14.57h1.04
			c0.29,0,0.51-0.03,0.66-0.08c0.15-0.05,0.27-0.14,0.36-0.26s0.13-0.27,0.13-0.44c0-0.14-0.03-0.27-0.09-0.38s-0.13-0.19-0.23-0.25
			c-0.09-0.06-0.21-0.1-0.34-0.12c-0.08-0.01-0.21-0.02-0.41-0.02h-1.12L131.13,14.57L131.13,14.57z M131.13,16.46h0.9
			c0.32,0,0.55-0.02,0.69-0.06c0.13-0.04,0.24-0.12,0.31-0.23c0.07-0.11,0.11-0.25,0.11-0.4c0-0.16-0.04-0.29-0.12-0.39
			s-0.19-0.18-0.34-0.22c-0.11-0.04-0.3-0.05-0.57-0.05h-0.97L131.13,16.46L131.13,16.46z"/>
		<path d="M136.58,13.02c-0.14-0.11-0.32-0.16-0.52-0.16c-0.27,0-0.5,0.09-0.68,0.29c-0.18,0.19-0.28,0.46-0.3,0.82h2.44
			c0,0.07,0,0.11,0,0.15c0,0.54-0.14,0.96-0.42,1.25c-0.28,0.3-0.63,0.45-1.07,0.45c-0.45,0-0.82-0.15-1.1-0.46
			c-0.28-0.3-0.42-0.73-0.42-1.28c0-0.53,0.14-0.94,0.42-1.24c0.28-0.29,0.66-0.44,1.14-0.44c0.38,0,0.69,0.09,0.94,0.28
			c0.24,0.18,0.41,0.44,0.5,0.78l-0.57,0.07C136.84,13.3,136.73,13.13,136.58,13.02z M135.4,15.11c0.17,0.17,0.39,0.26,0.64,0.26
			c0.28,0,0.51-0.11,0.69-0.32c0.12-0.14,0.18-0.34,0.21-0.62h-1.82C135.13,14.72,135.22,14.94,135.4,15.11z"/>
		<path d="M138.74,12.48v1.71c0,0.23,0.03,0.45,0.09,0.65c0.04,0.13,0.11,0.23,0.21,0.3c0.1,0.07,0.21,0.11,0.33,0.11
			c0.14,0,0.27-0.04,0.41-0.12l0.19,0.51c-0.19,0.12-0.38,0.18-0.57,0.18c-0.13,0-0.25-0.04-0.36-0.11s-0.23-0.23-0.35-0.46v0.5
			h-0.5v-3.27H138.74z"/>
		<path d="M142.15,13.06c-0.15-0.13-0.33-0.2-0.54-0.2c-0.27,0-0.49,0.1-0.66,0.3s-0.25,0.52-0.25,0.96c0,0.43,0.09,0.75,0.26,0.95
			s0.4,0.3,0.68,0.3c0.18,0,0.34-0.06,0.47-0.17s0.22-0.28,0.27-0.5l0.54,0.08c-0.06,0.33-0.21,0.58-0.43,0.76s-0.52,0.27-0.87,0.27
			c-0.28,0-0.54-0.07-0.78-0.2s-0.42-0.33-0.53-0.6c-0.12-0.26-0.18-0.57-0.18-0.93c0-0.55,0.14-0.96,0.41-1.26
			c0.27-0.29,0.63-0.44,1.08-0.44c0.36,0,0.66,0.11,0.9,0.32c0.25,0.21,0.4,0.51,0.46,0.88l-0.54,0.07
			C142.38,13.4,142.29,13.2,142.15,13.06z"/>
		<path d="M143.66,12.85c0.28-0.29,0.65-0.44,1.11-0.44c0.29,0,0.55,0.07,0.79,0.2c0.24,0.13,0.42,0.32,0.55,0.56
			c0.13,0.24,0.19,0.57,0.19,0.99c0,0.52-0.14,0.93-0.43,1.22s-0.65,0.44-1.1,0.44c-0.4,0-0.75-0.12-1.03-0.36
			c-0.34-0.29-0.5-0.74-0.5-1.34C143.24,13.56,143.38,13.14,143.66,12.85z M144.08,15.05c0.18,0.21,0.41,0.31,0.69,0.31
			c0.27,0,0.5-0.1,0.68-0.31s0.27-0.51,0.27-0.92c0-0.43-0.09-0.75-0.27-0.96s-0.41-0.31-0.69-0.31s-0.51,0.1-0.69,0.31
			s-0.27,0.52-0.27,0.94C143.8,14.53,143.9,14.85,144.08,15.05z"/>
		<path d="M148.37,12.48l1.24,3.27h-0.57l-0.73-1.99c-0.09-0.24-0.16-0.45-0.21-0.62c-0.06,0.23-0.13,0.45-0.21,0.66l-0.7,1.96
			h-0.58l1.24-3.27h0.52V12.48z"/>
		<path d="M150.65,12.48v3.27h-0.55v-3.27H150.65z M150.65,16.36V17h-0.55v-0.64H150.65z"/>
		<path d="M153.35,13.06c-0.15-0.13-0.33-0.2-0.54-0.2c-0.27,0-0.49,0.1-0.66,0.3s-0.25,0.52-0.25,0.96c0,0.43,0.09,0.75,0.26,0.95
			s0.4,0.3,0.68,0.3c0.18,0,0.34-0.06,0.47-0.17s0.22-0.28,0.27-0.5l0.54,0.08c-0.06,0.33-0.21,0.58-0.43,0.76s-0.52,0.27-0.87,0.27
			c-0.28,0-0.54-0.07-0.78-0.2s-0.42-0.33-0.53-0.6c-0.12-0.26-0.18-0.57-0.18-0.93c0-0.55,0.14-0.96,0.41-1.26
			c0.27-0.29,0.63-0.44,1.08-0.44c0.36,0,0.66,0.11,0.9,0.32c0.25,0.21,0.4,0.51,0.46,0.88l-0.54,0.07
			C153.59,13.4,153.5,13.2,153.35,13.06z"/>
		<path d="M155.2,12.48v3.27h-0.55v-3.27H155.2z M155.2,16.36V17h-0.55v-0.64H155.2z"/>
	</g>
</g>
</svg>
