<?xml version="1.0" encoding="utf-8"?>
<!-- Generator: Adobe Illustrator 27.0.0, SVG Export Plug-In . SVG Version: 6.00 Build 0)  -->
<svg version="1.1" id="Calque_1" xmlns="http://www.w3.org/2000/svg" xmlns:xlink="http://www.w3.org/1999/xlink" x="0px" y="0px"
	 viewBox="0 0 172.88 106.64" style="enable-background:new 0 0 172.88 106.64;" xml:space="preserve">
<style type="text/css">
	.st0{fill:none;stroke:#000000;stroke-width:0.1;stroke-miterlimit:10;}
	.st1{fill:none;stroke:#000000;stroke-width:0.36;}
	.st2{fill:none;stroke:#000000;stroke-width:2;stroke-miterlimit:10;}
	.st3{fill:none;stroke:#000000;stroke-miterlimit:10;}
	.st4{fill:none;stroke:#000000;stroke-width:0.98;}
	.st5{fill:none;stroke:#000000;stroke-width:1.7;stroke-miterlimit:10;}
	.st6{fill:none;stroke:#000000;stroke-width:1.7;}
	.st7{fill:none;stroke:#000000;stroke-width:1.7;stroke-linecap:round;stroke-linejoin:round;}
	.st8{fill:none;stroke:#000000;stroke-width:0.5;}
</style>
<path class="st0" d="M164.07,94.99H9.9V16.11c0-3.71,3.01-6.73,6.73-6.73h140.7c3.71,0,6.73,3.01,6.73,6.73v78.88H164.07z"/>
<g>
	<polyline class="st1" points="72.95,57.9 74.29,56.56 78.05,56.56 79.35,57.86 	"/>
	<path class="st1" d="M108.01,40.4l-0.93-0.53H95.09l-9.59,9.59H43.06l-3.75-3.75v-2.55"/>
	<path class="st1" d="M109.85,39.4l-0.91-0.51H95.05l-9.85,9.85H43.39l-2.94-2.94v-3.27"/>
	<path class="st1" d="M106.16,41.41l-0.91-0.51H95.08l-9.28,9.28H42.74l-4.56-4.56v-3.09"/>
	<path class="st1" d="M104.35,42.43l-0.95-0.55h-8.26l-9.03,9.03H42.46l-5.42-5.42v-2.33"/>
	<path class="st1" d="M100.65,44.41l-0.92-0.52h-4.57l-8.46,8.46H41.86l-7.09-7.09v-2.11"/>
	<path class="st1" d="M102.64,43.58l-1.08-0.68h-6.4l-8.74,8.74H42.16l-6.26-6.26v-2.85"/>
	<path class="st1" d="M98.92,45.53l-1.05-0.65H95.2l-8.28,8.22l-45.38-0.03l-7.5-7.5v-1.52l-1.54-1.54"/>
	<path class="st1" d="M96.95,46.4l-0.94-0.54h-0.74l-7.95,7.95h-46.1L33.3,45.9v-1.12l-0.73-0.73"/>
	<path class="st1" d="M42.7,42.62v1.4l3.99,3.99H84.9l2.05-2.05v-1.55"/>
	<path class="st1" d="M43.85,43.36v0.74l3.19,3.19h36.47l1.64-1.66v-1.37l4.59-4.59h1.88"/>
	<path class="st1" d="M118.95,48.93l2.23-2.23V33.2l-1.45-1.45h-6.96l-4.21,4.21H53.13l-0.8,0.8h-0.77"/>
	<path class="st1" d="M118.95,27.11l1.45,1.45v1.65l-0.83,0.83h-7.1l-4.2,4.2H52.73l-0.4,0.4h-1.71"/>
	<path class="st1" d="M118.97,45.77l1.42-1.42V33.46l-0.99-0.99h-6.33l-4.21,4.21H53.51l-1.23,1.23h-1.45"/>
	<path class="st1" d="M46.12,43.36v0.88l1.61,1.61h33.79l8.45-8.45h19.26l4.18-4.18h4.72l0.87,0.87"/>
	<path class="st1" d="M44.97,42.56v1.6l2.42,2.42h34.43l8.43-8.43h20.54l1.53,1.53"/>
	<path class="st1" d="M51.57,34.5h56.41l4.16-4.15h5.96l1.02-1.02"/>
	<circle cx="95.11" cy="47.97" r="0.85"/>
	<circle cx="96.95" cy="49.28" r="0.85"/>
	<circle cx="98.79" cy="47.97" r="0.85"/>
	<circle cx="109.85" cy="49.28" r="0.85"/>
	<circle cx="111.49" cy="62.54" r="0.85"/>
	<circle cx="108.29" cy="62.54" r="0.85"/>
	<circle cx="105.07" cy="62.54" r="0.85"/>
	<circle cx="101.86" cy="57.9" r="0.85"/>
	<circle cx="101.86" cy="62.54" r="0.85"/>
	<circle cx="98.65" cy="57.9" r="0.85"/>
	<circle cx="98.65" cy="62.54" r="0.85"/>
	<circle cx="95.43" cy="57.9" r="0.85"/>
	<circle cx="95.43" cy="62.54" r="0.85"/>
	<circle cx="92.22" cy="57.9" r="0.85"/>
	<circle cx="92.22" cy="62.54" r="0.85"/>
	<circle cx="89.01" cy="57.9" r="0.85"/>
	<circle cx="89.01" cy="62.54" r="0.85"/>
	<circle cx="85.8" cy="57.9" r="0.85"/>
	<circle cx="85.8" cy="62.54" r="0.85"/>
	<circle cx="82.58" cy="57.9" r="0.85"/>
	<circle cx="82.58" cy="62.54" r="0.85"/>
	<circle cx="79.37" cy="57.9" r="0.85"/>
	<circle cx="69.73" cy="62.54" r="0.85"/>
	<circle cx="66.52" cy="57.9" r="0.85"/>
	<circle cx="66.52" cy="62.54" r="0.85"/>
	<circle cx="63.31" cy="57.9" r="0.85"/>
	<circle cx="63.31" cy="62.54" r="0.85"/>
	<circle cx="60.09" cy="57.9" r="0.85"/>
	<circle cx="60.09" cy="62.54" r="0.85"/>
	<circle cx="56.88" cy="57.9" r="0.85"/>
	<circle cx="56.88" cy="62.54" r="0.85"/>
	<circle cx="79.37" cy="62.54" r="0.85"/>
	<circle cx="85.15" cy="45.63" r="0.85"/>
	<circle cx="64.88" cy="27.07" r="0.85"/>
	<circle cx="77.27" cy="27.07" r="0.85"/>
	<circle cx="64.88" cy="25.79" r="0.85"/>
	<circle cx="77.27" cy="25.79" r="0.85"/>
	<circle cx="105.07" cy="57.9" r="0.85"/>
	<circle cx="112.24" cy="42.69" r="0.85"/>
	<circle cx="118.24" cy="42.69" r="0.85"/>
	<circle cx="118.24" cy="36.45" r="0.85"/>
	<circle cx="112.24" cy="36.45" r="0.85"/>
	<circle cx="76.16" cy="62.54" r="0.85"/>
	<circle cx="76.16" cy="57.9" r="0.85"/>
	<circle cx="72.95" cy="57.9" r="0.85"/>
	<circle cx="109.85" cy="39.4" r="0.85"/>
	<circle cx="108" cy="40.4" r="0.85"/>
	<circle cx="106.16" cy="41.4" r="0.85"/>
	<circle cx="104.32" cy="42.41" r="0.85"/>
	<circle cx="102.48" cy="43.41" r="0.85"/>
	<circle cx="100.63" cy="44.41" r="0.85"/>
	<circle cx="98.79" cy="45.41" r="0.85"/>
	<circle cx="96.95" cy="46.41" r="0.85"/>
	<circle cx="53.61" cy="56.98" r="0.85"/>
	<circle cx="53.61" cy="55.28" r="0.85"/>
	<circle cx="86.96" cy="44.43" r="0.85"/>
	<circle cx="91.71" cy="39.65" r="0.85"/>
	<circle cx="112.24" cy="39.57" r="0.85"/>
	<circle cx="118.94" cy="34.04" r="0.85"/>
	<circle cx="118.96" cy="29.49" r="0.85"/>
	<circle cx="118.94" cy="27.1" r="0.85"/>
	<circle cx="118.94" cy="45.8" r="0.85"/>
	<circle cx="118.94" cy="48.92" r="0.85"/>
	<circle cx="26.16" cy="27.91" r="0.5"/>
	<circle cx="50.73" cy="33.37" r="0.5"/>
	<circle cx="51.57" cy="34.5" r="0.5"/>
	<circle cx="50.73" cy="35.64" r="0.5"/>
	<circle cx="51.57" cy="36.77" r="0.5"/>
	<circle cx="50.73" cy="37.91" r="0.5"/>
	<circle cx="46.11" cy="43.36" r="0.5"/>
	<circle cx="44.98" cy="42.52" r="0.5"/>
	<circle cx="43.85" cy="43.36" r="0.5"/>
	<circle cx="42.71" cy="42.52" r="0.5"/>
	<circle cx="16.03" cy="38.66" r="0.5"/>
	<circle cx="17.03" cy="38.66" r="0.5"/>
	<circle cx="19.72" cy="42.91" r="0.5"/>
	<circle cx="19.27" cy="46.3" r="0.5"/>
	<circle cx="22.92" cy="30.7" r="0.5"/>
	<circle cx="22.92" cy="27.7" r="0.5"/>
	<circle cx="22.92" cy="24.7" r="0.5"/>
	<circle cx="22.92" cy="21.7" r="0.5"/>
	<circle cx="19.82" cy="15.7" r="0.5"/>
	<circle cx="19.1" cy="34.41" r="0.5"/>
	<circle cx="18.1" cy="34.41" r="0.5"/>
	<circle cx="39.31" cy="43.15" r="0.5"/>
	<circle cx="40.44" cy="42.52" r="0.5"/>
	<circle cx="37.04" cy="43.16" r="0.5"/>
	<circle cx="38.18" cy="42.53" r="0.5"/>
	<circle cx="34.78" cy="43.16" r="0.5"/>
	<circle cx="35.91" cy="42.53" r="0.5"/>
	<circle cx="32.51" cy="42.52" r="0.5"/>
	<path d="M81.53,27.02c0,0.09,0.01,3.11,0.02,3.19c0.12,0.86,0.85,1.52,1.74,1.52s1.62-0.65,1.75-1.5c0.01-0.09,0.02-3.11,0.02-3.2
		c0-0.97-0.79-1.76-1.77-1.76C82.32,25.26,81.53,26.05,81.53,27.02z"/>
	<path d="M81.53,15.61c0,0.09,0.01,2.27,0.02,2.35c0.12,0.86,0.85,1.52,1.74,1.52s1.62-0.65,1.75-1.5c0.01-0.09,0.02-2.28,0.02-2.37
		c0-0.97-0.79-1.76-1.77-1.76C82.32,13.84,81.53,14.63,81.53,15.61z"/>
	<path d="M57.03,27.02c0,0.09,0.01,3.11,0.02,3.19c0.12,0.86,0.85,1.52,1.74,1.52c0.89,0,1.62-0.65,1.75-1.5
		c0.01-0.09,0.02-3.11,0.02-3.2c0-0.97-0.79-1.76-1.77-1.76C57.82,25.26,57.03,26.05,57.03,27.02z"/>
	<path d="M57.03,15.61c0,0.09,0.01,2.27,0.02,2.35c0.12,0.86,0.85,1.52,1.74,1.52c0.89,0,1.62-0.65,1.75-1.5
		c0.01-0.09,0.02-2.28,0.02-2.37c0-0.97-0.79-1.76-1.77-1.76C57.82,13.84,57.03,14.63,57.03,15.61z"/>
	<circle cx="26.16" cy="26.35" r="0.5"/>
	<circle cx="49.79" cy="15.7" r="0.5"/>
	<circle cx="49.79" cy="12.7" r="0.5"/>
	<circle cx="33.64" cy="18.55" r="0.5"/>
	<circle cx="34.78" cy="17.71" r="0.5"/>
	<circle cx="35.91" cy="18.55" r="0.5"/>
	<circle cx="39.89" cy="18.55" r="0.5"/>
	<circle cx="32.5" cy="43.96" r="0.5"/>
	<circle cx="25.95" cy="17.65" r="0.5"/>
	<circle cx="16.17" cy="42.91" r="0.5"/>
	<circle cx="43.85" cy="18.55" r="0.5"/>
	<circle cx="44.98" cy="17.55" r="0.5"/>
	<circle cx="42.71" cy="17.71" r="0.5"/>
	<circle cx="46.11" cy="18.55" r="0.5"/>
	<path d="M51.57,24.8c-0.27,0-0.5-0.22-0.5-0.5c0-0.27,0.22-0.5,0.5-0.5s0.5,0.22,0.5,0.5C52.07,24.57,51.84,24.8,51.57,24.8"/>
	<circle cx="51.57" cy="26.57" r="0.5"/>
	<circle cx="50.73" cy="27.7" r="0.5"/>
	<circle cx="48.64" cy="28.51" r="0.85"/>
	<circle cx="48.64" cy="25.75" r="0.85"/>
	<circle cx="48.64" cy="31.26" r="0.85"/>
	<circle cx="48.64" cy="23" r="0.85"/>
	<path d="M50.73,25.92c-0.27,0-0.5-0.22-0.5-0.5s0.22-0.5,0.5-0.5s0.5,0.22,0.5,0.5S51,25.92,50.73,25.92"/>
	<circle cx="72.37" cy="23.11" r="0.85"/>
	<circle cx="74.37" cy="22.39" r="0.85"/>
	<circle cx="76.42" cy="21.7" r="0.85"/>
	<circle cx="79.14" cy="21.02" r="0.85"/>
	<circle cx="66.34" cy="39.4" r="0.85"/>
	<circle cx="60.82" cy="39.4" r="0.85"/>
	<circle cx="70.02" cy="41.56" r="0.85"/>
	<circle cx="71.86" cy="44.44" r="0.85"/>
	<circle cx="58.97" cy="43.71" r="0.85"/>
	<circle cx="77.78" cy="43.03" r="0.85"/>
	<circle cx="70.02" cy="39.4" r="0.85"/>
	<circle cx="83.3" cy="39.4" r="0.85"/>
	<circle cx="77.78" cy="39.4" r="0.85"/>
	<polyline class="st1" points="16.18,42.92 21.1,38 21.1,21.52 24.98,17.65 25.95,17.65 	"/>
	<path class="st1" d="M49.79,12.7l-1.12,1.12H32.93l-6.79,6.79v5.7"/>
	<path class="st1" d="M49.79,15.69l-1.13-1.13H33.27l-6.13,6.13v6.25l-0.98,0.98"/>
	<path class="st1" d="M42.79,17.63l1.08-1.08h2.86l0.53,0.53h6.34l3.26,3.26H75.1l1.38,1.38"/>
	<path class="st1" d="M44.98,17.55h1.65l0.26,0.26h6.4l3.26,3.26h16.49l1.24,1.24"/>
	<path class="st1" d="M46.11,18.55h6.85l3.25,3.25h14.85l1.31,1.31"/>
	<polyline class="st1" points="51.57,26.57 49.46,26.57 48.62,25.73 	"/>
	<polyline class="st1" points="50.73,27.7 49.4,27.7 48.65,28.45 	"/>
	<polyline class="st1" points="50.73,25.42 49.8,24.5 49.8,24.19 48.58,22.97 	"/>
	<polyline class="st1" points="51.52,24.32 53.31,22.54 69.69,22.54 71.69,24.55 75.6,24.55 79.08,21.07 	"/>
	<path class="st1" d="M39.88,18.56l0.99,0.99h2.92l2.63,2.63v14l5.36,5.36h12.41l2.19-2.19"/>
	<path class="st1" d="M43.85,18.54l3.29,3.29v14l4.97,4.97h7.29l1.36-1.36"/>
	<path class="st1" d="M35.89,18.52l1.74,1.74h5.81l2.25,2.25v14l5.75,5.75h16.78l0.7-0.7h1.23"/>
	<path class="st1" d="M78.02,43.05h-7.69l-0.66,0.66H58.88"/>
	<path class="st1" d="M34.77,17.76v1.14l2.1,2.1h6.22l1.87,1.87v13.95l7.57,7.57h4.36l0.72-0.72h1.27"/>
	<path class="st1" d="M33.64,18.53v0.68l2.51,2.51h6.58l1.5,1.5V37.1l7.99,7.99H69.9l0.66-0.66h1.06"/>
	<polyline class="st1" points="70.02,39.4 73.57,39.4 75.58,41.41 78.98,41.41 81,39.39 83.3,39.39 	"/>
	<circle cx="127.08" cy="57.54" r="0.85"/>
	<circle cx="141.36" cy="60.15" r="0.85"/>
	<circle cx="149.14" cy="58.88" r="0.85"/>
	<circle cx="105.42" cy="22.66" r="0.85"/>
	<circle cx="92.23" cy="21.9" r="0.85"/>
	<circle cx="92.23" cy="27.19" r="0.85"/>
	<circle cx="57.12" cy="39.4" r="0.85"/>
	<circle cx="37.52" cy="52.32" r="0.85"/>
	<circle cx="90.23" cy="12.96" r="0.85"/>
	<circle cx="22.92" cy="12.7" r="0.5"/>
	<circle cx="34.35" cy="12.7" r="0.5"/>
	<circle cx="40.34" cy="12.7" r="0.5"/>
	<circle cx="40.34" cy="15.7" r="0.5"/>
	<circle cx="53.58" cy="29.67" r="0.5"/>
	<circle cx="43.79" cy="12.7" r="0.5"/>
	<circle cx="34.35" cy="15.7" r="0.5"/>
	<circle cx="28.36" cy="15.7" r="0.5"/>
	<circle cx="28.36" cy="12.7" r="0.5"/>
	<path d="M41.51,42.52h0.14c0,0.29,0.12,0.55,0.31,0.75v1.05l3.65,3.66H43.7l-2.5-2.5v-2.21C41.39,43.07,41.51,42.81,41.51,42.52z"
		/>
	<path d="M47.89,21.52l-1.92-1.92c0.05,0.01,0.1,0.01,0.15,0.01c0.29,0,0.56-0.12,0.76-0.32h5.77l2.49,2.49h-2.13l-1.44,1.45h-0.01
		c-0.48,0-0.89,0.33-1.01,0.78v-0.14l-0.54-0.54c0.04-0.11,0.05-0.22,0.05-0.34c0-0.78-0.63-1.41-1.41-1.41
		c-0.28,0-0.54,0.08-0.76,0.22C47.89,21.8,47.89,21.52,47.89,21.52z"/>
	<path d="M75.43,42.3h-4.2c0.13-0.21,0.21-0.47,0.21-0.74c0-0.44-0.2-0.83-0.51-1.08c0.11-0.09,0.21-0.2,0.29-0.33h2.05L75.43,42.3z
		"/>
	<path d="M91.81,41.06l-3.44,3.44c0.01-0.02,0.01-0.05,0.01-0.07c0-0.63-0.42-1.17-0.99-1.35l2.67-2.67h0.46
		c0.25,0.4,0.69,0.66,1.2,0.66C91.75,41.07,91.78,41.07,91.81,41.06z"/>
	<line class="st2" x1="12.18" y1="79.09" x2="29.46" y2="79.09"/>
	<line class="st2" x1="20.37" y1="88.91" x2="20.37" y2="69"/>
	<line class="st2" x1="145.7" y1="79.09" x2="161.86" y2="79.09"/>
	<line class="st2" x1="153.78" y1="88.09" x2="153.78" y2="70.44"/>
	<line class="st3" x1="83.29" y1="20.47" x2="83.29" y2="13.04"/>
	<line class="st3" x1="80.1" y1="16.66" x2="88.47" y2="16.66"/>
	<line class="st3" x1="55.78" y1="16.66" x2="63.2" y2="16.66"/>
	<line class="st3" x1="58.8" y1="16.66" x2="58.8" y2="12.41"/>
	<line class="st3" x1="58.8" y1="32.81" x2="58.8" y2="24.2"/>
	<line class="st3" x1="58.8" y1="28.49" x2="55.54" y2="28.49"/>
	<line class="st3" x1="83.29" y1="32.88" x2="83.29" y2="24.05"/>
	<line class="st3" x1="83.29" y1="28.49" x2="86.6" y2="28.49"/>
	<line class="st1" x1="48.64" y1="31.26" x2="48.64" y2="33.23"/>
	<line class="st1" x1="48.64" y1="31.26" x2="51.02" y2="31.26"/>
	<line class="st4" x1="18.1" y1="34.41" x2="19.1" y2="34.41"/>
	<line class="st5" x1="77.27" y1="25.79" x2="77.27" y2="27.07"/>
	<line class="st5" x1="64.88" y1="25.79" x2="64.88" y2="27.07"/>
	<line class="st6" x1="53.61" y1="55.28" x2="53.61" y2="56.98"/>
	<path d="M88.89,37.44l-7.67,7.67h-8.11c0.11-0.2,0.17-0.43,0.17-0.67c0-0.23-0.06-0.45-0.16-0.64h3.47
		c0.26,0.39,0.69,0.65,1.19,0.65c0.78,0,1.42-0.64,1.42-1.42c0-0.33-0.11-0.63-0.31-0.87h0.41l2.02-2.02h0.78
		c0.25,0.41,0.7,0.69,1.21,0.69c0.78,0,1.42-0.64,1.42-1.42s-0.64-1.42-1.42-1.42c-0.5,0-0.94,0.26-1.2,0.66H80.7l-2.02,2.02h-0.26
		c0.46-0.23,0.78-0.71,0.78-1.26c0-0.78-0.64-1.42-1.42-1.42s-1.42,0.64-1.42,1.42c0,0.55,0.32,1.03,0.78,1.26h-1.25l-2-2.01h-2.67
		c-0.25-0.4-0.69-0.67-1.19-0.67c-0.79,0-1.42,0.64-1.42,1.42c0,0.43,0.19,0.82,0.5,1.08c-0.12,0.09-0.22,0.21-0.29,0.34h-0.2
		l-0.7,0.69h-2.63l0.73-0.73c0.1,0.03,0.21,0.04,0.32,0.04c0.78,0,1.42-0.64,1.42-1.42s-0.64-1.42-1.42-1.42s-1.42,0.64-1.42,1.42
		c0,0.11,0.01,0.22,0.04,0.32l-1.07,1.07H61.1c0.65-0.13,1.13-0.71,1.13-1.39c0-0.78-0.63-1.42-1.42-1.42
		c-0.78,0-1.41,0.64-1.41,1.42c0,0.11,0.01,0.21,0.04,0.31l-0.35,0.35h-0.73c0.11-0.19,0.17-0.42,0.17-0.66
		c0-0.78-0.63-1.42-1.41-1.42s-1.42,0.64-1.42,1.42c0,0.24,0.06,0.47,0.17,0.66h-3.45l-1.22-1.22c0.1-0.04,0.2-0.11,0.28-0.19h1.11
		l1.23-1.22L88.89,37.44L88.89,37.44z"/>
	<circle cx="12.38" cy="49.89" r="0.85"/>
	<circle cx="12.38" cy="51.53" r="0.85"/>
	<circle cx="12.38" cy="53.16" r="0.85"/>
	<circle cx="12.38" cy="54.8" r="0.85"/>
	<circle cx="12.38" cy="56.43" r="0.85"/>
	<circle cx="12.37" cy="58.13" r="0.85"/>
	<circle cx="12.37" cy="59.76" r="0.85"/>
	<circle cx="12.37" cy="61.4" r="0.85"/>
	<line class="st5" x1="12.38" y1="49.89" x2="12.38" y2="61.4"/>
	<circle cx="26.09" cy="42.91" r="0.85"/>
	<polyline class="st7" points="35.18,53.01 35.18,78.63 45.53,89 84.2,89 87.04,86.26 87.04,79.38 	"/>
	<polyline class="st8" points="89.03,57.92 95.11,51.83 95.11,47.97 	"/>
	<polyline class="st8" points="96.95,49.28 96.95,53.18 92.23,57.91 	"/>
	<polyline class="st8" points="98.79,47.97 98.79,54.53 95.42,57.89 	"/>
	<path class="st1" d="M92.24,57.92l-2.29,2.29H55.94l-5.1,5.1h-8.38l-1.56,1.56v9.21l3.31,3.31"/>
	<path class="st1" d="M88.89,58.04l-1.45,1.45h-31.8l-5.11,5.11h-8.38l-2.02,2.02v13.76l4.12,4.12h3.36"/>
	<path class="st1" d="M95.32,58.03l-2.9,2.9H56.23l-1.67,1.67v6.68l-3.58,3.58v6.36"/>
	<path class="st1" d="M98.65,57.91h-1.04l-3.72,3.72v1.41L93,63.93H65.14l-3.37,3.41v1.94l-3.58,3.58v1.83l-3.54,3.54v5.98"/>
	<path class="st1" d="M105.13,57.91h-1.15l-3.75,3.75v1.54l-2.17,2.17H78.13l-1.97,1.97v1.94l-3.58,3.58v1.83l-3.63,3.63v1.71
		l-4.45,4.45h-3.58"/>
	<path class="st1" d="M57.95,79h3.13l4.31-4.31v-1.83l3.58-3.58v-1.94l2.68-2.69h23.76L97,63.06v-1.33l3.8-3.8h0.98"/>
	<path class="st1" d="M85.79,57.91l-2.08-2.08H56.62l-1.28,1.28v1.66l-5.12,5.12h-8.37l-2.47,2.47v14.35l6.81,6.81h24.14l2.28-2.28
		v-6.27"/>
	<circle cx="43.81" cy="68.32" r="2.27"/>
	<circle cx="47.41" cy="73.7" r="2.27"/>
	<circle cx="43.81" cy="79.09" r="2.27"/>
	<circle cx="47.41" cy="84.47" r="2.27"/>
	<circle cx="20.37" cy="79.09" r="7.09"/>
	<circle cx="153.78" cy="79.09" r="7.09"/>
	<circle cx="51.01" cy="68.32" r="2.27"/>
	<circle cx="54.61" cy="73.7" r="2.27"/>
	<circle cx="51.01" cy="79.09" r="2.27"/>
	<circle cx="54.61" cy="84.47" r="2.27"/>
	<circle cx="58.21" cy="68.32" r="2.27"/>
	<circle cx="61.81" cy="73.7" r="2.27"/>
	<circle cx="58.21" cy="79.09" r="2.27"/>
	<circle cx="61.81" cy="84.47" r="2.27"/>
	<circle cx="65.41" cy="68.32" r="2.27"/>
	<circle cx="69.01" cy="73.7" r="2.27"/>
	<circle cx="65.41" cy="79.09" r="2.27"/>
	<circle cx="69.01" cy="84.47" r="2.27"/>
	<circle cx="72.61" cy="68.32" r="2.27"/>
	<circle cx="76.21" cy="73.7" r="2.27"/>
	<circle cx="72.61" cy="79.09" r="2.27"/>
	<circle cx="76.21" cy="84.47" r="2.27"/>
	<circle cx="79.81" cy="68.32" r="2.27"/>
	<circle cx="83.41" cy="73.7" r="2.27"/>
	<circle cx="79.81" cy="79.09" r="2.27"/>
	<circle cx="83.41" cy="84.47" r="2.27"/>
	<circle cx="87.01" cy="68.32" r="2.27"/>
	<circle cx="90.61" cy="73.7" r="2.27"/>
	<circle cx="87.01" cy="79.09" r="2.27"/>
	<circle cx="90.61" cy="84.47" r="2.27"/>
	<circle cx="94.21" cy="68.32" r="2.27"/>
	<circle cx="97.81" cy="73.7" r="2.27"/>
	<circle cx="94.21" cy="79.09" r="2.27"/>
	<circle cx="97.81" cy="84.47" r="2.27"/>
	<circle cx="101.41" cy="68.32" r="2.27"/>
	<circle cx="105.01" cy="73.7" r="2.27"/>
	<circle cx="101.41" cy="79.09" r="2.27"/>
	<circle cx="105.01" cy="84.47" r="2.27"/>
	<circle cx="108.61" cy="68.32" r="2.27"/>
	<circle cx="112.21" cy="73.7" r="2.27"/>
	<circle cx="108.61" cy="79.09" r="2.27"/>
	<circle cx="112.21" cy="84.47" r="2.27"/>
	<circle cx="115.81" cy="68.32" r="2.27"/>
	<circle cx="119.41" cy="73.7" r="2.27"/>
	<circle cx="115.81" cy="79.09" r="2.27"/>
	<circle cx="119.41" cy="84.47" r="2.27"/>
	<circle cx="123.01" cy="68.32" r="2.27"/>
	<circle cx="126.61" cy="73.7" r="2.27"/>
	<circle cx="123.01" cy="79.09" r="2.27"/>
	<circle cx="126.61" cy="84.47" r="2.27"/>
	<circle cx="130.21" cy="68.32" r="2.27"/>
	<circle cx="130.21" cy="79.09" r="2.27"/>
	<path d="M94.3,49.13v2.37l-5.01,5.02h-0.01c-0.09-0.02-0.18-0.03-0.27-0.03c-0.78,0-1.42,0.63-1.42,1.42
		c0,0.11,0.01,0.22,0.05,0.33l-0.51,0.51h-0.19c0.18-0.23,0.28-0.52,0.28-0.84c0-0.79-0.64-1.42-1.42-1.42
		c-0.11,0-0.22,0.01-0.33,0.04l-1.44-1.44H56.32l-1.29,1.29v-1.1c0-0.26-0.07-0.5-0.2-0.71h32.8l6.14-6.15
		C93.86,48.71,94.05,48.96,94.3,49.13z"/>
	<path d="M54.6,58v0.46l-4.69,4.69h-8.36l-2.91,2.91v14.03l-2.04-2.04V53.38c0.25,0.23,0.58,0.36,0.93,0.36
		c0.69,0,1.28-0.51,1.39-1.17l2,2H52.4c-0.13,0.21-0.2,0.45-0.2,0.71v1.7c0,0.78,0.63,1.42,1.42,1.42C54,58.4,54.35,58.25,54.6,58z"
		/>
	<path d="M28.36,16.76c0.59,0,1.06-0.48,1.06-1.06c0-0.59-0.47-1.06-1.06-1.06c-0.58,0-1.06,0.47-1.06,1.06
		C27.3,16.28,27.78,16.76,28.36,16.76z M32.62,13.08L25.4,20.3v5.31c-0.18,0.2-0.3,0.46-0.3,0.75c0,0.3,0.13,0.58,0.34,0.78
		c-0.21,0.19-0.34,0.47-0.34,0.78c0,0.58,0.48,1.06,1.07,1.06c0.58,0,1.06-0.48,1.06-1.06v-0.01l0.66-0.66V21l5.69-5.69h5.78
		c-0.04,0.12-0.07,0.25-0.07,0.39c0,0.58,0.47,1.06,1.06,1.06c0.58,0,1.06-0.48,1.06-1.06c0-0.14-0.03-0.27-0.07-0.39h7.01
		l0.38,0.38v0.01c0,0.24,0.08,0.47,0.23,0.65h-1.4l-0.53-0.54h-3.47l-0.84,0.84c-0.59,0-1.07,0.48-1.07,1.06
		c0,0.18,0.05,0.36,0.13,0.51l-0.59,0.59l-0.23-0.23c0-0.01,0-0.02,0-0.03c0-0.58-0.48-1.06-1.07-1.06c-0.58,0-1.06,0.48-1.06,1.06
		c0,0.43,0.25,0.79,0.61,0.97h-1.49l-0.97-0.97c0-0.58-0.48-1.06-1.07-1.06c-0.03,0-0.06,0-0.09,0.01c-0.1-0.48-0.53-0.85-1.04-0.85
		c-0.52,0-0.94,0.37-1.04,0.85c-0.03-0.01-0.07-0.01-0.1-0.01c-0.58,0-1.06,0.48-1.06,1.06c0,0.3,0.12,0.56,0.31,0.76v0.22
		l2.96,2.95h6.58l1.07,1.07v13.88l7.68,7.68h-3.14l-1.09-1.09c0.14-0.18,0.23-0.41,0.23-0.66c0-0.58-0.48-1.06-1.06-1.06
		c-0.03,0-0.06,0-0.09,0.01c-0.1-0.48-0.53-0.85-1.05-0.85c-0.51,0-0.94,0.37-1.04,0.85c-0.03-0.01-0.06-0.01-0.09-0.01
		s-0.06,0-0.09,0.01c-0.1-0.48-0.53-0.85-1.04-0.85c-0.38,0-0.72,0.2-0.91,0.5h-0.46c-0.19-0.3-0.53-0.5-0.9-0.5
		c-0.44,0-0.81,0.27-0.98,0.64c-0.05-0.01-0.11-0.01-0.16-0.01c-0.06,0-0.11,0-0.16,0.02c-0.16-0.38-0.53-0.64-0.97-0.64
		c-0.44,0-0.81,0.26-0.98,0.64c-0.05-0.01-0.1-0.01-0.15-0.01s-0.1,0-0.15,0.01c-0.17-0.38-0.55-0.64-0.99-0.64
		c-0.43,0-0.81,0.26-0.98,0.64c-0.05-0.01-0.1-0.01-0.15-0.01c-0.45,0-0.83,0.28-0.98,0.67l-0.23-0.23v-0.01
		c0-0.59-0.47-1.07-1.06-1.07c-0.58,0-1.06,0.48-1.06,1.07c0,0.27,0.11,0.52,0.28,0.71c-0.18,0.19-0.29,0.44-0.29,0.72
		c0,0.59,0.47,1.06,1.06,1.07l0.06,0.06v1.12l4.72,4.72c-0.55,0.09-1,0.52-1.13,1.06c-0.25-0.24-0.59-0.39-0.97-0.39
		c-0.78,0-1.41,0.63-1.41,1.42v25.61c0,0.38,0.15,0.74,0.41,1.01l10.35,10.37c0.26,0.26,0.63,0.41,1,0.41H84.2
		c0.37,0,0.72-0.14,0.98-0.39l2.84-2.75c0.27-0.25,0.42-0.6,0.43-0.96c0.53,0.61,1.3,0.99,2.16,0.99c1.56,0,2.83-1.27,2.83-2.83
		c0-1.57-1.27-2.84-2.83-2.84c-0.86,0-1.63,0.38-2.15,0.99v-1.11c0.83-0.49,1.38-1.4,1.38-2.43c0-1.56-1.27-2.83-2.83-2.83
		s-2.84,1.27-2.84,2.83c0,1.06,0.59,1.98,1.45,2.47v1.15c-0.52-0.65-1.31-1.07-2.21-1.07c-1.56,0-2.84,1.27-2.84,2.84
		c0,1.56,1.28,2.83,2.84,2.83c0.2,0,0.39-0.02,0.57-0.06l-0.35,0.34h-12.3l2.04-2.04v-1.07c0,1.56,1.28,2.83,2.84,2.83
		s2.83-1.27,2.83-2.83c0-1.57-1.27-2.84-2.83-2.84c-1.56,0-2.84,1.27-2.84,2.84v-2.66c1.19-0.33,2.07-1.43,2.07-2.73
		c0-1.56-1.27-2.83-2.83-2.83c-0.21,0-0.41,0.02-0.6,0.07l1.34-1.34h0.33c0.47,0.92,1.43,1.55,2.53,1.55c1.56,0,2.83-1.27,2.83-2.84
		c0-1.56-1.27-2.83-2.83-2.83c-0.22,0-0.44,0.03-0.65,0.08l1.37-1.37h0.34c0.47,0.93,1.43,1.57,2.54,1.57
		c1.56,0,2.83-1.27,2.83-2.83c0-0.88-0.41-1.67-1.04-2.2h3.62c-0.64,0.53-1.05,1.32-1.05,2.2c0,1.56,1.28,2.83,2.84,2.83
		s2.83-1.27,2.83-2.83c0-0.88-0.41-1.67-1.04-2.2h3.62c-0.64,0.53-1.05,1.32-1.05,2.2c0,1.56,1.28,2.83,2.84,2.83
		s2.83-1.27,2.83-2.83c0-0.88-0.41-1.67-1.04-2.2h2.37l2.53-2.54c0.25,0.24,0.59,0.38,0.96,0.38c0.78,0,1.42-0.63,1.42-1.41
		c0-0.79-0.64-1.42-1.42-1.42c-0.02,0-0.03,0-0.05,0.01l2.25-2.25c0.26,0.26,0.62,0.43,1.02,0.43c0.78,0,1.41-0.63,1.41-1.41
		c0-0.79-0.63-1.42-1.41-1.42c-0.51,0-0.96,0.27-1.21,0.67h-0.2l-0.43,0.43c-0.14-0.63-0.71-1.1-1.38-1.1
		c-0.52,0-0.97,0.28-1.21,0.7h-0.13l-0.48,0.48c-0.1-0.67-0.69-1.18-1.39-1.18v-0.66l0.96-0.96v-5.74c0.36-0.25,0.6-0.67,0.6-1.15
		c0-0.57-0.33-1.06-0.81-1.28c0.38-0.19,0.67-0.54,0.76-0.96c0.15,0.06,0.31,0.09,0.48,0.09c0.67,0,1.23-0.47,1.37-1.09
		c0.14,0.06,0.3,0.09,0.47,0.09c0.67,0,1.23-0.47,1.37-1.09c0.14,0.06,0.3,0.09,0.47,0.09c0.67,0,1.23-0.47,1.37-1.09
		c0.15,0.06,0.31,0.09,0.48,0.09c0.67,0,1.23-0.47,1.37-1.1c0.14,0.06,0.3,0.09,0.47,0.09c0.67,0,1.23-0.46,1.38-1.08
		c0.14,0.05,0.3,0.08,0.46,0.08c0.47,0,0.89-0.23,1.15-0.58c0.23,0.45,0.7,0.75,1.24,0.75c0.78,0,1.42-0.64,1.42-1.42
		s-0.64-1.42-1.42-1.42v-0.28c0.78,0,1.42-0.64,1.42-1.42c0-0.66-0.45-1.21-1.06-1.36l1.12-1.11h3.82
		c-0.01,0.02-0.01,0.04-0.01,0.06c0,0.4,0.17,0.77,0.44,1.03c-0.65,0.12-1.15,0.69-1.15,1.38c0,0.78,0.64,1.42,1.42,1.42
		c0.75,0,1.37-0.59,1.41-1.33v7.5l-0.39,0.39c-0.1-0.03-0.2-0.04-0.31-0.04c-0.79,0-1.42,0.64-1.42,1.42s0.63,1.41,1.42,1.41v0.29
		c-0.79,0-1.42,0.63-1.42,1.42c0,0.78,0.63,1.41,1.42,1.41c0.78,0,1.41-0.63,1.41-1.41c0-0.11-0.01-0.21-0.04-0.31l1.61-1.61V32.89
		l-1.57-1.57l0.79-0.79v-2.27l-0.83-0.84c0.03-0.1,0.04-0.21,0.04-0.32c0-0.78-0.63-1.42-1.41-1.42c-0.79,0-1.42,0.64-1.42,1.42
		c0,0.51,0.27,0.96,0.67,1.21c-0.39,0.24-0.65,0.68-0.65,1.18c0,0.04,0,0.08,0.01,0.12h-5.73l-4.16,4.15H52.34
		c-0.2-0.2-0.47-0.32-0.77-0.32c-0.58,0-1.06,0.48-1.06,1.07c0,0.03,0,0.06,0.01,0.09c-0.48,0.1-0.85,0.52-0.85,1.04
		s0.37,0.94,0.85,1.04c-0.01,0.03-0.01,0.06-0.01,0.09s0,0.07,0.01,0.1c-0.32,0.07-0.59,0.28-0.73,0.56l-1.9-1.9v-3.07
		c0.22,0.14,0.48,0.22,0.76,0.22c0.78,0,1.41-0.63,1.41-1.41c0-0.67-0.47-1.24-1.1-1.38c0.63-0.14,1.1-0.7,1.1-1.37
		c0.18,0.16,0.42,0.25,0.67,0.25c0.59,0,1.06-0.48,1.06-1.07c0-0.03,0-0.06-0.01-0.09c0.49-0.09,0.86-0.52,0.86-1.04
		s-0.37-0.95-0.86-1.04c0.01-0.03,0.01-0.07,0.01-0.1s0-0.06-0.01-0.09c0.49-0.09,0.86-0.52,0.86-1.04c0-0.01,0-0.01,0-0.02
		l0.99-0.99h15.75l2,2.01h4.47v0.49v1.28c0,0.78,0.64,1.42,1.42,1.42c0.07,0,0.15-0.01,0.22-0.02c0.42,0.53,1.06,0.87,1.78,0.87
		c0.68,0,1.29-0.3,1.7-0.78c0,0.81,0.01,1.66,0.02,1.73c0.16,1.15,1.15,2.01,2.31,2.01c1.14,0,2.13-0.86,2.3-1.99
		c0.03-0.16,0.03-3.25,0.03-3.28c0-1.29-1.05-2.33-2.33-2.33c-0.89,0-1.67,0.5-2.06,1.24c-0.4-0.68-1.13-1.14-1.97-1.14
		c-0.3,0-0.59,0.06-0.85,0.17c-0.25-0.36-0.68-0.59-1.15-0.59c-0.2,0-0.38,0.04-0.55,0.11l2.09-2.09c0.11,0.03,0.22,0.04,0.33,0.04
		c0.78,0,1.42-0.64,1.42-1.42s-0.64-1.42-1.42-1.42s-1.42,0.64-1.42,1.42c0,0.05,0,0.09,0.01,0.13c-0.22-0.51-0.72-0.86-1.31-0.86
		c-0.1,0-0.2,0.01-0.29,0.03l-0.72-0.72H60.16c0.5-0.35,0.85-0.9,0.95-1.54c0.02-0.16,0.02-2.43,0.02-2.45
		c0-1.29-1.04-2.33-2.33-2.33s-2.33,1.04-2.33,2.33c0,0.02,0,2.29,0.02,2.43c0.09,0.64,0.44,1.2,0.94,1.56h-0.26l-3.26-3.25h-3.29
		c0.15-0.18,0.23-0.41,0.23-0.65c0-0.59-0.47-1.06-1.06-1.06l-0.44-0.44l0.44-0.44c0.59,0,1.06-0.48,1.06-1.06
		c0-0.59-0.47-1.07-1.06-1.07s-1.06,0.48-1.06,1.07v0.01l-0.37,0.37h-7.02c0.04-0.12,0.07-0.25,0.07-0.38
		c0-0.59-0.48-1.07-1.06-1.07c-0.59,0-1.06,0.48-1.06,1.07c0,0.13,0.03,0.26,0.07,0.38C39.36,13.08,32.62,13.08,32.62,13.08z
		 M21.85,38.31V21.84l0.02-0.02c0.06,0.53,0.5,0.94,1.05,0.94c0.59,0,1.06-0.48,1.06-1.06c0-0.55-0.41-0.99-0.94-1.05l2.21-2.21
		c0.18,0.17,0.43,0.28,0.71,0.28c0.58,0,1.06-0.48,1.06-1.06c0-0.59-0.48-1.07-1.06-1.07c-0.29,0-0.56,0.12-0.75,0.31h-0.54
		l-4.31,4.32V37.7l-4.16,4.15c-0.01,0-0.02,0-0.03,0c-0.58,0-1.06,0.48-1.06,1.07c0,0.58,0.48,1.06,1.06,1.06
		c0.59,0,1.07-0.48,1.07-1.06L21.85,38.31z M21.86,24.7c0,0.58,0.47,1.06,1.06,1.06s1.06-0.48,1.06-1.06c0-0.59-0.47-1.06-1.06-1.06
		C22.33,23.64,21.86,24.11,21.86,24.7z M21.86,27.7c0,0.58,0.47,1.06,1.06,1.06s1.06-0.48,1.06-1.06c0-0.59-0.47-1.06-1.06-1.06
		C22.33,26.64,21.86,27.11,21.86,27.7z M21.86,30.7c0,0.59,0.47,1.06,1.06,1.06s1.06-0.47,1.06-1.06s-0.47-1.06-1.06-1.06
		C22.33,29.64,21.86,30.11,21.86,30.7z M17.04,34.41c0,0.59,0.48,1.06,1.07,1.06h1c0.58,0,1.06-0.47,1.06-1.06s-0.48-1.06-1.06-1.06
		h-1C17.52,33.35,17.04,33.82,17.04,34.41z M162.65,93.58H11.32V62.34c0.25,0.29,0.63,0.48,1.06,0.48c0.58,0,1.07-0.35,1.29-0.85
		h0.13v-5.54V54.8v-1.64v-1.63v-1.64v-0.56h-0.12c-0.21-0.5-0.71-0.85-1.29-0.85c-0.43,0-0.81,0.19-1.07,0.49V16.11
		c0-2.93,2.39-5.31,5.32-5.31h140.7c2.93,0,5.31,2.38,5.31,5.31V93.58z M161.44,79.09c0-4.22-3.43-7.65-7.65-7.65
		s-7.66,3.43-7.66,7.65s3.44,7.65,7.66,7.65S161.44,83.31,161.44,79.09z M150.56,58.88c0-0.78-0.64-1.42-1.42-1.42
		s-1.42,0.64-1.42,1.42s0.64,1.42,1.42,1.42S150.56,59.66,150.56,58.88z M148.03,24.83c0-1.56-1.27-2.84-2.84-2.84
		c-1.56,0-2.83,1.28-2.83,2.84s1.27,2.83,2.83,2.83C146.76,27.66,148.03,26.39,148.03,24.83z M148.03,47.37
		c0-1.56-1.27-2.83-2.84-2.83c-1.56,0-2.83,1.27-2.83,2.83s1.27,2.84,2.83,2.84C146.76,50.21,148.03,48.93,148.03,47.37z
		 M142.78,60.15c0-0.78-0.64-1.42-1.42-1.42s-1.42,0.64-1.42,1.42s0.64,1.42,1.42,1.42S142.78,60.93,142.78,60.15z M133.04,68.32
		c0-1.56-1.27-2.84-2.83-2.84s-2.84,1.28-2.84,2.84s1.28,2.83,2.84,2.83S133.04,69.88,133.04,68.32z M133.04,79.09
		c0-1.56-1.27-2.83-2.83-2.83s-2.84,1.27-2.84,2.83c0,1.56,1.28,2.84,2.84,2.84S133.04,80.65,133.04,79.09z M129.44,73.7
		c0-1.56-1.27-2.83-2.83-2.83s-2.84,1.27-2.84,2.83c0,1.57,1.28,2.84,2.84,2.84C128.17,76.54,129.44,75.27,129.44,73.7z
		 M129.44,84.48c0-1.57-1.27-2.84-2.83-2.84s-2.84,1.27-2.84,2.84c0,1.56,1.28,2.83,2.84,2.83
		C128.17,87.31,129.44,86.04,129.44,84.48z M128.5,57.54c0-0.78-0.64-1.42-1.42-1.42s-1.42,0.64-1.42,1.42s0.64,1.42,1.42,1.42
		S128.5,58.32,128.5,57.54z M125.84,68.32c0-1.56-1.27-2.84-2.83-2.84s-2.84,1.28-2.84,2.84s1.28,2.83,2.84,2.83
		S125.84,69.88,125.84,68.32z M125.84,79.09c0-1.56-1.27-2.83-2.83-2.83s-2.84,1.27-2.84,2.83c0,1.56,1.28,2.84,2.84,2.84
		S125.84,80.65,125.84,79.09z M122.24,73.7c0-1.56-1.27-2.83-2.83-2.83s-2.84,1.27-2.84,2.83c0,1.57,1.28,2.84,2.84,2.84
		S122.24,75.27,122.24,73.7z M122.24,84.48c0-1.57-1.27-2.84-2.83-2.84s-2.84,1.27-2.84,2.84c0,1.56,1.28,2.83,2.84,2.83
		S122.24,86.04,122.24,84.48z M118.64,68.32c0-1.56-1.27-2.84-2.83-2.84c-1.56,0-2.84,1.28-2.84,2.84s1.28,2.83,2.84,2.83
		C117.37,71.15,118.64,69.88,118.64,68.32z M118.64,79.09c0-1.56-1.27-2.83-2.83-2.83c-1.56,0-2.84,1.27-2.84,2.83
		c0,1.56,1.28,2.84,2.84,2.84C117.37,81.93,118.64,80.65,118.64,79.09z M115.04,73.7c0-1.56-1.27-2.83-2.83-2.83
		c-1.56,0-2.84,1.27-2.84,2.83c0,1.57,1.28,2.84,2.84,2.84C113.77,76.54,115.04,75.27,115.04,73.7z M115.04,84.48
		c0-1.57-1.27-2.84-2.83-2.84c-1.56,0-2.84,1.27-2.84,2.84c0,1.56,1.28,2.83,2.84,2.83C113.77,87.31,115.04,86.04,115.04,84.48z
		 M112.91,62.55c0-0.79-0.64-1.42-1.42-1.42s-1.41,0.63-1.41,1.42c0,0.78,0.63,1.41,1.41,1.41S112.91,63.33,112.91,62.55z
		 M111.44,68.32c0-1.56-1.27-2.84-2.83-2.84c-1.56,0-2.84,1.28-2.84,2.84s1.28,2.83,2.84,2.83S111.44,69.88,111.44,68.32z
		 M111.44,79.09c0-1.56-1.27-2.83-2.83-2.83c-1.56,0-2.84,1.27-2.84,2.83c0,1.56,1.28,2.84,2.84,2.84
		C110.17,81.93,111.44,80.65,111.44,79.09z M109.71,62.55c0-0.79-0.64-1.42-1.42-1.42s-1.42,0.63-1.42,1.42
		c0,0.78,0.64,1.41,1.42,1.41S109.71,63.33,109.71,62.55z M107.84,73.7c0-1.56-1.27-2.83-2.83-2.83s-2.84,1.27-2.84,2.83
		c0,1.57,1.28,2.84,2.84,2.84S107.84,75.27,107.84,73.7z M107.84,84.48c0-1.57-1.27-2.84-2.83-2.84s-2.84,1.27-2.84,2.84
		c0,1.56,1.28,2.83,2.84,2.83S107.84,86.04,107.84,84.48z M106.84,22.66c0-0.78-0.64-1.42-1.42-1.42S104,21.88,104,22.66
		s0.64,1.42,1.42,1.42S106.84,23.44,106.84,22.66z M106.49,62.55c0-0.79-0.63-1.42-1.41-1.42s-1.42,0.63-1.42,1.42
		c0,0.78,0.64,1.41,1.42,1.41S106.49,63.33,106.49,62.55z M104.24,68.32c0-1.56-1.27-2.84-2.83-2.84s-2.84,1.28-2.84,2.84
		s1.28,2.83,2.84,2.83S104.24,69.88,104.24,68.32z M104.24,79.09c0-1.56-1.27-2.83-2.83-2.83s-2.84,1.27-2.84,2.83
		c0,1.56,1.28,2.84,2.84,2.84S104.24,80.65,104.24,79.09z M100.64,73.7c0-1.56-1.27-2.83-2.83-2.83c-1.56,0-2.84,1.27-2.84,2.83
		c0,1.57,1.28,2.84,2.84,2.84C99.37,76.54,100.64,75.27,100.64,73.7z M100.64,84.48c0-1.57-1.27-2.84-2.83-2.84
		c-1.56,0-2.84,1.27-2.84,2.84c0,1.56,1.28,2.83,2.84,2.83C99.37,87.31,100.64,86.04,100.64,84.48z M97.04,79.09
		c0-1.56-1.27-2.83-2.83-2.83c-1.56,0-2.84,1.27-2.84,2.83c0,1.56,1.28,2.84,2.84,2.84C95.77,81.93,97.04,80.65,97.04,79.09z
		 M93.44,73.7c0-1.56-1.27-2.83-2.83-2.83c-1.56,0-2.84,1.27-2.84,2.83c0,1.57,1.28,2.84,2.84,2.84
		C92.17,76.54,93.44,75.27,93.44,73.7z M93.65,21.91c0-0.78-0.63-1.42-1.42-1.42c-0.78,0-1.41,0.64-1.41,1.42s0.63,1.41,1.41,1.41
		C93.02,23.32,93.65,22.69,93.65,21.91z M93.65,27.19c0-0.78-0.63-1.42-1.42-1.42c-0.78,0-1.41,0.64-1.41,1.42s0.63,1.42,1.41,1.42
		C93.02,28.61,93.65,27.97,93.65,27.19z M91.65,12.96c0-0.78-0.63-1.41-1.42-1.41c-0.78,0-1.41,0.63-1.41,1.41s0.63,1.42,1.41,1.42
		C91.02,14.38,91.65,13.74,91.65,12.96z M85.6,18.06c0.03-0.16,0.03-2.43,0.03-2.45c0-1.29-1.05-2.33-2.33-2.33
		c-1.29,0-2.33,1.04-2.33,2.33c0,0.02,0,2.28,0.02,2.43c0.16,1.14,1.15,2.01,2.31,2.01C84.44,20.05,85.43,19.19,85.6,18.06z
		 M86.24,73.7c0-1.56-1.27-2.83-2.83-2.83s-2.84,1.27-2.84,2.83c0,1.57,1.28,2.84,2.84,2.84S86.24,75.27,86.24,73.7z M82.64,79.09
		c0-1.56-1.27-2.83-2.83-2.83c-1.56,0-2.84,1.27-2.84,2.83c0,1.56,1.28,2.84,2.84,2.84C81.37,81.93,82.64,80.65,82.64,79.09z
		 M66.3,25.89c0.01-0.03,0.01-0.07,0.01-0.1c0-0.78-0.64-1.41-1.42-1.41c-0.47,0-0.9,0.23-1.15,0.59c-0.26-0.11-0.55-0.17-0.85-0.17
		c-0.86,0-1.61,0.48-2,1.19c-0.39-0.77-1.17-1.29-2.09-1.29c-1.29,0-2.33,1.04-2.33,2.33c0,0.03,0,3.11,0.02,3.26
		c0.16,1.15,1.15,2.01,2.31,2.01c1.15,0,2.14-0.86,2.31-1.99c0.01-0.08,0.02-0.98,0.02-1.81c0.42,0.51,1.05,0.84,1.76,0.84
		c0.72,0,1.36-0.34,1.78-0.87c0.07,0.01,0.15,0.02,0.22,0.02c0.78,0,1.42-0.64,1.42-1.42c0-0.03,0-0.06-0.01-0.09
		C66.3,26.98,66.3,25.89,66.3,25.89z M54.64,29.67c0-0.58-0.47-1.06-1.06-1.06s-1.06,0.48-1.06,1.06c0,0.59,0.47,1.07,1.06,1.07
		S54.64,30.26,54.64,29.67z M29.42,12.7c0-0.59-0.47-1.07-1.06-1.07c-0.58,0-1.06,0.48-1.06,1.07c0,0.58,0.48,1.06,1.06,1.06
		C28.95,13.76,29.42,13.28,29.42,12.7z M27.51,42.92c0-0.79-0.63-1.42-1.41-1.42c-0.79,0-1.42,0.63-1.42,1.42
		c0,0.78,0.63,1.41,1.42,1.41C26.88,44.33,27.51,43.7,27.51,42.92z M28.03,79.09c0-4.22-3.44-7.65-7.66-7.65s-7.65,3.43-7.65,7.65
		s3.43,7.65,7.65,7.65S28.03,83.31,28.03,79.09z M23.98,12.7c0-0.59-0.47-1.07-1.06-1.07s-1.06,0.48-1.06,1.07
		c0,0.58,0.47,1.06,1.06,1.06S23.98,13.28,23.98,12.7z M20.89,15.7c0-0.59-0.48-1.06-1.07-1.06c-0.58,0-1.06,0.47-1.06,1.06
		c0,0.58,0.48,1.06,1.06,1.06C20.41,16.76,20.89,16.28,20.89,15.7z"/>
	<line class="st8" x1="79.81" y1="68.32" x2="134.77" y2="68.32"/>
	<line class="st8" x1="76.21" y1="73.7" x2="130.68" y2="73.7"/>
	<line class="st8" x1="76.08" y1="79.09" x2="83.53" y2="79.09"/>
	<line class="st8" x1="90.61" y1="84.47" x2="94.04" y2="84.47"/>
	<line class="st8" x1="90.41" y1="79.09" x2="97.64" y2="79.09"/>
	<line class="st8" x1="76.21" y1="84.47" x2="83.41" y2="84.47"/>
	<line class="st8" x1="76.21" y1="70.68" x2="76.21" y2="77.67"/>
	<line class="st8" x1="83.41" y1="69.8" x2="83.41" y2="77.42"/>
	<line class="st8" x1="79.81" y1="83.24" x2="79.81" y2="75.23"/>
	<line class="st8" x1="79.81" y1="68.32" x2="79.81" y2="72.09"/>
	<line class="st8" x1="87.01" y1="68.32" x2="87.01" y2="72.02"/>
	<line class="st8" x1="94.21" y1="68.32" x2="94.21" y2="72.73"/>
	<line class="st8" x1="101.41" y1="64.4" x2="101.41" y2="72.13"/>
	<line class="st8" x1="97.81" y1="69.23" x2="97.81" y2="77.88"/>
	<line class="st8" x1="94.21" y1="75.37" x2="94.21" y2="82.78"/>
	<line class="st8" x1="90.65" y1="80.81" x2="90.65" y2="88.43"/>
	<line class="st8" x1="76.21" y1="87.44" x2="76.21" y2="80.77"/>
	<line class="st8" x1="83.41" y1="87.44" x2="83.41" y2="80.77"/>
	<line class="st8" x1="105.01" y1="69.16" x2="105.01" y2="77.45"/>
	<line class="st8" x1="112.21" y1="69.69" x2="112.21" y2="77.45"/>
	<line class="st8" x1="119.41" y1="70.08" x2="119.41" y2="77.35"/>
	<line class="st8" x1="115.81" y1="64.15" x2="115.81" y2="71.81"/>
	<line class="st8" x1="108.61" y1="65.03" x2="108.61" y2="73.11"/>
	<line class="st8" x1="123.01" y1="64.33" x2="123.01" y2="72.62"/>
	<line class="st8" x1="130.21" y1="63.97" x2="130.21" y2="72.41"/>
	<line class="st8" x1="126.61" y1="69.76" x2="126.61" y2="77.56"/>
	<line class="st8" x1="90.61" y1="69.55" x2="90.61" y2="78.2"/>
</g>
</svg>
