<?xml version="1.0" encoding="utf-8"?>
<!-- Generator: Adobe Illustrator 27.0.0, SVG Export Plug-In . SVG Version: 6.00 Build 0)  -->
<svg version="1.1" id="Calque_1" xmlns="http://www.w3.org/2000/svg" xmlns:xlink="http://www.w3.org/1999/xlink" x="0px" y="0px"
	 viewBox="0 0 172.88 106.64" style="enable-background:new 0 0 172.88 106.64;" xml:space="preserve">
<style type="text/css">
	.st0{fill:none;stroke:#000000;stroke-width:0.1;stroke-miterlimit:10;}
</style>
<path class="st0" d="M164.07,94.99H9.9V16.11c0-3.71,3.01-6.73,6.73-6.73h140.7c3.71,0,6.73,3.01,6.73,6.73v78.88H164.07z"/>
<g>
	<circle cx="38.74" cy="33.54" r="0.43"/>
	<circle cx="38.74" cy="30.54" r="0.43"/>
	<circle cx="38.74" cy="27.54" r="0.43"/>
	<circle cx="35.74" cy="33.54" r="0.43"/>
	<circle cx="35.74" cy="30.54" r="0.43"/>
	<circle cx="35.74" cy="27.54" r="0.43"/>
	<circle cx="41.74" cy="33.54" r="0.43"/>
	<circle cx="41.74" cy="30.54" r="0.43"/>
	<circle cx="41.74" cy="27.54" r="0.43"/>
	<circle cx="145.19" cy="47.37" r="1.42"/>
	<circle cx="145.19" cy="24.83" r="1.42"/>
	<circle cx="26.16" cy="27.91" r="0.28"/>
	<circle cx="50.73" cy="33.37" r="0.28"/>
	<circle cx="51.57" cy="34.5" r="0.28"/>
	<circle cx="50.73" cy="35.64" r="0.28"/>
	<circle cx="51.57" cy="36.77" r="0.28"/>
	<circle cx="50.73" cy="37.91" r="0.28"/>
	<circle cx="46.11" cy="43.36" r="0.28"/>
	<circle cx="44.98" cy="42.52" r="0.28"/>
	<circle cx="43.85" cy="43.36" r="0.28"/>
	<circle cx="42.71" cy="42.52" r="0.28"/>
	<circle cx="16.03" cy="38.66" r="0.28"/>
	<circle cx="17.03" cy="38.66" r="0.28"/>
	<circle cx="19.72" cy="42.91" r="0.28"/>
	<circle cx="19.27" cy="46.3" r="0.28"/>
	<circle cx="22.92" cy="30.7" r="0.28"/>
	<circle cx="22.92" cy="27.7" r="0.28"/>
	<circle cx="22.92" cy="24.7" r="0.28"/>
	<circle cx="22.92" cy="21.7" r="0.28"/>
	<circle cx="19.82" cy="15.7" r="0.28"/>
	<circle cx="19.1" cy="34.41" r="0.28"/>
	<circle cx="18.1" cy="34.41" r="0.28"/>
	<circle cx="39.31" cy="43.15" r="0.28"/>
	<circle cx="40.44" cy="42.52" r="0.28"/>
	<circle cx="37.04" cy="43.16" r="0.28"/>
	<circle cx="38.18" cy="42.53" r="0.28"/>
	<circle cx="34.78" cy="43.16" r="0.28"/>
	<circle cx="35.91" cy="42.53" r="0.28"/>
	<circle cx="32.51" cy="42.52" r="0.28"/>
	<circle cx="95.11" cy="47.97" r="0.43"/>
	<circle cx="96.95" cy="49.28" r="0.43"/>
	<circle cx="98.79" cy="47.97" r="0.43"/>
	<circle cx="109.85" cy="49.28" r="0.43"/>
	<circle cx="111.49" cy="62.54" r="0.43"/>
	<circle cx="108.29" cy="62.54" r="0.43"/>
	<circle cx="105.07" cy="62.54" r="0.43"/>
	<circle cx="101.86" cy="57.9" r="0.43"/>
	<circle cx="101.86" cy="62.54" r="0.43"/>
	<circle cx="98.65" cy="57.9" r="0.43"/>
	<circle cx="98.65" cy="62.54" r="0.43"/>
	<circle cx="95.43" cy="57.9" r="0.43"/>
	<circle cx="95.43" cy="62.54" r="0.43"/>
	<circle cx="92.22" cy="57.9" r="0.43"/>
	<circle cx="92.22" cy="62.54" r="0.43"/>
	<circle cx="89.01" cy="57.9" r="0.43"/>
	<circle cx="89.01" cy="62.54" r="0.43"/>
	<circle cx="85.8" cy="57.9" r="0.43"/>
	<circle cx="85.8" cy="62.54" r="0.43"/>
	<circle cx="82.58" cy="57.9" r="0.43"/>
	<circle cx="82.58" cy="62.54" r="0.43"/>
	<circle cx="79.37" cy="57.9" r="0.43"/>
	<circle cx="69.73" cy="62.54" r="0.43"/>
	<circle cx="66.52" cy="57.9" r="0.43"/>
	<circle cx="66.52" cy="62.54" r="0.43"/>
	<circle cx="63.31" cy="57.9" r="0.43"/>
	<circle cx="63.31" cy="62.54" r="0.43"/>
	<circle cx="60.09" cy="57.9" r="0.43"/>
	<circle cx="60.09" cy="62.54" r="0.43"/>
	<circle cx="56.88" cy="57.9" r="0.43"/>
	<circle cx="56.88" cy="62.54" r="0.43"/>
	<circle cx="79.37" cy="62.54" r="0.43"/>
	<circle cx="85.15" cy="45.63" r="0.43"/>
	<circle cx="62.88" cy="27.07" r="0.85"/>
	<circle cx="79.27" cy="27.07" r="0.85"/>
	<path d="M82.37,27c0,0.04,0,3.08,0.01,3.12c0.06,0.45,0.45,0.79,0.91,0.79c0.46,0,0.85-0.34,0.91-0.79
		c0.01-0.04,0.01-3.08,0.01-3.13c0-0.51-0.41-0.92-0.92-0.92C82.78,26.08,82.37,26.49,82.37,27z"/>
	<path d="M82.37,15.58c0,0.04,0,2.25,0.01,2.29c0.06,0.45,0.45,0.79,0.91,0.79c0.46,0,0.85-0.34,0.91-0.79
		c0.01-0.04,0.01-2.25,0.01-2.3c0-0.51-0.41-0.92-0.92-0.92C82.78,14.66,82.37,15.07,82.37,15.58z"/>
	<path d="M57.88,27c0,0.04,0,3.08,0.01,3.12c0.06,0.45,0.45,0.79,0.91,0.79s0.85-0.34,0.91-0.79c0.01-0.04,0.01-3.08,0.01-3.13
		c0-0.51-0.41-0.92-0.92-0.92C58.29,26.08,57.88,26.49,57.88,27z"/>
	<path d="M57.88,15.58c0,0.04,0,2.25,0.01,2.29c0.06,0.45,0.45,0.79,0.91,0.79s0.85-0.34,0.91-0.79c0.01-0.04,0.01-2.25,0.01-2.3
		c0-0.51-0.41-0.92-0.92-0.92C58.29,14.66,57.88,15.07,57.88,15.58z"/>
	<circle cx="64.88" cy="27.07" r="0.43"/>
	<circle cx="77.27" cy="27.07" r="0.43"/>
	<circle cx="64.88" cy="25.79" r="0.43"/>
	<circle cx="77.27" cy="25.79" r="0.43"/>
	<circle cx="105.07" cy="57.9" r="0.43"/>
	<circle cx="35.18" cy="55.99" r="0.43"/>
	<circle cx="112.24" cy="42.69" r="0.43"/>
	<circle cx="118.24" cy="42.69" r="0.43"/>
	<circle cx="118.24" cy="36.45" r="0.43"/>
	<circle cx="112.24" cy="36.45" r="0.43"/>
	<circle cx="76.16" cy="62.54" r="0.43"/>
	<circle cx="76.16" cy="57.9" r="0.43"/>
	<circle cx="72.95" cy="57.9" r="0.43"/>
	<circle cx="109.85" cy="39.4" r="0.43"/>
	<circle cx="108" cy="40.4" r="0.43"/>
	<circle cx="106.16" cy="41.4" r="0.43"/>
	<circle cx="104.32" cy="42.41" r="0.43"/>
	<circle cx="102.48" cy="43.41" r="0.43"/>
	<circle cx="100.63" cy="44.41" r="0.43"/>
	<circle cx="98.79" cy="45.41" r="0.43"/>
	<circle cx="96.95" cy="46.41" r="0.43"/>
	<circle cx="35.18" cy="53.01" r="0.43"/>
	<circle cx="53.61" cy="56.98" r="0.43"/>
	<circle cx="53.61" cy="55.28" r="0.43"/>
	<circle cx="86.96" cy="44.43" r="0.43"/>
	<circle cx="91.71" cy="39.65" r="0.43"/>
	<circle cx="112.24" cy="39.57" r="0.43"/>
	<circle cx="118.94" cy="34.04" r="0.43"/>
	<circle cx="118.96" cy="29.49" r="0.43"/>
	<circle cx="118.94" cy="27.1" r="0.43"/>
	<circle cx="118.94" cy="45.8" r="0.43"/>
	<circle cx="118.94" cy="48.92" r="0.43"/>
	<circle cx="26.16" cy="26.35" r="0.28"/>
	<circle cx="49.79" cy="15.7" r="0.28"/>
	<circle cx="49.79" cy="12.7" r="0.28"/>
	<circle cx="33.64" cy="18.55" r="0.28"/>
	<circle cx="34.78" cy="17.71" r="0.28"/>
	<circle cx="35.91" cy="18.55" r="0.28"/>
	<circle cx="39.89" cy="18.55" r="0.28"/>
	<circle cx="32.5" cy="43.96" r="0.28"/>
	<circle cx="25.95" cy="17.65" r="0.28"/>
	<circle cx="16.17" cy="42.91" r="0.28"/>
	<circle cx="43.85" cy="18.55" r="0.28"/>
	<circle cx="44.98" cy="17.55" r="0.28"/>
	<circle cx="42.71" cy="17.71" r="0.28"/>
	<circle cx="46.11" cy="18.55" r="0.28"/>
	<circle cx="51.57" cy="24.3" r="0.28"/>
	<circle cx="51.57" cy="26.57" r="0.28"/>
	<circle cx="50.73" cy="27.7" r="0.28"/>
	<circle cx="50.73" cy="25.42" r="0.28"/>
	<circle cx="72.37" cy="23.11" r="0.43"/>
	<circle cx="74.37" cy="22.39" r="0.43"/>
	<circle cx="76.42" cy="21.7" r="0.43"/>
	<circle cx="79.14" cy="21.02" r="0.43"/>
	<circle cx="66.34" cy="39.4" r="0.43"/>
	<circle cx="60.82" cy="39.4" r="0.43"/>
	<circle cx="70.02" cy="41.56" r="0.43"/>
	<circle cx="71.86" cy="44.44" r="0.43"/>
	<circle cx="58.96" cy="43.71" r="0.43"/>
	<circle cx="77.78" cy="43.03" r="0.43"/>
	<circle cx="70.02" cy="39.4" r="0.43"/>
	<circle cx="83.3" cy="39.4" r="0.43"/>
	<circle cx="77.78" cy="39.4" r="0.43"/>
	<circle cx="127.08" cy="57.54" r="0.43"/>
	<circle cx="141.36" cy="60.15" r="0.43"/>
	<circle cx="149.14" cy="58.88" r="0.43"/>
	<circle cx="105.42" cy="22.66" r="0.43"/>
	<circle cx="92.23" cy="21.9" r="0.43"/>
	<circle cx="92.23" cy="27.19" r="0.43"/>
	<circle cx="57.12" cy="39.4" r="0.43"/>
	<circle cx="37.52" cy="52.32" r="0.43"/>
	<circle cx="90.23" cy="12.96" r="0.43"/>
	<circle cx="22.92" cy="12.7" r="0.28"/>
	<circle cx="34.35" cy="12.7" r="0.28"/>
	<circle cx="40.34" cy="12.7" r="0.28"/>
	<circle cx="40.34" cy="15.7" r="0.28"/>
	<circle cx="43.79" cy="12.7" r="0.28"/>
	<circle cx="53.58" cy="29.67" r="0.28"/>
	<circle cx="22.63" cy="61.4" r="0.43"/>
	<circle cx="18.09" cy="59.76" r="0.43"/>
	<circle cx="18.09" cy="58.13" r="0.43"/>
	<circle cx="22.63" cy="59.76" r="0.43"/>
	<circle cx="22.63" cy="58.13" r="0.43"/>
	<circle cx="18.09" cy="61.4" r="0.43"/>
	<circle cx="12.38" cy="56.43" r="0.43"/>
	<circle cx="12.37" cy="59.76" r="0.43"/>
	<circle cx="12.37" cy="58.13" r="0.43"/>
	<circle cx="12.38" cy="54.8" r="0.43"/>
	<circle cx="12.38" cy="53.16" r="0.43"/>
	<circle cx="12.37" cy="61.4" r="0.43"/>
	<circle cx="12.38" cy="49.89" r="0.43"/>
	<circle cx="12.38" cy="51.53" r="0.43"/>
	<circle cx="34.35" cy="15.7" r="0.28"/>
	<circle cx="28.36" cy="15.7" r="0.28"/>
	<circle cx="28.36" cy="12.7" r="0.28"/>
	<circle cx="12.37" cy="92.4" r="0.43"/>
	<circle cx="22.37" cy="92.4" r="0.43"/>
	<circle cx="32.37" cy="92.4" r="0.43"/>
	<circle cx="42.37" cy="92.4" r="0.43"/>
	<circle cx="52.37" cy="92.4" r="0.43"/>
	<circle cx="62.38" cy="92.4" r="0.43"/>
	<circle cx="72.38" cy="92.4" r="0.43"/>
	<circle cx="82.38" cy="92.4" r="0.43"/>
	<circle cx="92.38" cy="92.4" r="0.43"/>
	<circle cx="102.38" cy="92.4" r="0.43"/>
	<circle cx="112.38" cy="92.4" r="0.43"/>
	<circle cx="122.38" cy="92.4" r="0.43"/>
	<circle cx="132.38" cy="92.4" r="0.43"/>
	<circle cx="142.38" cy="92.4" r="0.43"/>
	<circle cx="152.38" cy="92.4" r="0.43"/>
	<circle cx="161.38" cy="92.4" r="0.43"/>
	<circle cx="161.38" cy="67.4" r="0.43"/>
	<circle cx="60.68" cy="11.91" r="0.43"/>
	<circle cx="70.68" cy="11.91" r="0.43"/>
	<circle cx="80.68" cy="11.91" r="0.43"/>
	<circle cx="112.38" cy="11.91" r="0.43"/>
	<circle cx="122.38" cy="11.91" r="0.43"/>
	<circle cx="132.38" cy="11.91" r="0.43"/>
	<circle cx="152.38" cy="11.91" r="0.43"/>
	<circle cx="12.37" cy="66.97" r="0.43"/>
	<circle cx="12.37" cy="44.97" r="0.43"/>
	<circle cx="12.37" cy="28.43" r="0.43"/>
	<circle cx="12.37" cy="18.01" r="0.43"/>
	<circle cx="18.18" cy="11.91" r="0.43"/>
	<circle cx="18.09" cy="19.77" r="0.43"/>
	<circle cx="28.37" cy="40.53" r="0.43"/>
	<circle cx="50.84" cy="21.18" r="0.43"/>
	<circle cx="38.37" cy="56.62" r="0.43"/>
	<circle cx="38.37" cy="62.9" r="0.43"/>
	<circle cx="100.63" cy="18.07" r="0.43"/>
	<circle cx="95.11" cy="18.07" r="0.43"/>
	<circle cx="100.63" cy="27.94" r="0.43"/>
	<circle cx="104.32" cy="27.94" r="0.43"/>
	<circle cx="91.08" cy="52.96" r="0.43"/>
	<circle cx="88.41" cy="28.66" r="0.28"/>
	<path d="M88.41,14.86c0.16,0,0.28,0.13,0.28,0.28s-0.13,0.28-0.28,0.28c-0.16,0-0.28-0.13-0.28-0.28S88.25,14.86,88.41,14.86z"/>
	<circle cx="95.07" cy="27.19" r="0.43"/>
	<circle cx="79.7" cy="44.24" r="0.43"/>
	<circle cx="72.28" cy="41.56" r="0.43"/>
	<circle cx="83.3" cy="41.83" r="0.43"/>
	<circle cx="51.76" cy="31.03" r="0.28"/>
	<circle cx="26.09" cy="42.91" r="0.43"/>
	<circle cx="20.37" cy="79.09" r="4.25"/>
	<circle cx="153.78" cy="79.09" r="4.25"/>
	<circle cx="43.81" cy="68.32" r="1.42"/>
	<circle cx="47.41" cy="73.7" r="1.42"/>
	<circle cx="43.81" cy="79.09" r="1.42"/>
	<circle cx="47.41" cy="84.47" r="1.42"/>
	<circle cx="51.01" cy="68.32" r="1.42"/>
	<circle cx="54.61" cy="73.7" r="1.42"/>
	<circle cx="51.01" cy="79.09" r="1.42"/>
	<circle cx="54.61" cy="84.47" r="1.42"/>
	<circle cx="58.21" cy="68.32" r="1.42"/>
	<circle cx="61.81" cy="73.7" r="1.42"/>
	<circle cx="58.21" cy="79.09" r="1.42"/>
	<circle cx="61.81" cy="84.47" r="1.42"/>
	<circle cx="65.41" cy="68.32" r="1.42"/>
	<circle cx="69.01" cy="73.7" r="1.42"/>
	<circle cx="65.41" cy="79.09" r="1.42"/>
	<circle cx="69.01" cy="84.47" r="1.42"/>
	<circle cx="72.61" cy="68.32" r="1.42"/>
	<circle cx="76.21" cy="73.7" r="1.42"/>
	<circle cx="72.61" cy="79.09" r="1.42"/>
	<circle cx="76.21" cy="84.47" r="1.42"/>
	<circle cx="79.81" cy="68.32" r="1.42"/>
	<circle cx="83.41" cy="73.7" r="1.42"/>
	<circle cx="79.81" cy="79.09" r="1.42"/>
	<circle cx="83.41" cy="84.47" r="1.42"/>
	<circle cx="87.01" cy="68.32" r="1.42"/>
	<circle cx="90.61" cy="73.7" r="1.42"/>
	<circle cx="87.01" cy="79.09" r="1.42"/>
	<circle cx="90.61" cy="84.47" r="1.42"/>
	<circle cx="94.21" cy="68.32" r="1.42"/>
	<circle cx="97.81" cy="73.7" r="1.42"/>
	<circle cx="94.21" cy="79.09" r="1.42"/>
	<circle cx="97.81" cy="84.47" r="1.42"/>
	<circle cx="101.41" cy="68.32" r="1.42"/>
	<circle cx="105.01" cy="73.7" r="1.42"/>
	<circle cx="101.41" cy="79.09" r="1.42"/>
	<circle cx="105.01" cy="84.47" r="1.42"/>
	<circle cx="108.61" cy="68.32" r="1.42"/>
	<circle cx="112.21" cy="73.7" r="1.42"/>
	<circle cx="108.61" cy="79.09" r="1.42"/>
	<circle cx="112.21" cy="84.47" r="1.42"/>
	<circle cx="115.81" cy="68.32" r="1.42"/>
	<circle cx="119.41" cy="73.7" r="1.42"/>
	<circle cx="115.81" cy="79.09" r="1.42"/>
	<circle cx="119.41" cy="84.47" r="1.42"/>
	<circle cx="123.01" cy="68.32" r="1.42"/>
	<circle cx="126.61" cy="73.7" r="1.42"/>
	<circle cx="123.01" cy="79.09" r="1.42"/>
	<circle cx="126.61" cy="84.47" r="1.42"/>
	<circle cx="130.21" cy="68.32" r="1.42"/>
	<circle cx="130.21" cy="79.09" r="1.42"/>
	<circle cx="161.38" cy="46.97" r="0.43"/>
	<circle cx="161.38" cy="36.97" r="0.43"/>
	<circle cx="161.38" cy="26.97" r="0.43"/>
</g>
</svg>
