<?xml version="1.0" encoding="utf-8"?>
<!-- Generator: Adobe Illustrator 27.0.0, SVG Export Plug-In . SVG Version: 6.00 Build 0)  -->
<svg version="1.1" id="Calque_1" xmlns="http://www.w3.org/2000/svg" xmlns:xlink="http://www.w3.org/1999/xlink" x="0px" y="0px"
	 viewBox="0 0 172.88 106.64" style="enable-background:new 0 0 172.88 106.64;" xml:space="preserve">
<style type="text/css">
	.st0{fill:none;stroke:#000000;stroke-width:0.1;stroke-miterlimit:10;}
	.st1{fill:none;stroke:#000000;stroke-width:1.7;stroke-linecap:round;stroke-linejoin:round;}
	.st2{fill:none;stroke:#000000;stroke-linecap:round;stroke-linejoin:round;}
	.st3{fill:none;stroke:#000000;stroke-width:1.7;}
	.st4{fill:none;stroke:#000000;stroke-width:0.98;}
	.st5{fill:none;stroke:#000000;stroke-width:0.36;}
</style>
<path class="st0" d="M164.07,94.99H9.9V16.11c0-3.71,3.01-6.73,6.73-6.73h140.7c3.71,0,6.73,3.01,6.73,6.73v78.88H164.07z"/>
<g>
	<polyline class="st1" points="53.61,56.98 53.61,39.93 64.92,28.62 77.27,28.62 77.27,25.79 	"/>
	<line class="st1" x1="64.88" y1="25.79" x2="64.88" y2="28.62"/>
	<polyline class="st2" points="22.92,24.7 24.51,26.29 24.51,30.55 31.99,38.04 45.65,38.04 46.27,37.42 46.27,33.35 49.95,29.68 
		53.58,29.68 	"/>
	<path d="M45,24c0.16,0,0.28,0.13,0.28,0.28v12.5c0,0.16-0.13,0.28-0.28,0.28H32.5c-0.16,0-0.28-0.13-0.28-0.28v-12.5
		c0-0.16,0.13-0.28,0.28-0.28C32.5,24,45,24,45,24z"/>
	<line class="st2" x1="22.92" y1="30.7" x2="24.51" y2="30.7"/>
	<circle cx="104.32" cy="27.94" r="0.85"/>
	<circle cx="100.63" cy="27.94" r="0.85"/>
	<circle cx="100.63" cy="18.07" r="0.85"/>
	<circle cx="95.11" cy="18.07" r="0.85"/>
	<circle cx="112.38" cy="11.91" r="0.85"/>
	<circle cx="122.38" cy="11.91" r="0.85"/>
	<circle cx="132.38" cy="11.91" r="0.85"/>
	<circle cx="152.38" cy="11.91" r="0.85"/>
	<circle cx="161.38" cy="26.97" r="0.85"/>
	<circle cx="161.38" cy="36.97" r="0.85"/>
	<circle cx="161.38" cy="46.97" r="0.85"/>
	<circle cx="161.38" cy="92.4" r="0.85"/>
	<circle cx="152.38" cy="92.4" r="0.85"/>
	<circle cx="142.38" cy="92.4" r="0.85"/>
	<circle cx="132.38" cy="92.4" r="0.85"/>
	<circle cx="122.38" cy="92.4" r="0.85"/>
	<circle cx="112.38" cy="92.4" r="0.85"/>
	<circle cx="102.38" cy="92.4" r="0.85"/>
	<circle cx="92.38" cy="92.4" r="0.85"/>
	<circle cx="82.38" cy="92.4" r="0.85"/>
	<circle cx="72.38" cy="92.4" r="0.85"/>
	<circle cx="62.38" cy="92.4" r="0.85"/>
	<circle cx="52.37" cy="92.4" r="0.85"/>
	<circle cx="42.37" cy="92.4" r="0.85"/>
	<circle cx="32.37" cy="92.4" r="0.85"/>
	<circle cx="22.37" cy="92.4" r="0.85"/>
	<circle cx="12.37" cy="92.4" r="0.85"/>
	<circle cx="18.09" cy="58.13" r="0.85"/>
	<circle cx="18.09" cy="59.76" r="0.85"/>
	<circle cx="18.09" cy="61.4" r="0.85"/>
	<circle cx="22.63" cy="58.13" r="0.85"/>
	<circle cx="22.63" cy="59.76" r="0.85"/>
	<circle cx="22.63" cy="61.4" r="0.85"/>
	<circle cx="38.37" cy="56.62" r="0.85"/>
	<circle cx="38.37" cy="62.9" r="0.85"/>
	<circle cx="28.37" cy="40.53" r="0.85"/>
	<circle cx="18.09" cy="19.77" r="0.85"/>
	<circle cx="12.37" cy="18.01" r="0.85"/>
	<circle cx="12.37" cy="28.43" r="0.85"/>
	<circle cx="12.37" cy="44.97" r="0.85"/>
	<circle cx="18.18" cy="11.91" r="0.85"/>
	<circle cx="50.84" cy="21.18" r="0.85"/>
	<circle cx="60.68" cy="11.91" r="0.85"/>
	<circle cx="70.68" cy="11.91" r="0.85"/>
	<circle cx="80.68" cy="11.91" r="0.85"/>
	<circle cx="83.3" cy="41.83" r="0.85"/>
	<circle cx="91.08" cy="52.96" r="0.85"/>
	<circle cx="79.7" cy="44.24" r="0.85"/>
	<circle cx="72.28" cy="41.56" r="0.85"/>
	<circle cx="95.11" cy="47.97" r="0.85"/>
	<circle cx="96.95" cy="49.28" r="0.85"/>
	<circle cx="98.79" cy="47.97" r="0.85"/>
	<circle cx="109.85" cy="49.28" r="0.85"/>
	<circle cx="101.86" cy="57.9" r="0.85"/>
	<circle cx="98.65" cy="57.9" r="0.85"/>
	<circle cx="95.43" cy="57.9" r="0.85"/>
	<circle cx="92.22" cy="57.9" r="0.85"/>
	<circle cx="89.01" cy="57.9" r="0.85"/>
	<circle cx="85.8" cy="57.9" r="0.85"/>
	<circle cx="82.58" cy="57.9" r="0.85"/>
	<circle cx="79.37" cy="57.9" r="0.85"/>
	<circle cx="66.52" cy="57.9" r="0.85"/>
	<circle cx="63.31" cy="57.9" r="0.85"/>
	<circle cx="60.09" cy="57.9" r="0.85"/>
	<circle cx="56.88" cy="57.9" r="0.85"/>
	<circle cx="79.37" cy="62.54" r="0.85"/>
	<circle cx="85.15" cy="45.63" r="0.85"/>
	<circle cx="64.88" cy="27.07" r="0.85"/>
	<circle cx="77.27" cy="27.07" r="0.85"/>
	<circle cx="64.88" cy="25.79" r="0.85"/>
	<circle cx="77.27" cy="25.79" r="0.85"/>
	<circle cx="105.07" cy="57.9" r="0.85"/>
	<circle cx="35.18" cy="55.99" r="0.85"/>
	<circle cx="112.24" cy="42.69" r="0.85"/>
	<circle cx="118.24" cy="42.69" r="0.85"/>
	<circle cx="76.16" cy="57.9" r="0.85"/>
	<circle cx="72.95" cy="57.9" r="0.85"/>
	<circle cx="109.85" cy="39.4" r="0.85"/>
	<circle cx="108" cy="40.4" r="0.85"/>
	<circle cx="106.16" cy="41.4" r="0.85"/>
	<circle cx="104.32" cy="42.41" r="0.85"/>
	<circle cx="102.48" cy="43.41" r="0.85"/>
	<circle cx="100.63" cy="44.41" r="0.85"/>
	<circle cx="98.79" cy="45.41" r="0.85"/>
	<circle cx="96.95" cy="46.41" r="0.85"/>
	<circle cx="35.18" cy="53.01" r="0.85"/>
	<circle cx="53.61" cy="56.98" r="0.85"/>
	<circle cx="53.61" cy="55.28" r="0.85"/>
	<circle cx="86.96" cy="44.43" r="0.85"/>
	<circle cx="91.71" cy="39.65" r="0.85"/>
	<circle cx="112.24" cy="39.57" r="0.85"/>
	<circle cx="118.94" cy="34.04" r="0.85"/>
	<circle cx="118.96" cy="29.49" r="0.85"/>
	<circle cx="118.94" cy="27.1" r="0.85"/>
	<circle cx="118.94" cy="45.8" r="0.85"/>
	<circle cx="118.94" cy="48.92" r="0.85"/>
	<circle cx="26.16" cy="27.91" r="0.5"/>
	<circle cx="50.73" cy="33.37" r="0.5"/>
	<circle cx="51.57" cy="34.5" r="0.5"/>
	<circle cx="50.73" cy="35.64" r="0.5"/>
	<circle cx="51.57" cy="36.77" r="0.5"/>
	<circle cx="50.73" cy="37.91" r="0.5"/>
	<circle cx="46.11" cy="43.36" r="0.5"/>
	<circle cx="44.98" cy="42.52" r="0.5"/>
	<circle cx="43.85" cy="43.36" r="0.5"/>
	<circle cx="42.71" cy="42.52" r="0.5"/>
	<circle cx="16.03" cy="38.66" r="0.5"/>
	<circle cx="17.03" cy="38.66" r="0.5"/>
	<circle cx="19.72" cy="42.91" r="0.5"/>
	<circle cx="19.27" cy="46.3" r="0.5"/>
	<circle cx="22.92" cy="30.7" r="0.5"/>
	<circle cx="22.92" cy="24.7" r="0.5"/>
	<circle cx="39.31" cy="43.15" r="0.5"/>
	<circle cx="40.44" cy="42.52" r="0.5"/>
	<circle cx="37.04" cy="43.16" r="0.5"/>
	<circle cx="38.18" cy="42.53" r="0.5"/>
	<circle cx="34.78" cy="43.16" r="0.5"/>
	<circle cx="35.91" cy="42.53" r="0.5"/>
	<circle cx="32.51" cy="42.52" r="0.5"/>
	<path d="M81.53,27.02c0,0.09,0.01,3.11,0.02,3.19c0.12,0.86,0.85,1.52,1.74,1.52s1.62-0.65,1.75-1.5c0.01-0.09,0.02-3.11,0.02-3.2
		c0-0.97-0.79-1.76-1.77-1.76C82.32,25.26,81.53,26.05,81.53,27.02z"/>
	<path d="M81.53,15.61c0,0.09,0.01,2.27,0.02,2.35c0.12,0.86,0.85,1.52,1.74,1.52s1.62-0.65,1.75-1.5c0.01-0.09,0.02-2.28,0.02-2.37
		c0-0.97-0.79-1.76-1.77-1.76C82.32,13.84,81.53,14.63,81.53,15.61z"/>
	<path d="M57.03,27.02c0,0.09,0.01,3.11,0.02,3.19c0.12,0.86,0.85,1.52,1.74,1.52c0.89,0,1.62-0.65,1.75-1.5
		c0.01-0.09,0.02-3.11,0.02-3.2c0-0.97-0.79-1.76-1.77-1.76C57.82,25.26,57.03,26.05,57.03,27.02z"/>
	<path d="M57.03,15.61c0,0.09,0.01,2.27,0.02,2.35c0.12,0.86,0.85,1.52,1.74,1.52c0.89,0,1.62-0.65,1.75-1.5
		c0.01-0.09,0.02-2.28,0.02-2.37c0-0.97-0.79-1.76-1.77-1.76C57.82,13.84,57.03,14.63,57.03,15.61z"/>
	<circle cx="26.16" cy="26.35" r="0.5"/>
	<circle cx="49.79" cy="15.7" r="0.5"/>
	<circle cx="49.79" cy="12.7" r="0.5"/>
	<circle cx="33.64" cy="18.55" r="0.5"/>
	<circle cx="34.78" cy="17.71" r="0.5"/>
	<circle cx="35.91" cy="18.55" r="0.5"/>
	<circle cx="39.89" cy="18.55" r="0.5"/>
	<circle cx="32.5" cy="43.96" r="0.5"/>
	<circle cx="25.95" cy="17.65" r="0.5"/>
	<circle cx="16.17" cy="42.91" r="0.5"/>
	<circle cx="43.85" cy="18.55" r="0.5"/>
	<circle cx="44.98" cy="17.55" r="0.5"/>
	<circle cx="42.71" cy="17.71" r="0.5"/>
	<circle cx="46.11" cy="18.55" r="0.5"/>
	<path d="M51.57,24.8c-0.27,0-0.5-0.22-0.5-0.5c0-0.27,0.22-0.5,0.5-0.5s0.5,0.22,0.5,0.5C52.07,24.57,51.84,24.8,51.57,24.8"/>
	<circle cx="51.57" cy="26.57" r="0.5"/>
	<circle cx="50.73" cy="27.7" r="0.5"/>
	<path d="M50.73,25.92c-0.27,0-0.5-0.22-0.5-0.5s0.22-0.5,0.5-0.5s0.5,0.22,0.5,0.5S51,25.92,50.73,25.92"/>
	<circle cx="72.37" cy="23.11" r="0.85"/>
	<circle cx="74.37" cy="22.39" r="0.85"/>
	<circle cx="76.42" cy="21.7" r="0.85"/>
	<circle cx="79.14" cy="21.02" r="0.85"/>
	<circle cx="66.34" cy="39.4" r="0.85"/>
	<circle cx="60.82" cy="39.4" r="0.85"/>
	<circle cx="70.02" cy="41.56" r="0.85"/>
	<circle cx="71.86" cy="44.44" r="0.85"/>
	<circle cx="58.96" cy="43.71" r="0.85"/>
	<circle cx="77.78" cy="43.03" r="0.85"/>
	<circle cx="70.02" cy="39.4" r="0.85"/>
	<circle cx="83.3" cy="39.4" r="0.85"/>
	<circle cx="34.35" cy="12.7" r="0.5"/>
	<circle cx="43.79" cy="12.7" r="0.5"/>
	<circle cx="53.58" cy="29.67" r="0.5"/>
	<circle cx="34.35" cy="15.7" r="0.5"/>
	<circle cx="88.41" cy="28.66" r="0.5"/>
	<path d="M88.41,14.65c0.27,0,0.5,0.22,0.5,0.5s-0.22,0.5-0.5,0.5c-0.27,0-0.5-0.22-0.5-0.5S88.13,14.65,88.41,14.65z"/>
	<circle cx="95.07" cy="27.19" r="0.85"/>
	<circle cx="51.76" cy="31.03" r="0.5"/>
	<line class="st3" x1="22.63" y1="58.13" x2="22.63" y2="61.4"/>
	<line class="st3" x1="18.09" y1="58.13" x2="18.09" y2="61.4"/>
	<line class="st4" x1="17.03" y1="38.66" x2="16.03" y2="38.66"/>
	<circle cx="57.12" cy="39.4" r="0.85"/>
	<circle cx="12.37" cy="66.97" r="0.85"/>
	<circle cx="161.38" cy="67.4" r="0.85"/>
	<path class="st5" d="M66.26,58.17l2.32-2.32h42.61l4.27,4.27v3.6l3.96,3.96v1.57l3.62,3.62v6.28"/>
	<path class="st5" d="M63.38,57.81l2.68-2.68h45.45l4.72,4.72v3.55l1.97,1.97h6.1l2.35,2.35v1.49l3.58,3.58v7.34"/>
	<path class="st5" d="M59.89,58.12l3.7-3.7h48.21l5.2,5.2v3.47l1.44,1.44h6.07h6.11l2.5,2.5v14.31l-3.24,3.24h-3.74"/>
	<polyline class="st5" points="76.16,57.9 78.19,59.93 112.06,59.93 113.17,61.03 113.17,63.61 111.39,65.38 106.92,65.38 
		105.07,67.27 105.07,69.2 101.45,72.81 101.45,74.62 97.87,78.2 97.87,84.38 	"/>
	<polyline class="st5" points="56.87,57.9 58.22,59.26 67.15,59.26 69.84,56.58 110.85,56.58 114.69,60.42 114.69,64.29 
		112.6,66.38 112.6,69.73 115.83,72.96 115.83,78.55 	"/>
	<polyline class="st5" points="82.64,57.73 84.13,59.22 112.43,59.22 113.94,60.72 113.94,63.94 111.85,66.03 111.85,69.48 
		108.64,72.69 108.64,74.61 105.02,78.23 105.02,84.77 	"/>
	<circle cx="43.81" cy="68.32" r="2.27"/>
	<circle cx="47.41" cy="73.7" r="2.27"/>
	<circle cx="43.81" cy="79.09" r="2.27"/>
	<circle cx="47.41" cy="84.47" r="2.27"/>
	<circle cx="20.37" cy="79.09" r="7.09"/>
	<circle cx="153.78" cy="79.09" r="7.09"/>
	<circle cx="51.01" cy="68.32" r="2.27"/>
	<circle cx="54.61" cy="73.7" r="2.27"/>
	<circle cx="51.01" cy="79.09" r="2.27"/>
	<circle cx="54.61" cy="84.47" r="2.27"/>
	<circle cx="58.21" cy="68.32" r="2.27"/>
	<circle cx="61.81" cy="73.7" r="2.27"/>
	<circle cx="58.21" cy="79.09" r="2.27"/>
	<circle cx="61.81" cy="84.47" r="2.27"/>
	<circle cx="65.41" cy="68.32" r="2.27"/>
	<circle cx="69.01" cy="73.7" r="2.27"/>
	<circle cx="65.41" cy="79.09" r="2.27"/>
	<circle cx="69.01" cy="84.47" r="2.27"/>
	<circle cx="72.61" cy="68.32" r="2.27"/>
	<circle cx="76.21" cy="73.7" r="2.27"/>
	<circle cx="72.61" cy="79.09" r="2.27"/>
	<circle cx="76.21" cy="84.47" r="2.27"/>
	<circle cx="79.81" cy="68.32" r="2.27"/>
	<circle cx="83.41" cy="73.7" r="2.27"/>
	<circle cx="79.81" cy="79.09" r="2.27"/>
	<circle cx="83.41" cy="84.47" r="2.27"/>
	<circle cx="87.01" cy="68.32" r="2.27"/>
	<circle cx="90.61" cy="73.7" r="2.27"/>
	<circle cx="87.01" cy="79.09" r="2.27"/>
	<circle cx="90.61" cy="84.47" r="2.27"/>
	<circle cx="94.21" cy="68.32" r="2.27"/>
	<circle cx="97.81" cy="73.7" r="2.27"/>
	<circle cx="94.21" cy="79.09" r="2.27"/>
	<circle cx="97.81" cy="84.47" r="2.27"/>
	<circle cx="101.41" cy="68.32" r="2.27"/>
	<circle cx="105.01" cy="73.7" r="2.27"/>
	<circle cx="101.41" cy="79.09" r="2.27"/>
	<circle cx="105.01" cy="84.47" r="2.27"/>
	<circle cx="108.61" cy="68.32" r="2.27"/>
	<circle cx="112.21" cy="73.7" r="2.27"/>
	<circle cx="108.61" cy="79.09" r="2.27"/>
	<circle cx="112.21" cy="84.47" r="2.27"/>
	<circle cx="115.81" cy="68.32" r="2.27"/>
	<circle cx="119.41" cy="73.7" r="2.27"/>
	<circle cx="115.81" cy="79.09" r="2.27"/>
	<circle cx="119.41" cy="84.47" r="2.27"/>
	<circle cx="123.01" cy="68.32" r="2.27"/>
	<circle cx="126.61" cy="73.7" r="2.27"/>
	<circle cx="123.01" cy="79.09" r="2.27"/>
	<circle cx="126.61" cy="84.47" r="2.27"/>
	<circle cx="130.21" cy="68.32" r="2.27"/>
	<circle cx="130.21" cy="79.09" r="2.27"/>
	<path d="M161.38,65.98c0.56,0,1.04,0.33,1.27,0.8V47.6c-0.23,0.47-0.71,0.79-1.27,0.79c-0.78,0-1.42-0.64-1.42-1.42
		s0.64-1.42,1.42-1.42c0.56,0,1.03,0.33,1.27,0.79v-8.75c-0.23,0.47-0.71,0.79-1.27,0.79c-0.78,0-1.42-0.64-1.42-1.42
		s0.64-1.42,1.42-1.42c0.56,0,1.03,0.32,1.27,0.79v-8.75c-0.23,0.47-0.71,0.79-1.27,0.79c-0.78,0-1.42-0.64-1.42-1.42
		s0.64-1.42,1.42-1.42c0.56,0,1.03,0.33,1.27,0.79V16.11c0-2.93-2.38-5.31-5.31-5.31h-4.1c0.34,0.25,0.56,0.66,0.56,1.12
		c0,0.78-0.64,1.41-1.42,1.41s-1.41-0.63-1.41-1.41c0-0.46,0.21-0.87,0.55-1.12h-18.28c0.34,0.25,0.56,0.66,0.56,1.12
		c0,0.78-0.64,1.41-1.42,1.41s-1.42-0.63-1.42-1.41c0-0.46,0.22-0.87,0.56-1.12h-8.28c0.34,0.25,0.56,0.66,0.56,1.12
		c0,0.78-0.64,1.41-1.42,1.41s-1.42-0.63-1.42-1.41c0-0.46,0.22-0.87,0.56-1.12h-8.28c0.34,0.25,0.56,0.66,0.56,1.12
		c0,0.78-0.64,1.41-1.42,1.41s-1.42-0.63-1.42-1.41c0-0.46,0.22-0.87,0.56-1.12H81.54c0.34,0.25,0.56,0.66,0.56,1.12
		c0,0.78-0.64,1.41-1.42,1.41s-1.42-0.63-1.42-1.41c0-0.46,0.22-0.87,0.56-1.12h-8.28c0.34,0.25,0.56,0.66,0.56,1.12
		c0,0.78-0.64,1.41-1.42,1.41s-1.42-0.63-1.42-1.41c0-0.46,0.22-0.87,0.56-1.12h-8.28c0.34,0.25,0.56,0.66,0.56,1.12
		c0,0.78-0.64,1.41-1.42,1.41s-1.42-0.63-1.42-1.41c0-0.46,0.22-0.87,0.56-1.12H19.05c0.34,0.25,0.55,0.66,0.55,1.12
		c0,0.78-0.63,1.41-1.41,1.41c-0.79,0-1.42-0.63-1.42-1.41c0-0.46,0.21-0.87,0.55-1.12h-0.69c-2.93,0-5.31,2.38-5.31,5.31v0.96
		c0.25-0.29,0.63-0.48,1.05-0.48c0.79,0,1.42,0.64,1.42,1.42s-0.63,1.42-1.42,1.42c-0.42,0-0.8-0.19-1.05-0.48v8.54
		c0.26-0.29,0.63-0.47,1.05-0.47c0.79,0,1.42,0.63,1.42,1.42c0,0.78-0.63,1.41-1.42,1.41c-0.42,0-0.79-0.18-1.05-0.47v14.65
		c0.26-0.29,0.63-0.47,1.05-0.47c0.79,0,1.42,0.63,1.42,1.41s-0.63,1.42-1.42,1.42c-0.42,0-0.8-0.19-1.05-0.48v20.12
		c0.26-0.29,0.63-0.47,1.05-0.47c0.79,0,1.42,0.63,1.42,1.41c0,0.79-0.63,1.42-1.42,1.42c-0.42,0-0.79-0.18-1.05-0.47v23.54
		c0.25-0.29,0.63-0.48,1.05-0.48c0.79,0,1.42,0.64,1.42,1.42c0,0.49-0.25,0.92-0.62,1.18h8.41c-0.37-0.26-0.62-0.69-0.62-1.18
		c0-0.78,0.63-1.42,1.41-1.42c0.79,0,1.42,0.64,1.42,1.42c0,0.49-0.25,0.92-0.62,1.18h8.41c-0.37-0.26-0.62-0.69-0.62-1.18
		c0-0.78,0.63-1.42,1.42-1.42c0.78,0,1.41,0.64,1.41,1.42c0,0.49-0.25,0.92-0.62,1.18h8.41c-0.37-0.26-0.62-0.69-0.62-1.18
		c0-0.78,0.63-1.42,1.42-1.42c0.78,0,1.41,0.64,1.41,1.42c0,0.49-0.25,0.92-0.62,1.18h8.42c-0.38-0.26-0.63-0.69-0.63-1.18
		c0-0.78,0.64-1.42,1.42-1.42s1.41,0.64,1.41,1.42c0,0.49-0.25,0.92-0.62,1.18h8.42c-0.38-0.26-0.63-0.69-0.63-1.18
		c0-0.78,0.64-1.42,1.42-1.42s1.41,0.64,1.41,1.42c0,0.49-0.25,0.92-0.62,1.18h8.42c-0.38-0.26-0.63-0.69-0.63-1.18
		c0-0.78,0.64-1.42,1.42-1.42s1.42,0.64,1.42,1.42c0,0.49-0.25,0.92-0.63,1.18h8.42c-0.38-0.26-0.63-0.69-0.63-1.18
		c0-0.78,0.64-1.42,1.42-1.42s1.42,0.64,1.42,1.42c0,0.49-0.25,0.92-0.63,1.18h8.42c-0.38-0.26-0.63-0.69-0.63-1.18
		c0-0.78,0.64-1.42,1.42-1.42s1.42,0.64,1.42,1.42c0,0.49-0.25,0.92-0.63,1.18h8.42c-0.38-0.26-0.63-0.69-0.63-1.18
		c0-0.78,0.64-1.42,1.42-1.42s1.42,0.64,1.42,1.42c0,0.49-0.25,0.92-0.63,1.18h8.42c-0.38-0.26-0.63-0.69-0.63-1.18
		c0-0.78,0.64-1.42,1.42-1.42s1.42,0.64,1.42,1.42c0,0.49-0.25,0.92-0.63,1.18h8.42c-0.38-0.26-0.63-0.69-0.63-1.18
		c0-0.78,0.64-1.42,1.42-1.42s1.42,0.64,1.42,1.42c0,0.49-0.25,0.92-0.63,1.18h8.42c-0.38-0.26-0.63-0.69-0.63-1.18
		c0-0.78,0.64-1.42,1.42-1.42s1.42,0.64,1.42,1.42c0,0.49-0.25,0.92-0.63,1.18h8.42c-0.38-0.26-0.63-0.69-0.63-1.18
		c0-0.78,0.64-1.42,1.42-1.42s1.42,0.64,1.42,1.42c0,0.49-0.25,0.92-0.63,1.18h8.42c-0.37-0.26-0.62-0.69-0.62-1.18
		c0-0.78,0.63-1.42,1.41-1.42s1.42,0.64,1.42,1.42c0,0.49-0.25,0.92-0.63,1.18h7.42c-0.37-0.26-0.62-0.69-0.62-1.18
		c0-0.78,0.63-1.42,1.41-1.42c0.56,0,1.04,0.33,1.27,0.8V68.02c-0.23,0.47-0.71,0.8-1.27,0.8c-0.78,0-1.41-0.64-1.41-1.42
		C159.97,66.62,160.6,65.98,161.38,65.98z M118.94,25.68c0.78,0,1.42,0.64,1.42,1.42c0,0.5-0.26,0.94-0.66,1.19
		c0.41,0.25,0.68,0.69,0.68,1.2c0,0.78-0.64,1.42-1.42,1.42s-1.42-0.64-1.42-1.42c0-0.5,0.26-0.94,0.66-1.18
		c-0.4-0.25-0.67-0.7-0.67-1.21C117.53,26.32,118.16,25.68,118.94,25.68z M118.95,32.63c0.78,0,1.41,0.63,1.41,1.41
		c0,0.79-0.63,1.42-1.41,1.42c-0.79,0-1.42-0.63-1.42-1.42C117.53,33.26,118.16,32.63,118.95,32.63z M118.94,47.22
		c-0.78,0-1.41-0.63-1.41-1.41s0.63-1.42,1.41-1.42c0.78,0,1.42,0.64,1.42,1.42S119.72,47.22,118.94,47.22z M120.36,48.93
		c0,0.78-0.64,1.41-1.42,1.41s-1.41-0.63-1.41-1.41c0-0.79,0.63-1.42,1.41-1.42C119.72,47.51,120.36,48.14,120.36,48.93z
		 M118.24,41.27c0.78,0,1.42,0.64,1.42,1.42s-0.64,1.42-1.42,1.42s-1.42-0.64-1.42-1.42S117.46,41.27,118.24,41.27z M104.32,26.53
		c0.78,0,1.42,0.63,1.42,1.41s-0.64,1.42-1.42,1.42s-1.42-0.64-1.42-1.42S103.54,26.53,104.32,26.53z M100.64,16.65
		c0.78,0,1.41,0.64,1.41,1.42s-0.63,1.42-1.41,1.42c-0.79,0-1.42-0.64-1.42-1.42C99.22,17.29,99.85,16.65,100.64,16.65z
		 M100.64,26.53c0.78,0,1.41,0.63,1.41,1.41s-0.63,1.42-1.41,1.42c-0.79,0-1.42-0.64-1.42-1.42S99.85,26.53,100.64,26.53z
		 M97.43,45.08c0.14-0.62,0.69-1.09,1.36-1.09c0.17,0,0.33,0.03,0.48,0.09c0.14-0.62,0.69-1.09,1.37-1.09
		c0.17,0,0.33,0.03,0.47,0.09c0.14-0.62,0.7-1.09,1.37-1.09c0.17,0,0.33,0.03,0.47,0.09c0.14-0.62,0.7-1.09,1.37-1.09
		c0.17,0,0.33,0.03,0.48,0.09c0.14-0.62,0.69-1.09,1.36-1.09c0.17,0,0.33,0.03,0.48,0.09c0.14-0.62,0.69-1.09,1.37-1.09
		c0.17,0,0.33,0.03,0.47,0.09c0.14-0.62,0.7-1.09,1.37-1.09c0.54,0,1.01,0.3,1.24,0.75c0.26-0.36,0.68-0.59,1.15-0.59
		c0.78,0,1.42,0.64,1.42,1.42s-0.64,1.42-1.42,1.42c-0.54,0-1.01-0.3-1.24-0.75c-0.26,0.35-0.68,0.58-1.15,0.58
		c-0.17,0-0.33-0.03-0.47-0.09c-0.14,0.63-0.7,1.09-1.37,1.09c-0.16,0-0.32-0.03-0.47-0.08c-0.15,0.62-0.7,1.09-1.38,1.09
		c-0.17,0-0.33-0.03-0.47-0.09c-0.14,0.62-0.7,1.09-1.37,1.09c-0.17,0-0.33-0.03-0.47-0.09c-0.14,0.62-0.7,1.09-1.37,1.09
		c-0.17,0-0.33-0.03-0.48-0.09c-0.14,0.62-0.69,1.09-1.36,1.09c-0.17,0-0.33-0.03-0.48-0.09c-0.09,0.42-0.38,0.77-0.76,0.96
		c0.48,0.22,0.81,0.71,0.81,1.28c0,0.78-0.63,1.41-1.42,1.41c-0.15,0-0.29-0.02-0.42-0.07c-0.02,0.76-0.65,1.38-1.42,1.38
		s-1.4-0.62-1.42-1.38c-0.13,0.05-0.27,0.07-0.42,0.07c-0.78,0-1.42-0.63-1.42-1.41c0-0.79,0.64-1.42,1.42-1.42
		c0.15,0,0.3,0.02,0.44,0.08c-0.01-0.07-0.02-0.15-0.02-0.23c0-0.78,0.64-1.42,1.42-1.42C97.12,44.99,97.28,45.02,97.43,45.08z
		 M110.82,42.69c0-0.78,0.64-1.42,1.42-1.42s1.42,0.64,1.42,1.42s-0.64,1.42-1.42,1.42C111.46,44.11,110.82,43.47,110.82,42.69z
		 M111.27,49.28c0,0.78-0.64,1.42-1.42,1.42s-1.42-0.64-1.42-1.42s0.64-1.42,1.42-1.42S111.27,48.5,111.27,49.28z M95.11,16.65
		c0.78,0,1.42,0.64,1.42,1.42s-0.64,1.42-1.42,1.42s-1.42-0.64-1.42-1.42C93.69,17.29,94.33,16.65,95.11,16.65z M95.07,25.77
		c0.78,0,1.42,0.64,1.42,1.42s-0.64,1.42-1.42,1.42s-1.42-0.64-1.42-1.42S94.29,25.77,95.07,25.77z M91.71,38.24
		c0.79,0,1.42,0.64,1.42,1.42s-0.63,1.41-1.42,1.41c-0.78,0-1.41-0.63-1.41-1.41C90.3,38.88,90.93,38.24,91.71,38.24z M88.41,14.09
		c0.58,0,1.06,0.48,1.06,1.06c0,0.59-0.48,1.06-1.06,1.06c-0.59,0-1.07-0.47-1.07-1.06C87.34,14.57,87.82,14.09,88.41,14.09z
		 M88.41,27.6c0.58,0,1.06,0.47,1.06,1.06s-0.48,1.06-1.06,1.06c-0.59,0-1.07-0.47-1.07-1.06C87.34,28.07,87.82,27.6,88.41,27.6z
		 M86.96,43.02c0.78,0,1.42,0.64,1.42,1.42s-0.64,1.41-1.42,1.41c-0.14,0-0.28-0.02-0.41-0.07c-0.06,0.72-0.67,1.27-1.4,1.27
		c-0.78,0-1.42-0.63-1.42-1.41s0.64-1.42,1.42-1.42c0.14,0,0.28,0.02,0.41,0.07C85.63,43.58,86.23,43.02,86.96,43.02z M81.89,39.41
		c0-0.78,0.64-1.42,1.42-1.42s1.41,0.64,1.41,1.42c0,0.52-0.28,0.97-0.69,1.21c0.41,0.24,0.69,0.69,0.69,1.21
		c0,0.78-0.63,1.42-1.41,1.42c-0.78,0-1.42-0.64-1.42-1.42c0-0.52,0.28-0.97,0.7-1.21C82.17,40.38,81.89,39.93,81.89,39.41z
		 M83.29,13.28c1.29,0,2.34,1.04,2.34,2.33c0,0.02-0.01,2.29-0.03,2.44c-0.17,1.14-1.16,2-2.31,2c-1.15,0-2.14-0.87-2.3-2.01
		c-0.02-0.15-0.03-2.41-0.03-2.43C80.96,14.32,82.01,13.28,83.29,13.28z M72.37,21.69c0.25,0,0.48,0.06,0.68,0.18
		c0.21-0.53,0.72-0.9,1.32-0.9c0.27,0,0.52,0.08,0.73,0.21c0.21-0.52,0.72-0.89,1.32-0.89c0.58,0,1.09,0.35,1.31,0.86
		c-0.01-0.04-0.01-0.08-0.01-0.13c0-0.78,0.64-1.42,1.42-1.42s1.41,0.64,1.41,1.42s-0.63,1.42-1.41,1.42
		c-0.58,0-1.09-0.36-1.31-0.87c0.01,0.05,0.01,0.09,0.01,0.14c0,0.78-0.64,1.41-1.42,1.41c-0.27,0-0.52-0.07-0.73-0.21
		c-0.21,0.53-0.72,0.9-1.32,0.9c-0.25,0-0.48-0.06-0.68-0.18c-0.21,0.53-0.72,0.9-1.32,0.9c-0.78,0-1.42-0.64-1.42-1.42
		C70.95,22.33,71.59,21.69,72.37,21.69z M58.8,13.28c1.28,0,2.33,1.04,2.33,2.33c0,0.02,0,2.29-0.02,2.44c-0.17,1.14-1.17,2-2.31,2
		c-1.16,0-2.15-0.87-2.31-2.01c-0.02-0.15-0.02-2.41-0.02-2.43C56.47,14.32,57.51,13.28,58.8,13.28z M58.8,24.7
		c0.92,0,1.71,0.54,2.09,1.32c0.38-0.72,1.13-1.22,2-1.22c0.3,0,0.59,0.06,0.85,0.17c0.26-0.36,0.67-0.59,1.15-0.59
		c0.78,0,1.41,0.63,1.41,1.41v1.28v0.14h9.55v-0.14v-1.28c0-0.78,0.64-1.41,1.42-1.41c0.47,0,0.89,0.23,1.15,0.59
		c0.26-0.11,0.55-0.17,0.85-0.17c0.84,0,1.57,0.47,1.96,1.15c0.39-0.74,1.16-1.26,2.06-1.26c1.29,0,2.34,1.04,2.34,2.33
		c0,0.03-0.01,3.12-0.03,3.27c-0.17,1.14-1.16,2-2.31,2c-1.15,0-2.14-0.86-2.3-2.01c-0.01-0.08-0.02-0.92-0.02-1.73
		c-0.42,0.47-1.02,0.78-1.7,0.78c-0.25,0-0.49-0.05-0.71-0.13c-0.23,0.49-0.72,0.83-1.29,0.83H65.51L55.03,40.52v14.76v1.7
		c0,0.29-0.09,0.57-0.24,0.79c-0.05,0.08-0.12,0.15-0.18,0.21c-0.26,0.26-0.61,0.42-1,0.42c-0.78,0-1.41-0.64-1.41-1.42v-1.7V39.93
		c0-0.37,0.14-0.73,0.41-1l6.69-6.69c-0.16,0.04-0.33,0.06-0.5,0.06c-1.16,0-2.15-0.86-2.31-2.01c-0.02-0.15-0.02-3.23-0.02-3.26
		C56.47,25.74,57.51,24.7,58.8,24.7z M81.12,44.25c0,0.78-0.64,1.41-1.42,1.41c-0.75,0-1.36-0.58-1.41-1.31
		c-0.16,0.07-0.33,0.1-0.51,0.1c-0.78,0-1.42-0.64-1.42-1.42s0.64-1.42,1.42-1.42c0.75,0,1.36,0.58,1.41,1.32
		c0.16-0.07,0.33-0.1,0.51-0.1C80.48,42.83,81.12,43.46,81.12,44.25z M72.28,42.98c-0.46,0-0.87-0.22-1.13-0.56
		c-0.26,0.34-0.67,0.56-1.13,0.56c-0.78,0-1.42-0.63-1.42-1.42c0-0.43,0.2-0.82,0.51-1.07c-0.31-0.26-0.51-0.65-0.51-1.08
		c0-0.78,0.64-1.42,1.42-1.42s1.42,0.64,1.42,1.42c0,0.43-0.2,0.82-0.51,1.08c0.08,0.06,0.16,0.13,0.22,0.22
		c0.26-0.34,0.67-0.56,1.13-0.56c0.78,0,1.42,0.63,1.42,1.41C73.7,42.35,73.06,42.98,72.28,42.98z M73.28,44.44
		c0,0.78-0.63,1.42-1.42,1.42c-0.78,0-1.41-0.64-1.41-1.42s0.63-1.42,1.41-1.42C72.65,43.02,73.28,43.66,73.28,44.44z M67.75,39.41
		c0,0.78-0.63,1.41-1.41,1.41c-0.78,0-1.42-0.63-1.42-1.41s0.64-1.42,1.42-1.42C67.12,37.99,67.75,38.63,67.75,39.41z M59.4,39.41
		c0-0.78,0.64-1.42,1.42-1.42s1.42,0.64,1.42,1.42s-0.64,1.41-1.42,1.41S59.4,40.19,59.4,39.41z M60.38,43.71
		c0,0.78-0.64,1.42-1.42,1.42s-1.42-0.64-1.42-1.42s0.64-1.42,1.42-1.42S60.38,42.93,60.38,43.71z M79.81,65.48
		c1.56,0,2.83,1.28,2.83,2.84s-1.27,2.83-2.83,2.83c-1.57,0-2.84-1.27-2.84-2.83S78.24,65.48,79.81,65.48z M77.95,62.55
		c0-0.79,0.64-1.42,1.42-1.42s1.42,0.63,1.42,1.42c0,0.78-0.64,1.41-1.42,1.41S77.95,63.33,77.95,62.55z M93.44,73.7
		c0,1.57-1.27,2.84-2.83,2.84c-1.57,0-2.84-1.27-2.84-2.84c0-1.56,1.27-2.83,2.84-2.83C92.17,70.87,93.44,72.14,93.44,73.7z
		 M91.37,68.32c0-1.56,1.28-2.84,2.84-2.84s2.83,1.28,2.83,2.84s-1.27,2.83-2.83,2.83S91.37,69.88,91.37,68.32z M87.01,71.15
		c-1.56,0-2.84-1.27-2.84-2.83s1.28-2.84,2.84-2.84s2.83,1.28,2.83,2.84S88.57,71.15,87.01,71.15z M86.24,73.7
		c0,1.57-1.27,2.84-2.83,2.84s-2.84-1.27-2.84-2.84c0-1.56,1.28-2.83,2.84-2.83S86.24,72.14,86.24,73.7z M79.04,73.7
		c0,1.57-1.27,2.84-2.83,2.84s-2.84-1.27-2.84-2.84c0-1.56,1.28-2.83,2.84-2.83S79.04,72.14,79.04,73.7z M72.61,71.15
		c-1.57,0-2.84-1.27-2.84-2.83s1.27-2.84,2.84-2.84c1.56,0,2.83,1.28,2.83,2.84S74.17,71.15,72.61,71.15z M71.84,73.7
		c0,1.57-1.27,2.84-2.83,2.84s-2.84-1.27-2.84-2.84c0-1.56,1.28-2.83,2.84-2.83S71.84,72.14,71.84,73.7z M65.41,71.15
		c-1.56,0-2.84-1.27-2.84-2.83s1.28-2.84,2.84-2.84c1.56,0,2.83,1.28,2.83,2.84S66.97,71.15,65.41,71.15z M64.64,73.7
		c0,1.57-1.27,2.84-2.83,2.84c-1.57,0-2.84-1.27-2.84-2.84c0-1.56,1.27-2.83,2.84-2.83C63.37,70.87,64.64,72.14,64.64,73.7z
		 M58.21,71.15c-1.57,0-2.84-1.27-2.84-2.83s1.27-2.84,2.84-2.84c1.56,0,2.83,1.28,2.83,2.84S59.77,71.15,58.21,71.15z M43.81,65.48
		c1.56,0,2.83,1.28,2.83,2.84s-1.27,2.83-2.83,2.83c-1.57,0-2.84-1.27-2.84-2.83S42.24,65.48,43.81,65.48z M41.65,42.52
		c0-0.58,0.48-1.06,1.06-1.06c0.52,0,0.95,0.37,1.05,0.85c0.03-0.01,0.06-0.01,0.09-0.01s0.06,0,0.09,0.01
		c0.1-0.48,0.53-0.85,1.04-0.85c0.52,0,0.94,0.37,1.04,0.85c0.03-0.01,0.07-0.01,0.1-0.01c0.58,0,1.06,0.48,1.06,1.06
		c0,0.59-0.48,1.07-1.06,1.07c-0.52,0-0.95-0.37-1.05-0.85c-0.03,0.01-0.06,0.01-0.09,0.01s-0.06,0-0.09-0.01
		c-0.1,0.48-0.53,0.85-1.04,0.85c-0.52,0-0.94-0.37-1.04-0.85c-0.03,0.01-0.07,0.01-0.1,0.01C42.13,43.59,41.65,43.11,41.65,42.52z
		 M47.41,70.87c1.56,0,2.83,1.27,2.83,2.83c0,1.57-1.27,2.84-2.83,2.84c-1.57,0-2.84-1.27-2.84-2.84
		C44.57,72.14,45.84,70.87,47.41,70.87z M48.17,68.32c0-1.56,1.27-2.84,2.84-2.84c1.56,0,2.83,1.28,2.83,2.84s-1.27,2.83-2.83,2.83
		C49.44,71.15,48.17,69.88,48.17,68.32z M50.51,36.77c0-0.03,0-0.06,0.01-0.09c-0.49-0.1-0.85-0.52-0.85-1.04s0.36-0.94,0.85-1.04
		c-0.01-0.03-0.01-0.06-0.01-0.09s0-0.06,0.01-0.09c-0.49-0.1-0.85-0.53-0.85-1.05c0-0.58,0.47-1.06,1.06-1.06s1.06,0.48,1.06,1.06
		c0,0.03,0,0.06-0.01,0.09c0.49,0.1,0.85,0.53,0.85,1.05c0,0.51-0.36,0.94-0.85,1.04c0.01,0.03,0.01,0.06,0.01,0.09
		s0,0.06-0.01,0.09c0.49,0.1,0.85,0.53,0.85,1.04c0,0.52-0.36,0.95-0.85,1.05c0.01,0.03,0.01,0.06,0.01,0.09
		c0,0.58-0.47,1.06-1.06,1.06s-1.06-0.48-1.06-1.06c0-0.52,0.36-0.94,0.85-1.04C50.51,36.84,50.51,36.8,50.51,36.77z M54.61,70.87
		c1.56,0,2.83,1.27,2.83,2.83c0,1.57-1.27,2.84-2.83,2.84c-1.57,0-2.84-1.27-2.84-2.84C51.77,72.14,53.04,70.87,54.61,70.87z
		 M52.63,24.31c0,0.59-0.48,1.06-1.06,1.06s-1.06-0.48-1.06-1.06s0.48-1.06,1.06-1.06S52.63,23.73,52.63,24.31z M52.26,21.19
		c0,0.78-0.63,1.41-1.42,1.41c-0.78,0-1.41-0.63-1.41-1.41s0.63-1.42,1.41-1.42C51.63,19.77,52.26,20.41,52.26,21.19z M49.79,11.63
		c0.58,0,1.06,0.48,1.06,1.07c0,0.58-0.48,1.06-1.06,1.06c-0.59,0-1.06-0.48-1.06-1.06C48.73,12.11,49.2,11.63,49.79,11.63z
		 M49.79,14.64c0.58,0,1.06,0.47,1.06,1.06c0,0.58-0.48,1.06-1.06,1.06c-0.59,0-1.06-0.48-1.06-1.06
		C48.73,15.11,49.2,14.64,49.79,14.64z M43.8,11.63c0.58,0,1.06,0.48,1.06,1.07c0,0.58-0.48,1.06-1.06,1.06
		c-0.59,0-1.07-0.48-1.07-1.06C42.73,12.11,43.21,11.63,43.8,11.63z M42.71,16.65c0.52,0,0.95,0.37,1.05,0.85
		c0.03-0.01,0.06-0.01,0.09-0.01s0.06,0,0.08,0.01c0.02-0.56,0.49-1.01,1.05-1.01c0.57,0,1.03,0.45,1.05,1.01
		c0.03-0.01,0.06-0.01,0.09-0.01c0.58,0,1.06,0.48,1.06,1.06c0,0.59-0.48,1.07-1.06,1.07c-0.57,0-1.04-0.45-1.06-1.01
		c-0.02,0.01-0.05,0.01-0.08,0.01c-0.03,0-0.06,0-0.08-0.01c-0.02,0.56-0.49,1.01-1.05,1.01c-0.52,0-0.94-0.37-1.04-0.85
		c-0.03,0.01-0.07,0.01-0.1,0.01c-0.58,0-1.06-0.48-1.06-1.07C41.65,17.13,42.13,16.65,42.71,16.65z M39.89,17.49
		c0.59,0,1.06,0.48,1.06,1.06c0,0.59-0.47,1.07-1.06,1.07s-1.06-0.48-1.06-1.07C38.83,17.97,39.3,17.49,39.89,17.49z M34.35,11.63
		c0.59,0,1.07,0.48,1.07,1.07c0,0.58-0.48,1.06-1.07,1.06c-0.58,0-1.06-0.48-1.06-1.06C33.29,12.11,33.77,11.63,34.35,11.63z
		 M33.64,17.49c0.03,0,0.06,0,0.09,0.01c0.07-0.33,0.29-0.6,0.58-0.74c-0.56-0.02-1.02-0.49-1.02-1.06c0-0.59,0.48-1.06,1.06-1.06
		c0.59,0,1.07,0.47,1.07,1.06c0,0.41-0.25,0.78-0.6,0.95c0.49,0.02,0.9,0.38,1,0.85c0.03-0.01,0.06-0.01,0.09-0.01
		c0.59,0,1.06,0.48,1.06,1.06c0,0.59-0.47,1.07-1.06,1.07c-0.51,0-0.94-0.37-1.04-0.85c-0.03,0.01-0.06,0.01-0.09,0.01
		s-0.06,0-0.09-0.01c-0.1,0.48-0.53,0.85-1.05,0.85c-0.58,0-1.06-0.48-1.06-1.07C32.58,17.97,33.06,17.49,33.64,17.49z M25.96,16.59
		c0.58,0,1.06,0.48,1.06,1.07c0,0.58-0.48,1.06-1.06,1.06c-0.59,0-1.07-0.48-1.07-1.06C24.89,17.07,25.37,16.59,25.96,16.59z
		 M21.22,59.76v-1.63c0-0.78,0.63-1.42,1.41-1.42s1.42,0.64,1.42,1.42v1.63v1.64c0,0.78-0.64,1.42-1.42,1.42s-1.41-0.64-1.41-1.42
		V59.76z M19.72,41.85c0.59,0,1.07,0.48,1.07,1.07c0,0.58-0.48,1.06-1.07,1.06c-0.58,0-1.06-0.48-1.06-1.06
		C18.66,42.33,19.14,41.85,19.72,41.85z M16.67,59.76v-1.63c0-0.78,0.64-1.42,1.42-1.42s1.42,0.64,1.42,1.42v1.63v1.64
		c0,0.78-0.64,1.42-1.42,1.42s-1.42-0.64-1.42-1.42V59.76z M16.17,43.98c-0.58,0-1.06-0.48-1.06-1.06c0-0.59,0.48-1.07,1.06-1.07
		c0.59,0,1.07,0.48,1.07,1.07C17.24,43.5,16.76,43.98,16.17,43.98z M19.27,47.37c-0.59,0-1.06-0.48-1.06-1.07
		c0-0.58,0.47-1.06,1.06-1.06s1.06,0.48,1.06,1.06C20.33,46.89,19.86,47.37,19.27,47.37z M18.09,18.35c0.78,0,1.42,0.64,1.42,1.42
		s-0.64,1.42-1.42,1.42s-1.41-0.64-1.41-1.42S17.31,18.35,18.09,18.35z M16.03,37.6c0.04,0,0.07,0,0.11,0.01h0.79
		c0.03-0.01,0.07-0.01,0.1-0.01c0.59,0,1.07,0.48,1.07,1.06c0,0.59-0.48,1.07-1.07,1.07c-0.03,0-0.07,0-0.1-0.01h-0.79
		c-0.04,0.01-0.07,0.01-0.11,0.01c-0.58,0-1.06-0.48-1.06-1.07C14.97,38.08,15.45,37.6,16.03,37.6z M20.37,86.74
		c-4.22,0-7.65-3.43-7.65-7.65s3.43-7.65,7.65-7.65s7.66,3.43,7.66,7.65S24.59,86.74,20.37,86.74z M28.37,41.95
		c-0.78,0-1.41-0.64-1.41-1.42s0.63-1.42,1.41-1.42c0.79,0,1.42,0.64,1.42,1.42S29.16,41.95,28.37,41.95z M31.24,38.8l-7.03-7.03
		h-1.29c-0.59,0-1.07-0.48-1.07-1.07c0-0.58,0.48-1.06,1.07-1.06h0.52v-2.91l-1.28-1.27v-0.01c-0.19-0.19-0.31-0.45-0.31-0.75
		c0-0.51,0.37-0.94,0.85-1.04c0.07-0.02,0.14-0.03,0.22-0.03c0.13,0,0.25,0.02,0.36,0.07c0.15,0.06,0.28,0.14,0.39,0.25l1.59,1.59
		c0.04,0.04,0.08,0.08,0.1,0.13c0.19-0.23,0.48-0.37,0.8-0.37c0.59,0,1.06,0.47,1.06,1.06c0,0.31-0.13,0.59-0.35,0.78
		c0.22,0.19,0.35,0.47,0.35,0.78c0,0.59-0.47,1.06-1.06,1.06c-0.22,0-0.42-0.07-0.59-0.18v1.31l6.07,6.07V24.29
		c0-0.47,0.38-0.85,0.85-0.85H45c0.46,0,0.85,0.38,0.85,0.85v7.98l3.34-3.34c0.2-0.2,0.47-0.31,0.76-0.31c0,0,0.1,0,0.25,0
		c-0.31-0.19-0.54-0.51-0.54-0.9c0-0.59,0.48-1.04,0.85-1.04c-0.04,0-0.04,0-0.03,0c-0.01,0-0.01,0,0.03,0
		c0-0.04-0.01-0.05-0.01-0.09c0-0.59,0.48-1.06,1.06-1.06s1.06,0.48,1.06,1.06c0,0.52-0.38,0.93-0.86,1.02
		c0,0.04,0.02,0.07,0.02,0.11c0,0.39-0.22,0.71-0.53,0.9c1.03,0,2.29-0.01,2.32-0.01c0.29,0,0.56,0.12,0.75,0.32
		s0.31,0.46,0.31,0.75s-0.12,0.56-0.31,0.75c-0.18,0.2-0.45,0.32-0.75,0.32h-0.8c0.03,0.09,0.04,0.18,0.04,0.28
		c0,0.59-0.47,1.06-1.06,1.06s-1.06-0.47-1.06-1.06c0-0.1,0.01-0.19,0.04-0.28h-0.35l-3.05,3.05v3.62c0,0.29-0.11,0.55-0.31,0.76
		L46.4,38.8c-0.2,0.2-0.47,0.31-0.76,0.31H31.99C31.71,39.11,31.44,39,31.24,38.8z M33.57,43.96c0,0.59-0.48,1.07-1.06,1.07
		c-0.59,0-1.07-0.48-1.07-1.07c0-0.28,0.11-0.53,0.29-0.72c-0.18-0.19-0.28-0.44-0.28-0.71c0-0.59,0.47-1.07,1.06-1.07
		s1.06,0.48,1.06,1.07c0,0.28-0.11,0.53-0.28,0.72C33.46,43.44,33.57,43.69,33.57,43.96z M35.18,57.41c-0.78,0-1.42-0.64-1.42-1.42
		s0.64-1.41,1.42-1.41s1.42,0.63,1.42,1.41S35.96,57.41,35.18,57.41z M35.18,54.43c-0.78,0-1.42-0.63-1.42-1.41
		c0-0.79,0.64-1.42,1.42-1.42s1.42,0.63,1.42,1.42C36.6,53.8,35.96,54.43,35.18,54.43z M38.37,64.32c-0.78,0-1.41-0.63-1.41-1.42
		c0-0.78,0.63-1.41,1.41-1.41c0.79,0,1.42,0.63,1.42,1.41C39.79,63.69,39.16,64.32,38.37,64.32z M38.37,58.04
		c-0.78,0-1.41-0.64-1.41-1.42s0.63-1.41,1.41-1.41c0.79,0,1.42,0.63,1.42,1.41C39.79,57.4,39.16,58.04,38.37,58.04z M40.45,43.59
		c-0.05,0-0.1,0-0.15-0.01c-0.17,0.37-0.55,0.64-0.99,0.64c-0.43,0-0.81-0.27-0.98-0.64c-0.05,0.01-0.1,0.01-0.15,0.01
		c-0.05,0-0.1,0-0.15-0.01c-0.17,0.38-0.55,0.65-0.99,0.65s-0.81-0.27-0.98-0.65c-0.05,0.01-0.1,0.01-0.15,0.01s-0.1,0-0.15-0.01
		c-0.17,0.37-0.55,0.64-0.98,0.64c-0.59,0-1.07-0.48-1.07-1.06c0-0.59,0.48-1.06,1.07-1.06c0.05,0,0.1,0,0.15,0.01
		c0.17-0.38,0.55-0.64,0.98-0.64c0.44,0,0.81,0.26,0.98,0.64c0.05-0.01,0.1-0.01,0.15-0.01s0.11,0,0.16,0.01
		c0.17-0.38,0.54-0.64,0.98-0.64c0.43,0,0.81,0.26,0.97,0.64c0.05-0.02,0.1-0.02,0.16-0.02c0.05,0,0.1,0,0.15,0.01
		c0.17-0.37,0.55-0.64,0.99-0.64c0.58,0,1.06,0.48,1.06,1.07C41.51,43.11,41.03,43.59,40.45,43.59z M40.97,79.09
		c0-1.56,1.27-2.83,2.84-2.83c1.56,0,2.83,1.27,2.83,2.83s-1.27,2.84-2.83,2.84C42.24,81.93,40.97,80.65,40.97,79.09z M47.41,87.31
		c-1.57,0-2.84-1.27-2.84-2.83c0-1.57,1.27-2.84,2.84-2.84c1.56,0,2.83,1.27,2.83,2.84C50.24,86.04,48.97,87.31,47.41,87.31z
		 M51.01,81.93c-1.57,0-2.84-1.28-2.84-2.84s1.27-2.83,2.84-2.83c1.56,0,2.83,1.27,2.83,2.83S52.57,81.93,51.01,81.93z M54.61,87.31
		c-1.57,0-2.84-1.27-2.84-2.83c0-1.57,1.27-2.84,2.84-2.84c1.56,0,2.83,1.27,2.83,2.84C57.44,86.04,56.17,87.31,54.61,87.31z
		 M55.37,79.09c0-1.56,1.27-2.83,2.84-2.83c1.56,0,2.83,1.27,2.83,2.83s-1.27,2.84-2.83,2.84C56.64,81.93,55.37,80.65,55.37,79.09z
		 M61.81,87.31c-1.57,0-2.84-1.27-2.84-2.83c0-1.57,1.27-2.84,2.84-2.84c1.56,0,2.83,1.27,2.83,2.84
		C64.64,86.04,63.37,87.31,61.81,87.31z M62.57,79.09c0-1.56,1.28-2.83,2.84-2.83s2.83,1.27,2.83,2.83s-1.27,2.84-2.83,2.84
		C63.85,81.93,62.57,80.65,62.57,79.09z M69.01,87.31c-1.56,0-2.84-1.27-2.84-2.83c0-1.57,1.28-2.84,2.84-2.84s2.83,1.27,2.83,2.84
		C71.84,86.04,70.57,87.31,69.01,87.31z M69.77,79.09c0-1.56,1.27-2.83,2.84-2.83c1.56,0,2.83,1.27,2.83,2.83s-1.27,2.84-2.83,2.84
		C71.04,81.93,69.77,80.65,69.77,79.09z M76.21,87.31c-1.56,0-2.84-1.27-2.84-2.83c0-1.57,1.28-2.84,2.84-2.84s2.83,1.27,2.83,2.84
		C79.04,86.04,77.77,87.31,76.21,87.31z M76.97,79.09c0-1.56,1.27-2.83,2.84-2.83c1.56,0,2.83,1.27,2.83,2.83s-1.27,2.84-2.83,2.84
		C78.24,81.93,76.97,80.65,76.97,79.09z M83.41,87.31c-1.56,0-2.84-1.27-2.84-2.83c0-1.57,1.28-2.84,2.84-2.84s2.83,1.27,2.83,2.84
		C86.24,86.04,84.97,87.31,83.41,87.31z M84.17,79.09c0-1.56,1.28-2.83,2.84-2.83s2.83,1.27,2.83,2.83s-1.27,2.84-2.83,2.84
		S84.17,80.65,84.17,79.09z M90.61,87.31c-1.57,0-2.84-1.27-2.84-2.83c0-1.57,1.27-2.84,2.84-2.84c1.56,0,2.83,1.27,2.83,2.84
		C93.44,86.04,92.17,87.31,90.61,87.31z M112.21,87.31c-1.56,0-2.84-1.27-2.84-2.83c0-1.57,1.28-2.84,2.84-2.84s2.83,1.27,2.83,2.84
		C115.04,86.04,113.77,87.31,112.21,87.31z M119.41,87.31c-1.56,0-2.84-1.27-2.84-2.83c0-1.57,1.28-2.84,2.84-2.84
		s2.83,1.27,2.83,2.84C122.24,86.04,120.97,87.31,119.41,87.31z M133.86,81.65l-3.68,3.67h-0.87c-0.36,1.15-1.43,1.99-2.7,1.99
		c-1.57,0-2.84-1.27-2.84-2.83c0-1.57,1.27-2.84,2.84-2.84c1.34,0,2.46,0.93,2.75,2.19h0.21l0.47-0.47l0.17-0.17v-1.26
		c-1.56,0-2.84-1.28-2.84-2.84c0-1.3,0.89-2.4,2.1-2.73v-1.43h-0.31c-0.46,0.95-1.43,1.61-2.55,1.61c-1.13,0-2.1-0.66-2.56-1.61
		h-0.28v1.44c1.19,0.33,2.07,1.42,2.07,2.72c0,1.56-1.27,2.84-2.83,2.84s-2.84-1.28-2.84-2.84c0-1.31,0.9-2.41,2.11-2.73v-1.43
		h-0.32c-0.46,0.95-1.43,1.61-2.55,1.61s-2.1-0.66-2.56-1.61h-0.27v1.44c1.19,0.33,2.06,1.43,2.06,2.72c0,1.56-1.27,2.84-2.83,2.84
		c-1.57,0-2.84-1.28-2.84-2.84c0-1.31,0.9-2.42,2.12-2.73v-1.43h-0.33c-0.46,0.95-1.43,1.61-2.55,1.61s-2.1-0.66-2.56-1.61h-0.26
		l-1.41,1.4c0.2-0.05,0.41-0.07,0.63-0.07c1.56,0,2.83,1.27,2.83,2.83s-1.27,2.84-2.83,2.84h-2.35c0.94,0.47,1.58,1.43,1.58,2.55
		c0,1.56-1.27,2.83-2.83,2.83s-2.84-1.27-2.84-2.83c0-1.12,0.65-2.08,1.59-2.55h-2.35c-1.39,0-2.55-1.01-2.79-2.33v2.16
		c1.17,0.35,2.02,1.43,2.02,2.72c0,1.56-1.27,2.83-2.83,2.83c-1.57,0-2.84-1.27-2.84-2.83c0-1.12,0.65-2.09,1.59-2.55h-2.35
		c-1.56,0-2.84-1.28-2.84-2.84s1.28-2.83,2.84-2.83c1.13,0,2.11,0.67,2.56,1.63h0.36l1.47-1.47c-0.25,0.08-0.52,0.12-0.79,0.12
		c-1.57,0-2.84-1.27-2.84-2.84c0-1.56,1.27-2.83,2.84-2.83c1.13,0,2.12,0.67,2.57,1.64h0.33l1.47-1.47
		c-0.24,0.07-0.5,0.11-0.77,0.11c-1.56,0-2.84-1.27-2.84-2.83s1.28-2.84,2.84-2.84c1.07,0,2.01,0.61,2.49,1.49h0.43l2.27-2.33h4.49
		l1.33-1.34v-1.96l-0.66-0.66H77.88l-1.4-1.4c-0.1,0.03-0.21,0.04-0.32,0.04c-0.78,0-1.42-0.63-1.42-1.41c0-0.21,0.04-0.4,0.12-0.58
		h-0.61c0.08,0.18,0.12,0.37,0.12,0.58c0,0.78-0.64,1.41-1.42,1.41s-1.42-0.63-1.42-1.41c0-0.21,0.04-0.4,0.12-0.58h-1.5l-2.69,2.68
		h-9.55l-0.72-0.73c-0.1,0.03-0.2,0.04-0.31,0.04c-0.78,0-1.41-0.63-1.41-1.41c0-0.79,0.63-1.42,1.41-1.42
		c0.79,0,1.42,0.63,1.42,1.42c0,0.11-0.01,0.22-0.04,0.33l0.27,0.27h0.29c-0.09-0.18-0.14-0.38-0.14-0.6c0-0.79,0.63-1.42,1.42-1.42
		c0.11,0,0.22,0.01,0.32,0.04l2.86-2.86h26.57c-0.12-0.21-0.19-0.45-0.19-0.71c0-0.78,0.64-1.41,1.42-1.41s1.42,0.63,1.42,1.41
		c0,0.26-0.07,0.5-0.19,0.71h19.8l5.63,5.64v3.47l1,1h12.18l2.94,2.94V81.65z M145.19,21.99c1.56,0,2.83,1.27,2.83,2.83
		s-1.27,2.83-2.83,2.83s-2.83-1.27-2.83-2.83S143.63,21.99,145.19,21.99z M142.35,47.37c0-1.56,1.27-2.83,2.83-2.83
		s2.83,1.27,2.83,2.83s-1.27,2.83-2.83,2.83C143.63,50.2,142.35,48.93,142.35,47.37z M161.44,79.09c0,4.22-3.44,7.65-7.66,7.65
		s-7.65-3.43-7.65-7.65s3.43-7.65,7.65-7.65S161.44,74.87,161.44,79.09z"/>
</g>
</svg>
