<?xml version="1.0" encoding="utf-8"?>
<!-- Generator: Adobe Illustrator 27.0.0, SVG Export Plug-In . SVG Version: 6.00 Build 0)  -->
<svg version="1.1" id="Calque_1" xmlns="http://www.w3.org/2000/svg" xmlns:xlink="http://www.w3.org/1999/xlink" x="0px" y="0px"
	 viewBox="0 0 172.88 106.64" style="enable-background:new 0 0 172.88 106.64;" xml:space="preserve">
<style type="text/css">
	.st0{fill:none;stroke:#000000;stroke-width:0.1;stroke-miterlimit:10;}
	.st1{fill:none;stroke:#000000;stroke-width:0.98;}
	.st2{fill:none;stroke:#000000;stroke-width:1.7;stroke-miterlimit:10;}
	.st3{fill:none;stroke:#000000;stroke-width:2;stroke-miterlimit:10;}
	.st4{fill:none;stroke:#000000;stroke-miterlimit:10;}
</style>
<path class="st0" d="M164.07,94.99H9.9V16.11c0-3.71,3.01-6.73,6.73-6.73h140.7c3.71,0,6.73,3.01,6.73,6.73v78.88H164.07z"/>
<g>
	<circle cx="95.11" cy="47.97" r="0.85"/>
	<circle cx="96.95" cy="49.28" r="0.85"/>
	<circle cx="98.79" cy="47.97" r="0.85"/>
	<circle cx="111.49" cy="62.54" r="0.85"/>
	<circle cx="108.29" cy="62.54" r="0.85"/>
	<circle cx="105.07" cy="62.54" r="0.85"/>
	<circle cx="101.86" cy="57.9" r="0.85"/>
	<circle cx="101.86" cy="62.54" r="0.85"/>
	<circle cx="98.65" cy="57.9" r="0.85"/>
	<circle cx="98.65" cy="62.54" r="0.85"/>
	<circle cx="95.43" cy="57.9" r="0.85"/>
	<circle cx="95.43" cy="62.54" r="0.85"/>
	<circle cx="92.22" cy="57.9" r="0.85"/>
	<circle cx="92.22" cy="62.54" r="0.85"/>
	<circle cx="89.01" cy="57.9" r="0.85"/>
	<circle cx="89.01" cy="62.54" r="0.85"/>
	<circle cx="85.8" cy="57.9" r="0.85"/>
	<circle cx="85.8" cy="62.54" r="0.85"/>
	<circle cx="82.58" cy="57.9" r="0.85"/>
	<circle cx="82.58" cy="62.54" r="0.85"/>
	<circle cx="79.37" cy="57.9" r="0.85"/>
	<circle cx="69.73" cy="62.54" r="0.85"/>
	<circle cx="66.52" cy="57.9" r="0.85"/>
	<circle cx="66.52" cy="62.54" r="0.85"/>
	<circle cx="63.31" cy="57.9" r="0.85"/>
	<circle cx="63.31" cy="62.54" r="0.85"/>
	<circle cx="60.09" cy="57.9" r="0.85"/>
	<circle cx="60.09" cy="62.54" r="0.85"/>
	<circle cx="56.88" cy="57.9" r="0.85"/>
	<circle cx="56.88" cy="62.54" r="0.85"/>
	<circle cx="85.15" cy="45.63" r="0.85"/>
	<circle cx="64.88" cy="27.07" r="0.85"/>
	<circle cx="77.27" cy="27.07" r="0.85"/>
	<circle cx="64.88" cy="25.79" r="0.85"/>
	<circle cx="77.27" cy="25.79" r="0.85"/>
	<circle cx="105.07" cy="57.9" r="0.85"/>
	<circle cx="35.18" cy="55.99" r="0.85"/>
	<circle cx="118.24" cy="36.45" r="0.85"/>
	<circle cx="112.24" cy="36.45" r="0.85"/>
	<circle cx="76.16" cy="62.54" r="0.85"/>
	<circle cx="76.16" cy="57.9" r="0.85"/>
	<circle cx="72.95" cy="57.9" r="0.85"/>
	<circle cx="109.85" cy="39.4" r="0.85"/>
	<circle cx="108" cy="40.4" r="0.85"/>
	<circle cx="106.16" cy="41.4" r="0.85"/>
	<circle cx="104.32" cy="42.41" r="0.85"/>
	<circle cx="102.48" cy="43.41" r="0.85"/>
	<circle cx="100.63" cy="44.41" r="0.85"/>
	<circle cx="98.79" cy="45.41" r="0.85"/>
	<circle cx="96.95" cy="46.41" r="0.85"/>
	<circle cx="35.18" cy="53.01" r="0.85"/>
	<circle cx="86.96" cy="44.43" r="0.85"/>
	<circle cx="91.71" cy="39.65" r="0.85"/>
	<circle cx="112.24" cy="39.57" r="0.85"/>
	<circle cx="118.94" cy="34.04" r="0.85"/>
	<circle cx="118.96" cy="29.49" r="0.85"/>
	<circle cx="118.94" cy="27.1" r="0.85"/>
	<circle cx="118.94" cy="45.8" r="0.85"/>
	<circle cx="118.94" cy="48.92" r="0.85"/>
	<circle cx="26.16" cy="27.91" r="0.5"/>
	<circle cx="51.57" cy="34.5" r="0.5"/>
	<circle cx="50.73" cy="35.64" r="0.5"/>
	<circle cx="51.57" cy="36.77" r="0.5"/>
	<circle cx="50.73" cy="37.91" r="0.5"/>
	<circle cx="46.11" cy="43.36" r="0.5"/>
	<circle cx="44.98" cy="42.52" r="0.5"/>
	<circle cx="43.85" cy="43.36" r="0.5"/>
	<circle cx="42.71" cy="42.52" r="0.5"/>
	<circle cx="22.92" cy="30.7" r="0.5"/>
	<circle cx="22.92" cy="27.7" r="0.5"/>
	<circle cx="22.92" cy="24.7" r="0.5"/>
	<circle cx="22.92" cy="21.7" r="0.5"/>
	<circle cx="39.31" cy="43.15" r="0.5"/>
	<circle cx="40.44" cy="42.52" r="0.5"/>
	<circle cx="37.04" cy="43.16" r="0.5"/>
	<circle cx="38.18" cy="42.53" r="0.5"/>
	<circle cx="34.78" cy="43.16" r="0.5"/>
	<circle cx="35.91" cy="42.53" r="0.5"/>
	<circle cx="32.51" cy="42.52" r="0.5"/>
	<circle cx="26.16" cy="26.35" r="0.5"/>
	<circle cx="49.79" cy="15.7" r="0.5"/>
	<circle cx="49.79" cy="12.7" r="0.5"/>
	<circle cx="33.64" cy="18.55" r="0.5"/>
	<circle cx="34.78" cy="17.71" r="0.5"/>
	<circle cx="35.91" cy="18.55" r="0.5"/>
	<circle cx="39.89" cy="18.55" r="0.5"/>
	<circle cx="32.5" cy="43.96" r="0.5"/>
	<circle cx="25.95" cy="17.65" r="0.5"/>
	<circle cx="16.17" cy="42.91" r="0.5"/>
	<circle cx="43.85" cy="18.55" r="0.5"/>
	<circle cx="44.98" cy="17.55" r="0.5"/>
	<circle cx="42.71" cy="17.71" r="0.5"/>
	<circle cx="46.11" cy="18.55" r="0.5"/>
	<path d="M51.57,24.8c-0.27,0-0.5-0.22-0.5-0.5c0-0.27,0.22-0.5,0.5-0.5s0.5,0.22,0.5,0.5C52.07,24.57,51.84,24.8,51.57,24.8"/>
	<circle cx="51.57" cy="26.57" r="0.5"/>
	<circle cx="50.73" cy="27.7" r="0.5"/>
	<path d="M50.73,25.92c-0.27,0-0.5-0.22-0.5-0.5s0.22-0.5,0.5-0.5s0.5,0.22,0.5,0.5S51,25.92,50.73,25.92"/>
	<circle cx="72.37" cy="23.11" r="0.85"/>
	<circle cx="74.37" cy="22.39" r="0.85"/>
	<circle cx="76.42" cy="21.7" r="0.85"/>
	<circle cx="79.14" cy="21.02" r="0.85"/>
	<circle cx="66.34" cy="39.4" r="0.85"/>
	<circle cx="60.82" cy="39.4" r="0.85"/>
	<circle cx="70.02" cy="41.56" r="0.85"/>
	<circle cx="71.86" cy="44.44" r="0.85"/>
	<circle cx="58.96" cy="43.71" r="0.85"/>
	<circle cx="77.78" cy="43.03" r="0.85"/>
	<circle cx="70.02" cy="39.4" r="0.85"/>
	<circle cx="83.3" cy="39.4" r="0.85"/>
	<circle cx="77.78" cy="39.4" r="0.85"/>
	<circle cx="127.08" cy="57.54" r="0.85"/>
	<circle cx="141.36" cy="60.15" r="0.85"/>
	<circle cx="149.14" cy="58.88" r="0.85"/>
	<circle cx="105.42" cy="22.66" r="0.85"/>
	<circle cx="92.23" cy="21.9" r="0.85"/>
	<circle cx="92.23" cy="27.19" r="0.85"/>
	<circle cx="57.12" cy="39.4" r="0.85"/>
	<circle cx="37.52" cy="52.32" r="0.85"/>
	<circle cx="90.23" cy="12.96" r="0.85"/>
	<circle cx="53.58" cy="29.67" r="0.5"/>
	<circle cx="19.82" cy="15.7" r="0.5"/>
	<circle cx="22.92" cy="12.7" r="0.5"/>
	<circle cx="40.34" cy="12.7" r="0.5"/>
	<circle cx="40.34" cy="15.7" r="0.5"/>
	<circle cx="28.36" cy="15.7" r="0.5"/>
	<circle cx="28.36" cy="12.7" r="0.5"/>
	<circle cx="19.1" cy="34.41" r="0.5"/>
	<circle cx="18.1" cy="34.41" r="0.5"/>
	<line class="st1" x1="19.1" y1="34.41" x2="18.1" y2="34.41"/>
	<line class="st2" x1="77.27" y1="25.79" x2="77.27" y2="27.07"/>
	<line class="st2" x1="64.88" y1="25.79" x2="64.88" y2="27.07"/>
	<path d="M81.53,27.02c0,0.09,0.01,3.11,0.02,3.19c0.12,0.86,0.85,1.52,1.74,1.52s1.62-0.65,1.75-1.5c0.01-0.09,0.02-3.11,0.02-3.2
		c0-0.97-0.79-1.76-1.77-1.76C82.32,25.26,81.53,26.05,81.53,27.02z"/>
	<path d="M81.53,15.61c0,0.09,0.01,2.27,0.02,2.35c0.12,0.86,0.85,1.52,1.74,1.52s1.62-0.65,1.75-1.5c0.01-0.09,0.02-2.28,0.02-2.37
		c0-0.97-0.79-1.76-1.77-1.76C82.32,13.84,81.53,14.63,81.53,15.61z"/>
	<path d="M57.03,27.02c0,0.09,0.01,3.11,0.02,3.19c0.12,0.86,0.85,1.52,1.74,1.52c0.89,0,1.62-0.65,1.75-1.5
		c0.01-0.09,0.02-3.11,0.02-3.2c0-0.97-0.79-1.76-1.77-1.76C57.82,25.26,57.03,26.05,57.03,27.02z"/>
	<path d="M57.03,15.61c0,0.09,0.01,2.27,0.02,2.35c0.12,0.86,0.85,1.52,1.74,1.52c0.89,0,1.62-0.65,1.75-1.5
		c0.01-0.09,0.02-2.28,0.02-2.37c0-0.97-0.79-1.76-1.77-1.76C57.82,13.84,57.03,14.63,57.03,15.61z"/>
	<line class="st3" x1="12.28" y1="79.09" x2="30.57" y2="79.09"/>
	<line class="st3" x1="20.37" y1="87.74" x2="20.37" y2="67.83"/>
	<line class="st3" x1="145.7" y1="79.09" x2="161.87" y2="79.09"/>
	<line class="st3" x1="153.78" y1="87.17" x2="153.78" y2="69.53"/>
	<line class="st4" x1="83.29" y1="20.47" x2="83.29" y2="13.04"/>
	<line class="st4" x1="80.1" y1="16.66" x2="88.47" y2="16.66"/>
	<line class="st4" x1="55.78" y1="16.66" x2="63.2" y2="16.66"/>
	<line class="st4" x1="58.8" y1="21.14" x2="58.8" y2="12.41"/>
	<line class="st4" x1="58.8" y1="32.81" x2="58.8" y2="24.2"/>
	<line class="st4" x1="58.8" y1="28.49" x2="55.54" y2="28.49"/>
	<line class="st4" x1="83.29" y1="32.88" x2="83.29" y2="24.05"/>
	<line class="st4" x1="83.29" y1="28.49" x2="86.6" y2="28.49"/>
	<circle cx="12.38" cy="49.89" r="0.85"/>
	<circle cx="12.38" cy="51.53" r="0.85"/>
	<circle cx="12.38" cy="53.16" r="0.85"/>
	<circle cx="12.38" cy="54.8" r="0.85"/>
	<circle cx="12.38" cy="56.43" r="0.85"/>
	<circle cx="12.37" cy="58.13" r="0.85"/>
	<circle cx="12.37" cy="59.76" r="0.85"/>
	<circle cx="12.37" cy="61.4" r="0.85"/>
	<circle cx="53.61" cy="55.28" r="0.85"/>
	<circle cx="53.61" cy="56.98" r="0.85"/>
	<line class="st2" x1="12.38" y1="49.89" x2="12.38" y2="61.4"/>
	<line class="st2" x1="53.61" y1="55.28" x2="53.61" y2="56.98"/>
	<circle cx="26.09" cy="42.91" r="0.85"/>
	<circle cx="43.81" cy="79.09" r="2.27"/>
	<circle cx="47.41" cy="84.47" r="2.27"/>
	<circle cx="20.37" cy="79.09" r="7.09"/>
	<circle cx="153.78" cy="79.09" r="7.09"/>
	<circle cx="51.01" cy="79.09" r="2.27"/>
	<circle cx="54.61" cy="84.47" r="2.27"/>
	<circle cx="58.21" cy="79.09" r="2.27"/>
	<circle cx="61.81" cy="84.47" r="2.27"/>
	<circle cx="65.41" cy="79.09" r="2.27"/>
	<circle cx="69.01" cy="84.47" r="2.27"/>
	<circle cx="72.61" cy="79.09" r="2.27"/>
	<circle cx="87.01" cy="79.09" r="2.27"/>
	<circle cx="97.81" cy="84.47" r="2.27"/>
	<circle cx="101.41" cy="79.09" r="2.27"/>
	<circle cx="105.01" cy="84.47" r="2.27"/>
	<circle cx="108.61" cy="79.09" r="2.27"/>
	<circle cx="112.21" cy="84.47" r="2.27"/>
	<circle cx="115.81" cy="79.09" r="2.27"/>
	<circle cx="119.41" cy="84.47" r="2.27"/>
	<circle cx="123.01" cy="79.09" r="2.27"/>
	<circle cx="126.61" cy="84.47" r="2.27"/>
	<circle cx="130.21" cy="79.09" r="2.27"/>
	<path d="M118.95,47.51c-0.79,0-1.42,0.63-1.42,1.42c0,0.78,0.63,1.41,1.42,1.41c0.78,0,1.41-0.63,1.41-1.41
		C120.36,48.14,119.73,47.51,118.95,47.51z M118.95,47.22c0.78,0,1.41-0.63,1.41-1.41s-0.63-1.42-1.41-1.42
		c-0.79,0-1.42,0.64-1.42,1.42S118.16,47.22,118.95,47.22z M112.24,38.15c-0.47,0-0.89,0.23-1.15,0.59
		c-0.23-0.45-0.7-0.75-1.24-0.75c-0.67,0-1.23,0.47-1.37,1.09c-0.14-0.06-0.3-0.09-0.47-0.09c-0.67,0-1.23,0.47-1.37,1.09
		c-0.14-0.06-0.3-0.09-0.47-0.09c-0.68,0-1.23,0.47-1.37,1.09c-0.15-0.06-0.31-0.09-0.48-0.09c-0.67,0-1.23,0.47-1.37,1.09
		c-0.14-0.06-0.3-0.09-0.47-0.09c-0.67,0-1.23,0.47-1.37,1.09c-0.14-0.06-0.3-0.09-0.47-0.09c-0.67,0-1.23,0.47-1.37,1.09
		c-0.14-0.06-0.3-0.09-0.47-0.09c-0.68,0-1.23,0.47-1.37,1.09c-0.15-0.06-0.31-0.09-0.48-0.09c-0.78,0-1.41,0.64-1.41,1.42
		c0,0.08,0.01,0.16,0.02,0.23c-0.14-0.05-0.29-0.08-0.45-0.08c-0.78,0-1.42,0.63-1.42,1.42c0,0.78,0.64,1.41,1.42,1.41
		c0.15,0,0.29-0.02,0.43-0.08c0.02,0.77,0.64,1.39,1.41,1.39c0.77,0,1.4-0.62,1.42-1.38c0.14,0.05,0.28,0.07,0.43,0.07
		c0.78,0,1.41-0.63,1.41-1.41c0-0.57-0.33-1.06-0.81-1.28c0.38-0.19,0.67-0.54,0.76-0.96c0.15,0.06,0.31,0.09,0.48,0.09
		c0.67,0,1.23-0.47,1.37-1.09c0.14,0.06,0.3,0.09,0.47,0.09c0.67,0,1.23-0.47,1.37-1.09c0.14,0.06,0.3,0.09,0.47,0.09
		c0.67,0,1.23-0.47,1.37-1.09c0.15,0.06,0.31,0.09,0.48,0.09c0.67,0,1.23-0.47,1.37-1.1c0.14,0.06,0.3,0.09,0.47,0.09
		c0.67,0,1.23-0.46,1.38-1.08c0.14,0.05,0.3,0.08,0.46,0.08c0.47,0,0.89-0.23,1.15-0.58c0.23,0.45,0.7,0.75,1.24,0.75
		c0.78,0,1.42-0.64,1.42-1.42C113.66,38.79,113.02,38.15,112.24,38.15z M112.24,37.87c0.78,0,1.42-0.64,1.42-1.42
		s-0.64-1.41-1.42-1.41s-1.42,0.63-1.42,1.41S111.46,37.87,112.24,37.87z M42.81,18.77c0.1,0.48,0.52,0.85,1.04,0.85
		c0.57,0,1.03-0.45,1.05-1.01c0.02,0.01,0.05,0.01,0.08,0.01s0.05,0,0.08-0.01c0.02,0.56,0.49,1.01,1.06,1.01
		c0.58,0,1.06-0.48,1.06-1.07c0-0.58-0.48-1.06-1.06-1.06c-0.03,0-0.05,0-0.08,0.01c-0.02-0.56-0.49-1.01-1.06-1.01
		c-0.56,0-1.03,0.45-1.05,1.01c-0.02-0.01-0.05-0.01-0.08-0.01c-0.03,0-0.06,0-0.09,0.01c-0.1-0.48-0.53-0.85-1.04-0.85
		c-0.59,0-1.07,0.48-1.07,1.06c0,0.59,0.48,1.07,1.07,1.07C42.75,18.78,42.78,18.78,42.81,18.77z M41.65,42.52
		c0,0.59,0.48,1.07,1.07,1.07c0.03,0,0.06,0,0.09-0.01c0.1,0.48,0.52,0.85,1.04,0.85s0.94-0.37,1.04-0.85
		c0.03,0.01,0.06,0.01,0.09,0.01s0.06,0,0.09-0.01c0.1,0.48,0.53,0.85,1.05,0.85c0.58,0,1.06-0.48,1.06-1.07
		c0-0.58-0.48-1.06-1.06-1.06c-0.03,0-0.06,0-0.09,0.01c-0.1-0.48-0.53-0.85-1.05-0.85c-0.51,0-0.94,0.37-1.04,0.85
		c-0.03-0.01-0.06-0.01-0.09-0.01s-0.06,0-0.09,0.01c-0.1-0.48-0.53-0.85-1.04-0.85C42.13,41.46,41.65,41.94,41.65,42.52z
		 M34.78,42.1c-0.59,0-1.06,0.47-1.06,1.06c0,0.58,0.47,1.06,1.06,1.06c0.43,0,0.81-0.27,0.98-0.64c0.05,0.01,0.1,0.01,0.15,0.01
		s0.1,0,0.15-0.01c0.17,0.38,0.55,0.65,0.99,0.65s0.81-0.27,0.98-0.65c0.05,0.01,0.1,0.01,0.15,0.01s0.1,0,0.15-0.01
		c0.17,0.37,0.55,0.64,0.98,0.64c0.44,0,0.82-0.27,0.99-0.64c0.05,0.01,0.1,0.01,0.15,0.01c0.58,0,1.06-0.48,1.06-1.06
		c0-0.59-0.48-1.07-1.06-1.07c-0.44,0-0.81,0.27-0.98,0.64c-0.05-0.01-0.11-0.01-0.16-0.01c-0.06,0-0.11,0-0.16,0.02
		c-0.16-0.38-0.53-0.64-0.97-0.64c-0.44,0-0.81,0.26-0.98,0.64c-0.05-0.01-0.1-0.01-0.15-0.01s-0.1,0-0.15,0.01
		c-0.17-0.38-0.55-0.64-0.99-0.64c-0.43,0-0.81,0.26-0.98,0.64C34.88,42.1,34.83,42.1,34.78,42.1z M33.29,43.25
		c0.17-0.19,0.28-0.44,0.28-0.72c0-0.59-0.47-1.07-1.06-1.07c-0.58,0-1.06,0.48-1.06,1.07c0,0.27,0.11,0.52,0.28,0.71
		c-0.18,0.19-0.29,0.44-0.29,0.72c0,0.59,0.48,1.07,1.07,1.07c0.58,0,1.06-0.48,1.06-1.07C33.57,43.69,33.46,43.44,33.29,43.25z
		 M36.6,55.99c0-0.78-0.64-1.41-1.42-1.41s-1.41,0.63-1.41,1.41s0.63,1.42,1.41,1.42S36.6,56.77,36.6,55.99z M34.87,18.77
		c0.1,0.48,0.53,0.85,1.04,0.85c0.59,0,1.07-0.48,1.07-1.07c0-0.58-0.48-1.06-1.07-1.06c-0.03,0-0.06,0-0.09,0.01
		c-0.1-0.48-0.53-0.85-1.04-0.85c-0.52,0-0.94,0.37-1.04,0.85c-0.03-0.01-0.07-0.01-0.1-0.01c-0.58,0-1.06,0.48-1.06,1.06
		c0,0.59,0.48,1.07,1.06,1.07c0.52,0,0.95-0.37,1.05-0.85c0.03,0.01,0.06,0.01,0.09,0.01S34.84,18.78,34.87,18.77z M35.18,54.43
		c0.67,0,1.24-0.46,1.38-1.09c0.25,0.25,0.59,0.4,0.97,0.4c0.78,0,1.42-0.64,1.42-1.42s-0.64-1.42-1.42-1.42
		c-0.67,0-1.23,0.47-1.38,1.09c-0.25-0.24-0.59-0.39-0.97-0.39c-0.78,0-1.41,0.63-1.41,1.42C33.77,53.8,34.4,54.43,35.18,54.43z
		 M162.65,93.58H11.32V62.34c0.25,0.29,0.63,0.48,1.06,0.48c0.78,0,1.41-0.64,1.41-1.42l0.01-11.51c0-0.78-0.63-1.41-1.41-1.41
		c-0.43,0-0.81,0.19-1.07,0.49V16.11c0-2.93,2.39-5.31,5.32-5.31h140.7c2.93,0,5.31,2.38,5.31,5.31V93.58z M161.44,79.09
		c0-4.22-3.43-7.65-7.65-7.65s-7.66,3.43-7.66,7.65s3.44,7.65,7.66,7.65S161.44,83.31,161.44,79.09z M150.56,58.88
		c0-0.78-0.64-1.42-1.42-1.42s-1.42,0.64-1.42,1.42s0.64,1.42,1.42,1.42S150.56,59.66,150.56,58.88z M148.03,24.83
		c0-1.56-1.27-2.84-2.84-2.84c-1.56,0-2.83,1.28-2.83,2.84s1.27,2.83,2.83,2.83C146.76,27.66,148.03,26.39,148.03,24.83z
		 M148.03,47.37c0-1.56-1.27-2.83-2.84-2.83c-1.56,0-2.83,1.27-2.83,2.83s1.27,2.84,2.83,2.84
		C146.76,50.21,148.03,48.93,148.03,47.37z M142.78,60.15c0-0.78-0.64-1.42-1.42-1.42s-1.42,0.64-1.42,1.42s0.64,1.42,1.42,1.42
		S142.78,60.93,142.78,60.15z M133.04,79.09c0-1.56-1.27-2.83-2.83-2.83s-2.84,1.27-2.84,2.83c0,1.56,1.28,2.84,2.84,2.84
		S133.04,80.65,133.04,79.09z M129.44,84.48c0-1.57-1.27-2.84-2.83-2.84s-2.84,1.27-2.84,2.84c0,1.56,1.28,2.83,2.84,2.83
		C128.17,87.31,129.44,86.04,129.44,84.48z M128.5,57.54c0-0.78-0.64-1.42-1.42-1.42s-1.42,0.64-1.42,1.42s0.64,1.42,1.42,1.42
		S128.5,58.32,128.5,57.54z M125.84,79.09c0-1.56-1.27-2.83-2.83-2.83s-2.84,1.27-2.84,2.83c0,1.56,1.28,2.84,2.84,2.84
		S125.84,80.65,125.84,79.09z M122.24,84.48c0-1.57-1.27-2.84-2.83-2.84s-2.84,1.27-2.84,2.84c0,1.56,1.28,2.83,2.84,2.83
		S122.24,86.04,122.24,84.48z M120.38,29.49c0-0.51-0.27-0.95-0.67-1.2c0.39-0.25,0.65-0.69,0.65-1.19c0-0.78-0.63-1.42-1.41-1.42
		c-0.79,0-1.42,0.64-1.42,1.42c0,0.51,0.27,0.96,0.67,1.21c-0.39,0.24-0.65,0.68-0.65,1.18c0,0.78,0.63,1.42,1.41,1.42
		C119.75,30.91,120.38,30.27,120.38,29.49z M119.66,36.45c0-0.4-0.17-0.76-0.44-1.02c0.65-0.12,1.15-0.69,1.15-1.39
		c0-0.78-0.64-1.41-1.42-1.41s-1.42,0.63-1.42,1.41c0,0.4,0.17,0.77,0.44,1.03c-0.65,0.12-1.15,0.69-1.15,1.38
		c0,0.78,0.64,1.42,1.42,1.42S119.66,37.23,119.66,36.45z M118.64,79.09c0-1.56-1.27-2.83-2.83-2.83c-1.56,0-2.84,1.27-2.84,2.83
		c0,1.56,1.28,2.84,2.84,2.84C117.37,81.93,118.64,80.65,118.64,79.09z M115.04,84.48c0-1.57-1.27-2.84-2.83-2.84
		c-1.56,0-2.84,1.27-2.84,2.84c0,1.56,1.28,2.83,2.84,2.83C113.77,87.31,115.04,86.04,115.04,84.48z M112.91,62.55
		c0-0.79-0.64-1.42-1.42-1.42s-1.41,0.63-1.41,1.42c0,0.78,0.63,1.41,1.41,1.41S112.91,63.33,112.91,62.55z M111.44,79.09
		c0-1.56-1.27-2.83-2.83-2.83c-1.56,0-2.84,1.27-2.84,2.83c0,1.56,1.28,2.84,2.84,2.84C110.17,81.93,111.44,80.65,111.44,79.09z
		 M109.71,62.55c0-0.79-0.64-1.42-1.42-1.42s-1.42,0.63-1.42,1.42c0,0.78,0.64,1.41,1.42,1.41S109.71,63.33,109.71,62.55z
		 M107.84,84.48c0-1.57-1.27-2.84-2.83-2.84s-2.84,1.27-2.84,2.84c0,1.56,1.28,2.83,2.84,2.83S107.84,86.04,107.84,84.48z
		 M106.84,22.66c0-0.78-0.64-1.42-1.42-1.42S104,21.88,104,22.66s0.64,1.42,1.42,1.42S106.84,23.44,106.84,22.66z M106.49,57.91
		c0-0.79-0.63-1.42-1.41-1.42s-1.42,0.63-1.42,1.42c0,0.78,0.64,1.41,1.42,1.41S106.49,58.69,106.49,57.91z M106.49,62.55
		c0-0.79-0.63-1.42-1.41-1.42s-1.42,0.63-1.42,1.42c0,0.78,0.64,1.41,1.42,1.41S106.49,63.33,106.49,62.55z M104.24,79.09
		c0-1.56-1.27-2.83-2.83-2.83s-2.84,1.27-2.84,2.83c0,1.56,1.28,2.84,2.84,2.84S104.24,80.65,104.24,79.09z M103.28,57.91
		c0-0.79-0.64-1.42-1.42-1.42s-1.41,0.63-1.41,1.42c0,0.78,0.63,1.41,1.41,1.41S103.28,58.69,103.28,57.91z M103.28,62.55
		c0-0.79-0.64-1.42-1.42-1.42s-1.41,0.63-1.41,1.42c0,0.78,0.63,1.41,1.41,1.41S103.28,63.33,103.28,62.55z M100.64,84.48
		c0-1.57-1.27-2.84-2.83-2.84c-1.56,0-2.84,1.27-2.84,2.84c0,1.56,1.28,2.83,2.84,2.83C99.37,87.31,100.64,86.04,100.64,84.48z
		 M100.07,57.91c0-0.79-0.64-1.42-1.42-1.42s-1.42,0.63-1.42,1.42c0,0.78,0.64,1.41,1.42,1.41S100.07,58.69,100.07,57.91z
		 M100.07,62.55c0-0.79-0.64-1.42-1.42-1.42s-1.42,0.63-1.42,1.42c0,0.78,0.64,1.41,1.42,1.41S100.07,63.33,100.07,62.55z
		 M96.86,57.91c0-0.79-0.64-1.42-1.42-1.42s-1.42,0.63-1.42,1.42c0,0.78,0.64,1.41,1.42,1.41S96.86,58.69,96.86,57.91z M96.86,62.55
		c0-0.79-0.64-1.42-1.42-1.42s-1.42,0.63-1.42,1.42c0,0.78,0.64,1.41,1.42,1.41S96.86,63.33,96.86,62.55z M93.65,21.91
		c0-0.78-0.63-1.42-1.42-1.42c-0.78,0-1.41,0.64-1.41,1.42s0.63,1.41,1.41,1.41C93.02,23.32,93.65,22.69,93.65,21.91z M93.65,27.19
		c0-0.78-0.63-1.42-1.42-1.42c-0.78,0-1.41,0.64-1.41,1.42s0.63,1.42,1.41,1.42C93.02,28.61,93.65,27.97,93.65,27.19z M93.64,57.91
		c0-0.79-0.63-1.42-1.41-1.42c-0.79,0-1.42,0.63-1.42,1.42c0,0.78,0.63,1.41,1.42,1.41C93.01,59.32,93.64,58.69,93.64,57.91z
		 M93.64,62.55c0-0.79-0.63-1.42-1.41-1.42c-0.79,0-1.42,0.63-1.42,1.42c0,0.78,0.63,1.41,1.42,1.41
		C93.01,63.96,93.64,63.33,93.64,62.55z M93.13,39.66c0-0.78-0.63-1.42-1.41-1.42c-0.79,0-1.42,0.64-1.42,1.42s0.63,1.41,1.42,1.41
		C92.5,41.07,93.13,40.44,93.13,39.66z M91.65,12.96c0-0.78-0.63-1.41-1.42-1.41c-0.78,0-1.41,0.63-1.41,1.41s0.63,1.42,1.41,1.42
		C91.02,14.38,91.65,13.74,91.65,12.96z M90.43,57.91c0-0.79-0.64-1.42-1.42-1.42s-1.42,0.63-1.42,1.42c0,0.78,0.64,1.41,1.42,1.41
		S90.43,58.69,90.43,57.91z M90.43,62.55c0-0.79-0.64-1.42-1.42-1.42s-1.42,0.63-1.42,1.42c0,0.78,0.64,1.41,1.42,1.41
		S90.43,63.33,90.43,62.55z M89.84,79.09c0-1.56-1.27-2.83-2.83-2.83s-2.84,1.27-2.84,2.83c0,1.56,1.28,2.84,2.84,2.84
		S89.84,80.65,89.84,79.09z M88.38,44.44c0-0.78-0.64-1.42-1.42-1.42c-0.73,0-1.32,0.56-1.39,1.27c-0.13-0.05-0.27-0.07-0.42-0.07
		c-0.78,0-1.42,0.64-1.42,1.42s0.64,1.41,1.42,1.41c0.73,0,1.34-0.55,1.4-1.27c0.13,0.05,0.27,0.07,0.41,0.07
		C87.74,45.85,88.38,45.22,88.38,44.44z M87.22,57.91c0-0.79-0.64-1.42-1.42-1.42s-1.42,0.63-1.42,1.42c0,0.78,0.64,1.41,1.42,1.41
		S87.22,58.69,87.22,57.91z M87.22,62.55c0-0.79-0.64-1.42-1.42-1.42s-1.42,0.63-1.42,1.42c0,0.78,0.64,1.41,1.42,1.41
		S87.22,63.33,87.22,62.55z M85.6,30.31c0.03-0.16,0.03-3.25,0.03-3.28c0-1.29-1.05-2.33-2.33-2.33c-0.89,0-1.67,0.5-2.06,1.24
		c-0.4-0.68-1.13-1.14-1.97-1.14c-0.3,0-0.59,0.06-0.85,0.17c-0.25-0.36-0.68-0.59-1.15-0.59c-0.78,0-1.42,0.63-1.42,1.41
		c0,0.23,0,1.05,0,1.28c0,0.78,0.64,1.42,1.42,1.42c0.07,0,0.15-0.01,0.22-0.02c0.42,0.53,1.06,0.87,1.78,0.87
		c0.68,0,1.29-0.3,1.7-0.78c0,0.81,0.01,1.66,0.02,1.73c0.16,1.15,1.15,2.01,2.31,2.01C84.44,32.3,85.43,31.44,85.6,30.31z
		 M85.6,18.06c0.03-0.16,0.03-2.43,0.03-2.45c0-1.29-1.05-2.33-2.33-2.33c-1.29,0-2.33,1.04-2.33,2.33c0,0.02,0,2.28,0.02,2.43
		c0.16,1.14,1.15,2.01,2.31,2.01C84.44,20.05,85.43,19.19,85.6,18.06z M84.73,39.41c0-0.78-0.64-1.42-1.42-1.42
		s-1.42,0.64-1.42,1.42s0.64,1.41,1.42,1.41S84.73,40.19,84.73,39.41z M84.01,57.91c0-0.79-0.64-1.42-1.42-1.42
		s-1.42,0.63-1.42,1.42c0,0.78,0.64,1.41,1.42,1.41S84.01,58.69,84.01,57.91z M84.01,62.55c0-0.79-0.64-1.42-1.42-1.42
		s-1.42,0.63-1.42,1.42c0,0.78,0.64,1.41,1.42,1.41S84.01,63.33,84.01,62.55z M80.79,57.91c0-0.79-0.63-1.42-1.42-1.42
		c-0.78,0-1.41,0.63-1.41,1.42c0,0.78,0.63,1.41,1.41,1.41C80.16,59.32,80.79,58.69,80.79,57.91z M80.56,21.02
		c0-0.78-0.64-1.42-1.42-1.42s-1.42,0.64-1.42,1.42c0,0.05,0,0.09,0.01,0.13c-0.22-0.51-0.72-0.86-1.31-0.86
		c-0.6,0-1.11,0.37-1.32,0.89c-0.21-0.13-0.46-0.21-0.73-0.21c-0.6,0-1.11,0.37-1.32,0.9c-0.2-0.12-0.43-0.18-0.68-0.18
		c-0.78,0-1.41,0.64-1.41,1.42s0.63,1.42,1.41,1.42c0.6,0,1.11-0.37,1.32-0.9c0.2,0.12,0.43,0.18,0.68,0.18
		c0.6,0,1.11-0.37,1.32-0.9c0.21,0.14,0.46,0.21,0.73,0.21c0.78,0,1.42-0.63,1.42-1.41c0-0.05,0-0.09-0.01-0.14
		c0.22,0.51,0.72,0.87,1.31,0.87C79.92,22.44,80.56,21.8,80.56,21.02z M79.2,39.41c0-0.78-0.64-1.42-1.42-1.42s-1.42,0.64-1.42,1.42
		s0.64,1.41,1.42,1.41S79.2,40.19,79.2,39.41z M79.2,43.03c0-0.78-0.64-1.42-1.42-1.42s-1.42,0.64-1.42,1.42s0.64,1.42,1.42,1.42
		C78.56,44.45,79.2,43.81,79.2,43.03z M77.58,57.91c0-0.79-0.64-1.42-1.42-1.42s-1.42,0.63-1.42,1.42c0,0.78,0.64,1.41,1.42,1.41
		S77.58,58.69,77.58,57.91z M77.58,62.55c0-0.79-0.64-1.42-1.42-1.42s-1.42,0.63-1.42,1.42c0,0.78,0.64,1.41,1.42,1.41
		S77.58,63.33,77.58,62.55z M75.44,79.09c0-1.56-1.27-2.83-2.83-2.83c-1.56,0-2.84,1.27-2.84,2.83c0,1.56,1.28,2.84,2.84,2.84
		C74.17,81.93,75.44,80.65,75.44,79.09z M74.37,57.91c0-0.79-0.64-1.42-1.42-1.42s-1.42,0.63-1.42,1.42c0,0.78,0.64,1.41,1.42,1.41
		S74.37,58.69,74.37,57.91z M73.28,44.44c0-0.78-0.63-1.42-1.41-1.42s-1.42,0.64-1.42,1.42s0.64,1.42,1.42,1.42
		S73.28,45.22,73.28,44.44z M71.84,84.48c0-1.57-1.27-2.84-2.83-2.84s-2.84,1.27-2.84,2.84c0,1.56,1.28,2.83,2.84,2.83
		S71.84,86.04,71.84,84.48z M70.93,40.49c0.31-0.26,0.51-0.65,0.51-1.08c0-0.78-0.64-1.42-1.42-1.42s-1.41,0.64-1.41,1.42
		c0,0.43,0.19,0.82,0.5,1.08c-0.31,0.25-0.5,0.64-0.5,1.07c0,0.79,0.63,1.42,1.41,1.42s1.42-0.63,1.42-1.42
		C71.44,41.13,71.24,40.74,70.93,40.49z M71.15,62.55c0-0.79-0.63-1.42-1.41-1.42s-1.42,0.63-1.42,1.42c0,0.78,0.64,1.41,1.42,1.41
		S71.15,63.33,71.15,62.55z M68.24,79.09c0-1.56-1.27-2.83-2.83-2.83c-1.56,0-2.84,1.27-2.84,2.83c0,1.56,1.28,2.84,2.84,2.84
		C66.97,81.93,68.24,80.65,68.24,79.09z M67.94,57.91c0-0.79-0.64-1.42-1.42-1.42s-1.41,0.63-1.41,1.42c0,0.78,0.63,1.41,1.41,1.41
		S67.94,58.69,67.94,57.91z M67.94,62.55c0-0.79-0.64-1.42-1.42-1.42s-1.41,0.63-1.41,1.42c0,0.78,0.63,1.41,1.41,1.41
		S67.94,63.33,67.94,62.55z M67.76,39.41c0-0.78-0.64-1.42-1.42-1.42s-1.42,0.64-1.42,1.42s0.64,1.41,1.42,1.41
		S67.76,40.19,67.76,39.41z M66.31,25.79c0-0.78-0.64-1.41-1.42-1.41c-0.47,0-0.9,0.23-1.15,0.59c-0.26-0.11-0.55-0.17-0.85-0.17
		c-0.86,0-1.61,0.48-2,1.19c-0.39-0.77-1.17-1.29-2.09-1.29c-1.29,0-2.33,1.04-2.33,2.33c0,0.03,0,3.11,0.02,3.26
		c0.16,1.15,1.15,2.01,2.31,2.01c1.15,0,2.14-0.86,2.31-1.99c0.01-0.08,0.02-0.98,0.02-1.81c0.42,0.51,1.05,0.84,1.76,0.84
		c0.72,0,1.36-0.34,1.78-0.87c0.07,0.01,0.15,0.02,0.22,0.02c0.78,0,1.42-0.64,1.42-1.42C66.31,26.84,66.31,26.02,66.31,25.79z
		 M64.64,84.48c0-1.57-1.27-2.84-2.83-2.84s-2.84,1.27-2.84,2.84c0,1.56,1.28,2.83,2.84,2.83C63.37,87.31,64.64,86.04,64.64,84.48z
		 M64.73,57.91c0-0.79-0.64-1.42-1.42-1.42s-1.42,0.63-1.42,1.42c0,0.78,0.64,1.41,1.42,1.41C64.09,59.32,64.73,58.69,64.73,57.91z
		 M64.73,62.55c0-0.79-0.64-1.42-1.42-1.42s-1.42,0.63-1.42,1.42c0,0.78,0.64,1.41,1.42,1.41C64.09,63.96,64.73,63.33,64.73,62.55z
		 M61.11,18.06c0.02-0.16,0.02-2.43,0.02-2.45c0-1.29-1.04-2.33-2.33-2.33s-2.33,1.04-2.33,2.33c0,0.02,0,2.29,0.02,2.43
		c0.16,1.14,1.15,2.01,2.31,2.01C59.95,20.05,60.94,19.19,61.11,18.06z M62.24,39.41c0-0.78-0.64-1.42-1.42-1.42
		s-1.41,0.64-1.41,1.42s0.63,1.41,1.41,1.41S62.24,40.19,62.24,39.41z M61.04,79.09c0-1.56-1.27-2.83-2.83-2.83
		s-2.84,1.27-2.84,2.83c0,1.56,1.28,2.84,2.84,2.84S61.04,80.65,61.04,79.09z M61.52,57.91c0-0.79-0.64-1.42-1.42-1.42
		s-1.42,0.63-1.42,1.42c0,0.78,0.64,1.41,1.42,1.41S61.52,58.69,61.52,57.91z M61.52,62.55c0-0.79-0.64-1.42-1.42-1.42
		s-1.42,0.63-1.42,1.42c0,0.78,0.64,1.41,1.42,1.41S61.52,63.33,61.52,62.55z M60.38,43.71c0-0.78-0.63-1.42-1.42-1.42
		c-0.78,0-1.41,0.64-1.41,1.42s0.63,1.42,1.41,1.42C59.75,45.13,60.38,44.49,60.38,43.71z M58.54,39.41c0-0.78-0.63-1.42-1.41-1.42
		c-0.79,0-1.42,0.64-1.42,1.42s0.63,1.41,1.42,1.41C57.91,40.82,58.54,40.19,58.54,39.41z M58.3,57.91c0-0.79-0.63-1.42-1.41-1.42
		c-0.79,0-1.42,0.63-1.42,1.42c0,0.78,0.63,1.41,1.42,1.41C57.67,59.32,58.3,58.69,58.3,57.91z M58.3,62.55
		c0-0.79-0.63-1.42-1.41-1.42c-0.79,0-1.42,0.63-1.42,1.42c0,0.78,0.63,1.41,1.42,1.41C57.67,63.96,58.3,63.33,58.3,62.55z
		 M57.44,84.48c0-1.57-1.27-2.84-2.83-2.84c-1.56,0-2.83,1.27-2.83,2.84c0,1.56,1.27,2.83,2.83,2.83
		C56.17,87.31,57.44,86.04,57.44,84.48z M55.03,55.28c0-0.78-0.63-1.42-1.41-1.42c-0.79,0-1.42,0.64-1.42,1.42c0,0.32,0,1.38,0,1.7
		c0,0.78,0.63,1.42,1.42,1.42c0.78,0,1.41-0.64,1.41-1.42C55.03,56.66,55.03,55.6,55.03,55.28z M54.64,29.67
		c0-0.58-0.47-1.06-1.06-1.06s-1.06,0.48-1.06,1.06c0,0.59,0.47,1.07,1.06,1.07S54.64,30.26,54.64,29.67z M53.84,79.09
		c0-1.56-1.27-2.83-2.83-2.83c-1.56,0-2.83,1.27-2.83,2.83c0,1.56,1.27,2.84,2.83,2.84C52.57,81.93,53.84,80.65,53.84,79.09z
		 M51.79,25.43c0-0.03,0-0.06-0.01-0.09c0.49-0.09,0.86-0.52,0.86-1.04c0-0.58-0.48-1.06-1.07-1.06c-0.58,0-1.06,0.48-1.06,1.06
		c0,0.03,0,0.06,0.01,0.08c-0.48,0.1-0.85,0.53-0.85,1.05c0,0.51,0.37,0.94,0.85,1.04c-0.01,0.03-0.01,0.06-0.01,0.1
		c0,0.03,0,0.06,0.01,0.09c-0.48,0.1-0.85,0.53-0.85,1.04c0,0.59,0.48,1.07,1.06,1.07c0.59,0,1.06-0.48,1.06-1.07
		c0-0.03,0-0.06-0.01-0.09c0.49-0.09,0.86-0.52,0.86-1.04s-0.37-0.95-0.86-1.04C51.79,25.5,51.79,25.46,51.79,25.43z M51.79,35.64
		c0-0.03,0-0.06-0.01-0.09c0.49-0.1,0.86-0.53,0.86-1.04c0-0.59-0.48-1.07-1.07-1.07c-0.58,0-1.06,0.48-1.06,1.07
		c0,0.03,0,0.06,0.01,0.09c-0.48,0.1-0.85,0.52-0.85,1.04s0.37,0.94,0.85,1.04c-0.01,0.03-0.01,0.06-0.01,0.09s0,0.07,0.01,0.1
		c-0.48,0.1-0.85,0.52-0.85,1.04c0,0.58,0.48,1.06,1.06,1.06c0.59,0,1.06-0.48,1.06-1.06c0-0.03,0-0.06-0.01-0.09
		c0.49-0.1,0.86-0.53,0.86-1.05c0-0.51-0.37-0.94-0.86-1.04C51.79,35.7,51.79,35.67,51.79,35.64z M50.85,12.7
		c0-0.59-0.47-1.07-1.06-1.07s-1.06,0.48-1.06,1.07c0,0.58,0.47,1.06,1.06,1.06S50.85,13.28,50.85,12.7z M50.85,15.7
		c0-0.59-0.47-1.06-1.06-1.06s-1.06,0.47-1.06,1.06c0,0.58,0.47,1.06,1.06,1.06S50.85,16.28,50.85,15.7z M50.24,84.48
		c0-1.57-1.27-2.84-2.83-2.84c-1.56,0-2.84,1.27-2.84,2.84c0,1.56,1.28,2.83,2.84,2.83C48.97,87.31,50.24,86.04,50.24,84.48z
		 M46.64,79.09c0-1.56-1.27-2.83-2.83-2.83s-2.84,1.27-2.84,2.83c0,1.56,1.28,2.84,2.84,2.84C45.37,81.93,46.64,80.65,46.64,79.09z
		 M41.41,12.7c0-0.59-0.48-1.07-1.06-1.07c-0.59,0-1.06,0.48-1.06,1.07c0,0.58,0.47,1.06,1.06,1.06
		C40.93,13.76,41.41,13.28,41.41,12.7z M41.41,15.7c0-0.59-0.48-1.06-1.06-1.06c-0.59,0-1.06,0.47-1.06,1.06
		c0,0.58,0.47,1.06,1.06,1.06C40.93,16.76,41.41,16.28,41.41,15.7z M40.96,18.55c0-0.58-0.48-1.06-1.07-1.06
		c-0.58,0-1.06,0.48-1.06,1.06c0,0.59,0.48,1.07,1.06,1.07C40.48,19.62,40.96,19.14,40.96,18.55z M29.42,12.7
		c0-0.59-0.47-1.07-1.06-1.07c-0.58,0-1.06,0.48-1.06,1.07c0,0.58,0.48,1.06,1.06,1.06C28.95,13.76,29.42,13.28,29.42,12.7z
		 M29.42,15.7c0-0.59-0.47-1.06-1.06-1.06c-0.58,0-1.06,0.47-1.06,1.06c0,0.58,0.48,1.06,1.06,1.06
		C28.95,16.76,29.42,16.28,29.42,15.7z M26.89,27.14c0.21-0.2,0.34-0.48,0.34-0.78c0-0.59-0.48-1.07-1.06-1.07
		c-0.59,0-1.07,0.48-1.07,1.07c0,0.3,0.13,0.58,0.34,0.78c-0.21,0.19-0.34,0.47-0.34,0.78c0,0.58,0.48,1.06,1.07,1.06
		c0.58,0,1.06-0.48,1.06-1.06C27.23,27.61,27.1,27.33,26.89,27.14z M27.51,42.92c0-0.79-0.63-1.42-1.41-1.42
		c-0.79,0-1.42,0.63-1.42,1.42c0,0.78,0.63,1.41,1.42,1.41C26.88,44.33,27.51,43.7,27.51,42.92z M27.02,17.66
		c0-0.59-0.48-1.07-1.06-1.07c-0.59,0-1.06,0.48-1.06,1.07c0,0.58,0.47,1.06,1.06,1.06C26.54,18.72,27.02,18.24,27.02,17.66z
		 M28.03,79.09c0-4.22-3.44-7.65-7.66-7.65s-7.65,3.43-7.65,7.65s3.43,7.65,7.65,7.65S28.03,83.31,28.03,79.09z M23.98,12.7
		c0-0.59-0.47-1.07-1.06-1.07s-1.06,0.48-1.06,1.07c0,0.58,0.47,1.06,1.06,1.06S23.98,13.28,23.98,12.7z M23.98,21.7
		c0-0.59-0.47-1.06-1.06-1.06s-1.06,0.47-1.06,1.06c0,0.58,0.47,1.06,1.06,1.06S23.98,22.28,23.98,21.7z M23.98,24.7
		c0-0.59-0.47-1.06-1.06-1.06s-1.06,0.47-1.06,1.06c0,0.58,0.47,1.06,1.06,1.06S23.98,25.28,23.98,24.7z M23.98,27.7
		c0-0.59-0.47-1.06-1.06-1.06s-1.06,0.47-1.06,1.06c0,0.58,0.47,1.06,1.06,1.06S23.98,28.28,23.98,27.7z M23.98,30.7
		c0-0.59-0.47-1.06-1.06-1.06s-1.06,0.47-1.06,1.06s0.47,1.06,1.06,1.06S23.98,31.29,23.98,30.7z M20.89,15.7
		c0-0.59-0.48-1.06-1.07-1.06c-0.58,0-1.06,0.47-1.06,1.06c0,0.58,0.48,1.06,1.06,1.06C20.41,16.76,20.89,16.28,20.89,15.7z
		 M20.17,34.41c0-0.59-0.48-1.06-1.06-1.06c-0.18,0-0.82,0-1,0c-0.59,0-1.07,0.47-1.07,1.06s0.48,1.06,1.07,1.06c0.18,0,0.82,0,1,0
		C19.69,35.47,20.17,35,20.17,34.41z M17.24,42.92c0-0.59-0.48-1.07-1.07-1.07c-0.58,0-1.06,0.48-1.06,1.07
		c0,0.58,0.48,1.06,1.06,1.06C16.76,43.98,17.24,43.5,17.24,42.92z"/>
</g>
</svg>
