<?xml version="1.0" encoding="utf-8"?>
<!-- Generator: Adobe Illustrator 27.0.0, SVG Export Plug-In . SVG Version: 6.00 Build 0)  -->
<svg version="1.1" id="Calque_1" xmlns="http://www.w3.org/2000/svg" xmlns:xlink="http://www.w3.org/1999/xlink" x="0px" y="0px"
	 viewBox="0 0 172.88 106.64" style="enable-background:new 0 0 172.88 106.64;" xml:space="preserve">
<style type="text/css">
	.st0{fill:none;stroke:#000000;stroke-width:0.1;stroke-miterlimit:10;}
	.st1{fill:none;stroke:#000000;stroke-width:0.5;}
	.st2{stroke:#000000;stroke-width:0.5;stroke-linecap:round;stroke-linejoin:round;}
</style>
<path class="st0" d="M164.07,94.99H9.9V16.11c0-3.71,3.01-6.73,6.73-6.73h140.7c3.71,0,6.73,3.01,6.73,6.73v78.88H164.07z"/>
<g>
	<rect x="10.9" y="62.72" class="st1" width="152.48" height="31.38"/>
	<polygon class="st1" points="50.58,18.7 50.58,42.37 28.91,42.37 26.91,40.37 26.91,18.7 	"/>
	<g>
		<path d="M143.59,91.37v-3.58h0.47v1.47h1.86v-1.47h0.47v3.58h-0.47v-1.69h-1.86v1.69H143.59z"/>
		<path d="M147.19,91.37v-3.58h1.23c0.28,0,0.49,0.02,0.64,0.05c0.21,0.05,0.38,0.13,0.53,0.26c0.19,0.16,0.33,0.36,0.42,0.61
			s0.14,0.53,0.14,0.85c0,0.27-0.03,0.51-0.09,0.72s-0.15,0.38-0.24,0.52c-0.1,0.14-0.21,0.25-0.33,0.33s-0.26,0.14-0.43,0.18
			s-0.36,0.06-0.57,0.06H147.19z M147.66,90.95h0.76c0.24,0,0.42-0.02,0.55-0.07c0.13-0.04,0.24-0.11,0.32-0.19
			c0.11-0.11,0.2-0.26,0.26-0.45s0.09-0.42,0.09-0.69c0-0.38-0.06-0.66-0.18-0.86s-0.27-0.34-0.45-0.4
			c-0.13-0.05-0.33-0.07-0.61-0.07h-0.75L147.66,90.95L147.66,90.95z"/>
		<path d="M150.62,90.44l0.46-0.04c0.03,0.22,0.11,0.39,0.24,0.51c0.12,0.11,0.27,0.17,0.45,0.17c0.21,0,0.39-0.08,0.54-0.24
			c0.15-0.16,0.22-0.37,0.22-0.63c0-0.25-0.07-0.45-0.21-0.59c-0.14-0.15-0.33-0.22-0.55-0.22c-0.14,0-0.27,0.03-0.38,0.1
			c-0.11,0.06-0.2,0.15-0.27,0.25l-0.41-0.05l0.35-1.84h1.78v0.42h-1.43l-0.19,0.96c0.21-0.15,0.44-0.22,0.68-0.22
			c0.31,0,0.58,0.11,0.79,0.32c0.21,0.22,0.32,0.5,0.32,0.83c0,0.32-0.09,0.6-0.28,0.84c-0.23,0.29-0.54,0.43-0.94,0.43
			c-0.33,0-0.59-0.09-0.8-0.27C150.77,90.98,150.65,90.74,150.62,90.44z"/>
		<path d="M153.4,89.61c0-0.42,0.04-0.76,0.13-1.02c0.09-0.26,0.22-0.46,0.39-0.6s0.39-0.21,0.65-0.21c0.19,0,0.36,0.04,0.5,0.12
			c0.15,0.08,0.26,0.19,0.36,0.33c0.09,0.15,0.17,0.32,0.22,0.53s0.08,0.49,0.08,0.85c0,0.42-0.04,0.76-0.13,1.02
			c-0.09,0.26-0.21,0.46-0.39,0.6s-0.39,0.21-0.65,0.21c-0.35,0-0.62-0.12-0.81-0.37C153.52,90.76,153.4,90.28,153.4,89.61z
			 M153.85,89.61c0,0.59,0.07,0.98,0.21,1.17c0.14,0.19,0.31,0.29,0.51,0.29s0.37-0.1,0.51-0.29s0.21-0.59,0.21-1.17
			c0-0.59-0.07-0.98-0.21-1.17c-0.14-0.19-0.31-0.29-0.51-0.29s-0.36,0.09-0.48,0.26C153.93,88.62,153.85,89.02,153.85,89.61z"/>
		<path d="M156.35,91.37v-3.58h0.71l0.85,2.53c0.08,0.24,0.14,0.41,0.17,0.53c0.04-0.13,0.1-0.32,0.19-0.57l0.86-2.49h0.64v3.58
			h-0.46v-3l-1.04,3h-0.43l-1.04-3.05v3.05H156.35z"/>
	</g>
	<polygon points="41.07,68.45 35.4,65.61 35.4,71.28 	"/>
	<polygon class="st1" points="21.45,56.88 21.45,49.52 22.51,48.44 32.28,48.44 32.28,56.88 	"/>
	<rect x="26.82" y="58.28" class="st1" width="1.62" height="2.83"/>
	<path class="st1" d="M154.81,55.24h-36.87V13.66h39.25v8.46c0,0-2.29,4.62-2.29,12.04S154.81,55.24,154.81,55.24z"/>
	<polygon class="st2" points="160.4,15.81 161.33,17.34 159.5,17.34 	"/>
	<path class="st1" d="M56.89,45.3c0.52,0,0.94-0.42,0.94-0.94s-0.42-0.94-0.94-0.94v-3.96h17.09v9.77H56.89V45.3z"/>
	<path class="st1" d="M93.03,45.3c0.52,0,0.94-0.42,0.94-0.94s-0.42-0.94-0.94-0.94v-3.96h17.09v9.77H93.03V45.3z"/>
	<polygon class="st1" points="23.37,33.04 23.37,40.16 12.59,40.16 12.59,34.04 13.59,33.04 	"/>
	<path class="st1" d="M77.55,45.3c0.52,0,0.94-0.42,0.94-0.94s-0.42-0.94-0.94-0.94v-3.96h11.54v9.77H77.55V45.3z"/>
	<rect x="107.35" y="57.45" class="st1" width="1.83" height="1.62"/>
	<rect x="110.55" y="57.45" class="st1" width="1.83" height="1.62"/>
	<rect x="100.92" y="57.45" class="st1" width="1.83" height="1.62"/>
	<rect x="104.14" y="57.45" class="st1" width="1.83" height="1.62"/>
	<rect x="94.5" y="57.45" class="st1" width="1.83" height="1.62"/>
	<rect x="97.71" y="57.45" class="st1" width="1.83" height="1.62"/>
	<rect x="88.07" y="57.45" class="st1" width="1.83" height="1.62"/>
	<rect x="91.29" y="57.45" class="st1" width="1.83" height="1.62"/>
	<rect x="81.65" y="57.45" class="st1" width="1.83" height="1.62"/>
	<rect x="84.86" y="57.45" class="st1" width="1.83" height="1.62"/>
	<rect x="75.22" y="57.45" class="st1" width="1.83" height="1.62"/>
	<rect x="78.44" y="57.45" class="st1" width="1.83" height="1.62"/>
	<rect x="68.8" y="57.45" class="st1" width="1.83" height="1.62"/>
	<rect x="72.01" y="57.45" class="st1" width="1.83" height="1.62"/>
	<rect x="62.37" y="57.45" class="st1" width="1.83" height="1.62"/>
	<rect x="65.58" y="57.45" class="st1" width="1.83" height="1.62"/>
	<rect x="55.95" y="57.45" class="st1" width="1.83" height="1.62"/>
	<rect x="59.16" y="57.45" class="st1" width="1.83" height="1.62"/>
	<rect x="13" y="49.73" class="st1" width="7.22" height="6.02"/>
	<path class="st1" d="M93.03,23.96c0.52,0,0.94-0.42,0.94-0.94s-0.42-0.94-0.94-0.94v-3.96h11.54v9.77H93.03V23.96z"/>
	<rect x="16.71" y="58.28" class="st1" width="1.62" height="2.83"/>
	<rect x="43.49" y="44.37" class="st1" width="8.09" height="6.76"/>
	<polygon class="st1" points="41.74,52.08 33.56,52.08 33.56,56.88 41.74,56.88 42.74,55.88 42.74,53.08 	"/>
	<rect x="37.46" y="58.28" class="st1" width="1.62" height="2.83"/>
	<rect x="47.1" y="58.28" class="st1" width="1.62" height="2.83"/>
	<polygon class="st1" points="44.51,56.88 52.69,56.88 52.69,52.08 44.51,52.08 43.51,53.08 43.51,55.88 	"/>
	<rect x="58.41" y="9.84" class="st1" width="25.34" height="20.83"/>
	<rect x="13.43" y="14.17" class="st1" width="5.93" height="10.85"/>
	<rect x="128.62" y="59.25" class="st1" width="1.62" height="1.83"/>
	<rect x="136.26" y="59.25" class="st1" width="1.62" height="1.83"/>
	<polygon class="st2" points="160.4,57.39 161.33,58.91 159.5,58.91 	"/>
	<line class="st1" x1="52.55" y1="35.49" x2="54.58" y2="35.49"/>
	<line class="st1" x1="52.55" y1="29.94" x2="54.58" y2="29.94"/>
	<line class="st1" x1="52.55" y1="24.35" x2="54.58" y2="24.35"/>
	<line class="st1" x1="52.55" y1="41.59" x2="54.58" y2="41.59"/>
	<line class="st1" x1="52.55" y1="47.76" x2="54.58" y2="47.76"/>
	<line class="st1" x1="33.5" y1="47.76" x2="35.53" y2="47.76"/>
	<line class="st1" x1="36.5" y1="47.76" x2="38.53" y2="47.76"/>
	<line class="st1" x1="40.5" y1="47.76" x2="42.53" y2="47.76"/>
	<line class="st1" x1="122.9" y1="59.06" x2="124.93" y2="59.06"/>
	<line class="st1" x1="119.9" y1="59.06" x2="121.93" y2="59.06"/>
	<line class="st1" x1="28.65" y1="45.28" x2="28.65" y2="47.31"/>
	<line class="st1" x1="22.56" y1="45.28" x2="22.56" y2="47.31"/>
	<line class="st1" x1="22.56" y1="41.92" x2="22.56" y2="43.95"/>
	<line class="st1" x1="16.46" y1="45.28" x2="16.46" y2="47.31"/>
	<line class="st1" x1="16.46" y1="41.89" x2="16.46" y2="43.92"/>
	<line class="st1" x1="22.65" y1="29.67" x2="22.65" y2="31.7"/>
	<line class="st1" x1="22.65" y1="26.67" x2="22.65" y2="28.7"/>
	<line class="st1" x1="22.65" y1="23.67" x2="22.65" y2="25.7"/>
	<line class="st1" x1="22.65" y1="20.67" x2="22.65" y2="22.7"/>
	<line class="st1" x1="16.55" y1="29.67" x2="16.55" y2="31.7"/>
	<line class="st1" x1="16.55" y1="26.67" x2="16.55" y2="28.7"/>
	<line class="st1" x1="22.65" y1="11.67" x2="22.65" y2="13.7"/>
	<line class="st1" x1="22.65" y1="14.67" x2="22.65" y2="16.7"/>
	<line class="st1" x1="22.65" y1="17.67" x2="22.65" y2="19.7"/>
	<line class="st1" x1="28.65" y1="11.67" x2="28.65" y2="13.7"/>
	<line class="st1" x1="34.64" y1="11.67" x2="34.64" y2="13.7"/>
	<line class="st1" x1="40.63" y1="11.67" x2="40.63" y2="13.7"/>
	<line class="st1" x1="46.63" y1="11.67" x2="46.63" y2="13.7"/>
	<line class="st1" x1="52.62" y1="11.67" x2="52.62" y2="13.7"/>
	<line class="st1" x1="28.65" y1="14.67" x2="28.65" y2="16.7"/>
	<line class="st1" x1="34.64" y1="14.67" x2="34.64" y2="16.7"/>
	<line class="st1" x1="40.63" y1="14.67" x2="40.63" y2="16.7"/>
	<line class="st1" x1="46.63" y1="14.67" x2="46.63" y2="16.7"/>
	<line class="st1" x1="52.62" y1="14.67" x2="52.62" y2="16.7"/>
	<line class="st1" x1="88.69" y1="14.13" x2="88.69" y2="16.15"/>
	<line class="st1" x1="88.69" y1="17.04" x2="88.69" y2="19.07"/>
	<line class="st1" x1="88.69" y1="20.88" x2="88.69" y2="22.91"/>
	<line class="st1" x1="88.69" y1="24.63" x2="88.69" y2="26.66"/>
	<line class="st1" x1="88.69" y1="27.63" x2="88.69" y2="29.66"/>
	<line class="st1" x1="88.69" y1="30.63" x2="88.69" y2="32.66"/>
	<line class="st1" x1="108.98" y1="16.94" x2="108.98" y2="18.97"/>
	<line class="st1" x1="108.98" y1="21.63" x2="108.98" y2="23.66"/>
	<line class="st1" x1="108.98" y1="24.63" x2="108.98" y2="26.66"/>
	<line class="st1" x1="108.98" y1="27.63" x2="108.98" y2="29.66"/>
	<line class="st1" x1="108.98" y1="30.63" x2="108.98" y2="32.66"/>
	<line class="st1" x1="152.6" y1="57.86" x2="152.6" y2="59.88"/>
</g>
</svg>
