<?xml version="1.0" encoding="utf-8"?>
<!-- Generator: Adobe Illustrator 27.0.0, SVG Export Plug-In . SVG Version: 6.00 Build 0)  -->
<svg version="1.1" id="Calque_1" xmlns="http://www.w3.org/2000/svg" xmlns:xlink="http://www.w3.org/1999/xlink" x="0px" y="0px"
	 viewBox="0 0 243.18 106.64" style="enable-background:new 0 0 243.18 106.64;" xml:space="preserve">
<style type="text/css">
	.st0{fill:none;stroke:#000000;stroke-width:0.1;stroke-miterlimit:10;}
</style>
<path class="st0" d="M232.95,4.01H11.14c-3.72,0-6.73,3.02-6.73,6.73v92.88h235.27V10.74C239.68,7.02,236.66,4.01,232.95,4.01z"/>
<g>
	<path d="M157.14,21.66c0,0.09,0.01,3.11,0.02,3.19c0.12,0.86,0.85,1.52,1.74,1.52s1.62-0.65,1.75-1.5c0.01-0.09,0.02-3.11,0.02-3.2
		c0-0.97-0.79-1.76-1.77-1.76C157.93,19.9,157.14,20.69,157.14,21.66z"/>
	<path d="M157.14,10.24c0,0.09,0.01,2.27,0.02,2.35c0.12,0.86,0.85,1.52,1.74,1.52s1.62-0.65,1.75-1.5
		c0.01-0.09,0.02-2.28,0.02-2.37c0-0.97-0.79-1.76-1.77-1.76C157.93,8.48,157.14,9.27,157.14,10.24z"/>
	<path d="M132.65,21.66c0,0.09,0.01,3.11,0.02,3.19c0.12,0.86,0.85,1.52,1.74,1.52s1.62-0.65,1.75-1.5c0.01-0.09,0.02-3.11,0.02-3.2
		c0-0.97-0.79-1.76-1.77-1.76C133.44,19.9,132.65,20.69,132.65,21.66z"/>
	<path d="M132.65,10.24c0,0.09,0.01,2.27,0.02,2.35c0.12,0.86,0.85,1.52,1.74,1.52s1.62-0.65,1.75-1.5
		c0.01-0.09,0.02-2.28,0.02-2.37c0-0.97-0.79-1.76-1.77-1.76C133.44,8.48,132.65,9.27,132.65,10.24z"/>
	<circle cx="124.26" cy="23.14" r="0.85"/>
	<circle cx="124.26" cy="20.39" r="0.85"/>
	<circle cx="124.26" cy="25.9" r="0.85"/>
	<circle cx="124.26" cy="17.63" r="0.85"/>
	<circle cx="227.7" cy="70.75" r="7.09"/>
	<circle cx="16.39" cy="70.75" r="7.09"/>
	<circle cx="189.4" cy="65.08" r="1.84"/>
	<circle cx="195.52" cy="65.08" r="1.84"/>
	<circle cx="189.4" cy="76.42" r="1.84"/>
	<circle cx="195.52" cy="76.42" r="1.84"/>
	<circle cx="177.15" cy="65.08" r="1.84"/>
	<circle cx="183.27" cy="65.08" r="1.84"/>
	<circle cx="177.15" cy="76.42" r="1.84"/>
	<circle cx="183.27" cy="76.42" r="1.84"/>
	<circle cx="164.9" cy="65.08" r="1.84"/>
	<circle cx="171.03" cy="65.08" r="1.84"/>
	<circle cx="164.9" cy="76.42" r="1.84"/>
	<circle cx="171.03" cy="76.42" r="1.84"/>
	<circle cx="152.66" cy="65.08" r="1.84"/>
	<circle cx="158.78" cy="65.08" r="1.84"/>
	<circle cx="152.66" cy="76.42" r="1.84"/>
	<circle cx="158.78" cy="76.42" r="1.84"/>
	<circle cx="140.41" cy="65.08" r="1.84"/>
	<circle cx="146.54" cy="65.08" r="1.84"/>
	<circle cx="140.41" cy="76.42" r="1.84"/>
	<circle cx="146.54" cy="76.42" r="1.84"/>
	<circle cx="128.17" cy="65.08" r="1.84"/>
	<circle cx="134.29" cy="65.08" r="1.84"/>
	<circle cx="128.17" cy="76.42" r="1.84"/>
	<circle cx="134.29" cy="76.42" r="1.84"/>
	<circle cx="115.92" cy="65.08" r="1.84"/>
	<circle cx="122.04" cy="65.08" r="1.84"/>
	<circle cx="115.92" cy="76.42" r="1.84"/>
	<circle cx="122.04" cy="76.42" r="1.84"/>
	<circle cx="103.68" cy="65.08" r="1.84"/>
	<circle cx="109.8" cy="65.08" r="1.84"/>
	<circle cx="103.68" cy="76.42" r="1.84"/>
	<circle cx="109.8" cy="76.42" r="1.84"/>
	<circle cx="91.43" cy="65.08" r="1.84"/>
	<circle cx="97.55" cy="65.08" r="1.84"/>
	<circle cx="91.43" cy="76.42" r="1.84"/>
	<circle cx="97.55" cy="76.42" r="1.84"/>
	<circle cx="79.19" cy="65.08" r="1.84"/>
	<circle cx="85.31" cy="65.08" r="1.84"/>
	<circle cx="79.19" cy="76.42" r="1.84"/>
	<circle cx="85.31" cy="76.42" r="1.84"/>
	<circle cx="66.94" cy="65.08" r="1.84"/>
	<circle cx="73.06" cy="65.08" r="1.84"/>
	<circle cx="66.94" cy="76.42" r="1.84"/>
	<circle cx="73.06" cy="76.42" r="1.84"/>
	<circle cx="54.69" cy="65.08" r="1.84"/>
	<circle cx="60.82" cy="65.08" r="1.84"/>
	<circle cx="54.69" cy="76.42" r="1.84"/>
	<circle cx="60.82" cy="76.42" r="1.84"/>
	<circle cx="48.57" cy="65.08" r="1.84"/>
	<circle cx="48.57" cy="76.42" r="1.84"/>
</g>
</svg>
