<?xml version="1.0" encoding="utf-8"?>
<!-- Generator: Adobe Illustrator 27.0.0, SVG Export Plug-In . SVG Version: 6.00 Build 0)  -->
<svg version="1.1" id="Calque_1" xmlns="http://www.w3.org/2000/svg" xmlns:xlink="http://www.w3.org/1999/xlink" x="0px" y="0px"
	 viewBox="0 0 243.18 106.64" style="enable-background:new 0 0 243.18 106.64;" xml:space="preserve">
<style type="text/css">
	.st0{fill:none;stroke:#000000;stroke-width:0.1;stroke-miterlimit:10;}
</style>
<path class="st0" d="M232.95,4.01H11.14c-3.72,0-6.73,3.02-6.73,6.73v92.88h235.27V10.74C239.68,7.02,236.66,4.01,232.95,4.01z"/>
<g>
	<g>
		<path d="M9.76,93.75c0.2-0.3,0.47-0.53,0.82-0.68c0.35-0.15,0.78-0.23,1.3-0.23c0.41,0,0.78,0.08,1.1,0.22
			c0.33,0.15,0.58,0.36,0.75,0.63S14,94.25,14,94.56s-0.08,0.58-0.24,0.81c-0.16,0.24-0.4,0.43-0.74,0.58
			c-0.23,0.1-0.65,0.23-1.27,0.37c-0.62,0.14-1,0.28-1.14,0.41c-0.15,0.13-0.22,0.3-0.22,0.51c0,0.24,0.1,0.44,0.31,0.61
			s0.54,0.25,1,0.25c0.44,0,0.77-0.09,1-0.28c0.23-0.18,0.36-0.46,0.4-0.82l0.73,0.05c-0.01,0.34-0.11,0.64-0.28,0.9
			s-0.42,0.47-0.75,0.6s-0.7,0.21-1.12,0.21c-0.39,0-0.74-0.06-1.05-0.2c-0.31-0.13-0.55-0.32-0.72-0.57
			c-0.16-0.25-0.25-0.52-0.25-0.81c0-0.26,0.07-0.5,0.2-0.71s0.34-0.39,0.61-0.53c0.21-0.11,0.58-0.23,1.11-0.36
			s0.87-0.22,1.02-0.28c0.24-0.09,0.41-0.2,0.52-0.34c0.1-0.13,0.16-0.29,0.16-0.47s-0.05-0.34-0.16-0.49s-0.27-0.27-0.49-0.35
			s-0.48-0.13-0.77-0.13c-0.33,0-0.62,0.06-0.88,0.17s-0.45,0.26-0.58,0.45s-0.2,0.42-0.24,0.71l-0.71-0.06
			C9.45,94.4,9.56,94.06,9.76,93.75z"/>
		<path d="M18.52,93.86c-0.29-0.24-0.65-0.37-1.08-0.37c-0.35,0-0.67,0.09-0.97,0.27s-0.52,0.45-0.66,0.81s-0.21,0.79-0.21,1.28
			c0,0.38,0.06,0.74,0.18,1.1s0.33,0.64,0.62,0.85s0.66,0.32,1.1,0.32c0.38,0,0.7-0.09,0.95-0.29c0.25-0.19,0.45-0.49,0.58-0.91
			l0.75,0.18c-0.15,0.53-0.43,0.94-0.82,1.23s-0.87,0.44-1.45,0.44c-0.51,0-0.97-0.12-1.39-0.35c-0.42-0.23-0.74-0.57-0.97-1.01
			c-0.23-0.44-0.34-0.96-0.34-1.56c0-0.55,0.1-1.06,0.3-1.54s0.5-0.84,0.88-1.09c0.39-0.25,0.89-0.38,1.51-0.38
			c0.6,0,1.1,0.16,1.51,0.49c0.41,0.33,0.7,0.8,0.86,1.42l-0.76,0.19C19.02,94.47,18.82,94.1,18.52,93.86z"/>
		<path d="M20.87,93.75c0.2-0.3,0.47-0.53,0.82-0.68s0.78-0.23,1.3-0.23c0.41,0,0.78,0.08,1.1,0.22c0.33,0.15,0.58,0.36,0.75,0.63
			s0.26,0.56,0.26,0.86c0,0.31-0.08,0.58-0.24,0.81c-0.16,0.24-0.4,0.43-0.74,0.58c-0.23,0.1-0.65,0.23-1.27,0.37s-1,0.28-1.14,0.41
			c-0.15,0.13-0.22,0.3-0.22,0.51c0,0.24,0.1,0.44,0.31,0.61s0.54,0.25,1,0.25c0.44,0,0.77-0.09,1-0.28
			c0.23-0.18,0.36-0.46,0.4-0.82l0.73,0.05c-0.01,0.34-0.11,0.64-0.28,0.9s-0.42,0.47-0.75,0.6s-0.7,0.21-1.12,0.21
			c-0.39,0-0.74-0.06-1.05-0.2c-0.31-0.13-0.55-0.32-0.72-0.57c-0.16-0.25-0.25-0.52-0.25-0.81c0-0.26,0.07-0.5,0.2-0.71
			c0.13-0.21,0.34-0.39,0.61-0.53c0.21-0.11,0.58-0.23,1.11-0.36s0.87-0.22,1.02-0.28c0.24-0.09,0.41-0.2,0.52-0.34
			c0.1-0.13,0.16-0.29,0.16-0.47s-0.05-0.34-0.16-0.49s-0.27-0.27-0.49-0.35s-0.48-0.13-0.77-0.13c-0.33,0-0.62,0.06-0.88,0.17
			s-0.45,0.26-0.58,0.45s-0.2,0.42-0.24,0.71l-0.71-0.06C20.57,94.4,20.67,94.06,20.87,93.75z"/>
		<path d="M27.04,92.94v5.73h-0.76v-5.73H27.04z"/>
		<path d="M28.99,92.94v1.64l0.5,0.48l1.37-2.12h0.87l-1.75,2.61l1.59,1.54h-0.91L29,95.4v3.27h-0.7v-5.73
			C28.3,92.94,28.99,92.94,28.99,92.94z"/>
		<path d="M32.98,92.94v2.27c0,0.53,0.11,0.89,0.33,1.08s0.48,0.29,0.78,0.29c0.19,0,0.35-0.04,0.49-0.13
			c0.14-0.08,0.24-0.2,0.29-0.34s0.08-0.36,0.08-0.64v-2.52h0.7v2.55c0,0.33-0.01,0.55-0.04,0.68c-0.04,0.2-0.11,0.37-0.22,0.52
			c-0.1,0.15-0.26,0.26-0.47,0.35s-0.44,0.13-0.69,0.13c-0.58,0-1.02-0.23-1.32-0.68v0.59h-0.63v-4.15H32.98z"/>
		<path d="M37.44,92.94v4.15h-0.7v-4.15H37.44z M37.44,97.86v0.81h-0.7v-0.81H37.44z"/>
		<path d="M39.38,92.94v3.6h0.81v0.55h-0.81v0.38c0,0.25,0.04,0.42,0.13,0.51c0.09,0.09,0.24,0.14,0.45,0.14
			c0.13,0,0.27-0.01,0.41-0.04l0.11,0.61c-0.24,0.05-0.46,0.07-0.66,0.07c-0.31,0-0.55-0.06-0.72-0.17s-0.29-0.26-0.36-0.44
			c-0.05-0.13-0.07-0.34-0.07-0.62v-0.44h-0.62v-0.55h0.62v-3.6C38.67,92.94,39.38,92.94,39.38,92.94z"/>
		<path d="M43.14,93.63c-0.18-0.13-0.4-0.2-0.66-0.2c-0.35,0-0.64,0.12-0.87,0.36s-0.36,0.59-0.39,1.05h3.09c0,0.08,0,0.15,0,0.19
			c0,0.69-0.18,1.22-0.53,1.59c-0.35,0.38-0.8,0.57-1.36,0.57c-0.57,0-1.04-0.19-1.4-0.58c-0.36-0.38-0.54-0.93-0.54-1.62
			c0-0.67,0.18-1.2,0.53-1.57c0.36-0.37,0.84-0.56,1.44-0.56c0.48,0,0.88,0.12,1.19,0.35s0.52,0.56,0.64,0.99l-0.73,0.09
			C43.46,93.98,43.32,93.76,43.14,93.63z M41.63,96.28c0.22,0.22,0.49,0.32,0.81,0.32c0.36,0,0.65-0.13,0.87-0.41
			c0.15-0.17,0.23-0.44,0.27-0.79h-2.32C41.29,95.78,41.41,96.07,41.63,96.28z"/>
		<path d="M48.25,92.94v2.33h1.47c0.81,0,1.37,0.17,1.68,0.51c0.31,0.34,0.46,0.75,0.46,1.24c0,0.28-0.06,0.54-0.17,0.78
			c-0.12,0.24-0.27,0.42-0.46,0.55c-0.19,0.13-0.43,0.22-0.71,0.27c-0.2,0.04-0.49,0.05-0.87,0.05h-2.16v-5.73H48.25z M48.25,97.99
			h1.46c0.34,0,0.58-0.02,0.71-0.05c0.2-0.05,0.36-0.17,0.48-0.34s0.18-0.38,0.18-0.62c0-0.33-0.1-0.59-0.31-0.77
			c-0.21-0.18-0.55-0.27-1.04-0.27h-1.48C48.25,95.94,48.25,97.99,48.25,97.99z"/>
		<path d="M53.01,93.41c0.36-0.37,0.83-0.56,1.41-0.56c0.36,0,0.7,0.08,1,0.25c0.31,0.17,0.54,0.41,0.7,0.71
			c0.16,0.31,0.24,0.73,0.24,1.26c0,0.66-0.18,1.18-0.54,1.55s-0.83,0.56-1.4,0.56c-0.51,0-0.95-0.15-1.3-0.46
			c-0.43-0.37-0.64-0.94-0.64-1.71C52.48,94.32,52.66,93.78,53.01,93.41z M53.55,96.21c0.23,0.26,0.52,0.39,0.88,0.39
			c0.35,0,0.64-0.13,0.87-0.4c0.23-0.26,0.35-0.65,0.35-1.17c0-0.54-0.12-0.95-0.35-1.21s-0.52-0.4-0.87-0.4s-0.64,0.13-0.88,0.4
			c-0.23,0.26-0.35,0.66-0.35,1.19S53.32,95.94,53.55,96.21z"/>
		<path d="M59.54,93.68c-0.19-0.17-0.42-0.25-0.69-0.25c-0.34,0-0.62,0.13-0.84,0.38c-0.21,0.25-0.32,0.66-0.32,1.21
			c0,0.55,0.11,0.95,0.33,1.21s0.51,0.38,0.86,0.38c0.23,0,0.43-0.07,0.6-0.21s0.28-0.35,0.35-0.63l0.68,0.11
			c-0.08,0.42-0.26,0.74-0.55,0.97s-0.65,0.34-1.11,0.34c-0.36,0-0.69-0.08-0.99-0.25s-0.53-0.42-0.68-0.76s-0.22-0.73-0.22-1.18
			c0-0.69,0.17-1.22,0.52-1.6s0.8-0.56,1.37-0.56c0.45,0,0.84,0.13,1.15,0.4s0.5,0.64,0.58,1.12l-0.69,0.09
			C59.85,94.11,59.73,93.85,59.54,93.68z"/>
		<path d="M61.9,92.94v1.64l0.5,0.48l1.37-2.12h0.87l-1.75,2.61l1.59,1.54h-0.91L61.9,95.4v3.27h-0.7v-5.73
			C61.2,92.94,61.9,92.94,61.9,92.94z"/>
		<path d="M67.59,93.63c-0.18-0.13-0.4-0.2-0.66-0.2c-0.35,0-0.64,0.12-0.87,0.36s-0.36,0.59-0.39,1.05h3.09c0,0.08,0,0.15,0,0.19
			c0,0.69-0.18,1.22-0.53,1.59c-0.35,0.38-0.8,0.57-1.36,0.57c-0.57,0-1.04-0.19-1.4-0.58c-0.36-0.38-0.54-0.93-0.54-1.62
			c0-0.67,0.18-1.2,0.53-1.57c0.36-0.37,0.84-0.56,1.44-0.56c0.48,0,0.88,0.12,1.19,0.35s0.52,0.56,0.64,0.99L68,94.29
			C67.92,93.98,67.78,93.76,67.59,93.63z M66.08,96.28c0.22,0.22,0.49,0.32,0.81,0.32c0.36,0,0.65-0.13,0.87-0.41
			c0.15-0.17,0.23-0.44,0.27-0.79h-2.32C65.74,95.78,65.86,96.07,66.08,96.28z"/>
		<path d="M70.86,93.54c-0.1,0-0.18,0.02-0.24,0.05c-0.06,0.03-0.1,0.08-0.12,0.14c-0.02,0.06-0.04,0.19-0.04,0.39v2.43h0.71v0.55
			h-0.71v1.45l-0.7-0.42V97.1h-0.52v-0.55h0.52v-2.39c0-0.42,0.03-0.7,0.09-0.83c0.06-0.13,0.16-0.24,0.3-0.32s0.34-0.12,0.59-0.12
			c0.16,0,0.33,0.02,0.53,0.06l-0.1,0.62C71.05,93.55,70.94,93.54,70.86,93.54z"/>
		<path d="M75.97,94.66v0.71h-2.16v-0.71H75.97z"/>
		<path d="M79.95,98.39c-0.47-0.25-0.84-0.62-1.1-1.09s-0.4-0.96-0.4-1.48c0-0.51,0.13-1,0.39-1.46s0.62-0.83,1.09-1.09
			c0.47-0.26,0.96-0.39,1.47-0.39s1,0.13,1.47,0.39s0.83,0.62,1.09,1.09s0.39,0.96,0.39,1.46c0,0.51-0.13,1.01-0.39,1.48
			s-0.63,0.84-1.1,1.09s-0.95,0.38-1.45,0.38S80.42,98.64,79.95,98.39z M82.61,97.96c0.39-0.21,0.7-0.52,0.92-0.91
			s0.33-0.8,0.33-1.23c0-0.42-0.11-0.83-0.32-1.22c-0.22-0.39-0.52-0.69-0.91-0.91c-0.39-0.22-0.8-0.33-1.22-0.33
			s-0.83,0.11-1.22,0.33s-0.69,0.52-0.91,0.91c-0.22,0.39-0.33,0.8-0.33,1.22c0,0.43,0.11,0.84,0.33,1.23s0.53,0.7,0.92,0.91
			c0.39,0.21,0.79,0.32,1.21,0.32C81.81,98.28,82.22,98.17,82.61,97.96z M82,94.79c-0.18-0.13-0.38-0.2-0.62-0.2
			c-0.29,0-0.53,0.1-0.71,0.31s-0.28,0.51-0.28,0.9s0.1,0.71,0.29,0.92s0.44,0.32,0.74,0.32c0.21,0,0.38-0.05,0.54-0.15
			c0.15-0.1,0.27-0.25,0.35-0.44l0.46,0.11c-0.08,0.28-0.24,0.51-0.47,0.67c-0.23,0.17-0.52,0.25-0.86,0.25
			c-0.31,0-0.59-0.06-0.83-0.19s-0.43-0.32-0.56-0.57s-0.2-0.55-0.2-0.9c0-0.53,0.14-0.94,0.43-1.23s0.66-0.45,1.12-0.45
			c0.36,0,0.67,0.1,0.92,0.29s0.42,0.45,0.5,0.78l-0.48,0.14C82.29,95.11,82.17,94.93,82,94.79z"/>
		<path d="M85.56,93.62c0.08,0.13,0.18,0.25,0.3,0.38s0.39,0.37,0.81,0.72c0.51,0.43,0.87,0.76,1.08,1.01
			c0.22,0.25,0.37,0.48,0.47,0.7c0.09,0.22,0.14,0.45,0.14,0.68c0,0.45-0.16,0.83-0.48,1.13s-0.76,0.46-1.3,0.46
			s-0.98-0.14-1.3-0.42s-0.51-0.69-0.56-1.23l0.72-0.07c0,0.36,0.11,0.64,0.31,0.84s0.47,0.3,0.81,0.3c0.32,0,0.58-0.1,0.78-0.29
			s0.3-0.43,0.3-0.71c0-0.27-0.11-0.55-0.33-0.85c-0.22-0.3-0.64-0.7-1.26-1.21c-0.4-0.33-0.71-0.62-0.92-0.87s-0.37-0.5-0.46-0.76
			c-0.06-0.16-0.09-0.32-0.08-0.49h3.79v0.68C88.38,93.62,85.56,93.62,85.56,93.62z"/>
		<path d="M89.68,93.44c0.31-0.4,0.75-0.59,1.3-0.59c0.42,0,0.77,0.11,1.04,0.34c0.27,0.23,0.48,0.54,0.62,0.96
			c0.14,0.41,0.21,0.96,0.21,1.63c0,0.57-0.04,1.02-0.13,1.35s-0.2,0.62-0.36,0.85c-0.15,0.23-0.34,0.41-0.57,0.54
			c-0.23,0.12-0.5,0.19-0.81,0.19c-0.42,0-0.76-0.11-1.04-0.34c-0.27-0.22-0.48-0.54-0.62-0.96c-0.14-0.41-0.21-0.96-0.21-1.63
			C89.12,94.69,89.31,93.91,89.68,93.44z M90.2,97.7c0.19,0.27,0.45,0.41,0.77,0.41c0.33,0,0.6-0.15,0.82-0.46s0.33-0.94,0.33-1.88
			c0-0.94-0.11-1.56-0.33-1.88s-0.49-0.47-0.81-0.47s-0.59,0.16-0.81,0.47s-0.33,0.94-0.33,1.88S89.96,97.35,90.2,97.7z"/>
		<path d="M94.45,93.62c0.08,0.13,0.18,0.25,0.3,0.38s0.39,0.37,0.81,0.72c0.51,0.43,0.87,0.76,1.08,1.01
			c0.22,0.25,0.37,0.48,0.47,0.7c0.09,0.22,0.14,0.45,0.14,0.68c0,0.45-0.16,0.83-0.48,1.13s-0.76,0.46-1.3,0.46
			s-0.98-0.14-1.3-0.42s-0.51-0.69-0.56-1.23l0.72-0.07c0,0.36,0.11,0.64,0.31,0.84s0.47,0.3,0.81,0.3c0.32,0,0.58-0.1,0.78-0.29
			s0.3-0.43,0.3-0.71c0-0.27-0.11-0.55-0.33-0.85c-0.22-0.3-0.64-0.7-1.26-1.21c-0.4-0.33-0.71-0.62-0.92-0.87s-0.37-0.5-0.46-0.76
			c-0.06-0.16-0.09-0.32-0.08-0.49h3.79v0.68C97.27,93.62,94.45,93.62,94.45,93.62z"/>
		<path d="M98.58,93.28c0.33-0.29,0.75-0.44,1.28-0.44c0.64,0,1.14,0.23,1.5,0.7c0.3,0.38,0.45,0.83,0.45,1.34
			c0,0.54-0.17,0.99-0.52,1.34c-0.34,0.35-0.77,0.52-1.27,0.52c-0.38,0-0.74-0.12-1.08-0.36l0.31,1.54h2.29v0.67H98.7l-0.55-2.94
			l0.66-0.09c0.1,0.16,0.25,0.3,0.43,0.4s0.39,0.15,0.61,0.15c0.36,0,0.66-0.12,0.88-0.35c0.23-0.23,0.34-0.55,0.34-0.95
			c0-0.42-0.12-0.76-0.35-1.02c-0.23-0.25-0.52-0.38-0.86-0.38c-0.28,0-0.52,0.09-0.72,0.27c-0.2,0.18-0.33,0.45-0.38,0.81
			l-0.74-0.06C98.06,93.96,98.25,93.57,98.58,93.28z"/>
		<path d="M104.71,92.94l0.63,1.73h2.39l0.67-1.73h0.86l-2.34,5.73h-0.82l-2.2-5.73H104.71z M106.18,96.97
			c0.13,0.36,0.24,0.73,0.31,1.09c0.09-0.31,0.22-0.71,0.41-1.19l0.6-1.59h-1.94L106.18,96.97z"/>
		<path d="M110.48,92.94v2.27c0,0.53,0.11,0.89,0.33,1.08s0.48,0.29,0.78,0.29c0.19,0,0.35-0.04,0.49-0.13
			c0.14-0.08,0.24-0.2,0.29-0.34s0.08-0.36,0.08-0.64v-2.52h0.7v2.55c0,0.33-0.01,0.55-0.04,0.68c-0.04,0.2-0.11,0.37-0.22,0.52
			c-0.1,0.15-0.26,0.26-0.47,0.35s-0.44,0.13-0.69,0.13c-0.58,0-1.02-0.23-1.32-0.68v0.59h-0.63v-4.15H110.48z"/>
		<path d="M115.45,93.54c-0.1,0-0.18,0.02-0.24,0.05c-0.06,0.03-0.1,0.08-0.12,0.14c-0.02,0.06-0.04,0.19-0.04,0.39v2.43h0.71v0.55
			h-0.71v1.45l-0.7-0.42V97.1h-0.52v-0.55h0.52v-2.39c0-0.42,0.03-0.7,0.09-0.83c0.06-0.13,0.16-0.24,0.3-0.32s0.34-0.12,0.59-0.12
			c0.16,0,0.33,0.02,0.53,0.06l-0.1,0.62C115.63,93.55,115.53,93.54,115.45,93.54z"/>
		<path d="M116.73,93.41c0.36-0.37,0.83-0.56,1.41-0.56c0.36,0,0.7,0.08,1,0.25c0.31,0.17,0.54,0.41,0.7,0.71
			c0.16,0.31,0.24,0.73,0.24,1.26c0,0.66-0.18,1.18-0.54,1.55s-0.83,0.56-1.4,0.56c-0.51,0-0.95-0.15-1.3-0.46
			c-0.43-0.37-0.64-0.94-0.64-1.71C116.19,94.32,116.37,93.78,116.73,93.41z M117.26,96.21c0.23,0.26,0.52,0.39,0.88,0.39
			c0.35,0,0.64-0.13,0.87-0.4c0.23-0.26,0.35-0.65,0.35-1.17c0-0.54-0.12-0.95-0.35-1.21s-0.52-0.4-0.87-0.4
			c-0.35,0-0.64,0.13-0.88,0.4c-0.23,0.26-0.35,0.66-0.35,1.19S117.03,95.94,117.26,96.21z"/>
		<path d="M121.61,92.94v4.15h-0.7v-4.15H121.61z M121.61,97.86v0.81h-0.7v-0.81H121.61z"/>
		<path d="M123.38,92.94v2.27c0,0.53,0.11,0.89,0.33,1.08s0.48,0.29,0.78,0.29c0.19,0,0.35-0.04,0.49-0.13
			c0.14-0.08,0.24-0.2,0.29-0.34s0.08-0.36,0.08-0.64v-2.52h0.7v2.55c0,0.33-0.01,0.55-0.04,0.68c-0.04,0.2-0.11,0.37-0.22,0.52
			c-0.1,0.15-0.26,0.26-0.47,0.35s-0.44,0.13-0.69,0.13c-0.58,0-1.02-0.23-1.32-0.68v0.59h-0.63v-4.15H123.38z"/>
		<path d="M129.53,93.63c-0.18-0.13-0.4-0.2-0.66-0.2c-0.35,0-0.64,0.12-0.87,0.36s-0.36,0.59-0.39,1.05h3.09c0,0.08,0,0.15,0,0.19
			c0,0.69-0.18,1.22-0.53,1.59c-0.35,0.38-0.8,0.57-1.36,0.57c-0.57,0-1.04-0.19-1.4-0.58c-0.36-0.38-0.54-0.93-0.54-1.62
			c0-0.67,0.18-1.2,0.53-1.57c0.36-0.37,0.84-0.56,1.44-0.56c0.48,0,0.88,0.12,1.19,0.35s0.52,0.56,0.64,0.99l-0.73,0.09
			C129.86,93.98,129.71,93.76,129.53,93.63z M128.02,96.28c0.22,0.22,0.49,0.32,0.81,0.32c0.36,0,0.65-0.13,0.87-0.41
			c0.15-0.17,0.23-0.44,0.27-0.79h-2.32C127.68,95.78,127.8,96.07,128.02,96.28z"/>
		<path d="M136.04,92.94c0.36,0,0.67,0.03,0.92,0.1c0.25,0.06,0.46,0.16,0.63,0.28s0.31,0.3,0.42,0.53s0.17,0.48,0.17,0.75
			c0,0.33-0.09,0.62-0.28,0.87s-0.45,0.42-0.8,0.52c0.27,0.13,0.47,0.31,0.6,0.52c0.13,0.22,0.2,0.45,0.2,0.69
			c0,0.26-0.07,0.52-0.22,0.76c-0.15,0.24-0.36,0.42-0.62,0.54s-0.62,0.17-1.05,0.17h-2.15v-5.73
			C133.86,92.94,136.04,92.94,136.04,92.94z M134.61,95.59h1.32c0.36,0,0.64-0.03,0.84-0.1c0.19-0.06,0.35-0.17,0.46-0.33
			s0.16-0.34,0.16-0.56c0-0.18-0.04-0.34-0.11-0.48c-0.08-0.14-0.17-0.25-0.29-0.32s-0.26-0.12-0.44-0.16
			c-0.1-0.02-0.27-0.03-0.52-0.03h-1.43L134.61,95.59L134.61,95.59z M134.61,97.99h1.14c0.41,0,0.7-0.03,0.87-0.08
			s0.3-0.15,0.39-0.3s0.14-0.31,0.14-0.5c0-0.2-0.05-0.37-0.15-0.5s-0.24-0.23-0.44-0.29c-0.15-0.04-0.39-0.07-0.72-0.07h-1.24v1.74
			C134.6,97.99,134.61,97.99,134.61,97.99z"/>
		<path d="M141.54,93.63c-0.18-0.13-0.4-0.2-0.66-0.2c-0.35,0-0.64,0.12-0.87,0.36s-0.36,0.59-0.39,1.05h3.09c0,0.08,0,0.15,0,0.19
			c0,0.69-0.18,1.22-0.53,1.59c-0.35,0.38-0.8,0.57-1.36,0.57c-0.57,0-1.04-0.19-1.4-0.58c-0.36-0.38-0.54-0.93-0.54-1.62
			c0-0.67,0.18-1.2,0.53-1.57c0.36-0.37,0.84-0.56,1.44-0.56c0.48,0,0.88,0.12,1.19,0.35s0.52,0.56,0.64,0.99l-0.73,0.09
			C141.87,93.98,141.72,93.76,141.54,93.63z M140.03,96.28c0.22,0.22,0.49,0.32,0.81,0.32c0.36,0,0.65-0.13,0.87-0.41
			c0.15-0.17,0.23-0.44,0.27-0.79h-2.32C139.69,95.78,139.81,96.07,140.03,96.28z"/>
		<path d="M144.28,92.94v2.17c0,0.3,0.04,0.57,0.12,0.82c0.05,0.16,0.14,0.29,0.26,0.38s0.26,0.14,0.41,0.14
			c0.17,0,0.34-0.05,0.52-0.15l0.24,0.65c-0.24,0.15-0.49,0.23-0.72,0.23c-0.16,0-0.31-0.05-0.45-0.14s-0.29-0.29-0.45-0.58v0.63
			h-0.63v-4.15C143.58,92.94,144.28,92.94,144.28,92.94z"/>
		<path d="M148.6,93.68c-0.19-0.17-0.42-0.25-0.69-0.25c-0.34,0-0.62,0.13-0.84,0.38c-0.21,0.25-0.32,0.66-0.32,1.21
			c0,0.55,0.11,0.95,0.33,1.21s0.51,0.38,0.86,0.38c0.23,0,0.43-0.07,0.6-0.21s0.28-0.35,0.35-0.63l0.68,0.11
			c-0.08,0.42-0.26,0.74-0.55,0.97c-0.29,0.23-0.65,0.34-1.11,0.34c-0.36,0-0.69-0.08-0.99-0.25s-0.53-0.42-0.68-0.76
			s-0.22-0.73-0.22-1.18c0-0.69,0.17-1.22,0.52-1.6s0.8-0.56,1.37-0.56c0.45,0,0.84,0.13,1.15,0.4s0.5,0.64,0.58,1.12l-0.69,0.09
			C148.9,94.11,148.79,93.85,148.6,93.68z"/>
		<path d="M150.52,93.41c0.36-0.37,0.83-0.56,1.41-0.56c0.36,0,0.7,0.08,1,0.25c0.31,0.17,0.54,0.41,0.7,0.71
			c0.16,0.31,0.24,0.73,0.24,1.26c0,0.66-0.18,1.18-0.54,1.55s-0.83,0.56-1.4,0.56c-0.51,0-0.95-0.15-1.3-0.46
			c-0.43-0.37-0.64-0.94-0.64-1.71C149.99,94.32,150.16,93.78,150.52,93.41z M151.06,96.21c0.23,0.26,0.52,0.39,0.88,0.39
			c0.35,0,0.64-0.13,0.87-0.4c0.23-0.26,0.35-0.65,0.35-1.17c0-0.54-0.12-0.95-0.35-1.21c-0.23-0.27-0.52-0.4-0.87-0.4
			c-0.35,0-0.64,0.13-0.88,0.4c-0.23,0.26-0.35,0.66-0.35,1.19S150.82,95.94,151.06,96.21z"/>
		<path d="M156.5,92.94l1.57,4.15h-0.72l-0.92-2.53c-0.11-0.31-0.2-0.57-0.26-0.79c-0.08,0.29-0.17,0.57-0.27,0.84l-0.89,2.48h-0.74
			l1.58-4.15H156.5z"/>
		<path d="M159.4,92.94v4.15h-0.7v-4.15H159.4z M159.4,97.86v0.81h-0.7v-0.81H159.4z"/>
		<path d="M162.83,93.68c-0.18-0.17-0.42-0.25-0.69-0.25c-0.34,0-0.62,0.13-0.84,0.38c-0.21,0.25-0.32,0.66-0.32,1.21
			c0,0.55,0.11,0.95,0.33,1.21c0.22,0.25,0.51,0.38,0.86,0.38c0.23,0,0.43-0.07,0.6-0.21c0.17-0.14,0.28-0.35,0.35-0.63l0.68,0.11
			c-0.08,0.42-0.26,0.74-0.55,0.97c-0.29,0.23-0.65,0.34-1.11,0.34c-0.36,0-0.69-0.08-0.99-0.25s-0.53-0.42-0.68-0.76
			s-0.22-0.73-0.22-1.18c0-0.69,0.17-1.22,0.52-1.6c0.35-0.37,0.8-0.56,1.37-0.56c0.45,0,0.84,0.13,1.15,0.4
			c0.31,0.27,0.5,0.64,0.58,1.12l-0.69,0.09C163.13,94.11,163.01,93.85,162.83,93.68z"/>
		<path d="M165.18,92.94v4.15h-0.7v-4.15H165.18z M165.18,97.86v0.81h-0.7v-0.81H165.18z"/>
		<path d="M13.19,83.86c-0.29-0.24-0.65-0.37-1.08-0.37c-0.35,0-0.67,0.09-0.97,0.27s-0.52,0.45-0.66,0.81s-0.21,0.79-0.21,1.28
			c0,0.38,0.06,0.74,0.18,1.1s0.33,0.64,0.62,0.85s0.66,0.32,1.1,0.32c0.38,0,0.7-0.09,0.95-0.29c0.25-0.19,0.45-0.49,0.58-0.91
			l0.75,0.18c-0.15,0.53-0.43,0.94-0.82,1.23c-0.39,0.29-0.87,0.44-1.45,0.44c-0.51,0-0.97-0.12-1.39-0.35s-0.74-0.57-0.97-1.01
			c-0.23-0.44-0.34-0.96-0.34-1.56c0-0.55,0.1-1.06,0.3-1.54s0.5-0.84,0.88-1.09c0.39-0.25,0.89-0.38,1.51-0.38
			c0.6,0,1.1,0.16,1.51,0.49c0.41,0.33,0.7,0.8,0.86,1.42l-0.76,0.19C13.68,84.47,13.48,84.1,13.19,83.86z"/>
		<path d="M19.77,82.94v0.68h-3.52v1.95h3.17v0.67h-3.17v1.75h3.38v0.68h-4.14v-5.73C15.49,82.94,19.77,82.94,19.77,82.94z"/>
		<path d="M21.58,82.94v2.54h0.88c0.2,0,0.34-0.01,0.42-0.03c0.12-0.03,0.23-0.08,0.35-0.15c0.11-0.07,0.24-0.2,0.38-0.38
			s0.33-0.45,0.55-0.79l0.76-1.19h0.95l-1,1.56c-0.2,0.3-0.41,0.56-0.63,0.76c-0.1,0.09-0.26,0.19-0.46,0.29
			c0.55,0.08,0.96,0.25,1.22,0.53s0.39,0.62,0.39,1.03c0,0.32-0.08,0.6-0.24,0.86s-0.37,0.44-0.64,0.54
			c-0.27,0.1-0.65,0.15-1.16,0.15h-2.54v-5.73h0.77C21.58,82.93,21.58,82.94,21.58,82.94z M21.58,88.04h1.81
			c0.42,0,0.73-0.09,0.93-0.26c0.2-0.17,0.29-0.4,0.29-0.67c0-0.18-0.05-0.36-0.15-0.51c-0.1-0.16-0.25-0.27-0.45-0.34
			s-0.47-0.11-0.81-0.11h-1.63L21.58,88.04L21.58,88.04z"/>
		<path d="M27.31,82.94v4.5l3.01-4.5h0.78v5.73h-0.73v-4.5l-3.01,4.5h-0.78v-5.73H27.31z"/>
		<path d="M34.69,84.3c0.22-0.45,0.54-0.81,0.96-1.07s0.91-0.39,1.45-0.39c0.5,0,0.96,0.12,1.39,0.35c0.43,0.24,0.76,0.58,1,1.04
			c0.23,0.46,0.35,0.98,0.35,1.56c0,0.57-0.11,1.09-0.33,1.54c-0.22,0.45-0.55,0.8-0.97,1.06c-0.42,0.25-0.9,0.38-1.43,0.38
			c-0.81,0-1.47-0.27-1.98-0.81s-0.77-1.28-0.77-2.23C34.36,85.23,34.47,84.75,34.69,84.3z M35.72,87.56
			c0.39,0.37,0.85,0.55,1.38,0.55c0.38,0,0.72-0.1,1.02-0.29s0.53-0.46,0.69-0.81s0.24-0.75,0.24-1.22c0-0.74-0.18-1.31-0.55-1.71
			s-0.84-0.6-1.41-0.6c-0.56,0-1.03,0.2-1.4,0.6c-0.37,0.4-0.56,0.94-0.56,1.63C35.14,86.58,35.33,87.2,35.72,87.56z"/>
		<path d="M41.59,82.94v2.7h2.98v-2.7h0.76v5.73h-0.76v-2.35h-2.98v2.35h-0.76v-5.73H41.59z"/>
		<path d="M50.14,82.94v0.68h-2.82v5.05h-0.76v-5.73H50.14z"/>
		<path d="M52.84,84.66v0.71h-2.16v-0.71H52.84z"/>
		<path d="M53.76,83.75c0.2-0.3,0.47-0.53,0.82-0.68s0.78-0.23,1.3-0.23c0.41,0,0.78,0.08,1.1,0.22c0.33,0.15,0.58,0.36,0.75,0.63
			S58,84.25,58,84.56s-0.08,0.58-0.24,0.81c-0.16,0.24-0.4,0.43-0.74,0.58c-0.23,0.1-0.65,0.23-1.27,0.37s-1,0.28-1.14,0.41
			c-0.15,0.13-0.22,0.3-0.22,0.51c0,0.24,0.1,0.44,0.31,0.61s0.54,0.25,1,0.25c0.44,0,0.77-0.09,1-0.28
			c0.23-0.18,0.36-0.46,0.4-0.82l0.73,0.05c-0.01,0.34-0.11,0.64-0.28,0.9s-0.42,0.47-0.75,0.6s-0.7,0.21-1.12,0.21
			c-0.39,0-0.74-0.06-1.05-0.2c-0.31-0.13-0.55-0.32-0.72-0.57c-0.16-0.25-0.25-0.52-0.25-0.81c0-0.26,0.07-0.5,0.2-0.71
			s0.34-0.39,0.61-0.53c0.21-0.11,0.58-0.23,1.11-0.36s0.87-0.22,1.02-0.28c0.24-0.09,0.41-0.2,0.52-0.34
			c0.1-0.13,0.16-0.29,0.16-0.47s-0.05-0.34-0.16-0.49s-0.27-0.27-0.49-0.35s-0.48-0.13-0.77-0.13c-0.33,0-0.62,0.06-0.88,0.17
			s-0.45,0.26-0.58,0.45s-0.2,0.42-0.24,0.71l-0.71-0.06C53.46,84.4,53.56,84.06,53.76,83.75z"/>
		<path d="M63.68,82.94l2.24,5.73h-0.77l-1.55-4.16c-0.12-0.31-0.22-0.62-0.31-0.94c-0.08,0.29-0.18,0.6-0.3,0.94l-1.49,4.16h-0.82
			l2.22-5.73C62.9,82.94,63.68,82.94,63.68,82.94z"/>
		<path d="M67.2,83.62c0.08,0.13,0.18,0.25,0.3,0.38s0.39,0.37,0.81,0.72c0.51,0.43,0.87,0.76,1.08,1.01
			c0.22,0.25,0.37,0.48,0.47,0.7C69.95,86.65,70,86.87,70,87.1c0,0.45-0.16,0.83-0.48,1.13s-0.76,0.46-1.3,0.46s-0.98-0.14-1.3-0.42
			s-0.51-0.69-0.56-1.23l0.72-0.07c0,0.36,0.11,0.64,0.31,0.84s0.47,0.3,0.81,0.3c0.32,0,0.58-0.1,0.78-0.29s0.3-0.43,0.3-0.71
			c0-0.27-0.11-0.55-0.33-0.85c-0.22-0.3-0.64-0.7-1.26-1.21c-0.4-0.33-0.71-0.62-0.92-0.87s-0.37-0.5-0.46-0.76
			c-0.06-0.16-0.09-0.32-0.08-0.49h3.79v0.68H67.2V83.62z"/>
		<path d="M77.34,82.94v0.68h-3.66l0.35,0.4l3.21,3.97v0.68h-4.1v-0.68h3.2c-0.19-0.19-0.39-0.42-0.59-0.68l-2.93-3.67v-0.7
			C72.82,82.94,77.34,82.94,77.34,82.94z"/>
		<path d="M81.41,82.94v4.15h-0.7v-2.22c0-0.35-0.04-0.62-0.12-0.81c-0.08-0.19-0.21-0.33-0.39-0.44c-0.19-0.11-0.38-0.16-0.59-0.16
			s-0.39,0.05-0.53,0.16s-0.24,0.25-0.28,0.44c-0.03,0.13-0.04,0.38-0.04,0.74v2.3h-0.7v-2.57c0-0.3,0.01-0.52,0.04-0.66
			c0.04-0.21,0.11-0.38,0.22-0.52c0.1-0.14,0.26-0.26,0.47-0.35s0.44-0.14,0.69-0.14c0.55,0,0.99,0.23,1.32,0.7v-0.61h0.61
			L81.41,82.94L81.41,82.94z"/>
		<path d="M83.2,82.94v5.73h-0.7v-5.73H83.2z"/>
		<path d="M87.64,82.94v4.15h-0.7v-2.22c0-0.35-0.04-0.62-0.12-0.81c-0.08-0.19-0.21-0.33-0.39-0.44c-0.19-0.11-0.38-0.16-0.59-0.16
			s-0.39,0.05-0.53,0.16s-0.24,0.25-0.28,0.44c-0.03,0.13-0.04,0.38-0.04,0.74v2.3h-0.7v-2.57c0-0.3,0.01-0.52,0.04-0.66
			c0.04-0.21,0.11-0.38,0.22-0.52c0.1-0.14,0.26-0.26,0.47-0.35s0.44-0.14,0.69-0.14c0.55,0,0.99,0.23,1.32,0.7v-0.61h0.61
			L87.64,82.94L87.64,82.94z"/>
		<path d="M88.89,83.75c0.2-0.3,0.47-0.53,0.82-0.68s0.78-0.23,1.3-0.23c0.41,0,0.78,0.08,1.1,0.22c0.33,0.15,0.58,0.36,0.75,0.63
			s0.26,0.56,0.26,0.86c0,0.31-0.08,0.58-0.24,0.81c-0.16,0.24-0.4,0.43-0.74,0.58c-0.23,0.1-0.65,0.23-1.27,0.37
			c-0.62,0.14-1,0.28-1.14,0.41c-0.15,0.13-0.22,0.3-0.22,0.51c0,0.24,0.1,0.44,0.31,0.61s0.54,0.25,1,0.25c0.44,0,0.77-0.09,1-0.28
			c0.23-0.18,0.36-0.46,0.4-0.82l0.73,0.05c-0.01,0.34-0.11,0.64-0.28,0.9s-0.42,0.47-0.75,0.6s-0.7,0.21-1.12,0.21
			c-0.39,0-0.74-0.06-1.05-0.2c-0.31-0.13-0.55-0.32-0.72-0.57c-0.16-0.25-0.25-0.52-0.25-0.81c0-0.26,0.07-0.5,0.2-0.71
			s0.34-0.39,0.61-0.53c0.21-0.11,0.58-0.23,1.11-0.36s0.87-0.22,1.02-0.28c0.24-0.09,0.41-0.2,0.52-0.34
			c0.1-0.13,0.16-0.29,0.16-0.47s-0.05-0.34-0.16-0.49s-0.27-0.27-0.49-0.35s-0.48-0.13-0.77-0.13c-0.33,0-0.62,0.06-0.88,0.17
			s-0.45,0.26-0.58,0.45s-0.2,0.42-0.24,0.71l-0.71-0.06C88.59,84.4,88.69,84.06,88.89,83.75z"/>
		<path d="M97.66,83.86c-0.29-0.24-0.65-0.37-1.08-0.37c-0.35,0-0.67,0.09-0.97,0.27s-0.52,0.45-0.66,0.81s-0.21,0.79-0.21,1.28
			c0,0.38,0.06,0.74,0.18,1.1s0.33,0.64,0.62,0.85s0.66,0.32,1.1,0.32c0.38,0,0.7-0.09,0.95-0.29c0.25-0.19,0.45-0.49,0.58-0.91
			l0.75,0.18c-0.15,0.53-0.43,0.94-0.82,1.23s-0.87,0.44-1.45,0.44c-0.51,0-0.97-0.12-1.39-0.35s-0.74-0.57-0.97-1.01
			s-0.34-0.96-0.34-1.56c0-0.55,0.1-1.06,0.3-1.54s0.5-0.84,0.88-1.09c0.39-0.25,0.89-0.38,1.51-0.38c0.6,0,1.1,0.16,1.51,0.49
			c0.41,0.33,0.7,0.8,0.86,1.42l-0.76,0.19C98.15,84.47,97.95,84.1,97.66,83.86z"/>
		<path d="M100,83.75c0.2-0.3,0.47-0.53,0.82-0.68s0.78-0.23,1.3-0.23c0.41,0,0.78,0.08,1.1,0.22c0.33,0.15,0.58,0.36,0.75,0.63
			s0.26,0.56,0.26,0.86c0,0.31-0.08,0.58-0.24,0.81c-0.16,0.24-0.4,0.43-0.74,0.58c-0.23,0.1-0.65,0.23-1.27,0.37
			c-0.62,0.14-1,0.28-1.14,0.41c-0.15,0.13-0.22,0.3-0.22,0.51c0,0.24,0.1,0.44,0.31,0.61s0.54,0.25,1,0.25c0.44,0,0.77-0.09,1-0.28
			c0.23-0.18,0.36-0.46,0.4-0.82l0.73,0.05c-0.01,0.34-0.11,0.64-0.28,0.9s-0.42,0.47-0.75,0.6s-0.7,0.21-1.12,0.21
			c-0.39,0-0.74-0.06-1.05-0.2c-0.31-0.13-0.55-0.32-0.72-0.57c-0.16-0.25-0.25-0.52-0.25-0.81c0-0.26,0.07-0.5,0.2-0.71
			s0.34-0.39,0.61-0.53c0.21-0.11,0.58-0.23,1.11-0.36s0.87-0.22,1.02-0.28c0.24-0.09,0.41-0.2,0.52-0.34
			c0.1-0.13,0.16-0.29,0.16-0.47s-0.05-0.34-0.16-0.49s-0.27-0.27-0.49-0.35s-0.48-0.13-0.77-0.13c-0.33,0-0.62,0.06-0.88,0.17
			s-0.45,0.26-0.58,0.45s-0.2,0.42-0.24,0.71l-0.71-0.06C99.7,84.4,99.8,84.06,100,83.75z"/>
		<path d="M106.17,82.94v5.73h-0.76v-5.73H106.17z"/>
		<path d="M109.33,85.48v2.71h1.04v0.47h-2.6V88.2h1.03v-2.71L109.33,85.48L109.33,85.48z M111.21,85.48v2.71l0.86-2.71h0.48
			l0.82,2.67v-2.67h0.48v3.18h-0.77l-0.78-2.54l-0.8,2.54h-0.78v-3.18H111.21z"/>
		<path d="M118.34,81.35v2.02c0.12-0.15,0.27-0.28,0.46-0.38s0.4-0.15,0.63-0.15c0.32,0,0.63,0.09,0.92,0.27s0.51,0.44,0.66,0.78
			s0.23,0.72,0.23,1.15c0,0.4-0.07,0.76-0.21,1.09s-0.34,0.59-0.61,0.77c-0.27,0.18-0.58,0.27-0.94,0.27c-0.27,0-0.5-0.05-0.69-0.16
			s-0.36-0.26-0.51-0.47v0.54h-0.64v-5.74h0.7C118.34,81.34,118.34,81.35,118.34,81.35z M118.62,86.21c0.23,0.28,0.5,0.42,0.79,0.42
			c0.3,0,0.56-0.13,0.78-0.39s0.33-0.66,0.33-1.19c0-0.55-0.11-0.96-0.33-1.23c-0.22-0.26-0.49-0.4-0.8-0.4
			c-0.31,0-0.57,0.13-0.79,0.38c-0.22,0.26-0.32,0.65-0.32,1.18C118.27,85.53,118.39,85.93,118.62,86.21z"/>
		<path d="M122.79,82.94v4.15h-0.7v-4.15H122.79z M122.79,87.86v0.81h-0.7v-0.81H122.79z"/>
		<path d="M126.22,83.68c-0.19-0.17-0.42-0.25-0.69-0.25c-0.34,0-0.62,0.13-0.84,0.38c-0.21,0.25-0.32,0.66-0.32,1.21
			c0,0.55,0.11,0.95,0.33,1.21s0.51,0.38,0.86,0.38c0.23,0,0.43-0.07,0.6-0.21s0.28-0.35,0.35-0.63l0.68,0.11
			c-0.08,0.42-0.26,0.74-0.55,0.97s-0.65,0.34-1.11,0.34c-0.36,0-0.69-0.08-0.99-0.25s-0.53-0.42-0.68-0.76s-0.22-0.73-0.22-1.18
			c0-0.69,0.17-1.22,0.52-1.6s0.8-0.56,1.37-0.56c0.45,0,0.84,0.13,1.15,0.4s0.5,0.64,0.58,1.12l-0.69,0.09
			C126.52,84.11,126.4,83.85,126.22,83.68z"/>
		<path d="M128.14,83.41c0.36-0.37,0.83-0.56,1.41-0.56c0.36,0,0.7,0.08,1,0.25c0.31,0.17,0.54,0.41,0.7,0.71
			c0.16,0.31,0.24,0.73,0.24,1.26c0,0.66-0.18,1.18-0.54,1.55s-0.83,0.56-1.4,0.56c-0.51,0-0.95-0.15-1.3-0.46
			c-0.43-0.37-0.64-0.94-0.64-1.71C127.6,84.32,127.78,83.78,128.14,83.41z M128.67,86.21c0.23,0.26,0.52,0.39,0.88,0.39
			c0.35,0,0.64-0.13,0.87-0.4c0.23-0.26,0.35-0.65,0.35-1.17c0-0.54-0.12-0.95-0.35-1.21s-0.52-0.4-0.87-0.4
			c-0.35,0-0.64,0.13-0.88,0.4c-0.23,0.26-0.35,0.66-0.35,1.19S128.44,85.94,128.67,86.21z"/>
		<path d="M134.72,84.3c0.22-0.45,0.54-0.81,0.96-1.07c0.42-0.26,0.91-0.39,1.45-0.39c0.5,0,0.96,0.12,1.39,0.35
			c0.43,0.24,0.76,0.58,1,1.04c0.23,0.46,0.35,0.98,0.35,1.56c0,0.57-0.11,1.09-0.33,1.54c-0.22,0.45-0.55,0.8-0.97,1.06
			c-0.42,0.25-0.9,0.38-1.43,0.38c-0.81,0-1.47-0.27-1.98-0.81s-0.77-1.28-0.77-2.23C134.4,85.23,134.5,84.75,134.72,84.3z
			 M135.76,87.56c0.39,0.37,0.85,0.55,1.38,0.55c0.38,0,0.72-0.1,1.02-0.29s0.53-0.46,0.69-0.81s0.24-0.75,0.24-1.22
			c0-0.74-0.18-1.31-0.55-1.71c-0.37-0.4-0.84-0.6-1.41-0.6c-0.56,0-1.03,0.2-1.4,0.6s-0.56,0.94-0.56,1.63
			C135.18,86.58,135.37,87.2,135.76,87.56z"/>
		<path d="M140.9,83.75c0.2-0.3,0.47-0.53,0.82-0.68s0.78-0.23,1.3-0.23c0.41,0,0.78,0.08,1.1,0.22c0.33,0.15,0.58,0.36,0.75,0.63
			s0.26,0.56,0.26,0.86c0,0.31-0.08,0.58-0.24,0.81c-0.16,0.24-0.4,0.43-0.74,0.58c-0.23,0.1-0.65,0.23-1.27,0.37
			c-0.62,0.14-1,0.28-1.14,0.41c-0.15,0.13-0.22,0.3-0.22,0.51c0,0.24,0.1,0.44,0.31,0.61s0.54,0.25,1,0.25c0.44,0,0.77-0.09,1-0.28
			c0.23-0.18,0.36-0.46,0.4-0.82l0.73,0.05c-0.01,0.34-0.11,0.64-0.28,0.9s-0.42,0.47-0.75,0.6s-0.7,0.21-1.12,0.21
			c-0.39,0-0.74-0.06-1.05-0.2c-0.31-0.13-0.55-0.32-0.72-0.57c-0.16-0.25-0.25-0.52-0.25-0.81c0-0.26,0.07-0.5,0.2-0.71
			c0.13-0.21,0.34-0.39,0.61-0.53c0.21-0.11,0.58-0.23,1.11-0.36s0.87-0.22,1.02-0.28c0.24-0.09,0.41-0.2,0.52-0.34
			c0.1-0.13,0.16-0.29,0.16-0.47s-0.05-0.34-0.16-0.49s-0.27-0.27-0.49-0.35s-0.48-0.13-0.77-0.13c-0.33,0-0.62,0.06-0.88,0.17
			s-0.45,0.26-0.58,0.45s-0.2,0.42-0.24,0.71l-0.71-0.06C140.6,84.4,140.71,84.06,140.9,83.75z"/>
		<path d="M146.97,82.94v2.7h2.98v-2.7h0.76v5.73h-0.76v-2.35h-2.98v2.35h-0.76v-5.73H146.97z"/>
		<path d="M153.73,82.94l1.21,4.36c0.05,0.19,0.11,0.41,0.17,0.67c0.02-0.08,0.08-0.31,0.18-0.67l1.21-4.36h0.73l1.57,5.73h-0.76
			l-0.9-3.68c-0.12-0.47-0.21-0.88-0.29-1.25c-0.09,0.63-0.24,1.31-0.45,2.03l-0.82,2.9h-0.91l-1.09-3.87
			c-0.03-0.09-0.11-0.45-0.26-1.06c-0.07,0.39-0.15,0.78-0.24,1.17l-0.87,3.75h-0.78l1.52-5.73h0.78L153.73,82.94L153.73,82.94z"/>
		<path d="M164.99,82.94v5.73h-0.7v-2.05c-0.12,0.17-0.28,0.31-0.48,0.41s-0.42,0.16-0.67,0.16c-0.34,0-0.65-0.09-0.93-0.27
			s-0.48-0.44-0.62-0.78s-0.21-0.71-0.21-1.13s0.08-0.8,0.23-1.13c0.15-0.33,0.37-0.58,0.64-0.76c0.28-0.18,0.58-0.27,0.91-0.27
			c0.51,0,0.9,0.21,1.16,0.62v-0.52h0.67L164.99,82.94L164.99,82.94z M162.43,86.22c0.21,0.26,0.47,0.38,0.78,0.38
			c0.32,0,0.59-0.13,0.81-0.4s0.33-0.68,0.33-1.25c0-0.52-0.11-0.9-0.32-1.15s-0.48-0.38-0.78-0.38s-0.57,0.13-0.79,0.39
			c-0.22,0.26-0.34,0.66-0.34,1.19C162.11,85.56,162.22,85.96,162.43,86.22z"/>
		<path d="M168.5,83.63c-0.18-0.13-0.4-0.2-0.66-0.2c-0.35,0-0.63,0.12-0.87,0.36c-0.23,0.24-0.36,0.59-0.39,1.05h3.09
			c0,0.08,0,0.15,0,0.19c0,0.69-0.18,1.22-0.53,1.59c-0.35,0.38-0.8,0.57-1.36,0.57c-0.57,0-1.04-0.19-1.4-0.58
			c-0.36-0.38-0.54-0.93-0.54-1.62c0-0.67,0.18-1.2,0.53-1.57c0.36-0.37,0.84-0.56,1.44-0.56c0.48,0,0.88,0.12,1.19,0.35
			c0.31,0.23,0.52,0.56,0.64,0.99l-0.73,0.09C168.83,83.98,168.68,83.76,168.5,83.63z M166.99,86.28c0.22,0.22,0.49,0.32,0.81,0.32
			c0.36,0,0.65-0.13,0.87-0.41c0.15-0.17,0.23-0.44,0.27-0.79h-2.32C166.65,85.78,166.77,86.07,166.99,86.28z"/>
		<path d="M171.24,82.94v2.17c0,0.3,0.04,0.57,0.12,0.82c0.05,0.16,0.14,0.29,0.26,0.38s0.26,0.14,0.41,0.14
			c0.17,0,0.34-0.05,0.52-0.15l0.24,0.65c-0.24,0.15-0.49,0.23-0.72,0.23c-0.16,0-0.31-0.05-0.45-0.14s-0.29-0.29-0.45-0.58v0.63
			h-0.63v-4.15C170.54,82.94,171.24,82.94,171.24,82.94z"/>
		<path d="M173.91,82.94v4.15h-0.7v-4.15H173.91z M173.91,87.86v0.81h-0.7v-0.81H173.91z"/>
		<path d="M176.79,82.94l1.57,4.15h-0.72l-0.92-2.53c-0.11-0.31-0.2-0.57-0.26-0.79c-0.08,0.29-0.17,0.57-0.27,0.84l-0.89,2.48
			h-0.74l1.58-4.15H176.79z"/>
		<path d="M181.83,82.94h0.73c-0.09,0.16-0.15,0.33-0.18,0.5s-0.04,0.59-0.04,1.24v0.94c0,0.31-0.01,0.53-0.04,0.65
			c-0.04,0.19-0.11,0.35-0.22,0.48c-0.1,0.13-0.27,0.23-0.49,0.31c-0.22,0.08-0.51,0.12-0.86,0.12c-0.36,0-0.67-0.05-0.94-0.15
			s-0.48-0.24-0.62-0.42s-0.25-0.42-0.31-0.71l0.69-0.09c0.08,0.29,0.19,0.5,0.35,0.62s0.4,0.17,0.73,0.17
			c0.35,0,0.62-0.08,0.8-0.24c0.13-0.12,0.2-0.32,0.2-0.61c0-0.03,0-0.09,0-0.18c-0.27-0.09-0.69-0.17-1.25-0.24
			c-0.28-0.03-0.49-0.07-0.62-0.11c-0.19-0.05-0.36-0.13-0.51-0.23c-0.15-0.1-0.27-0.24-0.36-0.4c-0.09-0.17-0.14-0.35-0.14-0.56
			c0-0.35,0.12-0.63,0.37-0.85s0.6-0.33,1.05-0.33c0.28,0,0.54,0.05,0.78,0.14s0.49,0.25,0.75,0.47
			C181.71,83.26,181.76,83.09,181.83,82.94z M181.63,84.77c0-0.31-0.04-0.54-0.11-0.7c-0.1-0.21-0.25-0.37-0.46-0.49
			c-0.21-0.12-0.45-0.18-0.72-0.18s-0.48,0.06-0.62,0.19c-0.14,0.12-0.21,0.28-0.21,0.47c0,0.12,0.03,0.23,0.1,0.33
			s0.16,0.18,0.28,0.23s0.32,0.1,0.61,0.14c0.51,0.07,0.89,0.16,1.15,0.27v-0.26C181.65,84.77,181.63,84.77,181.63,84.77z"/>
		<path d="M184.66,83.54c-0.1,0-0.18,0.02-0.24,0.05c-0.06,0.03-0.1,0.08-0.12,0.14c-0.02,0.06-0.04,0.19-0.04,0.39v2.43h0.71v0.55
			h-0.71v1.45l-0.7-0.42V87.1h-0.52v-0.55h0.52v-2.39c0-0.42,0.03-0.7,0.09-0.83c0.06-0.13,0.16-0.24,0.3-0.32s0.34-0.12,0.59-0.12
			c0.16,0,0.33,0.02,0.53,0.06l-0.1,0.62C184.84,83.55,184.74,83.54,184.66,83.54z"/>
		<path d="M186.36,82.94v4.15h-0.7v-4.15H186.36z M186.36,87.86v0.81h-0.7v-0.81H186.36z"/>
		<path d="M189.24,82.94l1.57,4.15h-0.72l-0.92-2.53c-0.11-0.31-0.2-0.57-0.26-0.79c-0.08,0.29-0.17,0.57-0.27,0.84l-0.89,2.48
			h-0.74l1.58-4.15H189.24z"/>
		<path d="M193.84,83.63c-0.18-0.13-0.4-0.2-0.66-0.2c-0.35,0-0.63,0.12-0.87,0.36c-0.23,0.24-0.36,0.59-0.39,1.05h3.09
			c0,0.08,0,0.15,0,0.19c0,0.69-0.18,1.22-0.53,1.59c-0.35,0.38-0.8,0.57-1.36,0.57c-0.57,0-1.04-0.19-1.4-0.58
			c-0.36-0.38-0.54-0.93-0.54-1.62c0-0.67,0.18-1.2,0.53-1.57c0.36-0.37,0.84-0.56,1.44-0.56c0.48,0,0.88,0.12,1.19,0.35
			c0.31,0.23,0.52,0.56,0.64,0.99l-0.73,0.09C194.17,83.98,194.02,83.76,193.84,83.63z M192.33,86.28c0.22,0.22,0.49,0.32,0.81,0.32
			c0.36,0,0.65-0.13,0.87-0.41c0.15-0.17,0.23-0.44,0.27-0.79h-2.32C191.99,85.78,192.11,86.07,192.33,86.28z"/>
	</g>
</g>
</svg>
