<?xml version="1.0" encoding="utf-8"?>
<!-- Generator: Adobe Illustrator 27.0.0, SVG Export Plug-In . SVG Version: 6.00 Build 0)  -->
<svg version="1.1" id="Calque_1" xmlns="http://www.w3.org/2000/svg" xmlns:xlink="http://www.w3.org/1999/xlink" x="0px" y="0px"
	 viewBox="0 0 243.18 106.64" style="enable-background:new 0 0 243.18 106.64;" xml:space="preserve">
<style type="text/css">
	.st0{fill:none;stroke:#000000;stroke-width:0.1;stroke-miterlimit:10;}
	.st1{fill:none;stroke:#000000;stroke-width:0.36;}
	.st2{fill:none;stroke:#000000;stroke-width:0.5;}
	.st3{fill:none;stroke:#000000;stroke-miterlimit:10;}
	.st4{fill:none;stroke:#000000;stroke-width:0.98;}
	.st5{fill:none;stroke:#000000;stroke-width:1.7;stroke-miterlimit:10;}
	.st6{fill:none;stroke:#000000;stroke-width:1.7;}
	.st7{fill:none;stroke:#000000;stroke-width:1.7;stroke-linecap:round;stroke-linejoin:round;}
	.st8{fill:none;stroke:#000000;stroke-width:2;stroke-miterlimit:10;}
	.st9{fill:none;stroke:#000000;stroke-width:0.75;stroke-miterlimit:10;}
</style>
<path class="st0" d="M232.95,4.01H11.14c-3.72,0-6.73,3.02-6.73,6.73v92.88h235.27V10.74C239.68,7.02,236.66,4.01,232.95,4.01z"/>
<g>
	<polyline class="st1" points="148.56,52.54 149.9,51.19 153.66,51.19 154.96,52.5 	"/>
	<path class="st1" d="M183.62,35.03l-0.93-0.53H170.7l-9.59,9.59h-42.44l-3.75-3.75v-2.55"/>
	<path class="st1" d="M185.46,34.04l-0.91-0.51h-13.89l-9.85,9.85H119l-2.94-2.94v-3.27"/>
	<path class="st1" d="M181.77,36.04l-0.91-0.51h-10.17l-9.28,9.28h-43.06l-4.56-4.56v-3.09"/>
	<path class="st1" d="M179.96,37.07l-0.95-0.55h-8.26l-9.03,9.03h-43.65l-5.42-5.42V37.8"/>
	<path class="st1" d="M176.26,39.05l-0.92-0.52h-4.57l-8.46,8.46h-44.84l-7.09-7.09v-2.11"/>
	<path class="st1" d="M178.25,38.21l-1.08-0.68h-6.4l-8.74,8.74h-44.25l-6.26-6.26v-2.85"/>
	<path class="st1" d="M174.53,40.17l-1.05-0.65h-2.68l-8.28,8.22l-45.38-0.03l-7.5-7.5V38.7l-1.54-1.54"/>
	<path class="st1" d="M172.56,41.04l-0.94-0.54h-0.74l-7.95,7.95h-46.09l-7.92-7.92v-1.12l-0.73-0.73"/>
	<polyline class="st2" points="164.69,52.48 170.72,46.46 170.72,42.61 	"/>
	<polyline class="st2" points="172.56,43.91 172.56,45.97 167.84,50.69 167.84,52.54 	"/>
	<polyline class="st2" points="174.4,42.61 174.4,45.43 171.04,48.79 171.04,52.54 	"/>
	<path class="st1" d="M118.31,37.25v1.4l3.99,3.99h38.21l2.05-2.05v-1.55"/>
	<path class="st1" d="M119.46,38v0.74l3.19,3.19h36.47l1.64-1.66V38.9l4.59-4.59h1.88"/>
	<path class="st1" d="M194.56,43.56l2.23-2.23v-13.5l-1.45-1.45h-6.96l-4.21,4.21h-55.43l-0.8,0.8h-0.77"/>
	<path class="st1" d="M194.56,21.75l1.45,1.45v1.65l-0.83,0.83h-7.1l-4.2,4.2h-55.53l-0.4,0.4h-1.71"/>
	<path class="st1" d="M194.58,40.41l1.42-1.42V28.1l-0.99-0.99h-6.33l-4.21,4.21H129.1l-1.23,1.23h-1.45"/>
	<path class="st1" d="M121.73,38v0.88l1.61,1.61h33.79l8.45-8.45h19.26l4.18-4.18h4.72l0.87,0.87"/>
	<path class="st1" d="M120.58,37.19v1.6l2.42,2.42h34.43l8.43-8.43h20.54l1.53,1.53"/>
	<path class="st1" d="M127.18,29.14h56.41l4.16-4.15h5.96l1.02-1.02"/>
	<circle cx="170.72" cy="42.61" r="0.85"/>
	<circle cx="172.56" cy="43.91" r="0.85"/>
	<circle cx="174.4" cy="42.61" r="0.85"/>
	<circle cx="187.1" cy="57.18" r="0.85"/>
	<circle cx="183.9" cy="57.18" r="0.85"/>
	<circle cx="180.68" cy="57.18" r="0.85"/>
	<circle cx="177.47" cy="52.54" r="0.85"/>
	<circle cx="177.47" cy="57.18" r="0.85"/>
	<circle cx="174.26" cy="52.54" r="0.85"/>
	<circle cx="174.26" cy="57.18" r="0.85"/>
	<circle cx="171.05" cy="52.54" r="0.85"/>
	<circle cx="171.05" cy="57.18" r="0.85"/>
	<circle cx="167.83" cy="52.54" r="0.85"/>
	<circle cx="167.83" cy="57.18" r="0.85"/>
	<circle cx="164.62" cy="52.54" r="0.85"/>
	<circle cx="164.62" cy="57.18" r="0.85"/>
	<circle cx="161.41" cy="52.54" r="0.85"/>
	<circle cx="161.41" cy="57.18" r="0.85"/>
	<circle cx="158.2" cy="52.54" r="0.85"/>
	<circle cx="158.2" cy="57.18" r="0.85"/>
	<circle cx="154.98" cy="52.54" r="0.85"/>
	<circle cx="145.34" cy="57.18" r="0.85"/>
	<circle cx="142.13" cy="52.54" r="0.85"/>
	<circle cx="142.13" cy="57.18" r="0.85"/>
	<circle cx="138.92" cy="52.54" r="0.85"/>
	<circle cx="138.92" cy="57.18" r="0.85"/>
	<circle cx="135.71" cy="52.54" r="0.85"/>
	<circle cx="135.71" cy="57.18" r="0.85"/>
	<circle cx="132.49" cy="52.54" r="0.85"/>
	<circle cx="132.49" cy="57.18" r="0.85"/>
	<circle cx="160.76" cy="40.27" r="0.85"/>
	<circle cx="140.5" cy="21.7" r="0.85"/>
	<circle cx="152.88" cy="21.7" r="0.85"/>
	<circle cx="140.5" cy="20.43" r="0.85"/>
	<circle cx="152.88" cy="20.43" r="0.85"/>
	<circle cx="180.68" cy="52.54" r="0.85"/>
	<circle cx="193.85" cy="31.09" r="0.85"/>
	<circle cx="187.85" cy="31.09" r="0.85"/>
	<circle cx="151.77" cy="57.18" r="0.85"/>
	<circle cx="151.77" cy="52.54" r="0.85"/>
	<circle cx="148.56" cy="52.54" r="0.85"/>
	<circle cx="185.46" cy="34.04" r="0.85"/>
	<circle cx="183.62" cy="35.04" r="0.85"/>
	<circle cx="181.77" cy="36.04" r="0.85"/>
	<circle cx="179.93" cy="37.04" r="0.85"/>
	<circle cx="178.09" cy="38.04" r="0.85"/>
	<circle cx="176.25" cy="39.04" r="0.85"/>
	<circle cx="174.4" cy="40.04" r="0.85"/>
	<circle cx="172.56" cy="41.04" r="0.85"/>
	<circle cx="129.22" cy="51.61" r="0.85"/>
	<circle cx="129.22" cy="49.91" r="0.85"/>
	<circle cx="162.57" cy="39.07" r="0.85"/>
	<circle cx="167.32" cy="34.29" r="0.85"/>
	<circle cx="187.85" cy="34.2" r="0.85"/>
	<circle cx="194.56" cy="28.68" r="0.85"/>
	<circle cx="194.57" cy="24.13" r="0.85"/>
	<circle cx="194.55" cy="21.73" r="0.85"/>
	<circle cx="194.55" cy="40.44" r="0.85"/>
	<circle cx="194.55" cy="43.56" r="0.85"/>
	<circle cx="101.77" cy="22.55" r="0.5"/>
	<circle cx="127.18" cy="29.14" r="0.5"/>
	<circle cx="126.34" cy="30.27" r="0.5"/>
	<circle cx="127.18" cy="31.41" r="0.5"/>
	<circle cx="126.34" cy="32.54" r="0.5"/>
	<circle cx="121.73" cy="38" r="0.5"/>
	<circle cx="120.59" cy="37.15" r="0.5"/>
	<circle cx="119.46" cy="38" r="0.5"/>
	<circle cx="118.32" cy="37.15" r="0.5"/>
	<circle cx="98.53" cy="25.33" r="0.5"/>
	<circle cx="98.53" cy="22.33" r="0.5"/>
	<circle cx="98.53" cy="19.33" r="0.5"/>
	<circle cx="98.53" cy="16.33" r="0.5"/>
	<circle cx="95.43" cy="10.33" r="0.5"/>
	<circle cx="94.71" cy="29.04" r="0.5"/>
	<circle cx="93.71" cy="29.04" r="0.5"/>
	<circle cx="114.92" cy="37.79" r="0.5"/>
	<circle cx="116.06" cy="37.16" r="0.5"/>
	<circle cx="112.65" cy="37.8" r="0.5"/>
	<circle cx="113.79" cy="37.16" r="0.5"/>
	<circle cx="110.39" cy="37.79" r="0.5"/>
	<circle cx="111.52" cy="37.16" r="0.5"/>
	<circle cx="108.12" cy="37.16" r="0.5"/>
	<path d="M157.14,21.66c0,0.09,0.01,3.11,0.02,3.19c0.12,0.86,0.85,1.52,1.74,1.52s1.62-0.65,1.75-1.5c0.01-0.09,0.02-3.11,0.02-3.2
		c0-0.97-0.79-1.76-1.77-1.76C157.93,19.9,157.14,20.69,157.14,21.66z"/>
	<path d="M157.14,10.24c0,0.09,0.01,2.27,0.02,2.35c0.12,0.86,0.85,1.52,1.74,1.52s1.62-0.65,1.75-1.5
		c0.01-0.09,0.02-2.28,0.02-2.37c0-0.97-0.79-1.76-1.77-1.76C157.93,8.48,157.14,9.27,157.14,10.24z"/>
	<path d="M132.65,21.66c0,0.09,0.01,3.11,0.02,3.19c0.12,0.86,0.85,1.52,1.74,1.52s1.62-0.65,1.75-1.5c0.01-0.09,0.02-3.11,0.02-3.2
		c0-0.97-0.79-1.76-1.77-1.76C133.44,19.9,132.65,20.69,132.65,21.66z"/>
	<path d="M132.65,10.24c0,0.09,0.01,2.27,0.02,2.35c0.12,0.86,0.85,1.52,1.74,1.52s1.62-0.65,1.75-1.5
		c0.01-0.09,0.02-2.28,0.02-2.37c0-0.97-0.79-1.76-1.77-1.76C133.44,8.48,132.65,9.27,132.65,10.24z"/>
	<circle cx="101.77" cy="20.99" r="0.5"/>
	<circle cx="125.4" cy="10.33" r="0.5"/>
	<circle cx="125.4" cy="7.33" r="0.5"/>
	<circle cx="109.25" cy="13.19" r="0.5"/>
	<circle cx="110.39" cy="12.35" r="0.5"/>
	<circle cx="111.52" cy="13.19" r="0.5"/>
	<circle cx="115.5" cy="13.19" r="0.5"/>
	<circle cx="108.12" cy="38.6" r="0.5"/>
	<circle cx="101.57" cy="12.29" r="0.5"/>
	<circle cx="91.78" cy="37.55" r="0.5"/>
	<circle cx="119.46" cy="13.19" r="0.5"/>
	<circle cx="120.59" cy="12.19" r="0.5"/>
	<circle cx="118.32" cy="12.35" r="0.5"/>
	<circle cx="121.73" cy="13.19" r="0.5"/>
	<path d="M127.18,19.43c-0.27,0-0.5-0.22-0.5-0.5c0-0.27,0.22-0.5,0.5-0.5c0.27,0,0.5,0.22,0.5,0.5
		C127.68,19.21,127.46,19.43,127.18,19.43"/>
	<circle cx="127.18" cy="21.2" r="0.5"/>
	<circle cx="126.34" cy="22.34" r="0.5"/>
	<circle cx="124.26" cy="23.14" r="0.85"/>
	<circle cx="124.26" cy="20.39" r="0.85"/>
	<circle cx="124.26" cy="25.9" r="0.85"/>
	<circle cx="124.26" cy="17.63" r="0.85"/>
	<path d="M126.34,20.55c-0.27,0-0.5-0.22-0.5-0.5s0.22-0.5,0.5-0.5c0.27,0,0.5,0.22,0.5,0.5S126.61,20.55,126.34,20.55"/>
	<circle cx="147.98" cy="17.74" r="0.85"/>
	<circle cx="149.98" cy="17.02" r="0.85"/>
	<circle cx="152.03" cy="16.34" r="0.85"/>
	<circle cx="154.75" cy="15.65" r="0.85"/>
	<circle cx="141.95" cy="34.04" r="0.85"/>
	<circle cx="136.43" cy="34.04" r="0.85"/>
	<circle cx="145.63" cy="36.2" r="0.85"/>
	<circle cx="147.47" cy="39.07" r="0.85"/>
	<circle cx="134.58" cy="38.34" r="0.85"/>
	<circle cx="153.39" cy="37.66" r="0.85"/>
	<circle cx="145.63" cy="34.04" r="0.85"/>
	<circle cx="158.92" cy="34.04" r="0.85"/>
	<circle cx="153.39" cy="34.04" r="0.85"/>
	<polyline class="st1" points="91.79,37.56 96.71,32.64 96.71,16.16 100.59,12.28 101.57,12.28 	"/>
	<path class="st1" d="M125.4,7.33l-1.12,1.12h-15.73l-6.79,6.79v5.7"/>
	<path class="st1" d="M125.4,10.33l-1.13-1.13h-15.39l-6.13,6.13v6.25l-0.98,0.98"/>
	<path class="st1" d="M118.4,12.27l1.08-1.08h2.86l0.53,0.53h6.34l3.26,3.26h18.25l1.38,1.38"/>
	<path class="st1" d="M120.59,12.19h1.65l0.26,0.26h6.4l3.26,3.26h16.49l1.24,1.24"/>
	<path class="st1" d="M121.73,13.19h6.85l3.25,3.25h14.85l1.31,1.31"/>
	<polyline class="st1" points="127.18,21.2 125.07,21.2 124.23,20.36 	"/>
	<polyline class="st1" points="126.34,22.34 125.01,22.34 124.26,23.08 	"/>
	<polyline class="st1" points="126.34,20.06 125.41,19.13 125.41,18.82 124.19,17.6 	"/>
	<polyline class="st1" points="127.14,18.96 128.93,17.17 145.3,17.17 147.3,19.18 151.21,19.18 154.69,15.7 	"/>
	<path class="st1" d="M115.49,13.19l0.99,0.99h2.92l2.63,2.63v14l5.36,5.36h12.41l2.19-2.19"/>
	<path class="st1" d="M119.46,13.18l3.29,3.29v14l4.97,4.97h7.29l1.36-1.36"/>
	<path class="st1" d="M111.5,13.16l1.74,1.74h5.81l2.25,2.25v14l5.75,5.75h16.78l0.7-0.7h1.23"/>
	<path class="st1" d="M153.63,37.69h-7.69l-0.66,0.66h-10.79"/>
	<path class="st1" d="M110.38,12.4v1.14l2.1,2.1h6.22l1.87,1.87v13.95l7.57,7.57h4.36l0.72-0.72h1.27"/>
	<path class="st1" d="M109.25,13.17v0.68l2.51,2.51h6.58l1.5,1.5v13.88l7.99,7.99h17.67l0.66-0.66h1.06"/>
	<polyline class="st1" points="145.63,34.04 149.18,34.04 151.19,36.05 154.59,36.05 156.61,34.03 158.92,34.03 	"/>
	<circle cx="194.26" cy="55.26" r="0.85"/>
	<circle cx="202.69" cy="52.17" r="0.85"/>
	<circle cx="216.97" cy="54.78" r="0.85"/>
	<circle cx="224.75" cy="53.51" r="0.85"/>
	<circle cx="181.03" cy="17.29" r="0.85"/>
	<circle cx="167.84" cy="16.54" r="0.85"/>
	<circle cx="167.84" cy="21.82" r="0.85"/>
	<circle cx="132.73" cy="34.04" r="0.85"/>
	<circle cx="113.14" cy="46.95" r="0.85"/>
	<circle cx="165.84" cy="7.59" r="0.85"/>
	<circle cx="98.53" cy="7.33" r="0.5"/>
	<circle cx="115.96" cy="7.33" r="0.5"/>
	<circle cx="115.96" cy="10.33" r="0.5"/>
	<circle cx="129.19" cy="24.31" r="0.5"/>
	<circle cx="103.97" cy="10.33" r="0.5"/>
	<circle cx="103.97" cy="7.33" r="0.5"/>
	<path d="M117.12,37.16h0.14c0,0.29,0.12,0.55,0.31,0.75v1.05l3.65,3.66h-1.91l-2.5-2.5v-2.21C117,37.71,117.12,37.45,117.12,37.16z
		"/>
	<path d="M123.5,16.16l-1.92-1.92c0.05,0.01,0.1,0.01,0.15,0.01c0.29,0,0.56-0.12,0.76-0.32h5.77l2.49,2.49h-2.13l-1.44,1.45h-0.01
		c-0.48,0-0.89,0.33-1.01,0.78v-0.14l-0.54-0.54c0.04-0.11,0.05-0.22,0.05-0.34c0-0.78-0.63-1.41-1.41-1.41
		c-0.28,0-0.54,0.08-0.76,0.22V16.16z"/>
	<path d="M151.04,36.94h-4.2c0.13-0.21,0.21-0.47,0.21-0.74c0-0.44-0.2-0.83-0.51-1.08c0.11-0.09,0.21-0.2,0.29-0.33h2.05
		L151.04,36.94z"/>
	<path d="M167.42,35.7l-3.44,3.44c0.01-0.02,0.01-0.05,0.01-0.07c0-0.63-0.42-1.17-0.99-1.35l2.67-2.67h0.46
		c0.25,0.4,0.69,0.66,1.2,0.66C167.36,35.71,167.39,35.71,167.42,35.7z"/>
	<line class="st3" x1="158.91" y1="15.11" x2="158.91" y2="7.68"/>
	<line class="st3" x1="155.71" y1="11.3" x2="164.08" y2="11.3"/>
	<line class="st3" x1="131.4" y1="11.3" x2="138.81" y2="11.3"/>
	<line class="st3" x1="134.41" y1="11.3" x2="134.41" y2="7.04"/>
	<line class="st3" x1="134.41" y1="27.44" x2="134.41" y2="18.83"/>
	<line class="st3" x1="134.41" y1="23.13" x2="131.15" y2="23.13"/>
	<line class="st3" x1="158.91" y1="27.51" x2="158.91" y2="18.69"/>
	<line class="st3" x1="158.91" y1="23.13" x2="162.21" y2="23.13"/>
	<line class="st1" x1="124.26" y1="25.9" x2="124.26" y2="27.87"/>
	<line class="st1" x1="124.26" y1="25.9" x2="126.63" y2="25.9"/>
	<line class="st4" x1="93.71" y1="29.04" x2="94.71" y2="29.04"/>
	<line class="st5" x1="152.88" y1="20.43" x2="152.88" y2="21.7"/>
	<line class="st5" x1="140.5" y1="20.43" x2="140.5" y2="21.7"/>
	<line class="st6" x1="129.22" y1="49.91" x2="129.22" y2="51.61"/>
	<path d="M164.5,32.07l-7.67,7.67h-8.11c0.11-0.2,0.17-0.43,0.17-0.67c0-0.23-0.06-0.45-0.16-0.64h3.47
		c0.26,0.39,0.69,0.65,1.19,0.65c0.78,0,1.42-0.64,1.42-1.42c0-0.33-0.11-0.63-0.31-0.87h0.41l2.02-2.02h0.78
		c0.25,0.41,0.7,0.69,1.21,0.69c0.78,0,1.42-0.64,1.42-1.42s-0.64-1.42-1.42-1.42c-0.5,0-0.94,0.26-1.2,0.66h-1.41l-2.02,2.02h-0.26
		c0.46-0.23,0.78-0.71,0.78-1.26c0-0.78-0.64-1.42-1.42-1.42s-1.42,0.64-1.42,1.42c0,0.55,0.32,1.03,0.78,1.26h-1.25l-2-2.01h-2.67
		c-0.25-0.4-0.69-0.67-1.19-0.67c-0.79,0-1.42,0.64-1.42,1.42c0,0.43,0.19,0.82,0.5,1.08c-0.12,0.09-0.22,0.21-0.29,0.34h-0.2
		l-0.7,0.69h-2.63l0.73-0.73c0.1,0.03,0.21,0.04,0.32,0.04c0.78,0,1.42-0.64,1.42-1.42s-0.64-1.42-1.42-1.42s-1.42,0.64-1.42,1.42
		c0,0.11,0.01,0.22,0.04,0.32l-1.07,1.07h-2.78c0.65-0.13,1.13-0.71,1.13-1.39c0-0.78-0.63-1.42-1.42-1.42
		c-0.78,0-1.41,0.64-1.41,1.42c0,0.11,0.01,0.21,0.04,0.31l-0.35,0.35h-0.73c0.11-0.19,0.17-0.42,0.17-0.66
		c0-0.78-0.63-1.42-1.41-1.42s-1.42,0.64-1.42,1.42c0,0.24,0.06,0.47,0.17,0.66h-3.45l-1.22-1.22c0.1-0.04,0.2-0.11,0.28-0.19h1.11
		l1.23-1.22L164.5,32.07L164.5,32.07z"/>
	<circle cx="88" cy="44.53" r="0.85"/>
	<circle cx="88" cy="46.16" r="0.85"/>
	<circle cx="88" cy="47.8" r="0.85"/>
	<circle cx="88" cy="49.43" r="0.85"/>
	<circle cx="88" cy="51.07" r="0.85"/>
	<circle cx="87.98" cy="52.76" r="0.85"/>
	<circle cx="87.98" cy="54.4" r="0.85"/>
	<circle cx="87.98" cy="56.03" r="0.85"/>
	<line class="st5" x1="88" y1="44.53" x2="88" y2="56.03"/>
	<circle cx="101.7" cy="37.55" r="0.85"/>
	<polyline class="st2" points="184.17,52.27 182.3,54.14 182.3,58.36 180.27,60.39 180.27,66.62 173.09,73.8 87.82,73.8 
		85.29,76.33 	"/>
	<polyline class="st2" points="91.59,76.52 94.33,79.25 178.61,79.25 180.19,77.67 180.19,72.66 186.44,66.41 186.44,59.24 
		185.49,58.28 185.49,54.18 187.16,52.51 	"/>
	<polyline class="st2" points="177.41,52.67 175.87,54.21 175.87,58.27 172.4,61.74 170.12,61.74 168.1,63.75 168.1,66.62 
		162.96,71.76 77.66,71.76 73.21,76.21 	"/>
	<polyline class="st2" points="180.85,52.39 179.08,54.16 179.08,58.31 174.14,63.25 174.14,66.44 167.81,72.78 82.81,72.78 
		78.58,77.01 	"/>
	<polyline class="st2" points="171.1,52.47 169.45,54.12 169.45,57.81 167.47,59.79 164.03,59.79 161.5,62.32 157.36,62.32 
		155.8,63.88 155.8,66.51 152.57,69.75 67.49,69.75 60.57,76.67 	"/>
	<polyline class="st2" points="173.88,52.93 172.66,54.15 172.66,58.07 169.96,60.77 164.47,60.77 161.94,63.45 161.94,66.25 
		157.45,70.74 72.58,70.74 66.7,76.62 	"/>
	<polyline class="st2" points="164.84,52.33 163.02,54.14 163.02,57.94 160.59,60.37 151.69,60.37 149.64,62.41 145.28,62.41 
		143.5,64.22 143.5,65.91 141.62,67.79 63.42,67.79 54.72,76.49 	"/>
	<polyline class="st2" points="167.7,52.65 166.24,54.12 166.24,57.82 165.32,58.75 163.66,58.75 161.06,61.34 152.21,61.34 
		149.69,63.86 149.69,66.34 147.26,68.77 64.06,68.77 57.85,74.97 57.85,77.53 56.14,79.24 51.36,79.24 48.53,76.41 	"/>
	<line class="st7" x1="110.79" y1="47.65" x2="110.79" y2="50.63"/>
	<polyline class="st2" points="158.2,52.54 156.58,54.15 156.58,58.69 	"/>
	<polyline class="st2" points="161.41,52.54 159.81,54.14 159.81,58.72 	"/>
	<polyline class="st2" points="151.77,52.54 151.77,54.64 147.77,58.65 	"/>
	<circle cx="183.9" cy="52.54" r="0.85"/>
	<circle cx="187.11" cy="52.54" r="0.85"/>
	<circle cx="159.81" cy="58.72" r="0.85"/>
	<circle cx="156.58" cy="58.69" r="0.85"/>
	<circle cx="147.74" cy="58.69" r="0.85"/>
	<circle cx="227.7" cy="70.75" r="7.09"/>
	<circle cx="16.39" cy="70.75" r="7.09"/>
	<line class="st8" x1="7.06" y1="70.75" x2="29.65" y2="70.75"/>
	<line class="st8" x1="16.39" y1="81.44" x2="16.39" y2="55.11"/>
	<line class="st8" x1="216.65" y1="70.75" x2="237.27" y2="70.75"/>
	<line class="st8" x1="227.7" y1="80.74" x2="227.7" y2="61.25"/>
	<circle cx="189.4" cy="65.08" r="1.84"/>
	<circle cx="195.52" cy="65.08" r="1.84"/>
	<circle cx="189.4" cy="76.42" r="1.84"/>
	<circle cx="195.52" cy="76.42" r="1.84"/>
	<circle cx="177.15" cy="65.08" r="1.84"/>
	<circle cx="183.27" cy="65.08" r="1.84"/>
	<circle cx="177.15" cy="76.42" r="1.84"/>
	<circle cx="183.27" cy="76.42" r="1.84"/>
	<circle cx="164.9" cy="65.08" r="1.84"/>
	<circle cx="171.03" cy="65.08" r="1.84"/>
	<circle cx="164.9" cy="76.42" r="1.84"/>
	<circle cx="171.03" cy="76.42" r="1.84"/>
	<circle cx="152.66" cy="65.08" r="1.84"/>
	<circle cx="158.78" cy="65.08" r="1.84"/>
	<circle cx="152.66" cy="76.42" r="1.84"/>
	<circle cx="158.78" cy="76.42" r="1.84"/>
	<circle cx="140.41" cy="65.08" r="1.84"/>
	<circle cx="146.54" cy="65.08" r="1.84"/>
	<circle cx="140.41" cy="76.42" r="1.84"/>
	<circle cx="146.54" cy="76.42" r="1.84"/>
	<circle cx="128.17" cy="65.08" r="1.84"/>
	<circle cx="134.29" cy="65.08" r="1.84"/>
	<circle cx="128.17" cy="76.42" r="1.84"/>
	<circle cx="134.29" cy="76.42" r="1.84"/>
	<circle cx="115.92" cy="65.08" r="1.84"/>
	<circle cx="122.04" cy="65.08" r="1.84"/>
	<circle cx="115.92" cy="76.42" r="1.84"/>
	<circle cx="122.04" cy="76.42" r="1.84"/>
	<circle cx="103.68" cy="65.08" r="1.84"/>
	<circle cx="109.8" cy="65.08" r="1.84"/>
	<circle cx="103.68" cy="76.42" r="1.84"/>
	<circle cx="109.8" cy="76.42" r="1.84"/>
	<circle cx="91.43" cy="65.08" r="1.84"/>
	<circle cx="97.55" cy="65.08" r="1.84"/>
	<circle cx="91.43" cy="76.42" r="1.84"/>
	<circle cx="97.55" cy="76.42" r="1.84"/>
	<circle cx="79.19" cy="65.08" r="1.84"/>
	<circle cx="85.31" cy="65.08" r="1.84"/>
	<circle cx="79.19" cy="76.42" r="1.84"/>
	<circle cx="85.31" cy="76.42" r="1.84"/>
	<circle cx="66.94" cy="65.08" r="1.84"/>
	<circle cx="73.06" cy="65.08" r="1.84"/>
	<circle cx="66.94" cy="76.42" r="1.84"/>
	<circle cx="73.06" cy="76.42" r="1.84"/>
	<circle cx="54.69" cy="65.08" r="1.84"/>
	<circle cx="60.82" cy="65.08" r="1.84"/>
	<circle cx="54.69" cy="76.42" r="1.84"/>
	<circle cx="60.82" cy="76.42" r="1.84"/>
	<circle cx="48.57" cy="65.08" r="1.84"/>
	<circle cx="48.57" cy="76.42" r="1.84"/>
	<path d="M103.97,11.39c0.58,0,1.06-0.48,1.06-1.06c0-0.59-0.48-1.06-1.06-1.06c-0.59,0-1.07,0.47-1.07,1.06
		C102.9,10.91,103.38,11.39,103.97,11.39z M92.74,78.83l1.25,1.24h84.96L181,78v-0.78c0.33,0.94,1.22,1.61,2.27,1.61
		c1.33,0,2.41-1.08,2.41-2.41s-1.08-2.41-2.41-2.41c-1.05,0-1.94,0.67-2.27,1.61V73l6.26-6.25v-0.54c0.41,0.76,1.21,1.28,2.13,1.28
		c1.33,0,2.41-1.08,2.41-2.41s-1.08-2.41-2.41-2.41c-0.92,0-1.72,0.52-2.13,1.28V58.9l-0.33-0.33c0.05,0.02,0.11,0.02,0.17,0.02
		c0.78,0,1.41-0.63,1.41-1.41s-0.63-1.42-1.41-1.42c-0.3,0-0.57,0.09-0.8,0.25v-1.49l0.59-0.59c0.07,0.01,0.15,0.02,0.22,0.02
		c0.78,0,1.41-0.63,1.41-1.41s-0.63-1.42-1.41-1.42c-0.79,0-1.42,0.64-1.42,1.42h-0.38c0-0.78-0.64-1.42-1.42-1.42
		s-1.41,0.64-1.41,1.42h-0.38c0-0.78-0.64-1.42-1.42-1.42s-1.42,0.64-1.42,1.42h-0.37c0-0.78-0.64-1.42-1.42-1.42
		s-1.42,0.64-1.42,1.42h-0.38c0-0.78-0.63-1.42-1.42-1.42c-0.78,0-1.41,0.64-1.41,1.42h-0.38c0-0.48-0.24-0.9-0.61-1.16v-2.25
		l3.37-3.36v-2.01c0.36-0.26,0.6-0.68,0.6-1.15c0-0.56-0.34-1.06-0.82-1.28c0.39-0.19,0.68-0.54,0.77-0.96
		c0.14,0.06,0.3,0.09,0.47,0.09c0.67,0,1.23-0.47,1.37-1.09c0.14,0.06,0.3,0.09,0.47,0.09c0.68,0,1.23-0.47,1.37-1.09
		c0.15,0.06,0.31,0.09,0.48,0.09c0.67,0,1.22-0.47,1.36-1.09c0.15,0.06,0.31,0.09,0.48,0.09c0.67,0,1.23-0.47,1.37-1.09
		c0.14,0.06,0.3,0.09,0.47,0.09c0.67,0,1.23-0.47,1.37-1.09c0.14,0.06,0.3,0.09,0.47,0.09c0.48,0,0.9-0.24,1.15-0.6
		c0.23,0.45,0.7,0.76,1.24,0.76c0.78,0,1.42-0.64,1.42-1.42s-0.64-1.41-1.42-1.41V32.5c0.78,0,1.42-0.63,1.42-1.42
		c0-0.65-0.45-1.2-1.05-1.35l1.11-1.12h3.82c-0.01,0.02-0.01,0.04-0.01,0.06c0,0.4,0.17,0.77,0.44,1.03
		c-0.65,0.12-1.14,0.69-1.14,1.38c0,0.79,0.63,1.42,1.41,1.42s1.42-0.63,1.42-1.42v7.59l-0.39,0.39c-0.1-0.03-0.21-0.04-0.32-0.04
		c-0.78,0-1.42,0.64-1.42,1.42s0.64,1.42,1.42,1.42v0.28c-0.78,0-1.42,0.64-1.42,1.42s0.64,1.41,1.42,1.41s1.42-0.63,1.42-1.41
		c0-0.11-0.01-0.22-0.04-0.32l1.6-1.6V27.53l-1.57-1.58l0.79-0.79v-2.27l-0.83-0.83c0.04-0.11,0.05-0.22,0.05-0.33
		c0-0.78-0.64-1.42-1.42-1.42s-1.42,0.64-1.42,1.42c0,0.51,0.27,0.96,0.68,1.21c-0.4,0.24-0.66,0.68-0.66,1.18
		c0,0.04,0,0.08,0.01,0.12h-5.72l-4.16,4.15h-55.34c-0.2-0.2-0.47-0.32-0.76-0.32c-0.59,0-1.07,0.48-1.07,1.07
		c0,0.03,0,0.06,0.01,0.09c-0.48,0.1-0.85,0.53-0.85,1.04c0,0.52,0.37,0.94,0.85,1.04c-0.01,0.03-0.01,0.07-0.01,0.1
		s0,0.06,0.01,0.09c-0.32,0.07-0.59,0.28-0.73,0.56l-1.9-1.9V27.1c0.22,0.14,0.48,0.22,0.76,0.22c0.78,0,1.42-0.64,1.42-1.42
		c0-0.67-0.48-1.24-1.11-1.38c0.63-0.14,1.1-0.69,1.11-1.36c0.18,0.15,0.42,0.24,0.67,0.24c0.58,0,1.06-0.48,1.06-1.07
		c0-0.03,0-0.06-0.01-0.09c0.48-0.1,0.85-0.52,0.85-1.04c0-0.51-0.37-0.94-0.85-1.04c0.01-0.03,0.01-0.07,0.01-0.1s0-0.05-0.01-0.08
		c0.48-0.1,0.85-0.53,0.85-1.05c0-0.01,0-0.01,0-0.02l0.99-0.99h15.76l2,2.01h4.47v0.5v1.27c0,0.78,0.63,1.42,1.42,1.42
		c0.07,0,0.14-0.01,0.21-0.02c0.42,0.53,1.06,0.87,1.79,0.87c0.67,0,1.28-0.3,1.69-0.77c0,0.81,0.01,1.65,0.02,1.72
		c0.16,1.15,1.15,2.01,2.31,2.01c1.14,0,2.14-0.85,2.31-2c0.02-0.15,0.02-3.24,0.02-3.27c0-1.29-1.04-2.33-2.33-2.33
		c-0.89,0-1.67,0.5-2.06,1.24c-0.39-0.68-1.12-1.14-1.96-1.14c-0.3,0-0.59,0.06-0.86,0.17c-0.25-0.36-0.67-0.59-1.14-0.59
		c-0.2,0-0.39,0.04-0.56,0.11l2.09-2.09c0.11,0.03,0.22,0.04,0.33,0.04c0.78,0,1.42-0.64,1.42-1.42c0-0.78-0.64-1.42-1.42-1.42
		s-1.41,0.64-1.41,1.42c0,0.07,0.01,0.15,0.02,0.22c-0.19-0.55-0.72-0.95-1.33-0.95c-0.1,0-0.2,0.01-0.29,0.03l-0.71-0.71h-15.28
		c0.51-0.35,0.87-0.91,0.97-1.56c0.02-0.14,0.03-2.42,0.03-2.44c0-1.28-1.05-2.33-2.34-2.33c-1.28,0-2.33,1.05-2.33,2.33
		c0,0.02,0.01,2.29,0.03,2.43c0.09,0.65,0.45,1.21,0.95,1.57h-0.28l-3.26-3.26h-3.28c0.14-0.18,0.23-0.41,0.23-0.65
		c0-0.59-0.48-1.06-1.07-1.06l-0.44-0.44l0.44-0.44c0.59,0,1.07-0.48,1.07-1.06c0-0.59-0.48-1.06-1.07-1.06
		c-0.58,0-1.06,0.47-1.06,1.06v0.01l-0.37,0.37h-7.01c0.04-0.12,0.07-0.25,0.07-0.38c0-0.59-0.48-1.06-1.07-1.06
		c-0.58,0-1.06,0.47-1.06,1.06c0,0.13,0.03,0.26,0.07,0.38h-6.73l-7.22,7.22v5.31c-0.19,0.2-0.3,0.46-0.3,0.75
		c0,0.3,0.13,0.58,0.34,0.78c-0.21,0.19-0.34,0.47-0.34,0.78c0,0.58,0.47,1.06,1.06,1.06s1.06-0.48,1.06-1.06v-0.01l0.66-0.66v-6.25
		l5.69-5.69h5.78c-0.04,0.12-0.07,0.25-0.07,0.39c0,0.58,0.48,1.06,1.06,1.06c0.59,0,1.07-0.48,1.07-1.06
		c0-0.14-0.03-0.27-0.07-0.39h7l0.38,0.38v0.01c0,0.24,0.09,0.47,0.23,0.65h-1.39l-0.53-0.53h-3.48l-0.83,0.83h-0.01
		c-0.59,0-1.06,0.48-1.06,1.06c0,0.59,0.47,1.07,1.06,1.07c0.03,0,0.06,0,0.09-0.01c0,0.02,0.01,0.03,0.01,0.04h-1.63l-0.23-0.23
		c0-0.01,0-0.01,0-0.02c0-0.59-0.48-1.07-1.06-1.07c-0.59,0-1.07,0.48-1.07,1.07c0,0.43,0.26,0.8,0.63,0.97h-1.51l-0.97-0.97
		c0-0.59-0.48-1.07-1.06-1.07c-0.03,0-0.06,0-0.09,0.01c-0.1-0.48-0.53-0.85-1.05-0.85c-0.51,0-0.94,0.37-1.04,0.85
		c-0.03-0.01-0.06-0.01-0.09-0.01c-0.59,0-1.06,0.48-1.06,1.07c0,0.29,0.12,0.56,0.31,0.75v0.22l2.95,2.95h6.58l1.07,1.07v13.88
		l7.68,7.68h-3.13l-1.09-1.09c0.14-0.18,0.23-0.41,0.23-0.66c0-0.58-0.48-1.06-1.07-1.06c-0.03,0-0.06,0-0.09,0.01
		c-0.1-0.48-0.53-0.85-1.04-0.85c-0.52,0-0.95,0.37-1.05,0.85c-0.03-0.01-0.06-0.01-0.09-0.01s-0.06,0-0.09,0.01
		c-0.1-0.48-0.52-0.85-1.04-0.85c-0.38,0-0.71,0.2-0.9,0.5h-0.46c-0.19-0.3-0.53-0.5-0.91-0.5c-0.43,0-0.81,0.27-0.98,0.64
		c-0.05-0.01-0.1-0.01-0.15-0.01s-0.11,0-0.16,0.01c-0.17-0.37-0.54-0.63-0.98-0.63c-0.43,0-0.81,0.26-0.98,0.64
		c-0.05-0.01-0.1-0.01-0.15-0.01s-0.1,0-0.15,0.01c-0.17-0.38-0.55-0.64-0.98-0.64c-0.44,0-0.82,0.26-0.99,0.64
		c-0.05-0.01-0.1-0.01-0.15-0.01c-0.44,0-0.82,0.27-0.98,0.66l-0.22-0.22v-0.01c0-0.59-0.48-1.07-1.06-1.07
		c-0.59,0-1.07,0.48-1.07,1.07c0,0.28,0.11,0.53,0.28,0.72c-0.17,0.19-0.28,0.44-0.28,0.72c0,0.58,0.47,1.05,1.05,1.06h0.01
		l0.05,0.06v1.12l4.72,4.72c-0.55,0.09-1,0.52-1.13,1.06c-0.25-0.24-0.59-0.39-0.96-0.39c-0.78,0-1.42,0.64-1.42,1.42v2.97
		c0,0.79,0.64,1.42,1.42,1.42s1.41-0.63,1.41-1.42v-2.61c0.25,0.23,0.58,0.36,0.93,0.36c0.69,0,1.28-0.51,1.39-1.17l2,2H128
		c-0.13,0.21-0.2,0.45-0.2,0.71v1.7c0,0.78,0.64,1.42,1.42,1.42s1.42-0.64,1.42-1.42v-1.7c0-0.26-0.07-0.5-0.2-0.71h32.79l6.15-6.15
		c0.09,0.29,0.27,0.54,0.52,0.71v2.36l-5.03,5.03c-0.08-0.02-0.16-0.03-0.25-0.03c-0.78,0-1.42,0.64-1.42,1.42h-0.38
		c0-0.78-0.63-1.42-1.42-1.42c-0.78,0-1.41,0.64-1.41,1.42h-0.38c0-0.78-0.64-1.42-1.42-1.42c-0.75,0-1.37,0.59-1.41,1.33
		l-0.13,0.09h-0.25c0-0.78-0.64-1.42-1.42-1.42c-0.1,0-0.2,0.01-0.3,0.04l-0.72-0.72h-4.37l-0.72,0.72
		c-0.1-0.03-0.21-0.04-0.32-0.04c-0.78,0-1.41,0.64-1.41,1.42s0.63,1.41,1.41,1.41s1.42-0.63,1.42-1.41c0-0.11-0.01-0.22-0.04-0.32
		l0.28-0.28h0.28c-0.09,0.18-0.14,0.38-0.14,0.6c0,0.48,0.24,0.9,0.6,1.15v0.61l-2.99,2.99c-0.07-0.01-0.15-0.02-0.23-0.02
		c-0.49,0-0.92,0.25-1.17,0.63c0.13-0.21,0.2-0.46,0.2-0.72c0-0.78-0.64-1.42-1.42-1.42s-1.42,0.64-1.42,1.42s0.64,1.41,1.42,1.41
		c0.49,0,0.92-0.25,1.18-0.62c-0.13,0.21-0.2,0.46-0.2,0.72c0,0.78,0.63,1.42,1.41,1.42c0.79,0,1.42-0.64,1.42-1.42
		c0-0.09-0.01-0.17-0.03-0.25l1.23-1.23c0.02,0.77,0.64,1.38,1.42,1.38s1.41-0.63,1.41-1.41c0-0.77-0.61-1.4-1.38-1.42l0.78-0.78
		v-1.29c0.36-0.25,0.6-0.67,0.6-1.15c0-0.22-0.05-0.42-0.14-0.6h0.3l0.27,0.26c-0.04,0.11-0.05,0.22-0.05,0.34
		c0,0.78,0.64,1.41,1.42,1.41c0.29,0,0.56-0.09,0.78-0.23v3.82c-0.36,0.25-0.6,0.68-0.6,1.15c0,0.32,0.11,0.62,0.3,0.86h-4.11
		l-2.05,2.05h-4.37l-2.25,2.28v0.4c-0.33-0.94-1.22-1.61-2.27-1.61c-1.33,0-2.41,1.08-2.41,2.41c0,0.77,0.36,1.45,0.92,1.89h-3.14
		c0.56-0.44,0.92-1.12,0.92-1.89c0-1.33-1.08-2.41-2.41-2.41s-2.41,1.08-2.41,2.41c0,0.77,0.36,1.45,0.92,1.89h-3.15
		c0.56-0.44,0.92-1.12,0.92-1.89c0-1.33-1.08-2.41-2.41-2.41s-2.41,1.08-2.41,2.41c0,0.77,0.36,1.45,0.92,1.89h-3.14
		c0.56-0.44,0.92-1.12,0.92-1.89c0-1.33-1.08-2.41-2.41-2.41s-2.41,1.08-2.41,2.41c0,0.77,0.36,1.45,0.92,1.89h-3.14
		c0.56-0.44,0.92-1.12,0.92-1.89c0-1.33-1.08-2.41-2.41-2.41s-2.41,1.08-2.41,2.41c0,0.77,0.36,1.45,0.92,1.89h-3.15
		c0.56-0.44,0.92-1.12,0.92-1.89c0-1.33-1.08-2.41-2.41-2.41c-1.32,0-2.41,1.08-2.41,2.41c0,0.77,0.36,1.45,0.92,1.89h-3.14
		c0.56-0.44,0.92-1.12,0.92-1.89c0-1.33-1.08-2.41-2.41-2.41s-2.41,1.08-2.41,2.41c0,0.77,0.36,1.45,0.92,1.89h-3.14
		c0.56-0.44,0.92-1.12,0.92-1.89c0-1.33-1.08-2.41-2.41-2.41s-2.41,1.08-2.41,2.41c0,0.77,0.36,1.45,0.92,1.89h-3.14
		c0.56-0.44,0.92-1.12,0.92-1.89c0-1.33-1.09-2.41-2.41-2.41c-1.33,0-2.41,1.08-2.41,2.41c0,0.77,0.36,1.45,0.92,1.89h-3.15
		c0.56-0.44,0.92-1.12,0.92-1.89c0-1.33-1.08-2.41-2.41-2.41s-2.41,1.08-2.41,2.41c0,0.77,0.36,1.45,0.92,1.89h-3.14
		c0.56-0.44,0.92-1.12,0.92-1.89c0-1.33-1.08-2.41-2.41-2.41s-2.41,1.08-2.41,2.41c0,0.77,0.36,1.45,0.92,1.89h-3.14
		c0.56-0.44,0.92-1.12,0.92-1.89c0-1.33-1.08-2.41-2.41-2.41s-2.41,1.08-2.41,2.41c0,0.77,0.36,1.45,0.92,1.89h-3.15
		c0.56-0.44,0.92-1.12,0.92-1.89c0-1.33-1.08-2.41-2.41-2.41c-1.32,0-2.4,1.08-2.4,2.41c0,0.77,0.36,1.45,0.91,1.89h-2.36l-7.3,7.3
		c-0.33-0.17-0.7-0.26-1.09-0.26c-1.33,0-2.41,1.08-2.41,2.41c0,0.83,0.42,1.56,1.06,2h-1.65l-0.95-0.95
		c0.15-0.31,0.24-0.67,0.24-1.05c0-1.33-1.09-2.41-2.41-2.41c-1.33,0-2.41,1.08-2.41,2.41s1.08,2.41,2.41,2.41
		c0.36,0,0.7-0.08,1-0.22l1.45,1.44h5.46l1.23-1.22L92.74,78.83L92.74,78.83z M97.46,19.33c0,0.59,0.48,1.06,1.06,1.06
		c0.59,0,1.07-0.47,1.07-1.06s-0.48-1.06-1.07-1.06C97.94,18.27,97.46,18.74,97.46,19.33z M97.46,22.33c0,0.59,0.48,1.06,1.06,1.06
		c0.59,0,1.07-0.47,1.07-1.06s-0.48-1.06-1.07-1.06C97.94,21.27,97.46,21.74,97.46,22.33z M97.46,25.33c0,0.59,0.48,1.06,1.06,1.06
		c0.59,0,1.07-0.47,1.07-1.06s-0.48-1.06-1.07-1.06C97.94,24.27,97.46,24.74,97.46,25.33z M95.96,15.85v16.48l-4.15,4.15
		c-0.01,0-0.02,0-0.03,0c-0.59,0-1.07,0.48-1.07,1.07c0,0.58,0.48,1.06,1.07,1.06c0.58,0,1.06-0.48,1.06-1.06l4.61-4.61V16.47
		l0.02-0.02c0.06,0.53,0.51,0.94,1.05,0.94c0.59,0,1.07-0.47,1.07-1.06c0-0.55-0.42-1-0.95-1.05l2.21-2.21
		c0.19,0.17,0.44,0.28,0.71,0.28c0.59,0,1.07-0.48,1.07-1.06c0-0.59-0.48-1.06-1.07-1.06c-0.29,0-0.55,0.11-0.74,0.3h-0.55
		L95.96,15.85z M95.77,29.04c0-0.58-0.48-1.06-1.06-1.06h-1c-0.59,0-1.06,0.48-1.06,1.06c0,0.59,0.47,1.07,1.06,1.07
		c0.04,0,0.08,0,0.11-0.01h0.79c0.03,0.01,0.06,0.01,0.1,0.01C95.29,30.11,95.77,29.63,95.77,29.04z M238.26,10.74v91.47H5.82V10.74
		c0-2.93,2.39-5.31,5.32-5.31h221.8C235.87,5.43,238.26,7.81,238.26,10.74z M235.35,70.75c0-4.22-3.43-7.66-7.65-7.66
		s-7.66,3.44-7.66,7.66s3.44,7.65,7.66,7.65S235.35,74.97,235.35,70.75z M226.16,53.51c0-0.78-0.63-1.42-1.42-1.42
		c-0.78,0-1.41,0.64-1.41,1.42s0.63,1.42,1.41,1.42C225.53,54.93,226.16,54.29,226.16,53.51z M223.63,19.46
		c0-1.56-1.27-2.83-2.83-2.83c-1.57,0-2.84,1.27-2.84,2.83s1.27,2.83,2.84,2.83C222.36,22.29,223.63,21.02,223.63,19.46z M223.63,42
		c0-1.56-1.27-2.83-2.83-2.83c-1.57,0-2.84,1.27-2.84,2.83s1.27,2.84,2.84,2.84C222.36,44.84,223.63,43.56,223.63,42z M218.38,54.78
		c0-0.78-0.63-1.41-1.42-1.41c-0.78,0-1.41,0.63-1.41,1.41s0.63,1.42,1.41,1.42C217.75,56.2,218.38,55.56,218.38,54.78z
		 M204.1,52.17c0-0.78-0.64-1.42-1.42-1.42s-1.41,0.64-1.41,1.42s0.63,1.42,1.41,1.42S204.1,52.95,204.1,52.17z M197.92,65.08
		c0-1.33-1.08-2.41-2.41-2.41c-1.32,0-2.41,1.08-2.41,2.41c0,1.33,1.09,2.41,2.41,2.41C196.84,67.49,197.92,66.41,197.92,65.08z
		 M197.92,76.42c0-1.33-1.08-2.41-2.41-2.41c-1.32,0-2.41,1.08-2.41,2.41s1.09,2.41,2.41,2.41
		C196.84,78.83,197.92,77.75,197.92,76.42z M195.68,55.26c0-0.78-0.64-1.42-1.42-1.42s-1.42,0.64-1.42,1.42s0.64,1.41,1.42,1.41
		S195.68,56.04,195.68,55.26z M191.8,76.42c0-1.33-1.08-2.41-2.41-2.41s-2.41,1.08-2.41,2.41s1.08,2.41,2.41,2.41
		S191.8,77.75,191.8,76.42z M182.44,17.29c0-0.78-0.63-1.42-1.42-1.42c-0.78,0-1.41,0.64-1.41,1.42s0.63,1.42,1.41,1.42
		C181.81,18.71,182.44,18.07,182.44,17.29z M169.26,16.54c0-0.78-0.64-1.42-1.42-1.42s-1.42,0.64-1.42,1.42
		c0,0.78,0.64,1.42,1.42,1.42S169.26,17.32,169.26,16.54z M169.26,21.82c0-0.78-0.64-1.42-1.42-1.42s-1.42,0.64-1.42,1.42
		s0.64,1.42,1.42,1.42S169.26,22.6,169.26,21.82z M167.26,7.59c0-0.78-0.64-1.41-1.42-1.41s-1.42,0.63-1.42,1.41
		s0.64,1.42,1.42,1.42S167.26,8.37,167.26,7.59z M161.21,12.68c0.02-0.15,0.02-2.42,0.02-2.44c0-1.28-1.04-2.33-2.33-2.33
		c-1.28,0-2.33,1.05-2.33,2.33c0,0.02,0,2.29,0.02,2.43c0.16,1.15,1.15,2.01,2.31,2.01C160.04,14.68,161.04,13.82,161.21,12.68z
		 M143.55,52.54c0-0.78-0.64-1.42-1.42-1.42s-1.42,0.64-1.42,1.42s0.64,1.41,1.42,1.41S143.55,53.32,143.55,52.54z M143.55,57.18
		c0-0.78-0.64-1.42-1.42-1.42s-1.42,0.64-1.42,1.42s0.64,1.41,1.42,1.41S143.55,57.96,143.55,57.18z M141.91,21.7v-1.27
		c0-0.79-0.64-1.42-1.42-1.42c-0.47,0-0.9,0.23-1.15,0.59c-0.26-0.11-0.55-0.17-0.85-0.17c-0.86,0-1.61,0.48-2,1.19
		c-0.38-0.77-1.17-1.29-2.09-1.29c-1.28,0-2.33,1.04-2.33,2.33c0,0.03,0.01,3.12,0.03,3.26c0.15,1.15,1.15,2.01,2.3,2.01
		s2.14-0.85,2.31-2c0.01-0.08,0.02-0.97,0.02-1.8c0.42,0.51,1.05,0.84,1.76,0.84c0.72,0,1.37-0.34,1.78-0.87
		c0.07,0.01,0.15,0.02,0.22,0.02C141.27,23.12,141.91,22.48,141.91,21.7z M140.33,52.54c0-0.78-0.63-1.42-1.42-1.42
		c-0.78,0-1.41,0.64-1.41,1.42s0.63,1.41,1.41,1.41C139.7,53.95,140.33,53.32,140.33,52.54z M140.33,57.18
		c0-0.78-0.63-1.42-1.42-1.42c-0.78,0-1.41,0.64-1.41,1.42s0.63,1.41,1.41,1.41C139.7,58.59,140.33,57.96,140.33,57.18z
		 M137.12,52.54c0-0.78-0.64-1.42-1.42-1.42s-1.42,0.64-1.42,1.42s0.64,1.41,1.42,1.41S137.12,53.32,137.12,52.54z M137.12,57.18
		c0-0.78-0.64-1.42-1.42-1.42s-1.42,0.64-1.42,1.42s0.64,1.41,1.42,1.41S137.12,57.96,137.12,57.18z M133.91,52.54
		c0-0.78-0.64-1.42-1.42-1.42s-1.42,0.64-1.42,1.42s0.64,1.41,1.42,1.41S133.91,53.32,133.91,52.54z M133.91,57.18
		c0-0.78-0.64-1.42-1.42-1.42s-1.42,0.64-1.42,1.42s0.64,1.41,1.42,1.41S133.91,57.96,133.91,57.18z M130.25,24.31
		c0-0.59-0.48-1.07-1.07-1.07c-0.58,0-1.06,0.48-1.06,1.07c0,0.58,0.48,1.06,1.06,1.06C129.77,25.37,130.25,24.89,130.25,24.31z
		 M105.03,7.33c0-0.59-0.48-1.06-1.06-1.06c-0.59,0-1.07,0.47-1.07,1.06c0,0.58,0.48,1.06,1.07,1.06
		C104.55,8.39,105.03,7.91,105.03,7.33z M103.12,37.55c0-0.78-0.64-1.42-1.42-1.42s-1.42,0.64-1.42,1.42s0.64,1.42,1.42,1.42
		C102.48,38.97,103.12,38.33,103.12,37.55z M99.59,7.33c0-0.59-0.48-1.06-1.07-1.06c-0.58,0-1.06,0.47-1.06,1.06
		c0,0.58,0.48,1.06,1.06,1.06C99.11,8.39,99.59,7.91,99.59,7.33z M96.49,10.33c0-0.59-0.48-1.06-1.06-1.06
		c-0.59,0-1.07,0.47-1.07,1.06c0,0.58,0.48,1.06,1.07,1.06C96.01,11.39,96.49,10.91,96.49,10.33z M89.41,56.03v-4.96v-1.64v-1.64
		v-1.63v-1.64c0-0.78-0.64-1.41-1.42-1.41s-1.42,0.63-1.42,1.41c0,0.03,0,0.07,0.01,0.1v1.45c-0.01,0.03-0.01,0.06-0.01,0.09
		s0,0.06,0.01,0.09v1.45c-0.01,0.03-0.01,0.06-0.01,0.09s0,0.07,0.01,0.1v1.45c-0.01,0.03-0.01,0.06-0.01,0.09s0,0.06,0.01,0.09
		v1.45c-0.01,0.03-0.01,0.07-0.01,0.1s0,0.06,0.01,0.09v1.41c-0.02,0.06-0.02,0.13-0.02,0.19c0,0.06,0,0.13,0.02,0.19v1.25
		c-0.02,0.06-0.02,0.12-0.02,0.19c0,0.06,0,0.13,0.02,0.19v1.26c-0.02,0.06-0.02,0.13-0.02,0.19c0,0.78,0.64,1.42,1.42,1.42
		S89.4,56.81,89.41,56.03C89.4,56.03,89.41,56.03,89.41,56.03z M63.22,65.08c0-1.33-1.08-2.41-2.41-2.41
		c-1.33,0-2.41,1.08-2.41,2.41c0,1.33,1.08,2.41,2.41,2.41C62.14,67.49,63.22,66.41,63.22,65.08z M57.1,65.08
		c0-1.33-1.08-2.41-2.41-2.41c-1.33,0-2.41,1.08-2.41,2.41c0,1.33,1.08,2.41,2.41,2.41C56.02,67.49,57.1,66.41,57.1,65.08z
		 M50.98,65.08c0-1.33-1.09-2.41-2.41-2.41c-1.33,0-2.41,1.08-2.41,2.41c0,1.33,1.08,2.41,2.41,2.41
		C49.89,67.49,50.98,66.41,50.98,65.08z M24.04,70.75c0-4.22-3.44-7.66-7.66-7.66s-7.65,3.44-7.65,7.66s3.43,7.65,7.65,7.65
		S24.04,74.97,24.04,70.75z"/>
	<line class="st9" x1="188.7" y1="65.08" x2="199.17" y2="65.08"/>
	<line class="st9" x1="119.03" y1="65.08" x2="44.4" y2="65.08"/>
	<line class="st9" x1="141.55" y1="65.08" x2="125.2" y2="65.08"/>
	<line class="st9" x1="189.4" y1="60.81" x2="189.4" y2="69.75"/>
	<line class="st9" x1="195.52" y1="60.53" x2="195.52" y2="68.71"/>
	<line class="st9" x1="128.17" y1="61.75" x2="128.17" y2="65.08"/>
	<line class="st9" x1="134.29" y1="61.96" x2="134.29" y2="65.08"/>
	<line class="st9" x1="140.41" y1="61.14" x2="140.41" y2="65.49"/>
	<line class="st9" x1="115.92" y1="61.58" x2="115.92" y2="65.08"/>
	<line class="st9" x1="109.8" y1="61.18" x2="109.8" y2="65.63"/>
	<line class="st9" x1="103.68" y1="61.18" x2="103.68" y2="65.08"/>
	<line class="st9" x1="91.43" y1="61.47" x2="91.43" y2="65.08"/>
	<line class="st9" x1="85.31" y1="61.63" x2="85.31" y2="65.56"/>
	<line class="st9" x1="79.19" y1="60.83" x2="79.19" y2="64.48"/>
	<line class="st9" x1="73.06" y1="60.97" x2="73.06" y2="65.61"/>
	<line class="st9" x1="66.94" y1="61.42" x2="66.94" y2="65.94"/>
	<line class="st9" x1="60.82" y1="61.51" x2="60.82" y2="68.13"/>
	<line class="st9" x1="54.69" y1="60.01" x2="54.69" y2="68.83"/>
	<line class="st9" x1="48.57" y1="61.49" x2="48.57" y2="68.08"/>
	<line class="st9" x1="97.55" y1="60.64" x2="97.55" y2="65.37"/>
</g>
</svg>
