<?xml version="1.0" encoding="utf-8"?>
<!-- Generator: Adobe Illustrator 27.0.0, SVG Export Plug-In . SVG Version: 6.00 Build 0)  -->
<svg version="1.1" id="Calque_1" xmlns="http://www.w3.org/2000/svg" xmlns:xlink="http://www.w3.org/1999/xlink" x="0px" y="0px"
	 viewBox="0 0 243.18 106.64" style="enable-background:new 0 0 243.18 106.64;" xml:space="preserve">
<style type="text/css">
	.st0{fill:none;stroke:#000000;stroke-width:0.1;stroke-miterlimit:10;}
</style>
<path class="st0" d="M232.95,4.01H11.14c-3.72,0-6.73,3.02-6.73,6.73v92.88h235.27V10.74C239.68,7.02,236.66,4.01,232.95,4.01z"/>
<g>
	<circle cx="114.36" cy="28.17" r="0.43"/>
	<circle cx="114.36" cy="25.17" r="0.43"/>
	<circle cx="114.36" cy="22.17" r="0.43"/>
	<circle cx="111.36" cy="28.17" r="0.43"/>
	<circle cx="111.36" cy="25.17" r="0.43"/>
	<circle cx="111.36" cy="22.17" r="0.43"/>
	<circle cx="117.36" cy="28.17" r="0.43"/>
	<circle cx="117.36" cy="25.17" r="0.43"/>
	<circle cx="117.36" cy="22.17" r="0.43"/>
	<circle cx="220.8" cy="42" r="1.42"/>
	<circle cx="220.8" cy="19.46" r="1.42"/>
	<circle cx="101.77" cy="22.55" r="0.28"/>
	<circle cx="126.34" cy="28.01" r="0.28"/>
	<circle cx="127.18" cy="29.14" r="0.28"/>
	<circle cx="126.34" cy="30.27" r="0.28"/>
	<circle cx="127.18" cy="31.41" r="0.28"/>
	<circle cx="126.34" cy="32.54" r="0.28"/>
	<circle cx="121.73" cy="38" r="0.28"/>
	<circle cx="120.59" cy="37.15" r="0.28"/>
	<circle cx="119.46" cy="38" r="0.28"/>
	<circle cx="118.32" cy="37.15" r="0.28"/>
	<circle cx="91.64" cy="33.3" r="0.28"/>
	<circle cx="92.64" cy="33.3" r="0.28"/>
	<circle cx="95.33" cy="37.55" r="0.28"/>
	<circle cx="94.88" cy="40.94" r="0.28"/>
	<circle cx="98.53" cy="25.33" r="0.28"/>
	<circle cx="98.53" cy="22.33" r="0.28"/>
	<circle cx="98.53" cy="19.33" r="0.28"/>
	<circle cx="98.53" cy="16.33" r="0.28"/>
	<circle cx="95.43" cy="10.33" r="0.28"/>
	<circle cx="94.71" cy="29.04" r="0.28"/>
	<circle cx="93.71" cy="29.04" r="0.28"/>
	<circle cx="114.92" cy="37.79" r="0.28"/>
	<circle cx="116.06" cy="37.16" r="0.28"/>
	<circle cx="112.65" cy="37.8" r="0.28"/>
	<circle cx="113.79" cy="37.16" r="0.28"/>
	<circle cx="110.39" cy="37.79" r="0.28"/>
	<circle cx="111.52" cy="37.16" r="0.28"/>
	<circle cx="108.12" cy="37.16" r="0.28"/>
	<circle cx="170.72" cy="42.61" r="0.43"/>
	<circle cx="172.56" cy="43.91" r="0.43"/>
	<circle cx="174.4" cy="42.61" r="0.43"/>
	<circle cx="185.46" cy="43.91" r="0.43"/>
	<circle cx="187.1" cy="57.18" r="0.43"/>
	<circle cx="183.9" cy="57.18" r="0.43"/>
	<circle cx="180.68" cy="57.18" r="0.43"/>
	<circle cx="177.47" cy="52.54" r="0.43"/>
	<circle cx="177.47" cy="57.18" r="0.43"/>
	<circle cx="174.26" cy="52.54" r="0.43"/>
	<circle cx="174.26" cy="57.18" r="0.43"/>
	<circle cx="171.05" cy="52.54" r="0.43"/>
	<circle cx="171.05" cy="57.18" r="0.43"/>
	<circle cx="167.83" cy="52.54" r="0.43"/>
	<circle cx="167.83" cy="57.18" r="0.43"/>
	<circle cx="164.62" cy="52.54" r="0.43"/>
	<circle cx="164.62" cy="57.18" r="0.43"/>
	<circle cx="161.41" cy="52.54" r="0.43"/>
	<circle cx="161.41" cy="57.18" r="0.43"/>
	<circle cx="158.2" cy="52.54" r="0.43"/>
	<circle cx="158.2" cy="57.18" r="0.43"/>
	<circle cx="154.98" cy="52.54" r="0.43"/>
	<circle cx="145.34" cy="57.18" r="0.43"/>
	<circle cx="142.13" cy="52.54" r="0.43"/>
	<circle cx="142.13" cy="57.18" r="0.43"/>
	<circle cx="138.92" cy="52.54" r="0.43"/>
	<circle cx="138.92" cy="57.18" r="0.43"/>
	<circle cx="135.71" cy="52.54" r="0.43"/>
	<circle cx="135.71" cy="57.18" r="0.43"/>
	<circle cx="132.49" cy="52.54" r="0.43"/>
	<circle cx="132.49" cy="57.18" r="0.43"/>
	<circle cx="154.98" cy="57.18" r="0.43"/>
	<circle cx="160.76" cy="40.27" r="0.43"/>
	<circle cx="138.5" cy="21.7" r="0.85"/>
	<circle cx="154.88" cy="21.7" r="0.85"/>
	<path d="M157.98,21.63c0,0.04,0,3.08,0.01,3.12c0.06,0.45,0.45,0.79,0.91,0.79s0.85-0.34,0.91-0.79c0.01-0.04,0.01-3.08,0.01-3.13
		c0-0.51-0.41-0.92-0.92-0.92C158.4,20.71,157.98,21.12,157.98,21.63z"/>
	<path d="M157.98,10.22c0,0.04,0,2.25,0.01,2.29c0.06,0.45,0.45,0.79,0.91,0.79s0.85-0.34,0.91-0.79c0.01-0.04,0.01-2.25,0.01-2.3
		c0-0.51-0.41-0.92-0.92-0.92C158.4,9.29,157.98,9.71,157.98,10.22z"/>
	<path d="M133.49,21.63c0,0.04,0,3.08,0.01,3.12c0.06,0.45,0.45,0.79,0.91,0.79s0.85-0.34,0.91-0.79c0.01-0.04,0.01-3.08,0.01-3.13
		c0-0.51-0.41-0.92-0.92-0.92C133.9,20.71,133.49,21.12,133.49,21.63z"/>
	<path d="M133.49,10.22c0,0.04,0,2.25,0.01,2.29c0.06,0.45,0.45,0.79,0.91,0.79s0.85-0.34,0.91-0.79c0.01-0.04,0.01-2.25,0.01-2.3
		c0-0.51-0.41-0.92-0.92-0.92C133.9,9.29,133.49,9.71,133.49,10.22z"/>
	<circle cx="140.5" cy="21.7" r="0.43"/>
	<circle cx="152.88" cy="21.7" r="0.43"/>
	<circle cx="140.5" cy="20.43" r="0.43"/>
	<circle cx="152.88" cy="20.43" r="0.43"/>
	<circle cx="180.68" cy="52.54" r="0.43"/>
	<circle cx="110.79" cy="50.63" r="0.43"/>
	<circle cx="187.85" cy="37.32" r="0.43"/>
	<circle cx="193.85" cy="37.32" r="0.43"/>
	<circle cx="193.85" cy="31.09" r="0.43"/>
	<circle cx="187.85" cy="31.09" r="0.43"/>
	<circle cx="151.77" cy="57.18" r="0.43"/>
	<circle cx="151.77" cy="52.54" r="0.43"/>
	<circle cx="148.56" cy="52.54" r="0.43"/>
	<circle cx="185.46" cy="34.04" r="0.43"/>
	<circle cx="183.62" cy="35.04" r="0.43"/>
	<circle cx="181.77" cy="36.04" r="0.43"/>
	<circle cx="179.93" cy="37.04" r="0.43"/>
	<circle cx="178.09" cy="38.04" r="0.43"/>
	<circle cx="176.25" cy="39.04" r="0.43"/>
	<circle cx="174.4" cy="40.04" r="0.43"/>
	<circle cx="172.56" cy="41.04" r="0.43"/>
	<circle cx="110.79" cy="47.65" r="0.43"/>
	<circle cx="129.22" cy="51.61" r="0.43"/>
	<circle cx="129.22" cy="49.91" r="0.43"/>
	<circle cx="162.57" cy="39.07" r="0.43"/>
	<circle cx="167.32" cy="34.29" r="0.43"/>
	<circle cx="187.85" cy="34.2" r="0.43"/>
	<circle cx="194.56" cy="28.68" r="0.43"/>
	<circle cx="194.57" cy="24.13" r="0.43"/>
	<circle cx="194.55" cy="21.73" r="0.43"/>
	<circle cx="194.55" cy="40.44" r="0.43"/>
	<circle cx="194.55" cy="43.56" r="0.43"/>
	<circle cx="101.77" cy="20.99" r="0.28"/>
	<circle cx="125.4" cy="10.33" r="0.28"/>
	<circle cx="125.4" cy="7.33" r="0.28"/>
	<circle cx="109.25" cy="13.19" r="0.28"/>
	<circle cx="110.39" cy="12.35" r="0.28"/>
	<circle cx="111.52" cy="13.19" r="0.28"/>
	<circle cx="115.5" cy="13.19" r="0.28"/>
	<circle cx="108.12" cy="38.6" r="0.28"/>
	<circle cx="101.57" cy="12.29" r="0.28"/>
	<circle cx="91.78" cy="37.55" r="0.28"/>
	<circle cx="119.46" cy="13.19" r="0.28"/>
	<circle cx="120.59" cy="12.19" r="0.28"/>
	<circle cx="118.32" cy="12.35" r="0.28"/>
	<circle cx="121.73" cy="13.19" r="0.28"/>
	<circle cx="127.18" cy="18.93" r="0.28"/>
	<circle cx="127.18" cy="21.2" r="0.28"/>
	<circle cx="126.34" cy="22.34" r="0.28"/>
	<circle cx="126.34" cy="20.06" r="0.28"/>
	<circle cx="147.98" cy="17.74" r="0.43"/>
	<circle cx="149.98" cy="17.02" r="0.43"/>
	<circle cx="152.03" cy="16.34" r="0.43"/>
	<circle cx="154.75" cy="15.65" r="0.43"/>
	<circle cx="141.95" cy="34.04" r="0.43"/>
	<circle cx="136.43" cy="34.04" r="0.43"/>
	<circle cx="145.63" cy="36.2" r="0.43"/>
	<circle cx="147.47" cy="39.07" r="0.43"/>
	<circle cx="134.57" cy="38.34" r="0.43"/>
	<circle cx="153.39" cy="37.66" r="0.43"/>
	<circle cx="145.63" cy="34.04" r="0.43"/>
	<circle cx="158.92" cy="34.04" r="0.43"/>
	<circle cx="153.39" cy="34.04" r="0.43"/>
	<circle cx="194.26" cy="55.26" r="0.43"/>
	<circle cx="202.69" cy="52.17" r="0.43"/>
	<circle cx="216.97" cy="54.78" r="0.43"/>
	<circle cx="224.75" cy="53.51" r="0.43"/>
	<circle cx="181.03" cy="17.29" r="0.43"/>
	<circle cx="167.84" cy="16.54" r="0.43"/>
	<circle cx="167.84" cy="21.82" r="0.43"/>
	<circle cx="132.73" cy="34.04" r="0.43"/>
	<circle cx="113.14" cy="46.95" r="0.43"/>
	<circle cx="165.84" cy="7.59" r="0.43"/>
	<circle cx="98.53" cy="7.33" r="0.28"/>
	<circle cx="109.96" cy="7.33" r="0.28"/>
	<circle cx="115.96" cy="7.33" r="0.28"/>
	<circle cx="115.96" cy="10.33" r="0.28"/>
	<circle cx="119.41" cy="7.33" r="0.28"/>
	<circle cx="129.19" cy="24.31" r="0.28"/>
	<circle cx="98.24" cy="56.03" r="0.43"/>
	<circle cx="93.7" cy="54.4" r="0.43"/>
	<circle cx="93.7" cy="52.76" r="0.43"/>
	<circle cx="98.24" cy="54.4" r="0.43"/>
	<circle cx="98.24" cy="52.76" r="0.43"/>
	<circle cx="93.7" cy="56.03" r="0.43"/>
	<circle cx="88" cy="51.07" r="0.43"/>
	<circle cx="87.98" cy="54.4" r="0.43"/>
	<circle cx="87.98" cy="52.76" r="0.43"/>
	<circle cx="88" cy="49.43" r="0.43"/>
	<circle cx="88" cy="47.8" r="0.43"/>
	<circle cx="87.98" cy="56.03" r="0.43"/>
	<circle cx="88" cy="44.53" r="0.43"/>
	<circle cx="88" cy="46.16" r="0.43"/>
	<circle cx="109.96" cy="10.33" r="0.28"/>
	<circle cx="103.97" cy="10.33" r="0.28"/>
	<circle cx="103.97" cy="7.33" r="0.28"/>
	<circle cx="236.99" cy="91.03" r="0.43"/>
	<circle cx="236.99" cy="81.03" r="0.43"/>
	<circle cx="136.29" cy="6.55" r="0.43"/>
	<circle cx="146.29" cy="6.55" r="0.43"/>
	<circle cx="156.29" cy="6.55" r="0.43"/>
	<circle cx="187.99" cy="6.55" r="0.43"/>
	<circle cx="197.99" cy="6.55" r="0.43"/>
	<circle cx="207.99" cy="6.55" r="0.43"/>
	<circle cx="227.99" cy="6.55" r="0.43"/>
	<circle cx="87.98" cy="39.61" r="0.43"/>
	<circle cx="87.98" cy="23.07" r="0.43"/>
	<circle cx="87.98" cy="12.64" r="0.43"/>
	<circle cx="93.8" cy="6.55" r="0.43"/>
	<circle cx="236.99" cy="41.61" r="0.43"/>
	<circle cx="236.99" cy="31.6" r="0.43"/>
	<circle cx="236.99" cy="21.6" r="0.43"/>
	<circle cx="93.7" cy="14.4" r="0.43"/>
	<circle cx="103.98" cy="35.16" r="0.43"/>
	<circle cx="126.45" cy="15.82" r="0.43"/>
	<circle cx="113.98" cy="51.25" r="0.43"/>
	<circle cx="113.98" cy="57.54" r="0.43"/>
	<circle cx="176.25" cy="12.7" r="0.43"/>
	<circle cx="170.72" cy="12.7" r="0.43"/>
	<circle cx="176.25" cy="22.58" r="0.43"/>
	<circle cx="179.93" cy="22.58" r="0.43"/>
	<circle cx="166.69" cy="46.93" r="0.43"/>
	<circle cx="164.02" cy="23.29" r="0.28"/>
	<path d="M164.02,9.5c0.16,0,0.28,0.13,0.28,0.28c0,0.16-0.13,0.28-0.28,0.28s-0.28-0.13-0.28-0.28S163.86,9.5,164.02,9.5z"/>
	<circle cx="170.68" cy="21.82" r="0.43"/>
	<circle cx="155.31" cy="38.88" r="0.43"/>
	<circle cx="147.89" cy="36.2" r="0.43"/>
	<circle cx="158.92" cy="36.47" r="0.43"/>
	<circle cx="127.37" cy="25.66" r="0.28"/>
	<circle cx="101.7" cy="37.55" r="0.43"/>
	<path d="M231.22,71.88c-0.05,0-7.15,0-7.2-0.01c-0.55-0.08-0.98-0.55-0.98-1.12s0.42-1.04,0.97-1.12c0.05-0.01,7.15-0.01,7.21-0.01
		c0.63,0,1.13,0.51,1.13,1.13C232.36,71.37,231.85,71.88,231.22,71.88z"/>
	<path d="M19.91,71.88c-0.05,0-7.15,0-7.2-0.01c-0.55-0.08-0.98-0.55-0.98-1.12s0.42-1.04,0.97-1.12c0.05-0.01,7.15-0.01,7.21-0.01
		c0.63,0,1.13,0.51,1.13,1.13C21.04,71.37,20.54,71.88,19.91,71.88z"/>
	<circle cx="236.99" cy="101.03" r="0.43"/>
	<circle cx="236.99" cy="61.03" r="0.43"/>
	<circle cx="226.99" cy="101.03" r="0.43"/>
	<circle cx="216.99" cy="101.03" r="0.43"/>
	<circle cx="206.99" cy="101.03" r="0.43"/>
	<circle cx="196.99" cy="101.03" r="0.43"/>
	<circle cx="186.99" cy="101.03" r="0.43"/>
	<circle cx="176.99" cy="101.03" r="0.43"/>
	<circle cx="166.99" cy="101.03" r="0.43"/>
	<circle cx="156.99" cy="101.03" r="0.43"/>
	<circle cx="146.99" cy="101.03" r="0.43"/>
	<circle cx="136.99" cy="101.03" r="0.43"/>
	<circle cx="126.99" cy="101.03" r="0.43"/>
	<circle cx="116.99" cy="101.03" r="0.43"/>
	<circle cx="106.99" cy="101.03" r="0.43"/>
	<circle cx="6.96" cy="101.03" r="0.43"/>
	<circle cx="36.98" cy="101.03" r="0.43"/>
	<circle cx="26.98" cy="101.03" r="0.43"/>
	<circle cx="16.98" cy="101.03" r="0.43"/>
	<circle cx="76.98" cy="101.03" r="0.43"/>
	<circle cx="66.98" cy="101.03" r="0.43"/>
	<circle cx="56.98" cy="101.03" r="0.43"/>
	<circle cx="46.98" cy="101.03" r="0.43"/>
	<circle cx="96.98" cy="101.03" r="0.43"/>
	<circle cx="86.98" cy="101.03" r="0.43"/>
	<circle cx="6.96" cy="81.03" r="0.43"/>
	<circle cx="6.96" cy="91.03" r="0.43"/>
	<circle cx="6.96" cy="62.65" r="0.43"/>
	<circle cx="183.9" cy="52.54" r="0.43"/>
	<circle cx="187.11" cy="52.54" r="0.43"/>
	<circle cx="159.81" cy="58.72" r="0.43"/>
	<circle cx="156.58" cy="58.69" r="0.43"/>
	<circle cx="147.74" cy="58.69" r="0.43"/>
	<path d="M231.22,71.88c-0.05,0-7.15,0-7.2-0.01c-0.55-0.08-0.98-0.55-0.98-1.12s0.42-1.04,0.97-1.12c0.05-0.01,7.15-0.01,7.21-0.01
		c0.63,0,1.13,0.51,1.13,1.13C232.36,71.37,231.85,71.88,231.22,71.88z"/>
	<path d="M12.87,71.88c0.05,0,7.15,0,7.2-0.01c0.55-0.08,0.98-0.55,0.98-1.12s-0.42-1.04-0.97-1.12c-0.05-0.01-7.15-0.01-7.21-0.01
		c-0.63,0-1.13,0.51-1.13,1.13C11.73,71.37,12.24,71.88,12.87,71.88z"/>
	<circle cx="189.4" cy="65.08" r="1.13"/>
	<circle cx="195.52" cy="65.08" r="1.13"/>
	<circle cx="189.4" cy="76.42" r="1.13"/>
	<circle cx="195.52" cy="76.42" r="1.13"/>
	<circle cx="177.15" cy="65.08" r="1.13"/>
	<circle cx="183.27" cy="65.08" r="1.13"/>
	<circle cx="177.15" cy="76.42" r="1.13"/>
	<circle cx="183.27" cy="76.42" r="1.13"/>
	<circle cx="164.9" cy="65.08" r="1.13"/>
	<circle cx="171.03" cy="65.08" r="1.13"/>
	<circle cx="164.9" cy="76.42" r="1.13"/>
	<circle cx="171.03" cy="76.42" r="1.13"/>
	<circle cx="152.66" cy="65.08" r="1.13"/>
	<circle cx="158.78" cy="65.08" r="1.13"/>
	<circle cx="152.66" cy="76.42" r="1.13"/>
	<circle cx="158.78" cy="76.42" r="1.13"/>
	<circle cx="140.41" cy="65.08" r="1.13"/>
	<circle cx="146.54" cy="65.08" r="1.13"/>
	<circle cx="140.41" cy="76.42" r="1.13"/>
	<circle cx="146.54" cy="76.42" r="1.13"/>
	<circle cx="128.17" cy="65.08" r="1.13"/>
	<circle cx="134.29" cy="65.08" r="1.13"/>
	<circle cx="128.17" cy="76.42" r="1.13"/>
	<circle cx="134.29" cy="76.42" r="1.13"/>
	<circle cx="115.92" cy="65.08" r="1.13"/>
	<circle cx="122.04" cy="65.08" r="1.13"/>
	<circle cx="115.92" cy="76.42" r="1.13"/>
	<circle cx="122.04" cy="76.42" r="1.13"/>
	<circle cx="103.68" cy="65.08" r="1.13"/>
	<circle cx="109.8" cy="65.08" r="1.13"/>
	<circle cx="103.68" cy="76.42" r="1.13"/>
	<circle cx="109.8" cy="76.42" r="1.13"/>
	<circle cx="91.43" cy="65.08" r="1.13"/>
	<circle cx="97.55" cy="65.08" r="1.13"/>
	<circle cx="91.43" cy="76.42" r="1.13"/>
	<circle cx="97.55" cy="76.42" r="1.13"/>
	<circle cx="79.19" cy="65.08" r="1.13"/>
	<circle cx="85.31" cy="65.08" r="1.13"/>
	<circle cx="79.19" cy="76.42" r="1.13"/>
	<circle cx="85.31" cy="76.42" r="1.13"/>
	<circle cx="66.94" cy="65.08" r="1.13"/>
	<circle cx="73.06" cy="65.08" r="1.13"/>
	<circle cx="66.94" cy="76.42" r="1.13"/>
	<circle cx="73.06" cy="76.42" r="1.13"/>
	<circle cx="54.69" cy="65.08" r="1.13"/>
	<circle cx="60.82" cy="65.08" r="1.13"/>
	<circle cx="54.69" cy="76.42" r="1.13"/>
	<circle cx="60.82" cy="76.42" r="1.13"/>
	<circle cx="48.57" cy="65.08" r="1.13"/>
	<circle cx="48.57" cy="76.42" r="1.13"/>
</g>
</svg>
