<?xml version="1.0" encoding="utf-8"?>
<!-- Generator: Adobe Illustrator 27.0.0, SVG Export Plug-In . SVG Version: 6.00 Build 0)  -->
<svg version="1.1" id="Calque_1" xmlns="http://www.w3.org/2000/svg" xmlns:xlink="http://www.w3.org/1999/xlink" x="0px" y="0px"
	 viewBox="0 0 243.18 106.64" style="enable-background:new 0 0 243.18 106.64;" xml:space="preserve">
<style type="text/css">
	.st0{fill:none;stroke:#000000;stroke-width:0.1;stroke-miterlimit:10;}
	.st1{fill:none;stroke:#000000;stroke-width:1.7;stroke-linecap:round;stroke-linejoin:round;}
	.st2{fill:none;stroke:#000000;stroke-linecap:round;stroke-linejoin:round;}
	.st3{fill:none;stroke:#000000;stroke-width:1.7;}
	.st4{fill:none;stroke:#000000;stroke-width:0.98;}
	.st5{fill:none;stroke:#000000;stroke-width:0.36;}
</style>
<path class="st0" d="M232.95,4.01H11.14c-3.72,0-6.73,3.02-6.73,6.73v92.88h235.27V10.74C239.68,7.02,236.66,4.01,232.95,4.01z"/>
<g>
	<polyline class="st1" points="129.22,51.61 129.22,34.57 140.53,23.25 152.88,23.25 152.88,20.43 	"/>
	<line class="st1" x1="140.5" y1="20.43" x2="140.5" y2="23.25"/>
	<polyline class="st2" points="98.53,19.33 100.12,20.92 100.12,25.18 107.6,32.67 121.27,32.67 121.89,32.05 121.89,27.98 
		125.56,24.31 129.19,24.31 	"/>
	<path d="M120.61,18.64c0.16,0,0.28,0.13,0.28,0.28v12.5c0,0.16-0.13,0.28-0.28,0.28h-12.5c-0.16,0-0.28-0.13-0.28-0.28v-12.5
		c0-0.16,0.13-0.28,0.28-0.28H120.61z"/>
	<line class="st2" x1="98.53" y1="25.33" x2="100.12" y2="25.33"/>
	<circle cx="179.93" cy="22.58" r="0.85"/>
	<circle cx="176.25" cy="22.58" r="0.85"/>
	<circle cx="176.25" cy="12.7" r="0.85"/>
	<circle cx="170.72" cy="12.7" r="0.85"/>
	<circle cx="187.99" cy="6.55" r="0.85"/>
	<circle cx="197.99" cy="6.55" r="0.85"/>
	<circle cx="207.99" cy="6.55" r="0.85"/>
	<circle cx="227.99" cy="6.55" r="0.85"/>
	<circle cx="236.99" cy="21.6" r="0.85"/>
	<circle cx="236.99" cy="31.6" r="0.85"/>
	<circle cx="236.99" cy="41.61" r="0.85"/>
	<circle cx="236.99" cy="81.03" r="0.85"/>
	<circle cx="236.99" cy="91.03" r="0.85"/>
	<circle cx="93.7" cy="52.76" r="0.85"/>
	<circle cx="93.7" cy="54.4" r="0.85"/>
	<circle cx="93.7" cy="56.03" r="0.85"/>
	<circle cx="98.24" cy="52.76" r="0.85"/>
	<circle cx="98.24" cy="54.4" r="0.85"/>
	<circle cx="98.24" cy="56.03" r="0.85"/>
	<circle cx="113.98" cy="51.25" r="0.85"/>
	<circle cx="113.98" cy="57.54" r="0.85"/>
	<circle cx="103.98" cy="35.16" r="0.85"/>
	<circle cx="93.7" cy="14.4" r="0.85"/>
	<circle cx="87.98" cy="12.64" r="0.85"/>
	<circle cx="87.98" cy="23.07" r="0.85"/>
	<circle cx="87.98" cy="39.61" r="0.85"/>
	<circle cx="93.8" cy="6.55" r="0.85"/>
	<circle cx="126.45" cy="15.82" r="0.85"/>
	<circle cx="136.29" cy="6.55" r="0.85"/>
	<circle cx="146.29" cy="6.55" r="0.85"/>
	<circle cx="156.29" cy="6.55" r="0.85"/>
	<circle cx="158.92" cy="36.47" r="0.85"/>
	<circle cx="166.69" cy="46.93" r="0.85"/>
	<circle cx="155.31" cy="38.88" r="0.85"/>
	<circle cx="147.89" cy="36.2" r="0.85"/>
	<circle cx="170.72" cy="42.61" r="0.85"/>
	<circle cx="172.56" cy="43.91" r="0.85"/>
	<circle cx="174.4" cy="42.61" r="0.85"/>
	<circle cx="185.46" cy="43.91" r="0.85"/>
	<circle cx="177.47" cy="52.54" r="0.85"/>
	<circle cx="174.26" cy="52.54" r="0.85"/>
	<circle cx="171.05" cy="52.54" r="0.85"/>
	<circle cx="167.83" cy="52.54" r="0.85"/>
	<circle cx="164.62" cy="52.54" r="0.85"/>
	<circle cx="161.41" cy="52.54" r="0.85"/>
	<circle cx="158.2" cy="52.54" r="0.85"/>
	<circle cx="154.98" cy="52.54" r="0.85"/>
	<circle cx="142.13" cy="52.54" r="0.85"/>
	<circle cx="138.92" cy="52.54" r="0.85"/>
	<circle cx="135.71" cy="52.54" r="0.85"/>
	<circle cx="132.49" cy="52.54" r="0.85"/>
	<circle cx="154.98" cy="57.18" r="0.85"/>
	<circle cx="160.76" cy="40.27" r="0.85"/>
	<circle cx="140.5" cy="21.7" r="0.85"/>
	<circle cx="152.88" cy="21.7" r="0.85"/>
	<circle cx="140.5" cy="20.43" r="0.85"/>
	<circle cx="152.88" cy="20.43" r="0.85"/>
	<circle cx="180.68" cy="52.54" r="0.85"/>
	<circle cx="110.79" cy="50.63" r="0.85"/>
	<circle cx="187.85" cy="37.32" r="0.85"/>
	<circle cx="193.85" cy="37.32" r="0.85"/>
	<circle cx="151.77" cy="52.54" r="0.85"/>
	<circle cx="148.56" cy="52.54" r="0.85"/>
	<circle cx="185.46" cy="34.04" r="0.85"/>
	<circle cx="183.62" cy="35.04" r="0.85"/>
	<circle cx="181.77" cy="36.04" r="0.85"/>
	<circle cx="179.93" cy="37.04" r="0.85"/>
	<circle cx="178.09" cy="38.04" r="0.85"/>
	<circle cx="176.25" cy="39.04" r="0.85"/>
	<circle cx="174.4" cy="40.04" r="0.85"/>
	<circle cx="172.56" cy="41.04" r="0.85"/>
	<circle cx="110.79" cy="47.65" r="0.85"/>
	<circle cx="129.22" cy="51.61" r="0.85"/>
	<circle cx="129.22" cy="49.91" r="0.85"/>
	<circle cx="162.57" cy="39.07" r="0.85"/>
	<circle cx="167.32" cy="34.29" r="0.85"/>
	<circle cx="187.85" cy="34.2" r="0.85"/>
	<circle cx="194.56" cy="28.68" r="0.85"/>
	<circle cx="194.57" cy="24.13" r="0.85"/>
	<circle cx="194.55" cy="21.73" r="0.85"/>
	<circle cx="194.55" cy="40.44" r="0.85"/>
	<circle cx="194.55" cy="43.56" r="0.85"/>
	<circle cx="101.77" cy="22.55" r="0.5"/>
	<circle cx="126.34" cy="28.01" r="0.5"/>
	<circle cx="127.18" cy="29.14" r="0.5"/>
	<circle cx="126.34" cy="30.27" r="0.5"/>
	<circle cx="127.18" cy="31.41" r="0.5"/>
	<circle cx="126.34" cy="32.54" r="0.5"/>
	<circle cx="121.73" cy="38" r="0.5"/>
	<circle cx="120.59" cy="37.15" r="0.5"/>
	<circle cx="119.46" cy="38" r="0.5"/>
	<circle cx="118.32" cy="37.15" r="0.5"/>
	<circle cx="91.64" cy="33.3" r="0.5"/>
	<circle cx="92.64" cy="33.3" r="0.5"/>
	<circle cx="95.33" cy="37.55" r="0.5"/>
	<circle cx="94.88" cy="40.94" r="0.5"/>
	<circle cx="98.53" cy="25.33" r="0.5"/>
	<circle cx="98.53" cy="19.33" r="0.5"/>
	<circle cx="114.92" cy="37.79" r="0.5"/>
	<circle cx="116.06" cy="37.16" r="0.5"/>
	<circle cx="112.65" cy="37.8" r="0.5"/>
	<circle cx="113.79" cy="37.16" r="0.5"/>
	<circle cx="110.39" cy="37.79" r="0.5"/>
	<circle cx="111.52" cy="37.16" r="0.5"/>
	<circle cx="108.12" cy="37.16" r="0.5"/>
	<path d="M157.14,21.66c0,0.09,0.01,3.11,0.02,3.19c0.12,0.86,0.85,1.52,1.74,1.52s1.62-0.65,1.75-1.5c0.01-0.09,0.02-3.11,0.02-3.2
		c0-0.97-0.79-1.76-1.77-1.76C157.93,19.9,157.14,20.69,157.14,21.66z"/>
	<path d="M157.14,10.24c0,0.09,0.01,2.27,0.02,2.35c0.12,0.86,0.85,1.52,1.74,1.52s1.62-0.65,1.75-1.5
		c0.01-0.09,0.02-2.28,0.02-2.37c0-0.97-0.79-1.76-1.77-1.76C157.93,8.48,157.14,9.27,157.14,10.24z"/>
	<path d="M132.65,21.66c0,0.09,0.01,3.11,0.02,3.19c0.12,0.86,0.85,1.52,1.74,1.52s1.62-0.65,1.75-1.5c0.01-0.09,0.02-3.11,0.02-3.2
		c0-0.97-0.79-1.76-1.77-1.76C133.44,19.9,132.65,20.69,132.65,21.66z"/>
	<path d="M132.65,10.24c0,0.09,0.01,2.27,0.02,2.35c0.12,0.86,0.85,1.52,1.74,1.52s1.62-0.65,1.75-1.5
		c0.01-0.09,0.02-2.28,0.02-2.37c0-0.97-0.79-1.76-1.77-1.76C133.44,8.48,132.65,9.27,132.65,10.24z"/>
	<circle cx="101.77" cy="20.99" r="0.5"/>
	<circle cx="125.4" cy="10.33" r="0.5"/>
	<circle cx="125.4" cy="7.33" r="0.5"/>
	<circle cx="109.25" cy="13.19" r="0.5"/>
	<circle cx="110.39" cy="12.35" r="0.5"/>
	<circle cx="111.52" cy="13.19" r="0.5"/>
	<circle cx="115.5" cy="13.19" r="0.5"/>
	<circle cx="108.12" cy="38.6" r="0.5"/>
	<circle cx="101.57" cy="12.29" r="0.5"/>
	<circle cx="91.78" cy="37.55" r="0.5"/>
	<circle cx="119.46" cy="13.19" r="0.5"/>
	<circle cx="120.59" cy="12.19" r="0.5"/>
	<circle cx="118.32" cy="12.35" r="0.5"/>
	<circle cx="121.73" cy="13.19" r="0.5"/>
	<path d="M127.18,19.43c-0.27,0-0.5-0.22-0.5-0.5c0-0.27,0.22-0.5,0.5-0.5c0.27,0,0.5,0.22,0.5,0.5
		C127.68,19.21,127.46,19.43,127.18,19.43"/>
	<circle cx="127.18" cy="21.2" r="0.5"/>
	<circle cx="126.34" cy="22.34" r="0.5"/>
	<path d="M126.34,20.55c-0.27,0-0.5-0.22-0.5-0.5s0.22-0.5,0.5-0.5c0.27,0,0.5,0.22,0.5,0.5S126.61,20.55,126.34,20.55"/>
	<circle cx="147.98" cy="17.74" r="0.85"/>
	<circle cx="149.98" cy="17.02" r="0.85"/>
	<circle cx="152.03" cy="16.34" r="0.85"/>
	<circle cx="154.75" cy="15.65" r="0.85"/>
	<circle cx="141.95" cy="34.04" r="0.85"/>
	<circle cx="136.43" cy="34.04" r="0.85"/>
	<circle cx="145.63" cy="36.2" r="0.85"/>
	<circle cx="147.47" cy="39.07" r="0.85"/>
	<circle cx="134.57" cy="38.34" r="0.85"/>
	<circle cx="153.39" cy="37.66" r="0.85"/>
	<circle cx="145.63" cy="34.04" r="0.85"/>
	<circle cx="158.92" cy="34.04" r="0.85"/>
	<circle cx="109.96" cy="7.33" r="0.5"/>
	<circle cx="119.41" cy="7.33" r="0.5"/>
	<circle cx="129.19" cy="24.31" r="0.5"/>
	<circle cx="109.96" cy="10.33" r="0.5"/>
	<circle cx="164.02" cy="23.29" r="0.5"/>
	<path d="M164.02,9.29c0.27,0,0.5,0.22,0.5,0.5c0,0.27-0.22,0.5-0.5,0.5s-0.5-0.22-0.5-0.5S163.74,9.29,164.02,9.29z"/>
	<circle cx="170.68" cy="21.82" r="0.85"/>
	<circle cx="127.37" cy="25.66" r="0.5"/>
	<line class="st3" x1="98.24" y1="52.76" x2="98.24" y2="56.03"/>
	<line class="st3" x1="93.7" y1="52.76" x2="93.7" y2="56.03"/>
	<line class="st4" x1="92.64" y1="33.3" x2="91.64" y2="33.3"/>
	<path class="st5" d="M142.22,52.4l2.32-2.32h43.65l2.27,2.27v7.87l-3.67,3.67v8.91l-3.19,3.19"/>
	<path class="st5" d="M136.14,52.95l1.26,1.26h2.46l0.69-0.69v-1.91l2.25-2.25h45.71l2.72,2.72V63l0.87,0.87v9.85l-2.71,2.71"/>
	<path class="st5" d="M138.95,52.54l0.83-0.83v-0.39l2.69-2.69h46.34l3.2,3.2v10.85l0.87,0.87v10.19l1.96,1.96"/>
	<polyline class="st5" points="132.21,52.23 134.88,54.9 142.27,54.9 146.37,50.8 187.87,50.8 189.71,52.64 189.71,59.88 
		186.11,63.47 186.02,72.46 184.71,73.78 173.76,73.78 170.7,76.84 	"/>
	<circle cx="236.99" cy="101.03" r="0.85"/>
	<circle cx="236.99" cy="61.03" r="0.85"/>
	<circle cx="226.99" cy="101.03" r="0.85"/>
	<circle cx="216.99" cy="101.03" r="0.85"/>
	<circle cx="206.99" cy="101.03" r="0.85"/>
	<circle cx="196.99" cy="101.03" r="0.85"/>
	<circle cx="186.99" cy="101.03" r="0.85"/>
	<circle cx="176.99" cy="101.03" r="0.85"/>
	<circle cx="166.99" cy="101.03" r="0.85"/>
	<circle cx="156.99" cy="101.03" r="0.85"/>
	<circle cx="146.99" cy="101.03" r="0.85"/>
	<circle cx="136.99" cy="101.03" r="0.85"/>
	<circle cx="126.99" cy="101.03" r="0.85"/>
	<circle cx="116.99" cy="101.03" r="0.85"/>
	<circle cx="106.99" cy="101.03" r="0.85"/>
	<circle cx="6.96" cy="101.03" r="0.85"/>
	<circle cx="36.98" cy="101.03" r="0.85"/>
	<circle cx="26.98" cy="101.03" r="0.85"/>
	<circle cx="16.98" cy="101.03" r="0.85"/>
	<circle cx="76.98" cy="101.03" r="0.85"/>
	<circle cx="66.98" cy="101.03" r="0.85"/>
	<circle cx="56.98" cy="101.03" r="0.85"/>
	<circle cx="46.98" cy="101.03" r="0.85"/>
	<circle cx="96.98" cy="101.03" r="0.85"/>
	<circle cx="86.98" cy="101.03" r="0.85"/>
	<circle cx="6.96" cy="81.03" r="0.85"/>
	<circle cx="6.96" cy="91.03" r="0.85"/>
	<circle cx="6.96" cy="62.65" r="0.85"/>
	<circle cx="183.9" cy="52.54" r="0.85"/>
	<circle cx="187.11" cy="52.54" r="0.85"/>
	<circle cx="142.13" cy="52.54" r="0.85"/>
	<circle cx="138.92" cy="52.54" r="0.85"/>
	<circle cx="135.71" cy="52.54" r="0.85"/>
	<circle cx="132.49" cy="52.54" r="0.85"/>
	<polyline class="st1" points="122.2,76.42 112.87,67.09 112.87,61.76 110.79,59.68 110.79,47.65 	"/>
	<circle cx="227.7" cy="70.75" r="7.09"/>
	<circle cx="16.39" cy="70.75" r="7.09"/>
	<circle cx="156.58" cy="58.69" r="0.85"/>
	<circle cx="159.81" cy="58.72" r="0.85"/>
	<circle cx="147.74" cy="58.69" r="0.85"/>
	<circle cx="189.4" cy="65.08" r="1.84"/>
	<circle cx="195.52" cy="65.08" r="1.84"/>
	<circle cx="189.4" cy="76.42" r="1.84"/>
	<circle cx="195.52" cy="76.42" r="1.84"/>
	<circle cx="177.15" cy="65.08" r="1.84"/>
	<circle cx="183.27" cy="65.08" r="1.84"/>
	<circle cx="177.15" cy="76.42" r="1.84"/>
	<circle cx="183.27" cy="76.42" r="1.84"/>
	<circle cx="164.9" cy="65.08" r="1.84"/>
	<circle cx="171.03" cy="65.08" r="1.84"/>
	<circle cx="164.9" cy="76.42" r="1.84"/>
	<circle cx="171.03" cy="76.42" r="1.84"/>
	<circle cx="152.66" cy="65.08" r="1.84"/>
	<circle cx="158.78" cy="65.08" r="1.84"/>
	<circle cx="152.66" cy="76.42" r="1.84"/>
	<circle cx="158.78" cy="76.42" r="1.84"/>
	<circle cx="140.41" cy="65.08" r="1.84"/>
	<circle cx="146.54" cy="65.08" r="1.84"/>
	<circle cx="140.41" cy="76.42" r="1.84"/>
	<circle cx="146.54" cy="76.42" r="1.84"/>
	<circle cx="128.17" cy="65.08" r="1.84"/>
	<circle cx="134.29" cy="65.08" r="1.84"/>
	<circle cx="128.17" cy="76.42" r="1.84"/>
	<circle cx="134.29" cy="76.42" r="1.84"/>
	<circle cx="122.04" cy="65.08" r="1.84"/>
	<circle cx="115.92" cy="76.42" r="1.84"/>
	<circle cx="122.04" cy="76.42" r="1.84"/>
	<circle cx="103.68" cy="65.08" r="1.84"/>
	<circle cx="103.68" cy="76.42" r="1.84"/>
	<circle cx="109.8" cy="76.42" r="1.84"/>
	<circle cx="91.43" cy="65.08" r="1.84"/>
	<circle cx="97.55" cy="65.08" r="1.84"/>
	<circle cx="91.43" cy="76.42" r="1.84"/>
	<circle cx="97.55" cy="76.42" r="1.84"/>
	<circle cx="79.19" cy="65.08" r="1.84"/>
	<circle cx="85.31" cy="65.08" r="1.84"/>
	<circle cx="79.19" cy="76.42" r="1.84"/>
	<circle cx="85.31" cy="76.42" r="1.84"/>
	<circle cx="66.94" cy="65.08" r="1.84"/>
	<circle cx="73.06" cy="65.08" r="1.84"/>
	<circle cx="66.94" cy="76.42" r="1.84"/>
	<circle cx="73.06" cy="76.42" r="1.84"/>
	<circle cx="54.69" cy="65.08" r="1.84"/>
	<circle cx="60.82" cy="65.08" r="1.84"/>
	<circle cx="54.69" cy="76.42" r="1.84"/>
	<circle cx="60.82" cy="76.42" r="1.84"/>
	<circle cx="48.57" cy="65.08" r="1.84"/>
	<circle cx="48.57" cy="76.42" r="1.84"/>
	<path d="M115.92,63.24c-0.61,0-1.14,0.3-1.48,0.75v2.18c0.34,0.45,0.87,0.75,1.48,0.75c1.02,0,1.84-0.82,1.84-1.84
		C117.76,64.07,116.94,63.24,115.92,63.24z"/>
	<path d="M109.8,63.24c-1.02,0-1.84,0.82-1.84,1.84s0.82,1.84,1.84,1.84c0.59,0,1.11-0.28,1.45-0.72v-2.25
		C110.91,63.52,110.39,63.24,109.8,63.24z"/>
	<path d="M194.55,41.86c0.78,0,1.42-0.64,1.42-1.42s-0.64-1.42-1.42-1.42s-1.42,0.64-1.42,1.42S193.77,41.86,194.55,41.86z
		 M194.55,42.14c-0.78,0-1.42,0.64-1.42,1.42s0.64,1.42,1.42,1.42s1.42-0.64,1.42-1.42S195.33,42.14,194.55,42.14z M187.85,35.62
		c0.78,0,1.41-0.63,1.41-1.42c0-0.78-0.63-1.41-1.41-1.41c-0.47,0-0.89,0.23-1.15,0.58c-0.23-0.45-0.7-0.75-1.24-0.75
		c-0.67,0-1.23,0.47-1.37,1.09c-0.14-0.06-0.3-0.09-0.47-0.09c-0.68,0-1.23,0.47-1.37,1.09c-0.15-0.06-0.31-0.09-0.48-0.09
		c-0.67,0-1.23,0.47-1.37,1.09c-0.14-0.06-0.3-0.09-0.47-0.09c-0.67,0-1.23,0.47-1.37,1.09c-0.14-0.06-0.3-0.09-0.47-0.09
		c-0.67,0-1.23,0.47-1.37,1.09c-0.14-0.06-0.3-0.09-0.47-0.09c-0.68,0-1.23,0.47-1.37,1.09c-0.15-0.06-0.31-0.09-0.48-0.09
		c-0.67,0-1.23,0.47-1.37,1.09c-0.14-0.06-0.3-0.09-0.47-0.09c-0.78,0-1.42,0.64-1.42,1.42c0,0.08,0.01,0.16,0.02,0.23
		c-0.14-0.05-0.28-0.08-0.44-0.08c-0.78,0-1.42,0.64-1.42,1.42s0.64,1.42,1.42,1.42c0.15,0,0.29-0.02,0.42-0.07
		c0.03,0.77,0.66,1.37,1.42,1.37s1.39-0.6,1.42-1.37c0.13,0.05,0.27,0.07,0.42,0.07c0.78,0,1.42-0.64,1.42-1.42
		c0-0.56-0.34-1.06-0.82-1.28c0.39-0.19,0.68-0.54,0.77-0.96c0.15,0.06,0.31,0.09,0.48,0.09c0.67,0,1.22-0.47,1.36-1.09
		c0.15,0.06,0.31,0.09,0.48,0.09c0.67,0,1.22-0.47,1.36-1.09c0.15,0.06,0.31,0.09,0.48,0.09c0.67,0,1.23-0.47,1.37-1.09
		c0.14,0.06,0.3,0.09,0.47,0.09c0.67,0,1.23-0.47,1.37-1.09c0.15,0.06,0.31,0.09,0.48,0.09c0.67,0,1.22-0.47,1.36-1.09
		c0.15,0.06,0.31,0.09,0.48,0.09c0.47,0,0.89-0.23,1.14-0.59C186.84,35.32,187.31,35.62,187.85,35.62z M187.85,35.9
		c-0.78,0-1.42,0.64-1.42,1.42s0.64,1.42,1.42,1.42s1.41-0.64,1.41-1.42S188.63,35.9,187.85,35.9z M154.98,58.6
		c0.07,0,0.13,0,0.2-0.02c-0.01,0.03-0.01,0.07-0.01,0.11c0,0.78,0.63,1.42,1.41,1.42s1.42-0.64,1.42-1.42s-0.64-1.42-1.42-1.42
		c-0.07,0-0.13,0-0.19,0.02c0.01-0.03,0.01-0.07,0.01-0.11c0-0.78-0.64-1.42-1.42-1.42s-1.42,0.64-1.42,1.42S154.2,58.6,154.98,58.6
		z M146.76,37.05c0.26,0.34,0.67,0.56,1.13,0.56c0.78,0,1.42-0.63,1.42-1.41s-0.64-1.42-1.42-1.42c-0.46,0-0.88,0.22-1.13,0.57
		c-0.06-0.09-0.14-0.17-0.22-0.23c0.31-0.25,0.51-0.65,0.51-1.08c0-0.78-0.64-1.42-1.42-1.42s-1.42,0.64-1.42,1.42
		c0,0.43,0.2,0.83,0.51,1.08c-0.31,0.25-0.51,0.65-0.51,1.08c0,0.78,0.64,1.41,1.42,1.41C146.09,37.61,146.5,37.39,146.76,37.05z
		 M147.47,37.66c-0.78,0-1.41,0.63-1.41,1.41s0.63,1.42,1.41,1.42s1.42-0.64,1.42-1.42S148.25,37.66,147.47,37.66z M132.49,53.96
		c0.12,0,0.23-0.01,0.34-0.05l1.74,1.74h8.01l4.09-4.1h0.88c-0.25,0.25-0.41,0.6-0.41,0.99c0,0.78,0.64,1.42,1.42,1.42
		s1.41-0.64,1.41-1.42c0-0.39-0.15-0.74-0.4-0.99h1.19c-0.25,0.25-0.41,0.6-0.41,0.99c0,0.78,0.64,1.42,1.42,1.42
		s1.42-0.64,1.42-1.42c0-0.39-0.16-0.74-0.41-0.99h1.19c-0.25,0.25-0.41,0.6-0.41,0.99c0,0.78,0.64,1.42,1.42,1.42
		s1.42-0.64,1.42-1.42c0-0.39-0.16-0.74-0.41-0.99h1.19c-0.25,0.25-0.4,0.6-0.4,0.99c0,0.78,0.63,1.42,1.41,1.42
		c0.79,0,1.42-0.64,1.42-1.42c0-0.39-0.15-0.74-0.4-0.99h1.19c-0.25,0.25-0.41,0.6-0.41,0.99c0,0.78,0.64,1.42,1.42,1.42
		s1.42-0.64,1.42-1.42c0-0.39-0.16-0.74-0.41-0.99h1.19c-0.25,0.25-0.41,0.6-0.41,0.99c0,0.78,0.64,1.42,1.42,1.42
		s1.42-0.64,1.42-1.42c0-0.39-0.16-0.74-0.41-0.99h1.19c-0.25,0.25-0.4,0.6-0.4,0.99c0,0.78,0.63,1.42,1.41,1.42
		s1.42-0.64,1.42-1.42c0-0.39-0.16-0.74-0.41-0.99h1.19c-0.25,0.25-0.4,0.6-0.4,0.99c0,0.78,0.63,1.42,1.42,1.42
		c0.78,0,1.41-0.64,1.41-1.42c0-0.39-0.15-0.74-0.4-0.99h1.19c-0.25,0.25-0.41,0.6-0.41,0.99c0,0.78,0.64,1.42,1.42,1.42
		s1.42-0.64,1.42-1.42c0-0.39-0.16-0.74-0.41-0.99h1.19c-0.25,0.25-0.41,0.6-0.41,0.99c0,0.78,0.64,1.42,1.42,1.42
		s1.42-0.64,1.42-1.42c0-0.39-0.16-0.74-0.41-0.99h1.19c-0.25,0.25-0.4,0.6-0.4,0.99c0,0.78,0.63,1.42,1.41,1.42
		s1.42-0.64,1.42-1.42c0-0.39-0.16-0.74-0.41-0.99h1.2c-0.25,0.25-0.41,0.6-0.41,0.99c0,0.78,0.64,1.42,1.42,1.42
		s1.41-0.64,1.41-1.42c0-0.39-0.15-0.74-0.4-0.99h1.19c-0.25,0.25-0.41,0.6-0.41,0.99c0,0.78,0.64,1.42,1.42,1.42
		s1.42-0.64,1.42-1.42c0-0.01,0-0.01,0-0.02l0.43,0.43v6.62l-3.59,3.59l-0.03,0.69c-0.42-0.71-1.19-1.18-2.07-1.18
		c-1.33,0-2.41,1.08-2.41,2.41c0,1.33,1.08,2.41,2.41,2.41c0.87,0,1.63-0.46,2.05-1.15l-0.04,5.81l-0.88,0.88h-10.95l-1.27,1.27
		c-0.34-0.18-0.73-0.29-1.15-0.29c-1.33,0-2.41,1.08-2.41,2.41s1.08,2.41,2.41,2.41s2.41-1.08,2.41-2.41c0-0.37-0.08-0.72-0.23-1.03
		l0.86-0.86h1.59c-0.56,0.44-0.92,1.12-0.92,1.89c0,1.33,1.08,2.41,2.41,2.41s2.41-1.08,2.41-2.41c0-0.77-0.36-1.45-0.92-1.89h3.14
		c-0.56,0.44-0.92,1.12-0.92,1.89c0,1.33,1.08,2.41,2.41,2.41s2.41-1.08,2.41-2.41c0-0.42-0.11-0.81-0.29-1.15v-0.01l2.15-2.15v-6.5
		c0.44,0.54,1.11,0.88,1.86,0.88c0.8,0,1.52-0.4,1.95-1.01v6.93l-0.87,0.86c-0.32-0.17-0.69-0.26-1.08-0.26
		c-1.33,0-2.41,1.08-2.41,2.41s1.08,2.41,2.41,2.41c1.32,0,2.4-1.08,2.4-2.41c0-0.39-0.09-0.77-0.26-1.09l0.93-0.93l0.91,0.91
		c-0.17,0.33-0.27,0.71-0.27,1.11c0,1.33,1.08,2.41,2.41,2.41s2.41-1.08,2.41-2.41s-1.08-2.41-2.41-2.41
		c-0.38,0-0.75,0.09-1.08,0.25l-0.82-0.82v-6.88c0.44,0.57,1.13,0.93,1.9,0.93c1.33,0,2.41-1.08,2.41-2.41s-1.08-2.41-2.41-2.41
		c-0.77,0-1.46,0.36-1.9,0.93v-0.35l-0.87-0.87V51.53l-3.63-3.64h-21.4c0.25-0.25,0.39-0.59,0.39-0.96c0-0.78-0.64-1.41-1.42-1.41
		s-1.42,0.63-1.42,1.41c0,0.37,0.14,0.71,0.39,0.96h-23.5l-3.13,3.13v0.11c-0.03-0.01-0.07-0.01-0.11-0.01
		c-0.78,0-1.42,0.64-1.42,1.42c0,0.35,0.13,0.67,0.35,0.92h-0.14l-0.62-0.62c0.02-0.1,0.03-0.2,0.03-0.3c0-0.78-0.63-1.42-1.41-1.42
		c-0.79,0-1.42,0.64-1.42,1.42s0.63,1.42,1.42,1.42c0.12,0,0.23-0.01,0.34-0.05l0.24,0.24h-1.1l-1.32-1.31
		c0.03-0.1,0.04-0.2,0.04-0.3c0-0.78-0.64-1.42-1.42-1.42s-1.41,0.64-1.41,1.42S131.71,53.96,132.49,53.96z M127.18,20
		c0.59,0,1.06-0.48,1.06-1.07c0-0.58-0.47-1.06-1.06-1.06s-1.06,0.48-1.06,1.06C126.12,19.52,126.59,20,127.18,20z M118.32,36.09
		c-0.58,0-1.06,0.48-1.06,1.07c0,0.58,0.48,1.06,1.06,1.06c0.03,0,0.06,0,0.09-0.01c0.1,0.48,0.53,0.85,1.05,0.85
		c0.51,0,0.94-0.37,1.04-0.85c0.03,0.01,0.06,0.01,0.09,0.01s0.06,0,0.09-0.01c0.1,0.48,0.53,0.85,1.04,0.85
		c0.59,0,1.07-0.48,1.07-1.06c0-0.59-0.48-1.07-1.07-1.07c-0.03,0-0.06,0-0.09,0.01c-0.1-0.48-0.52-0.85-1.04-0.85
		c-0.52,0-0.94,0.37-1.04,0.85c-0.03-0.01-0.06-0.01-0.09-0.01s-0.06,0-0.09,0.01C119.27,36.46,118.84,36.09,118.32,36.09z
		 M118.32,13.41c0.03,0,0.06,0,0.09-0.01c0.1,0.48,0.53,0.85,1.05,0.85c0.56,0,1.03-0.45,1.05-1.01c0.02,0.01,0.05,0.01,0.08,0.01
		c0.02,0,0.05,0,0.07-0.01h0.01c0.02,0.56,0.49,1.01,1.05,1.01c0.59,0,1.07-0.48,1.07-1.06c0-0.59-0.48-1.07-1.07-1.07
		c-0.03,0-0.06,0-0.08,0.01c-0.02-0.56-0.48-1-1.05-1s-1.03,0.44-1.05,1c-0.02-0.01-0.05-0.01-0.08-0.01s-0.06,0-0.09,0.01
		c-0.1-0.48-0.53-0.85-1.05-0.85c-0.58,0-1.06,0.48-1.06,1.07C117.26,12.93,117.74,13.41,118.32,13.41z M109.32,37.79
		c0,0.59,0.48,1.06,1.07,1.06c0.43,0,0.81-0.26,0.98-0.64c0.05,0.01,0.1,0.01,0.15,0.01s0.1,0,0.15-0.01
		c0.17,0.38,0.55,0.65,0.98,0.65c0.44,0,0.82-0.27,0.99-0.65c0.05,0.01,0.1,0.01,0.15,0.01s0.1,0,0.15-0.01
		c0.17,0.37,0.55,0.64,0.98,0.64c0.44,0,0.81-0.27,0.98-0.64c0.05,0.01,0.11,0.01,0.16,0.01c0.58,0,1.06-0.48,1.06-1.06
		c0-0.59-0.48-1.06-1.06-1.06c-0.44,0-0.82,0.26-0.98,0.64c-0.05-0.02-0.11-0.02-0.16-0.02c-0.06,0-0.11,0-0.16,0.02
		c-0.16-0.37-0.54-0.64-0.97-0.64c-0.44,0-0.82,0.27-0.99,0.64c-0.05-0.01-0.1-0.01-0.15-0.01s-0.1,0-0.15,0.01
		c-0.17-0.37-0.54-0.64-0.98-0.64s-0.81,0.27-0.98,0.64c-0.05-0.01-0.1-0.01-0.15-0.01C109.8,36.73,109.32,37.21,109.32,37.79z
		 M110.3,13.4c0.03,0.01,0.06,0.01,0.09,0.01s0.06,0,0.09-0.01c0.1,0.48,0.52,0.85,1.04,0.85c0.59,0,1.06-0.48,1.06-1.06
		c0-0.59-0.47-1.07-1.06-1.07c-0.03,0-0.06,0-0.09,0.01c-0.1-0.47-0.51-0.83-1-0.85c0.35-0.17,0.6-0.53,0.6-0.95
		c0-0.58-0.48-1.06-1.07-1.06c-0.58,0-1.06,0.48-1.06,1.06s0.46,1.04,1.02,1.06c-0.29,0.14-0.51,0.42-0.58,0.74
		c-0.03-0.01-0.06-0.01-0.09-0.01c-0.58,0-1.06,0.48-1.06,1.07c0,0.58,0.48,1.06,1.06,1.06C109.77,14.25,110.2,13.88,110.3,13.4z
		 M108.9,37.88c0.17-0.19,0.28-0.44,0.28-0.72c0-0.59-0.48-1.06-1.06-1.06c-0.59,0-1.06,0.47-1.06,1.06c0,0.27,0.1,0.52,0.28,0.71
		c-0.18,0.19-0.29,0.45-0.29,0.73c0,0.58,0.48,1.06,1.06,1.06c0.59,0,1.07-0.48,1.07-1.06C109.18,38.32,109.07,38.07,108.9,37.88z
		 M97.46,25.33c0,0.59,0.48,1.07,1.07,1.07h1.29l7.03,7.03c0.2,0.2,0.47,0.31,0.75,0.31h13.67c0.28,0,0.55-0.11,0.75-0.31l0.62-0.62
		c0.2-0.21,0.31-0.47,0.31-0.76v-3.62l3.05-3.05h0.35c-0.03,0.09-0.04,0.18-0.04,0.28c0,0.59,0.48,1.06,1.06,1.06
		c0.59,0,1.06-0.47,1.06-1.06c0-0.1-0.01-0.19-0.04-0.28h0.8c0.59,0,1.07-0.48,1.07-1.07c0-0.15-0.03-0.29-0.09-0.42
		c-0.11-0.25-0.31-0.45-0.56-0.56c-0.13-0.06-0.27-0.09-0.42-0.09c-0.04,0-0.07,0-0.1,0.01h-2.21c0.31-0.19,0.52-0.53,0.52-0.91
		c0-0.03,0-0.06-0.01-0.09c0.49-0.1,0.85-0.53,0.85-1.05c0-0.58-0.47-1.06-1.06-1.06s-1.06,0.48-1.06,1.06c0,0.03,0,0.06,0.01,0.09
		c-0.49,0.1-0.85,0.53-0.85,1.05c0,0.39,0.21,0.73,0.52,0.91h-0.24c-0.29,0-0.56,0.11-0.76,0.31l-3.34,3.34v-7.98
		c0-0.47-0.38-0.85-0.85-0.85H108.1c-0.47,0-0.85,0.38-0.85,0.85v11.89l-6.07-6.07v-1.31c0.17,0.11,0.37,0.18,0.59,0.18
		c0.59,0,1.07-0.48,1.07-1.06c0-0.31-0.14-0.59-0.35-0.78c0.21-0.19,0.35-0.47,0.35-0.78c0-0.59-0.48-1.06-1.07-1.06
		c-0.32,0-0.61,0.14-0.8,0.37c-0.02-0.05-0.06-0.09-0.1-0.13l-1.59-1.59c-0.1-0.09-0.21-0.17-0.34-0.23s-0.27-0.09-0.41-0.09
		c-0.08,0-0.15,0.01-0.22,0.03c-0.48,0.1-0.85,0.53-0.85,1.04c0,0.3,0.12,0.56,0.31,0.75v0.01l1.28,1.27v2.91h-0.52
		C97.94,24.27,97.46,24.75,97.46,25.33z M238.26,91.65v8.76c-0.23-0.47-0.71-0.79-1.27-0.79c-0.78,0-1.41,0.63-1.41,1.41
		c0,0.49,0.25,0.92,0.62,1.18h-8.42c0.38-0.26,0.63-0.69,0.63-1.18c0-0.78-0.64-1.41-1.42-1.41s-1.42,0.63-1.42,1.41
		c0,0.49,0.25,0.92,0.63,1.18h-8.42c0.38-0.26,0.63-0.69,0.63-1.18c0-0.78-0.64-1.41-1.42-1.41s-1.42,0.63-1.42,1.41
		c0,0.49,0.25,0.92,0.63,1.18h-8.42c0.38-0.26,0.63-0.69,0.63-1.18c0-0.78-0.64-1.41-1.42-1.41s-1.42,0.63-1.42,1.41
		c0,0.49,0.25,0.92,0.63,1.18h-8.42c0.38-0.26,0.63-0.69,0.63-1.18c0-0.78-0.64-1.41-1.42-1.41s-1.42,0.63-1.42,1.41
		c0,0.49,0.25,0.92,0.63,1.18h-8.42c0.38-0.26,0.63-0.69,0.63-1.18c0-0.78-0.64-1.41-1.42-1.41s-1.42,0.63-1.42,1.41
		c0,0.49,0.25,0.92,0.63,1.18h-8.42c0.38-0.26,0.63-0.69,0.63-1.18c0-0.78-0.64-1.41-1.42-1.41s-1.42,0.63-1.42,1.41
		c0,0.49,0.25,0.92,0.63,1.18h-8.42c0.38-0.26,0.63-0.69,0.63-1.18c0-0.78-0.64-1.41-1.42-1.41s-1.42,0.63-1.42,1.41
		c0,0.49,0.25,0.92,0.63,1.18h-8.42c0.38-0.26,0.63-0.69,0.63-1.18c0-0.78-0.64-1.41-1.42-1.41s-1.42,0.63-1.42,1.41
		c0,0.49,0.25,0.92,0.63,1.18h-8.42c0.37-0.26,0.62-0.69,0.62-1.18c0-0.78-0.63-1.41-1.41-1.41s-1.42,0.63-1.42,1.41
		c0,0.49,0.25,0.92,0.63,1.18h-8.42c0.37-0.26,0.62-0.69,0.62-1.18c0-0.78-0.63-1.41-1.41-1.41s-1.42,0.63-1.42,1.41
		c0,0.49,0.25,0.92,0.63,1.18h-8.42c0.37-0.26,0.62-0.69,0.62-1.18c0-0.78-0.63-1.41-1.41-1.41c-0.79,0-1.42,0.63-1.42,1.41
		c0,0.49,0.25,0.92,0.62,1.18h-8.41c0.37-0.26,0.62-0.69,0.62-1.18c0-0.78-0.63-1.41-1.42-1.41c-0.78,0-1.41,0.63-1.41,1.41
		c0,0.49,0.25,0.92,0.62,1.18h-8.41c0.37-0.26,0.62-0.69,0.62-1.18c0-0.78-0.63-1.41-1.42-1.41c-0.78,0-1.41,0.63-1.41,1.41
		c0,0.49,0.25,0.92,0.62,1.18h-8.41c0.37-0.26,0.62-0.69,0.62-1.18c0-0.78-0.63-1.41-1.42-1.41c-0.78,0-1.41,0.63-1.41,1.41
		c0,0.49,0.25,0.92,0.62,1.18h-8.42c0.38-0.26,0.63-0.69,0.63-1.18c0-0.78-0.64-1.41-1.42-1.41s-1.41,0.63-1.41,1.41
		c0,0.49,0.25,0.92,0.62,1.18h-8.42c0.38-0.26,0.63-0.69,0.63-1.18c0-0.78-0.64-1.41-1.42-1.41s-1.41,0.63-1.41,1.41
		c0,0.49,0.25,0.92,0.62,1.18h-8.42c0.38-0.26,0.63-0.69,0.63-1.18c0-0.78-0.64-1.41-1.42-1.41s-1.42,0.63-1.42,1.41
		c0,0.49,0.25,0.92,0.63,1.18h-8.42c0.38-0.26,0.63-0.69,0.63-1.18c0-0.78-0.64-1.41-1.42-1.41s-1.42,0.63-1.42,1.41
		c0,0.49,0.25,0.92,0.63,1.18h-8.42c0.38-0.26,0.63-0.69,0.63-1.18c0-0.78-0.64-1.41-1.42-1.41s-1.42,0.63-1.42,1.41
		c0,0.49,0.25,0.92,0.63,1.18h-8.42c0.38-0.26,0.63-0.69,0.63-1.18c0-0.78-0.64-1.41-1.42-1.41s-1.42,0.63-1.42,1.41
		c0,0.49,0.25,0.92,0.63,1.18h-8.42c0.38-0.26,0.63-0.69,0.63-1.18c0-0.78-0.64-1.41-1.42-1.41s-1.42,0.63-1.42,1.41
		c0,0.49,0.25,0.92,0.63,1.18h-8.42c0.38-0.26,0.63-0.69,0.63-1.18c0-0.78-0.64-1.41-1.42-1.41s-1.42,0.63-1.42,1.41
		c0,0.49,0.25,0.92,0.63,1.18H7.75c0.38-0.26,0.63-0.69,0.63-1.18c0-0.78-0.64-1.41-1.42-1.41c-0.46,0-0.87,0.22-1.13,0.56v-8.3
		c0.25,0.35,0.67,0.57,1.13,0.57c0.78,0,1.42-0.64,1.42-1.42s-0.64-1.41-1.42-1.41c-0.46,0-0.87,0.22-1.13,0.56v-8.3
		c0.25,0.35,0.67,0.57,1.13,0.57c0.78,0,1.42-0.64,1.42-1.42s-0.64-1.41-1.42-1.41c-0.46,0-0.87,0.22-1.13,0.56V63.5
		c0.26,0.34,0.67,0.56,1.13,0.56c0.78,0,1.42-0.63,1.42-1.41c0-0.79-0.64-1.42-1.42-1.42c-0.46,0-0.87,0.22-1.13,0.56V10.74
		c0-2.93,2.38-5.31,5.31-5.31h81.79c-0.34,0.26-0.55,0.66-0.55,1.12c0,0.78,0.63,1.41,1.42,1.41c0.78,0,1.41-0.63,1.41-1.41
		c0-0.46-0.21-0.86-0.55-1.12h40.77c-0.34,0.25-0.56,0.66-0.56,1.12c0,0.78,0.64,1.41,1.42,1.41s1.42-0.63,1.42-1.41
		c0-0.46-0.22-0.87-0.56-1.12h8.28c-0.34,0.25-0.56,0.66-0.56,1.12c0,0.78,0.64,1.41,1.42,1.41s1.42-0.63,1.42-1.41
		c0-0.46-0.22-0.87-0.56-1.12h8.28c-0.34,0.25-0.56,0.66-0.56,1.12c0,0.78,0.64,1.41,1.42,1.41s1.42-0.63,1.42-1.41
		c0-0.46-0.22-0.87-0.56-1.12h29.98c-0.34,0.25-0.56,0.66-0.56,1.12c0,0.78,0.64,1.41,1.42,1.41s1.42-0.63,1.42-1.41
		c0-0.46-0.22-0.87-0.56-1.12h8.28c-0.34,0.25-0.56,0.66-0.56,1.12c0,0.78,0.64,1.41,1.42,1.41s1.42-0.63,1.42-1.41
		c0-0.46-0.22-0.87-0.56-1.12h8.28c-0.34,0.25-0.56,0.66-0.56,1.12c0,0.78,0.64,1.41,1.42,1.41s1.42-0.63,1.42-1.41
		c0-0.46-0.22-0.87-0.56-1.12h18.28c-0.34,0.25-0.56,0.66-0.56,1.12c0,0.78,0.64,1.41,1.42,1.41s1.42-0.63,1.42-1.41
		c0-0.46-0.22-0.87-0.56-1.12h4.1c2.93,0,5.31,2.38,5.31,5.31v10.24c-0.23-0.47-0.71-0.79-1.27-0.79c-0.78,0-1.41,0.63-1.41,1.41
		c0,0.79,0.63,1.42,1.41,1.42c0.56,0,1.04-0.32,1.27-0.79v8.75c-0.23-0.47-0.71-0.79-1.27-0.79c-0.78,0-1.41,0.63-1.41,1.42
		c0,0.78,0.63,1.41,1.41,1.41c0.56,0,1.04-0.32,1.27-0.79v8.75c-0.23-0.47-0.71-0.79-1.27-0.79c-0.78,0-1.41,0.63-1.41,1.42
		c0,0.78,0.63,1.41,1.41,1.41c0.56,0,1.04-0.32,1.27-0.79v18.18c-0.23-0.47-0.71-0.8-1.27-0.8c-0.78,0-1.41,0.64-1.41,1.42
		s0.63,1.42,1.41,1.42c0.56,0,1.04-0.33,1.27-0.8v18.76c-0.23-0.47-0.71-0.79-1.27-0.79c-0.78,0-1.41,0.63-1.41,1.41
		s0.63,1.42,1.41,1.42c0.56,0,1.04-0.33,1.27-0.8v8.76c-0.23-0.47-0.71-0.79-1.27-0.79c-0.78,0-1.41,0.63-1.41,1.41
		s0.63,1.42,1.41,1.42C237.55,92.45,238.03,92.12,238.26,91.65z M235.35,70.75c0-4.22-3.43-7.65-7.65-7.65s-7.65,3.43-7.65,7.65
		s3.43,7.65,7.65,7.65S235.35,74.97,235.35,70.75z M223.63,19.46c0-1.56-1.27-2.83-2.83-2.83s-2.84,1.27-2.84,2.83
		s1.28,2.84,2.84,2.84S223.63,21.02,223.63,19.46z M223.63,42c0-1.56-1.27-2.83-2.83-2.83s-2.84,1.27-2.84,2.83
		c0,1.57,1.28,2.84,2.84,2.84S223.63,43.57,223.63,42z M195.99,24.13c0-0.51-0.27-0.96-0.68-1.21c0.4-0.25,0.66-0.69,0.66-1.19
		c0-0.78-0.64-1.42-1.42-1.42s-1.42,0.64-1.42,1.42c0,0.51,0.27,0.96,0.68,1.21c-0.4,0.24-0.66,0.68-0.66,1.19
		c0,0.78,0.64,1.41,1.42,1.41S195.99,24.91,195.99,24.13z M195.97,28.68c0-0.78-0.63-1.42-1.41-1.42c-0.79,0-1.42,0.64-1.42,1.42
		s0.63,1.41,1.42,1.41C195.34,30.09,195.97,29.46,195.97,28.68z M195.26,37.32c0-0.78-0.63-1.42-1.41-1.42s-1.42,0.64-1.42,1.42
		s0.64,1.42,1.42,1.42S195.26,38.1,195.26,37.32z M186.88,43.91c0-0.78-0.64-1.41-1.42-1.41s-1.42,0.63-1.42,1.41
		c0,0.79,0.64,1.42,1.42,1.42S186.88,44.7,186.88,43.91z M181.35,22.58c0-0.79-0.64-1.42-1.42-1.42s-1.42,0.63-1.42,1.42
		c0,0.78,0.64,1.41,1.42,1.41S181.35,23.36,181.35,22.58z M179.56,65.08c0-1.33-1.08-2.41-2.41-2.41s-2.41,1.08-2.41,2.41
		c0,1.33,1.08,2.41,2.41,2.41S179.56,66.41,179.56,65.08z M177.66,12.7c0-0.78-0.63-1.41-1.41-1.41c-0.79,0-1.42,0.63-1.42,1.41
		s0.63,1.42,1.42,1.42C177.03,14.12,177.66,13.48,177.66,12.7z M177.66,22.58c0-0.79-0.63-1.42-1.41-1.42
		c-0.79,0-1.42,0.63-1.42,1.42c0,0.78,0.63,1.41,1.42,1.41C177.03,23.99,177.66,23.36,177.66,22.58z M173.44,65.08
		c0-1.33-1.08-2.41-2.41-2.41s-2.41,1.08-2.41,2.41c0,1.33,1.08,2.41,2.41,2.41S173.44,66.41,173.44,65.08z M172.13,12.7
		c0-0.78-0.63-1.41-1.41-1.41s-1.42,0.63-1.42,1.41s0.64,1.42,1.42,1.42S172.13,13.48,172.13,12.7z M172.09,21.82
		c0-0.78-0.63-1.41-1.41-1.41s-1.42,0.63-1.42,1.41s0.64,1.42,1.42,1.42S172.09,22.6,172.09,21.82z M168.74,34.29
		c0-0.78-0.64-1.42-1.42-1.42s-1.41,0.64-1.41,1.42s0.63,1.42,1.41,1.42S168.74,35.07,168.74,34.29z M167.31,65.08
		c0-1.33-1.08-2.41-2.41-2.41c-1.32,0-2.41,1.08-2.41,2.41c0,1.33,1.09,2.41,2.41,2.41C166.23,67.49,167.31,66.41,167.31,65.08z
		 M167.31,76.42c0-1.33-1.08-2.41-2.41-2.41c-1.32,0-2.41,1.08-2.41,2.41s1.09,2.41,2.41,2.41
		C166.23,78.83,167.31,77.75,167.31,76.42z M165.08,9.78c0-0.58-0.48-1.06-1.06-1.06c-0.59,0-1.07,0.48-1.07,1.06
		c0,0.59,0.48,1.07,1.07,1.07C164.6,10.85,165.08,10.37,165.08,9.78z M165.08,23.29c0-0.58-0.48-1.06-1.06-1.06
		c-0.59,0-1.07,0.48-1.07,1.06c0,0.59,0.48,1.06,1.07,1.06C164.6,24.35,165.08,23.88,165.08,23.29z M163.99,39.07
		c0-0.78-0.64-1.42-1.42-1.42c-0.73,0-1.33,0.56-1.4,1.27c-0.13-0.05-0.27-0.07-0.41-0.07c-0.78,0-1.42,0.64-1.42,1.42
		s0.64,1.42,1.42,1.42c0.73,0,1.33-0.56,1.4-1.27c0.13,0.05,0.27,0.07,0.41,0.07C163.35,40.49,163.99,39.85,163.99,39.07z
		 M161.21,12.69c0.02-0.15,0.03-2.42,0.03-2.45c0-1.28-1.05-2.33-2.34-2.33c-1.28,0-2.33,1.05-2.33,2.33c0,0.03,0.01,2.29,0.03,2.43
		c0.16,1.15,1.15,2.01,2.3,2.01S161.04,13.83,161.21,12.69z M161.21,24.94c0.02-0.15,0.03-3.25,0.03-3.28
		c0-1.29-1.05-2.33-2.34-2.33c-0.88,0-1.66,0.5-2.06,1.23c-0.39-0.67-1.13-1.12-1.96-1.12c-0.3,0-0.59,0.06-0.85,0.17
		c-0.25-0.36-0.68-0.6-1.15-0.6c-0.78,0-1.42,0.64-1.42,1.42v1.27v0.14h-9.55V21.7v-1.27c0-0.78-0.63-1.42-1.41-1.42
		c-0.48,0-0.9,0.24-1.15,0.6c-0.26-0.11-0.55-0.17-0.85-0.17c-0.87,0-1.61,0.48-2,1.18c-0.39-0.77-1.18-1.29-2.09-1.29
		c-1.29,0-2.33,1.04-2.33,2.33c0,0.03,0,3.12,0.02,3.27c0.16,1.14,1.15,2,2.31,2c0.17,0,0.34-0.02,0.5-0.06l-6.69,6.69
		c-0.27,0.27-0.41,0.63-0.41,1.01v15.25c-0.01,0.03-0.01,0.06-0.01,0.09s0,0.06,0.01,0.09v1.52c-0.01,0.03-0.01,0.06-0.01,0.09
		c0,0.4,0.16,0.75,0.42,1.01c0.26,0.25,0.61,0.41,1,0.41c0.78,0,1.42-0.63,1.42-1.42v-1.7V35.15l10.48-10.48h11.76
		c0.57,0,1.06-0.33,1.29-0.82c0.22,0.08,0.46,0.12,0.71,0.12c0.68,0,1.29-0.3,1.7-0.78c0,0.81,0.01,1.66,0.02,1.74
		c0.16,1.14,1.15,2,2.3,2S161.04,26.08,161.21,24.94z M161.19,65.08c0-1.33-1.08-2.41-2.41-2.41s-2.41,1.08-2.41,2.41
		c0,1.33,1.08,2.41,2.41,2.41S161.19,66.41,161.19,65.08z M161.19,76.42c0-1.33-1.08-2.41-2.41-2.41s-2.41,1.08-2.41,2.41
		s1.08,2.41,2.41,2.41S161.19,77.75,161.19,76.42z M161.22,58.72c0-0.78-0.63-1.42-1.42-1.42c-0.78,0-1.41,0.64-1.41,1.42
		s0.63,1.41,1.41,1.41C160.59,60.13,161.22,59.5,161.22,58.72z M159.65,35.26c0.41-0.26,0.68-0.71,0.68-1.22
		c0-0.78-0.63-1.42-1.41-1.42c-0.79,0-1.42,0.64-1.42,1.42c0,0.51,0.27,0.96,0.68,1.22c-0.41,0.24-0.68,0.69-0.68,1.21
		c0,0.78,0.63,1.41,1.42,1.41c0.78,0,1.41-0.63,1.41-1.41C160.33,35.95,160.06,35.5,159.65,35.26z M156.72,38.88
		c0-0.78-0.63-1.42-1.41-1.42c-0.18,0-0.35,0.03-0.51,0.1c-0.05-0.73-0.66-1.31-1.41-1.31c-0.78,0-1.42,0.63-1.42,1.41
		s0.64,1.42,1.42,1.42c0.18,0,0.35-0.03,0.51-0.1c0.05,0.74,0.66,1.32,1.41,1.32C156.09,40.3,156.72,39.66,156.72,38.88z
		 M156.16,15.65c0-0.78-0.63-1.42-1.41-1.42c-0.79,0-1.42,0.64-1.42,1.42c0,0.07,0.01,0.15,0.02,0.22
		c-0.19-0.55-0.71-0.95-1.32-0.95c-0.6,0-1.11,0.37-1.32,0.9c-0.21-0.14-0.46-0.21-0.73-0.21c-0.6,0-1.12,0.37-1.32,0.9
		c-0.2-0.12-0.43-0.18-0.68-0.18c-0.78,0-1.42,0.63-1.42,1.41c0,0.79,0.64,1.42,1.42,1.42c0.6,0,1.12-0.37,1.32-0.9
		c0.2,0.12,0.43,0.18,0.68,0.18c0.6,0,1.11-0.37,1.32-0.89c0.21,0.13,0.46,0.21,0.73,0.21c0.78,0,1.41-0.64,1.41-1.42
		c0-0.07-0.01-0.15-0.02-0.22c0.19,0.55,0.71,0.95,1.33,0.95C155.53,17.07,156.16,16.43,156.16,15.65z M155.07,65.08
		c0-1.33-1.08-2.41-2.41-2.41s-2.41,1.08-2.41,2.41c0,1.33,1.08,2.41,2.41,2.41S155.07,66.41,155.07,65.08z M155.07,76.42
		c0-1.33-1.08-2.41-2.41-2.41s-2.41,1.08-2.41,2.41s1.08,2.41,2.41,2.41S155.07,77.75,155.07,76.42z M148.95,65.08
		c0-1.33-1.09-2.41-2.41-2.41c-1.33,0-2.41,1.08-2.41,2.41c0,1.33,1.08,2.41,2.41,2.41C147.86,67.49,148.95,66.41,148.95,65.08z
		 M148.95,76.42c0-1.33-1.09-2.41-2.41-2.41c-1.33,0-2.41,1.08-2.41,2.41s1.08,2.41,2.41,2.41
		C147.86,78.83,148.95,77.75,148.95,76.42z M149.16,58.69c0-0.78-0.64-1.42-1.42-1.42s-1.42,0.64-1.42,1.42s0.64,1.42,1.42,1.42
		S149.16,59.47,149.16,58.69z M142.82,65.08c0-1.33-1.08-2.41-2.41-2.41S138,63.75,138,65.08s1.08,2.41,2.41,2.41
		S142.82,66.41,142.82,65.08z M142.82,76.42c0-1.33-1.08-2.41-2.41-2.41S138,75.09,138,76.42s1.08,2.41,2.41,2.41
		S142.82,77.75,142.82,76.42z M143.36,34.04c0-0.78-0.63-1.42-1.41-1.42s-1.42,0.64-1.42,1.42s0.64,1.42,1.42,1.42
		S143.36,34.82,143.36,34.04z M136.71,12.69c0.03-0.15,0.03-2.42,0.03-2.45c0-1.28-1.05-2.33-2.33-2.33c-1.29,0-2.33,1.05-2.33,2.33
		c0,0.03,0,2.29,0.02,2.43c0.16,1.15,1.15,2.01,2.31,2.01C135.55,14.68,136.55,13.83,136.71,12.69z M137.85,34.04
		c0-0.78-0.64-1.42-1.42-1.42s-1.42,0.64-1.42,1.42s0.64,1.42,1.42,1.42S137.85,34.82,137.85,34.04z M136.7,65.08
		c0-1.33-1.08-2.41-2.41-2.41s-2.41,1.08-2.41,2.41c0,1.33,1.08,2.41,2.41,2.41S136.7,66.41,136.7,65.08z M136.7,76.42
		c0-1.33-1.08-2.41-2.41-2.41s-2.41,1.08-2.41,2.41s1.08,2.41,2.41,2.41S136.7,77.75,136.7,76.42z M135.99,38.34
		c0-0.78-0.64-1.42-1.42-1.42s-1.42,0.64-1.42,1.42s0.64,1.42,1.42,1.42S135.99,39.12,135.99,38.34z M130.58,65.08
		c0-1.33-1.08-2.41-2.41-2.41s-2.41,1.08-2.41,2.41c0,1.33,1.08,2.41,2.41,2.41S130.58,66.41,130.58,65.08z M130.58,76.42
		c0-1.33-1.08-2.41-2.41-2.41s-2.41,1.08-2.41,2.41s1.08,2.41,2.41,2.41S130.58,77.75,130.58,76.42z M128.24,29.14
		c0-0.52-0.36-0.94-0.85-1.04c0.01-0.03,0.01-0.06,0.01-0.09c0-0.59-0.48-1.07-1.06-1.07c-0.59,0-1.06,0.48-1.06,1.07
		c0,0.51,0.36,0.94,0.85,1.04c-0.01,0.03-0.01,0.06-0.01,0.09s0,0.06,0.01,0.09c-0.49,0.1-0.85,0.53-0.85,1.04
		c0,0.52,0.36,0.95,0.85,1.05c-0.01,0.03-0.01,0.06-0.01,0.09s0,0.06,0.01,0.09c-0.49,0.1-0.85,0.53-0.85,1.04
		c0,0.59,0.47,1.06,1.06,1.06c0.58,0,1.06-0.47,1.06-1.06c0-0.03,0-0.06-0.01-0.09c0.49-0.1,0.85-0.53,0.85-1.04
		c0-0.52-0.36-0.95-0.85-1.05c0.01-0.03,0.01-0.06,0.01-0.09s0-0.06-0.01-0.09C127.88,30.08,128.24,29.66,128.24,29.14z
		 M127.87,15.82c0-0.78-0.63-1.42-1.42-1.42c-0.78,0-1.41,0.64-1.41,1.42c0,0.78,0.63,1.42,1.41,1.42
		C127.24,17.24,127.87,16.6,127.87,15.82z M126.46,7.33c0-0.58-0.48-1.06-1.06-1.06c-0.59,0-1.07,0.48-1.07,1.06
		c0,0.59,0.48,1.06,1.07,1.06C125.98,8.39,126.46,7.92,126.46,7.33z M126.46,10.33c0-0.58-0.48-1.06-1.06-1.06
		c-0.59,0-1.07,0.48-1.07,1.06c0,0.59,0.48,1.06,1.07,1.06C125.98,11.39,126.46,10.92,126.46,10.33z M124.45,65.08
		c0-1.33-1.08-2.41-2.41-2.41c-1.32,0-2.41,1.08-2.41,2.41c0,1.33,1.09,2.41,2.41,2.41C123.37,67.49,124.45,66.41,124.45,65.08z
		 M124.45,76.42c0-1.33-1.08-2.41-2.41-2.41c-0.08,0-0.16,0-0.23,0.01c-0.01,0-0.01,0-0.01,0l-6.65-6.66
		c0.25,0.09,0.51,0.13,0.77,0.13c1.33,0,2.41-1.08,2.41-2.41s-1.08-2.41-2.41-2.41c-0.61,0-1.19,0.24-1.63,0.65v-1.56
		c0-0.38-0.15-0.73-0.42-1l-1.66-1.67v-8.46v-2.98c0-0.78-0.64-1.42-1.42-1.42s-1.42,0.64-1.42,1.42v2.98v9.05
		c0,0.38,0.15,0.73,0.42,1l1.66,1.67v1c-0.44-0.44-1.03-0.68-1.65-0.68c-1.33,0-2.41,1.08-2.41,2.41c0,1.33,1.08,2.41,2.41,2.41
		c0.62,0,1.21-0.24,1.65-0.67v0.27c0,0.38,0.15,0.73,0.42,1l7.82,7.82c-0.04,0.17-0.06,0.34-0.06,0.51c0,1.33,1.09,2.41,2.41,2.41
		C123.37,78.83,124.45,77.75,124.45,76.42z M120.47,7.33c0-0.58-0.48-1.06-1.07-1.06c-0.58,0-1.06,0.48-1.06,1.06
		c0,0.59,0.48,1.06,1.06,1.06C119.99,8.39,120.47,7.92,120.47,7.33z M118.33,76.42c0-1.33-1.08-2.41-2.41-2.41s-2.41,1.08-2.41,2.41
		s1.08,2.41,2.41,2.41S118.33,77.75,118.33,76.42z M116.56,13.19c0-0.59-0.47-1.07-1.06-1.07s-1.06,0.48-1.06,1.07
		c0,0.58,0.47,1.06,1.06,1.06S116.56,13.77,116.56,13.19z M115.4,51.26c0-0.79-0.64-1.42-1.42-1.42s-1.41,0.63-1.41,1.42
		c0,0.78,0.63,1.41,1.41,1.41S115.4,52.04,115.4,51.26z M115.4,57.54c0-0.78-0.64-1.42-1.42-1.42s-1.41,0.64-1.41,1.42
		s0.63,1.42,1.41,1.42S115.4,58.32,115.4,57.54z M112.21,76.42c0-1.33-1.08-2.41-2.41-2.41s-2.41,1.08-2.41,2.41
		s1.08,2.41,2.41,2.41S112.21,77.75,112.21,76.42z M111.03,7.33c0-0.58-0.48-1.06-1.07-1.06c-0.58,0-1.06,0.48-1.06,1.06
		c0,0.59,0.48,1.06,1.06,1.06C110.55,8.39,111.03,7.92,111.03,7.33z M106.09,65.08c0-1.33-1.09-2.41-2.41-2.41
		c-1.33,0-2.41,1.08-2.41,2.41c0,1.33,1.08,2.41,2.41,2.41C105,67.49,106.09,66.41,106.09,65.08z M106.09,76.42
		c0-1.33-1.09-2.41-2.41-2.41c-1.33,0-2.41,1.08-2.41,2.41s1.08,2.41,2.41,2.41C105,78.83,106.09,77.75,106.09,76.42z M105.4,35.16
		c0-0.78-0.64-1.42-1.42-1.42s-1.41,0.64-1.41,1.42s0.63,1.42,1.41,1.42S105.4,35.94,105.4,35.16z M102.63,12.29
		c0-0.59-0.48-1.06-1.06-1.06c-0.59,0-1.07,0.47-1.07,1.06c0,0.59,0.48,1.06,1.07,1.06C102.15,13.35,102.63,12.88,102.63,12.29z
		 M99.66,56.03V54.4v-1.64c0-0.78-0.64-1.42-1.42-1.42s-1.42,0.64-1.42,1.42c0,0.03,0,0.06,0.01,0.09v1.45
		c-0.01,0.03-0.01,0.07-0.01,0.1s0,0.06,0.01,0.09v1.45c-0.01,0.03-0.01,0.06-0.01,0.09c0,0.78,0.64,1.42,1.42,1.42
		C99.02,57.45,99.66,56.81,99.66,56.03z M99.96,65.08c0-1.33-1.08-2.41-2.41-2.41s-2.41,1.08-2.41,2.41c0,1.33,1.08,2.41,2.41,2.41
		C98.88,67.49,99.96,66.41,99.96,65.08z M99.96,76.42c0-1.33-1.08-2.41-2.41-2.41s-2.41,1.08-2.41,2.41s1.08,2.41,2.41,2.41
		S99.96,77.75,99.96,76.42z M96.4,37.55c0-0.59-0.48-1.06-1.07-1.06c-0.58,0-1.06,0.47-1.06,1.06s0.48,1.06,1.06,1.06
		C95.92,38.61,96.4,38.14,96.4,37.55z M95.12,56.03V54.4v-1.64c0-0.78-0.64-1.42-1.42-1.42s-1.42,0.64-1.42,1.42v1.64v1.63
		c0,0.78,0.64,1.42,1.42,1.42S95.12,56.81,95.12,56.03z M95.94,40.94c0-0.59-0.48-1.07-1.06-1.07c-0.59,0-1.06,0.48-1.06,1.07
		c0,0.58,0.47,1.06,1.06,1.06C95.46,42,95.94,41.52,95.94,40.94z M95.12,14.4c0-0.78-0.64-1.42-1.42-1.42s-1.41,0.64-1.41,1.42
		s0.63,1.42,1.41,1.42C94.48,15.82,95.12,15.18,95.12,14.4z M93.84,65.08c0-1.33-1.08-2.41-2.41-2.41s-2.41,1.08-2.41,2.41
		c0,1.33,1.08,2.41,2.41,2.41S93.84,66.41,93.84,65.08z M93.84,76.42c0-1.33-1.08-2.41-2.41-2.41s-2.41,1.08-2.41,2.41
		s1.08,2.41,2.41,2.41S93.84,77.75,93.84,76.42z M92.64,34.36c0.59,0,1.07-0.48,1.07-1.06c0-0.59-0.48-1.07-1.07-1.07
		c-0.03,0-0.07,0-0.1,0.01h-0.79c-0.04-0.01-0.07-0.01-0.11-0.01c-0.58,0-1.06,0.48-1.06,1.07c0,0.58,0.48,1.06,1.06,1.06
		c0.04,0,0.07,0,0.11-0.01h0.79C92.57,34.36,92.61,34.36,92.64,34.36z M92.84,37.55c0-0.59-0.47-1.06-1.06-1.06
		c-0.58,0-1.06,0.47-1.06,1.06s0.48,1.06,1.06,1.06C92.37,38.61,92.84,38.14,92.84,37.55z M89.4,12.64c0-0.78-0.64-1.41-1.42-1.41
		s-1.41,0.63-1.41,1.41s0.63,1.42,1.41,1.42S89.4,13.42,89.4,12.64z M89.4,23.07c0-0.78-0.64-1.42-1.42-1.42s-1.41,0.64-1.41,1.42
		s0.63,1.42,1.41,1.42S89.4,23.85,89.4,23.07z M89.4,39.61c0-0.79-0.64-1.42-1.42-1.42s-1.41,0.63-1.41,1.42
		c0,0.78,0.63,1.41,1.41,1.41S89.4,40.39,89.4,39.61z M87.72,65.08c0-1.33-1.08-2.41-2.41-2.41s-2.41,1.08-2.41,2.41
		c0,1.33,1.08,2.41,2.41,2.41C86.64,67.49,87.72,66.41,87.72,65.08z M87.72,76.42c0-1.33-1.08-2.41-2.41-2.41s-2.41,1.08-2.41,2.41
		s1.08,2.41,2.41,2.41S87.72,77.75,87.72,76.42z M81.59,65.08c0-1.33-1.08-2.41-2.41-2.41c-1.32,0-2.41,1.08-2.41,2.41
		c0,1.33,1.09,2.41,2.41,2.41C80.51,67.49,81.59,66.41,81.59,65.08z M81.59,76.42c0-1.33-1.08-2.41-2.41-2.41
		c-1.32,0-2.41,1.08-2.41,2.41s1.09,2.41,2.41,2.41C80.51,78.83,81.59,77.75,81.59,76.42z M75.47,65.08c0-1.33-1.08-2.41-2.41-2.41
		s-2.41,1.08-2.41,2.41c0,1.33,1.08,2.41,2.41,2.41C74.39,67.49,75.47,66.41,75.47,65.08z M75.47,76.42c0-1.33-1.08-2.41-2.41-2.41
		s-2.41,1.08-2.41,2.41s1.08,2.41,2.41,2.41S75.47,77.75,75.47,76.42z M69.35,65.08c0-1.33-1.08-2.41-2.41-2.41
		s-2.41,1.08-2.41,2.41c0,1.33,1.08,2.41,2.41,2.41S69.35,66.41,69.35,65.08z M69.35,76.42c0-1.33-1.08-2.41-2.41-2.41
		s-2.41,1.08-2.41,2.41s1.08,2.41,2.41,2.41S69.35,77.75,69.35,76.42z M63.23,65.08c0-1.33-1.09-2.41-2.41-2.41
		c-1.33,0-2.41,1.08-2.41,2.41c0,1.33,1.08,2.41,2.41,2.41C62.14,67.49,63.23,66.41,63.23,65.08z M63.23,76.42
		c0-1.33-1.09-2.41-2.41-2.41c-1.33,0-2.41,1.08-2.41,2.41s1.08,2.41,2.41,2.41C62.14,78.83,63.23,77.75,63.23,76.42z M57.1,65.08
		c0-1.33-1.08-2.41-2.41-2.41c-1.33,0-2.41,1.08-2.41,2.41c0,1.33,1.08,2.41,2.41,2.41C56.02,67.49,57.1,66.41,57.1,65.08z
		 M57.1,76.42c0-1.33-1.08-2.41-2.41-2.41c-1.33,0-2.41,1.08-2.41,2.41s1.08,2.41,2.41,2.41C56.02,78.83,57.1,77.75,57.1,76.42z
		 M50.98,65.08c0-1.33-1.08-2.41-2.41-2.41c-1.33,0-2.41,1.08-2.41,2.41c0,1.33,1.08,2.41,2.41,2.41
		C49.9,67.49,50.98,66.41,50.98,65.08z M50.98,76.42c0-1.33-1.08-2.41-2.41-2.41c-1.33,0-2.41,1.08-2.41,2.41s1.08,2.41,2.41,2.41
		C49.9,78.83,50.98,77.75,50.98,76.42z M24.04,70.75c0-4.22-3.43-7.65-7.65-7.65s-7.66,3.43-7.66,7.65s3.44,7.65,7.66,7.65
		S24.04,74.97,24.04,70.75z"/>
</g>
</svg>
