<?xml version="1.0" encoding="utf-8"?>
<!-- Generator: Adobe Illustrator 27.0.0, SVG Export Plug-In . SVG Version: 6.00 Build 0)  -->
<svg version="1.1" id="Calque_1" xmlns="http://www.w3.org/2000/svg" xmlns:xlink="http://www.w3.org/1999/xlink" x="0px" y="0px"
	 viewBox="0 0 243.18 106.64" style="enable-background:new 0 0 243.18 106.64;" xml:space="preserve">
<style type="text/css">
	.st0{fill:none;stroke:#000000;stroke-width:0.1;stroke-miterlimit:10;}
	.st1{fill:none;stroke:#000000;stroke-width:0.98;}
	.st2{fill:none;stroke:#000000;stroke-width:1.7;stroke-miterlimit:10;}
	.st3{fill:none;stroke:#000000;stroke-miterlimit:10;}
	.st4{fill:none;stroke:#000000;stroke-width:2;stroke-miterlimit:10;}
</style>
<path class="st0" d="M232.95,4.01H11.14c-3.72,0-6.73,3.02-6.73,6.73v92.88h235.27V10.74C239.68,7.02,236.66,4.01,232.95,4.01z"/>
<g>
	<circle cx="170.72" cy="42.61" r="0.85"/>
	<circle cx="172.56" cy="43.91" r="0.85"/>
	<circle cx="174.4" cy="42.61" r="0.85"/>
	<circle cx="187.1" cy="57.18" r="0.85"/>
	<circle cx="183.9" cy="57.18" r="0.85"/>
	<circle cx="180.68" cy="57.18" r="0.85"/>
	<circle cx="177.47" cy="52.54" r="0.85"/>
	<circle cx="177.47" cy="57.18" r="0.85"/>
	<circle cx="174.26" cy="52.54" r="0.85"/>
	<circle cx="174.26" cy="57.18" r="0.85"/>
	<circle cx="171.05" cy="52.54" r="0.85"/>
	<circle cx="171.05" cy="57.18" r="0.85"/>
	<circle cx="167.83" cy="52.54" r="0.85"/>
	<circle cx="167.83" cy="57.18" r="0.85"/>
	<circle cx="164.62" cy="52.54" r="0.85"/>
	<circle cx="164.62" cy="57.18" r="0.85"/>
	<circle cx="161.41" cy="52.54" r="0.85"/>
	<circle cx="161.41" cy="57.18" r="0.85"/>
	<circle cx="158.2" cy="52.54" r="0.85"/>
	<circle cx="158.2" cy="57.18" r="0.85"/>
	<circle cx="154.98" cy="52.54" r="0.85"/>
	<circle cx="145.34" cy="57.18" r="0.85"/>
	<circle cx="142.13" cy="52.54" r="0.85"/>
	<circle cx="142.13" cy="57.18" r="0.85"/>
	<circle cx="138.92" cy="52.54" r="0.85"/>
	<circle cx="138.92" cy="57.18" r="0.85"/>
	<circle cx="135.71" cy="52.54" r="0.85"/>
	<circle cx="135.71" cy="57.18" r="0.85"/>
	<circle cx="132.49" cy="52.54" r="0.85"/>
	<circle cx="132.49" cy="57.18" r="0.85"/>
	<circle cx="160.76" cy="40.27" r="0.85"/>
	<circle cx="140.5" cy="21.7" r="0.85"/>
	<circle cx="152.88" cy="21.7" r="0.85"/>
	<circle cx="140.5" cy="20.43" r="0.85"/>
	<circle cx="152.88" cy="20.43" r="0.85"/>
	<circle cx="180.68" cy="52.54" r="0.85"/>
	<circle cx="110.79" cy="50.63" r="0.85"/>
	<circle cx="193.85" cy="31.09" r="0.85"/>
	<circle cx="187.85" cy="31.09" r="0.85"/>
	<circle cx="151.77" cy="57.18" r="0.85"/>
	<circle cx="151.77" cy="52.54" r="0.85"/>
	<circle cx="148.56" cy="52.54" r="0.85"/>
	<circle cx="185.46" cy="34.04" r="0.85"/>
	<circle cx="183.62" cy="35.04" r="0.85"/>
	<circle cx="181.77" cy="36.04" r="0.85"/>
	<circle cx="179.93" cy="37.04" r="0.85"/>
	<circle cx="178.09" cy="38.04" r="0.85"/>
	<circle cx="176.25" cy="39.04" r="0.85"/>
	<circle cx="174.4" cy="40.04" r="0.85"/>
	<circle cx="172.56" cy="41.04" r="0.85"/>
	<circle cx="110.79" cy="47.65" r="0.85"/>
	<circle cx="162.57" cy="39.07" r="0.85"/>
	<circle cx="167.32" cy="34.29" r="0.85"/>
	<circle cx="187.85" cy="34.2" r="0.85"/>
	<circle cx="194.56" cy="28.68" r="0.85"/>
	<circle cx="194.57" cy="24.13" r="0.85"/>
	<circle cx="194.55" cy="21.73" r="0.85"/>
	<circle cx="194.55" cy="40.44" r="0.85"/>
	<circle cx="194.55" cy="43.56" r="0.85"/>
	<circle cx="101.77" cy="22.55" r="0.5"/>
	<circle cx="127.18" cy="29.14" r="0.5"/>
	<circle cx="126.34" cy="30.27" r="0.5"/>
	<circle cx="127.18" cy="31.41" r="0.5"/>
	<circle cx="126.34" cy="32.54" r="0.5"/>
	<circle cx="121.73" cy="38" r="0.5"/>
	<circle cx="120.59" cy="37.15" r="0.5"/>
	<circle cx="119.46" cy="38" r="0.5"/>
	<circle cx="118.32" cy="37.15" r="0.5"/>
	<circle cx="98.53" cy="25.33" r="0.5"/>
	<circle cx="98.53" cy="22.33" r="0.5"/>
	<circle cx="98.53" cy="19.33" r="0.5"/>
	<circle cx="98.53" cy="16.33" r="0.5"/>
	<circle cx="114.92" cy="37.79" r="0.5"/>
	<circle cx="116.06" cy="37.16" r="0.5"/>
	<circle cx="112.65" cy="37.8" r="0.5"/>
	<circle cx="113.79" cy="37.16" r="0.5"/>
	<circle cx="110.39" cy="37.79" r="0.5"/>
	<circle cx="111.52" cy="37.16" r="0.5"/>
	<circle cx="108.12" cy="37.16" r="0.5"/>
	<circle cx="101.77" cy="20.99" r="0.5"/>
	<circle cx="125.4" cy="10.33" r="0.5"/>
	<circle cx="125.4" cy="7.33" r="0.5"/>
	<circle cx="109.25" cy="13.19" r="0.5"/>
	<circle cx="110.39" cy="12.35" r="0.5"/>
	<circle cx="111.52" cy="13.19" r="0.5"/>
	<circle cx="115.5" cy="13.19" r="0.5"/>
	<circle cx="108.12" cy="38.6" r="0.5"/>
	<circle cx="101.57" cy="12.29" r="0.5"/>
	<circle cx="91.78" cy="37.55" r="0.5"/>
	<circle cx="119.46" cy="13.19" r="0.5"/>
	<circle cx="120.59" cy="12.19" r="0.5"/>
	<circle cx="118.32" cy="12.35" r="0.5"/>
	<circle cx="121.73" cy="13.19" r="0.5"/>
	<path d="M127.18,19.43c-0.27,0-0.5-0.22-0.5-0.5c0-0.27,0.22-0.5,0.5-0.5c0.27,0,0.5,0.22,0.5,0.5
		C127.68,19.21,127.46,19.43,127.18,19.43"/>
	<circle cx="127.18" cy="21.2" r="0.5"/>
	<circle cx="126.34" cy="22.34" r="0.5"/>
	<path d="M126.34,20.55c-0.27,0-0.5-0.22-0.5-0.5s0.22-0.5,0.5-0.5c0.27,0,0.5,0.22,0.5,0.5S126.61,20.55,126.34,20.55"/>
	<circle cx="147.98" cy="17.74" r="0.85"/>
	<circle cx="149.98" cy="17.02" r="0.85"/>
	<circle cx="152.03" cy="16.34" r="0.85"/>
	<circle cx="154.75" cy="15.65" r="0.85"/>
	<circle cx="141.95" cy="34.04" r="0.85"/>
	<circle cx="136.43" cy="34.04" r="0.85"/>
	<circle cx="145.63" cy="36.2" r="0.85"/>
	<circle cx="147.47" cy="39.07" r="0.85"/>
	<circle cx="134.57" cy="38.34" r="0.85"/>
	<circle cx="153.39" cy="37.66" r="0.85"/>
	<circle cx="145.63" cy="34.04" r="0.85"/>
	<circle cx="158.92" cy="34.04" r="0.85"/>
	<circle cx="153.39" cy="34.04" r="0.85"/>
	<circle cx="194.26" cy="55.26" r="0.85"/>
	<circle cx="202.69" cy="52.17" r="0.85"/>
	<circle cx="216.97" cy="54.78" r="0.85"/>
	<circle cx="224.75" cy="53.51" r="0.85"/>
	<circle cx="181.03" cy="17.29" r="0.85"/>
	<circle cx="167.84" cy="16.54" r="0.85"/>
	<circle cx="167.84" cy="21.82" r="0.85"/>
	<circle cx="132.73" cy="34.04" r="0.85"/>
	<circle cx="113.14" cy="46.95" r="0.85"/>
	<circle cx="165.84" cy="7.59" r="0.85"/>
	<circle cx="129.19" cy="24.31" r="0.5"/>
	<circle cx="95.43" cy="10.33" r="0.5"/>
	<circle cx="98.53" cy="7.33" r="0.5"/>
	<circle cx="115.96" cy="7.33" r="0.5"/>
	<circle cx="115.96" cy="10.33" r="0.5"/>
	<circle cx="103.97" cy="10.33" r="0.5"/>
	<circle cx="103.97" cy="7.33" r="0.5"/>
	<circle cx="94.71" cy="29.04" r="0.5"/>
	<circle cx="93.71" cy="29.04" r="0.5"/>
	<line class="st1" x1="94.71" y1="29.04" x2="93.71" y2="29.04"/>
	<line class="st2" x1="152.88" y1="20.43" x2="152.88" y2="21.7"/>
	<line class="st2" x1="140.5" y1="20.43" x2="140.5" y2="21.7"/>
	<path d="M157.14,21.66c0,0.09,0.01,3.11,0.02,3.19c0.12,0.86,0.85,1.52,1.74,1.52s1.62-0.65,1.75-1.5c0.01-0.09,0.02-3.11,0.02-3.2
		c0-0.97-0.79-1.76-1.77-1.76C157.93,19.9,157.14,20.69,157.14,21.66z"/>
	<path d="M157.14,10.24c0,0.09,0.01,2.27,0.02,2.35c0.12,0.86,0.85,1.52,1.74,1.52s1.62-0.65,1.75-1.5
		c0.01-0.09,0.02-2.28,0.02-2.37c0-0.97-0.79-1.76-1.77-1.76C157.93,8.48,157.14,9.27,157.14,10.24z"/>
	<path d="M132.65,21.66c0,0.09,0.01,3.11,0.02,3.19c0.12,0.86,0.85,1.52,1.74,1.52s1.62-0.65,1.75-1.5c0.01-0.09,0.02-3.11,0.02-3.2
		c0-0.97-0.79-1.76-1.77-1.76C133.44,19.9,132.65,20.69,132.65,21.66z"/>
	<path d="M132.65,10.24c0,0.09,0.01,2.27,0.02,2.35c0.12,0.86,0.85,1.52,1.74,1.52s1.62-0.65,1.75-1.5
		c0.01-0.09,0.02-2.28,0.02-2.37c0-0.97-0.79-1.76-1.77-1.76C133.44,8.48,132.65,9.27,132.65,10.24z"/>
	<line class="st3" x1="158.91" y1="15.11" x2="158.91" y2="7.68"/>
	<line class="st3" x1="155.71" y1="11.3" x2="164.08" y2="11.3"/>
	<line class="st3" x1="131.4" y1="11.3" x2="138.81" y2="11.3"/>
	<line class="st3" x1="134.41" y1="15.77" x2="134.41" y2="7.04"/>
	<line class="st3" x1="134.41" y1="27.44" x2="134.41" y2="18.83"/>
	<line class="st3" x1="134.41" y1="23.13" x2="131.15" y2="23.13"/>
	<line class="st3" x1="158.91" y1="27.51" x2="158.91" y2="18.69"/>
	<line class="st3" x1="158.91" y1="23.13" x2="162.21" y2="23.13"/>
	<circle cx="88" cy="44.53" r="0.85"/>
	<circle cx="88" cy="46.16" r="0.85"/>
	<circle cx="88" cy="47.8" r="0.85"/>
	<circle cx="88" cy="49.43" r="0.85"/>
	<circle cx="88" cy="51.07" r="0.85"/>
	<circle cx="87.98" cy="52.76" r="0.85"/>
	<circle cx="87.98" cy="54.4" r="0.85"/>
	<circle cx="87.98" cy="56.03" r="0.85"/>
	<circle cx="129.22" cy="49.91" r="0.85"/>
	<circle cx="129.22" cy="51.61" r="0.85"/>
	<line class="st2" x1="88" y1="44.53" x2="87.98" y2="56.03"/>
	<line class="st2" x1="129.22" y1="49.91" x2="129.22" y2="51.61"/>
	<circle cx="101.7" cy="37.55" r="0.85"/>
	<circle cx="227.7" cy="70.75" r="7.09"/>
	<circle cx="16.39" cy="70.75" r="7.09"/>
	<circle cx="159.81" cy="58.72" r="0.85"/>
	<circle cx="156.58" cy="58.69" r="0.85"/>
	<circle cx="183.9" cy="52.54" r="0.85"/>
	<circle cx="187.11" cy="52.54" r="0.85"/>
	<circle cx="147.74" cy="58.69" r="0.85"/>
	<line class="st4" x1="7.27" y1="70.75" x2="30.71" y2="70.75"/>
	<line class="st4" x1="16.39" y1="81.75" x2="16.39" y2="55.02"/>
	<line class="st4" x1="216.07" y1="70.75" x2="237.05" y2="70.75"/>
	<line class="st4" x1="227.7" y1="81.75" x2="227.7" y2="60.01"/>
	<circle cx="189.4" cy="76.42" r="1.84"/>
	<circle cx="195.52" cy="76.42" r="1.84"/>
	<circle cx="177.15" cy="76.42" r="1.84"/>
	<circle cx="183.27" cy="76.42" r="1.84"/>
	<circle cx="164.9" cy="76.42" r="1.84"/>
	<circle cx="171.03" cy="76.42" r="1.84"/>
	<circle cx="152.66" cy="76.42" r="1.84"/>
	<circle cx="158.78" cy="76.42" r="1.84"/>
	<circle cx="140.41" cy="76.42" r="1.84"/>
	<circle cx="122.04" cy="76.42" r="1.84"/>
	<circle cx="91.43" cy="76.42" r="1.84"/>
	<circle cx="97.55" cy="76.42" r="1.84"/>
	<circle cx="79.19" cy="76.42" r="1.84"/>
	<circle cx="85.31" cy="76.42" r="1.84"/>
	<circle cx="66.94" cy="76.42" r="1.84"/>
	<circle cx="73.06" cy="76.42" r="1.84"/>
	<circle cx="54.69" cy="76.42" r="1.84"/>
	<circle cx="60.82" cy="76.42" r="1.84"/>
	<circle cx="48.57" cy="76.42" r="1.84"/>
	<path d="M232.95,5.43H11.14c-2.93,0-5.31,2.38-5.31,5.31v91.47h232.43V10.74C238.26,7.81,235.88,5.43,232.95,5.43z M224.75,52.09
		c0.78,0,1.42,0.64,1.42,1.42s-0.64,1.42-1.42,1.42s-1.42-0.64-1.42-1.42S223.97,52.09,224.75,52.09z M220.8,16.62
		c1.56,0,2.83,1.28,2.83,2.84s-1.27,2.83-2.83,2.83s-2.84-1.27-2.84-2.83S219.24,16.62,220.8,16.62z M194.55,20.31
		c0.78,0,1.42,0.64,1.42,1.42c0,0.5-0.26,0.93-0.65,1.19c0.4,0.25,0.67,0.7,0.67,1.2c0,0.78-0.64,1.42-1.42,1.42
		s-1.42-0.64-1.42-1.42c0-0.5,0.26-0.93,0.65-1.19c-0.4-0.25-0.67-0.7-0.67-1.2C193.13,20.95,193.77,20.31,194.55,20.31z
		 M187.85,29.67c0.78,0,1.41,0.63,1.41,1.41s-0.63,1.42-1.41,1.42s-1.42-0.64-1.42-1.42C186.43,30.3,187.07,29.67,187.85,29.67z
		 M181.03,15.87c0.78,0,1.42,0.64,1.42,1.42c0,0.78-0.64,1.42-1.42,1.42s-1.42-0.64-1.42-1.42
		C179.61,16.51,180.25,15.87,181.03,15.87z M170.72,41.19c0.16,0,0.3,0.02,0.44,0.08c-0.01-0.07-0.02-0.15-0.02-0.23
		c0-0.78,0.64-1.42,1.42-1.42c0.17,0,0.33,0.03,0.47,0.09c0.14-0.62,0.7-1.09,1.37-1.09c0.17,0,0.33,0.03,0.48,0.09
		c0.14-0.62,0.69-1.09,1.37-1.09c0.17,0,0.33,0.03,0.47,0.09c0.14-0.62,0.7-1.09,1.37-1.09c0.17,0,0.33,0.03,0.47,0.09
		c0.14-0.62,0.7-1.09,1.37-1.09c0.17,0,0.33,0.03,0.47,0.09c0.14-0.62,0.7-1.09,1.37-1.09c0.17,0,0.33,0.03,0.48,0.09
		c0.14-0.62,0.69-1.09,1.37-1.09c0.17,0,0.33,0.03,0.47,0.09c0.14-0.62,0.7-1.09,1.37-1.09c0.54,0,1.01,0.3,1.24,0.75
		c0.26-0.36,0.68-0.59,1.15-0.59c0.78,0,1.41,0.64,1.41,1.42s-0.63,1.42-1.41,1.42c-0.54,0-1.01-0.3-1.24-0.75
		c-0.26,0.36-0.68,0.59-1.15,0.59c-0.17,0-0.33-0.03-0.48-0.09c-0.14,0.62-0.69,1.09-1.36,1.09c-0.17,0-0.33-0.03-0.48-0.09
		c-0.14,0.62-0.7,1.09-1.37,1.09c-0.17,0-0.33-0.03-0.47-0.09c-0.14,0.62-0.7,1.09-1.37,1.09c-0.17,0-0.33-0.03-0.48-0.09
		c-0.14,0.62-0.69,1.09-1.36,1.09c-0.17,0-0.33-0.03-0.48-0.09c-0.14,0.62-0.69,1.09-1.36,1.09c-0.17,0-0.33-0.03-0.48-0.09
		c-0.09,0.42-0.38,0.77-0.77,0.96c0.48,0.22,0.82,0.71,0.82,1.27c0,0.79-0.64,1.42-1.42,1.42c-0.15,0-0.29-0.02-0.42-0.07
		c-0.02,0.76-0.65,1.38-1.42,1.38s-1.4-0.62-1.42-1.38c-0.13,0.05-0.27,0.07-0.42,0.07c-0.78,0-1.42-0.63-1.42-1.42
		C169.3,41.82,169.94,41.19,170.72,41.19z M188.53,52.54c0,0.78-0.64,1.41-1.42,1.41s-1.42-0.63-1.42-1.41
		c0-0.79,0.64-1.42,1.42-1.42C187.89,51.12,188.53,51.75,188.53,52.54z M183.9,53.95c-0.78,0-1.42-0.63-1.42-1.41
		c0-0.79,0.64-1.42,1.42-1.42s1.41,0.63,1.41,1.42C185.31,53.32,184.68,53.95,183.9,53.95z M185.31,57.18
		c0,0.78-0.63,1.41-1.41,1.41s-1.42-0.63-1.42-1.41c0-0.79,0.64-1.42,1.42-1.42C184.68,55.76,185.31,56.39,185.31,57.18z
		 M182.1,52.54c0,0.78-0.64,1.41-1.42,1.41s-1.41-0.63-1.41-1.41c0-0.79,0.63-1.42,1.41-1.42C181.46,51.12,182.1,51.75,182.1,52.54z
		 M177.47,53.95c-0.78,0-1.42-0.63-1.42-1.41c0-0.79,0.64-1.42,1.42-1.42s1.42,0.63,1.42,1.42
		C178.89,53.32,178.25,53.95,177.47,53.95z M178.89,57.18c0,0.78-0.64,1.41-1.42,1.41s-1.42-0.63-1.42-1.41
		c0-0.79,0.64-1.42,1.42-1.42C178.25,55.76,178.89,56.39,178.89,57.18z M175.68,52.54c0,0.78-0.64,1.41-1.42,1.41
		s-1.42-0.63-1.42-1.41c0-0.79,0.64-1.42,1.42-1.42C175.04,51.12,175.68,51.75,175.68,52.54z M171.05,53.95
		c-0.79,0-1.42-0.63-1.42-1.41c0-0.79,0.63-1.42,1.42-1.42c0.78,0,1.41,0.63,1.41,1.42C172.46,53.32,171.83,53.95,171.05,53.95z
		 M172.46,57.18c0,0.78-0.63,1.41-1.41,1.41c-0.79,0-1.42-0.63-1.42-1.41c0-0.79,0.63-1.42,1.42-1.42
		C171.83,55.76,172.46,56.39,172.46,57.18z M169.26,16.54c0,0.78-0.64,1.42-1.42,1.42s-1.42-0.64-1.42-1.42
		c0-0.78,0.64-1.42,1.42-1.42C168.62,15.12,169.26,15.76,169.26,16.54z M164.62,53.95c-0.78,0-1.42-0.63-1.42-1.41
		c0-0.79,0.64-1.42,1.42-1.42s1.42,0.63,1.42,1.42C166.04,53.32,165.4,53.95,164.62,53.95z M166.04,57.18
		c0,0.78-0.64,1.41-1.42,1.41s-1.42-0.63-1.42-1.41c0-0.79,0.64-1.42,1.42-1.42C165.4,55.76,166.04,56.39,166.04,57.18z
		 M165.91,34.29c0-0.78,0.63-1.42,1.41-1.42s1.42,0.64,1.42,1.42s-0.64,1.41-1.42,1.41C166.54,35.7,165.91,35.07,165.91,34.29z
		 M167.83,51.12c0.78,0,1.42,0.63,1.42,1.42c0,0.78-0.64,1.41-1.42,1.41s-1.41-0.63-1.41-1.41
		C166.42,51.75,167.05,51.12,167.83,51.12z M167.84,23.24c-0.78,0-1.42-0.64-1.42-1.42s0.64-1.42,1.42-1.42s1.42,0.64,1.42,1.42
		S168.62,23.24,167.84,23.24z M165.84,6.17c0.78,0,1.42,0.64,1.42,1.42s-0.64,1.42-1.42,1.42s-1.42-0.64-1.42-1.42
		S165.06,6.17,165.84,6.17z M162.57,37.65c0.78,0,1.42,0.64,1.42,1.42s-0.64,1.41-1.42,1.41c-0.14,0-0.28-0.02-0.41-0.07
		c-0.06,0.72-0.67,1.27-1.4,1.27c-0.78,0-1.42-0.63-1.42-1.41s0.64-1.42,1.42-1.42c0.14,0,0.28,0.02,0.41,0.07
		C161.24,38.21,161.84,37.65,162.57,37.65z M162.83,52.54c0,0.78-0.64,1.41-1.42,1.41s-1.42-0.63-1.42-1.41
		c0-0.79,0.64-1.42,1.42-1.42C162.19,51.12,162.83,51.75,162.83,52.54z M158.19,51.12c0.79,0,1.42,0.63,1.42,1.42
		c0,0.78-0.63,1.41-1.42,1.41c-0.78,0-1.41-0.63-1.41-1.41C156.78,51.75,157.41,51.12,158.19,51.12z M157.5,34.04
		c0-0.78,0.63-1.42,1.42-1.42c0.78,0,1.41,0.64,1.41,1.42s-0.63,1.42-1.41,1.42C158.13,35.46,157.5,34.82,157.5,34.04z M158.9,7.91
		c1.29,0,2.34,1.05,2.34,2.33c0,0.02-0.01,2.29-0.03,2.45c-0.17,1.13-1.16,1.99-2.31,1.99s-2.14-0.87-2.3-2.01
		c-0.02-0.15-0.03-2.41-0.03-2.43C156.57,8.96,157.62,7.91,158.9,7.91z M156.84,20.56c0.4-0.73,1.18-1.23,2.06-1.23
		c1.29,0,2.34,1.04,2.34,2.33c0,0.03-0.01,3.12-0.03,3.28c-0.17,1.13-1.16,1.99-2.31,1.99s-2.14-0.86-2.3-2.01
		c-0.01-0.08-0.02-0.92-0.02-1.73c-0.41,0.48-1.02,0.78-1.7,0.78c-0.72,0-1.36-0.34-1.78-0.87c-0.07,0.01-0.15,0.02-0.22,0.02
		c-0.78,0-1.42-0.64-1.42-1.42v-1.28c0-0.78,0.64-1.41,1.42-1.41c0.47,0,0.9,0.23,1.15,0.59c0.26-0.11,0.55-0.17,0.85-0.17
		C155.71,19.43,156.44,19.88,156.84,20.56z M151.77,53.95c-0.78,0-1.42-0.63-1.42-1.41c0-0.79,0.64-1.42,1.42-1.42
		s1.42,0.63,1.42,1.42C153.19,53.32,152.55,53.95,151.77,53.95z M153.19,57.18c0,0.78-0.64,1.41-1.42,1.41s-1.42-0.63-1.42-1.41
		c0-0.79,0.64-1.42,1.42-1.42C152.55,55.76,153.19,56.39,153.19,57.18z M151.97,37.66c0-0.78,0.64-1.42,1.42-1.42
		s1.42,0.64,1.42,1.42s-0.64,1.42-1.42,1.42C152.61,39.08,151.97,38.44,151.97,37.66z M151.97,34.04c0-0.78,0.64-1.42,1.42-1.42
		s1.42,0.64,1.42,1.42s-0.64,1.42-1.42,1.42S151.97,34.82,151.97,34.04z M154.98,51.12c0.78,0,1.42,0.63,1.42,1.42
		c0,0.78-0.64,1.41-1.42,1.41s-1.42-0.63-1.42-1.41C153.56,51.75,154.2,51.12,154.98,51.12z M144.21,34.04
		c0-0.78,0.64-1.42,1.42-1.42s1.42,0.64,1.42,1.42c0,0.43-0.2,0.83-0.51,1.08c0.31,0.25,0.51,0.64,0.51,1.07
		c0,0.78-0.64,1.42-1.42,1.42s-1.42-0.64-1.42-1.42c0-0.43,0.2-0.82,0.51-1.07C144.41,34.87,144.21,34.47,144.21,34.04z
		 M147.47,37.65c0.78,0,1.42,0.64,1.42,1.42s-0.64,1.42-1.42,1.42s-1.41-0.64-1.41-1.42S146.69,37.65,147.47,37.65z M143.36,34.04
		c0,0.78-0.63,1.42-1.41,1.42s-1.42-0.64-1.42-1.42s0.64-1.42,1.42-1.42C142.73,32.62,143.36,33.26,143.36,34.04z M134.41,7.91
		c1.28,0,2.33,1.05,2.33,2.33c0,0.02,0,2.29-0.03,2.45c-0.16,1.13-1.16,1.99-2.3,1.99c-1.16,0-2.15-0.87-2.31-2.01
		c-0.02-0.15-0.02-2.41-0.02-2.43C132.08,8.96,133.12,7.91,134.41,7.91z M134.41,19.33c0.91,0,1.7,0.52,2.09,1.29
		c0.39-0.71,1.13-1.19,2-1.19c0.3,0,0.59,0.06,0.85,0.17c0.25-0.36,0.67-0.59,1.15-0.59c0.78,0,1.41,0.63,1.41,1.41v1.28
		c0,0.78-0.63,1.42-1.41,1.42c-0.07,0-0.15-0.01-0.22-0.02c-0.42,0.53-1.06,0.87-1.78,0.87c-0.71,0-1.34-0.32-1.76-0.83
		c-0.01,0.83-0.01,1.72-0.03,1.8c-0.16,1.13-1.16,1.99-2.3,1.99c-1.16,0-2.15-0.86-2.31-2.01c-0.02-0.15-0.02-3.23-0.02-3.26
		C132.08,20.37,133.12,19.33,134.41,19.33z M140.34,52.54c0,0.78-0.64,1.41-1.42,1.41s-1.42-0.63-1.42-1.41
		c0-0.79,0.64-1.42,1.42-1.42C139.7,51.12,140.34,51.75,140.34,52.54z M134.57,36.92c0.78,0,1.42,0.64,1.42,1.42
		s-0.64,1.42-1.42,1.42s-1.42-0.64-1.42-1.42C133.15,37.56,133.79,36.92,134.57,36.92z M132.73,32.62c0.78,0,1.42,0.64,1.42,1.42
		s-0.64,1.42-1.42,1.42s-1.41-0.64-1.41-1.42C131.32,33.26,131.95,32.62,132.73,32.62z M129.19,23.24c0.58,0,1.06,0.48,1.06,1.06
		c0,0.59-0.48,1.07-1.06,1.07c-0.59,0-1.06-0.48-1.06-1.07C128.13,23.72,128.6,23.24,129.19,23.24z M128.24,18.93
		c0,0.52-0.36,0.95-0.85,1.05c0.01,0.02,0.01,0.05,0.01,0.07c0,0.04,0,0.07-0.01,0.11c0.49,0.1,0.85,0.52,0.85,1.04
		s-0.36,0.94-0.85,1.04c0.01,0.03,0.01,0.06,0.01,0.09c0,0.59-0.48,1.07-1.06,1.07c-0.59,0-1.06-0.48-1.06-1.07
		c0-0.51,0.36-0.94,0.85-1.04c-0.01-0.03-0.01-0.06-0.01-0.09c0-0.04,0-0.07,0.01-0.1c-0.49-0.1-0.85-0.53-0.85-1.05
		c0-0.51,0.36-0.94,0.85-1.04c-0.01-0.03-0.01-0.05-0.01-0.08c0-0.58,0.47-1.06,1.06-1.06C127.77,17.87,128.24,18.35,128.24,18.93z
		 M125.4,6.26c0.58,0,1.06,0.48,1.06,1.07c0,0.58-0.48,1.06-1.06,1.06c-0.59,0-1.07-0.48-1.07-1.06
		C124.33,6.74,124.81,6.26,125.4,6.26z M118.32,11.28c0.52,0,0.95,0.37,1.05,0.85c0.03-0.01,0.06-0.01,0.09-0.01s0.06,0,0.08,0.01
		c0.02-0.56,0.48-1.01,1.05-1.01s1.03,0.45,1.05,1.01c0.02-0.01,0.05-0.01,0.08-0.01c0.59,0,1.07,0.48,1.07,1.06
		c0,0.59-0.48,1.07-1.07,1.07c-0.56,0-1.03-0.45-1.05-1.01c-0.02,0.01-0.05,0.01-0.08,0.01s-0.06,0-0.08-0.01
		c-0.02,0.56-0.49,1.01-1.05,1.01c-0.52,0-0.95-0.37-1.05-0.85c-0.03,0.01-0.06,0.01-0.09,0.01c-0.58,0-1.06-0.48-1.06-1.07
		C117.26,11.76,117.74,11.28,118.32,11.28z M115.96,6.26c0.58,0,1.06,0.48,1.06,1.07c0,0.58-0.48,1.06-1.06,1.06
		c-0.59,0-1.07-0.48-1.07-1.06C114.89,6.74,115.37,6.26,115.96,6.26z M115.96,9.26c0.58,0,1.06,0.48,1.06,1.07
		c0,0.58-0.48,1.06-1.06,1.06c-0.59,0-1.07-0.48-1.07-1.06C114.89,9.74,115.37,9.26,115.96,9.26z M115.5,12.12
		c0.59,0,1.06,0.48,1.06,1.06c0,0.59-0.47,1.07-1.06,1.07s-1.06-0.48-1.06-1.07C114.44,12.6,114.91,12.12,115.5,12.12z
		 M102.84,22.55c0,0.58-0.48,1.06-1.07,1.06c-0.58,0-1.06-0.48-1.06-1.06c0-0.31,0.13-0.59,0.34-0.78c-0.21-0.2-0.34-0.48-0.34-0.78
		c0-0.59,0.48-1.07,1.06-1.07c0.59,0,1.07,0.48,1.07,1.07c0,0.3-0.13,0.58-0.34,0.78C102.71,21.96,102.84,22.24,102.84,22.55z
		 M101.57,11.22c0.58,0,1.06,0.48,1.06,1.07c0,0.58-0.48,1.06-1.06,1.06c-0.59,0-1.07-0.48-1.07-1.06
		C100.5,11.7,100.98,11.22,101.57,11.22z M98.53,6.26c0.58,0,1.06,0.48,1.06,1.07c0,0.58-0.48,1.06-1.06,1.06
		c-0.59,0-1.07-0.48-1.07-1.06C97.46,6.74,97.94,6.26,98.53,6.26z M98.53,15.26c0.58,0,1.06,0.48,1.06,1.07
		c0,0.58-0.48,1.06-1.06,1.06c-0.59,0-1.07-0.48-1.07-1.06C97.46,15.74,97.94,15.26,98.53,15.26z M98.53,18.26
		c0.58,0,1.06,0.48,1.06,1.07c0,0.58-0.48,1.06-1.06,1.06c-0.59,0-1.07-0.48-1.07-1.06C97.46,18.74,97.94,18.26,98.53,18.26z
		 M98.53,21.26c0.58,0,1.06,0.48,1.06,1.07c0,0.58-0.48,1.06-1.06,1.06c-0.59,0-1.07-0.48-1.07-1.06
		C97.46,21.74,97.94,21.26,98.53,21.26z M98.53,24.27c0.58,0,1.06,0.47,1.06,1.06s-0.48,1.06-1.06,1.06c-0.59,0-1.07-0.47-1.07-1.06
		S97.94,24.27,98.53,24.27z M95.43,9.26c0.59,0,1.06,0.48,1.06,1.07c0,0.58-0.47,1.06-1.06,1.06s-1.06-0.48-1.06-1.06
		C94.37,9.74,94.84,9.26,95.43,9.26z M91.78,36.48c0.59,0,1.06,0.48,1.06,1.07c0,0.58-0.47,1.06-1.06,1.06
		c-0.58,0-1.06-0.48-1.06-1.06C90.72,36.96,91.2,36.48,91.78,36.48z M16.39,78.4c-4.22,0-7.66-3.43-7.66-7.65s3.44-7.66,7.66-7.66
		s7.65,3.44,7.65,7.66C24.04,74.97,20.61,78.4,16.39,78.4z M48.57,78.83c-1.33,0-2.41-1.08-2.41-2.41s1.08-2.41,2.41-2.41
		s2.41,1.08,2.41,2.41S49.9,78.83,48.57,78.83z M54.69,78.83c-1.33,0-2.41-1.08-2.41-2.41s1.08-2.41,2.41-2.41s2.41,1.08,2.41,2.41
		S56.02,78.83,54.69,78.83z M60.82,78.83c-1.33,0-2.41-1.08-2.41-2.41s1.08-2.41,2.41-2.41c1.32,0,2.41,1.08,2.41,2.41
		S62.14,78.83,60.82,78.83z M66.94,78.83c-1.33,0-2.41-1.08-2.41-2.41s1.08-2.41,2.41-2.41s2.41,1.08,2.41,2.41
		C69.35,77.75,68.27,78.83,66.94,78.83z M73.06,78.83c-1.33,0-2.41-1.08-2.41-2.41s1.08-2.41,2.41-2.41s2.41,1.08,2.41,2.41
		S74.39,78.83,73.06,78.83z M79.18,78.83c-1.32,0-2.41-1.08-2.41-2.41s1.09-2.41,2.41-2.41c1.33,0,2.41,1.08,2.41,2.41
		C81.59,77.75,80.51,78.83,79.18,78.83z M85.31,78.83c-1.33,0-2.41-1.08-2.41-2.41s1.08-2.41,2.41-2.41s2.41,1.08,2.41,2.41
		S86.64,78.83,85.31,78.83z M87.98,57.45c-0.78,0-1.41-0.64-1.41-1.42l0.01-11.51c0-0.78,0.63-1.42,1.42-1.42
		c0.78,0,1.41,0.64,1.41,1.42L89.4,56.03C89.4,56.81,88.76,57.45,87.98,57.45z M91.43,78.83c-1.33,0-2.41-1.08-2.41-2.41
		s1.08-2.41,2.41-2.41s2.41,1.08,2.41,2.41C93.84,77.75,92.76,78.83,91.43,78.83z M93.71,30.1c-0.58,0-1.06-0.47-1.06-1.06
		s0.48-1.06,1.06-1.06h1c0.59,0,1.07,0.47,1.07,1.06s-0.48,1.06-1.07,1.06H93.71z M97.55,78.83c-1.33,0-2.41-1.08-2.41-2.41
		s1.08-2.41,2.41-2.41s2.41,1.08,2.41,2.41C99.96,77.75,98.88,78.83,97.55,78.83z M101.7,38.96c-0.78,0-1.41-0.63-1.41-1.41
		c0-0.79,0.63-1.42,1.41-1.42c0.78,0,1.42,0.63,1.42,1.42C103.12,38.33,102.48,38.96,101.7,38.96z M103.97,11.39
		c-0.59,0-1.06-0.48-1.06-1.06c0-0.59,0.47-1.07,1.06-1.07c0.58,0,1.06,0.48,1.06,1.07C105.03,10.91,104.55,11.39,103.97,11.39z
		 M103.97,8.39c-0.59,0-1.06-0.48-1.06-1.06c0-0.59,0.47-1.07,1.06-1.07c0.58,0,1.06,0.48,1.06,1.07
		C105.03,7.91,104.55,8.39,103.97,8.39z M109.18,38.59c0,0.59-0.48,1.07-1.07,1.07c-0.58,0-1.06-0.48-1.06-1.07
		c0-0.28,0.11-0.53,0.29-0.72c-0.18-0.19-0.28-0.44-0.28-0.71c0-0.59,0.47-1.07,1.06-1.07c0.58,0,1.06,0.48,1.06,1.07
		c0,0.28-0.11,0.53-0.28,0.72C109.07,38.07,109.18,38.32,109.18,38.59z M108.19,13.18c0-0.58,0.48-1.06,1.06-1.06
		c0.03,0,0.06,0,0.09,0.01c0.1-0.48,0.53-0.85,1.05-0.85c0.51,0,0.94,0.37,1.04,0.85c0.03-0.01,0.06-0.01,0.09-0.01
		c0.59,0,1.06,0.48,1.06,1.06c0,0.59-0.47,1.07-1.06,1.07c-0.52,0-0.94-0.37-1.04-0.85c-0.03,0.01-0.06,0.01-0.09,0.01
		s-0.06,0-0.09-0.01c-0.1,0.48-0.53,0.85-1.05,0.85C108.67,14.25,108.19,13.77,108.19,13.18z M110.79,52.04
		c-0.78,0-1.42-0.64-1.42-1.42s0.64-1.41,1.42-1.41s1.42,0.63,1.42,1.41S111.57,52.04,110.79,52.04z M113.14,48.37
		c-0.38,0-0.72-0.15-0.97-0.39c-0.15,0.62-0.71,1.08-1.38,1.08c-0.78,0-1.42-0.63-1.42-1.41c0-0.79,0.64-1.42,1.42-1.42
		c0.38,0,0.72,0.15,0.97,0.39c0.15-0.62,0.7-1.09,1.38-1.09c0.78,0,1.41,0.64,1.41,1.42S113.92,48.37,113.14,48.37z M116.06,38.22
		c-0.05,0-0.11,0-0.16-0.01c-0.17,0.37-0.54,0.64-0.98,0.64c-0.43,0-0.81-0.27-0.98-0.64c-0.05,0.01-0.1,0.01-0.15,0.01
		s-0.1,0-0.15-0.01c-0.17,0.38-0.55,0.65-0.99,0.65c-0.43,0-0.81-0.27-0.98-0.65c-0.05,0.01-0.1,0.01-0.15,0.01s-0.1,0-0.15-0.01
		c-0.17,0.37-0.55,0.64-0.98,0.64c-0.59,0-1.07-0.48-1.07-1.06c0-0.59,0.48-1.07,1.07-1.07c0.06,0,0.11,0,0.16,0.02
		c0.16-0.38,0.53-0.64,0.97-0.64s0.81,0.26,0.98,0.64c0.05-0.01,0.1-0.01,0.15-0.01s0.1,0,0.15,0.01c0.17-0.38,0.55-0.64,0.99-0.64
		c0.43,0,0.81,0.26,0.97,0.64c0.05-0.02,0.1-0.02,0.16-0.02c0.05,0,0.1,0,0.15,0.01c0.17-0.37,0.55-0.64,0.99-0.64
		c0.58,0,1.06,0.48,1.06,1.07C117.12,37.74,116.64,38.22,116.06,38.22z M118.41,38.21c-0.03,0.01-0.06,0.01-0.09,0.01
		c-0.58,0-1.06-0.48-1.06-1.07c0-0.58,0.48-1.06,1.06-1.06c0.52,0,0.95,0.37,1.05,0.85c0.03-0.01,0.06-0.01,0.09-0.01
		s0.06,0,0.09,0.01c0.1-0.48,0.52-0.85,1.04-0.85c0.52,0,0.94,0.37,1.04,0.85c0.03-0.01,0.06-0.01,0.09-0.01
		c0.59,0,1.07,0.48,1.07,1.06c0,0.59-0.48,1.07-1.07,1.07c-0.51,0-0.94-0.37-1.04-0.85c-0.03,0.01-0.06,0.01-0.09,0.01
		s-0.06,0-0.09-0.01c-0.1,0.48-0.53,0.85-1.04,0.85C118.94,39.06,118.51,38.69,118.41,38.21z M122.04,78.83
		c-1.32,0-2.41-1.08-2.41-2.41s1.09-2.41,2.41-2.41c1.33,0,2.41,1.08,2.41,2.41C124.45,77.75,123.37,78.83,122.04,78.83z
		 M122.04,67.49c-1.32,0-2.41-1.08-2.41-2.41s1.09-2.41,2.41-2.41c1.33,0,2.41,1.08,2.41,2.41
		C124.45,66.41,123.37,67.49,122.04,67.49z M124.33,10.33c0-0.59,0.48-1.07,1.07-1.07c0.58,0,1.06,0.48,1.06,1.07
		c0,0.58-0.48,1.06-1.06,1.06C124.81,11.39,124.33,10.91,124.33,10.33z M126.34,33.6c-0.59,0-1.06-0.48-1.06-1.06
		c0-0.52,0.36-0.95,0.85-1.05c-0.01-0.03-0.01-0.06-0.01-0.09s0-0.06,0.01-0.09c-0.49-0.1-0.85-0.52-0.85-1.04s0.36-0.94,0.85-1.04
		c-0.01-0.03-0.01-0.06-0.01-0.09c0-0.59,0.47-1.07,1.06-1.07s1.06,0.48,1.06,1.07c0,0.51-0.36,0.94-0.85,1.04
		c0.01,0.03,0.01,0.06,0.01,0.09s0,0.06-0.01,0.09c0.49,0.1,0.85,0.53,0.85,1.04c0,0.52-0.36,0.95-0.85,1.05
		c0.01,0.03,0.01,0.06,0.01,0.09C127.4,33.12,126.92,33.6,126.34,33.6z M130.64,51.61c0,0.78-0.64,1.42-1.42,1.42
		s-1.42-0.64-1.42-1.42c0-0.03,0-0.06,0.01-0.09V50c-0.01-0.03-0.01-0.06-0.01-0.09c0-0.78,0.64-1.42,1.42-1.42s1.42,0.64,1.42,1.42
		V51.61z M132.49,58.59c-0.78,0-1.41-0.63-1.41-1.41c0-0.79,0.63-1.42,1.41-1.42s1.42,0.63,1.42,1.42
		C133.91,57.96,133.27,58.59,132.49,58.59z M132.49,53.95c-0.78,0-1.41-0.63-1.41-1.41c0-0.79,0.63-1.42,1.41-1.42
		s1.42,0.63,1.42,1.42C133.91,53.32,133.27,53.95,132.49,53.95z M135.71,58.59c-0.79,0-1.42-0.63-1.42-1.41
		c0-0.79,0.63-1.42,1.42-1.42c0.78,0,1.41,0.63,1.41,1.42C137.12,57.96,136.49,58.59,135.71,58.59z M135.71,53.95
		c-0.79,0-1.42-0.63-1.42-1.41c0-0.79,0.63-1.42,1.42-1.42c0.78,0,1.41,0.63,1.41,1.42C137.12,53.32,136.49,53.95,135.71,53.95z
		 M136.43,35.46c-0.78,0-1.42-0.64-1.42-1.42s0.64-1.42,1.42-1.42s1.42,0.64,1.42,1.42C137.85,34.82,137.21,35.46,136.43,35.46z
		 M137.5,57.18c0-0.79,0.64-1.42,1.42-1.42s1.42,0.63,1.42,1.42c0,0.78-0.64,1.41-1.42,1.41S137.5,57.96,137.5,57.18z M140.41,78.83
		c-1.33,0-2.41-1.08-2.41-2.41s1.08-2.41,2.41-2.41s2.41,1.08,2.41,2.41S141.74,78.83,140.41,78.83z M142.13,58.59
		c-0.78,0-1.42-0.63-1.42-1.41c0-0.79,0.64-1.42,1.42-1.42s1.42,0.63,1.42,1.42C143.55,57.96,142.91,58.59,142.13,58.59z
		 M142.13,53.95c-0.78,0-1.42-0.63-1.42-1.41c0-0.79,0.64-1.42,1.42-1.42s1.42,0.63,1.42,1.42
		C143.55,53.32,142.91,53.95,142.13,53.95z M147.74,60.1c-0.78,0-1.42-0.63-1.42-1.41c0-0.26,0.07-0.51,0.2-0.72
		c-0.26,0.37-0.69,0.62-1.18,0.62c-0.78,0-1.41-0.63-1.41-1.41c0-0.79,0.63-1.42,1.41-1.42c0.79,0,1.42,0.63,1.42,1.42
		c0,0.26-0.07,0.51-0.2,0.72c0.26-0.38,0.69-0.63,1.18-0.63c0.78,0,1.42,0.64,1.42,1.42C149.16,59.47,148.52,60.1,147.74,60.1z
		 M148.56,53.95c-0.78,0-1.42-0.63-1.42-1.41c0-0.79,0.64-1.42,1.42-1.42s1.41,0.63,1.41,1.42
		C149.97,53.32,149.34,53.95,148.56,53.95z M149.3,18.26c-0.21,0.53-0.72,0.9-1.32,0.9c-0.78,0-1.42-0.64-1.42-1.42
		s0.64-1.42,1.42-1.42c0.25,0,0.48,0.06,0.68,0.18c0.21-0.53,0.72-0.9,1.32-0.9c0.27,0,0.52,0.08,0.73,0.21
		c0.21-0.52,0.72-0.89,1.32-0.89c0.61,0,1.13,0.39,1.32,0.93c-0.02-0.07-0.02-0.13-0.02-0.2c0-0.78,0.63-1.42,1.42-1.42
		c0.78,0,1.41,0.64,1.41,1.42s-0.63,1.42-1.41,1.42c-0.62,0-1.14-0.4-1.33-0.95c0.01,0.07,0.02,0.15,0.02,0.22
		c0,0.78-0.63,1.41-1.41,1.41c-0.27,0-0.52-0.07-0.73-0.21c-0.21,0.53-0.72,0.9-1.32,0.9C149.73,18.44,149.5,18.38,149.3,18.26z
		 M152.66,78.83c-1.33,0-2.41-1.08-2.41-2.41s1.08-2.41,2.41-2.41s2.41,1.08,2.41,2.41S153.99,78.83,152.66,78.83z M158.78,78.83
		c-1.33,0-2.41-1.08-2.41-2.41s1.08-2.41,2.41-2.41s2.41,1.08,2.41,2.41S160.11,78.83,158.78,78.83z M161.41,58.59
		c-0.07,0-0.14-0.01-0.21-0.02c0.02,0.04,0.02,0.09,0.02,0.14c0,0.79-0.63,1.42-1.42,1.42c-0.78,0-1.41-0.63-1.41-1.42
		c0-0.05,0-0.1,0.02-0.14c-0.07,0.01-0.15,0.02-0.22,0.02s-0.14-0.01-0.2-0.02c0.01,0.04,0.01,0.08,0.01,0.12
		c0,0.78-0.64,1.41-1.42,1.41s-1.41-0.63-1.41-1.41s0.63-1.42,1.41-1.42c0.07,0,0.14,0.01,0.21,0.02c-0.01-0.03-0.01-0.07-0.01-0.11
		c0-0.79,0.63-1.42,1.41-1.42c0.79,0,1.42,0.63,1.42,1.42c0,0.05,0,0.1-0.02,0.14c0.07-0.01,0.14-0.02,0.21-0.02
		s0.14,0.01,0.21,0.02c-0.02-0.04-0.02-0.09-0.02-0.14c0-0.79,0.64-1.42,1.42-1.42s1.42,0.63,1.42,1.42
		C162.83,57.96,162.19,58.59,161.41,58.59z M164.9,78.83c-1.32,0-2.41-1.08-2.41-2.41s1.09-2.41,2.41-2.41
		c1.33,0,2.41,1.08,2.41,2.41S166.23,78.83,164.9,78.83z M166.42,57.18c0-0.79,0.63-1.42,1.41-1.42s1.42,0.63,1.42,1.42
		c0,0.78-0.64,1.41-1.42,1.41S166.42,57.96,166.42,57.18z M171.03,78.83c-1.33,0-2.41-1.08-2.41-2.41s1.08-2.41,2.41-2.41
		s2.41,1.08,2.41,2.41S172.36,78.83,171.03,78.83z M172.84,57.18c0-0.79,0.64-1.42,1.42-1.42s1.42,0.63,1.42,1.42
		c0,0.78-0.64,1.41-1.42,1.41S172.84,57.96,172.84,57.18z M177.15,78.83c-1.33,0-2.41-1.08-2.41-2.41s1.08-2.41,2.41-2.41
		s2.41,1.08,2.41,2.41S178.48,78.83,177.15,78.83z M179.27,57.18c0-0.79,0.63-1.42,1.41-1.42s1.42,0.63,1.42,1.42
		c0,0.78-0.64,1.41-1.42,1.41C179.9,58.59,179.27,57.96,179.27,57.18z M183.27,78.83c-1.33,0-2.41-1.08-2.41-2.41
		s1.08-2.41,2.41-2.41s2.41,1.08,2.41,2.41C185.68,77.75,184.6,78.83,183.27,78.83z M185.68,57.18c0-0.79,0.64-1.42,1.42-1.42
		s1.42,0.63,1.42,1.42c0,0.78-0.64,1.41-1.42,1.41C186.32,58.59,185.68,57.96,185.68,57.18z M189.4,78.83
		c-1.33,0-2.41-1.08-2.41-2.41s1.08-2.41,2.41-2.41c1.32,0,2.4,1.08,2.4,2.41C191.8,77.75,190.72,78.83,189.4,78.83z M192.43,31.08
		c0-0.68,0.49-1.25,1.14-1.38c-0.26-0.26-0.43-0.63-0.43-1.03c0-0.78,0.63-1.41,1.42-1.41c0.78,0,1.41,0.63,1.41,1.41
		c0,0.69-0.49,1.27-1.14,1.39c0.26,0.26,0.43,0.62,0.43,1.02c0,0.78-0.63,1.42-1.41,1.42C193.07,32.5,192.43,31.86,192.43,31.08z
		 M194.55,41.85c-0.78,0-1.42-0.63-1.42-1.41s0.64-1.42,1.42-1.42s1.42,0.64,1.42,1.42C195.97,41.22,195.33,41.85,194.55,41.85z
		 M195.97,43.55c0,0.79-0.64,1.42-1.42,1.42s-1.42-0.63-1.42-1.42c0-0.78,0.64-1.41,1.42-1.41S195.97,42.77,195.97,43.55z
		 M194.26,53.84c0.78,0,1.42,0.63,1.42,1.42c0,0.78-0.64,1.41-1.42,1.41s-1.41-0.63-1.41-1.41
		C192.85,54.47,193.48,53.84,194.26,53.84z M195.52,78.83c-1.33,0-2.41-1.08-2.41-2.41s1.08-2.41,2.41-2.41s2.41,1.08,2.41,2.41
		C197.93,77.75,196.85,78.83,195.52,78.83z M202.69,53.59c-0.78,0-1.42-0.64-1.42-1.42s0.64-1.42,1.42-1.42s1.41,0.64,1.41,1.42
		S203.47,53.59,202.69,53.59z M216.97,56.2c-0.78,0-1.42-0.64-1.42-1.42s0.64-1.42,1.42-1.42s1.42,0.64,1.42,1.42
		S217.75,56.2,216.97,56.2z M217.96,42c0-1.56,1.28-2.83,2.84-2.83s2.83,1.27,2.83,2.83s-1.27,2.83-2.83,2.83
		S217.96,43.56,217.96,42z M227.7,78.4c-4.22,0-7.65-3.43-7.65-7.65s3.43-7.66,7.65-7.66s7.65,3.44,7.65,7.66
		C235.35,74.97,231.92,78.4,227.7,78.4z"/>
	<circle cx="122.04" cy="65.08" r="1.84"/>
</g>
</svg>
