<?xml version="1.0" encoding="utf-8"?>
<!-- Generator: Adobe Illustrator 27.0.0, SVG Export Plug-In . SVG Version: 6.00 Build 0)  -->
<svg version="1.1" id="Calque_1" xmlns="http://www.w3.org/2000/svg" xmlns:xlink="http://www.w3.org/1999/xlink" x="0px" y="0px"
	 viewBox="0 0 243.18 106.64" style="enable-background:new 0 0 243.18 106.64;" xml:space="preserve">
<style type="text/css">
	.st0{fill:none;stroke:#000000;stroke-width:0.1;stroke-miterlimit:10;}
</style>
<path class="st0" d="M232.95,4.01H11.14c-3.72,0-6.73,3.02-6.73,6.73v92.88h235.27V10.74C239.68,7.02,236.66,4.01,232.95,4.01z"/>
<g>
	<path d="M114.71,25.78c0-0.16,0.13-0.28,0.28-0.28h2.78c0.16,0,0.28,0.13,0.28,0.28v2.78c0,0.16-0.13,0.28-0.28,0.28H115
		c-0.16,0-0.28-0.13-0.28-0.28v-2.78H114.71z"/>
	<path d="M110.68,25.78c0-0.16,0.13-0.28,0.28-0.28h2.78c0.16,0,0.28,0.13,0.28,0.28v2.78c0,0.16-0.13,0.28-0.28,0.28h-2.78
		c-0.16,0-0.28-0.13-0.28-0.28V25.78z"/>
	<path d="M114.71,21.77c0-0.16,0.13-0.28,0.28-0.28h2.78c0.16,0,0.28,0.13,0.28,0.28v2.78c0,0.16-0.13,0.28-0.28,0.28H115
		c-0.16,0-0.28-0.13-0.28-0.28v-2.78H114.71z"/>
	<path d="M110.68,21.77c0-0.16,0.13-0.28,0.28-0.28h2.78c0.16,0,0.28,0.13,0.28,0.28v2.78c0,0.16-0.13,0.28-0.28,0.28h-2.78
		c-0.16,0-0.28-0.13-0.28-0.28V21.77z"/>
	<path d="M106.99,14.19c0.16,0,0.28,0.13,0.28,0.28v1.91c0,0.16-0.13,0.28-0.28,0.28l0,0c-0.16,0-0.28-0.13-0.28-0.28v-1.91
		C106.7,14.31,106.83,14.19,106.99,14.19L106.99,14.19z"/>
	<path d="M108.12,14.19c0.16,0,0.28,0.13,0.28,0.28v1.91c0,0.16-0.13,0.28-0.28,0.28l0,0c-0.16,0-0.28-0.13-0.28-0.28v-1.91
		C107.84,14.31,107.96,14.19,108.12,14.19L108.12,14.19z"/>
	<path d="M109.25,14.19c0.16,0,0.28,0.13,0.28,0.28v1.91c0,0.16-0.13,0.28-0.28,0.28l0,0c-0.16,0-0.28-0.13-0.28-0.28v-1.91
		C108.97,14.31,109.1,14.19,109.25,14.19L109.25,14.19z"/>
	<path d="M110.39,14.19c0.16,0,0.28,0.13,0.28,0.28v1.91c0,0.16-0.13,0.28-0.28,0.28l0,0c-0.16,0-0.28-0.13-0.28-0.28v-1.91
		C110.1,14.31,110.23,14.19,110.39,14.19L110.39,14.19z"/>
	<path d="M111.52,14.19c0.16,0,0.28,0.13,0.28,0.28v1.91c0,0.16-0.13,0.28-0.28,0.28l0,0c-0.16,0-0.28-0.13-0.28-0.28v-1.91
		C111.24,14.31,111.37,14.19,111.52,14.19L111.52,14.19z"/>
	<path d="M112.65,14.19c0.16,0,0.28,0.13,0.28,0.28v1.91c0,0.16-0.13,0.28-0.28,0.28l0,0c-0.16,0-0.28-0.13-0.28-0.28v-1.91
		C112.37,14.31,112.5,14.19,112.65,14.19L112.65,14.19z"/>
	<path d="M113.79,14.19c0.16,0,0.28,0.13,0.28,0.28v1.91c0,0.16-0.13,0.28-0.28,0.28l0,0c-0.16,0-0.28-0.13-0.28-0.28v-1.91
		C113.51,14.31,113.63,14.19,113.79,14.19L113.79,14.19z"/>
	<path d="M114.92,14.19c0.16,0,0.28,0.13,0.28,0.28v1.91c0,0.16-0.13,0.28-0.28,0.28l0,0c-0.16,0-0.28-0.13-0.28-0.28v-1.91
		C114.64,14.31,114.77,14.19,114.92,14.19L114.92,14.19z"/>
	<path d="M116.06,14.19c0.16,0,0.28,0.13,0.28,0.28v1.91c0,0.16-0.13,0.28-0.28,0.28l0,0c-0.16,0-0.28-0.13-0.28-0.28v-1.91
		C115.77,14.31,115.9,14.19,116.06,14.19L116.06,14.19z"/>
	<path d="M117.19,14.19c0.16,0,0.28,0.13,0.28,0.28v1.91c0,0.16-0.13,0.28-0.28,0.28l0,0c-0.16,0-0.28-0.13-0.28-0.28v-1.91
		C116.91,14.31,117.03,14.19,117.19,14.19L117.19,14.19z"/>
	<path d="M118.32,14.19c0.16,0,0.28,0.13,0.28,0.28v1.91c0,0.16-0.13,0.28-0.28,0.28l0,0c-0.16,0-0.28-0.13-0.28-0.28v-1.91
		C118.04,14.31,118.17,14.19,118.32,14.19L118.32,14.19z"/>
	<path d="M119.46,14.19c0.16,0,0.28,0.13,0.28,0.28v1.91c0,0.16-0.13,0.28-0.28,0.28l0,0c-0.16,0-0.28-0.13-0.28-0.28v-1.91
		C119.17,14.31,119.3,14.19,119.46,14.19L119.46,14.19z"/>
	<path d="M120.59,14.19c0.16,0,0.28,0.13,0.28,0.28v1.91c0,0.16-0.13,0.28-0.28,0.28l0,0c-0.16,0-0.28-0.13-0.28-0.28v-1.91
		C120.31,14.31,120.44,14.19,120.59,14.19L120.59,14.19z"/>
	<path d="M121.73,14.19c0.16,0,0.28,0.13,0.28,0.28v1.91c0,0.16-0.13,0.28-0.28,0.28l0,0c-0.16,0-0.28-0.13-0.28-0.28v-1.91
		C121.44,14.31,121.57,14.19,121.73,14.19L121.73,14.19z"/>
	<path d="M103.37,32.54c0-0.16,0.13-0.28,0.28-0.28h1.91c0.16,0,0.28,0.13,0.28,0.28l0,0c0,0.16-0.13,0.28-0.28,0.28h-1.91
		C103.5,32.82,103.37,32.7,103.37,32.54L103.37,32.54z"/>
	<path d="M103.37,31.41c0-0.16,0.13-0.28,0.28-0.28h1.91c0.16,0,0.28,0.13,0.28,0.28l0,0c0,0.16-0.13,0.28-0.28,0.28h-1.91
		C103.5,31.69,103.37,31.56,103.37,31.41L103.37,31.41z"/>
	<path d="M103.37,30.27c0-0.16,0.13-0.28,0.28-0.28h1.91c0.16,0,0.28,0.13,0.28,0.28l0,0c0,0.16-0.13,0.28-0.28,0.28h-1.91
		C103.5,30.56,103.37,30.43,103.37,30.27L103.37,30.27z"/>
	<path d="M103.37,29.14c0-0.16,0.13-0.28,0.28-0.28h1.91c0.16,0,0.28,0.13,0.28,0.28l0,0c0,0.16-0.13,0.28-0.28,0.28h-1.91
		C103.5,29.42,103.37,29.29,103.37,29.14L103.37,29.14z"/>
	<path d="M103.37,28.01c0-0.16,0.13-0.28,0.28-0.28h1.91c0.16,0,0.28,0.13,0.28,0.28l0,0c0,0.16-0.13,0.28-0.28,0.28h-1.91
		C103.5,28.29,103.37,28.16,103.37,28.01L103.37,28.01z"/>
	<path d="M103.37,26.87c0-0.16,0.13-0.28,0.28-0.28h1.91c0.16,0,0.28,0.13,0.28,0.28l0,0c0,0.16-0.13,0.28-0.28,0.28h-1.91
		C103.5,27.15,103.37,27.03,103.37,26.87L103.37,26.87z"/>
	<path d="M103.37,25.74c0-0.16,0.13-0.28,0.28-0.28h1.91c0.16,0,0.28,0.13,0.28,0.28l0,0c0,0.16-0.13,0.28-0.28,0.28h-1.91
		C103.5,26.02,103.37,25.89,103.37,25.74L103.37,25.74z"/>
	<path d="M103.37,24.6c0-0.16,0.13-0.28,0.28-0.28h1.91c0.16,0,0.28,0.13,0.28,0.28l0,0c0,0.16-0.13,0.28-0.28,0.28h-1.91
		C103.5,24.89,103.37,24.76,103.37,24.6L103.37,24.6z"/>
	<path d="M103.37,23.47c0-0.16,0.13-0.28,0.28-0.28h1.91c0.16,0,0.28,0.13,0.28,0.28l0,0c0,0.16-0.13,0.28-0.28,0.28h-1.91
		C103.5,23.75,103.37,23.63,103.37,23.47L103.37,23.47z"/>
	<path d="M103.37,22.34c0-0.16,0.13-0.28,0.28-0.28h1.91c0.16,0,0.28,0.13,0.28,0.28l0,0c0,0.16-0.13,0.28-0.28,0.28h-1.91
		C103.5,22.62,103.37,22.49,103.37,22.34L103.37,22.34z"/>
	<path d="M103.37,21.2c0-0.16,0.13-0.28,0.28-0.28h1.91c0.16,0,0.28,0.13,0.28,0.28l0,0c0,0.16-0.13,0.28-0.28,0.28h-1.91
		C103.5,21.49,103.37,21.36,103.37,21.2L103.37,21.2z"/>
	<path d="M103.37,20.07c0-0.16,0.13-0.28,0.28-0.28h1.91c0.16,0,0.28,0.13,0.28,0.28l0,0c0,0.16-0.13,0.28-0.28,0.28h-1.91
		C103.5,20.35,103.37,20.22,103.37,20.07L103.37,20.07z"/>
	<path d="M103.37,18.93c0-0.16,0.13-0.28,0.28-0.28h1.91c0.16,0,0.28,0.13,0.28,0.28l0,0c0,0.16-0.13,0.28-0.28,0.28h-1.91
		C103.5,19.22,103.37,19.09,103.37,18.93L103.37,18.93z"/>
	<path d="M103.37,17.8c0-0.16,0.13-0.28,0.28-0.28h1.91c0.16,0,0.28,0.13,0.28,0.28l0,0c0,0.16-0.13,0.28-0.28,0.28h-1.91
		C103.5,18.08,103.37,17.96,103.37,17.8L103.37,17.8z"/>
	<path d="M121.73,36.15c-0.16,0-0.28-0.13-0.28-0.28v-1.91c0-0.16,0.13-0.28,0.28-0.28s0.28,0.13,0.28,0.28v1.91
		C122.01,36.03,121.88,36.15,121.73,36.15z"/>
	<path d="M120.59,36.15c-0.16,0-0.28-0.13-0.28-0.28v-1.91c0-0.16,0.13-0.28,0.28-0.28c0.16,0,0.28,0.13,0.28,0.28v1.91
		C120.88,36.03,120.75,36.15,120.59,36.15z"/>
	<path d="M119.46,36.15c-0.16,0-0.28-0.13-0.28-0.28v-1.91c0-0.16,0.13-0.28,0.28-0.28c0.16,0,0.28,0.13,0.28,0.28v1.91
		C119.74,36.03,119.61,36.15,119.46,36.15z"/>
	<path d="M118.32,36.15c-0.16,0-0.28-0.13-0.28-0.28v-1.91c0-0.16,0.13-0.28,0.28-0.28c0.16,0,0.28,0.13,0.28,0.28v1.91
		C118.61,36.03,118.48,36.15,118.32,36.15z"/>
	<path d="M117.19,36.15c-0.16,0-0.28-0.13-0.28-0.28v-1.91c0-0.16,0.13-0.28,0.28-0.28c0.16,0,0.28,0.13,0.28,0.28v1.91
		C117.47,36.03,117.35,36.15,117.19,36.15z"/>
	<path d="M116.06,36.15c-0.16,0-0.28-0.13-0.28-0.28v-1.91c0-0.16,0.13-0.28,0.28-0.28s0.28,0.13,0.28,0.28v1.91
		C116.34,36.03,116.21,36.15,116.06,36.15z"/>
	<path d="M114.92,36.15c-0.16,0-0.28-0.13-0.28-0.28v-1.91c0-0.16,0.13-0.28,0.28-0.28s0.28,0.13,0.28,0.28v1.91
		C115.21,36.03,115.08,36.15,114.92,36.15z"/>
	<path d="M113.79,36.15c-0.16,0-0.28-0.13-0.28-0.28v-1.91c0-0.16,0.13-0.28,0.28-0.28s0.28,0.13,0.28,0.28v1.91
		C114.07,36.03,113.94,36.15,113.79,36.15z"/>
	<path d="M112.65,36.15c-0.16,0-0.28-0.13-0.28-0.28v-1.91c0-0.16,0.13-0.28,0.28-0.28s0.28,0.13,0.28,0.28v1.91
		C112.94,36.03,112.81,36.15,112.65,36.15z"/>
	<path d="M111.52,36.15c-0.16,0-0.28-0.13-0.28-0.28v-1.91c0-0.16,0.13-0.28,0.28-0.28s0.28,0.13,0.28,0.28v1.91
		C111.8,36.03,111.68,36.15,111.52,36.15z"/>
	<path d="M110.39,36.15c-0.16,0-0.28-0.13-0.28-0.28v-1.91c0-0.16,0.13-0.28,0.28-0.28s0.28,0.13,0.28,0.28v1.91
		C110.67,36.03,110.54,36.15,110.39,36.15z"/>
	<path d="M109.25,36.15c-0.16,0-0.28-0.13-0.28-0.28v-1.91c0-0.16,0.13-0.28,0.28-0.28s0.28,0.13,0.28,0.28v1.91
		C109.54,36.03,109.41,36.15,109.25,36.15z"/>
	<path d="M108.12,36.15c-0.16,0-0.28-0.13-0.28-0.28v-1.91c0-0.16,0.13-0.28,0.28-0.28s0.28,0.13,0.28,0.28v1.91
		C108.4,36.03,108.28,36.15,108.12,36.15z"/>
	<path d="M106.99,36.15c-0.16,0-0.28-0.13-0.28-0.28v-1.91c0-0.16,0.13-0.28,0.28-0.28s0.28,0.13,0.28,0.28v1.91
		C107.27,36.03,107.14,36.15,106.99,36.15z"/>
	<path d="M125.34,17.8c0,0.16-0.13,0.28-0.28,0.28h-1.91c-0.16,0-0.28-0.13-0.28-0.28c0-0.16,0.13-0.28,0.28-0.28h1.91
		C125.21,17.52,125.34,17.64,125.34,17.8z"/>
	<path d="M125.34,18.93c0,0.16-0.13,0.28-0.28,0.28h-1.91c-0.16,0-0.28-0.13-0.28-0.28c0-0.16,0.13-0.28,0.28-0.28h1.91
		C125.21,18.65,125.34,18.78,125.34,18.93z"/>
	<path d="M125.34,20.07c0,0.16-0.13,0.28-0.28,0.28h-1.91c-0.16,0-0.28-0.13-0.28-0.28c0-0.16,0.13-0.28,0.28-0.28h1.91
		C125.21,19.78,125.34,19.91,125.34,20.07z"/>
	<path d="M125.34,21.2c0,0.16-0.13,0.28-0.28,0.28h-1.91c-0.16,0-0.28-0.13-0.28-0.28c0-0.16,0.13-0.28,0.28-0.28h1.91
		C125.21,20.92,125.34,21.05,125.34,21.2z"/>
	<path d="M125.34,22.34c0,0.16-0.13,0.28-0.28,0.28h-1.91c-0.16,0-0.28-0.13-0.28-0.28c0-0.16,0.13-0.28,0.28-0.28h1.91
		C125.21,22.05,125.34,22.18,125.34,22.34z"/>
	<path d="M125.34,23.47c0,0.16-0.13,0.28-0.28,0.28h-1.91c-0.16,0-0.28-0.13-0.28-0.28c0-0.16,0.13-0.28,0.28-0.28h1.91
		C125.21,23.19,125.34,23.31,125.34,23.47z"/>
	<path d="M125.34,24.6c0,0.16-0.13,0.28-0.28,0.28h-1.91c-0.16,0-0.28-0.13-0.28-0.28s0.13-0.28,0.28-0.28h1.91
		C125.21,24.32,125.34,24.45,125.34,24.6z"/>
	<path d="M125.34,25.74c0,0.16-0.13,0.28-0.28,0.28h-1.91c-0.16,0-0.28-0.13-0.28-0.28c0-0.16,0.13-0.28,0.28-0.28h1.91
		C125.21,25.45,125.34,25.58,125.34,25.74z"/>
	<path d="M125.34,26.87c0,0.16-0.13,0.28-0.28,0.28h-1.91c-0.16,0-0.28-0.13-0.28-0.28c0-0.16,0.13-0.28,0.28-0.28h1.91
		C125.21,26.59,125.34,26.72,125.34,26.87z"/>
	<path d="M125.34,28.01c0,0.16-0.13,0.28-0.28,0.28h-1.91c-0.16,0-0.28-0.13-0.28-0.28c0-0.16,0.13-0.28,0.28-0.28h1.91
		C125.21,27.72,125.34,27.85,125.34,28.01z"/>
	<path d="M125.34,29.14c0,0.16-0.13,0.28-0.28,0.28h-1.91c-0.16,0-0.28-0.13-0.28-0.28s0.13-0.28,0.28-0.28h1.91
		C125.21,28.86,125.34,28.98,125.34,29.14z"/>
	<path d="M125.34,30.27c0,0.16-0.13,0.28-0.28,0.28h-1.91c-0.16,0-0.28-0.13-0.28-0.28c0-0.16,0.13-0.28,0.28-0.28h1.91
		C125.21,29.99,125.34,30.12,125.34,30.27z"/>
	<path d="M125.34,31.41c0,0.16-0.13,0.28-0.28,0.28h-1.91c-0.16,0-0.28-0.13-0.28-0.28c0-0.16,0.13-0.28,0.28-0.28h1.91
		C125.21,31.12,125.34,31.25,125.34,31.41z"/>
	<path d="M125.34,32.54c0,0.16-0.13,0.28-0.28,0.28h-1.91c-0.16,0-0.28-0.13-0.28-0.28s0.13-0.28,0.28-0.28h1.91
		C125.21,32.26,125.34,32.38,125.34,32.54z"/>
	<path d="M106.97,45.48c0.16,0,0.28-0.13,0.28-0.28v-1.17c0-0.16-0.13-0.28-0.28-0.28h-2.67c-0.16,0-0.28,0.13-0.28,0.28v1.17
		c0,0.16,0.13,0.28,0.28,0.28H106.97z"/>
	<path d="M100.59,45.44c0.16,0,0.28-0.13,0.28-0.28v-1.08c0-0.16-0.13-0.28-0.28-0.28H97.9c-0.16,0-0.28,0.13-0.28,0.28v1.08
		c0,0.16,0.13,0.28,0.28,0.28H100.59z"/>
	<path d="M100.65,50.85c0.16,0,0.28-0.13,0.28-0.28v-1.12c0-0.16-0.13-0.28-0.28-0.28H97.9c-0.16,0-0.28,0.13-0.28,0.28v1.12
		c0,0.16,0.13,0.28,0.28,0.28H100.65z"/>
	<path d="M107.03,50.85c0.16,0,0.28-0.13,0.28-0.28V49.4c0-0.16-0.13-0.28-0.28-0.28h-2.74c-0.16,0-0.28,0.13-0.28,0.28v1.16
		c0,0.16,0.13,0.28,0.28,0.28L107.03,50.85L107.03,50.85z"/>
	<path d="M100.59,48.15c0.16,0,0.28-0.13,0.28-0.28v-1.04c0-0.16-0.13-0.28-0.28-0.28H97.9c-0.16,0-0.28,0.13-0.28,0.28v1.04
		c0,0.16,0.13,0.28,0.28,0.28H100.59z"/>
	<path d="M104.8,55.73c0,0.16,0.13,0.28,0.28,0.28h2.03c0.16,0,0.28-0.13,0.28-0.28v-2.75c0-0.16-0.13-0.28-0.28-0.28h-2.03
		c-0.16,0-0.28,0.13-0.28,0.28V55.73z"/>
	<path d="M99.16,55.73c0,0.16,0.13,0.28,0.28,0.28h2.03c0.16,0,0.28-0.13,0.28-0.28v-2.75c0-0.16-0.13-0.28-0.28-0.28h-2.03
		c-0.16,0-0.28,0.13-0.28,0.28V55.73z"/>
	<path d="M192.83,45.68c0.16,0,0.28,0.13,0.28,0.28v1.42c0,0.16-0.13,0.28-0.28,0.28h-3.97c-0.16,0-0.28-0.13-0.28-0.28v-1.42
		c0-0.16,0.13-0.28,0.28-0.28H192.83z"/>
	<path d="M192.83,42.57c0.16,0,0.28,0.13,0.28,0.28v1.42c0,0.16-0.13,0.28-0.28,0.28h-3.97c-0.16,0-0.28-0.13-0.28-0.28v-1.42
		c0-0.16,0.13-0.28,0.28-0.28H192.83z"/>
	<path d="M192.83,39.45c0.16,0,0.28,0.13,0.28,0.28v1.42c0,0.16-0.13,0.28-0.28,0.28h-3.97c-0.16,0-0.28-0.13-0.28-0.28v-1.42
		c0-0.16,0.13-0.28,0.28-0.28H192.83z"/>
	<path d="M192.83,36.33c0.16,0,0.28,0.13,0.28,0.28v1.42c0,0.16-0.13,0.28-0.28,0.28h-3.97c-0.16,0-0.28-0.13-0.28-0.28v-1.42
		c0-0.16,0.13-0.28,0.28-0.28H192.83z"/>
	<path d="M192.83,33.21c0.16,0,0.28,0.13,0.28,0.28v1.42c0,0.16-0.13,0.28-0.28,0.28h-3.97c-0.16,0-0.28-0.13-0.28-0.28v-1.42
		c0-0.16,0.13-0.28,0.28-0.28H192.83z"/>
	<path d="M192.83,30.09c0.16,0,0.28,0.13,0.28,0.28v1.42c0,0.16-0.13,0.28-0.28,0.28h-3.97c-0.16,0-0.28-0.13-0.28-0.28v-1.42
		c0-0.16,0.13-0.28,0.28-0.28C188.86,30.09,192.83,30.09,192.83,30.09z"/>
	<path d="M192.83,26.98c0.16,0,0.28,0.13,0.28,0.28v1.42c0,0.16-0.13,0.28-0.28,0.28h-3.97c-0.16,0-0.28-0.13-0.28-0.28v-1.42
		c0-0.16,0.13-0.28,0.28-0.28H192.83z"/>
	<path d="M192.83,23.86c0.16,0,0.28,0.13,0.28,0.28v1.42c0,0.16-0.13,0.28-0.28,0.28h-3.97c-0.16,0-0.28-0.13-0.28-0.28v-1.42
		c0-0.16,0.13-0.28,0.28-0.28H192.83z"/>
	<path d="M192.83,20.74c0.16,0,0.28,0.13,0.28,0.28v1.42c0,0.16-0.13,0.28-0.28,0.28h-3.97c-0.16,0-0.28-0.13-0.28-0.28v-1.42
		c0-0.16,0.13-0.28,0.28-0.28H192.83z"/>
	<path d="M190.32,49.99c0-0.16,0.13-0.28,0.28-0.28h3.4c0.16,0,0.28,0.13,0.28,0.28v2.27c0,0.16-0.13,0.28-0.28,0.28h-3.4
		c-0.16,0-0.28-0.13-0.28-0.28V49.99z"/>
	<path d="M216.68,5.71c0-0.16,0.13-0.28,0.28-0.28h5.67c0.16,0,0.28,0.13,0.28,0.28v2.83c0,0.16-0.13,0.28-0.28,0.28h-5.67
		c-0.16,0-0.28-0.13-0.28-0.28V5.71z"/>
	<path d="M216.68,49.59c0-0.16,0.13-0.28,0.28-0.28h5.67c0.16,0,0.28,0.13,0.28,0.28v2.83c0,0.16-0.13,0.28-0.28,0.28h-5.67
		c-0.16,0-0.28-0.13-0.28-0.28V49.59z"/>
	<path d="M190.32,7.68c0-0.16,0.13-0.28,0.28-0.28h3.4c0.16,0,0.28,0.13,0.28,0.28v3.97c0,0.16-0.13,0.28-0.28,0.28h-3.4
		c-0.16,0-0.28-0.13-0.28-0.28V7.68z"/>
	<path d="M236.92,9.6c0.16,0,0.28-0.13,0.28-0.28V8.29c0-0.16-0.13-0.28-0.28-0.28h-1.75c-0.16,0-0.28,0.13-0.28,0.28v1.03
		c0,0.16,0.13,0.28,0.28,0.28C235.17,9.6,236.92,9.6,236.92,9.6z"/>
	<path d="M236.92,14.24c0.16,0,0.28-0.13,0.28-0.28v-1.03c0-0.16-0.13-0.28-0.28-0.28h-1.75c-0.16,0-0.28,0.13-0.28,0.28v1.03
		c0,0.16,0.13,0.28,0.28,0.28H236.92z"/>
	<path d="M133.33,32.52c0,0.16-0.13,0.28-0.28,0.28h-0.62c-0.16,0-0.28-0.13-0.28-0.28v-2.96c0-0.16,0.13-0.28,0.28-0.28h0.62
		c0.16,0,0.28,0.13,0.28,0.28V32.52z"/>
	<path d="M135.17,32.52c0,0.16-0.13,0.28-0.28,0.28h-0.62c-0.16,0-0.28-0.13-0.28-0.28v-2.96c0-0.16,0.13-0.28,0.28-0.28h0.62
		c0.16,0,0.28,0.13,0.28,0.28V32.52z"/>
	<path d="M137.01,32.52c0,0.16-0.13,0.28-0.28,0.28h-0.62c-0.16,0-0.28-0.13-0.28-0.28v-2.96c0-0.16,0.13-0.28,0.28-0.28h0.62
		c0.16,0,0.28,0.13,0.28,0.28V32.52z"/>
	<path d="M138.86,32.52c0,0.16-0.13,0.28-0.28,0.28h-0.62c-0.16,0-0.28-0.13-0.28-0.28v-2.96c0-0.16,0.13-0.28,0.28-0.28h0.62
		c0.16,0,0.28,0.13,0.28,0.28V32.52z"/>
	<path d="M140.7,32.52c0,0.16-0.13,0.28-0.28,0.28h-0.62c-0.16,0-0.28-0.13-0.28-0.28v-2.96c0-0.16,0.13-0.28,0.28-0.28h0.62
		c0.16,0,0.28,0.13,0.28,0.28V32.52z"/>
	<path d="M142.54,32.52c0,0.16-0.13,0.28-0.28,0.28h-0.62c-0.16,0-0.28-0.13-0.28-0.28v-2.96c0-0.16,0.13-0.28,0.28-0.28h0.62
		c0.16,0,0.28,0.13,0.28,0.28V32.52z"/>
	<path d="M133.33,48.39c0,0.16-0.13,0.28-0.28,0.28h-0.62c-0.16,0-0.28-0.13-0.28-0.28v-2.96c0-0.16,0.13-0.28,0.28-0.28h0.62
		c0.16,0,0.28,0.13,0.28,0.28V48.39z"/>
	<path d="M135.17,48.39c0,0.16-0.13,0.28-0.28,0.28h-0.62c-0.16,0-0.28-0.13-0.28-0.28v-2.96c0-0.16,0.13-0.28,0.28-0.28h0.62
		c0.16,0,0.28,0.13,0.28,0.28V48.39z"/>
	<path d="M137.01,48.39c0,0.16-0.13,0.28-0.28,0.28h-0.62c-0.16,0-0.28-0.13-0.28-0.28v-2.96c0-0.16,0.13-0.28,0.28-0.28h0.62
		c0.16,0,0.28,0.13,0.28,0.28V48.39z"/>
	<path d="M138.86,48.39c0,0.16-0.13,0.28-0.28,0.28h-0.62c-0.16,0-0.28-0.13-0.28-0.28v-2.96c0-0.16,0.13-0.28,0.28-0.28h0.62
		c0.16,0,0.28,0.13,0.28,0.28V48.39z"/>
	<path d="M140.7,48.39c0,0.16-0.13,0.28-0.28,0.28h-0.62c-0.16,0-0.28-0.13-0.28-0.28v-2.96c0-0.16,0.13-0.28,0.28-0.28h0.62
		c0.16,0,0.28,0.13,0.28,0.28V48.39z"/>
	<path d="M142.54,48.39c0,0.16-0.13,0.28-0.28,0.28h-0.62c-0.16,0-0.28-0.13-0.28-0.28v-2.96c0-0.16,0.13-0.28,0.28-0.28h0.62
		c0.16,0,0.28,0.13,0.28,0.28V48.39z"/>
	<path d="M144.38,32.52c0,0.16-0.13,0.28-0.28,0.28h-0.62c-0.16,0-0.28-0.13-0.28-0.28v-2.96c0-0.16,0.13-0.28,0.28-0.28h0.62
		c0.16,0,0.28,0.13,0.28,0.28V32.52z"/>
	<path d="M146.23,32.52c0,0.16-0.13,0.28-0.28,0.28h-0.62c-0.16,0-0.28-0.13-0.28-0.28v-2.96c0-0.16,0.13-0.28,0.28-0.28h0.62
		c0.16,0,0.28,0.13,0.28,0.28V32.52z"/>
	<path d="M148.07,32.52c0,0.16-0.13,0.28-0.28,0.28h-0.62c-0.16,0-0.28-0.13-0.28-0.28v-2.96c0-0.16,0.13-0.28,0.28-0.28h0.62
		c0.16,0,0.28,0.13,0.28,0.28V32.52z"/>
	<path d="M149.91,32.52c0,0.16-0.13,0.28-0.28,0.28h-0.62c-0.16,0-0.28-0.13-0.28-0.28v-2.96c0-0.16,0.13-0.28,0.28-0.28h0.62
		c0.16,0,0.28,0.13,0.28,0.28V32.52z"/>
	<path d="M144.38,48.39c0,0.16-0.13,0.28-0.28,0.28h-0.62c-0.16,0-0.28-0.13-0.28-0.28v-2.96c0-0.16,0.13-0.28,0.28-0.28h0.62
		c0.16,0,0.28,0.13,0.28,0.28V48.39z"/>
	<path d="M146.23,48.39c0,0.16-0.13,0.28-0.28,0.28h-0.62c-0.16,0-0.28-0.13-0.28-0.28v-2.96c0-0.16,0.13-0.28,0.28-0.28h0.62
		c0.16,0,0.28,0.13,0.28,0.28V48.39z"/>
	<path d="M148.07,48.39c0,0.16-0.13,0.28-0.28,0.28h-0.62c-0.16,0-0.28-0.13-0.28-0.28v-2.96c0-0.16,0.13-0.28,0.28-0.28h0.62
		c0.16,0,0.28,0.13,0.28,0.28V48.39z"/>
	<path d="M149.91,48.39c0,0.16-0.13,0.28-0.28,0.28h-0.62c-0.16,0-0.28-0.13-0.28-0.28v-2.96c0-0.16,0.13-0.28,0.28-0.28h0.62
		c0.16,0,0.28,0.13,0.28,0.28V48.39z"/>
	<path d="M169.47,32.52c0,0.16-0.13,0.28-0.28,0.28h-0.62c-0.16,0-0.28-0.13-0.28-0.28v-2.96c0-0.16,0.13-0.28,0.28-0.28h0.62
		c0.16,0,0.28,0.13,0.28,0.28V32.52z"/>
	<path d="M171.31,32.52c0,0.16-0.13,0.28-0.28,0.28h-0.62c-0.16,0-0.28-0.13-0.28-0.28v-2.96c0-0.16,0.13-0.28,0.28-0.28h0.62
		c0.16,0,0.28,0.13,0.28,0.28V32.52z"/>
	<path d="M173.16,32.52c0,0.16-0.13,0.28-0.28,0.28h-0.62c-0.16,0-0.28-0.13-0.28-0.28v-2.96c0-0.16,0.13-0.28,0.28-0.28h0.62
		c0.16,0,0.28,0.13,0.28,0.28V32.52z"/>
	<path d="M175,32.52c0,0.16-0.13,0.28-0.28,0.28h-0.62c-0.16,0-0.28-0.13-0.28-0.28v-2.96c0-0.16,0.13-0.28,0.28-0.28h0.62
		c0.16,0,0.28,0.13,0.28,0.28V32.52z"/>
	<path d="M176.84,32.52c0,0.16-0.13,0.28-0.28,0.28h-0.62c-0.16,0-0.28-0.13-0.28-0.28v-2.96c0-0.16,0.13-0.28,0.28-0.28h0.62
		c0.16,0,0.28,0.13,0.28,0.28V32.52z"/>
	<path d="M178.68,32.52c0,0.16-0.13,0.28-0.28,0.28h-0.62c-0.16,0-0.28-0.13-0.28-0.28v-2.96c0-0.16,0.13-0.28,0.28-0.28h0.62
		c0.16,0,0.28,0.13,0.28,0.28V32.52z"/>
	<path d="M169.47,48.39c0,0.16-0.13,0.28-0.28,0.28h-0.62c-0.16,0-0.28-0.13-0.28-0.28v-2.96c0-0.16,0.13-0.28,0.28-0.28h0.62
		c0.16,0,0.28,0.13,0.28,0.28V48.39z"/>
	<path d="M171.31,48.39c0,0.16-0.13,0.28-0.28,0.28h-0.62c-0.16,0-0.28-0.13-0.28-0.28v-2.96c0-0.16,0.13-0.28,0.28-0.28h0.62
		c0.16,0,0.28,0.13,0.28,0.28V48.39z"/>
	<path d="M173.16,48.39c0,0.16-0.13,0.28-0.28,0.28h-0.62c-0.16,0-0.28-0.13-0.28-0.28v-2.96c0-0.16,0.13-0.28,0.28-0.28h0.62
		c0.16,0,0.28,0.13,0.28,0.28V48.39z"/>
	<path d="M175,48.39c0,0.16-0.13,0.28-0.28,0.28h-0.62c-0.16,0-0.28-0.13-0.28-0.28v-2.96c0-0.16,0.13-0.28,0.28-0.28h0.62
		c0.16,0,0.28,0.13,0.28,0.28V48.39z"/>
	<path d="M176.84,48.39c0,0.16-0.13,0.28-0.28,0.28h-0.62c-0.16,0-0.28-0.13-0.28-0.28v-2.96c0-0.16,0.13-0.28,0.28-0.28h0.62
		c0.16,0,0.28,0.13,0.28,0.28V48.39z"/>
	<path d="M178.68,48.39c0,0.16-0.13,0.28-0.28,0.28h-0.62c-0.16,0-0.28-0.13-0.28-0.28v-2.96c0-0.16,0.13-0.28,0.28-0.28h0.62
		c0.16,0,0.28,0.13,0.28,0.28V48.39z"/>
	<path d="M180.53,32.52c0,0.16-0.13,0.28-0.28,0.28h-0.62c-0.16,0-0.28-0.13-0.28-0.28v-2.96c0-0.16,0.13-0.28,0.28-0.28h0.62
		c0.16,0,0.28,0.13,0.28,0.28V32.52z"/>
	<path d="M182.37,32.52c0,0.16-0.13,0.28-0.28,0.28h-0.62c-0.16,0-0.28-0.13-0.28-0.28v-2.96c0-0.16,0.13-0.28,0.28-0.28h0.62
		c0.16,0,0.28,0.13,0.28,0.28V32.52z"/>
	<path d="M184.21,32.52c0,0.16-0.13,0.28-0.28,0.28h-0.62c-0.16,0-0.28-0.13-0.28-0.28v-2.96c0-0.16,0.13-0.28,0.28-0.28h0.62
		c0.16,0,0.28,0.13,0.28,0.28V32.52z"/>
	<path d="M186.05,32.52c0,0.16-0.13,0.28-0.28,0.28h-0.62c-0.16,0-0.28-0.13-0.28-0.28v-2.96c0-0.16,0.13-0.28,0.28-0.28h0.62
		c0.16,0,0.28,0.13,0.28,0.28V32.52z"/>
	<path d="M180.53,48.39c0,0.16-0.13,0.28-0.28,0.28h-0.62c-0.16,0-0.28-0.13-0.28-0.28v-2.96c0-0.16,0.13-0.28,0.28-0.28h0.62
		c0.16,0,0.28,0.13,0.28,0.28V48.39z"/>
	<path d="M182.37,48.39c0,0.16-0.13,0.28-0.28,0.28h-0.62c-0.16,0-0.28-0.13-0.28-0.28v-2.96c0-0.16,0.13-0.28,0.28-0.28h0.62
		c0.16,0,0.28,0.13,0.28,0.28V48.39z"/>
	<path d="M184.21,48.39c0,0.16-0.13,0.28-0.28,0.28h-0.62c-0.16,0-0.28-0.13-0.28-0.28v-2.96c0-0.16,0.13-0.28,0.28-0.28h0.62
		c0.16,0,0.28,0.13,0.28,0.28V48.39z"/>
	<path d="M186.05,48.39c0,0.16-0.13,0.28-0.28,0.28h-0.62c-0.16,0-0.28-0.13-0.28-0.28v-2.96c0-0.16,0.13-0.28,0.28-0.28h0.62
		c0.16,0,0.28,0.13,0.28,0.28V48.39z"/>
	<path d="M90.5,33.74c0.11,0,0.2-0.09,0.2-0.2v-0.49c0-0.11-0.09-0.2-0.2-0.2h-1.2c-0.11,0-0.2,0.09-0.2,0.2v0.49
		c0,0.11,0.09,0.2,0.2,0.2H90.5z"/>
	<path d="M90.5,32.32c0.11,0,0.2-0.09,0.2-0.2v-0.49c0-0.11-0.09-0.2-0.2-0.2h-1.2c-0.11,0-0.2,0.09-0.2,0.2v0.49
		c0,0.11,0.09,0.2,0.2,0.2H90.5z"/>
	<path d="M90.5,30.91c0.11,0,0.2-0.09,0.2-0.2v-0.49c0-0.11-0.09-0.2-0.2-0.2h-1.2c-0.11,0-0.2,0.09-0.2,0.2v0.49
		c0,0.11,0.09,0.2,0.2,0.2H90.5z"/>
	<path d="M90.5,29.49c0.11,0,0.2-0.09,0.2-0.2V28.8c0-0.11-0.09-0.2-0.2-0.2h-1.2c-0.11,0-0.2,0.09-0.2,0.2v0.49
		c0,0.11,0.09,0.2,0.2,0.2H90.5z"/>
	<path d="M97.87,33.74c0.11,0,0.2-0.09,0.2-0.2v-0.49c0-0.11-0.09-0.2-0.2-0.2h-1.2c-0.11,0-0.2,0.09-0.2,0.2v0.49
		c0,0.11,0.09,0.2,0.2,0.2H97.87z"/>
	<path d="M97.87,32.32c0.11,0,0.2-0.09,0.2-0.2v-0.49c0-0.11-0.09-0.2-0.2-0.2h-1.2c-0.11,0-0.2,0.09-0.2,0.2v0.49
		c0,0.11,0.09,0.2,0.2,0.2H97.87z"/>
	<path d="M97.87,30.91c0.11,0,0.2-0.09,0.2-0.2v-0.49c0-0.11-0.09-0.2-0.2-0.2h-1.2c-0.11,0-0.2,0.09-0.2,0.2v0.49
		c0,0.11,0.09,0.2,0.2,0.2H97.87z"/>
	<path d="M97.87,29.49c0.11,0,0.2-0.09,0.2-0.2V28.8c0-0.11-0.09-0.2-0.2-0.2h-1.2c-0.11,0-0.2,0.09-0.2,0.2v0.49
		c0,0.11,0.09,0.2,0.2,0.2H97.87z"/>
	<path d="M165.04,32.52c0,0.16-0.13,0.28-0.28,0.28h-0.62c-0.16,0-0.28-0.13-0.28-0.28v-2.96c0-0.16,0.13-0.28,0.28-0.28h0.62
		c0.16,0,0.28,0.13,0.28,0.28V32.52z"/>
	<path d="M153.98,32.52c0,0.16-0.13,0.28-0.28,0.28h-0.62c-0.16,0-0.28-0.13-0.28-0.28v-2.96c0-0.16,0.13-0.28,0.28-0.28h0.62
		c0.16,0,0.28,0.13,0.28,0.28V32.52z"/>
	<path d="M155.83,32.52c0,0.16-0.13,0.28-0.28,0.28h-0.62c-0.16,0-0.28-0.13-0.28-0.28v-2.96c0-0.16,0.13-0.28,0.28-0.28h0.62
		c0.16,0,0.28,0.13,0.28,0.28V32.52z"/>
	<path d="M157.67,32.52c0,0.16-0.13,0.28-0.28,0.28h-0.62c-0.16,0-0.28-0.13-0.28-0.28v-2.96c0-0.16,0.13-0.28,0.28-0.28h0.62
		c0.16,0,0.28,0.13,0.28,0.28V32.52z"/>
	<path d="M159.51,32.52c0,0.16-0.13,0.28-0.28,0.28h-0.62c-0.16,0-0.28-0.13-0.28-0.28v-2.96c0-0.16,0.13-0.28,0.28-0.28h0.62
		c0.16,0,0.28,0.13,0.28,0.28V32.52z"/>
	<path d="M161.35,32.52c0,0.16-0.13,0.28-0.28,0.28h-0.62c-0.16,0-0.28-0.13-0.28-0.28v-2.96c0-0.16,0.13-0.28,0.28-0.28h0.62
		c0.16,0,0.28,0.13,0.28,0.28V32.52z"/>
	<path d="M163.2,32.52c0,0.16-0.13,0.28-0.28,0.28h-0.62c-0.16,0-0.28-0.13-0.28-0.28v-2.96c0-0.16,0.13-0.28,0.28-0.28h0.62
		c0.16,0,0.28,0.13,0.28,0.28V32.52z"/>
	<path d="M153.98,48.39c0,0.16-0.13,0.28-0.28,0.28h-0.62c-0.16,0-0.28-0.13-0.28-0.28v-2.96c0-0.16,0.13-0.28,0.28-0.28h0.62
		c0.16,0,0.28,0.13,0.28,0.28V48.39z"/>
	<path d="M155.83,48.39c0,0.16-0.13,0.28-0.28,0.28h-0.62c-0.16,0-0.28-0.13-0.28-0.28v-2.96c0-0.16,0.13-0.28,0.28-0.28h0.62
		c0.16,0,0.28,0.13,0.28,0.28V48.39z"/>
	<path d="M157.67,48.39c0,0.16-0.13,0.28-0.28,0.28h-0.62c-0.16,0-0.28-0.13-0.28-0.28v-2.96c0-0.16,0.13-0.28,0.28-0.28h0.62
		c0.16,0,0.28,0.13,0.28,0.28V48.39z"/>
	<path d="M159.51,48.39c0,0.16-0.13,0.28-0.28,0.28h-0.62c-0.16,0-0.28-0.13-0.28-0.28v-2.96c0-0.16,0.13-0.28,0.28-0.28h0.62
		c0.16,0,0.28,0.13,0.28,0.28V48.39z"/>
	<path d="M161.35,48.39c0,0.16-0.13,0.28-0.28,0.28h-0.62c-0.16,0-0.28-0.13-0.28-0.28v-2.96c0-0.16,0.13-0.28,0.28-0.28h0.62
		c0.16,0,0.28,0.13,0.28,0.28V48.39z"/>
	<path d="M163.2,48.39c0,0.16-0.13,0.28-0.28,0.28h-0.62c-0.16,0-0.28-0.13-0.28-0.28v-2.96c0-0.16,0.13-0.28,0.28-0.28h0.62
		c0.16,0,0.28,0.13,0.28,0.28V48.39z"/>
	<path d="M165.04,48.39c0,0.16-0.13,0.28-0.28,0.28h-0.62c-0.16,0-0.28-0.13-0.28-0.28v-2.96c0-0.16,0.13-0.28,0.28-0.28h0.62
		c0.16,0,0.28,0.13,0.28,0.28V48.39z"/>
	<path d="M184.77,51.34c0.16,0,0.28-0.13,0.28-0.28v-1.03c0-0.16-0.13-0.28-0.28-0.28h-1.75c-0.16,0-0.28,0.13-0.28,0.28v1.03
		c0,0.16,0.13,0.28,0.28,0.28H184.77z"/>
	<path d="M184.77,55.98c0.16,0,0.28-0.13,0.28-0.28v-1.03c0-0.16-0.13-0.28-0.28-0.28h-1.75c-0.16,0-0.28,0.13-0.28,0.28v1.03
		c0,0.16,0.13,0.28,0.28,0.28H184.77z"/>
	<path d="M187.98,51.34c0.16,0,0.28-0.13,0.28-0.28v-1.03c0-0.16-0.13-0.28-0.28-0.28h-1.75c-0.16,0-0.28,0.13-0.28,0.28v1.03
		c0,0.16,0.13,0.28,0.28,0.28H187.98z"/>
	<path d="M187.98,55.98c0.16,0,0.28-0.13,0.28-0.28v-1.03c0-0.16-0.13-0.28-0.28-0.28h-1.75c-0.16,0-0.28,0.13-0.28,0.28v1.03
		c0,0.16,0.13,0.28,0.28,0.28H187.98z"/>
	<path d="M178.35,51.34c0.16,0,0.28-0.13,0.28-0.28v-1.03c0-0.16-0.13-0.28-0.28-0.28h-1.75c-0.16,0-0.28,0.13-0.28,0.28v1.03
		c0,0.16,0.13,0.28,0.28,0.28H178.35z"/>
	<path d="M178.35,55.98c0.16,0,0.28-0.13,0.28-0.28v-1.03c0-0.16-0.13-0.28-0.28-0.28h-1.75c-0.16,0-0.28,0.13-0.28,0.28v1.03
		c0,0.16,0.13,0.28,0.28,0.28H178.35z"/>
	<path d="M181.56,51.34c0.16,0,0.28-0.13,0.28-0.28v-1.03c0-0.16-0.13-0.28-0.28-0.28h-1.75c-0.16,0-0.28,0.13-0.28,0.28v1.03
		c0,0.16,0.13,0.28,0.28,0.28H181.56z"/>
	<path d="M181.56,55.98c0.16,0,0.28-0.13,0.28-0.28v-1.03c0-0.16-0.13-0.28-0.28-0.28h-1.75c-0.16,0-0.28,0.13-0.28,0.28v1.03
		c0,0.16,0.13,0.28,0.28,0.28H181.56z"/>
	<path d="M171.92,51.34c0.16,0,0.28-0.13,0.28-0.28v-1.03c0-0.16-0.13-0.28-0.28-0.28h-1.75c-0.16,0-0.28,0.13-0.28,0.28v1.03
		c0,0.16,0.13,0.28,0.28,0.28H171.92z"/>
	<path d="M171.92,55.98c0.16,0,0.28-0.13,0.28-0.28v-1.03c0-0.16-0.13-0.28-0.28-0.28h-1.75c-0.16,0-0.28,0.13-0.28,0.28v1.03
		c0,0.16,0.13,0.28,0.28,0.28H171.92z"/>
	<path d="M175.14,51.34c0.16,0,0.28-0.13,0.28-0.28v-1.03c0-0.16-0.13-0.28-0.28-0.28h-1.75c-0.16,0-0.28,0.13-0.28,0.28v1.03
		c0,0.16,0.13,0.28,0.28,0.28H175.14z"/>
	<path d="M175.14,55.98c0.16,0,0.28-0.13,0.28-0.28v-1.03c0-0.16-0.13-0.28-0.28-0.28h-1.75c-0.16,0-0.28,0.13-0.28,0.28v1.03
		c0,0.16,0.13,0.28,0.28,0.28H175.14z"/>
	<path d="M165.5,51.34c0.16,0,0.28-0.13,0.28-0.28v-1.03c0-0.16-0.13-0.28-0.28-0.28h-1.75c-0.16,0-0.28,0.13-0.28,0.28v1.03
		c0,0.16,0.13,0.28,0.28,0.28H165.5z"/>
	<path d="M165.5,55.98c0.16,0,0.28-0.13,0.28-0.28v-1.03c0-0.16-0.13-0.28-0.28-0.28h-1.75c-0.16,0-0.28,0.13-0.28,0.28v1.03
		c0,0.16,0.13,0.28,0.28,0.28H165.5z"/>
	<path d="M168.71,51.34c0.16,0,0.28-0.13,0.28-0.28v-1.03c0-0.16-0.13-0.28-0.28-0.28h-1.75c-0.16,0-0.28,0.13-0.28,0.28v1.03
		c0,0.16,0.13,0.28,0.28,0.28H168.71z"/>
	<path d="M168.71,55.98c0.16,0,0.28-0.13,0.28-0.28v-1.03c0-0.16-0.13-0.28-0.28-0.28h-1.75c-0.16,0-0.28,0.13-0.28,0.28v1.03
		c0,0.16,0.13,0.28,0.28,0.28H168.71z"/>
	<path d="M159.07,51.34c0.16,0,0.28-0.13,0.28-0.28v-1.03c0-0.16-0.13-0.28-0.28-0.28h-1.75c-0.16,0-0.28,0.13-0.28,0.28v1.03
		c0,0.16,0.13,0.28,0.28,0.28H159.07z"/>
	<path d="M159.07,55.98c0.16,0,0.28-0.13,0.28-0.28v-1.03c0-0.16-0.13-0.28-0.28-0.28h-1.75c-0.16,0-0.28,0.13-0.28,0.28v1.03
		c0,0.16,0.13,0.28,0.28,0.28H159.07z"/>
	<path d="M162.29,51.34c0.16,0,0.28-0.13,0.28-0.28v-1.03c0-0.16-0.13-0.28-0.28-0.28h-1.75c-0.16,0-0.28,0.13-0.28,0.28v1.03
		c0,0.16,0.13,0.28,0.28,0.28H162.29z"/>
	<path d="M162.29,55.98c0.16,0,0.28-0.13,0.28-0.28v-1.03c0-0.16-0.13-0.28-0.28-0.28h-1.75c-0.16,0-0.28,0.13-0.28,0.28v1.03
		c0,0.16,0.13,0.28,0.28,0.28H162.29z"/>
	<path d="M152.65,51.34c0.16,0,0.28-0.13,0.28-0.28v-1.03c0-0.16-0.13-0.28-0.28-0.28h-1.75c-0.16,0-0.28,0.13-0.28,0.28v1.03
		c0,0.16,0.13,0.28,0.28,0.28H152.65z"/>
	<path d="M152.65,55.98c0.16,0,0.28-0.13,0.28-0.28v-1.03c0-0.16-0.13-0.28-0.28-0.28h-1.75c-0.16,0-0.28,0.13-0.28,0.28v1.03
		c0,0.16,0.13,0.28,0.28,0.28H152.65z"/>
	<path d="M155.86,51.34c0.16,0,0.28-0.13,0.28-0.28v-1.03c0-0.16-0.13-0.28-0.28-0.28h-1.75c-0.16,0-0.28,0.13-0.28,0.28v1.03
		c0,0.16,0.13,0.28,0.28,0.28H155.86z"/>
	<path d="M155.86,55.98c0.16,0,0.28-0.13,0.28-0.28v-1.03c0-0.16-0.13-0.28-0.28-0.28h-1.75c-0.16,0-0.28,0.13-0.28,0.28v1.03
		c0,0.16,0.13,0.28,0.28,0.28H155.86z"/>
	<path d="M146.22,51.34c0.16,0,0.28-0.13,0.28-0.28v-1.03c0-0.16-0.13-0.28-0.28-0.28h-1.75c-0.16,0-0.28,0.13-0.28,0.28v1.03
		c0,0.16,0.13,0.28,0.28,0.28H146.22z"/>
	<path d="M146.22,55.98c0.16,0,0.28-0.13,0.28-0.28v-1.03c0-0.16-0.13-0.28-0.28-0.28h-1.75c-0.16,0-0.28,0.13-0.28,0.28v1.03
		c0,0.16,0.13,0.28,0.28,0.28H146.22z"/>
	<path d="M149.43,51.34c0.16,0,0.28-0.13,0.28-0.28v-1.03c0-0.16-0.13-0.28-0.28-0.28h-1.75c-0.16,0-0.28,0.13-0.28,0.28v1.03
		c0,0.16,0.13,0.28,0.28,0.28H149.43z"/>
	<path d="M149.43,55.98c0.16,0,0.28-0.13,0.28-0.28v-1.03c0-0.16-0.13-0.28-0.28-0.28h-1.75c-0.16,0-0.28,0.13-0.28,0.28v1.03
		c0,0.16,0.13,0.28,0.28,0.28H149.43z"/>
	<path d="M139.8,51.34c0.16,0,0.28-0.13,0.28-0.28v-1.03c0-0.16-0.13-0.28-0.28-0.28h-1.75c-0.16,0-0.28,0.13-0.28,0.28v1.03
		c0,0.16,0.13,0.28,0.28,0.28H139.8z"/>
	<path d="M139.8,55.98c0.16,0,0.28-0.13,0.28-0.28v-1.03c0-0.16-0.13-0.28-0.28-0.28h-1.75c-0.16,0-0.28,0.13-0.28,0.28v1.03
		c0,0.16,0.13,0.28,0.28,0.28H139.8z"/>
	<path d="M143.01,51.34c0.16,0,0.28-0.13,0.28-0.28v-1.03c0-0.16-0.13-0.28-0.28-0.28h-1.75c-0.16,0-0.28,0.13-0.28,0.28v1.03
		c0,0.16,0.13,0.28,0.28,0.28H143.01z"/>
	<path d="M143.01,55.98c0.16,0,0.28-0.13,0.28-0.28v-1.03c0-0.16-0.13-0.28-0.28-0.28h-1.75c-0.16,0-0.28,0.13-0.28,0.28v1.03
		c0,0.16,0.13,0.28,0.28,0.28H143.01z"/>
	<path d="M133.37,51.34c0.16,0,0.28-0.13,0.28-0.28v-1.03c0-0.16-0.13-0.28-0.28-0.28h-1.75c-0.16,0-0.28,0.13-0.28,0.28v1.03
		c0,0.16,0.13,0.28,0.28,0.28H133.37z"/>
	<path d="M133.37,55.98c0.16,0,0.28-0.13,0.28-0.28v-1.03c0-0.16-0.13-0.28-0.28-0.28h-1.75c-0.16,0-0.28,0.13-0.28,0.28v1.03
		c0,0.16,0.13,0.28,0.28,0.28H133.37z"/>
	<path d="M136.58,51.34c0.16,0,0.28-0.13,0.28-0.28v-1.03c0-0.16-0.13-0.28-0.28-0.28h-1.75c-0.16,0-0.28,0.13-0.28,0.28v1.03
		c0,0.16,0.13,0.28,0.28,0.28H136.58z"/>
	<path d="M136.58,55.98c0.16,0,0.28-0.13,0.28-0.28v-1.03c0-0.16-0.13-0.28-0.28-0.28h-1.75c-0.16,0-0.28,0.13-0.28,0.28v1.03
		c0,0.16,0.13,0.28,0.28,0.28H136.58z"/>
	<g>
		<path d="M91.37,45.23c0-0.16-0.13-0.28-0.28-0.28h-1.6c-0.16,0-0.28,0.13-0.28,0.28v4.28c0,0.16,0.13,0.28,0.28,0.28h1.6
			c0.16,0,0.28-0.13,0.28-0.28V45.23z"/>
	</g>
	<g>
		<path d="M95.24,45.23c0-0.16-0.13-0.28-0.28-0.28h-1.6c-0.16,0-0.28,0.13-0.28,0.28v4.28c0,0.16,0.13,0.28,0.28,0.28h1.6
			c0.16,0,0.28-0.13,0.28-0.28V45.23z"/>
	</g>
	<path d="M180.53,11.18c0,0.16-0.13,0.28-0.28,0.28h-0.62c-0.16,0-0.28-0.13-0.28-0.28V8.22c0-0.16,0.13-0.28,0.28-0.28h0.62
		c0.16,0,0.28,0.13,0.28,0.28V11.18z"/>
	<path d="M169.47,11.18c0,0.16-0.13,0.28-0.28,0.28h-0.62c-0.16,0-0.28-0.13-0.28-0.28V8.22c0-0.16,0.13-0.28,0.28-0.28h0.62
		c0.16,0,0.28,0.13,0.28,0.28V11.18z"/>
	<path d="M171.31,11.18c0,0.16-0.13,0.28-0.28,0.28h-0.62c-0.16,0-0.28-0.13-0.28-0.28V8.22c0-0.16,0.13-0.28,0.28-0.28h0.62
		c0.16,0,0.28,0.13,0.28,0.28V11.18z"/>
	<path d="M173.16,11.18c0,0.16-0.13,0.28-0.28,0.28h-0.62c-0.16,0-0.28-0.13-0.28-0.28V8.22c0-0.16,0.13-0.28,0.28-0.28h0.62
		c0.16,0,0.28,0.13,0.28,0.28V11.18z"/>
	<path d="M175,11.18c0,0.16-0.13,0.28-0.28,0.28h-0.62c-0.16,0-0.28-0.13-0.28-0.28V8.22c0-0.16,0.13-0.28,0.28-0.28h0.62
		c0.16,0,0.28,0.13,0.28,0.28V11.18z"/>
	<path d="M176.84,11.18c0,0.16-0.13,0.28-0.28,0.28h-0.62c-0.16,0-0.28-0.13-0.28-0.28V8.22c0-0.16,0.13-0.28,0.28-0.28h0.62
		c0.16,0,0.28,0.13,0.28,0.28V11.18z"/>
	<path d="M178.68,11.18c0,0.16-0.13,0.28-0.28,0.28h-0.62c-0.16,0-0.28-0.13-0.28-0.28V8.22c0-0.16,0.13-0.28,0.28-0.28h0.62
		c0.16,0,0.28,0.13,0.28,0.28V11.18z"/>
	<path d="M169.47,27.05c0,0.16-0.13,0.28-0.28,0.28h-0.62c-0.16,0-0.28-0.13-0.28-0.28V24.1c0-0.16,0.13-0.28,0.28-0.28h0.62
		c0.16,0,0.28,0.13,0.28,0.28V27.05z"/>
	<path d="M171.31,27.05c0,0.16-0.13,0.28-0.28,0.28h-0.62c-0.16,0-0.28-0.13-0.28-0.28V24.1c0-0.16,0.13-0.28,0.28-0.28h0.62
		c0.16,0,0.28,0.13,0.28,0.28V27.05z"/>
	<path d="M173.16,27.05c0,0.16-0.13,0.28-0.28,0.28h-0.62c-0.16,0-0.28-0.13-0.28-0.28V24.1c0-0.16,0.13-0.28,0.28-0.28h0.62
		c0.16,0,0.28,0.13,0.28,0.28V27.05z"/>
	<path d="M175,27.05c0,0.16-0.13,0.28-0.28,0.28h-0.62c-0.16,0-0.28-0.13-0.28-0.28V24.1c0-0.16,0.13-0.28,0.28-0.28h0.62
		c0.16,0,0.28,0.13,0.28,0.28V27.05z"/>
	<path d="M176.84,27.05c0,0.16-0.13,0.28-0.28,0.28h-0.62c-0.16,0-0.28-0.13-0.28-0.28V24.1c0-0.16,0.13-0.28,0.28-0.28h0.62
		c0.16,0,0.28,0.13,0.28,0.28V27.05z"/>
	<path d="M178.68,27.05c0,0.16-0.13,0.28-0.28,0.28h-0.62c-0.16,0-0.28-0.13-0.28-0.28V24.1c0-0.16,0.13-0.28,0.28-0.28h0.62
		c0.16,0,0.28,0.13,0.28,0.28V27.05z"/>
	<path d="M180.53,27.05c0,0.16-0.13,0.28-0.28,0.28h-0.62c-0.16,0-0.28-0.13-0.28-0.28V24.1c0-0.16,0.13-0.28,0.28-0.28h0.62
		c0.16,0,0.28,0.13,0.28,0.28V27.05z"/>
	<path d="M94.69,55.73c0,0.16,0.13,0.28,0.28,0.28H97c0.16,0,0.28-0.13,0.28-0.28v-2.75c0-0.16-0.13-0.28-0.28-0.28h-2.03
		c-0.16,0-0.28,0.13-0.28,0.28V55.73z"/>
	<path d="M89.05,55.73c0,0.16,0.13,0.28,0.28,0.28h2.03c0.16,0,0.28-0.13,0.28-0.28v-2.75c0-0.16-0.13-0.28-0.28-0.28h-2.03
		c-0.16,0-0.28,0.13-0.28,0.28V55.73z"/>
	<path d="M185.41,24.09c0,0.11,0.09,0.2,0.2,0.2h1.03c0.11,0,0.2-0.09,0.2-0.2V22.5c0-0.11-0.09-0.2-0.2-0.2h-1.03
		c-0.11,0-0.2,0.09-0.2,0.2V24.09z"/>
	<path d="M182.31,24.09c0,0.11,0.09,0.2,0.2,0.2h1.03c0.11,0,0.2-0.09,0.2-0.2V22.5c0-0.11-0.09-0.2-0.2-0.2h-1.03
		c-0.11,0-0.2,0.09-0.2,0.2V24.09z"/>
	<path d="M185.41,27.09c0,0.11,0.09,0.2,0.2,0.2h1.03c0.11,0,0.2-0.09,0.2-0.2V25.5c0-0.11-0.09-0.2-0.2-0.2h-1.03
		c-0.11,0-0.2,0.09-0.2,0.2V27.09z"/>
	<path d="M182.31,27.09c0,0.11,0.09,0.2,0.2,0.2h1.03c0.11,0,0.2-0.09,0.2-0.2V25.5c0-0.11-0.09-0.2-0.2-0.2h-1.03
		c-0.11,0-0.2,0.09-0.2,0.2V27.09z"/>
	<path d="M185.41,18.09c0,0.11,0.09,0.2,0.2,0.2h1.03c0.11,0,0.2-0.09,0.2-0.2V16.5c0-0.11-0.09-0.2-0.2-0.2h-1.03
		c-0.11,0-0.2,0.09-0.2,0.2V18.09z"/>
	<path d="M182.31,18.09c0,0.11,0.09,0.2,0.2,0.2h1.03c0.11,0,0.2-0.09,0.2-0.2V16.5c0-0.11-0.09-0.2-0.2-0.2h-1.03
		c-0.11,0-0.2,0.09-0.2,0.2V18.09z"/>
	<path d="M185.41,21.09c0,0.11,0.09,0.2,0.2,0.2h1.03c0.11,0,0.2-0.09,0.2-0.2V19.5c0-0.11-0.09-0.2-0.2-0.2h-1.03
		c-0.11,0-0.2,0.09-0.2,0.2V21.09z"/>
	<path d="M182.31,21.09c0,0.11,0.09,0.2,0.2,0.2h1.03c0.11,0,0.2-0.09,0.2-0.2V19.5c0-0.11-0.09-0.2-0.2-0.2h-1.03
		c-0.11,0-0.2,0.09-0.2,0.2V21.09z"/>
	<path d="M97.42,18.54c0-0.11-0.09-0.2-0.2-0.2h-1.03c-0.11,0-0.2,0.09-0.2,0.2v1.59c0,0.11,0.09,0.2,0.2,0.2h1.03
		c0.11,0,0.2-0.09,0.2-0.2V18.54z"/>
	<path d="M100.52,18.54c0-0.11-0.09-0.2-0.2-0.2h-1.03c-0.11,0-0.2,0.09-0.2,0.2v1.59c0,0.11,0.09,0.2,0.2,0.2h1.03
		c0.11,0,0.2-0.09,0.2-0.2V18.54z"/>
	<path d="M97.42,15.54c0-0.11-0.09-0.2-0.2-0.2h-1.03c-0.11,0-0.2,0.09-0.2,0.2v1.59c0,0.11,0.09,0.2,0.2,0.2h1.03
		c0.11,0,0.2-0.09,0.2-0.2V15.54z"/>
	<path d="M100.52,15.54c0-0.11-0.09-0.2-0.2-0.2h-1.03c-0.11,0-0.2,0.09-0.2,0.2v1.59c0,0.11,0.09,0.2,0.2,0.2h1.03
		c0.11,0,0.2-0.09,0.2-0.2V15.54z"/>
	<path d="M97.42,24.54c0-0.11-0.09-0.2-0.2-0.2h-1.03c-0.11,0-0.2,0.09-0.2,0.2v1.59c0,0.11,0.09,0.2,0.2,0.2h1.03
		c0.11,0,0.2-0.09,0.2-0.2V24.54z"/>
	<path d="M100.52,24.54c0-0.11-0.09-0.2-0.2-0.2h-1.03c-0.11,0-0.2,0.09-0.2,0.2v1.59c0,0.11,0.09,0.2,0.2,0.2h1.03
		c0.11,0,0.2-0.09,0.2-0.2V24.54z"/>
	<path d="M97.42,21.54c0-0.11-0.09-0.2-0.2-0.2h-1.03c-0.11,0-0.2,0.09-0.2,0.2v1.59c0,0.11,0.09,0.2,0.2,0.2h1.03
		c0.11,0,0.2-0.09,0.2-0.2V21.54z"/>
	<path d="M100.52,21.54c0-0.11-0.09-0.2-0.2-0.2h-1.03c-0.11,0-0.2,0.09-0.2,0.2v1.59c0,0.11,0.09,0.2,0.2,0.2h1.03
		c0.11,0,0.2-0.09,0.2-0.2V21.54z"/>
	<path d="M91.23,40.14c0-0.11-0.09-0.2-0.2-0.2H90c-0.11,0-0.2,0.09-0.2,0.2v1.59c0,0.11,0.09,0.2,0.2,0.2h1.03
		c0.11,0,0.2-0.09,0.2-0.2C91.23,41.73,91.23,40.14,91.23,40.14z"/>
	<path d="M94.33,40.14c0-0.11-0.09-0.2-0.2-0.2H93.1c-0.11,0-0.2,0.09-0.2,0.2v1.59c0,0.11,0.09,0.2,0.2,0.2h1.03
		c0.11,0,0.2-0.09,0.2-0.2C94.33,41.73,94.33,40.14,94.33,40.14z"/>
	<path d="M91.23,36.75c0-0.11-0.09-0.2-0.2-0.2H90c-0.11,0-0.2,0.09-0.2,0.2v1.59c0,0.11,0.09,0.2,0.2,0.2h1.03
		c0.11,0,0.2-0.09,0.2-0.2C91.23,38.34,91.23,36.75,91.23,36.75z"/>
	<path d="M94.33,36.75c0-0.11-0.09-0.2-0.2-0.2H93.1c-0.11,0-0.2,0.09-0.2,0.2v1.59c0,0.11,0.09,0.2,0.2,0.2h1.03
		c0.11,0,0.2-0.09,0.2-0.2C94.33,38.34,94.33,36.75,94.33,36.75z"/>
	<path d="M97.33,40.14c0-0.11-0.09-0.2-0.2-0.2H96.1c-0.11,0-0.2,0.09-0.2,0.2v1.59c0,0.11,0.09,0.2,0.2,0.2h1.03
		c0.11,0,0.2-0.09,0.2-0.2C97.33,41.73,97.33,40.14,97.33,40.14z"/>
	<path d="M100.42,40.14c0-0.11-0.09-0.2-0.2-0.2h-1.03c-0.11,0-0.2,0.09-0.2,0.2v1.59c0,0.11,0.09,0.2,0.2,0.2h1.03
		c0.11,0,0.2-0.09,0.2-0.2V40.14z"/>
	<path d="M103.42,40.14c0-0.11-0.09-0.2-0.2-0.2h-1.03c-0.11,0-0.2,0.09-0.2,0.2v1.59c0,0.11,0.09,0.2,0.2,0.2h1.03
		c0.11,0,0.2-0.09,0.2-0.2V40.14z"/>
	<path d="M106.52,40.14c0-0.11-0.09-0.2-0.2-0.2h-1.03c-0.11,0-0.2,0.09-0.2,0.2v1.59c0,0.11,0.09,0.2,0.2,0.2h1.03
		c0.11,0,0.2-0.09,0.2-0.2V40.14z"/>
	<path d="M97.33,36.75c0-0.11-0.09-0.2-0.2-0.2H96.1c-0.11,0-0.2,0.09-0.2,0.2v1.59c0,0.11,0.09,0.2,0.2,0.2h1.03
		c0.11,0,0.2-0.09,0.2-0.2C97.33,38.34,97.33,36.75,97.33,36.75z"/>
	<path d="M100.42,36.75c0-0.11-0.09-0.2-0.2-0.2h-1.03c-0.11,0-0.2,0.09-0.2,0.2v1.59c0,0.11,0.09,0.2,0.2,0.2h1.03
		c0.11,0,0.2-0.09,0.2-0.2V36.75z"/>
	<path d="M97.42,12.54c0-0.11-0.09-0.2-0.2-0.2h-1.03c-0.11,0-0.2,0.09-0.2,0.2v1.59c0,0.11,0.09,0.2,0.2,0.2h1.03
		c0.11,0,0.2-0.09,0.2-0.2V12.54z"/>
	<path d="M100.52,12.54c0-0.11-0.09-0.2-0.2-0.2h-1.03c-0.11,0-0.2,0.09-0.2,0.2v1.59c0,0.11,0.09,0.2,0.2,0.2h1.03
		c0.11,0,0.2-0.09,0.2-0.2V12.54z"/>
	<path d="M97.42,9.54c0-0.11-0.09-0.2-0.2-0.2h-1.03c-0.11,0-0.2,0.09-0.2,0.2v1.59c0,0.11,0.09,0.2,0.2,0.2h1.03
		c0.11,0,0.2-0.09,0.2-0.2V9.54z"/>
	<path d="M100.52,9.54c0-0.11-0.09-0.2-0.2-0.2h-1.03c-0.11,0-0.2,0.09-0.2,0.2v1.59c0,0.11,0.09,0.2,0.2,0.2h1.03
		c0.11,0,0.2-0.09,0.2-0.2V9.54z"/>
	<path d="M91.33,24.54c0-0.11-0.09-0.2-0.2-0.2H90.1c-0.11,0-0.2,0.09-0.2,0.2v1.59c0,0.11,0.09,0.2,0.2,0.2h1.03
		c0.11,0,0.2-0.09,0.2-0.2C91.33,26.13,91.33,24.54,91.33,24.54z"/>
	<path d="M94.42,24.54c0-0.11-0.09-0.2-0.2-0.2h-1.03c-0.11,0-0.2,0.09-0.2,0.2v1.59c0,0.11,0.09,0.2,0.2,0.2h1.03
		c0.11,0,0.2-0.09,0.2-0.2V24.54z"/>
	<path d="M91.33,21.54c0-0.11-0.09-0.2-0.2-0.2H90.1c-0.11,0-0.2,0.09-0.2,0.2v1.59c0,0.11,0.09,0.2,0.2,0.2h1.03
		c0.11,0,0.2-0.09,0.2-0.2C91.33,23.13,91.33,21.54,91.33,21.54z"/>
	<path d="M94.42,21.54c0-0.11-0.09-0.2-0.2-0.2h-1.03c-0.11,0-0.2,0.09-0.2,0.2v1.59c0,0.11,0.09,0.2,0.2,0.2h1.03
		c0.11,0,0.2-0.09,0.2-0.2V21.54z"/>
	<path d="M122.46,41.3c0,0.16-0.13,0.28-0.28,0.28h-2.06c-0.16,0-0.28-0.13-0.28-0.28v-1.34c0-0.16,0.13-0.28,0.28-0.28h2.06
		c0.16,0,0.28,0.13,0.28,0.28V41.3z"/>
	<path d="M126.48,44.82c0,0.16-0.13,0.28-0.28,0.28h-2.06c-0.16,0-0.28-0.13-0.28-0.28v-1.34c0-0.16,0.13-0.28,0.28-0.28h2.06
		c0.16,0,0.28,0.13,0.28,0.28V44.82z"/>
	<path d="M126.48,41.3c0,0.16-0.13,0.28-0.28,0.28h-2.06c-0.16,0-0.28-0.13-0.28-0.28v-1.34c0-0.16,0.13-0.28,0.28-0.28h2.06
		c0.16,0,0.28,0.13,0.28,0.28V41.3z"/>
	<path d="M122.46,44.82c0,0.16-0.13,0.28-0.28,0.28h-2.06c-0.16,0-0.28-0.13-0.28-0.28v-1.34c0-0.16,0.13-0.28,0.28-0.28h2.06
		c0.16,0,0.28,0.13,0.28,0.28V44.82z"/>
	<path d="M111.73,49.7c0,0.16-0.13,0.28-0.28,0.28h-1.3c-0.16,0-0.28-0.13-0.28-0.28v-1.13c0-0.16,0.13-0.28,0.28-0.28h1.3
		c0.16,0,0.28,0.13,0.28,0.28V49.7z"/>
	<path d="M117.68,49.7c0,0.16-0.13,0.28-0.28,0.28h-1.3c-0.16,0-0.28-0.13-0.28-0.28v-1.13c0-0.16,0.13-0.28,0.28-0.28h1.3
		c0.16,0,0.28,0.13,0.28,0.28V49.7z"/>
	<path d="M115.44,55.73c0,0.16,0.13,0.28,0.28,0.28h2.03c0.16,0,0.28-0.13,0.28-0.28v-2.75c0-0.16-0.13-0.28-0.28-0.28h-2.03
		c-0.16,0-0.28,0.13-0.28,0.28V55.73z"/>
	<path d="M109.8,55.73c0,0.16,0.13,0.28,0.28,0.28h2.03c0.16,0,0.28-0.13,0.28-0.28v-2.75c0-0.16-0.13-0.28-0.28-0.28h-2.03
		c-0.16,0-0.28,0.13-0.28,0.28V55.73z"/>
	<path d="M125.09,55.73c0,0.16,0.13,0.28,0.28,0.28h2.03c0.16,0,0.28-0.13,0.28-0.28v-2.75c0-0.16-0.13-0.28-0.28-0.28h-2.03
		c-0.16,0-0.28,0.13-0.28,0.28V55.73z"/>
	<path d="M119.44,55.73c0,0.16,0.13,0.28,0.28,0.28h2.03c0.16,0,0.28-0.13,0.28-0.28v-2.75c0-0.16-0.13-0.28-0.28-0.28h-2.03
		c-0.16,0-0.28,0.13-0.28,0.28V55.73z"/>
	<path d="M121.68,49.7c0,0.16-0.13,0.28-0.28,0.28h-1.3c-0.16,0-0.28-0.13-0.28-0.28v-1.13c0-0.16,0.13-0.28,0.28-0.28h1.3
		c0.16,0,0.28,0.13,0.28,0.28V49.7z"/>
	<path d="M127.63,49.7c0,0.16-0.13,0.28-0.28,0.28h-1.3c-0.16,0-0.28-0.13-0.28-0.28v-1.13c0-0.16,0.13-0.28,0.28-0.28h1.3
		c0.16,0,0.28,0.13,0.28,0.28V49.7z"/>
	<path d="M147.6,27.27c0.16,0,0.28-0.13,0.28-0.28v-3.74c0-0.16-0.13-0.28-0.28-0.28h-0.36c-0.16,0-0.28,0.13-0.28,0.28v3.74
		c0,0.16,0.13,0.28,0.28,0.28H147.6z"/>
	<path d="M149.01,27.27c0.16,0,0.28-0.13,0.28-0.28v-3.74c0-0.16-0.13-0.28-0.28-0.28h-0.36c-0.16,0-0.28,0.13-0.28,0.28v3.74
		c0,0.16,0.13,0.28,0.28,0.28H149.01z"/>
	<path d="M150.43,27.27c0.16,0,0.28-0.13,0.28-0.28v-3.74c0-0.16-0.13-0.28-0.28-0.28h-0.36c-0.16,0-0.28,0.13-0.28,0.28v3.74
		c0,0.16,0.13,0.28,0.28,0.28H150.43z"/>
	<path d="M151.85,27.27c0.16,0,0.28-0.13,0.28-0.28v-3.74c0-0.16-0.13-0.28-0.28-0.28h-0.36c-0.16,0-0.28,0.13-0.28,0.28v3.74
		c0,0.16,0.13,0.28,0.28,0.28H151.85z"/>
	<path d="M144.76,27.27c0.16,0,0.28-0.13,0.28-0.28v-3.74c0-0.16-0.13-0.28-0.28-0.28h-0.36c-0.16,0-0.28,0.13-0.28,0.28v3.74
		c0,0.16,0.13,0.28,0.28,0.28H144.76z"/>
	<path d="M146.18,27.27c0.16,0,0.28-0.13,0.28-0.28v-3.74c0-0.16-0.13-0.28-0.28-0.28h-0.36c-0.16,0-0.28,0.13-0.28,0.28v3.74
		c0,0.16,0.13,0.28,0.28,0.28H146.18z"/>
	<path d="M141.93,27.27c0.16,0,0.28-0.13,0.28-0.28v-3.74c0-0.16-0.13-0.28-0.28-0.28h-0.36c-0.16,0-0.28,0.13-0.28,0.28v3.74
		c0,0.16,0.13,0.28,0.28,0.28H141.93z"/>
	<path d="M143.34,27.27c0.16,0,0.28-0.13,0.28-0.28v-3.74c0-0.16-0.13-0.28-0.28-0.28h-0.36c-0.16,0-0.28,0.13-0.28,0.28v3.74
		c0,0.16,0.13,0.28,0.28,0.28H143.34z"/>
	<path d="M154.08,27.27c0.16,0,0.28-0.13,0.28-0.28v-3.74c0-0.16-0.13-0.28-0.28-0.28h-1.17c-0.16,0-0.28,0.13-0.28,0.28v3.74
		c0,0.16,0.13,0.28,0.28,0.28H154.08z"/>
	<path d="M140.51,27.27c0.16,0,0.28-0.13,0.28-0.28v-3.74c0-0.16-0.13-0.28-0.28-0.28h-1.17c-0.16,0-0.28,0.13-0.28,0.28v3.74
		c0,0.16,0.13,0.28,0.28,0.28H140.51z"/>
	<path d="M138.28,27.27c0.16,0,0.28-0.13,0.28-0.28v-3.74c0-0.16-0.13-0.28-0.28-0.28h-1.17c-0.16,0-0.28,0.13-0.28,0.28v3.74
		c0,0.16,0.13,0.28,0.28,0.28H138.28z"/>
	<path d="M156.31,27.27c0.16,0,0.28-0.13,0.28-0.28v-3.74c0-0.16-0.13-0.28-0.28-0.28h-1.17c-0.16,0-0.28,0.13-0.28,0.28v3.74
		c0,0.16,0.13,0.28,0.28,0.28H156.31z"/>
	<path d="M165.12,24.09c0,0.11,0.09,0.2,0.2,0.2h1.03c0.11,0,0.2-0.09,0.2-0.2V22.5c0-0.11-0.09-0.2-0.2-0.2h-1.03
		c-0.11,0-0.2,0.09-0.2,0.2V24.09z"/>
	<path d="M162.03,24.09c0,0.11,0.09,0.2,0.2,0.2h1.03c0.11,0,0.2-0.09,0.2-0.2V22.5c0-0.11-0.09-0.2-0.2-0.2h-1.03
		c-0.11,0-0.2,0.09-0.2,0.2V24.09z"/>
	<path d="M165.12,17.33c0,0.11,0.09,0.2,0.2,0.2h1.03c0.11,0,0.2-0.09,0.2-0.2v-1.59c0-0.11-0.09-0.2-0.2-0.2h-1.03
		c-0.11,0-0.2,0.09-0.2,0.2V17.33z"/>
	<path d="M162.03,17.33c0,0.11,0.09,0.2,0.2,0.2h1.03c0.11,0,0.2-0.09,0.2-0.2v-1.59c0-0.11-0.09-0.2-0.2-0.2h-1.03
		c-0.11,0-0.2,0.09-0.2,0.2V17.33z"/>
	<path d="M165.12,21.09c0,0.11,0.09,0.2,0.2,0.2h1.03c0.11,0,0.2-0.09,0.2-0.2V19.5c0-0.11-0.09-0.2-0.2-0.2h-1.03
		c-0.11,0-0.2,0.09-0.2,0.2V21.09z"/>
	<path d="M162.03,21.09c0,0.11,0.09,0.2,0.2,0.2h1.03c0.11,0,0.2-0.09,0.2-0.2V19.5c0-0.11-0.09-0.2-0.2-0.2h-1.03
		c-0.11,0-0.2,0.09-0.2,0.2V21.09z"/>
	<path d="M165.12,10.58c0,0.11,0.09,0.2,0.2,0.2h1.03c0.11,0,0.2-0.09,0.2-0.2V8.99c0-0.11-0.09-0.2-0.2-0.2h-1.03
		c-0.11,0-0.2,0.09-0.2,0.2V10.58z"/>
	<path d="M162.03,10.58c0,0.11,0.09,0.2,0.2,0.2h1.03c0.11,0,0.2-0.09,0.2-0.2V8.99c0-0.11-0.09-0.2-0.2-0.2h-1.03
		c-0.11,0-0.2,0.09-0.2,0.2V10.58z"/>
	<path d="M165.12,13.5c0,0.11,0.09,0.2,0.2,0.2h1.03c0.11,0,0.2-0.09,0.2-0.2v-1.59c0-0.11-0.09-0.2-0.2-0.2h-1.03
		c-0.11,0-0.2,0.09-0.2,0.2V13.5z"/>
	<path d="M162.03,13.5c0,0.11,0.09,0.2,0.2,0.2h1.03c0.11,0,0.2-0.09,0.2-0.2v-1.59c0-0.11-0.09-0.2-0.2-0.2h-1.03
		c-0.11,0-0.2,0.09-0.2,0.2V13.5z"/>
	<path d="M185.41,13.39c0,0.11,0.09,0.2,0.2,0.2h1.03c0.11,0,0.2-0.09,0.2-0.2V11.8c0-0.11-0.09-0.2-0.2-0.2h-1.03
		c-0.11,0-0.2,0.09-0.2,0.2V13.39z"/>
	<path d="M182.31,13.39c0,0.11,0.09,0.2,0.2,0.2h1.03c0.11,0,0.2-0.09,0.2-0.2V11.8c0-0.11-0.09-0.2-0.2-0.2h-1.03
		c-0.11,0-0.2,0.09-0.2,0.2V13.39z"/>
	<path d="M129.98,18.17c0.11,0,0.2-0.09,0.2-0.2v-1.03c0-0.11-0.09-0.2-0.2-0.2h-1.59c-0.11,0-0.2,0.09-0.2,0.2v1.03
		c0,0.11,0.09,0.2,0.2,0.2H129.98z"/>
	<path d="M129.98,21.26c0.11,0,0.2-0.09,0.2-0.2v-1.03c0-0.11-0.09-0.2-0.2-0.2h-1.59c-0.11,0-0.2,0.09-0.2,0.2v1.03
		c0,0.11,0.09,0.2,0.2,0.2H129.98z"/>
	<path d="M129.98,29.31c0.11,0,0.2-0.09,0.2-0.2v-1.03c0-0.11-0.09-0.2-0.2-0.2h-1.59c-0.11,0-0.2,0.09-0.2,0.2v1.03
		c0,0.11,0.09,0.2,0.2,0.2H129.98z"/>
	<path d="M129.98,32.4c0.11,0,0.2-0.09,0.2-0.2v-1.03c0-0.11-0.09-0.2-0.2-0.2h-1.59c-0.11,0-0.2,0.09-0.2,0.2v1.03
		c0,0.11,0.09,0.2,0.2,0.2H129.98z"/>
	<path d="M129.98,23.75c0.11,0,0.2-0.09,0.2-0.2v-1.03c0-0.11-0.09-0.2-0.2-0.2h-1.59c-0.11,0-0.2,0.09-0.2,0.2v1.03
		c0,0.11,0.09,0.2,0.2,0.2H129.98z"/>
	<path d="M129.98,26.85c0.11,0,0.2-0.09,0.2-0.2v-1.03c0-0.11-0.09-0.2-0.2-0.2h-1.59c-0.11,0-0.2,0.09-0.2,0.2v1.03
		c0,0.11,0.09,0.2,0.2,0.2H129.98z"/>
	<path d="M129.98,44.67c0.11,0,0.2-0.09,0.2-0.2v-1.03c0-0.11-0.09-0.2-0.2-0.2h-1.59c-0.11,0-0.2,0.09-0.2,0.2v1.03
		c0,0.11,0.09,0.2,0.2,0.2H129.98z"/>
	<path d="M129.98,35.41c0.11,0,0.2-0.09,0.2-0.2v-1.03c0-0.11-0.09-0.2-0.2-0.2h-1.59c-0.11,0-0.2,0.09-0.2,0.2v1.03
		c0,0.11,0.09,0.2,0.2,0.2H129.98z"/>
	<path d="M129.98,38.5c0.11,0,0.2-0.09,0.2-0.2v-1.03c0-0.11-0.09-0.2-0.2-0.2h-1.59c-0.11,0-0.2,0.09-0.2,0.2v1.03
		c0,0.11,0.09,0.2,0.2,0.2H129.98z"/>
	<path d="M117.93,41.57c0.11,0,0.2-0.09,0.2-0.2v-1.03c0-0.11-0.09-0.2-0.2-0.2h-1.59c-0.11,0-0.2,0.09-0.2,0.2v1.03
		c0,0.11,0.09,0.2,0.2,0.2H117.93z"/>
	<path d="M117.93,44.67c0.11,0,0.2-0.09,0.2-0.2v-1.03c0-0.11-0.09-0.2-0.2-0.2h-1.59c-0.11,0-0.2,0.09-0.2,0.2v1.03
		c0,0.11,0.09,0.2,0.2,0.2H117.93z"/>
	<path d="M113.93,41.57c0.11,0,0.2-0.09,0.2-0.2v-1.03c0-0.11-0.09-0.2-0.2-0.2h-1.59c-0.11,0-0.2,0.09-0.2,0.2v1.03
		c0,0.11,0.09,0.2,0.2,0.2H113.93z"/>
	<path d="M113.93,44.67c0.11,0,0.2-0.09,0.2-0.2v-1.03c0-0.11-0.09-0.2-0.2-0.2h-1.59c-0.11,0-0.2,0.09-0.2,0.2v1.03
		c0,0.11,0.09,0.2,0.2,0.2H113.93z"/>
	<path d="M91.02,9.54c0-0.11-0.09-0.2-0.2-0.2h-1.03c-0.11,0-0.2,0.09-0.2,0.2v1.59c0,0.11,0.09,0.2,0.2,0.2h1.03
		c0.11,0,0.2-0.09,0.2-0.2V9.54z"/>
	<path d="M94.42,17.33c0-0.11-0.09-0.2-0.2-0.2h-1.03c-0.11,0-0.2,0.09-0.2,0.2v1.59c0,0.11,0.09,0.2,0.2,0.2h1.03
		c0.11,0,0.2-0.09,0.2-0.2V17.33z"/>
	<path d="M91.02,17.33c0-0.11-0.09-0.2-0.2-0.2h-1.03c-0.11,0-0.2,0.09-0.2,0.2v1.59c0,0.11,0.09,0.2,0.2,0.2h1.03
		c0.11,0,0.2-0.09,0.2-0.2V17.33z"/>
	<path d="M94.42,9.54c0-0.11-0.09-0.2-0.2-0.2h-1.03c-0.11,0-0.2,0.09-0.2,0.2v1.59c0,0.11,0.09,0.2,0.2,0.2h1.03
		c0.11,0,0.2-0.09,0.2-0.2V9.54z"/>
	<path d="M129.98,41.57c0.11,0,0.2-0.09,0.2-0.2v-1.03c0-0.11-0.09-0.2-0.2-0.2h-1.59c-0.11,0-0.2,0.09-0.2,0.2v1.03
		c0,0.11,0.09,0.2,0.2,0.2H129.98z"/>
	<path d="M109.41,9.54c0-0.11-0.09-0.2-0.2-0.2h-1.03c-0.11,0-0.2,0.09-0.2,0.2v1.59c0,0.11,0.09,0.2,0.2,0.2h1.03
		c0.11,0,0.2-0.09,0.2-0.2V9.54z"/>
	<path d="M112.51,9.54c0-0.11-0.09-0.2-0.2-0.2h-1.03c-0.11,0-0.2,0.09-0.2,0.2v1.59c0,0.11,0.09,0.2,0.2,0.2h1.03
		c0.11,0,0.2-0.09,0.2-0.2V9.54z"/>
	<path d="M115.4,9.54c0-0.11-0.09-0.2-0.2-0.2h-1.03c-0.11,0-0.2,0.09-0.2,0.2v1.59c0,0.11,0.09,0.2,0.2,0.2h1.03
		c0.11,0,0.2-0.09,0.2-0.2V9.54z"/>
	<path d="M118.5,9.54c0-0.11-0.09-0.2-0.2-0.2h-1.03c-0.11,0-0.2,0.09-0.2,0.2v1.59c0,0.11,0.09,0.2,0.2,0.2h1.03
		c0.11,0,0.2-0.09,0.2-0.2V9.54z"/>
	<path d="M103.42,9.54c0-0.11-0.09-0.2-0.2-0.2h-1.03c-0.11,0-0.2,0.09-0.2,0.2v1.59c0,0.11,0.09,0.2,0.2,0.2h1.03
		c0.11,0,0.2-0.09,0.2-0.2V9.54z"/>
	<path d="M106.51,9.54c0-0.11-0.09-0.2-0.2-0.2h-1.03c-0.11,0-0.2,0.09-0.2,0.2v1.59c0,0.11,0.09,0.2,0.2,0.2h1.03
		c0.11,0,0.2-0.09,0.2-0.2V9.54z"/>
	<path d="M109.41,6.54c0-0.11-0.09-0.2-0.2-0.2h-1.03c-0.11,0-0.2,0.09-0.2,0.2v1.59c0,0.11,0.09,0.2,0.2,0.2h1.03
		c0.11,0,0.2-0.09,0.2-0.2V6.54z"/>
	<path d="M112.51,6.54c0-0.11-0.09-0.2-0.2-0.2h-1.03c-0.11,0-0.2,0.09-0.2,0.2v1.59c0,0.11,0.09,0.2,0.2,0.2h1.03
		c0.11,0,0.2-0.09,0.2-0.2V6.54z"/>
	<path d="M103.42,6.54c0-0.11-0.09-0.2-0.2-0.2h-1.03c-0.11,0-0.2,0.09-0.2,0.2v1.59c0,0.11,0.09,0.2,0.2,0.2h1.03
		c0.11,0,0.2-0.09,0.2-0.2V6.54z"/>
	<path d="M106.51,6.54c0-0.11-0.09-0.2-0.2-0.2h-1.03c-0.11,0-0.2,0.09-0.2,0.2v1.59c0,0.11,0.09,0.2,0.2,0.2h1.03
		c0.11,0,0.2-0.09,0.2-0.2V6.54z"/>
	<path d="M115.4,6.54c0-0.11-0.09-0.2-0.2-0.2h-1.03c-0.11,0-0.2,0.09-0.2,0.2v1.59c0,0.11,0.09,0.2,0.2,0.2h1.03
		c0.11,0,0.2-0.09,0.2-0.2V6.54z"/>
	<path d="M97.42,6.54c0-0.11-0.09-0.2-0.2-0.2h-1.03c-0.11,0-0.2,0.09-0.2,0.2v1.59c0,0.11,0.09,0.2,0.2,0.2h1.03
		c0.11,0,0.2-0.09,0.2-0.2V6.54z"/>
	<path d="M100.52,6.54c0-0.11-0.09-0.2-0.2-0.2h-1.03c-0.11,0-0.2,0.09-0.2,0.2v1.59c0,0.11,0.09,0.2,0.2,0.2h1.03
		c0.11,0,0.2-0.09,0.2-0.2V6.54z"/>
	<path d="M118.5,6.54c0-0.11-0.09-0.2-0.2-0.2h-1.03c-0.11,0-0.2,0.09-0.2,0.2v1.59c0,0.11,0.09,0.2,0.2,0.2h1.03
		c0.11,0,0.2-0.09,0.2-0.2V6.54z"/>
	<path d="M121.4,9.54c0-0.11-0.09-0.2-0.2-0.2h-1.03c-0.11,0-0.2,0.09-0.2,0.2v1.59c0,0.11,0.09,0.2,0.2,0.2h1.03
		c0.11,0,0.2-0.09,0.2-0.2V9.54z"/>
	<path d="M124.49,9.54c0-0.11-0.09-0.2-0.2-0.2h-1.03c-0.11,0-0.2,0.09-0.2,0.2v1.59c0,0.11,0.09,0.2,0.2,0.2h1.03
		c0.11,0,0.2-0.09,0.2-0.2V9.54z"/>
	<path d="M121.4,6.54c0-0.11-0.09-0.2-0.2-0.2h-1.03c-0.11,0-0.2,0.09-0.2,0.2v1.59c0,0.11,0.09,0.2,0.2,0.2h1.03
		c0.11,0,0.2-0.09,0.2-0.2V6.54z"/>
	<path d="M124.49,6.54c0-0.11-0.09-0.2-0.2-0.2h-1.03c-0.11,0-0.2,0.09-0.2,0.2v1.59c0,0.11,0.09,0.2,0.2,0.2h1.03
		c0.11,0,0.2-0.09,0.2-0.2V6.54z"/>
	<path d="M127.39,6.54c0-0.11-0.09-0.2-0.2-0.2h-1.03c-0.11,0-0.2,0.09-0.2,0.2v1.59c0,0.11,0.09,0.2,0.2,0.2h1.03
		c0.11,0,0.2-0.09,0.2-0.2V6.54z"/>
	<path d="M130.49,6.54c0-0.11-0.09-0.2-0.2-0.2h-1.03c-0.11,0-0.2,0.09-0.2,0.2v1.59c0,0.11,0.09,0.2,0.2,0.2h1.03
		c0.11,0,0.2-0.09,0.2-0.2V6.54z"/>
	<path d="M195.74,54.54c-0.11,0-0.2,0.09-0.2,0.2v1.03c0,0.11,0.09,0.2,0.2,0.2h1.59c0.11,0,0.2-0.09,0.2-0.2v-1.03
		c0-0.11-0.09-0.2-0.2-0.2H195.74z"/>
	<path d="M195.74,51.44c-0.11,0-0.2,0.09-0.2,0.2v1.03c0,0.11,0.09,0.2,0.2,0.2h1.59c0.11,0,0.2-0.09,0.2-0.2v-1.03
		c0-0.11-0.09-0.2-0.2-0.2H195.74z"/>
	<path d="M198.74,54.54c-0.11,0-0.2,0.09-0.2,0.2v1.03c0,0.11,0.09,0.2,0.2,0.2h1.59c0.11,0,0.2-0.09,0.2-0.2v-1.03
		c0-0.11-0.09-0.2-0.2-0.2H198.74z"/>
	<path d="M198.74,51.44c-0.11,0-0.2,0.09-0.2,0.2v1.03c0,0.11,0.09,0.2,0.2,0.2h1.59c0.11,0,0.2-0.09,0.2-0.2v-1.03
		c0-0.11-0.09-0.2-0.2-0.2H198.74z"/>
	<path d="M203.49,53.91c0-0.16-0.13-0.28-0.28-0.28h-1.03c-0.16,0-0.28,0.13-0.28,0.28v1.75c0,0.16,0.13,0.28,0.28,0.28h1.03
		c0.16,0,0.28-0.13,0.28-0.28V53.91z"/>
	<path d="M208.13,53.91c0-0.16-0.13-0.28-0.28-0.28h-1.03c-0.16,0-0.28,0.13-0.28,0.28v1.75c0,0.16,0.13,0.28,0.28,0.28h1.03
		c0.16,0,0.28-0.13,0.28-0.28V53.91z"/>
	<path d="M211.13,53.91c0-0.16-0.13-0.28-0.28-0.28h-1.03c-0.16,0-0.28,0.13-0.28,0.28v1.75c0,0.16,0.13,0.28,0.28,0.28h1.03
		c0.16,0,0.28-0.13,0.28-0.28V53.91z"/>
	<path d="M215.77,53.91c0-0.16-0.13-0.28-0.28-0.28h-1.03c-0.16,0-0.28,0.13-0.28,0.28v1.75c0,0.16,0.13,0.28,0.28,0.28h1.03
		c0.16,0,0.28-0.13,0.28-0.28V53.91z"/>
	<path d="M127.39,9.54c0-0.11-0.09-0.2-0.2-0.2h-1.03c-0.11,0-0.2,0.09-0.2,0.2v1.59c0,0.11,0.09,0.2,0.2,0.2h1.03
		c0.11,0,0.2-0.09,0.2-0.2V9.54z"/>
	<path d="M130.49,9.54c0-0.11-0.09-0.2-0.2-0.2h-1.03c-0.11,0-0.2,0.09-0.2,0.2v1.59c0,0.11,0.09,0.2,0.2,0.2h1.03
		c0.11,0,0.2-0.09,0.2-0.2V9.54z"/>
	<path d="M110.93,41.57c0.11,0,0.2-0.09,0.2-0.2v-1.03c0-0.11-0.09-0.2-0.2-0.2h-1.59c-0.11,0-0.2,0.09-0.2,0.2v1.03
		c0,0.11,0.09,0.2,0.2,0.2H110.93z"/>
	<path d="M110.93,44.67c0.11,0,0.2-0.09,0.2-0.2v-1.03c0-0.11-0.09-0.2-0.2-0.2h-1.59c-0.11,0-0.2,0.09-0.2,0.2v1.03
		c0,0.11,0.09,0.2,0.2,0.2H110.93z"/>
	<path d="M165.12,27.09c0,0.11,0.09,0.2,0.2,0.2h1.03c0.11,0,0.2-0.09,0.2-0.2V25.5c0-0.11-0.09-0.2-0.2-0.2h-1.03
		c-0.11,0-0.2,0.09-0.2,0.2V27.09z"/>
	<path d="M162.03,27.09c0,0.11,0.09,0.2,0.2,0.2h1.03c0.11,0,0.2-0.09,0.2-0.2V25.5c0-0.11-0.09-0.2-0.2-0.2h-1.03
		c-0.11,0-0.2,0.09-0.2,0.2V27.09z"/>
	<path d="M236.92,51.18c0.16,0,0.28-0.13,0.28-0.28v-1.03c0-0.16-0.13-0.28-0.28-0.28h-1.75c-0.16,0-0.28,0.13-0.28,0.28v1.03
		c0,0.16,0.13,0.28,0.28,0.28H236.92z"/>
	<path d="M236.92,55.82c0.16,0,0.28-0.13,0.28-0.28V54.5c0-0.16-0.13-0.28-0.28-0.28h-1.75c-0.16,0-0.28,0.13-0.28,0.28v1.03
		c0,0.16,0.13,0.28,0.28,0.28h1.75V55.82z"/>
	<path d="M227.37,52.72c0-0.11-0.09-0.2-0.2-0.2h-1.03c-0.11,0-0.2,0.09-0.2,0.2v1.59c0,0.11,0.09,0.2,0.2,0.2h1.03
		c0.11,0,0.2-0.09,0.2-0.2V52.72z"/>
	<path d="M230.47,52.72c0-0.11-0.09-0.2-0.2-0.2h-1.03c-0.11,0-0.2,0.09-0.2,0.2v1.59c0,0.11,0.09,0.2,0.2,0.2h1.03
		c0.11,0,0.2-0.09,0.2-0.2V52.72z"/>
</g>
</svg>
