<?xml version="1.0" encoding="utf-8"?>
<!-- Generator: Adobe Illustrator 27.0.0, SVG Export Plug-In . SVG Version: 6.00 Build 0)  -->
<svg version="1.1" id="Calque_1" xmlns="http://www.w3.org/2000/svg" xmlns:xlink="http://www.w3.org/1999/xlink" x="0px" y="0px"
	 viewBox="0 0 243.18 106.64" style="enable-background:new 0 0 243.18 106.64;" xml:space="preserve">
<style type="text/css">
	.st0{fill:none;stroke:#000000;stroke-width:0.1;stroke-miterlimit:10;}
	.st1{fill:none;stroke:#000000;stroke-width:0.5;}
	.st2{stroke:#000000;stroke-width:0.5;stroke-linecap:round;stroke-linejoin:round;}
	.st3{enable-background:new    ;}
</style>
<path class="st0" d="M232.95,4.01H11.14c-3.72,0-6.73,3.02-6.73,6.73v92.88h235.27V10.74C239.68,7.02,236.66,4.01,232.95,4.01z"/>
<g>
	<polygon class="st1" points="126.19,13.34 126.19,37.01 104.52,37.01 102.52,35.01 102.52,13.34 	"/>
	<polygon class="st1" points="97.06,51.51 97.06,44.16 98.13,43.08 107.89,43.08 107.89,51.51 	"/>
	<rect x="102.43" y="52.92" class="st1" width="1.62" height="2.83"/>
	<path class="st1" d="M230.43,49.88h-36.87V8.29h39.25v8.46c0,0-2.29,4.62-2.29,12.04S230.43,49.88,230.43,49.88z"/>
	<polygon class="st2" points="236.01,10.45 236.94,11.97 235.11,11.97 	"/>
	<path class="st1" d="M132.5,39.93c0.52,0,0.94-0.42,0.94-0.94s-0.42-0.94-0.94-0.94v-3.96h17.09v9.77H132.5V39.93z"/>
	<path class="st1" d="M168.65,39.93c0.52,0,0.94-0.42,0.94-0.94s-0.42-0.94-0.94-0.94v-3.96h17.09v9.77h-17.09V39.93z"/>
	<polygon class="st1" points="98.98,27.68 98.98,34.8 88.2,34.8 88.2,28.68 89.2,27.68 	"/>
	<path class="st1" d="M153.16,39.93c0.52,0,0.94-0.42,0.94-0.94s-0.42-0.94-0.94-0.94v-3.96h11.54v9.77h-11.54V39.93z"/>
	<rect x="182.96" y="52.08" class="st1" width="1.83" height="1.62"/>
	<rect x="186.17" y="52.08" class="st1" width="1.83" height="1.62"/>
	<rect x="176.54" y="52.08" class="st1" width="1.83" height="1.62"/>
	<rect x="179.75" y="52.08" class="st1" width="1.83" height="1.62"/>
	<rect x="170.11" y="52.08" class="st1" width="1.83" height="1.62"/>
	<rect x="173.32" y="52.08" class="st1" width="1.83" height="1.62"/>
	<rect x="163.69" y="52.08" class="st1" width="1.83" height="1.62"/>
	<rect x="166.9" y="52.08" class="st1" width="1.83" height="1.62"/>
	<rect x="157.26" y="52.08" class="st1" width="1.83" height="1.62"/>
	<rect x="160.47" y="52.08" class="st1" width="1.83" height="1.62"/>
	<rect x="150.83" y="52.08" class="st1" width="1.83" height="1.62"/>
	<rect x="154.05" y="52.08" class="st1" width="1.83" height="1.62"/>
	<rect x="144.41" y="52.08" class="st1" width="1.83" height="1.62"/>
	<rect x="147.62" y="52.08" class="st1" width="1.83" height="1.62"/>
	<rect x="137.98" y="52.08" class="st1" width="1.83" height="1.62"/>
	<rect x="141.2" y="52.08" class="st1" width="1.83" height="1.62"/>
	<rect x="131.56" y="52.08" class="st1" width="1.83" height="1.62"/>
	<rect x="134.77" y="52.08" class="st1" width="1.83" height="1.62"/>
	<rect x="88.61" y="44.37" class="st1" width="7.22" height="6.02"/>
	<path class="st1" d="M168.65,18.6c0.52,0,0.94-0.42,0.94-0.94s-0.42-0.94-0.94-0.94v-3.96h11.54v9.77h-11.54V18.6z"/>
	<rect x="92.32" y="52.92" class="st1" width="1.62" height="2.83"/>
	<rect x="119.1" y="39.01" class="st1" width="8.09" height="6.76"/>
	<polygon class="st1" points="117.35,46.71 109.17,46.71 109.17,51.51 117.35,51.51 118.35,50.51 118.35,47.71 	"/>
	<rect x="113.08" y="52.92" class="st1" width="1.62" height="2.83"/>
	<rect x="122.72" y="52.92" class="st1" width="1.62" height="2.83"/>
	<polygon class="st1" points="120.12,51.51 128.3,51.51 128.3,46.71 120.12,46.71 119.12,47.71 119.12,50.51 	"/>
	<rect x="134.02" y="4.48" class="st1" width="25.34" height="20.83"/>
	<rect x="89.04" y="8.8" class="st1" width="5.93" height="10.85"/>
	<rect x="204.23" y="53.89" class="st1" width="1.62" height="1.83"/>
	<rect x="211.87" y="53.89" class="st1" width="1.62" height="1.83"/>
	<polygon class="st2" points="236.01,52.03 236.94,53.55 235.11,53.55 	"/>
	<line class="st1" x1="128.17" y1="30.13" x2="130.2" y2="30.13"/>
	<line class="st1" x1="128.17" y1="24.57" x2="130.2" y2="24.57"/>
	<line class="st1" x1="128.17" y1="18.98" x2="130.2" y2="18.98"/>
	<line class="st1" x1="128.17" y1="36.22" x2="130.2" y2="36.22"/>
	<line class="st1" x1="128.17" y1="42.39" x2="130.2" y2="42.39"/>
	<line class="st1" x1="109.11" y1="42.39" x2="111.14" y2="42.39"/>
	<line class="st1" x1="112.11" y1="42.39" x2="114.14" y2="42.39"/>
	<line class="st1" x1="116.11" y1="42.39" x2="118.14" y2="42.39"/>
	<line class="st1" x1="198.52" y1="53.7" x2="200.54" y2="53.7"/>
	<line class="st1" x1="195.52" y1="53.7" x2="197.54" y2="53.7"/>
	<line class="st1" x1="104.26" y1="39.91" x2="104.26" y2="41.94"/>
	<line class="st1" x1="98.17" y1="39.91" x2="98.17" y2="41.94"/>
	<line class="st1" x1="98.17" y1="36.56" x2="98.17" y2="38.59"/>
	<line class="st1" x1="92.07" y1="39.91" x2="92.07" y2="41.94"/>
	<line class="st1" x1="92.07" y1="36.53" x2="92.07" y2="38.56"/>
	<line class="st1" x1="98.26" y1="24.31" x2="98.26" y2="26.34"/>
	<line class="st1" x1="98.26" y1="21.31" x2="98.26" y2="23.34"/>
	<line class="st1" x1="98.26" y1="18.31" x2="98.26" y2="20.34"/>
	<line class="st1" x1="98.26" y1="15.31" x2="98.26" y2="17.34"/>
	<line class="st1" x1="92.17" y1="24.31" x2="92.17" y2="26.34"/>
	<line class="st1" x1="92.17" y1="21.31" x2="92.17" y2="23.34"/>
	<line class="st1" x1="98.26" y1="6.31" x2="98.26" y2="8.34"/>
	<line class="st1" x1="98.26" y1="9.31" x2="98.26" y2="11.34"/>
	<line class="st1" x1="98.26" y1="12.31" x2="98.26" y2="14.34"/>
	<line class="st1" x1="104.26" y1="6.31" x2="104.26" y2="8.34"/>
	<line class="st1" x1="110.25" y1="6.31" x2="110.25" y2="8.34"/>
	<line class="st1" x1="116.24" y1="6.31" x2="116.24" y2="8.34"/>
	<line class="st1" x1="122.24" y1="6.31" x2="122.24" y2="8.34"/>
	<line class="st1" x1="128.23" y1="6.31" x2="128.23" y2="8.34"/>
	<line class="st1" x1="104.26" y1="9.31" x2="104.26" y2="11.34"/>
	<line class="st1" x1="110.25" y1="9.31" x2="110.25" y2="11.34"/>
	<line class="st1" x1="116.24" y1="9.31" x2="116.24" y2="11.34"/>
	<line class="st1" x1="122.24" y1="9.31" x2="122.24" y2="11.34"/>
	<line class="st1" x1="128.23" y1="9.31" x2="128.23" y2="11.34"/>
	<line class="st1" x1="164.31" y1="8.76" x2="164.31" y2="10.79"/>
	<line class="st1" x1="164.31" y1="11.68" x2="164.31" y2="13.71"/>
	<line class="st1" x1="164.31" y1="15.52" x2="164.31" y2="17.55"/>
	<line class="st1" x1="164.31" y1="19.27" x2="164.31" y2="21.3"/>
	<line class="st1" x1="164.31" y1="22.27" x2="164.31" y2="24.3"/>
	<line class="st1" x1="164.31" y1="25.27" x2="164.31" y2="27.3"/>
	<line class="st1" x1="184.59" y1="11.57" x2="184.59" y2="13.6"/>
	<line class="st1" x1="184.59" y1="16.27" x2="184.59" y2="18.3"/>
	<line class="st1" x1="184.59" y1="19.27" x2="184.59" y2="21.3"/>
	<line class="st1" x1="184.59" y1="22.27" x2="184.59" y2="24.3"/>
	<line class="st1" x1="184.59" y1="25.27" x2="184.59" y2="27.3"/>
	<line class="st1" x1="228.21" y1="52.49" x2="228.21" y2="54.52"/>
	<polygon points="46.15,65.17 40.48,62.34 40.48,68.01 	"/>
	<rect x="5.05" y="57.36" class="st1" width="233.95" height="45.67"/>
	<g class="st3">
		<path d="M194.76,97.64l0.47,0.12c-0.1,0.39-0.28,0.69-0.54,0.89s-0.57,0.31-0.95,0.31c-0.39,0-0.7-0.08-0.94-0.24
			c-0.24-0.16-0.43-0.38-0.55-0.68c-0.13-0.3-0.19-0.62-0.19-0.96c0-0.37,0.07-0.7,0.21-0.98s0.34-0.49,0.61-0.63
			c0.26-0.14,0.55-0.22,0.87-0.22c0.36,0,0.66,0.09,0.9,0.27c0.24,0.18,0.41,0.44,0.51,0.77l-0.47,0.11
			c-0.08-0.26-0.2-0.45-0.36-0.57s-0.36-0.18-0.6-0.18c-0.27,0-0.5,0.07-0.69,0.2s-0.32,0.31-0.39,0.53
			c-0.07,0.22-0.11,0.45-0.11,0.69c0,0.3,0.04,0.57,0.13,0.8c0.09,0.23,0.23,0.4,0.41,0.51s0.39,0.17,0.61,0.17
			c0.26,0,0.49-0.08,0.67-0.23C194.57,98.17,194.7,97.94,194.76,97.64z"/>
		<path d="M195.83,98.89v-3.58h2.59v0.42h-2.11v1.1h1.98v0.42h-1.98v1.22h2.2v0.42C198.51,98.89,195.83,98.89,195.83,98.89z"/>
		<path d="M199.15,98.89v-3.58h0.49l1.88,2.81v-2.81h0.45v3.58h-0.49l-1.88-2.81v2.81H199.15z"/>
		<path d="M203.68,98.89v-3.16h-1.18v-0.42h2.84v0.42h-1.18v3.16H203.68z"/>
		<path d="M205.83,98.89v-3.58h1.59c0.32,0,0.56,0.03,0.73,0.1s0.3,0.18,0.4,0.34c0.1,0.16,0.15,0.34,0.15,0.54
			c0,0.25-0.08,0.47-0.25,0.64s-0.42,0.29-0.76,0.33c0.12,0.06,0.22,0.12,0.29,0.18c0.14,0.13,0.27,0.29,0.39,0.48l0.62,0.97h-0.6
			l-0.47-0.74c-0.14-0.21-0.25-0.38-0.34-0.49s-0.17-0.19-0.24-0.24c-0.07-0.05-0.14-0.08-0.21-0.1c-0.05-0.01-0.14-0.02-0.26-0.02
			h-0.55v1.59C206.32,98.89,205.83,98.89,205.83,98.89z M206.3,96.89h1.02c0.22,0,0.38-0.02,0.51-0.07
			c0.12-0.04,0.21-0.12,0.28-0.21c0.06-0.1,0.1-0.21,0.1-0.32c0-0.17-0.06-0.31-0.18-0.42s-0.32-0.16-0.58-0.16h-1.13v1.18H206.3z"
			/>
		<path d="M209.29,97.15c0-0.59,0.16-1.06,0.48-1.4c0.32-0.34,0.73-0.5,1.24-0.5c0.33,0,0.63,0.08,0.89,0.24
			c0.27,0.16,0.47,0.38,0.61,0.66c0.14,0.28,0.21,0.6,0.21,0.96s-0.07,0.69-0.22,0.97s-0.35,0.5-0.62,0.65s-0.56,0.22-0.87,0.22
			c-0.34,0-0.64-0.08-0.9-0.24c-0.27-0.16-0.47-0.38-0.6-0.67S209.29,97.47,209.29,97.15z M209.78,97.16c0,0.43,0.12,0.77,0.35,1.02
			c0.23,0.25,0.52,0.37,0.87,0.37c0.36,0,0.65-0.13,0.88-0.38c0.23-0.25,0.35-0.61,0.35-1.07c0-0.29-0.05-0.55-0.15-0.76
			c-0.1-0.22-0.24-0.39-0.43-0.51c-0.19-0.12-0.4-0.18-0.64-0.18c-0.34,0-0.62,0.11-0.87,0.34
			C209.9,96.24,209.78,96.62,209.78,97.16z"/>
		<path d="M213.32,98.89v-3.58h0.49l1.88,2.81v-2.81h0.45v3.58h-0.49l-1.88-2.81v2.81H213.32z"/>
		<path d="M217.01,98.89v-3.58h0.47v3.58H217.01z"/>
		<path d="M220.88,97.64l0.47,0.12c-0.1,0.39-0.28,0.69-0.54,0.89s-0.57,0.31-0.95,0.31c-0.39,0-0.7-0.08-0.94-0.24
			c-0.24-0.16-0.43-0.38-0.55-0.68c-0.13-0.3-0.19-0.62-0.19-0.96c0-0.37,0.07-0.7,0.21-0.98c0.14-0.28,0.34-0.49,0.61-0.63
			c0.26-0.14,0.55-0.22,0.87-0.22c0.36,0,0.66,0.09,0.9,0.27c0.24,0.18,0.41,0.44,0.51,0.77l-0.47,0.11
			c-0.08-0.26-0.2-0.45-0.36-0.57s-0.36-0.18-0.6-0.18c-0.27,0-0.5,0.07-0.69,0.2c-0.18,0.13-0.31,0.31-0.39,0.53
			s-0.11,0.45-0.11,0.69c0,0.3,0.04,0.57,0.13,0.8c0.09,0.23,0.23,0.4,0.41,0.51c0.19,0.11,0.39,0.17,0.61,0.17
			c0.26,0,0.49-0.08,0.67-0.23C220.69,98.17,220.81,97.94,220.88,97.64z"/>
		<path d="M221.77,97.74l0.45-0.04c0.02,0.18,0.07,0.33,0.15,0.44c0.08,0.11,0.2,0.21,0.36,0.28s0.35,0.11,0.55,0.11
			c0.18,0,0.34-0.03,0.48-0.08s0.24-0.13,0.31-0.22s0.1-0.2,0.1-0.31s-0.03-0.21-0.1-0.29s-0.17-0.15-0.32-0.21
			c-0.1-0.04-0.31-0.1-0.64-0.17c-0.33-0.08-0.56-0.15-0.69-0.22c-0.17-0.09-0.3-0.2-0.38-0.33s-0.13-0.28-0.13-0.45
			c0-0.18,0.05-0.35,0.15-0.51c0.1-0.16,0.25-0.28,0.45-0.36s0.42-0.12,0.66-0.12c0.26,0,0.5,0.04,0.7,0.13
			c0.2,0.08,0.36,0.21,0.47,0.38s0.17,0.35,0.18,0.56l-0.45,0.03c-0.03-0.23-0.11-0.4-0.25-0.51c-0.14-0.12-0.35-0.17-0.62-0.17
			c-0.29,0-0.5,0.05-0.63,0.16s-0.2,0.23-0.2,0.38c0,0.13,0.05,0.23,0.14,0.32c0.09,0.08,0.33,0.17,0.71,0.25s0.65,0.16,0.79,0.23
			c0.21,0.1,0.36,0.22,0.46,0.37s0.15,0.32,0.15,0.51s-0.05,0.37-0.16,0.54s-0.27,0.3-0.47,0.39c-0.21,0.09-0.43,0.14-0.69,0.14
			c-0.32,0-0.6-0.05-0.81-0.14c-0.22-0.09-0.39-0.24-0.52-0.43C221.84,98.2,221.78,97.98,221.77,97.74z"/>
		<path d="M225.09,97.96l0.46-0.04c0.03,0.22,0.11,0.39,0.24,0.51c0.12,0.11,0.27,0.17,0.45,0.17c0.21,0,0.39-0.08,0.54-0.24
			c0.15-0.16,0.22-0.37,0.22-0.63c0-0.25-0.07-0.45-0.21-0.59s-0.33-0.22-0.55-0.22c-0.14,0-0.27,0.03-0.38,0.1s-0.2,0.15-0.27,0.25
			l-0.41-0.05l0.35-1.84h1.78v0.42h-1.43l-0.19,0.96c0.21-0.15,0.44-0.22,0.68-0.22c0.31,0,0.58,0.11,0.79,0.32
			c0.21,0.22,0.32,0.5,0.32,0.84c0,0.32-0.09,0.6-0.28,0.84c-0.23,0.29-0.54,0.43-0.94,0.43c-0.33,0-0.59-0.09-0.8-0.27
			C225.24,98.5,225.12,98.26,225.09,97.96z"/>
		<path d="M227.87,97.13c0-0.42,0.04-0.76,0.13-1.02c0.09-0.26,0.22-0.46,0.39-0.6s0.39-0.21,0.65-0.21c0.19,0,0.36,0.04,0.5,0.12
			c0.15,0.08,0.27,0.19,0.36,0.33s0.17,0.32,0.22,0.53s0.08,0.49,0.08,0.85c0,0.42-0.04,0.76-0.13,1.02
			c-0.09,0.26-0.22,0.46-0.39,0.6s-0.39,0.21-0.65,0.21c-0.34,0-0.62-0.12-0.81-0.37C227.99,98.29,227.87,97.8,227.87,97.13z
			 M228.32,97.13c0,0.59,0.07,0.98,0.21,1.17c0.14,0.19,0.31,0.29,0.51,0.29s0.37-0.1,0.51-0.29c0.14-0.2,0.21-0.59,0.21-1.17
			c0-0.59-0.07-0.98-0.21-1.17c-0.14-0.19-0.31-0.29-0.51-0.29s-0.36,0.09-0.48,0.26C228.4,96.14,228.32,96.54,228.32,97.13z"/>
		<path d="M230.81,98.89v-3.58h0.71l0.85,2.53c0.08,0.24,0.14,0.41,0.17,0.53c0.04-0.13,0.1-0.32,0.19-0.57l0.86-2.49h0.64v3.58
			h-0.46v-3l-1.04,3h-0.43l-1.04-3.05v3.05H230.81z"/>
	</g>
</g>
</svg>
