%FSLAX46Y46*%
%MOMM*%
%LPD*%
G01*
%ADD10C,0.050000*%
D10*
%LPD*%
%LPD*%
G36*
X0055533382Y0034328643D02*
G01*
X0055594776Y0034327086D01*
X0055655821Y0034323990D01*
X0055716462Y0034319373D01*
X0055776679Y0034313255D01*
X0055836452Y0034305654D01*
X0055895763Y0034296588D01*
X0055954592Y0034286077D01*
X0056012921Y0034274139D01*
X0056070729Y0034260793D01*
X0056127999Y0034246058D01*
X0056184710Y0034229951D01*
X0056240844Y0034212493D01*
X0056296382Y0034193702D01*
X0056351304Y0034173596D01*
X0056405592Y0034152195D01*
X0056459227Y0034129516D01*
X0056512189Y0034105580D01*
X0056564461Y0034080403D01*
X0056616021Y0034054007D01*
X0056666853Y0034026408D01*
X0056716936Y0033997626D01*
X0056766253Y0033967679D01*
X0056814783Y0033936587D01*
X0056862508Y0033904368D01*
X0056909409Y0033871040D01*
X0056955468Y0033836622D01*
X0057000665Y0033801134D01*
X0057044981Y0033764593D01*
X0057088398Y0033727019D01*
X0057130896Y0033688429D01*
X0057172458Y0033648844D01*
X0057213063Y0033608280D01*
X0057252692Y0033566758D01*
X0057291328Y0033524296D01*
X0057328951Y0033480911D01*
X0057365542Y0033436624D01*
X0057401082Y0033391453D01*
X0057435553Y0033345416D01*
X0057468935Y0033298531D01*
X0057501209Y0033250819D01*
X0057532357Y0033202297D01*
X0057562359Y0033152983D01*
X0057591197Y0033102898D01*
X0057618851Y0033052059D01*
X0057645303Y0033000485D01*
X0057670533Y0032948195D01*
X0057694523Y0032895207D01*
X0057717254Y0032841541D01*
X0057738706Y0032787214D01*
X0057758861Y0032732247D01*
X0057777700Y0032676657D01*
X0057795203Y0032620463D01*
X0057811351Y0032563685D01*
X0057826127Y0032506340D01*
X0057839510Y0032448449D01*
X0057851482Y0032390029D01*
X0057862023Y0032331101D01*
X0057871116Y0032271681D01*
X0057878740Y0032211791D01*
X0057884877Y0032151448D01*
X0057889508Y0032090671D01*
X0057892614Y0032029480D01*
X0057894176Y0031967931D01*
X0057894307Y0031936980D01*
X0057894307Y0004127496D01*
X0057897835Y0004127496D01*
X0057897835Y0004092218D01*
X0030684164Y0004092218D01*
X0030684164Y0004127496D01*
X0057859029Y0004127496D01*
X0057859029Y0031936901D01*
X0057858900Y0031967410D01*
X0057857359Y0032028138D01*
X0057854299Y0032088436D01*
X0057849735Y0032148323D01*
X0057843688Y0032207778D01*
X0057836177Y0032266785D01*
X0057827219Y0032325326D01*
X0057816833Y0032383381D01*
X0057805039Y0032440935D01*
X0057791855Y0032497965D01*
X0057777299Y0032554457D01*
X0057761391Y0032610390D01*
X0057744148Y0032665749D01*
X0057725590Y0032720511D01*
X0057705734Y0032774662D01*
X0057684601Y0032828180D01*
X0057662208Y0032881051D01*
X0057638573Y0032933252D01*
X0057613717Y0032984768D01*
X0057587657Y0033035578D01*
X0057560411Y0033085666D01*
X0057531999Y0033135011D01*
X0057502439Y0033183597D01*
X0057471751Y0033231405D01*
X0057439951Y0033278415D01*
X0057407061Y0033324609D01*
X0057373097Y0033369970D01*
X0057338077Y0033414480D01*
X0057302023Y0033458117D01*
X0057264952Y0033500865D01*
X0057226882Y0033542705D01*
X0057187833Y0033583619D01*
X0057147822Y0033623589D01*
X0057106870Y0033662595D01*
X0057064995Y0033700618D01*
X0057022214Y0033737642D01*
X0056978547Y0033773648D01*
X0056934013Y0033808615D01*
X0056888631Y0033842528D01*
X0056842419Y0033875365D01*
X0056795395Y0033907112D01*
X0056747579Y0033937746D01*
X0056698990Y0033967251D01*
X0056649646Y0033995608D01*
X0056599564Y0034022800D01*
X0056548766Y0034048806D01*
X0056497269Y0034073609D01*
X0056445090Y0034097192D01*
X0056392252Y0034119533D01*
X0056338770Y0034140617D01*
X0056284663Y0034160424D01*
X0056229949Y0034178937D01*
X0056174652Y0034196135D01*
X0056118783Y0034212002D01*
X0056062364Y0034226519D01*
X0056005415Y0034239666D01*
X0055947951Y0034251427D01*
X0055889995Y0034261782D01*
X0055831560Y0034270714D01*
X0055772671Y0034278203D01*
X0055713339Y0034284231D01*
X0055653589Y0034288780D01*
X0055593435Y0034291831D01*
X0055532862Y0034293367D01*
X0055502435Y0034293496D01*
X0030684164Y0034293496D01*
X0030684164Y0034328774D01*
X0055502513Y0034328774D01*
G37*
G36*
X0030684164Y0034293496D02*
G01*
X0005866730Y0034293496D01*
X0005836222Y0034293367D01*
X0005775493Y0034291826D01*
X0005715196Y0034288765D01*
X0005655309Y0034284202D01*
X0005595853Y0034278155D01*
X0005536847Y0034270643D01*
X0005478306Y0034261685D01*
X0005420251Y0034251300D01*
X0005362697Y0034239505D01*
X0005305667Y0034226321D01*
X0005249174Y0034211765D01*
X0005193242Y0034195857D01*
X0005137882Y0034178614D01*
X0005083121Y0034160056D01*
X0005028969Y0034140201D01*
X0004975451Y0034119067D01*
X0004922581Y0034096674D01*
X0004870379Y0034073040D01*
X0004818864Y0034048183D01*
X0004768053Y0034022123D01*
X0004717966Y0033994877D01*
X0004668620Y0033966466D01*
X0004620034Y0033936906D01*
X0004572227Y0033906217D01*
X0004525216Y0033874418D01*
X0004479022Y0033841527D01*
X0004433661Y0033807563D01*
X0004389152Y0033772544D01*
X0004345514Y0033736490D01*
X0004302767Y0033699419D01*
X0004260926Y0033661349D01*
X0004220012Y0033622299D01*
X0004180042Y0033582289D01*
X0004141037Y0033541336D01*
X0004103013Y0033499461D01*
X0004065989Y0033456680D01*
X0004029984Y0033413013D01*
X0003995016Y0033368480D01*
X0003961104Y0033323097D01*
X0003928266Y0033276886D01*
X0003896520Y0033229861D01*
X0003865885Y0033182045D01*
X0003836380Y0033133457D01*
X0003808023Y0033084112D01*
X0003780831Y0033034030D01*
X0003754825Y0032983232D01*
X0003730022Y0032931736D01*
X0003706440Y0032879557D01*
X0003684098Y0032826719D01*
X0003663014Y0032773236D01*
X0003643207Y0032719130D01*
X0003624694Y0032664416D01*
X0003607497Y0032609119D01*
X0003591629Y0032553249D01*
X0003577113Y0032496831D01*
X0003563965Y0032439882D01*
X0003552204Y0032382417D01*
X0003541849Y0032324462D01*
X0003532917Y0032266026D01*
X0003525428Y0032207137D01*
X0003519400Y0032147806D01*
X0003514851Y0032088055D01*
X0003511800Y0032027901D01*
X0003510264Y0031967328D01*
X0003510136Y0031936901D01*
X0003510136Y0004127496D01*
X0030684164Y0004127496D01*
X0030684164Y0004092218D01*
X0003474858Y0004092218D01*
X0003474858Y0031936980D01*
X0003474988Y0031967849D01*
X0003476545Y0032029242D01*
X0003479641Y0032090288D01*
X0003484258Y0032150929D01*
X0003490376Y0032211145D01*
X0003497978Y0032270919D01*
X0003507043Y0032330229D01*
X0003517554Y0032389059D01*
X0003529492Y0032447387D01*
X0003542838Y0032505196D01*
X0003557574Y0032562465D01*
X0003573680Y0032619176D01*
X0003591138Y0032675310D01*
X0003609930Y0032730848D01*
X0003630035Y0032785771D01*
X0003651437Y0032840059D01*
X0003674115Y0032893694D01*
X0003698052Y0032946656D01*
X0003723228Y0032998927D01*
X0003749625Y0033050488D01*
X0003777223Y0033101319D01*
X0003806005Y0033151403D01*
X0003835952Y0033200719D01*
X0003867044Y0033249249D01*
X0003899264Y0033296974D01*
X0003932592Y0033343876D01*
X0003967009Y0033389934D01*
X0004002498Y0033435131D01*
X0004039038Y0033479448D01*
X0004076613Y0033522864D01*
X0004115202Y0033565363D01*
X0004154788Y0033606924D01*
X0004195351Y0033647529D01*
X0004236873Y0033687159D01*
X0004279336Y0033725795D01*
X0004322720Y0033763417D01*
X0004367007Y0033800008D01*
X0004412179Y0033835549D01*
X0004458216Y0033870019D01*
X0004505100Y0033903401D01*
X0004552813Y0033935675D01*
X0004601335Y0033966823D01*
X0004650648Y0033996825D01*
X0004700733Y0034025663D01*
X0004751572Y0034053317D01*
X0004803146Y0034079769D01*
X0004855437Y0034105000D01*
X0004908424Y0034128990D01*
X0004962091Y0034151720D01*
X0005016417Y0034173173D01*
X0005071385Y0034193327D01*
X0005126975Y0034212166D01*
X0005183168Y0034229669D01*
X0005239947Y0034245818D01*
X0005297291Y0034260593D01*
X0005355182Y0034273976D01*
X0005413602Y0034285948D01*
X0005472531Y0034296490D01*
X0005531950Y0034305582D01*
X0005591841Y0034313206D01*
X0005652184Y0034319343D01*
X0005712960Y0034323975D01*
X0005774151Y0034327081D01*
X0005835701Y0034328643D01*
X0005866652Y0034328774D01*
X0030684164Y0034328774D01*
G37*
%LPD*%
%LPD*%
G36*
X0057724974Y0004335635D02*
G01*
X0030741027Y0004335635D01*
X0030741027Y0004512024D01*
X0057548585Y0004512024D01*
X0057548585Y0015405791D01*
X0030741027Y0015405791D01*
X0030741027Y0015582180D01*
X0057724974Y0015582180D01*
G37*
G36*
X0030741027Y0015405791D02*
G01*
X0003933469Y0015405791D01*
X0003933469Y0004512024D01*
X0030741027Y0004512024D01*
X0030741027Y0004335635D01*
X0003757080Y0004335635D01*
X0003757080Y0015582180D01*
X0030741027Y0015582180D01*
G37*
%LPD*%
%LPD*%
G36*
X0017931678Y0022584812D02*
G01*
X0012981755Y0022584812D01*
X0012981755Y0022761201D01*
X0017755289Y0022761201D01*
X0017755289Y0030935054D01*
X0012981755Y0030935054D01*
X0012981755Y0031111443D01*
X0017931678Y0031111443D01*
G37*
G36*
X0012981755Y0030935054D02*
G01*
X0009581436Y0030935054D01*
X0009581436Y0023415093D01*
X0010235327Y0022761201D01*
X0012981755Y0022761201D01*
X0012981755Y0022584812D01*
X0010162265Y0022584812D01*
X0009405047Y0023342030D01*
X0009405047Y0031111443D01*
X0012981755Y0031111443D01*
G37*
%LPD*%
G36*
X0050821119Y0006131272D02*
G01*
X0051477285Y0006131272D01*
X0051477285Y0006649855D01*
X0051643091Y0006649855D01*
X0051643091Y0005386912D01*
X0051477285Y0005386912D01*
X0051477285Y0005983106D01*
X0050821119Y0005983106D01*
X0050821119Y0005386912D01*
X0050655314Y0005386912D01*
X0050655314Y0006649855D01*
X0050821119Y0006649855D01*
G37*
%LPD*%
G36*
X0052625287Y0006621178D02*
G01*
X0052650587Y0006612414D01*
X0052674772Y0006602450D01*
X0052697923Y0006591206D01*
X0052720123Y0006578597D01*
X0052741455Y0006564541D01*
X0052762002Y0006548955D01*
X0052771979Y0006540494D01*
X0052784408Y0006529800D01*
X0052807890Y0006507290D01*
X0052829718Y0006483395D01*
X0052849893Y0006458074D01*
X0052868414Y0006431284D01*
X0052885281Y0006402986D01*
X0052900494Y0006373138D01*
X0052914054Y0006341698D01*
X0052920145Y0006325300D01*
X0052925988Y0006308681D01*
X0052936551Y0006274595D01*
X0052945728Y0006239455D01*
X0052953480Y0006203219D01*
X0052959764Y0006165847D01*
X0052964539Y0006127296D01*
X0052967763Y0006087526D01*
X0052969396Y0006046495D01*
X0052969534Y0006025439D01*
X0052969203Y0005990051D01*
X0052965234Y0005922582D01*
X0052957297Y0005859082D01*
X0052945391Y0005799551D01*
X0052937784Y0005771439D01*
X0052929516Y0005744099D01*
X0052910168Y0005693663D01*
X0052888340Y0005648022D01*
X0052865024Y0005606846D01*
X0052853117Y0005587995D01*
X0052839778Y0005569805D01*
X0052811997Y0005536732D01*
X0052782893Y0005507628D01*
X0052752466Y0005482492D01*
X0052736701Y0005471578D01*
X0052720605Y0005461215D01*
X0052686044Y0005442695D01*
X0052648341Y0005426820D01*
X0052624309Y0005419099D01*
X0052624309Y0005593215D01*
X0052630261Y0005596814D01*
X0052655231Y0005616327D01*
X0052666145Y0005626800D01*
X0052673366Y0005634187D01*
X0052687236Y0005650062D01*
X0052700383Y0005667259D01*
X0052712764Y0005685780D01*
X0052724340Y0005705624D01*
X0052735068Y0005726791D01*
X0052744907Y0005749280D01*
X0052753816Y0005773093D01*
X0052757867Y0005785550D01*
X0052765474Y0005811127D01*
X0052777380Y0005866689D01*
X0052785318Y0005927543D01*
X0052789287Y0005993689D01*
X0052789617Y0006028967D01*
X0052789452Y0006053826D01*
X0052787468Y0006100831D01*
X0052783499Y0006144653D01*
X0052777546Y0006185374D01*
X0052769608Y0006223077D01*
X0052759686Y0006257845D01*
X0052747780Y0006289760D01*
X0052733890Y0006318906D01*
X0052726117Y0006332355D01*
X0052718097Y0006345419D01*
X0052701230Y0006369852D01*
X0052683371Y0006392176D01*
X0052664519Y0006412309D01*
X0052644676Y0006430168D01*
X0052624309Y0006445322D01*
X0052624309Y0006621460D01*
G37*
%LPD*%
G36*
X0052395499Y0006649634D02*
G01*
X0052460487Y0006647154D01*
X0052516711Y0006642524D01*
X0052564501Y0006636075D01*
X0052585007Y0006632216D01*
X0052598787Y0006628826D01*
X0052624309Y0006621460D01*
X0052624309Y0006445322D01*
X0052623840Y0006445671D01*
X0052602011Y0006458735D01*
X0052579191Y0006469277D01*
X0052567368Y0006473466D01*
X0052558576Y0006476691D01*
X0052539042Y0006482334D01*
X0052505576Y0006489176D01*
X0052451998Y0006495129D01*
X0052388333Y0006497940D01*
X0052352173Y0006498161D01*
X0052087590Y0006498161D01*
X0052087590Y0005535078D01*
X0052359229Y0005535078D01*
X0052390317Y0005535299D01*
X0052446045Y0005538110D01*
X0052494332Y0005544063D01*
X0052525648Y0005550905D01*
X0052544520Y0005556548D01*
X0052553257Y0005559773D01*
X0052570234Y0005565395D01*
X0052601819Y0005579616D01*
X0052624309Y0005593215D01*
X0052624309Y0005419099D01*
X0052607165Y0005413590D01*
X0052585007Y0005408078D01*
X0052562296Y0005403007D01*
X0052514672Y0005395070D01*
X0052464401Y0005389778D01*
X0052411484Y0005387132D01*
X0052383923Y0005386912D01*
X0051925313Y0005386912D01*
X0051925313Y0006649855D01*
X0052359229Y0006649855D01*
G37*
%LPD*%
G36*
X0053918505Y0006476994D02*
G01*
X0053414034Y0006476994D01*
X0053347006Y0006138328D01*
X0053360952Y0006148029D01*
X0053389374Y0006165248D01*
X0053418395Y0006179882D01*
X0053447975Y0006191975D01*
X0053478071Y0006201566D01*
X0053508643Y0006208697D01*
X0053539648Y0006213410D01*
X0053571047Y0006215746D01*
X0053586894Y0006215939D01*
X0053607289Y0006215635D01*
X0053646936Y0006212018D01*
X0053685135Y0006204825D01*
X0053721804Y0006194097D01*
X0053756862Y0006179875D01*
X0053790224Y0006162202D01*
X0053821808Y0006141118D01*
X0053851533Y0006116665D01*
X0053865589Y0006103050D01*
X0053879204Y0006088332D01*
X0053903657Y0006057265D01*
X0053924741Y0006024274D01*
X0053942414Y0005989403D01*
X0053956636Y0005952692D01*
X0053967364Y0005914183D01*
X0053974557Y0005873917D01*
X0053978174Y0005831935D01*
X0053978477Y0005810245D01*
X0053978229Y0005789188D01*
X0053975232Y0005748178D01*
X0053969196Y0005708490D01*
X0053960081Y0005670126D01*
X0053947844Y0005633084D01*
X0053932444Y0005597365D01*
X0053913841Y0005562970D01*
X0053891992Y0005529897D01*
X0053879700Y0005513912D01*
X0053864266Y0005495143D01*
X0053839614Y0005469767D01*
X0053822392Y0005454282D01*
X0053804492Y0005440019D01*
X0053785906Y0005426974D01*
X0053766631Y0005415140D01*
X0053746661Y0005404513D01*
X0053725990Y0005395087D01*
X0053704614Y0005386857D01*
X0053682528Y0005379819D01*
X0053659725Y0005373967D01*
X0053624260Y0005367254D01*
X0053574299Y0005362603D01*
X0053548089Y0005362217D01*
X0053526454Y0005362465D01*
X0053485071Y0005365442D01*
X0053445880Y0005371395D01*
X0053408797Y0005380325D01*
X0053373740Y0005392231D01*
X0053340626Y0005407114D01*
X0053309372Y0005424973D01*
X0053279895Y0005445809D01*
X0053265867Y0005457467D01*
X0053251591Y0005470173D01*
X0053225773Y0005496982D01*
X0053203201Y0005525508D01*
X0053183832Y0005555790D01*
X0053167627Y0005587871D01*
X0053154542Y0005621791D01*
X0053144538Y0005657593D01*
X0053137572Y0005695316D01*
X0053135339Y0005714995D01*
X0053297617Y0005729106D01*
X0053299739Y0005714691D01*
X0053305362Y0005687241D01*
X0053312638Y0005661444D01*
X0053321567Y0005637301D01*
X0053332151Y0005614811D01*
X0053344388Y0005593975D01*
X0053358278Y0005574793D01*
X0053373822Y0005557265D01*
X0053382284Y0005549189D01*
X0053390304Y0005542051D01*
X0053407171Y0005529173D01*
X0053425030Y0005518011D01*
X0053443882Y0005508606D01*
X0053463726Y0005500999D01*
X0053484561Y0005495232D01*
X0053506390Y0005491346D01*
X0053529210Y0005489382D01*
X0053541033Y0005489217D01*
X0053554841Y0005489438D01*
X0053581630Y0005492083D01*
X0053607427Y0005497375D01*
X0053632232Y0005505313D01*
X0053656044Y0005515896D01*
X0053678865Y0005529125D01*
X0053700693Y0005545000D01*
X0053721529Y0005563521D01*
X0053731533Y0005573884D01*
X0053741235Y0005584605D01*
X0053758453Y0005607425D01*
X0053773088Y0005631899D01*
X0053785180Y0005658027D01*
X0053794771Y0005685808D01*
X0053801903Y0005715243D01*
X0053806616Y0005746331D01*
X0053808951Y0005779073D01*
X0053809144Y0005796133D01*
X0053808951Y0005812532D01*
X0053806636Y0005843931D01*
X0053802006Y0005873614D01*
X0053795061Y0005901540D01*
X0053785800Y0005927667D01*
X0053774225Y0005951955D01*
X0053760334Y0005974362D01*
X0053744128Y0005994846D01*
X0053735061Y0006004272D01*
X0053725663Y0006013974D01*
X0053705530Y0006031192D01*
X0053683867Y0006045827D01*
X0053660757Y0006057919D01*
X0053636283Y0006067510D01*
X0053610528Y0006074642D01*
X0053583573Y0006079355D01*
X0053555503Y0006081690D01*
X0053541033Y0006081883D01*
X0053522623Y0006081552D01*
X0053487069Y0006077418D01*
X0053453335Y0006068819D01*
X0053429502Y0006059084D01*
X0053414309Y0006051125D01*
X0053406978Y0006046605D01*
X0053392646Y0006038337D01*
X0053366188Y0006018824D01*
X0053342376Y0005996335D01*
X0053321209Y0005971530D01*
X0053311728Y0005958411D01*
X0053167089Y0005976050D01*
X0053290561Y0006625160D01*
X0053918505Y0006625160D01*
G37*
%LPD*%
G36*
X0054541323Y0006653272D02*
G01*
X0054565776Y0006651950D01*
X0054589506Y0006649304D01*
X0054612471Y0006645335D01*
X0054634630Y0006640043D01*
X0054655941Y0006633429D01*
X0054676364Y0006625491D01*
X0054695856Y0006616231D01*
X0054705199Y0006611049D01*
X0054715011Y0006605675D01*
X0054733593Y0006594100D01*
X0054751039Y0006581532D01*
X0054767472Y0006567972D01*
X0054790582Y0006545896D01*
X0054818859Y0006512823D01*
X0054832199Y0006494633D01*
X0054843995Y0006474569D01*
X0054866154Y0006431905D01*
X0054885997Y0006385603D01*
X0054902865Y0006335001D01*
X0054909810Y0006307661D01*
X0054916204Y0006279108D01*
X0054926622Y0006214120D01*
X0054933898Y0006139375D01*
X0054937701Y0006054543D01*
X0054938032Y0006007800D01*
X0054937922Y0005980239D01*
X0054936578Y0005927323D01*
X0054933850Y0005877052D01*
X0054929695Y0005829427D01*
X0054924073Y0005784448D01*
X0054916941Y0005742114D01*
X0054908260Y0005702427D01*
X0054897986Y0005665385D01*
X0054892171Y0005647967D01*
X0054886135Y0005630934D01*
X0054873175Y0005598523D01*
X0054859036Y0005568096D01*
X0054843595Y0005539653D01*
X0054826728Y0005513195D01*
X0054808311Y0005488721D01*
X0054788219Y0005466231D01*
X0054766329Y0005445726D01*
X0054754588Y0005436300D01*
X0054742599Y0005427233D01*
X0054717753Y0005411027D01*
X0054691791Y0005397137D01*
X0054664630Y0005385561D01*
X0054636187Y0005376301D01*
X0054606380Y0005369355D01*
X0054575126Y0005364725D01*
X0054542343Y0005362410D01*
X0054529809Y0005362268D01*
X0054529809Y0005492766D01*
X0054541957Y0005493021D01*
X0054567423Y0005496307D01*
X0054591897Y0005502839D01*
X0054615379Y0005512575D01*
X0054637868Y0005525473D01*
X0054659365Y0005541493D01*
X0054679871Y0005560593D01*
X0054699384Y0005582731D01*
X0054708727Y0005595050D01*
X0054713309Y0005601479D01*
X0054721990Y0005615775D01*
X0054734000Y0005640215D01*
X0054747891Y0005678993D01*
X0054759466Y0005724407D01*
X0054768726Y0005776331D01*
X0054775672Y0005834643D01*
X0054780302Y0005899218D01*
X0054782617Y0005969931D01*
X0054782810Y0006007800D01*
X0054782617Y0006046275D01*
X0054780302Y0006117712D01*
X0054775672Y0006182535D01*
X0054768726Y0006240743D01*
X0054759466Y0006292337D01*
X0054747891Y0006337316D01*
X0054734000Y0006375681D01*
X0054721990Y0006399907D01*
X0054713309Y0006414128D01*
X0054708727Y0006420550D01*
X0054699384Y0006432869D01*
X0054679871Y0006455007D01*
X0054659365Y0006474107D01*
X0054637868Y0006490127D01*
X0054615379Y0006503025D01*
X0054591897Y0006512761D01*
X0054567423Y0006519293D01*
X0054541957Y0006522579D01*
X0054529809Y0006522834D01*
X0054529809Y0006653374D01*
G37*
%LPD*%
G36*
X0054529809Y0006653374D02*
G01*
X0054529809Y0006522834D01*
X0054528810Y0006522855D01*
X0054515691Y0006522607D01*
X0054490556Y0006519651D01*
X0054466743Y0006513781D01*
X0054444254Y0006505037D01*
X0054423087Y0006493462D01*
X0054403244Y0006479095D01*
X0054384723Y0006461980D01*
X0054367525Y0006442157D01*
X0054359477Y0006431133D01*
X0054354241Y0006424057D01*
X0054344319Y0006408595D01*
X0054330593Y0006382654D01*
X0054314718Y0006342305D01*
X0054301489Y0006295672D01*
X0054290906Y0006242755D01*
X0054282968Y0006183555D01*
X0054277677Y0006118070D01*
X0054275031Y0006046302D01*
X0054274810Y0006007800D01*
X0054275003Y0005969325D01*
X0054277319Y0005897888D01*
X0054281949Y0005833065D01*
X0054288894Y0005774857D01*
X0054298154Y0005723263D01*
X0054309730Y0005678284D01*
X0054323621Y0005639919D01*
X0054335630Y0005615693D01*
X0054344312Y0005601472D01*
X0054348894Y0005595050D01*
X0054358237Y0005582731D01*
X0054377750Y0005560593D01*
X0054398255Y0005541493D01*
X0054419752Y0005525473D01*
X0054442242Y0005512575D01*
X0054465724Y0005502839D01*
X0054490198Y0005496307D01*
X0054515664Y0005493021D01*
X0054528810Y0005492745D01*
X0054529809Y0005492766D01*
X0054529809Y0005362268D01*
X0054525282Y0005362217D01*
X0054502352Y0005362548D01*
X0054458696Y0005366537D01*
X0054417685Y0005374558D01*
X0054379321Y0005386650D01*
X0054343602Y0005402856D01*
X0054310529Y0005423216D01*
X0054280102Y0005447773D01*
X0054252321Y0005476567D01*
X0054239533Y0005492745D01*
X0054232002Y0005503115D01*
X0054217700Y0005525031D01*
X0054204316Y0005548368D01*
X0054191854Y0005573136D01*
X0054180320Y0005599346D01*
X0054169719Y0005627009D01*
X0054155459Y0005671063D01*
X0054139914Y0005735224D01*
X0054128194Y0005805380D01*
X0054120339Y0005881613D01*
X0054116391Y0005964006D01*
X0054116061Y0006007800D01*
X0054116171Y0006035361D01*
X0054117514Y0006088277D01*
X0054120243Y0006138548D01*
X0054124398Y0006186173D01*
X0054130020Y0006231152D01*
X0054137152Y0006273485D01*
X0054145833Y0006313173D01*
X0054156106Y0006350215D01*
X0054161922Y0006367633D01*
X0054167985Y0006384665D01*
X0054181214Y0006417077D01*
X0054195766Y0006447504D01*
X0054211641Y0006475947D01*
X0054228839Y0006502405D01*
X0054247360Y0006526879D01*
X0054267204Y0006549368D01*
X0054288370Y0006569874D01*
X0054299505Y0006579299D01*
X0054310887Y0006588367D01*
X0054335010Y0006604573D01*
X0054360724Y0006618463D01*
X0054387989Y0006630039D01*
X0054416762Y0006639299D01*
X0054447003Y0006646244D01*
X0054478670Y0006650875D01*
X0054511723Y0006653190D01*
X0054528810Y0006653383D01*
G37*
%LPD*%
G36*
X0055707087Y0005757328D02*
G01*
X0055727372Y0005696915D01*
X0055751019Y0005625477D01*
X0055762760Y0005586782D01*
X0055767059Y0005570356D01*
X0055778524Y0005607398D01*
X0055811597Y0005707939D01*
X0055834087Y0005771439D01*
X0056137475Y0006649855D01*
X0056363253Y0006649855D01*
X0056363253Y0005386912D01*
X0056200975Y0005386912D01*
X0056200975Y0006445244D01*
X0055834087Y0005386912D01*
X0055682393Y0005386912D01*
X0055315504Y0006462883D01*
X0055315504Y0005386912D01*
X0055156754Y0005386912D01*
X0055156754Y0006649855D01*
X0055407226Y0006649855D01*
G37*
%LPD*%
G36*
X0014488570Y0013472571D02*
G01*
X0012488322Y0012474211D01*
X0012488322Y0014474459D01*
G37*
%LPD*%
%LPD*%
G36*
X0011475850Y0017466011D02*
G01*
X0009177500Y0017466011D01*
X0009177500Y0017642400D01*
X0011299462Y0017642400D01*
X0011299462Y0020443453D01*
X0009177500Y0020443453D01*
X0009177500Y0020619842D01*
X0011475850Y0020619842D01*
G37*
G36*
X0009177500Y0020443453D02*
G01*
X0007978035Y0020443453D01*
X0007655271Y0020114598D01*
X0007655271Y0017642400D01*
X0009177500Y0017642400D01*
X0009177500Y0017466011D01*
X0007478882Y0017466011D01*
X0007478882Y0020186697D01*
X0007904005Y0020619842D01*
X0009177500Y0020619842D01*
G37*
%LPD*%
%LPD*%
G36*
X0010121185Y0015973763D02*
G01*
X0009747241Y0015973763D01*
X0009747241Y0016150152D01*
X0009944796Y0016150152D01*
X0009944796Y0016972123D01*
X0009747241Y0016972123D01*
X0009747241Y0017148512D01*
X0010121185Y0017148512D01*
G37*
G36*
X0009747241Y0016972123D02*
G01*
X0009549686Y0016972123D01*
X0009549686Y0016150152D01*
X0009747241Y0016150152D01*
X0009747241Y0015973763D01*
X0009373297Y0015973763D01*
X0009373297Y0017148512D01*
X0009747241Y0017148512D01*
G37*
%LPD*%
%LPD*%
G36*
X0055541282Y0029796092D02*
G01*
X0055526536Y0029766344D01*
X0055481543Y0029666226D01*
X0055436235Y0029557880D01*
X0055380199Y0029414568D01*
X0055315831Y0029237307D01*
X0055263420Y0029081759D01*
X0055227270Y0028968759D01*
X0055190345Y0028847735D01*
X0055152966Y0028718891D01*
X0055115430Y0028582353D01*
X0055078032Y0028438234D01*
X0055041066Y0028286658D01*
X0055004826Y0028127735D01*
X0054969607Y0027961586D01*
X0054935705Y0027788334D01*
X0054903412Y0027608085D01*
X0054873024Y0027420969D01*
X0054844836Y0027227096D01*
X0054819141Y0027026585D01*
X0054796234Y0026819554D01*
X0054776408Y0026606118D01*
X0054759960Y0026386398D01*
X0054747182Y0026160506D01*
X0054738369Y0025928564D01*
X0054733813Y0025690541D01*
X0054733421Y0025569149D01*
X0054733173Y0025061188D01*
X0054730568Y0023914198D01*
X0054723498Y0022058879D01*
X0054705638Y0018734601D01*
X0054701092Y0018044567D01*
X0054054610Y0018044567D01*
X0054054610Y0018220955D01*
X0054525862Y0018220955D01*
X0054529253Y0018735661D01*
X0054547111Y0022059687D01*
X0054554180Y0023914728D01*
X0054556784Y0025061435D01*
X0054557033Y0025569473D01*
X0054557430Y0025692514D01*
X0054562045Y0025933600D01*
X0054570983Y0026168837D01*
X0054583943Y0026397963D01*
X0054600630Y0026620861D01*
X0054620744Y0026837411D01*
X0054643989Y0027047496D01*
X0054670067Y0027250998D01*
X0054698682Y0027447798D01*
X0054729534Y0027637779D01*
X0054762328Y0027820824D01*
X0054796766Y0027996815D01*
X0054832551Y0028165634D01*
X0054869386Y0028327163D01*
X0054906973Y0028481287D01*
X0054945015Y0028627886D01*
X0054983216Y0028766845D01*
X0055021279Y0028898046D01*
X0055058907Y0029021371D01*
X0055095832Y0029136797D01*
X0055149333Y0029295579D01*
X0055215138Y0029476797D01*
X0055272708Y0029624031D01*
X0055319704Y0029736415D01*
X0055364893Y0029836968D01*
X0055364893Y0032713053D01*
X0054054610Y0032713053D01*
X0054054610Y0032889442D01*
X0055541282Y0032889442D01*
G37*
G36*
X0054054610Y0032713053D02*
G01*
X0041694767Y0032713053D01*
X0041694767Y0018220955D01*
X0054054610Y0018220955D01*
X0054054610Y0018044567D01*
X0041518378Y0018044567D01*
X0041518378Y0032889442D01*
X0054054610Y0032889442D01*
G37*
%LPD*%
G36*
X0056913586Y0031503026D02*
G01*
X0056268003Y0031503026D01*
X0056585503Y0032042776D01*
G37*
%LPD*%
%ADD11C,0.152757*%
D11*
X0056585503Y0032042776D02*
G01*
X0056913586Y0031503026D01*
X0056268003Y0031503026D01*
X0056585503Y0032042776D01*
%LPD*%
%LPD*%
G36*
X0026186670Y0020164759D02*
G01*
X0020671363Y0020164759D01*
X0020671363Y0020341148D01*
X0026010281Y0020341148D01*
X0026010281Y0023611395D01*
X0020671363Y0023611395D01*
X0020671363Y0023787783D01*
X0026186670Y0023787783D01*
G37*
G36*
X0020671363Y0023611395D02*
G01*
X0020157703Y0023611395D01*
X0020157703Y0022381254D01*
X0020174478Y0022377831D01*
X0020214003Y0022365564D01*
X0020251744Y0022349629D01*
X0020287474Y0022330245D01*
X0020320979Y0022307629D01*
X0020352060Y0022281990D01*
X0020380519Y0022253531D01*
X0020406158Y0022222450D01*
X0020428775Y0022188944D01*
X0020448159Y0022153215D01*
X0020464094Y0022115474D01*
X0020476360Y0022075949D01*
X0020484740Y0022034887D01*
X0020488950Y0021993304D01*
X0020489327Y0021970980D01*
X0020488950Y0021948655D01*
X0020484740Y0021907072D01*
X0020476360Y0021866010D01*
X0020464094Y0021826485D01*
X0020448159Y0021788744D01*
X0020428775Y0021753015D01*
X0020406158Y0021719509D01*
X0020380519Y0021688428D01*
X0020352060Y0021659969D01*
X0020320979Y0021634330D01*
X0020287474Y0021611714D01*
X0020251744Y0021592330D01*
X0020214003Y0021576395D01*
X0020174478Y0021564128D01*
X0020157703Y0021560705D01*
X0020157703Y0020341148D01*
X0020671363Y0020341148D01*
X0020671363Y0020164759D01*
X0019981315Y0020164759D01*
X0019981315Y0021726086D01*
X0020081442Y0021727777D01*
X0020106832Y0021730348D01*
X0020130593Y0021735197D01*
X0020153410Y0021742278D01*
X0020175201Y0021751478D01*
X0020195861Y0021762687D01*
X0020215272Y0021775789D01*
X0020233304Y0021790664D01*
X0020249824Y0021807184D01*
X0020264699Y0021825217D01*
X0020277802Y0021844628D01*
X0020289010Y0021865288D01*
X0020298211Y0021887078D01*
X0020305292Y0021909895D01*
X0020310141Y0021933657D01*
X0020312711Y0021959046D01*
X0020312913Y0021970980D01*
X0020312711Y0021982913D01*
X0020310141Y0022008302D01*
X0020305292Y0022032064D01*
X0020298211Y0022054881D01*
X0020289010Y0022076671D01*
X0020277802Y0022097331D01*
X0020264699Y0022116742D01*
X0020249824Y0022134775D01*
X0020233304Y0022151295D01*
X0020215272Y0022166170D01*
X0020195861Y0022179272D01*
X0020175201Y0022190481D01*
X0020153410Y0022199681D01*
X0020130593Y0022206762D01*
X0020106832Y0022211611D01*
X0020081442Y0022214182D01*
X0019981315Y0022215873D01*
X0019981315Y0023787783D01*
X0020671363Y0023787783D01*
G37*
%LPD*%
%LPD*%
G36*
X0038936047Y0020164759D02*
G01*
X0033420740Y0020164759D01*
X0033420740Y0020341148D01*
X0038759658Y0020341148D01*
X0038759658Y0023611395D01*
X0033420740Y0023611395D01*
X0033420740Y0023787783D01*
X0038936047Y0023787783D01*
G37*
G36*
X0033420740Y0023611395D02*
G01*
X0032907080Y0023611395D01*
X0032907080Y0022381254D01*
X0032923855Y0022377831D01*
X0032963380Y0022365564D01*
X0033001121Y0022349629D01*
X0033036851Y0022330245D01*
X0033070356Y0022307629D01*
X0033101437Y0022281990D01*
X0033129896Y0022253531D01*
X0033155535Y0022222450D01*
X0033178152Y0022188944D01*
X0033197536Y0022153215D01*
X0033213471Y0022115474D01*
X0033225737Y0022075949D01*
X0033234117Y0022034887D01*
X0033238327Y0021993304D01*
X0033238704Y0021970980D01*
X0033238327Y0021948655D01*
X0033234117Y0021907072D01*
X0033225737Y0021866010D01*
X0033213471Y0021826485D01*
X0033197536Y0021788744D01*
X0033178152Y0021753015D01*
X0033155535Y0021719509D01*
X0033129896Y0021688428D01*
X0033101437Y0021659969D01*
X0033070356Y0021634330D01*
X0033036851Y0021611714D01*
X0033001121Y0021592330D01*
X0032963380Y0021576395D01*
X0032923855Y0021564128D01*
X0032907080Y0021560705D01*
X0032907080Y0020341148D01*
X0033420740Y0020341148D01*
X0033420740Y0020164759D01*
X0032730692Y0020164759D01*
X0032730692Y0021726086D01*
X0032830819Y0021727777D01*
X0032856209Y0021730348D01*
X0032879970Y0021735197D01*
X0032902787Y0021742278D01*
X0032924578Y0021751478D01*
X0032945238Y0021762687D01*
X0032964649Y0021775789D01*
X0032982681Y0021790664D01*
X0032999201Y0021807184D01*
X0033014076Y0021825217D01*
X0033027179Y0021844628D01*
X0033038387Y0021865288D01*
X0033047588Y0021887078D01*
X0033054669Y0021909895D01*
X0033059518Y0021933657D01*
X0033062088Y0021959046D01*
X0033062290Y0021970980D01*
X0033062088Y0021982913D01*
X0033059518Y0022008302D01*
X0033054669Y0022032064D01*
X0033047588Y0022054881D01*
X0033038387Y0022076671D01*
X0033027179Y0022097331D01*
X0033014076Y0022116742D01*
X0032999201Y0022134775D01*
X0032982681Y0022151295D01*
X0032964649Y0022166170D01*
X0032945238Y0022179272D01*
X0032924578Y0022190481D01*
X0032902787Y0022199681D01*
X0032879970Y0022206762D01*
X0032856209Y0022211611D01*
X0032830819Y0022214182D01*
X0032730692Y0022215873D01*
X0032730692Y0023787783D01*
X0033420740Y0023787783D01*
G37*
%LPD*%
%LPD*%
G36*
X0008332603Y0023364450D02*
G01*
X0006040506Y0023364450D01*
X0006040506Y0023540839D01*
X0008156215Y0023540839D01*
X0008156215Y0025876226D01*
X0006040506Y0025876226D01*
X0006040506Y0026052615D01*
X0008332603Y0026052615D01*
G37*
G36*
X0006040506Y0025876226D02*
G01*
X0004830777Y0025876226D01*
X0004529662Y0025575111D01*
X0004529662Y0023540839D01*
X0006040506Y0023540839D01*
X0006040506Y0023364450D01*
X0004353274Y0023364450D01*
X0004353274Y0025648174D01*
X0004757714Y0026052615D01*
X0006040506Y0026052615D01*
G37*
%LPD*%
%LPD*%
G36*
X0031517137Y0020164759D02*
G01*
X0027847864Y0020164759D01*
X0027847864Y0020341148D01*
X0031340749Y0020341148D01*
X0031340749Y0023611395D01*
X0027847864Y0023611395D01*
X0027847864Y0023787783D01*
X0031517137Y0023787783D01*
G37*
G36*
X0027847864Y0023611395D02*
G01*
X0027446086Y0023611395D01*
X0027446086Y0022381254D01*
X0027462860Y0022377831D01*
X0027502386Y0022365564D01*
X0027540127Y0022349629D01*
X0027575856Y0022330245D01*
X0027609361Y0022307629D01*
X0027640442Y0022281990D01*
X0027668901Y0022253531D01*
X0027694540Y0022222450D01*
X0027717157Y0022188944D01*
X0027736541Y0022153215D01*
X0027752476Y0022115474D01*
X0027764742Y0022075949D01*
X0027773122Y0022034887D01*
X0027777332Y0021993304D01*
X0027777709Y0021970980D01*
X0027777332Y0021948655D01*
X0027773122Y0021907072D01*
X0027764742Y0021866010D01*
X0027752476Y0021826485D01*
X0027736541Y0021788744D01*
X0027717157Y0021753015D01*
X0027694540Y0021719509D01*
X0027668901Y0021688428D01*
X0027640442Y0021659969D01*
X0027609361Y0021634330D01*
X0027575856Y0021611714D01*
X0027540127Y0021592330D01*
X0027502386Y0021576395D01*
X0027462860Y0021564128D01*
X0027446086Y0021560705D01*
X0027446086Y0020341148D01*
X0027847864Y0020341148D01*
X0027847864Y0020164759D01*
X0027269697Y0020164759D01*
X0027269697Y0021726086D01*
X0027369825Y0021727777D01*
X0027395214Y0021730348D01*
X0027418975Y0021735197D01*
X0027441792Y0021742278D01*
X0027463583Y0021751478D01*
X0027484243Y0021762687D01*
X0027503654Y0021775789D01*
X0027521686Y0021790664D01*
X0027538206Y0021807184D01*
X0027553081Y0021825217D01*
X0027566184Y0021844628D01*
X0027577392Y0021865288D01*
X0027586593Y0021887078D01*
X0027593674Y0021909895D01*
X0027598523Y0021933657D01*
X0027601093Y0021959046D01*
X0027601295Y0021970980D01*
X0027601093Y0021982913D01*
X0027598523Y0022008302D01*
X0027593674Y0022032064D01*
X0027586593Y0022054881D01*
X0027577392Y0022076671D01*
X0027566184Y0022097331D01*
X0027553081Y0022116742D01*
X0027538206Y0022134775D01*
X0027521686Y0022151295D01*
X0027503654Y0022166170D01*
X0027484243Y0022179272D01*
X0027463583Y0022190481D01*
X0027441792Y0022199681D01*
X0027418975Y0022206762D01*
X0027395214Y0022211611D01*
X0027369825Y0022214182D01*
X0027269697Y0022215873D01*
X0027269697Y0023787783D01*
X0027847864Y0023787783D01*
G37*
%LPD*%
%LPD*%
G36*
X0038604436Y0016693429D02*
G01*
X0038193450Y0016693429D01*
X0038193450Y0016869818D01*
X0038428047Y0016869818D01*
X0038428047Y0017264928D01*
X0038193450Y0017264928D01*
X0038193450Y0017441317D01*
X0038604436Y0017441317D01*
G37*
G36*
X0038193450Y0017264928D02*
G01*
X0037958853Y0017264928D01*
X0037958853Y0016869818D01*
X0038193450Y0016869818D01*
X0038193450Y0016693429D01*
X0037782465Y0016693429D01*
X0037782465Y0017441317D01*
X0038193450Y0017441317D01*
G37*
%LPD*%
%LPD*%
G36*
X0039733324Y0016693429D02*
G01*
X0039322338Y0016693429D01*
X0039322338Y0016869818D01*
X0039556935Y0016869818D01*
X0039556935Y0017264928D01*
X0039322338Y0017264928D01*
X0039322338Y0017441317D01*
X0039733324Y0017441317D01*
G37*
G36*
X0039322338Y0017264928D02*
G01*
X0039087741Y0017264928D01*
X0039087741Y0016869818D01*
X0039322338Y0016869818D01*
X0039322338Y0016693429D01*
X0038911353Y0016693429D01*
X0038911353Y0017441317D01*
X0039322338Y0017441317D01*
G37*
%LPD*%
%LPD*%
G36*
X0036336077Y0016693429D02*
G01*
X0035925091Y0016693429D01*
X0035925091Y0016869818D01*
X0036159689Y0016869818D01*
X0036159689Y0017264928D01*
X0035925091Y0017264928D01*
X0035925091Y0017441317D01*
X0036336077Y0017441317D01*
G37*
G36*
X0035925091Y0017264928D02*
G01*
X0035690494Y0017264928D01*
X0035690494Y0016869818D01*
X0035925091Y0016869818D01*
X0035925091Y0016693429D01*
X0035514106Y0016693429D01*
X0035514106Y0017441317D01*
X0035925091Y0017441317D01*
G37*
%LPD*%
%LPD*%
G36*
X0037472021Y0016693429D02*
G01*
X0037061035Y0016693429D01*
X0037061035Y0016869818D01*
X0037295632Y0016869818D01*
X0037295632Y0017264928D01*
X0037061035Y0017264928D01*
X0037061035Y0017441317D01*
X0037472021Y0017441317D01*
G37*
G36*
X0037061035Y0017264928D02*
G01*
X0036826438Y0017264928D01*
X0036826438Y0016869818D01*
X0037061035Y0016869818D01*
X0037061035Y0016693429D01*
X0036650049Y0016693429D01*
X0036650049Y0017441317D01*
X0037061035Y0017441317D01*
G37*
%LPD*%
%LPD*%
G36*
X0034071246Y0016693429D02*
G01*
X0033660260Y0016693429D01*
X0033660260Y0016869818D01*
X0033894857Y0016869818D01*
X0033894857Y0017264928D01*
X0033660260Y0017264928D01*
X0033660260Y0017441317D01*
X0034071246Y0017441317D01*
G37*
G36*
X0033660260Y0017264928D02*
G01*
X0033425663Y0017264928D01*
X0033425663Y0016869818D01*
X0033660260Y0016869818D01*
X0033660260Y0016693429D01*
X0033249275Y0016693429D01*
X0033249275Y0017441317D01*
X0033660260Y0017441317D01*
G37*
%LPD*%
%LPD*%
G36*
X0035203662Y0016693429D02*
G01*
X0034792676Y0016693429D01*
X0034792676Y0016869818D01*
X0035027273Y0016869818D01*
X0035027273Y0017264928D01*
X0034792676Y0017264928D01*
X0034792676Y0017441317D01*
X0035203662Y0017441317D01*
G37*
G36*
X0034792676Y0017264928D02*
G01*
X0034558079Y0017264928D01*
X0034558079Y0016869818D01*
X0034792676Y0016869818D01*
X0034792676Y0016693429D01*
X0034381690Y0016693429D01*
X0034381690Y0017441317D01*
X0034792676Y0017441317D01*
G37*
%LPD*%
%LPD*%
G36*
X0031802887Y0016693429D02*
G01*
X0031391901Y0016693429D01*
X0031391901Y0016869818D01*
X0031626498Y0016869818D01*
X0031626498Y0017264928D01*
X0031391901Y0017264928D01*
X0031391901Y0017441317D01*
X0031802887Y0017441317D01*
G37*
G36*
X0031391901Y0017264928D02*
G01*
X0031157304Y0017264928D01*
X0031157304Y0016869818D01*
X0031391901Y0016869818D01*
X0031391901Y0016693429D01*
X0030980916Y0016693429D01*
X0030980916Y0017441317D01*
X0031391901Y0017441317D01*
G37*
%LPD*%
%LPD*%
G36*
X0032938830Y0016693429D02*
G01*
X0032527845Y0016693429D01*
X0032527845Y0016869818D01*
X0032762442Y0016869818D01*
X0032762442Y0017264928D01*
X0032527845Y0017264928D01*
X0032527845Y0017441317D01*
X0032938830Y0017441317D01*
G37*
G36*
X0032527845Y0017264928D02*
G01*
X0032293248Y0017264928D01*
X0032293248Y0016869818D01*
X0032527845Y0016869818D01*
X0032527845Y0016693429D01*
X0032116859Y0016693429D01*
X0032116859Y0017441317D01*
X0032527845Y0017441317D01*
G37*
%LPD*%
%LPD*%
G36*
X0029538056Y0016693429D02*
G01*
X0029127070Y0016693429D01*
X0029127070Y0016869818D01*
X0029361667Y0016869818D01*
X0029361667Y0017264928D01*
X0029127070Y0017264928D01*
X0029127070Y0017441317D01*
X0029538056Y0017441317D01*
G37*
G36*
X0029127070Y0017264928D02*
G01*
X0028892473Y0017264928D01*
X0028892473Y0016869818D01*
X0029127070Y0016869818D01*
X0029127070Y0016693429D01*
X0028716084Y0016693429D01*
X0028716084Y0017441317D01*
X0029127070Y0017441317D01*
G37*
%LPD*%
%LPD*%
G36*
X0030670471Y0016693429D02*
G01*
X0030259486Y0016693429D01*
X0030259486Y0016869818D01*
X0030494083Y0016869818D01*
X0030494083Y0017264928D01*
X0030259486Y0017264928D01*
X0030259486Y0017441317D01*
X0030670471Y0017441317D01*
G37*
G36*
X0030259486Y0017264928D02*
G01*
X0030024889Y0017264928D01*
X0030024889Y0016869818D01*
X0030259486Y0016869818D01*
X0030259486Y0016693429D01*
X0029848500Y0016693429D01*
X0029848500Y0017441317D01*
X0030259486Y0017441317D01*
G37*
%LPD*%
%LPD*%
G36*
X0027269697Y0016693429D02*
G01*
X0026858711Y0016693429D01*
X0026858711Y0016869818D01*
X0027093308Y0016869818D01*
X0027093308Y0017264928D01*
X0026858711Y0017264928D01*
X0026858711Y0017441317D01*
X0027269697Y0017441317D01*
G37*
G36*
X0026858711Y0017264928D02*
G01*
X0026624114Y0017264928D01*
X0026624114Y0016869818D01*
X0026858711Y0016869818D01*
X0026858711Y0016693429D01*
X0026447725Y0016693429D01*
X0026447725Y0017441317D01*
X0026858711Y0017441317D01*
G37*
%LPD*%
%LPD*%
G36*
X0028405640Y0016693429D02*
G01*
X0027994654Y0016693429D01*
X0027994654Y0016869818D01*
X0028229251Y0016869818D01*
X0028229251Y0017264928D01*
X0027994654Y0017264928D01*
X0027994654Y0017441317D01*
X0028405640Y0017441317D01*
G37*
G36*
X0027994654Y0017264928D02*
G01*
X0027760057Y0017264928D01*
X0027760057Y0016869818D01*
X0027994654Y0016869818D01*
X0027994654Y0016693429D01*
X0027583669Y0016693429D01*
X0027583669Y0017441317D01*
X0027994654Y0017441317D01*
G37*
%LPD*%
%LPD*%
G36*
X0025004866Y0016693429D02*
G01*
X0024593880Y0016693429D01*
X0024593880Y0016869818D01*
X0024828477Y0016869818D01*
X0024828477Y0017264928D01*
X0024593880Y0017264928D01*
X0024593880Y0017441317D01*
X0025004866Y0017441317D01*
G37*
G36*
X0024593880Y0017264928D02*
G01*
X0024359283Y0017264928D01*
X0024359283Y0016869818D01*
X0024593880Y0016869818D01*
X0024593880Y0016693429D01*
X0024182894Y0016693429D01*
X0024182894Y0017441317D01*
X0024593880Y0017441317D01*
G37*
%LPD*%
%LPD*%
G36*
X0026137281Y0016693429D02*
G01*
X0025726295Y0016693429D01*
X0025726295Y0016869818D01*
X0025960892Y0016869818D01*
X0025960892Y0017264928D01*
X0025726295Y0017264928D01*
X0025726295Y0017441317D01*
X0026137281Y0017441317D01*
G37*
G36*
X0025726295Y0017264928D02*
G01*
X0025491698Y0017264928D01*
X0025491698Y0016869818D01*
X0025726295Y0016869818D01*
X0025726295Y0016693429D01*
X0025315310Y0016693429D01*
X0025315310Y0017441317D01*
X0025726295Y0017441317D01*
G37*
%LPD*%
%LPD*%
G36*
X0022736507Y0016693429D02*
G01*
X0022325521Y0016693429D01*
X0022325521Y0016869818D01*
X0022560118Y0016869818D01*
X0022560118Y0017264928D01*
X0022325521Y0017264928D01*
X0022325521Y0017441317D01*
X0022736507Y0017441317D01*
G37*
G36*
X0022325521Y0017264928D02*
G01*
X0022090924Y0017264928D01*
X0022090924Y0016869818D01*
X0022325521Y0016869818D01*
X0022325521Y0016693429D01*
X0021914535Y0016693429D01*
X0021914535Y0017441317D01*
X0022325521Y0017441317D01*
G37*
%LPD*%
%LPD*%
G36*
X0023868922Y0016693429D02*
G01*
X0023457936Y0016693429D01*
X0023457936Y0016869818D01*
X0023692533Y0016869818D01*
X0023692533Y0017264928D01*
X0023457936Y0017264928D01*
X0023457936Y0017441317D01*
X0023868922Y0017441317D01*
G37*
G36*
X0023457936Y0017264928D02*
G01*
X0023223339Y0017264928D01*
X0023223339Y0016869818D01*
X0023457936Y0016869818D01*
X0023457936Y0016693429D01*
X0023046951Y0016693429D01*
X0023046951Y0017441317D01*
X0023457936Y0017441317D01*
G37*
%LPD*%
%LPD*%
G36*
X0020471675Y0016693429D02*
G01*
X0020060690Y0016693429D01*
X0020060690Y0016869818D01*
X0020295287Y0016869818D01*
X0020295287Y0017264928D01*
X0020060690Y0017264928D01*
X0020060690Y0017441317D01*
X0020471675Y0017441317D01*
G37*
G36*
X0020060690Y0017264928D02*
G01*
X0019826093Y0017264928D01*
X0019826093Y0016869818D01*
X0020060690Y0016869818D01*
X0020060690Y0016693429D01*
X0019649704Y0016693429D01*
X0019649704Y0017441317D01*
X0020060690Y0017441317D01*
G37*
%LPD*%
%LPD*%
G36*
X0021604091Y0016693429D02*
G01*
X0021193105Y0016693429D01*
X0021193105Y0016869818D01*
X0021427702Y0016869818D01*
X0021427702Y0017264928D01*
X0021193105Y0017264928D01*
X0021193105Y0017441317D01*
X0021604091Y0017441317D01*
G37*
G36*
X0021193105Y0017264928D02*
G01*
X0020958508Y0017264928D01*
X0020958508Y0016869818D01*
X0021193105Y0016869818D01*
X0021193105Y0016693429D01*
X0020782120Y0016693429D01*
X0020782120Y0017441317D01*
X0021193105Y0017441317D01*
G37*
%LPD*%
%LPD*%
G36*
X0007221354Y0017864650D02*
G01*
X0005859633Y0017864650D01*
X0005859633Y0018041039D01*
X0007044966Y0018041039D01*
X0007044966Y0019988370D01*
X0005859633Y0019988370D01*
X0005859633Y0020164759D01*
X0007221354Y0020164759D01*
G37*
G36*
X0005859633Y0019988370D02*
G01*
X0004674301Y0019988370D01*
X0004674301Y0018041039D01*
X0005859633Y0018041039D01*
X0005859633Y0017864650D01*
X0004497912Y0017864650D01*
X0004497912Y0020164759D01*
X0005859633Y0020164759D01*
G37*
%LPD*%
%LPD*%
G36*
X0036978132Y0027693030D02*
G01*
X0033308859Y0027693030D01*
X0033308859Y0027869418D01*
X0036801743Y0027869418D01*
X0036801743Y0031139665D01*
X0033308859Y0031139665D01*
X0033308859Y0031316054D01*
X0036978132Y0031316054D01*
G37*
G36*
X0033308859Y0031139665D02*
G01*
X0032907080Y0031139665D01*
X0032907080Y0029909525D01*
X0032923855Y0029906101D01*
X0032963380Y0029893835D01*
X0033001121Y0029877900D01*
X0033036851Y0029858516D01*
X0033070356Y0029835900D01*
X0033101437Y0029810260D01*
X0033129896Y0029781801D01*
X0033155535Y0029750721D01*
X0033178152Y0029717215D01*
X0033197536Y0029681486D01*
X0033213471Y0029643745D01*
X0033225737Y0029604219D01*
X0033234117Y0029563158D01*
X0033238327Y0029521575D01*
X0033238704Y0029499250D01*
X0033238327Y0029476926D01*
X0033234117Y0029435342D01*
X0033225737Y0029394281D01*
X0033213471Y0029354756D01*
X0033197536Y0029317015D01*
X0033178152Y0029281286D01*
X0033155535Y0029247780D01*
X0033129896Y0029216699D01*
X0033101437Y0029188240D01*
X0033070356Y0029162601D01*
X0033036851Y0029139985D01*
X0033001121Y0029120601D01*
X0032963380Y0029104666D01*
X0032923855Y0029092399D01*
X0032907080Y0029088976D01*
X0032907080Y0027869418D01*
X0033308859Y0027869418D01*
X0033308859Y0027693030D01*
X0032730692Y0027693030D01*
X0032730692Y0029254356D01*
X0032830819Y0029256048D01*
X0032856209Y0029258618D01*
X0032879970Y0029263468D01*
X0032902787Y0029270549D01*
X0032924578Y0029279749D01*
X0032945238Y0029290958D01*
X0032964649Y0029304060D01*
X0032982681Y0029318935D01*
X0032999201Y0029335455D01*
X0033014076Y0029353488D01*
X0033027179Y0029372899D01*
X0033038387Y0029393559D01*
X0033047588Y0029415349D01*
X0033054669Y0029438166D01*
X0033059518Y0029461928D01*
X0033062088Y0029487317D01*
X0033062290Y0029499250D01*
X0033062088Y0029511184D01*
X0033059518Y0029536573D01*
X0033054669Y0029560335D01*
X0033047588Y0029583152D01*
X0033038387Y0029604942D01*
X0033027179Y0029625602D01*
X0033014076Y0029645013D01*
X0032999201Y0029663045D01*
X0032982681Y0029679565D01*
X0032964649Y0029694441D01*
X0032945238Y0029707543D01*
X0032924578Y0029718751D01*
X0032902787Y0029727952D01*
X0032879970Y0029735033D01*
X0032856209Y0029739882D01*
X0032830819Y0029742453D01*
X0032730692Y0029744144D01*
X0032730692Y0031316054D01*
X0033308859Y0031316054D01*
G37*
%LPD*%
%LPD*%
G36*
X0006554605Y0015973763D02*
G01*
X0006180661Y0015973763D01*
X0006180661Y0016150152D01*
X0006378216Y0016150152D01*
X0006378216Y0016972123D01*
X0006180661Y0016972123D01*
X0006180661Y0017148512D01*
X0006554605Y0017148512D01*
G37*
G36*
X0006180661Y0016972123D02*
G01*
X0005983106Y0016972123D01*
X0005983106Y0016150152D01*
X0006180661Y0016150152D01*
X0006180661Y0015973763D01*
X0005806717Y0015973763D01*
X0005806717Y0017148512D01*
X0006180661Y0017148512D01*
G37*
%LPD*%
%LPD*%
G36*
X0018284455Y0019494482D02*
G01*
X0016769276Y0019494482D01*
X0016769276Y0019670871D01*
X0018108066Y0019670871D01*
X0018108066Y0021879257D01*
X0016769276Y0021879257D01*
X0016769276Y0022055646D01*
X0018284455Y0022055646D01*
G37*
G36*
X0016769276Y0021879257D02*
G01*
X0015430486Y0021879257D01*
X0015430486Y0019670871D01*
X0016769276Y0019670871D01*
X0016769276Y0019494482D01*
X0015254097Y0019494482D01*
X0015254097Y0022055646D01*
X0016769276Y0022055646D01*
G37*
%LPD*%
%LPD*%
G36*
X0015165903Y0018931291D02*
G01*
X0015165903Y0017870452D01*
X0014761462Y0017466011D01*
X0013868440Y0017466011D01*
X0013868440Y0017642400D01*
X0014688399Y0017642400D01*
X0014989514Y0017943515D01*
X0014989514Y0018858229D01*
X0014688399Y0019159343D01*
X0013868440Y0019159343D01*
X0013868440Y0019335732D01*
X0014761462Y0019335732D01*
G37*
G36*
X0013868440Y0019159343D02*
G01*
X0011927406Y0019159343D01*
X0011927406Y0017642400D01*
X0013868440Y0017642400D01*
X0013868440Y0017466011D01*
X0011751017Y0017466011D01*
X0011751017Y0019335732D01*
X0013868440Y0019335732D01*
G37*
%LPD*%
%LPD*%
G36*
X0013874737Y0015973763D02*
G01*
X0013500793Y0015973763D01*
X0013500793Y0016150152D01*
X0013698348Y0016150152D01*
X0013698348Y0016972123D01*
X0013500793Y0016972123D01*
X0013500793Y0017148512D01*
X0013874737Y0017148512D01*
G37*
G36*
X0013500793Y0016972123D02*
G01*
X0013303238Y0016972123D01*
X0013303238Y0016150152D01*
X0013500793Y0016150152D01*
X0013500793Y0015973763D01*
X0013126849Y0015973763D01*
X0013126849Y0017148512D01*
X0013500793Y0017148512D01*
G37*
%LPD*%
%LPD*%
G36*
X0017275512Y0015973763D02*
G01*
X0016901568Y0015973763D01*
X0016901568Y0016150152D01*
X0017099123Y0016150152D01*
X0017099123Y0016972123D01*
X0016901568Y0016972123D01*
X0016901568Y0017148512D01*
X0017275512Y0017148512D01*
G37*
G36*
X0016901568Y0016972123D02*
G01*
X0016704012Y0016972123D01*
X0016704012Y0016150152D01*
X0016901568Y0016150152D01*
X0016901568Y0015973763D01*
X0016527623Y0015973763D01*
X0016527623Y0017148512D01*
X0016901568Y0017148512D01*
G37*
%LPD*%
%LPD*%
G36*
X0018676038Y0017466011D02*
G01*
X0016558615Y0017466011D01*
X0016558615Y0017642400D01*
X0018499649Y0017642400D01*
X0018499649Y0019159343D01*
X0016558615Y0019159343D01*
X0016558615Y0019335732D01*
X0018676038Y0019335732D01*
G37*
G36*
X0016558615Y0019159343D02*
G01*
X0015738656Y0019159343D01*
X0015437541Y0018858229D01*
X0015437541Y0017943515D01*
X0015738656Y0017642400D01*
X0016558615Y0017642400D01*
X0016558615Y0017466011D01*
X0015665593Y0017466011D01*
X0015261152Y0017870452D01*
X0015261152Y0018931291D01*
X0015665593Y0019335732D01*
X0016558615Y0019335732D01*
G37*
%LPD*%
%LPD*%
G36*
X0029633412Y0034236981D02*
G01*
X0029633412Y0030474609D01*
X0029457023Y0030474609D01*
X0029457023Y0034060592D01*
X0020694031Y0034060592D01*
X0020694031Y0030474609D01*
X0020517642Y0030474609D01*
X0020517642Y0034236981D01*
G37*
G36*
X0020694031Y0030474609D02*
G01*
X0020694031Y0026888627D01*
X0029457023Y0026888627D01*
X0029457023Y0030474609D01*
X0029633412Y0030474609D01*
X0029633412Y0026712238D01*
X0020517642Y0026712238D01*
X0020517642Y0030474609D01*
G37*
%LPD*%
%LPD*%
G36*
X0006917966Y0028705501D02*
G01*
X0005783786Y0028705501D01*
X0005783786Y0028881890D01*
X0006741577Y0028881890D01*
X0006741577Y0032533136D01*
X0005783786Y0032533136D01*
X0005783786Y0032709525D01*
X0006917966Y0032709525D01*
G37*
G36*
X0005783786Y0032533136D02*
G01*
X0004825995Y0032533136D01*
X0004825995Y0028881890D01*
X0005783786Y0028881890D01*
X0005783786Y0028705501D01*
X0004649607Y0028705501D01*
X0004649607Y0032709525D01*
X0005783786Y0032709525D01*
G37*
%LPD*%
%LPD*%
G36*
X0046033929Y0015984346D02*
G01*
X0045659985Y0015984346D01*
X0045659985Y0016160735D01*
X0045857541Y0016160735D01*
X0045857541Y0016629929D01*
X0045659985Y0016629929D01*
X0045659985Y0016806318D01*
X0046033929Y0016806318D01*
G37*
G36*
X0045659985Y0016629929D02*
G01*
X0045462430Y0016629929D01*
X0045462430Y0016160735D01*
X0045659985Y0016160735D01*
X0045659985Y0015984346D01*
X0045286041Y0015984346D01*
X0045286041Y0016806318D01*
X0045659985Y0016806318D01*
G37*
%LPD*%
%LPD*%
G36*
X0048729149Y0015984346D02*
G01*
X0048355205Y0015984346D01*
X0048355205Y0016160735D01*
X0048552760Y0016160735D01*
X0048552760Y0016629929D01*
X0048355205Y0016629929D01*
X0048355205Y0016806318D01*
X0048729149Y0016806318D01*
G37*
G36*
X0048355205Y0016629929D02*
G01*
X0048157650Y0016629929D01*
X0048157650Y0016160735D01*
X0048355205Y0016160735D01*
X0048355205Y0015984346D01*
X0047981261Y0015984346D01*
X0047981261Y0016806318D01*
X0048355205Y0016806318D01*
G37*
%LPD*%
G36*
X0056913586Y0016838068D02*
G01*
X0056268003Y0016838068D01*
X0056585503Y0017374289D01*
G37*
%LPD*%
X0056585503Y0017374289D02*
G01*
X0056913586Y0016838068D01*
X0056268003Y0016838068D01*
X0056585503Y0017374289D01*
%LPD*%
%LPD*%
G36*
X0019254593Y0025011921D02*
G01*
X0018538455Y0025011921D01*
X0018538455Y0025188310D01*
X0019254593Y0025188310D01*
G37*
%LPD*%
%LPD*%
G36*
X0019254593Y0026969836D02*
G01*
X0018538455Y0026969836D01*
X0018538455Y0027146225D01*
X0019254593Y0027146225D01*
G37*
%LPD*%
%LPD*%
G36*
X0019254593Y0028941862D02*
G01*
X0018538455Y0028941862D01*
X0018538455Y0029118251D01*
X0019254593Y0029118251D01*
G37*
%LPD*%
%LPD*%
G36*
X0019254593Y0022859979D02*
G01*
X0018538455Y0022859979D01*
X0018538455Y0023036367D01*
X0019254593Y0023036367D01*
G37*
%LPD*%
%LPD*%
G36*
X0019254593Y0020683342D02*
G01*
X0018538455Y0020683342D01*
X0018538455Y0020859731D01*
X0019254593Y0020859731D01*
G37*
%LPD*%
%LPD*%
G36*
X0012534183Y0020683342D02*
G01*
X0011818045Y0020683342D01*
X0011818045Y0020859731D01*
X0012534183Y0020859731D01*
G37*
%LPD*%
%LPD*%
G36*
X0013592515Y0020683342D02*
G01*
X0012876377Y0020683342D01*
X0012876377Y0020859731D01*
X0013592515Y0020859731D01*
G37*
%LPD*%
%LPD*%
G36*
X0015003625Y0020683342D02*
G01*
X0014287487Y0020683342D01*
X0014287487Y0020859731D01*
X0015003625Y0020859731D01*
G37*
%LPD*%
%LPD*%
G36*
X0044072487Y0016696957D02*
G01*
X0043356348Y0016696957D01*
X0043356348Y0016873345D01*
X0044072487Y0016873345D01*
G37*
%LPD*%
%LPD*%
G36*
X0043014154Y0016696957D02*
G01*
X0042298016Y0016696957D01*
X0042298016Y0016873345D01*
X0043014154Y0016873345D01*
G37*
%LPD*%
%LPD*%
G36*
X0010195268Y0020930286D02*
G01*
X0010018880Y0020930286D01*
X0010018880Y0021646424D01*
X0010195268Y0021646424D01*
G37*
%LPD*%
%LPD*%
G36*
X0008046854Y0020930286D02*
G01*
X0007870465Y0020930286D01*
X0007870465Y0021646424D01*
X0008046854Y0021646424D01*
G37*
%LPD*%
%LPD*%
G36*
X0008046854Y0022115618D02*
G01*
X0007870465Y0022115618D01*
X0007870465Y0022831756D01*
X0008046854Y0022831756D01*
G37*
%LPD*%
%LPD*%
G36*
X0005894911Y0020930286D02*
G01*
X0005718522Y0020930286D01*
X0005718522Y0021646424D01*
X0005894911Y0021646424D01*
G37*
%LPD*%
%LPD*%
G36*
X0005894911Y0022126202D02*
G01*
X0005718522Y0022126202D01*
X0005718522Y0022842340D01*
X0005894911Y0022842340D01*
G37*
%LPD*%
%LPD*%
G36*
X0008078604Y0026437142D02*
G01*
X0007902215Y0026437142D01*
X0007902215Y0027153280D01*
X0008078604Y0027153280D01*
G37*
%LPD*%
%LPD*%
G36*
X0008078604Y0027495474D02*
G01*
X0007902215Y0027495474D01*
X0007902215Y0028211613D01*
X0008078604Y0028211613D01*
G37*
%LPD*%
%LPD*%
G36*
X0008078604Y0028553807D02*
G01*
X0007902215Y0028553807D01*
X0007902215Y0029269945D01*
X0008078604Y0029269945D01*
G37*
%LPD*%
%LPD*%
G36*
X0008078604Y0029612139D02*
G01*
X0007902215Y0029612139D01*
X0007902215Y0030328277D01*
X0008078604Y0030328277D01*
G37*
%LPD*%
%LPD*%
G36*
X0005926661Y0026437142D02*
G01*
X0005750272Y0026437142D01*
X0005750272Y0027153280D01*
X0005926661Y0027153280D01*
G37*
%LPD*%
%LPD*%
G36*
X0005926661Y0027495474D02*
G01*
X0005750272Y0027495474D01*
X0005750272Y0028211613D01*
X0005926661Y0028211613D01*
G37*
%LPD*%
%LPD*%
G36*
X0008078604Y0032787136D02*
G01*
X0007902215Y0032787136D01*
X0007902215Y0033503274D01*
X0008078604Y0033503274D01*
G37*
%LPD*%
%LPD*%
G36*
X0008078604Y0031728804D02*
G01*
X0007902215Y0031728804D01*
X0007902215Y0032444942D01*
X0008078604Y0032444942D01*
G37*
%LPD*%
%LPD*%
G36*
X0008078604Y0030670471D02*
G01*
X0007902215Y0030670471D01*
X0007902215Y0031386610D01*
X0008078604Y0031386610D01*
G37*
%LPD*%
%LPD*%
G36*
X0010195268Y0032787136D02*
G01*
X0010018880Y0032787136D01*
X0010018880Y0033503274D01*
X0010195268Y0033503274D01*
G37*
%LPD*%
%LPD*%
G36*
X0012308405Y0032787136D02*
G01*
X0012132016Y0032787136D01*
X0012132016Y0033503274D01*
X0012308405Y0033503274D01*
G37*
%LPD*%
%LPD*%
G36*
X0014421542Y0032787136D02*
G01*
X0014245153Y0032787136D01*
X0014245153Y0033503274D01*
X0014421542Y0033503274D01*
G37*
%LPD*%
%LPD*%
G36*
X0016538207Y0032787136D02*
G01*
X0016361818Y0032787136D01*
X0016361818Y0033503274D01*
X0016538207Y0033503274D01*
G37*
%LPD*%
%LPD*%
G36*
X0018651344Y0032787136D02*
G01*
X0018474955Y0032787136D01*
X0018474955Y0033503274D01*
X0018651344Y0033503274D01*
G37*
%LPD*%
%LPD*%
G36*
X0010195268Y0031728804D02*
G01*
X0010018880Y0031728804D01*
X0010018880Y0032444942D01*
X0010195268Y0032444942D01*
G37*
%LPD*%
%LPD*%
G36*
X0012308405Y0031728804D02*
G01*
X0012132016Y0031728804D01*
X0012132016Y0032444942D01*
X0012308405Y0032444942D01*
G37*
%LPD*%
%LPD*%
G36*
X0014421542Y0031728804D02*
G01*
X0014245153Y0031728804D01*
X0014245153Y0032444942D01*
X0014421542Y0032444942D01*
G37*
%LPD*%
%LPD*%
G36*
X0016538207Y0031728804D02*
G01*
X0016361818Y0031728804D01*
X0016361818Y0032444942D01*
X0016538207Y0032444942D01*
G37*
%LPD*%
%LPD*%
G36*
X0018651344Y0031728804D02*
G01*
X0018474955Y0031728804D01*
X0018474955Y0032444942D01*
X0018651344Y0032444942D01*
G37*
%LPD*%
%LPD*%
G36*
X0031376026Y0031922831D02*
G01*
X0031199638Y0031922831D01*
X0031199638Y0032635442D01*
X0031376026Y0032635442D01*
G37*
%LPD*%
%LPD*%
G36*
X0031376026Y0030892721D02*
G01*
X0031199638Y0030892721D01*
X0031199638Y0031608859D01*
X0031376026Y0031608859D01*
G37*
%LPD*%
%LPD*%
G36*
X0031376026Y0029538056D02*
G01*
X0031199638Y0029538056D01*
X0031199638Y0030254194D01*
X0031376026Y0030254194D01*
G37*
%LPD*%
%LPD*%
G36*
X0031376026Y0028215140D02*
G01*
X0031199638Y0028215140D01*
X0031199638Y0028931279D01*
X0031376026Y0028931279D01*
G37*
%LPD*%
%LPD*%
G36*
X0031376026Y0027156808D02*
G01*
X0031199638Y0027156808D01*
X0031199638Y0027872946D01*
X0031376026Y0027872946D01*
G37*
%LPD*%
%LPD*%
G36*
X0031376026Y0026098476D02*
G01*
X0031199638Y0026098476D01*
X0031199638Y0026814614D01*
X0031376026Y0026814614D01*
G37*
%LPD*%
%LPD*%
G36*
X0038533881Y0030927999D02*
G01*
X0038357492Y0030927999D01*
X0038357492Y0031644137D01*
X0038533881Y0031644137D01*
G37*
%LPD*%
%LPD*%
G36*
X0038533881Y0029273473D02*
G01*
X0038357492Y0029273473D01*
X0038357492Y0029989611D01*
X0038533881Y0029989611D01*
G37*
%LPD*%
%LPD*%
G36*
X0038533881Y0028215140D02*
G01*
X0038357492Y0028215140D01*
X0038357492Y0028931279D01*
X0038533881Y0028931279D01*
G37*
%LPD*%
%LPD*%
G36*
X0038533881Y0027156808D02*
G01*
X0038357492Y0027156808D01*
X0038357492Y0027872946D01*
X0038533881Y0027872946D01*
G37*
%LPD*%
%LPD*%
G36*
X0038533881Y0026098476D02*
G01*
X0038357492Y0026098476D01*
X0038357492Y0026814614D01*
X0038533881Y0026814614D01*
G37*
%LPD*%
%LPD*%
G36*
X0053922033Y0016495874D02*
G01*
X0053745644Y0016495874D01*
X0053745644Y0017208484D01*
X0053922033Y0017208484D01*
G37*
M02*
