<?xml version="1.0" encoding="utf-8"?>
<!-- Generator: Adobe Illustrator 27.0.0, SVG Export Plug-In . SVG Version: 6.00 Build 0)  -->
<svg version="1.1" id="Calque_1" xmlns="http://www.w3.org/2000/svg" xmlns:xlink="http://www.w3.org/1999/xlink" x="0px" y="0px"
	 viewBox="0 0 172.88 106.64" style="enable-background:new 0 0 172.88 106.64;" xml:space="preserve">
<style type="text/css">
	.st0{fill:none;stroke:#000000;stroke-width:0.1;stroke-miterlimit:10;}
</style>
<path class="st0" d="M164.07,97.99H9.9V16.11c0-3.71,3.01-6.73,6.73-6.73h140.7c3.71,0,6.73,3.01,6.73,6.73v81.88H164.07z"/>
<g>
	<g>
		<path d="M13.81,91.22c0.16-0.24,0.37-0.42,0.65-0.54s0.62-0.18,1.03-0.18c0.32,0,0.61,0.06,0.87,0.18s0.45,0.28,0.59,0.5
			c0.14,0.21,0.21,0.44,0.21,0.68s-0.06,0.46-0.19,0.64c-0.12,0.19-0.32,0.34-0.58,0.46c-0.18,0.08-0.51,0.18-1,0.29
			c-0.48,0.11-0.78,0.22-0.9,0.32s-0.18,0.24-0.18,0.4c0,0.19,0.08,0.35,0.25,0.48c0.17,0.13,0.43,0.2,0.79,0.2
			c0.35,0,0.61-0.07,0.79-0.22s0.28-0.36,0.31-0.65l0.57,0.04c-0.01,0.26-0.08,0.5-0.22,0.71s-0.33,0.37-0.59,0.48
			c-0.25,0.11-0.55,0.16-0.88,0.16c-0.3,0-0.58-0.05-0.83-0.15s-0.44-0.25-0.57-0.45s-0.19-0.41-0.19-0.64
			c0-0.21,0.05-0.39,0.16-0.56s0.27-0.31,0.48-0.42c0.17-0.09,0.46-0.18,0.87-0.28s0.68-0.17,0.8-0.22
			c0.19-0.07,0.32-0.16,0.41-0.27c0.08-0.11,0.12-0.23,0.12-0.37s-0.04-0.27-0.13-0.39c-0.08-0.12-0.21-0.21-0.39-0.28
			c-0.17-0.07-0.37-0.1-0.6-0.1c-0.26,0-0.49,0.04-0.69,0.13c-0.21,0.09-0.36,0.21-0.45,0.35c-0.1,0.14-0.16,0.33-0.19,0.55
			l-0.56-0.05C13.57,91.73,13.66,91.46,13.81,91.22z"/>
		<path d="M20.72,91.3c-0.23-0.19-0.51-0.29-0.85-0.29c-0.27,0-0.53,0.07-0.77,0.21s-0.41,0.36-0.52,0.64
			c-0.11,0.29-0.17,0.62-0.17,1c0,0.3,0.05,0.59,0.14,0.87c0.09,0.28,0.26,0.5,0.49,0.67s0.52,0.25,0.87,0.25
			c0.3,0,0.55-0.08,0.75-0.22c0.2-0.15,0.35-0.39,0.46-0.72l0.59,0.14c-0.12,0.42-0.34,0.74-0.64,0.97s-0.69,0.34-1.14,0.34
			c-0.4,0-0.76-0.09-1.09-0.27s-0.59-0.45-0.77-0.8c-0.18-0.35-0.27-0.76-0.27-1.23c0-0.43,0.08-0.83,0.24-1.21s0.39-0.66,0.7-0.86
			c0.3-0.2,0.7-0.3,1.19-0.3c0.47,0,0.87,0.13,1.19,0.39s0.55,0.63,0.67,1.12l-0.6,0.15C21.11,91.78,20.95,91.5,20.72,91.3z"/>
		<path d="M22.57,91.22c0.16-0.24,0.37-0.42,0.65-0.54s0.62-0.18,1.03-0.18c0.32,0,0.61,0.06,0.87,0.18s0.45,0.28,0.59,0.5
			c0.14,0.21,0.21,0.44,0.21,0.68s-0.06,0.46-0.19,0.64c-0.12,0.19-0.32,0.34-0.58,0.46c-0.18,0.08-0.51,0.18-1,0.29
			c-0.48,0.11-0.78,0.22-0.9,0.32c-0.12,0.1-0.18,0.24-0.18,0.4c0,0.19,0.08,0.35,0.25,0.48c0.17,0.13,0.43,0.2,0.79,0.2
			c0.35,0,0.61-0.07,0.79-0.22s0.28-0.36,0.31-0.65l0.57,0.04c-0.01,0.26-0.08,0.5-0.22,0.71s-0.33,0.37-0.59,0.48
			c-0.25,0.11-0.55,0.16-0.88,0.16c-0.3,0-0.58-0.05-0.83-0.15s-0.44-0.25-0.57-0.45s-0.19-0.41-0.19-0.64
			c0-0.21,0.05-0.39,0.16-0.56s0.27-0.31,0.48-0.42c0.17-0.09,0.46-0.18,0.87-0.28c0.41-0.1,0.68-0.17,0.8-0.22
			c0.19-0.07,0.32-0.16,0.41-0.27c0.08-0.11,0.12-0.23,0.12-0.37s-0.04-0.27-0.13-0.39c-0.08-0.12-0.21-0.21-0.39-0.28
			c-0.17-0.07-0.38-0.1-0.6-0.1c-0.26,0-0.49,0.04-0.69,0.13c-0.21,0.09-0.36,0.21-0.45,0.35c-0.1,0.14-0.16,0.33-0.19,0.55
			l-0.56-0.05C22.33,91.73,22.41,91.46,22.57,91.22z"/>
		<path d="M27.42,90.58v4.51h-0.6v-4.51H27.42z"/>
		<path d="M28.96,90.58v1.29l0.39,0.38l1.08-1.67h0.68l-1.38,2.05l1.25,1.21h-0.72l-1.31-1.33v2.57H28.4v-4.51h0.56V90.58z"/>
		<path d="M32.11,90.58v1.78c0,0.42,0.09,0.7,0.26,0.85s0.37,0.22,0.61,0.22c0.15,0,0.28-0.03,0.39-0.1s0.19-0.16,0.23-0.27
			c0.04-0.11,0.06-0.28,0.06-0.51v-1.99h0.55v2.01c0,0.26-0.01,0.44-0.03,0.54c-0.03,0.16-0.09,0.29-0.17,0.41
			c-0.08,0.12-0.21,0.21-0.37,0.28c-0.17,0.07-0.35,0.11-0.54,0.11c-0.45,0-0.8-0.18-1.04-0.54v0.46h-0.5v-3.27h0.55V90.58z"/>
		<path d="M35.61,90.58v3.27h-0.55v-3.27H35.61z M35.61,94.45v0.64h-0.55v-0.64H35.61z"/>
		<path d="M37.14,90.58v2.84h0.64v0.43h-0.64v0.3c0,0.2,0.03,0.33,0.1,0.4s0.19,0.11,0.36,0.11c0.1,0,0.21-0.01,0.33-0.03l0.08,0.48
			c-0.19,0.04-0.36,0.06-0.52,0.06c-0.24,0-0.43-0.04-0.56-0.13s-0.23-0.21-0.28-0.35c-0.04-0.11-0.06-0.27-0.06-0.49v-0.35H36.1
			v-0.43h0.49v-2.84L37.14,90.58L37.14,90.58z"/>
		<path d="M40.1,91.12c-0.14-0.11-0.32-0.16-0.52-0.16c-0.27,0-0.5,0.09-0.68,0.29c-0.18,0.19-0.28,0.46-0.3,0.82h2.44
			c0,0.07,0,0.12,0,0.15c0,0.54-0.14,0.96-0.42,1.25c-0.28,0.3-0.63,0.45-1.07,0.45c-0.45,0-0.82-0.15-1.1-0.46
			s-0.42-0.73-0.42-1.28c0-0.53,0.14-0.94,0.42-1.24c0.28-0.29,0.66-0.44,1.14-0.44c0.38,0,0.69,0.09,0.94,0.28
			c0.24,0.18,0.41,0.44,0.5,0.78l-0.57,0.07C40.36,91.4,40.24,91.23,40.1,91.12z M38.91,93.21c0.17,0.17,0.39,0.26,0.64,0.26
			c0.28,0,0.51-0.11,0.69-0.32c0.11-0.14,0.18-0.34,0.21-0.62h-1.82C38.64,92.81,38.74,93.04,38.91,93.21z"/>
		<path d="M44.13,90.58v1.83h1.16c0.64,0,1.08,0.13,1.32,0.4c0.24,0.27,0.37,0.59,0.37,0.97c0,0.22-0.05,0.43-0.14,0.62
			s-0.21,0.33-0.36,0.43s-0.33,0.17-0.56,0.21c-0.16,0.03-0.39,0.04-0.69,0.04h-1.7v-4.51L44.13,90.58L44.13,90.58z M44.13,94.56
			h1.15c0.27,0,0.46-0.01,0.56-0.04c0.16-0.04,0.28-0.13,0.38-0.27c0.1-0.13,0.14-0.3,0.14-0.48c0-0.26-0.08-0.46-0.24-0.61
			c-0.16-0.14-0.44-0.21-0.82-0.21h-1.17C44.13,92.95,44.13,94.56,44.13,94.56z"/>
		<path d="M47.88,90.95c0.28-0.29,0.65-0.44,1.11-0.44c0.29,0,0.55,0.07,0.79,0.2s0.42,0.32,0.55,0.56s0.19,0.57,0.19,0.99
			c0,0.52-0.14,0.93-0.43,1.22s-0.65,0.44-1.1,0.44c-0.4,0-0.75-0.12-1.03-0.36c-0.34-0.29-0.5-0.74-0.5-1.34
			C47.46,91.66,47.6,91.24,47.88,90.95z M48.3,93.15c0.18,0.21,0.41,0.31,0.69,0.31c0.27,0,0.5-0.1,0.68-0.31s0.27-0.51,0.27-0.92
			c0-0.43-0.09-0.75-0.27-0.96s-0.41-0.31-0.69-0.31s-0.51,0.1-0.69,0.31s-0.27,0.52-0.27,0.94C48.03,92.63,48.12,92.95,48.3,93.15z
			"/>
		<path d="M53.02,91.16c-0.15-0.13-0.33-0.2-0.54-0.2c-0.27,0-0.49,0.1-0.66,0.3c-0.17,0.2-0.25,0.52-0.25,0.96
			c0,0.43,0.09,0.75,0.26,0.95s0.4,0.3,0.68,0.3c0.18,0,0.34-0.06,0.47-0.17s0.22-0.28,0.27-0.5l0.54,0.08
			c-0.06,0.33-0.21,0.58-0.43,0.76c-0.23,0.18-0.52,0.27-0.87,0.27c-0.28,0-0.54-0.07-0.78-0.2s-0.42-0.33-0.53-0.6
			C51.06,92.86,51,92.55,51,92.2c0-0.54,0.14-0.96,0.41-1.26c0.27-0.29,0.63-0.44,1.08-0.44c0.36,0,0.66,0.11,0.9,0.32
			c0.25,0.21,0.4,0.51,0.46,0.88l-0.54,0.07C53.26,91.5,53.17,91.3,53.02,91.16z"/>
		<path d="M54.87,90.58v1.29l0.39,0.38l1.08-1.67h0.68l-1.38,2.05l1.25,1.21h-0.72l-1.31-1.33v2.57h-0.55v-4.51h0.56V90.58z"/>
		<path d="M59.36,91.12c-0.14-0.11-0.32-0.16-0.52-0.16c-0.27,0-0.5,0.09-0.68,0.29c-0.18,0.19-0.28,0.46-0.3,0.82h2.44
			c0,0.07,0,0.12,0,0.15c0,0.54-0.14,0.96-0.42,1.25c-0.28,0.3-0.63,0.45-1.07,0.45c-0.45,0-0.82-0.15-1.1-0.46
			s-0.42-0.73-0.42-1.28c0-0.53,0.14-0.94,0.42-1.24c0.28-0.29,0.66-0.44,1.14-0.44c0.38,0,0.69,0.09,0.94,0.28
			c0.24,0.18,0.41,0.44,0.5,0.78l-0.57,0.07C59.62,91.4,59.5,91.23,59.36,91.12z M58.17,93.21c0.17,0.17,0.39,0.26,0.64,0.26
			c0.28,0,0.51-0.11,0.69-0.32c0.11-0.14,0.18-0.34,0.21-0.62h-1.82C57.9,92.81,58,93.04,58.17,93.21z"/>
		<path d="M61.94,91.05c-0.08,0-0.15,0.01-0.19,0.04c-0.04,0.03-0.08,0.06-0.1,0.11c-0.02,0.04-0.03,0.15-0.03,0.3v1.91h0.56v0.43
			h-0.56v1.14l-0.55-0.33v-0.81h-0.41v-0.43h0.41v-1.88c0-0.33,0.02-0.55,0.07-0.65c0.04-0.1,0.12-0.19,0.23-0.25s0.27-0.1,0.47-0.1
			c0.12,0,0.26,0.02,0.42,0.05l-0.08,0.49C62.08,91.06,62,91.05,61.94,91.05z"/>
		<path d="M65.96,91.93v0.56h-1.7v-0.56H65.96z"/>
		<path d="M69.09,94.87c-0.37-0.2-0.66-0.49-0.87-0.86s-0.31-0.76-0.31-1.16s0.1-0.79,0.31-1.15s0.49-0.66,0.86-0.86
			s0.75-0.31,1.15-0.31s0.79,0.1,1.16,0.31s0.65,0.49,0.86,0.86s0.31,0.75,0.31,1.15s-0.1,0.79-0.31,1.16s-0.5,0.66-0.87,0.86
			s-0.75,0.3-1.14,0.3S69.47,95.07,69.09,94.87z M71.19,94.53c0.31-0.17,0.55-0.41,0.72-0.72s0.26-0.63,0.26-0.97
			c0-0.33-0.08-0.66-0.26-0.96c-0.17-0.31-0.41-0.54-0.72-0.72c-0.31-0.17-0.63-0.26-0.96-0.26s-0.65,0.09-0.96,0.26
			c-0.31,0.17-0.55,0.41-0.72,0.72s-0.26,0.63-0.26,0.96c0,0.34,0.09,0.66,0.26,0.97c0.17,0.31,0.42,0.55,0.72,0.72
			c0.31,0.17,0.63,0.25,0.95,0.25C70.56,94.78,70.88,94.7,71.19,94.53z M70.7,92.04c-0.14-0.11-0.3-0.16-0.49-0.16
			c-0.23,0-0.42,0.08-0.56,0.24s-0.22,0.4-0.22,0.71s0.08,0.55,0.23,0.72s0.35,0.25,0.58,0.25c0.16,0,0.3-0.04,0.42-0.12
			s0.21-0.2,0.27-0.35l0.37,0.09c-0.07,0.22-0.19,0.4-0.37,0.53s-0.41,0.2-0.68,0.2c-0.24,0-0.46-0.05-0.65-0.15
			s-0.34-0.25-0.44-0.45c-0.1-0.2-0.15-0.43-0.15-0.71c0-0.41,0.11-0.74,0.34-0.97s0.52-0.35,0.88-0.35c0.28,0,0.53,0.08,0.73,0.23
			c0.2,0.15,0.33,0.36,0.39,0.61l-0.38,0.11C70.94,92.29,70.84,92.14,70.7,92.04z"/>
		<path d="M73.51,91.11c0.06,0.1,0.14,0.2,0.23,0.3c0.09,0.1,0.31,0.29,0.64,0.57c0.4,0.34,0.68,0.6,0.85,0.79s0.29,0.38,0.37,0.55
			c0.07,0.17,0.11,0.35,0.11,0.53c0,0.35-0.13,0.65-0.38,0.89s-0.59,0.36-1.03,0.36c-0.43,0-0.77-0.11-1.02-0.33
			s-0.4-0.55-0.44-0.97l0.57-0.06c0,0.28,0.08,0.5,0.24,0.66s0.37,0.24,0.64,0.24c0.25,0,0.46-0.08,0.61-0.23
			c0.16-0.15,0.24-0.34,0.24-0.55c0-0.21-0.09-0.43-0.26-0.67c-0.17-0.24-0.5-0.55-0.99-0.96c-0.32-0.26-0.56-0.49-0.72-0.68
			c-0.17-0.2-0.29-0.4-0.36-0.6c-0.05-0.12-0.07-0.25-0.06-0.38h2.98v0.53L73.51,91.11L73.51,91.11z"/>
		<path d="M76.76,90.97c0.25-0.31,0.59-0.47,1.02-0.47c0.33,0,0.6,0.09,0.82,0.27s0.38,0.43,0.49,0.75
			c0.11,0.33,0.16,0.75,0.16,1.28c0,0.45-0.03,0.8-0.1,1.07c-0.07,0.26-0.16,0.49-0.28,0.67s-0.27,0.32-0.45,0.42
			s-0.4,0.15-0.64,0.15c-0.33,0-0.6-0.09-0.82-0.26c-0.22-0.18-0.38-0.43-0.49-0.75c-0.11-0.33-0.16-0.75-0.16-1.29
			C76.31,91.96,76.46,91.35,76.76,90.97z M77.17,94.33c0.15,0.21,0.35,0.32,0.61,0.32s0.47-0.12,0.65-0.37s0.26-0.74,0.26-1.48
			c0-0.74-0.09-1.23-0.26-1.48s-0.39-0.37-0.64-0.37s-0.47,0.12-0.64,0.37s-0.26,0.74-0.26,1.48S76.98,94.05,77.17,94.33z"/>
		<path d="M80.51,91.11c0.06,0.1,0.14,0.2,0.23,0.3c0.09,0.1,0.31,0.29,0.64,0.57c0.4,0.34,0.68,0.6,0.85,0.79s0.29,0.38,0.37,0.55
			c0.07,0.17,0.11,0.35,0.11,0.53c0,0.35-0.13,0.65-0.38,0.89s-0.6,0.36-1.03,0.36s-0.77-0.11-1.02-0.33s-0.4-0.55-0.44-0.97
			l0.57-0.06c0,0.28,0.08,0.5,0.24,0.66s0.37,0.24,0.64,0.24c0.25,0,0.46-0.08,0.61-0.23c0.16-0.15,0.24-0.34,0.24-0.55
			c0-0.21-0.09-0.43-0.26-0.67c-0.17-0.24-0.5-0.55-0.99-0.96c-0.32-0.26-0.56-0.49-0.72-0.68c-0.17-0.2-0.29-0.4-0.36-0.6
			c-0.05-0.12-0.07-0.25-0.06-0.38h2.98v0.53L80.51,91.11L80.51,91.11z"/>
		<path d="M85.65,90.58v1.08h0.61v0.51h-0.61v2.92H85.2l-2.06-2.92v-0.51h1.96v-1.08H85.65z M83.68,92.17l1.41,2.03v-2.03H83.68z"/>
		<path d="M88.59,90.58l0.5,1.37h1.89l0.53-1.37h0.68l-1.85,4.51H89.7l-1.73-4.51H88.59z M89.75,93.76c0.1,0.29,0.19,0.57,0.24,0.86
			c0.07-0.24,0.18-0.56,0.32-0.94l0.47-1.25h-1.53L89.75,93.76z"/>
		<path d="M93.13,90.58v1.78c0,0.42,0.09,0.7,0.26,0.85c0.17,0.15,0.38,0.22,0.61,0.22c0.15,0,0.28-0.03,0.39-0.1
			s0.19-0.16,0.23-0.27c0.04-0.11,0.06-0.28,0.06-0.51v-1.99h0.55v2.01c0,0.26-0.01,0.44-0.03,0.54c-0.03,0.16-0.09,0.29-0.17,0.41
			s-0.21,0.21-0.37,0.28c-0.17,0.07-0.35,0.11-0.54,0.11c-0.45,0-0.8-0.18-1.04-0.54v0.46h-0.5v-3.27h0.55V90.58z"/>
		<path d="M97.05,91.05c-0.08,0-0.15,0.01-0.19,0.04s-0.08,0.06-0.1,0.11c-0.02,0.04-0.03,0.15-0.03,0.3v1.91h0.56v0.43h-0.56v1.14
			l-0.55-0.33v-0.81h-0.41v-0.43h0.41v-1.88c0-0.33,0.02-0.55,0.07-0.65c0.04-0.1,0.12-0.19,0.23-0.25s0.27-0.1,0.47-0.1
			c0.12,0,0.26,0.02,0.42,0.05l-0.08,0.49C97.19,91.06,97.11,91.05,97.05,91.05z"/>
		<path d="M98.05,90.95c0.28-0.29,0.65-0.44,1.11-0.44c0.29,0,0.55,0.07,0.79,0.2s0.42,0.32,0.55,0.56
			c0.13,0.24,0.19,0.57,0.19,0.99c0,0.52-0.14,0.93-0.43,1.22s-0.65,0.44-1.1,0.44c-0.4,0-0.75-0.12-1.03-0.36
			c-0.34-0.29-0.5-0.74-0.5-1.34C97.63,91.66,97.77,91.24,98.05,90.95z M98.47,93.15c0.18,0.21,0.41,0.31,0.69,0.31
			c0.27,0,0.5-0.1,0.68-0.31s0.27-0.51,0.27-0.92c0-0.43-0.09-0.75-0.27-0.96s-0.41-0.31-0.69-0.31s-0.51,0.1-0.69,0.31
			s-0.27,0.52-0.27,0.94C98.2,92.63,98.29,92.95,98.47,93.15z"/>
		<path d="M101.9,90.58v3.27h-0.55v-3.27H101.9z M101.9,94.45v0.64h-0.55v-0.64H101.9z"/>
		<path d="M103.29,90.58v1.78c0,0.42,0.09,0.7,0.26,0.85c0.17,0.15,0.38,0.22,0.61,0.22c0.15,0,0.28-0.03,0.39-0.1
			s0.19-0.16,0.23-0.27c0.04-0.11,0.06-0.28,0.06-0.51v-1.99h0.55v2.01c0,0.26-0.01,0.44-0.03,0.54c-0.03,0.16-0.09,0.29-0.17,0.41
			s-0.21,0.21-0.37,0.28c-0.17,0.07-0.35,0.11-0.54,0.11c-0.45,0-0.8-0.18-1.04-0.54v0.46h-0.5v-3.27h0.55V90.58z"/>
		<path d="M108.14,91.12c-0.14-0.11-0.32-0.16-0.52-0.16c-0.27,0-0.5,0.09-0.68,0.29c-0.18,0.19-0.28,0.46-0.3,0.82h2.44
			c0,0.07,0,0.12,0,0.15c0,0.54-0.14,0.96-0.42,1.25c-0.28,0.3-0.63,0.45-1.07,0.45c-0.45,0-0.82-0.15-1.1-0.46
			s-0.42-0.73-0.42-1.28c0-0.53,0.14-0.94,0.42-1.24c0.28-0.29,0.66-0.44,1.14-0.44c0.38,0,0.69,0.09,0.94,0.28
			c0.24,0.18,0.41,0.44,0.5,0.78l-0.57,0.07C108.39,91.4,108.28,91.23,108.14,91.12z M106.95,93.21c0.17,0.17,0.39,0.26,0.64,0.26
			c0.28,0,0.51-0.11,0.69-0.32c0.12-0.14,0.18-0.34,0.21-0.62h-1.82C106.68,92.81,106.77,93.04,106.95,93.21z"/>
		<path d="M113.26,90.58c0.29,0,0.53,0.03,0.73,0.08c0.2,0.05,0.36,0.12,0.49,0.22s0.24,0.24,0.33,0.42
			c0.09,0.18,0.13,0.38,0.13,0.59c0,0.26-0.07,0.49-0.22,0.68s-0.36,0.33-0.63,0.41c0.21,0.1,0.37,0.24,0.47,0.41
			c0.1,0.17,0.16,0.35,0.16,0.54c0,0.21-0.06,0.41-0.18,0.59c-0.12,0.19-0.28,0.33-0.49,0.42s-0.48,0.14-0.83,0.14h-1.69v-4.51h1.73
			V90.58z M112.14,92.66h1.04c0.29,0,0.51-0.03,0.66-0.08s0.27-0.14,0.36-0.26s0.13-0.27,0.13-0.44c0-0.14-0.03-0.27-0.09-0.38
			s-0.14-0.19-0.23-0.25c-0.09-0.06-0.21-0.1-0.34-0.12c-0.08-0.01-0.21-0.02-0.41-0.02h-1.12V92.66z M112.14,94.56h0.9
			c0.32,0,0.55-0.02,0.69-0.06c0.13-0.04,0.24-0.12,0.31-0.23s0.11-0.25,0.11-0.4c0-0.16-0.04-0.29-0.12-0.39s-0.19-0.18-0.34-0.22
			c-0.12-0.03-0.3-0.05-0.57-0.05h-0.98V94.56z"/>
		<path d="M117.59,91.12c-0.14-0.11-0.32-0.16-0.52-0.16c-0.27,0-0.5,0.09-0.68,0.29c-0.18,0.19-0.28,0.46-0.3,0.82h2.44
			c0,0.07,0,0.12,0,0.15c0,0.54-0.14,0.96-0.42,1.25c-0.28,0.3-0.63,0.45-1.07,0.45c-0.45,0-0.82-0.15-1.1-0.46
			s-0.42-0.73-0.42-1.28c0-0.53,0.14-0.94,0.42-1.24c0.28-0.29,0.66-0.44,1.14-0.44c0.38,0,0.69,0.09,0.94,0.28
			c0.24,0.18,0.41,0.44,0.5,0.78l-0.57,0.07C117.85,91.4,117.74,91.23,117.59,91.12z M116.4,93.21c0.17,0.17,0.39,0.26,0.64,0.26
			c0.28,0,0.51-0.11,0.69-0.32c0.12-0.14,0.18-0.34,0.21-0.62h-1.82C116.13,92.81,116.23,93.04,116.4,93.21z"/>
		<path d="M119.75,90.58v1.71c0,0.23,0.03,0.45,0.09,0.65c0.04,0.13,0.11,0.23,0.21,0.3s0.21,0.11,0.33,0.11
			c0.14,0,0.27-0.04,0.41-0.12l0.19,0.51c-0.19,0.12-0.38,0.18-0.57,0.18c-0.13,0-0.25-0.04-0.36-0.11s-0.23-0.23-0.35-0.46v0.5
			h-0.5v-3.27C119.2,90.58,119.75,90.58,119.75,90.58z"/>
		<path d="M123.15,91.16c-0.15-0.13-0.33-0.2-0.54-0.2c-0.27,0-0.49,0.1-0.66,0.3c-0.17,0.2-0.25,0.52-0.25,0.96
			c0,0.43,0.09,0.75,0.26,0.95c0.17,0.2,0.4,0.3,0.68,0.3c0.18,0,0.34-0.06,0.47-0.17c0.13-0.11,0.22-0.28,0.27-0.5l0.54,0.08
			c-0.06,0.33-0.21,0.58-0.43,0.76c-0.23,0.18-0.52,0.27-0.87,0.27c-0.28,0-0.54-0.07-0.78-0.2s-0.42-0.33-0.53-0.6
			c-0.12-0.26-0.17-0.57-0.17-0.93c0-0.54,0.14-0.96,0.41-1.26c0.27-0.29,0.63-0.44,1.08-0.44c0.36,0,0.66,0.11,0.9,0.32
			c0.25,0.21,0.4,0.51,0.46,0.88l-0.54,0.07C123.39,91.5,123.3,91.3,123.15,91.16z"/>
		<path d="M124.67,90.95c0.28-0.29,0.65-0.44,1.11-0.44c0.29,0,0.55,0.07,0.79,0.2s0.42,0.32,0.55,0.56s0.19,0.57,0.19,0.99
			c0,0.52-0.14,0.93-0.43,1.22s-0.65,0.44-1.1,0.44c-0.4,0-0.75-0.12-1.03-0.36c-0.34-0.29-0.5-0.74-0.5-1.34
			C124.24,91.66,124.38,91.24,124.67,90.95z M125.09,93.15c0.18,0.21,0.41,0.31,0.69,0.31c0.27,0,0.5-0.1,0.68-0.31
			s0.28-0.51,0.28-0.92c0-0.43-0.09-0.75-0.27-0.96s-0.41-0.31-0.69-0.31s-0.51,0.1-0.69,0.31s-0.27,0.52-0.27,0.94
			C124.81,92.63,124.9,92.95,125.09,93.15z"/>
		<path d="M129.38,90.58l1.24,3.27h-0.57l-0.73-1.99c-0.09-0.24-0.16-0.45-0.21-0.62c-0.06,0.23-0.13,0.45-0.21,0.66l-0.7,1.96
			h-0.58l1.24-3.27h0.52V90.58z"/>
		<path d="M131.66,90.58v3.27h-0.55v-3.27H131.66z M131.66,94.45v0.64h-0.55v-0.64H131.66z"/>
		<path d="M134.36,91.16c-0.15-0.13-0.33-0.2-0.54-0.2c-0.27,0-0.49,0.1-0.66,0.3c-0.17,0.2-0.25,0.52-0.25,0.96
			c0,0.43,0.09,0.75,0.26,0.95s0.4,0.3,0.68,0.3c0.18,0,0.34-0.06,0.47-0.17s0.22-0.28,0.27-0.5l0.54,0.08
			c-0.06,0.33-0.21,0.58-0.43,0.76c-0.23,0.18-0.52,0.27-0.87,0.27c-0.28,0-0.54-0.07-0.78-0.2s-0.42-0.33-0.53-0.6
			c-0.12-0.26-0.18-0.57-0.18-0.93c0-0.54,0.14-0.96,0.41-1.26c0.27-0.29,0.63-0.44,1.08-0.44c0.36,0,0.66,0.11,0.9,0.32
			c0.25,0.21,0.4,0.51,0.46,0.88l-0.54,0.07C134.6,91.5,134.5,91.3,134.36,91.16z"/>
		<path d="M136.21,90.58v3.27h-0.55v-3.27H136.21z M136.21,94.45v0.64h-0.55v-0.64H136.21z"/>
		<path d="M16.52,83.3c-0.23-0.19-0.51-0.29-0.85-0.29c-0.27,0-0.53,0.07-0.77,0.21s-0.41,0.36-0.52,0.64
			c-0.11,0.29-0.17,0.62-0.17,1c0,0.3,0.05,0.59,0.14,0.87c0.09,0.28,0.26,0.5,0.49,0.67s0.52,0.25,0.87,0.25
			c0.3,0,0.55-0.08,0.75-0.22c0.2-0.15,0.35-0.39,0.46-0.72l0.59,0.14c-0.12,0.42-0.34,0.74-0.64,0.97s-0.69,0.34-1.14,0.34
			c-0.4,0-0.76-0.09-1.09-0.27s-0.59-0.45-0.77-0.8c-0.18-0.35-0.27-0.76-0.27-1.23c0-0.43,0.08-0.83,0.24-1.21s0.39-0.66,0.7-0.86
			c0.3-0.2,0.7-0.3,1.19-0.3c0.47,0,0.87,0.13,1.19,0.39s0.55,0.63,0.67,1.12l-0.6,0.15C16.9,83.78,16.75,83.5,16.52,83.3z"/>
		<path d="M21.7,82.58v0.53h-2.77v1.54h2.49v0.53h-2.49v1.38h2.66v0.53h-3.26v-4.51C18.33,82.58,21.7,82.58,21.7,82.58z"/>
		<path d="M23.13,82.58v2h0.69c0.15,0,0.26-0.01,0.33-0.02c0.09-0.02,0.18-0.06,0.27-0.12s0.19-0.16,0.3-0.3s0.26-0.35,0.43-0.62
			l0.6-0.94h0.75l-0.78,1.23c-0.16,0.24-0.32,0.44-0.5,0.6c-0.08,0.07-0.2,0.15-0.36,0.22c0.43,0.06,0.75,0.2,0.96,0.42
			s0.31,0.49,0.31,0.81c0,0.25-0.06,0.47-0.19,0.68c-0.13,0.21-0.29,0.35-0.5,0.43s-0.52,0.12-0.92,0.12h-2v-4.51
			C22.52,82.58,23.13,82.58,23.13,82.58z M23.13,86.59h1.43c0.33,0,0.58-0.07,0.73-0.21s0.23-0.31,0.23-0.53
			c0-0.15-0.04-0.28-0.12-0.4s-0.2-0.21-0.35-0.27s-0.37-0.08-0.64-0.08h-1.28C23.13,85.1,23.13,86.59,23.13,86.59z"/>
		<path d="M27.64,82.58v3.54l2.37-3.54h0.61v4.51h-0.57v-3.54l-2.37,3.54h-0.61v-4.51H27.64z"/>
		<path d="M33.45,83.65c0.17-0.35,0.43-0.63,0.76-0.84s0.71-0.31,1.14-0.31c0.39,0,0.76,0.09,1.1,0.28s0.6,0.46,0.78,0.82
			s0.28,0.77,0.28,1.23c0,0.45-0.09,0.85-0.26,1.21c-0.18,0.36-0.43,0.63-0.76,0.83c-0.33,0.2-0.71,0.3-1.13,0.3
			c-0.64,0-1.15-0.21-1.56-0.63c-0.4-0.42-0.6-1.01-0.6-1.76C33.19,84.38,33.28,84.01,33.45,83.65z M34.26,86.22
			c0.3,0.29,0.67,0.44,1.09,0.44c0.3,0,0.57-0.08,0.8-0.23c0.24-0.15,0.42-0.36,0.54-0.64c0.12-0.27,0.19-0.59,0.19-0.96
			c0-0.58-0.15-1.03-0.44-1.34c-0.29-0.32-0.66-0.47-1.11-0.47c-0.44,0-0.81,0.16-1.1,0.47c-0.29,0.31-0.44,0.74-0.44,1.28
			C33.8,85.45,33.96,85.93,34.26,86.22z"/>
		<path d="M38.89,82.58v2.13h2.34v-2.13h0.6v4.51h-0.6v-1.85h-2.34v1.85h-0.6v-4.51H38.89z"/>
		<path d="M45.61,82.58v0.53h-2.22v3.98h-0.6v-4.51H45.61z"/>
		<path d="M47.74,83.93v0.56h-1.7v-0.56H47.74z"/>
		<path d="M48.47,83.22c0.16-0.24,0.37-0.42,0.65-0.54s0.62-0.18,1.03-0.18c0.32,0,0.61,0.06,0.87,0.18s0.45,0.28,0.59,0.5
			c0.14,0.21,0.21,0.44,0.21,0.68s-0.06,0.46-0.19,0.64c-0.12,0.19-0.32,0.34-0.58,0.46c-0.18,0.08-0.51,0.18-1,0.29
			c-0.48,0.11-0.78,0.22-0.9,0.32c-0.12,0.1-0.18,0.24-0.18,0.4c0,0.19,0.08,0.35,0.25,0.48c0.17,0.13,0.43,0.2,0.79,0.2
			c0.35,0,0.61-0.07,0.79-0.22s0.28-0.36,0.31-0.65l0.57,0.04c-0.01,0.26-0.08,0.5-0.22,0.71s-0.33,0.37-0.59,0.48
			c-0.25,0.11-0.55,0.16-0.88,0.16c-0.3,0-0.58-0.05-0.83-0.15s-0.44-0.25-0.57-0.45s-0.19-0.41-0.19-0.64
			c0-0.21,0.05-0.39,0.16-0.56s0.27-0.31,0.48-0.42c0.17-0.09,0.46-0.18,0.87-0.28s0.68-0.17,0.8-0.22
			c0.19-0.07,0.32-0.16,0.41-0.27c0.08-0.11,0.12-0.23,0.12-0.37s-0.04-0.27-0.13-0.39c-0.08-0.12-0.21-0.21-0.39-0.28
			c-0.17-0.07-0.38-0.1-0.6-0.1c-0.26,0-0.49,0.04-0.69,0.13c-0.21,0.09-0.36,0.21-0.45,0.35c-0.1,0.14-0.16,0.33-0.19,0.55
			l-0.56-0.05C48.23,83.73,48.31,83.46,48.47,83.22z"/>
		<path d="M56.28,82.58l1.77,4.51h-0.61l-1.22-3.28c-0.09-0.25-0.17-0.49-0.24-0.74c-0.06,0.23-0.14,0.48-0.24,0.74l-1.17,3.28
			h-0.65l1.75-4.51H56.28z"/>
		<path d="M59.05,83.11c0.06,0.1,0.14,0.2,0.23,0.3c0.09,0.1,0.31,0.29,0.64,0.57c0.4,0.34,0.68,0.6,0.85,0.79s0.29,0.38,0.37,0.55
			c0.07,0.17,0.11,0.35,0.11,0.53c0,0.35-0.13,0.65-0.38,0.89s-0.59,0.36-1.03,0.36c-0.43,0-0.77-0.11-1.02-0.33
			s-0.4-0.55-0.44-0.97l0.57-0.06c0,0.28,0.08,0.5,0.24,0.66s0.37,0.24,0.64,0.24c0.25,0,0.46-0.08,0.61-0.23
			c0.16-0.15,0.24-0.34,0.24-0.55c0-0.21-0.09-0.43-0.26-0.67s-0.5-0.55-0.99-0.96c-0.32-0.26-0.56-0.49-0.72-0.68
			c-0.17-0.2-0.29-0.4-0.36-0.6c-0.05-0.12-0.07-0.25-0.06-0.38h2.98v0.53L59.05,83.11L59.05,83.11z"/>
		<path d="M67.04,82.58v0.53h-2.88l0.27,0.32l2.53,3.13v0.53h-3.23v-0.53h2.52c-0.15-0.15-0.3-0.33-0.47-0.54l-2.31-2.89v-0.55
			C63.47,82.58,67.04,82.58,67.04,82.58z"/>
		<path d="M70.24,82.58v3.27h-0.55V84.1c0-0.28-0.03-0.49-0.09-0.64s-0.16-0.26-0.31-0.35c-0.15-0.09-0.3-0.13-0.47-0.13
			s-0.31,0.04-0.42,0.12s-0.19,0.2-0.22,0.34c-0.02,0.1-0.03,0.29-0.03,0.58v1.81H67.6v-2.02c0-0.24,0.01-0.41,0.03-0.52
			c0.03-0.16,0.09-0.3,0.17-0.41s0.21-0.2,0.37-0.28c0.17-0.07,0.35-0.11,0.54-0.11c0.44,0,0.78,0.18,1.04,0.55v-0.48h0.49V82.58z"
			/>
		<path d="M71.65,82.58v4.51H71.1v-4.51H71.65z"/>
		<path d="M75.15,82.58v3.27H74.6V84.1c0-0.28-0.03-0.49-0.09-0.64s-0.16-0.26-0.31-0.35c-0.15-0.09-0.3-0.13-0.47-0.13
			s-0.31,0.04-0.42,0.12s-0.19,0.2-0.22,0.34c-0.02,0.1-0.03,0.29-0.03,0.58v1.81H72.5v-2.02c0-0.24,0.01-0.41,0.03-0.52
			c0.03-0.16,0.09-0.3,0.17-0.41s0.21-0.2,0.37-0.28c0.17-0.07,0.35-0.11,0.54-0.11c0.44,0,0.78,0.18,1.04,0.55v-0.48h0.5V82.58z"/>
		<path d="M76.13,83.22c0.16-0.24,0.37-0.42,0.65-0.54s0.62-0.18,1.03-0.18c0.32,0,0.61,0.06,0.87,0.18s0.45,0.28,0.59,0.5
			c0.14,0.21,0.21,0.44,0.21,0.68s-0.06,0.46-0.19,0.64c-0.12,0.19-0.32,0.34-0.58,0.46c-0.18,0.08-0.51,0.18-1,0.29
			c-0.48,0.11-0.78,0.22-0.9,0.32s-0.18,0.24-0.18,0.4c0,0.19,0.08,0.35,0.25,0.48c0.17,0.13,0.43,0.2,0.79,0.2
			c0.35,0,0.61-0.07,0.79-0.22s0.28-0.36,0.31-0.65l0.57,0.04c-0.01,0.26-0.08,0.5-0.22,0.71s-0.33,0.37-0.59,0.48
			c-0.25,0.11-0.55,0.16-0.88,0.16c-0.3,0-0.58-0.05-0.83-0.15s-0.44-0.25-0.57-0.45s-0.19-0.41-0.19-0.64
			c0-0.21,0.05-0.39,0.16-0.56s0.27-0.31,0.48-0.42c0.17-0.09,0.46-0.18,0.87-0.28s0.68-0.17,0.8-0.22
			c0.19-0.07,0.32-0.16,0.41-0.27c0.08-0.11,0.12-0.23,0.12-0.37s-0.04-0.27-0.13-0.39c-0.08-0.12-0.21-0.21-0.39-0.28
			c-0.17-0.07-0.38-0.1-0.6-0.1c-0.26,0-0.49,0.04-0.69,0.13c-0.21,0.09-0.36,0.21-0.45,0.35c-0.1,0.14-0.16,0.33-0.19,0.55
			l-0.56-0.05C75.89,83.73,75.97,83.46,76.13,83.22z"/>
		<path d="M83.04,83.3c-0.23-0.19-0.51-0.29-0.85-0.29c-0.27,0-0.53,0.07-0.77,0.21s-0.41,0.36-0.52,0.64
			c-0.11,0.29-0.17,0.62-0.17,1c0,0.3,0.05,0.59,0.14,0.87c0.09,0.28,0.26,0.5,0.49,0.67c0.23,0.17,0.52,0.25,0.87,0.25
			c0.3,0,0.55-0.08,0.75-0.22s0.35-0.39,0.46-0.72l0.59,0.14c-0.12,0.42-0.34,0.74-0.64,0.97s-0.69,0.34-1.14,0.34
			c-0.4,0-0.76-0.09-1.09-0.27c-0.33-0.18-0.59-0.45-0.77-0.8c-0.18-0.35-0.27-0.76-0.27-1.23c0-0.43,0.08-0.83,0.24-1.21
			c0.16-0.38,0.39-0.66,0.7-0.86c0.3-0.2,0.7-0.3,1.19-0.3c0.47,0,0.87,0.13,1.19,0.39c0.33,0.26,0.55,0.63,0.67,1.12l-0.6,0.15
			C83.42,83.78,83.27,83.5,83.04,83.3z"/>
		<path d="M84.88,83.22c0.16-0.24,0.37-0.42,0.65-0.54s0.62-0.18,1.03-0.18c0.32,0,0.61,0.06,0.87,0.18s0.46,0.28,0.59,0.5
			c0.14,0.21,0.21,0.44,0.21,0.68s-0.06,0.46-0.19,0.64c-0.12,0.19-0.32,0.34-0.58,0.46c-0.18,0.08-0.51,0.18-1,0.29
			s-0.79,0.22-0.9,0.32c-0.12,0.1-0.18,0.24-0.18,0.4c0,0.19,0.08,0.35,0.25,0.48c0.17,0.13,0.43,0.2,0.79,0.2
			c0.35,0,0.61-0.07,0.79-0.22s0.28-0.36,0.31-0.65l0.57,0.04c-0.01,0.26-0.08,0.5-0.22,0.71s-0.33,0.37-0.59,0.48
			c-0.25,0.11-0.55,0.16-0.88,0.16c-0.3,0-0.58-0.05-0.83-0.15s-0.44-0.25-0.57-0.45s-0.19-0.41-0.19-0.64
			c0-0.21,0.05-0.39,0.16-0.56s0.27-0.31,0.48-0.42c0.17-0.09,0.46-0.18,0.87-0.28s0.68-0.17,0.8-0.22
			c0.19-0.07,0.32-0.16,0.41-0.27c0.08-0.11,0.12-0.23,0.12-0.37s-0.04-0.27-0.13-0.39c-0.08-0.12-0.21-0.21-0.39-0.28
			c-0.17-0.07-0.38-0.1-0.6-0.1c-0.26,0-0.49,0.04-0.69,0.13c-0.21,0.09-0.36,0.21-0.45,0.35c-0.1,0.14-0.16,0.33-0.19,0.55
			l-0.56-0.05C84.64,83.73,84.73,83.46,84.88,83.22z"/>
		<path d="M89.74,82.58v4.51h-0.6v-4.51H89.74z"/>
		<path d="M92.23,84.58v2.13h0.82v0.37H91v-0.37h0.81v-2.13H92.23z M93.71,84.58v2.13l0.67-2.13h0.38l0.65,2.1v-2.1h0.38v2.51h-0.6
			l-0.61-2l-0.63,2h-0.62v-2.51H93.71z"/>
		<path d="M99.32,81.33v1.59c0.09-0.12,0.21-0.22,0.36-0.3s0.31-0.12,0.5-0.12c0.25,0,0.49,0.07,0.72,0.21s0.4,0.35,0.52,0.62
			c0.12,0.27,0.18,0.57,0.18,0.9c0,0.31-0.05,0.6-0.16,0.86s-0.27,0.46-0.48,0.61c-0.21,0.14-0.46,0.21-0.74,0.21
			c-0.21,0-0.39-0.04-0.54-0.12s-0.28-0.21-0.4-0.37v0.42h-0.5v-4.52h0.54V81.33z M99.54,85.16c0.18,0.22,0.39,0.33,0.63,0.33
			s0.44-0.1,0.61-0.31s0.26-0.52,0.26-0.94c0-0.44-0.09-0.76-0.26-0.97c-0.18-0.21-0.39-0.31-0.63-0.31s-0.45,0.1-0.62,0.3
			c-0.17,0.2-0.25,0.51-0.25,0.93C99.27,84.62,99.36,84.94,99.54,85.16z"/>
		<path d="M102.83,82.58v3.27h-0.55v-3.27H102.83z M102.83,86.45v0.64h-0.55v-0.64H102.83z"/>
		<path d="M105.53,83.16c-0.15-0.13-0.33-0.2-0.54-0.2c-0.27,0-0.49,0.1-0.66,0.3c-0.17,0.2-0.25,0.52-0.25,0.96
			c0,0.43,0.09,0.75,0.26,0.95c0.17,0.2,0.4,0.3,0.68,0.3c0.18,0,0.34-0.06,0.47-0.17c0.13-0.11,0.22-0.28,0.27-0.5l0.54,0.08
			c-0.06,0.33-0.21,0.58-0.43,0.76c-0.23,0.18-0.52,0.27-0.87,0.27c-0.28,0-0.54-0.07-0.78-0.2s-0.42-0.33-0.53-0.6
			c-0.12-0.26-0.18-0.57-0.18-0.93c0-0.54,0.14-0.96,0.41-1.26c0.27-0.29,0.63-0.44,1.08-0.44c0.36,0,0.66,0.11,0.9,0.32
			c0.25,0.21,0.4,0.51,0.46,0.88l-0.54,0.07C105.77,83.5,105.67,83.3,105.53,83.16z"/>
		<path d="M107.04,82.95c0.28-0.29,0.65-0.44,1.11-0.44c0.29,0,0.55,0.07,0.79,0.2s0.42,0.32,0.55,0.56s0.19,0.57,0.19,0.99
			c0,0.52-0.14,0.93-0.43,1.22s-0.65,0.44-1.1,0.44c-0.4,0-0.75-0.12-1.03-0.36c-0.34-0.29-0.5-0.74-0.5-1.34
			C106.62,83.66,106.76,83.24,107.04,82.95z M107.46,85.15c0.18,0.21,0.41,0.31,0.69,0.31c0.27,0,0.5-0.1,0.68-0.31
			s0.28-0.51,0.28-0.92c0-0.43-0.09-0.75-0.27-0.96s-0.41-0.31-0.69-0.31s-0.51,0.1-0.69,0.31s-0.27,0.52-0.27,0.94
			C107.19,84.63,107.28,84.95,107.46,85.15z"/>
		<path d="M112.23,83.65c0.17-0.35,0.42-0.63,0.76-0.84c0.33-0.21,0.71-0.31,1.14-0.31c0.39,0,0.76,0.09,1.1,0.28
			s0.6,0.46,0.78,0.82s0.28,0.77,0.28,1.23c0,0.45-0.09,0.85-0.26,1.21c-0.17,0.36-0.43,0.63-0.76,0.83c-0.33,0.2-0.71,0.3-1.13,0.3
			c-0.64,0-1.15-0.21-1.56-0.63c-0.4-0.42-0.6-1.01-0.6-1.76C111.97,84.38,112.05,84.01,112.23,83.65z M113.04,86.22
			c0.3,0.29,0.67,0.44,1.09,0.44c0.3,0,0.57-0.08,0.8-0.23c0.24-0.15,0.42-0.36,0.54-0.64c0.12-0.27,0.19-0.59,0.19-0.96
			c0-0.58-0.14-1.03-0.43-1.34c-0.29-0.32-0.66-0.47-1.11-0.47c-0.44,0-0.81,0.16-1.1,0.47s-0.44,0.74-0.44,1.28
			C112.58,85.45,112.73,85.93,113.04,86.22z"/>
		<path d="M117.09,83.22c0.16-0.24,0.37-0.42,0.65-0.54s0.62-0.18,1.03-0.18c0.32,0,0.61,0.06,0.87,0.18s0.45,0.28,0.59,0.5
			c0.14,0.21,0.21,0.44,0.21,0.68s-0.06,0.46-0.19,0.64s-0.32,0.34-0.58,0.46c-0.18,0.08-0.51,0.18-1,0.29
			c-0.48,0.11-0.78,0.22-0.9,0.32s-0.18,0.24-0.18,0.4c0,0.19,0.08,0.35,0.25,0.48c0.17,0.13,0.43,0.2,0.79,0.2
			c0.35,0,0.61-0.07,0.79-0.22s0.28-0.36,0.31-0.65l0.57,0.04c-0.01,0.26-0.08,0.5-0.22,0.71s-0.33,0.37-0.59,0.48
			c-0.25,0.11-0.55,0.16-0.88,0.16c-0.3,0-0.58-0.05-0.83-0.15s-0.44-0.25-0.57-0.45s-0.19-0.41-0.19-0.64
			c0-0.21,0.05-0.39,0.16-0.56s0.27-0.31,0.48-0.42c0.17-0.09,0.46-0.18,0.87-0.28s0.68-0.17,0.8-0.22
			c0.19-0.07,0.32-0.16,0.41-0.27c0.08-0.11,0.12-0.23,0.12-0.37s-0.04-0.27-0.13-0.39c-0.08-0.12-0.21-0.21-0.39-0.28
			c-0.17-0.07-0.38-0.1-0.6-0.1c-0.26,0-0.49,0.04-0.69,0.13c-0.21,0.09-0.36,0.21-0.45,0.35s-0.16,0.33-0.19,0.55l-0.56-0.05
			C116.85,83.73,116.94,83.46,117.09,83.22z"/>
		<path d="M121.87,82.58v2.13h2.34v-2.13h0.6v4.51h-0.6v-1.85h-2.34v1.85h-0.6v-4.51H121.87z"/>
		<path d="M127.2,82.58l0.96,3.44c0.04,0.15,0.08,0.32,0.13,0.53c0.01-0.07,0.06-0.24,0.14-0.53l0.95-3.44h0.58l1.24,4.51h-0.6
			l-0.71-2.9c-0.09-0.37-0.17-0.7-0.22-0.98c-0.07,0.5-0.19,1.03-0.35,1.6l-0.65,2.28h-0.72l-0.86-3.04
			c-0.02-0.07-0.09-0.35-0.2-0.83c-0.05,0.31-0.12,0.61-0.19,0.92l-0.7,2.95h-0.61l1.2-4.51C126.59,82.58,127.2,82.58,127.2,82.58z"
			/>
		<path d="M136.06,82.58v4.51h-0.55v-1.62c-0.1,0.13-0.22,0.24-0.38,0.33c-0.15,0.08-0.33,0.12-0.53,0.12
			c-0.27,0-0.51-0.07-0.73-0.21s-0.38-0.35-0.49-0.61c-0.11-0.27-0.16-0.56-0.16-0.89s0.06-0.63,0.18-0.89s0.29-0.46,0.51-0.6
			s0.46-0.21,0.72-0.21c0.4,0,0.71,0.16,0.91,0.49v-0.41h0.52V82.58z M134.04,85.16c0.17,0.2,0.37,0.3,0.62,0.3s0.46-0.1,0.64-0.31
			c0.17-0.21,0.26-0.54,0.26-0.98c0-0.41-0.08-0.71-0.25-0.91c-0.17-0.2-0.37-0.3-0.62-0.3c-0.24,0-0.45,0.1-0.62,0.31
			c-0.18,0.21-0.26,0.52-0.26,0.94C133.79,84.64,133.88,84.96,134.04,85.16z"/>
		<path d="M138.83,83.12c-0.14-0.11-0.32-0.16-0.52-0.16c-0.27,0-0.5,0.09-0.68,0.29c-0.18,0.19-0.28,0.46-0.3,0.82h2.44
			c0,0.07,0,0.12,0,0.15c0,0.54-0.14,0.96-0.42,1.25c-0.28,0.3-0.63,0.45-1.07,0.45c-0.45,0-0.82-0.15-1.1-0.46
			s-0.42-0.73-0.42-1.28c0-0.53,0.14-0.94,0.42-1.24c0.28-0.29,0.66-0.44,1.14-0.44c0.38,0,0.69,0.09,0.94,0.28s0.41,0.44,0.5,0.78
			l-0.57,0.07C139.08,83.4,138.97,83.23,138.83,83.12z M137.64,85.21c0.17,0.17,0.39,0.26,0.64,0.26c0.28,0,0.51-0.11,0.69-0.32
			c0.11-0.14,0.18-0.34,0.21-0.62h-1.82C137.37,84.81,137.46,85.04,137.64,85.21z"/>
		<path d="M140.98,82.58v1.71c0,0.23,0.03,0.45,0.09,0.65c0.04,0.13,0.11,0.23,0.21,0.3s0.21,0.11,0.33,0.11
			c0.14,0,0.27-0.04,0.41-0.12l0.19,0.51c-0.19,0.12-0.38,0.18-0.57,0.18c-0.13,0-0.25-0.04-0.36-0.11s-0.23-0.23-0.35-0.46v0.5
			h-0.5v-3.27C140.43,82.58,140.98,82.58,140.98,82.58z"/>
		<path d="M143.09,82.58v3.27h-0.55v-3.27H143.09z M143.09,86.45v0.64h-0.55v-0.64H143.09z"/>
		<path d="M145.36,82.58l1.24,3.27h-0.57l-0.73-1.99c-0.09-0.24-0.16-0.45-0.21-0.62c-0.06,0.23-0.13,0.45-0.21,0.66l-0.7,1.96
			h-0.58l1.24-3.27h0.52V82.58z"/>
		<path d="M149.32,82.58h0.58c-0.07,0.12-0.12,0.26-0.14,0.39s-0.04,0.46-0.04,0.98v0.74c0,0.25-0.01,0.42-0.03,0.51
			c-0.03,0.15-0.09,0.28-0.17,0.38s-0.21,0.18-0.38,0.25s-0.4,0.1-0.68,0.1s-0.53-0.04-0.74-0.12s-0.38-0.19-0.49-0.33
			s-0.19-0.33-0.24-0.56l0.54-0.07c0.06,0.23,0.15,0.39,0.28,0.49c0.12,0.09,0.32,0.14,0.58,0.14c0.28,0,0.49-0.06,0.63-0.19
			c0.1-0.09,0.16-0.25,0.16-0.48c0-0.02,0-0.07,0-0.14c-0.21-0.07-0.54-0.14-0.99-0.19c-0.22-0.03-0.38-0.05-0.49-0.08
			c-0.15-0.04-0.28-0.1-0.4-0.18s-0.21-0.19-0.29-0.32c-0.07-0.13-0.11-0.28-0.11-0.44c0-0.27,0.1-0.5,0.29-0.67
			c0.19-0.18,0.47-0.26,0.83-0.26c0.22,0,0.42,0.04,0.61,0.11s0.39,0.19,0.59,0.37C149.23,82.83,149.27,82.7,149.32,82.58z
			 M149.17,84.02c0-0.24-0.03-0.43-0.09-0.55c-0.08-0.16-0.2-0.29-0.37-0.38s-0.36-0.14-0.57-0.14s-0.38,0.05-0.49,0.15
			s-0.17,0.22-0.17,0.37c0,0.1,0.03,0.18,0.08,0.26s0.12,0.14,0.22,0.18c0.09,0.04,0.25,0.08,0.48,0.11c0.4,0.06,0.7,0.13,0.9,0.21
			v-0.21H149.17z"/>
		<path d="M151.55,83.05c-0.08,0-0.14,0.01-0.19,0.04c-0.04,0.03-0.08,0.06-0.09,0.11c-0.02,0.04-0.03,0.15-0.03,0.3v1.91h0.56v0.43
			h-0.56v1.14l-0.55-0.33v-0.81h-0.41v-0.43h0.41v-1.88c0-0.33,0.02-0.55,0.07-0.65c0.04-0.1,0.12-0.19,0.23-0.25s0.27-0.1,0.47-0.1
			c0.12,0,0.26,0.02,0.42,0.05l-0.08,0.49C151.69,83.06,151.61,83.05,151.55,83.05z"/>
		<path d="M152.89,82.58v3.27h-0.55v-3.27H152.89z M152.89,86.45v0.64h-0.55v-0.64H152.89z"/>
		<path d="M155.16,82.58l1.24,3.27h-0.57l-0.73-1.99c-0.09-0.24-0.16-0.45-0.21-0.62c-0.06,0.23-0.13,0.45-0.21,0.66l-0.7,1.96
			h-0.58l1.24-3.27h0.52V82.58z"/>
		<path d="M158.78,83.12c-0.14-0.11-0.32-0.16-0.52-0.16c-0.27,0-0.5,0.09-0.68,0.29c-0.18,0.19-0.28,0.46-0.3,0.82h2.44
			c0,0.07,0,0.12,0,0.15c0,0.54-0.14,0.96-0.42,1.25c-0.28,0.3-0.63,0.45-1.07,0.45c-0.45,0-0.82-0.15-1.1-0.46
			s-0.42-0.73-0.42-1.28c0-0.53,0.14-0.94,0.42-1.24c0.28-0.29,0.66-0.44,1.14-0.44c0.38,0,0.69,0.09,0.94,0.28s0.41,0.44,0.5,0.78
			l-0.57,0.07C159.04,83.4,158.92,83.23,158.78,83.12z M157.59,85.21c0.17,0.17,0.39,0.26,0.64,0.26c0.28,0,0.51-0.11,0.69-0.32
			c0.11-0.14,0.18-0.34,0.21-0.62h-1.82C157.32,84.81,157.42,85.04,157.59,85.21z"/>
	</g>
</g>
</svg>
