<?xml version="1.0" encoding="utf-8"?>
<!-- Generator: Adobe Illustrator 27.0.0, SVG Export Plug-In . SVG Version: 6.00 Build 0)  -->
<svg version="1.1" id="Calque_1" xmlns="http://www.w3.org/2000/svg" xmlns:xlink="http://www.w3.org/1999/xlink" x="0px" y="0px"
	 viewBox="0 0 172.88 106.64" style="enable-background:new 0 0 172.88 106.64;" xml:space="preserve">
<style type="text/css">
	.st0{fill:none;stroke:#000000;stroke-width:0.1;stroke-miterlimit:10;}
</style>
<path class="st0" d="M164.07,97.99H9.9V16.11c0-3.71,3.01-6.73,6.73-6.73h140.7c3.71,0,6.73,3.01,6.73,6.73v81.88H164.07z"/>
<g>
	<path d="M79.86,75.09c0-1.72,1.39-3.12,3.11-3.12s3.11,1.39,3.11,3.12c0,1.72-1.39,3.11-3.11,3.11
		C81.26,78.21,79.86,76.81,79.86,75.09z"/>
	<path d="M87.56,75.09c0-1.72,1.39-3.12,3.11-3.12s3.11,1.39,3.11,3.12c0,1.72-1.39,3.11-3.11,3.11
		C88.95,78.21,87.56,76.81,87.56,75.09z"/>
	<circle cx="98.64" cy="75.13" r="3.11"/>
	<path d="M103.46,75.13c0-1.72,1.39-3.11,3.12-3.11c1.72,0,3.11,1.39,3.11,3.11s-1.39,3.11-3.11,3.11
		C104.85,78.24,103.46,76.85,103.46,75.13z"/>
	<path d="M75.98,67.91c0-1.72,1.39-3.12,3.11-3.12s3.11,1.39,3.11,3.12c0,1.72-1.39,3.11-3.11,3.11
		C77.37,71.02,75.98,69.63,75.98,67.91z"/>
	<path d="M83.84,67.91c0-1.72,1.39-3.12,3.12-3.12c1.72,0,3.11,1.39,3.11,3.12c0,1.72-1.39,3.11-3.11,3.11
		C85.24,71.02,83.84,69.63,83.84,67.91z"/>
	<path d="M91.5,67.88c0-1.72,1.39-3.12,3.11-3.12s3.12,1.39,3.12,3.12c0,1.72-1.4,3.11-3.12,3.11C92.9,70.99,91.5,69.6,91.5,67.88z"
		/>
	<path d="M99.47,67.88c0-1.72,1.39-3.12,3.12-3.12c1.72,0,3.11,1.39,3.11,3.12c0,1.72-1.39,3.11-3.11,3.11S99.47,69.6,99.47,67.88z"
		/>
	<path d="M107.41,67.91c0-1.72,1.39-3.12,3.11-3.12s3.11,1.39,3.11,3.12c0,1.72-1.39,3.11-3.11,3.11
		C108.8,71.02,107.41,69.63,107.41,67.91z"/>
	<path d="M111.42,75.18c0-1.72,1.39-3.12,3.11-3.12s3.11,1.39,3.11,3.12c0,1.72-1.39,3.11-3.11,3.11S111.42,76.89,111.42,75.18z"/>
	<circle cx="122.5" cy="75.21" r="3.11"/>
	<path d="M127.32,75.21c0-1.72,1.39-3.11,3.12-3.11c1.72,0,3.11,1.39,3.11,3.11s-1.39,3.11-3.11,3.11
		C128.71,78.32,127.32,76.93,127.32,75.21z"/>
	<path d="M115.36,67.96c0-1.72,1.39-3.12,3.11-3.12s3.12,1.39,3.12,3.12c0,1.72-1.4,3.11-3.12,3.11
		C116.76,71.07,115.36,69.68,115.36,67.96z"/>
	<path d="M123.33,67.96c0-1.72,1.39-3.12,3.12-3.12c1.72,0,3.11,1.39,3.11,3.12c0,1.72-1.39,3.11-3.11,3.11
		C124.73,71.07,123.33,69.68,123.33,67.96z"/>
	<path d="M131.27,67.99c0-1.72,1.39-3.12,3.11-3.12s3.11,1.39,3.11,3.12c0,1.72-1.39,3.11-3.11,3.11S131.27,69.71,131.27,67.99z"/>
	<circle cx="154.01" cy="71.13" r="7.09"/>
	<path d="M48.31,75.07c0-1.72,1.39-3.12,3.11-3.12s3.11,1.39,3.11,3.12c0,1.72-1.39,3.11-3.11,3.11
		C49.71,78.18,48.31,76.79,48.31,75.07z"/>
	<path d="M56.01,75.07c0-1.72,1.39-3.12,3.11-3.12s3.11,1.39,3.11,3.12c0,1.72-1.39,3.11-3.11,3.11
		C57.4,78.18,56.01,76.79,56.01,75.07z"/>
	<circle cx="67.09" cy="75.1" r="3.11"/>
	<path d="M71.91,75.1c0-1.72,1.39-3.11,3.12-3.11c1.72,0,3.11,1.39,3.11,3.11s-1.39,3.11-3.11,3.11
		C73.31,78.22,71.91,76.82,71.91,75.1z"/>
	<path d="M44.43,67.89c0-1.72,1.39-3.12,3.11-3.12s3.11,1.39,3.11,3.12c0,1.72-1.39,3.11-3.11,3.11S44.43,69.6,44.43,67.89z"/>
	<path d="M52.29,67.89c0-1.72,1.39-3.12,3.12-3.12c1.72,0,3.11,1.39,3.11,3.12c0,1.72-1.39,3.11-3.11,3.11S52.29,69.6,52.29,67.89z"
		/>
	<path d="M59.96,67.85c0-1.72,1.39-3.12,3.11-3.12s3.12,1.39,3.12,3.12c0,1.72-1.4,3.11-3.12,3.11
		C61.35,70.97,59.96,69.57,59.96,67.85z"/>
	<path d="M67.93,67.85c0-1.72,1.39-3.12,3.12-3.12c1.72,0,3.11,1.39,3.11,3.12c0,1.72-1.39,3.11-3.11,3.11
		C69.32,70.97,67.93,69.57,67.93,67.85z"/>
	<path d="M40.44,75.07c0-1.72,1.39-3.12,3.11-3.12s3.11,1.39,3.11,3.12c0,1.72-1.39,3.11-3.11,3.11
		C41.84,78.19,40.44,76.79,40.44,75.07z"/>
	<path d="M36.56,67.89c0-1.72,1.39-3.12,3.11-3.12s3.11,1.39,3.11,3.12c0,1.72-1.39,3.11-3.11,3.11S36.56,69.61,36.56,67.89z"/>
	<circle cx="20.14" cy="71.11" r="7.09"/>
	<path d="M81.53,27.02c0,0.09,0.01,3.11,0.02,3.19c0.12,0.86,0.85,1.52,1.74,1.52s1.62-0.65,1.75-1.5c0.01-0.09,0.02-3.11,0.02-3.2
		c0-0.97-0.79-1.76-1.77-1.76C82.32,25.26,81.53,26.05,81.53,27.02z"/>
	<path d="M81.53,15.61c0,0.09,0.01,2.27,0.02,2.35c0.12,0.86,0.85,1.52,1.74,1.52s1.62-0.65,1.75-1.5c0.01-0.09,0.02-2.28,0.02-2.37
		c0-0.97-0.79-1.76-1.77-1.76C82.32,13.84,81.53,14.63,81.53,15.61z"/>
	<path d="M57.03,27.02c0,0.09,0.01,3.11,0.02,3.19c0.12,0.86,0.85,1.52,1.74,1.52c0.89,0,1.62-0.65,1.75-1.5
		c0.01-0.09,0.02-3.11,0.02-3.2c0-0.97-0.79-1.76-1.77-1.76C57.82,25.26,57.03,26.05,57.03,27.02z"/>
	<path d="M57.03,15.61c0,0.09,0.01,2.27,0.02,2.35c0.12,0.86,0.85,1.52,1.74,1.52c0.89,0,1.62-0.65,1.75-1.5
		c0.01-0.09,0.02-2.28,0.02-2.37c0-0.97-0.79-1.76-1.77-1.76C57.82,13.84,57.03,14.63,57.03,15.61z"/>
	<circle cx="48.64" cy="28.51" r="0.85"/>
	<circle cx="48.64" cy="25.75" r="0.85"/>
	<circle cx="48.64" cy="31.26" r="0.85"/>
	<circle cx="48.64" cy="23" r="0.85"/>
</g>
</svg>
