<?xml version="1.0" encoding="utf-8"?>
<!-- Generator: Adobe Illustrator 27.0.0, SVG Export Plug-In . SVG Version: 6.00 Build 0)  -->
<svg version="1.1" id="Calque_1" xmlns="http://www.w3.org/2000/svg" xmlns:xlink="http://www.w3.org/1999/xlink" x="0px" y="0px"
	 viewBox="0 0 172.88 106.64" style="enable-background:new 0 0 172.88 106.64;" xml:space="preserve">
<style type="text/css">
	.st0{fill:none;stroke:#000000;stroke-width:0.1;stroke-miterlimit:10;}
	.st1{fill:none;stroke:#000000;stroke-width:1.7;stroke-linecap:round;stroke-linejoin:round;}
	.st2{fill:none;stroke:#000000;stroke-width:0.36;}
	.st3{fill:none;stroke:#000000;stroke-width:0.5;}
	.st4{fill:none;stroke:#000000;stroke-width:2;stroke-miterlimit:10;}
	.st5{fill:none;stroke:#000000;stroke-miterlimit:10;}
	.st6{fill:none;stroke:#000000;stroke-width:0.98;}
	.st7{fill:none;stroke:#000000;stroke-width:1.7;stroke-miterlimit:10;}
	.st8{fill:none;stroke:#000000;stroke-width:1.7;}
</style>
<path class="st0" d="M164.07,97.99H9.9V16.11c0-3.71,3.01-6.73,6.73-6.73h140.7c3.71,0,6.73,3.01,6.73,6.73v81.88H164.07z"/>
<g>
	<polyline class="st1" points="35.18,53.01 35.18,64.34 34.28,65.23 34.28,72.95 41.29,79.96 125.67,79.96 130.42,75.2 	"/>
	<polyline class="st2" points="72.95,57.9 74.29,56.56 78.05,56.56 79.35,57.86 	"/>
	<polyline class="st3" points="82.58,57.9 81.05,59.43 81.05,64.43 79.1,67.91 	"/>
	<polyline class="st3" points="85.8,57.9 84.27,59.43 84.27,63.46 83.01,64.73 83.01,70.24 90.81,75.18 	"/>
	<polyline class="st3" points="76.16,57.9 76.16,59.56 71.73,63.99 69.46,63.99 67.05,66.4 67.05,74.03 	"/>
	<polyline class="st3" points="51.43,75.06 59.24,70.25 59.24,66.02 61.67,63.6 61.67,61.75 65.5,57.91 66.73,57.91 	"/>
	<polyline class="st3" points="55.42,67.88 58.54,64.75 58.54,61.61 62.23,57.92 63.34,57.92 	"/>
	<polyline class="st3" points="60.08,57.93 58.53,59.49 56.7,59.49 51.46,64.73 51.46,70.25 48.35,72.16 46.66,72.16 39.67,67.89 	
		"/>
	<line class="st3" x1="47.21" y1="67.54" x2="56.87" y2="57.89"/>
	<path class="st2" d="M108.01,40.4l-0.93-0.53H95.09l-9.59,9.59H43.06l-3.75-3.75v-2.55"/>
	<path class="st2" d="M109.85,39.4l-0.91-0.51H95.05l-9.85,9.85H43.39l-2.94-2.94v-3.27"/>
	<path class="st2" d="M106.16,41.41l-0.91-0.51H95.08l-9.28,9.28H42.74l-4.56-4.56v-3.09"/>
	<path class="st2" d="M104.35,42.43l-0.95-0.55h-8.26l-9.03,9.03H42.46l-5.42-5.42v-2.33"/>
	<path class="st2" d="M100.65,44.41l-0.92-0.52h-4.57l-8.46,8.46H41.86l-7.09-7.09v-2.11"/>
	<path class="st2" d="M102.64,43.58l-1.08-0.68h-6.4l-8.74,8.74H42.16l-6.26-6.26v-2.85"/>
	<path class="st2" d="M98.92,45.53l-1.05-0.65H95.2l-8.28,8.22l-45.38-0.03l-7.5-7.5v-1.52l-1.54-1.54"/>
	<path class="st2" d="M96.95,46.4l-0.94-0.54h-0.74l-7.95,7.95h-46.1L33.3,45.9v-1.12l-0.73-0.73"/>
	<polyline class="st3" points="98.64,75.12 90.77,70.43 90.77,56.88 95.11,52.54 95.11,47.97 	"/>
	<line class="st3" x1="89.01" y1="57.9" x2="90.77" y2="57.9"/>
	<polyline class="st3" points="96.95,49.28 96.95,52.71 93.98,55.68 93.98,63.54 94.67,64.23 94.67,68.5 	"/>
	<polyline class="st3" points="98.79,47.97 98.79,53.16 97.19,54.76 97.19,63.87 98.58,65.25 98.58,70.37 106.57,75.13 	"/>
	<line class="st3" x1="92.22" y1="57.9" x2="93.93" y2="57.9"/>
	<line class="st3" x1="95.43" y1="57.9" x2="97.24" y2="57.9"/>
	<polyline class="st3" points="110.53,67.91 106.68,64.06 101.13,64.06 100.25,63.18 100.25,59.53 98.46,57.73 	"/>
	<polyline class="st3" points="114.54,75.17 114.54,63 112.62,61.08 105.1,61.08 101.89,57.87 	"/>
	<polyline class="st3" points="118.49,67.95 115.54,65.12 115.54,62.6 113.06,60.12 107.36,60.12 105.23,57.99 	"/>
	<path class="st2" d="M42.7,42.62v1.4l3.99,3.99H84.9l2.05-2.05v-1.55"/>
	<path class="st2" d="M43.85,43.36v0.74l3.19,3.19h36.47l1.64-1.66v-1.37l4.59-4.59h1.88"/>
	<path class="st2" d="M118.95,48.93l2.23-2.23V33.2l-1.45-1.45h-6.96l-4.21,4.21H53.13l-0.8,0.8h-0.77"/>
	<path class="st2" d="M118.95,27.11l1.45,1.45v1.65l-0.83,0.83h-7.1l-4.2,4.2H52.73l-0.4,0.4h-1.71"/>
	<path class="st2" d="M118.97,45.77l1.42-1.42V33.46l-0.99-0.99h-6.33l-4.21,4.21H53.51l-1.23,1.23h-1.45"/>
	<path class="st2" d="M46.12,43.36v0.88l1.61,1.61h33.79l8.45-8.45h19.26l4.18-4.18h4.72l0.87,0.87"/>
	<path class="st2" d="M44.97,42.56v1.6l2.42,2.42h34.43l8.43-8.43h20.54l1.53,1.53"/>
	<path class="st2" d="M51.57,34.5h56.41l4.16-4.15h5.96l1.02-1.02"/>
	<circle cx="95.11" cy="47.97" r="0.85"/>
	<circle cx="96.95" cy="49.28" r="0.85"/>
	<circle cx="98.79" cy="47.97" r="0.85"/>
	<circle cx="109.85" cy="49.28" r="0.85"/>
	<circle cx="111.49" cy="62.54" r="0.85"/>
	<circle cx="108.29" cy="62.54" r="0.85"/>
	<circle cx="105.07" cy="62.54" r="0.85"/>
	<circle cx="101.86" cy="57.9" r="0.85"/>
	<circle cx="101.86" cy="62.54" r="0.85"/>
	<circle cx="98.65" cy="57.9" r="0.85"/>
	<circle cx="98.65" cy="62.54" r="0.85"/>
	<circle cx="95.43" cy="57.9" r="0.85"/>
	<circle cx="95.43" cy="62.54" r="0.85"/>
	<circle cx="92.22" cy="57.9" r="0.85"/>
	<circle cx="92.22" cy="62.54" r="0.85"/>
	<circle cx="89.01" cy="57.9" r="0.85"/>
	<circle cx="89.01" cy="62.54" r="0.85"/>
	<circle cx="85.8" cy="57.9" r="0.85"/>
	<circle cx="85.8" cy="62.54" r="0.85"/>
	<circle cx="82.58" cy="57.9" r="0.85"/>
	<circle cx="82.58" cy="62.54" r="0.85"/>
	<circle cx="79.37" cy="57.9" r="0.85"/>
	<circle cx="69.73" cy="62.54" r="0.85"/>
	<circle cx="66.52" cy="57.9" r="0.85"/>
	<circle cx="66.52" cy="62.54" r="0.85"/>
	<circle cx="63.31" cy="57.9" r="0.85"/>
	<circle cx="63.31" cy="62.54" r="0.85"/>
	<circle cx="60.09" cy="57.9" r="0.85"/>
	<circle cx="60.09" cy="62.54" r="0.85"/>
	<circle cx="56.88" cy="57.9" r="0.85"/>
	<circle cx="56.88" cy="62.54" r="0.85"/>
	<circle cx="79.37" cy="62.54" r="0.85"/>
	<circle cx="85.15" cy="45.63" r="0.85"/>
	<circle cx="64.88" cy="27.07" r="0.85"/>
	<circle cx="77.27" cy="27.07" r="0.85"/>
	<circle cx="64.88" cy="25.79" r="0.85"/>
	<circle cx="77.27" cy="25.79" r="0.85"/>
	<circle cx="105.07" cy="57.9" r="0.85"/>
	<circle cx="112.24" cy="42.69" r="0.85"/>
	<circle cx="118.24" cy="42.69" r="0.85"/>
	<circle cx="118.24" cy="36.45" r="0.85"/>
	<circle cx="112.24" cy="36.45" r="0.85"/>
	<circle cx="76.16" cy="62.54" r="0.85"/>
	<circle cx="76.16" cy="57.9" r="0.85"/>
	<circle cx="72.95" cy="57.9" r="0.85"/>
	<circle cx="109.85" cy="39.4" r="0.85"/>
	<circle cx="108" cy="40.4" r="0.85"/>
	<circle cx="106.16" cy="41.4" r="0.85"/>
	<circle cx="104.32" cy="42.41" r="0.85"/>
	<circle cx="102.48" cy="43.41" r="0.85"/>
	<circle cx="100.63" cy="44.41" r="0.85"/>
	<circle cx="98.79" cy="45.41" r="0.85"/>
	<circle cx="96.95" cy="46.41" r="0.85"/>
	<circle cx="53.61" cy="56.98" r="0.85"/>
	<circle cx="53.61" cy="55.28" r="0.85"/>
	<circle cx="86.96" cy="44.43" r="0.85"/>
	<circle cx="91.71" cy="39.65" r="0.85"/>
	<circle cx="112.24" cy="39.57" r="0.85"/>
	<circle cx="118.94" cy="34.04" r="0.85"/>
	<circle cx="118.96" cy="29.49" r="0.85"/>
	<circle cx="118.94" cy="27.1" r="0.85"/>
	<circle cx="118.94" cy="45.8" r="0.85"/>
	<circle cx="118.94" cy="48.92" r="0.85"/>
	<circle cx="26.16" cy="27.91" r="0.5"/>
	<circle cx="50.73" cy="33.37" r="0.5"/>
	<circle cx="51.57" cy="34.5" r="0.5"/>
	<circle cx="50.73" cy="35.64" r="0.5"/>
	<circle cx="51.57" cy="36.77" r="0.5"/>
	<circle cx="50.73" cy="37.91" r="0.5"/>
	<circle cx="46.11" cy="43.36" r="0.5"/>
	<circle cx="44.98" cy="42.52" r="0.5"/>
	<circle cx="43.85" cy="43.36" r="0.5"/>
	<circle cx="42.71" cy="42.52" r="0.5"/>
	<circle cx="16.03" cy="38.66" r="0.5"/>
	<circle cx="17.03" cy="38.66" r="0.5"/>
	<circle cx="19.72" cy="42.91" r="0.5"/>
	<circle cx="19.27" cy="46.3" r="0.5"/>
	<circle cx="22.92" cy="30.7" r="0.5"/>
	<circle cx="22.92" cy="27.7" r="0.5"/>
	<circle cx="22.92" cy="24.7" r="0.5"/>
	<circle cx="22.92" cy="21.7" r="0.5"/>
	<circle cx="19.82" cy="15.7" r="0.5"/>
	<circle cx="19.1" cy="34.41" r="0.5"/>
	<circle cx="18.1" cy="34.41" r="0.5"/>
	<circle cx="39.31" cy="43.15" r="0.5"/>
	<circle cx="40.44" cy="42.52" r="0.5"/>
	<circle cx="37.04" cy="43.16" r="0.5"/>
	<circle cx="38.18" cy="42.53" r="0.5"/>
	<circle cx="34.78" cy="43.16" r="0.5"/>
	<circle cx="35.91" cy="42.53" r="0.5"/>
	<circle cx="32.51" cy="42.52" r="0.5"/>
	<path d="M79.86,75.09c0-1.72,1.39-3.12,3.11-3.12s3.11,1.39,3.11,3.12c0,1.72-1.39,3.11-3.11,3.11
		C81.26,78.21,79.86,76.81,79.86,75.09z"/>
	<path d="M87.56,75.09c0-1.72,1.39-3.12,3.11-3.12s3.11,1.39,3.11,3.12c0,1.72-1.39,3.11-3.11,3.11
		C88.95,78.21,87.56,76.81,87.56,75.09z"/>
	<circle cx="98.64" cy="75.13" r="3.11"/>
	<path d="M103.46,75.13c0-1.72,1.39-3.11,3.12-3.11c1.72,0,3.11,1.39,3.11,3.11s-1.39,3.11-3.11,3.11
		C104.85,78.24,103.46,76.85,103.46,75.13z"/>
	<path d="M75.98,67.91c0-1.72,1.39-3.12,3.11-3.12s3.11,1.39,3.11,3.12c0,1.72-1.39,3.11-3.11,3.11
		C77.37,71.02,75.98,69.63,75.98,67.91z"/>
	<path d="M83.84,67.91c0-1.72,1.39-3.12,3.12-3.12c1.72,0,3.11,1.39,3.11,3.12c0,1.72-1.39,3.11-3.11,3.11
		C85.24,71.02,83.84,69.63,83.84,67.91z"/>
	<path d="M91.5,67.88c0-1.72,1.39-3.12,3.11-3.12s3.12,1.39,3.12,3.12c0,1.72-1.4,3.11-3.12,3.11C92.9,70.99,91.5,69.6,91.5,67.88z"
		/>
	<path d="M99.47,67.88c0-1.72,1.39-3.12,3.12-3.12c1.72,0,3.11,1.39,3.11,3.12c0,1.72-1.39,3.11-3.11,3.11S99.47,69.6,99.47,67.88z"
		/>
	<path d="M107.41,67.91c0-1.72,1.39-3.12,3.11-3.12s3.11,1.39,3.11,3.12c0,1.72-1.39,3.11-3.11,3.11
		C108.8,71.02,107.41,69.63,107.41,67.91z"/>
	<path d="M111.42,75.18c0-1.72,1.39-3.12,3.11-3.12s3.11,1.39,3.11,3.12c0,1.72-1.39,3.11-3.11,3.11S111.42,76.89,111.42,75.18z"/>
	<circle cx="122.5" cy="75.21" r="3.11"/>
	<path d="M127.32,75.21c0-1.72,1.39-3.11,3.12-3.11c1.72,0,3.11,1.39,3.11,3.11s-1.39,3.11-3.11,3.11
		C128.71,78.32,127.32,76.93,127.32,75.21z"/>
	<path d="M115.36,67.96c0-1.72,1.39-3.12,3.11-3.12s3.12,1.39,3.12,3.12c0,1.72-1.4,3.11-3.12,3.11
		C116.76,71.07,115.36,69.68,115.36,67.96z"/>
	<path d="M123.33,67.96c0-1.72,1.39-3.12,3.12-3.12c1.72,0,3.11,1.39,3.11,3.12c0,1.72-1.39,3.11-3.11,3.11
		C124.73,71.07,123.33,69.68,123.33,67.96z"/>
	<path d="M131.27,67.99c0-1.72,1.39-3.12,3.11-3.12s3.11,1.39,3.11,3.12c0,1.72-1.39,3.11-3.11,3.11S131.27,69.71,131.27,67.99z"/>
	<circle cx="154.01" cy="71.13" r="7.09"/>
	<path d="M48.31,75.07c0-1.72,1.39-3.12,3.11-3.12s3.11,1.39,3.11,3.12c0,1.72-1.39,3.11-3.11,3.11
		C49.71,78.18,48.31,76.79,48.31,75.07z"/>
	<path d="M56.01,75.07c0-1.72,1.39-3.12,3.11-3.12s3.11,1.39,3.11,3.12c0,1.72-1.39,3.11-3.11,3.11
		C57.4,78.18,56.01,76.79,56.01,75.07z"/>
	<circle cx="67.09" cy="75.1" r="3.11"/>
	<path d="M71.91,75.1c0-1.72,1.39-3.11,3.12-3.11c1.72,0,3.11,1.39,3.11,3.11s-1.39,3.11-3.11,3.11
		C73.31,78.22,71.91,76.82,71.91,75.1z"/>
	<path d="M44.43,67.89c0-1.72,1.39-3.12,3.11-3.12s3.11,1.39,3.11,3.12c0,1.72-1.39,3.11-3.11,3.11S44.43,69.6,44.43,67.89z"/>
	<path d="M52.29,67.89c0-1.72,1.39-3.12,3.12-3.12c1.72,0,3.11,1.39,3.11,3.12c0,1.72-1.39,3.11-3.11,3.11S52.29,69.6,52.29,67.89z"
		/>
	<path d="M59.96,67.85c0-1.72,1.39-3.12,3.11-3.12s3.12,1.39,3.12,3.12c0,1.72-1.4,3.11-3.12,3.11
		C61.35,70.97,59.96,69.57,59.96,67.85z"/>
	<path d="M67.93,67.85c0-1.72,1.39-3.12,3.12-3.12c1.72,0,3.11,1.39,3.11,3.12c0,1.72-1.39,3.11-3.11,3.11
		C69.32,70.97,67.93,69.57,67.93,67.85z"/>
	<path d="M40.44,75.07c0-1.72,1.39-3.12,3.11-3.12s3.11,1.39,3.11,3.12c0,1.72-1.39,3.11-3.11,3.11
		C41.84,78.19,40.44,76.79,40.44,75.07z"/>
	<path d="M36.56,67.89c0-1.72,1.39-3.12,3.11-3.12s3.11,1.39,3.11,3.12c0,1.72-1.39,3.11-3.11,3.11S36.56,69.61,36.56,67.89z"/>
	<circle cx="20.14" cy="71.11" r="7.09"/>
	<path d="M81.53,27.02c0,0.09,0.01,3.11,0.02,3.19c0.12,0.86,0.85,1.52,1.74,1.52s1.62-0.65,1.75-1.5c0.01-0.09,0.02-3.11,0.02-3.2
		c0-0.97-0.79-1.76-1.77-1.76C82.32,25.26,81.53,26.05,81.53,27.02z"/>
	<path d="M81.53,15.61c0,0.09,0.01,2.27,0.02,2.35c0.12,0.86,0.85,1.52,1.74,1.52s1.62-0.65,1.75-1.5c0.01-0.09,0.02-2.28,0.02-2.37
		c0-0.97-0.79-1.76-1.77-1.76C82.32,13.84,81.53,14.63,81.53,15.61z"/>
	<path d="M57.03,27.02c0,0.09,0.01,3.11,0.02,3.19c0.12,0.86,0.85,1.52,1.74,1.52c0.89,0,1.62-0.65,1.75-1.5
		c0.01-0.09,0.02-3.11,0.02-3.2c0-0.97-0.79-1.76-1.77-1.76C57.82,25.26,57.03,26.05,57.03,27.02z"/>
	<path d="M57.03,15.61c0,0.09,0.01,2.27,0.02,2.35c0.12,0.86,0.85,1.52,1.74,1.52c0.89,0,1.62-0.65,1.75-1.5
		c0.01-0.09,0.02-2.28,0.02-2.37c0-0.97-0.79-1.76-1.77-1.76C57.82,13.84,57.03,14.63,57.03,15.61z"/>
	<circle cx="26.16" cy="26.35" r="0.5"/>
	<circle cx="49.79" cy="15.7" r="0.5"/>
	<circle cx="49.79" cy="12.7" r="0.5"/>
	<circle cx="33.64" cy="18.55" r="0.5"/>
	<circle cx="34.78" cy="17.71" r="0.5"/>
	<circle cx="35.91" cy="18.55" r="0.5"/>
	<circle cx="39.89" cy="18.55" r="0.5"/>
	<circle cx="32.5" cy="43.96" r="0.5"/>
	<circle cx="25.95" cy="17.65" r="0.5"/>
	<circle cx="16.17" cy="42.91" r="0.5"/>
	<circle cx="43.85" cy="18.55" r="0.5"/>
	<circle cx="44.98" cy="17.55" r="0.5"/>
	<circle cx="42.71" cy="17.71" r="0.5"/>
	<circle cx="46.11" cy="18.55" r="0.5"/>
	<path d="M51.57,24.8c-0.27,0-0.5-0.22-0.5-0.5c0-0.27,0.22-0.5,0.5-0.5s0.5,0.22,0.5,0.5C52.07,24.57,51.84,24.8,51.57,24.8"/>
	<circle cx="51.57" cy="26.57" r="0.5"/>
	<circle cx="50.73" cy="27.7" r="0.5"/>
	<circle cx="48.64" cy="28.51" r="0.85"/>
	<circle cx="48.64" cy="25.75" r="0.85"/>
	<circle cx="48.64" cy="31.26" r="0.85"/>
	<circle cx="48.64" cy="23" r="0.85"/>
	<path d="M50.73,25.92c-0.27,0-0.5-0.22-0.5-0.5s0.22-0.5,0.5-0.5s0.5,0.22,0.5,0.5S51,25.92,50.73,25.92"/>
	<circle cx="72.37" cy="23.11" r="0.85"/>
	<circle cx="74.37" cy="22.39" r="0.85"/>
	<circle cx="76.42" cy="21.7" r="0.85"/>
	<circle cx="79.14" cy="21.02" r="0.85"/>
	<circle cx="66.34" cy="39.4" r="0.85"/>
	<circle cx="60.82" cy="39.4" r="0.85"/>
	<circle cx="70.02" cy="41.56" r="0.85"/>
	<circle cx="71.86" cy="44.44" r="0.85"/>
	<circle cx="58.97" cy="43.71" r="0.85"/>
	<circle cx="77.78" cy="43.03" r="0.85"/>
	<circle cx="70.02" cy="39.4" r="0.85"/>
	<circle cx="83.3" cy="39.4" r="0.85"/>
	<circle cx="77.78" cy="39.4" r="0.85"/>
	<polyline class="st2" points="16.18,42.92 21.1,38 21.1,21.52 24.98,17.65 25.95,17.65 	"/>
	<path class="st2" d="M49.79,12.7l-1.12,1.12H32.93l-6.79,6.79v5.7"/>
	<path class="st2" d="M49.79,15.69l-1.13-1.13H33.27l-6.13,6.13v6.25l-0.98,0.98"/>
	<path class="st2" d="M42.79,17.63l1.08-1.08h2.86l0.53,0.53h6.34l3.26,3.26H75.1l1.38,1.38"/>
	<path class="st2" d="M44.98,17.55h1.65l0.26,0.26h6.4l3.26,3.26h16.49l1.24,1.24"/>
	<path class="st2" d="M46.11,18.55h6.85l3.25,3.25h14.85l1.31,1.31"/>
	<polyline class="st2" points="51.57,26.57 49.46,26.57 48.62,25.73 	"/>
	<polyline class="st2" points="50.73,27.7 49.4,27.7 48.65,28.45 	"/>
	<polyline class="st2" points="50.73,25.42 49.8,24.5 49.8,24.19 48.58,22.97 	"/>
	<polyline class="st2" points="51.52,24.32 53.31,22.54 69.69,22.54 71.69,24.55 75.6,24.55 79.08,21.07 	"/>
	<path class="st2" d="M39.88,18.56l0.99,0.99h2.92l2.63,2.63v14l5.36,5.36h12.41l2.19-2.19"/>
	<path class="st2" d="M43.85,18.54l3.29,3.29v14l4.97,4.97h7.29l1.36-1.36"/>
	<path class="st2" d="M35.89,18.52l1.74,1.74h5.81l2.25,2.25v14l5.75,5.75h16.78l0.7-0.7h1.23"/>
	<path class="st2" d="M78.02,43.05h-7.69l-0.66,0.66H58.88"/>
	<path class="st2" d="M34.77,17.76v1.14l2.1,2.1h6.22l1.87,1.87v13.95l7.57,7.57h4.36l0.72-0.72h1.27"/>
	<path class="st2" d="M33.64,18.53v0.68l2.51,2.51h6.58l1.5,1.5V37.1l7.99,7.99H69.9l0.66-0.66h1.06"/>
	<polyline class="st2" points="70.02,39.4 73.57,39.4 75.58,41.41 78.98,41.41 81,39.39 83.3,39.39 	"/>
	<circle cx="118.65" cy="60.62" r="0.85"/>
	<circle cx="127.08" cy="57.54" r="0.85"/>
	<circle cx="141.36" cy="60.15" r="0.85"/>
	<circle cx="149.14" cy="58.88" r="0.85"/>
	<circle cx="105.42" cy="22.66" r="0.85"/>
	<circle cx="92.23" cy="21.9" r="0.85"/>
	<circle cx="92.23" cy="27.19" r="0.85"/>
	<circle cx="57.12" cy="39.4" r="0.85"/>
	<circle cx="37.52" cy="52.32" r="0.85"/>
	<circle cx="90.23" cy="12.96" r="0.85"/>
	<circle cx="22.92" cy="12.7" r="0.5"/>
	<circle cx="34.35" cy="12.7" r="0.5"/>
	<circle cx="40.34" cy="12.7" r="0.5"/>
	<circle cx="40.34" cy="15.7" r="0.5"/>
	<circle cx="53.58" cy="29.67" r="0.5"/>
	<circle cx="43.79" cy="12.7" r="0.5"/>
	<circle cx="34.35" cy="15.7" r="0.5"/>
	<circle cx="28.36" cy="15.7" r="0.5"/>
	<circle cx="28.36" cy="12.7" r="0.5"/>
	<path d="M41.51,42.52h0.14c0,0.29,0.12,0.55,0.31,0.75v1.05l3.65,3.66H43.7l-2.5-2.5v-2.21C41.39,43.07,41.51,42.81,41.51,42.52z"
		/>
	<path d="M47.89,21.52l-1.92-1.92c0.05,0.01,0.1,0.01,0.15,0.01c0.29,0,0.56-0.12,0.76-0.32h5.77l2.49,2.49h-2.13l-1.44,1.45h-0.01
		c-0.48,0-0.89,0.33-1.01,0.78v-0.14l-0.54-0.54c0.04-0.11,0.05-0.22,0.05-0.34c0-0.78-0.63-1.41-1.41-1.41
		c-0.28,0-0.54,0.08-0.76,0.22C47.89,21.8,47.89,21.52,47.89,21.52z"/>
	<path d="M75.43,42.3h-4.2c0.13-0.21,0.21-0.47,0.21-0.74c0-0.44-0.2-0.83-0.51-1.08c0.11-0.09,0.21-0.2,0.29-0.33h2.05L75.43,42.3z
		"/>
	<path d="M91.81,41.06l-3.44,3.44c0.01-0.02,0.01-0.05,0.01-0.07c0-0.63-0.42-1.17-0.99-1.35l2.67-2.67h0.46
		c0.25,0.4,0.69,0.66,1.2,0.66C91.75,41.07,91.78,41.07,91.81,41.06z"/>
	<path d="M63.07,64.17c-0.33,0-0.65,0.04-0.95,0.13l0.37-0.37v-0.24c0.23,0.17,0.51,0.27,0.82,0.27c0.78,0,1.42-0.64,1.42-1.42
		c0-0.73-0.57-1.35-1.29-1.41l2.16-2.16c0.24,0.22,0.57,0.35,0.92,0.35c0.78,0,1.42-0.64,1.42-1.42s-0.64-1.42-1.42-1.42
		c-0.48,0-0.9,0.24-1.15,0.61h-0.2l-0.48,0.48c-0.15-0.62-0.71-1.09-1.38-1.09c-0.48,0-0.91,0.25-1.17,0.62h-0.25l-0.43,0.43
		c-0.15-0.6-0.71-1.05-1.36-1.05c-0.78,0-1.42,0.64-1.42,1.42c0,0.09,0.01,0.17,0.03,0.25l-0.52,0.51h-0.11
		c0.14-0.22,0.22-0.48,0.22-0.76c0-0.78-0.63-1.42-1.41-1.42c-0.79,0-1.42,0.64-1.42,1.42c0,0.07,0.01,0.15,0.02,0.22l-6.22,6.19
		H42.1h-1.58c-0.27-0.07-0.56-0.1-0.85-0.1c-0.29,0-0.58,0.03-0.85,0.1H36.6V53.37c0.25,0.23,0.58,0.36,0.93,0.36
		c0.69,0,1.28-0.51,1.39-1.17l2,2H52.4c-0.13,0.21-0.2,0.45-0.2,0.71c0,0.32,0,1.38,0,1.7c0,0.78,0.63,1.42,1.41,1.42
		c0.79,0,1.42-0.64,1.42-1.42c0-0.32,0-1.38,0-1.7c0-0.26-0.07-0.5-0.2-0.71h32.8l6.14-6.15c0.09,0.29,0.28,0.55,0.53,0.72v3.07
		l-4.34,4.34v0.32c-0.25-0.24-0.59-0.38-0.95-0.38c-0.78,0-1.42,0.64-1.42,1.42s0.64,1.42,1.42,1.42c0.36,0,0.7-0.14,0.95-0.38v2.56
		c-0.25-0.24-0.59-0.38-0.95-0.38c-0.78,0-1.42,0.64-1.42,1.42s0.64,1.42,1.42,1.42c0.36,0,0.7-0.14,0.95-0.38v0.73h-2.22
		c-0.25-0.05-0.51-0.08-0.78-0.08c-0.26,0-0.52,0.03-0.77,0.08h-1.62l0.52-0.52v-0.03c0.21,0.13,0.45,0.2,0.71,0.2
		c0.78,0,1.42-0.64,1.42-1.42s-0.64-1.42-1.42-1.42c-0.26,0-0.5,0.07-0.71,0.2v-1.56l0.47-0.47c0.08,0.02,0.16,0.03,0.24,0.03
		c0.78,0,1.42-0.64,1.42-1.42s-0.64-1.42-1.42-1.42s-1.42,0.64-1.42,1.42H84c0-0.78-0.63-1.42-1.41-1.42
		c-0.78,0-1.42,0.64-1.42,1.42h-0.38c0-0.78-0.63-1.42-1.42-1.42c-0.1,0-0.21,0.01-0.3,0.04l-0.71-0.72h-4.37l-0.72,0.72
		c-0.1-0.03-0.21-0.04-0.32-0.04c-0.78,0-1.42,0.64-1.42,1.42s0.64,1.42,1.42,1.42s1.42-0.64,1.42-1.42c0-0.11-0.01-0.22-0.04-0.32
		l0.27-0.28h0.28c-0.09,0.18-0.14,0.38-0.14,0.6c0,0.47,0.24,0.9,0.6,1.15v0.17l-3.94,3.94H71c0.1-0.18,0.15-0.4,0.15-0.62
		c0-0.78-0.63-1.42-1.41-1.42c-0.79,0-1.42,0.64-1.42,1.42c0,0.39,0.16,0.75,0.42,1.01l-0.76,0.76h-3.92
		C63.74,64.22,63.41,64.17,63.07,64.17z M67.94,62.54c0-0.78-0.64-1.42-1.42-1.42s-1.41,0.64-1.41,1.42s0.63,1.42,1.41,1.42
		C67.3,63.96,67.94,63.32,67.94,62.54z"/>
	<line class="st4" x1="11.88" y1="71.11" x2="30.16" y2="71.11"/>
	<line class="st4" x1="20.14" y1="80.81" x2="20.14" y2="60.9"/>
	<line class="st4" x1="145.92" y1="71.13" x2="162.09" y2="71.13"/>
	<line class="st4" x1="154.01" y1="79.89" x2="154.01" y2="62.24"/>
	<line class="st5" x1="83.29" y1="20.47" x2="83.29" y2="13.04"/>
	<line class="st5" x1="80.1" y1="16.66" x2="88.47" y2="16.66"/>
	<line class="st5" x1="55.78" y1="16.66" x2="63.2" y2="16.66"/>
	<line class="st5" x1="58.8" y1="16.66" x2="58.8" y2="12.41"/>
	<line class="st5" x1="58.8" y1="32.81" x2="58.8" y2="24.2"/>
	<line class="st5" x1="58.8" y1="28.49" x2="55.54" y2="28.49"/>
	<line class="st5" x1="83.29" y1="32.88" x2="83.29" y2="24.05"/>
	<line class="st5" x1="83.29" y1="28.49" x2="86.6" y2="28.49"/>
	<line class="st2" x1="48.64" y1="31.26" x2="48.64" y2="33.23"/>
	<line class="st2" x1="48.64" y1="31.26" x2="51.02" y2="31.26"/>
	<line class="st6" x1="18.1" y1="34.41" x2="19.1" y2="34.41"/>
	<line class="st7" x1="77.27" y1="25.79" x2="77.27" y2="27.07"/>
	<line class="st7" x1="64.88" y1="25.79" x2="64.88" y2="27.07"/>
	<line class="st8" x1="53.61" y1="55.28" x2="53.61" y2="56.98"/>
	<path d="M88.89,37.44l-7.67,7.67h-8.11c0.11-0.2,0.17-0.43,0.17-0.67c0-0.23-0.06-0.45-0.16-0.64h3.47
		c0.26,0.39,0.69,0.65,1.19,0.65c0.78,0,1.42-0.64,1.42-1.42c0-0.33-0.11-0.63-0.31-0.87h0.41l2.02-2.02h0.78
		c0.25,0.41,0.7,0.69,1.21,0.69c0.78,0,1.42-0.64,1.42-1.42s-0.64-1.42-1.42-1.42c-0.5,0-0.94,0.26-1.2,0.66H80.7l-2.02,2.02h-0.26
		c0.46-0.23,0.78-0.71,0.78-1.26c0-0.78-0.64-1.42-1.42-1.42s-1.42,0.64-1.42,1.42c0,0.55,0.32,1.03,0.78,1.26h-1.25l-2-2.01h-2.67
		c-0.25-0.4-0.69-0.67-1.19-0.67c-0.79,0-1.42,0.64-1.42,1.42c0,0.43,0.19,0.82,0.5,1.08c-0.12,0.09-0.22,0.21-0.29,0.34h-0.2
		l-0.7,0.69h-2.63l0.73-0.73c0.1,0.03,0.21,0.04,0.32,0.04c0.78,0,1.42-0.64,1.42-1.42s-0.64-1.42-1.42-1.42s-1.42,0.64-1.42,1.42
		c0,0.11,0.01,0.22,0.04,0.32l-1.07,1.07H61.1c0.65-0.13,1.13-0.71,1.13-1.39c0-0.78-0.63-1.42-1.42-1.42
		c-0.78,0-1.41,0.64-1.41,1.42c0,0.11,0.01,0.21,0.04,0.31l-0.35,0.35h-0.73c0.11-0.19,0.17-0.42,0.17-0.66
		c0-0.78-0.63-1.42-1.41-1.42s-1.42,0.64-1.42,1.42c0,0.24,0.06,0.47,0.17,0.66h-3.45l-1.22-1.22c0.1-0.04,0.2-0.11,0.28-0.19h1.11
		l1.23-1.22L88.89,37.44L88.89,37.44z"/>
	<circle cx="12.38" cy="49.89" r="0.85"/>
	<circle cx="12.38" cy="51.53" r="0.85"/>
	<circle cx="12.38" cy="53.16" r="0.85"/>
	<circle cx="12.38" cy="54.8" r="0.85"/>
	<circle cx="12.38" cy="56.43" r="0.85"/>
	<circle cx="12.37" cy="58.13" r="0.85"/>
	<circle cx="12.37" cy="59.76" r="0.85"/>
	<circle cx="12.37" cy="61.4" r="0.85"/>
	<line class="st7" x1="12.38" y1="49.89" x2="12.38" y2="61.4"/>
	<path d="M162.65,16.1c0-2.93-2.38-5.31-5.31-5.31H16.64c-2.93,0-5.32,2.38-5.32,5.31v32.85c0.25-0.29,0.63-0.48,1.06-0.48
		c0.78,0,1.41,0.64,1.41,1.42c0,0.31-0.01,11.2-0.01,11.5c0,0.78-0.63,1.41-1.41,1.41c-0.42,0-0.79-0.18-1.05-0.46v34.23h151.33
		V16.1z M149.14,57.46c0.78,0,1.42,0.63,1.42,1.41c0,0.79-0.64,1.42-1.42,1.42s-1.42-0.63-1.42-1.42
		C147.72,58.09,148.36,57.46,149.14,57.46z M145.19,21.99c1.56,0,2.84,1.27,2.84,2.83s-1.28,2.84-2.84,2.84s-2.83-1.28-2.83-2.84
		S143.63,21.99,145.19,21.99z M128.5,57.53c0,0.78-0.64,1.42-1.42,1.42s-1.42-0.64-1.42-1.42s0.64-1.41,1.42-1.41
		S128.5,56.75,128.5,57.53z M105.42,21.23c0.78,0,1.42,0.64,1.42,1.42s-0.64,1.42-1.42,1.42S104,23.43,104,22.65
		C104,21.87,104.64,21.23,105.42,21.23z M93.65,21.9c0,0.78-0.63,1.42-1.42,1.42c-0.78,0-1.41-0.64-1.41-1.42s0.63-1.42,1.41-1.42
		C93.02,20.48,93.65,21.12,93.65,21.9z M93.65,27.18c0,0.78-0.63,1.42-1.42,1.42c-0.78,0-1.41-0.64-1.41-1.42s0.63-1.41,1.41-1.41
		C93.02,25.77,93.65,26.4,93.65,27.18z M90.23,11.54c0.79,0,1.42,0.63,1.42,1.42c0,0.78-0.63,1.41-1.42,1.41
		c-0.78,0-1.41-0.63-1.41-1.41C88.82,12.17,89.45,11.54,90.23,11.54z M83.3,13.27c1.28,0,2.33,1.05,2.33,2.33
		c0,0.02,0,2.3-0.03,2.45c-0.17,1.14-1.16,1.99-2.3,1.99c-1.16,0-2.15-0.86-2.31-2.01c-0.02-0.14-0.02-2.41-0.02-2.43
		C80.97,14.32,82.01,13.27,83.3,13.27z M28.36,11.63c0.59,0,1.06,0.47,1.06,1.06s-0.47,1.06-1.06,1.06c-0.58,0-1.06-0.47-1.06-1.06
		C27.3,12.1,27.78,11.63,28.36,11.63z M28.36,14.63c0.59,0,1.06,0.47,1.06,1.06s-0.47,1.06-1.06,1.06c-0.58,0-1.06-0.47-1.06-1.06
		C27.3,15.1,27.78,14.63,28.36,14.63z M22.92,11.63c0.59,0,1.06,0.47,1.06,1.06s-0.47,1.06-1.06,1.06s-1.06-0.47-1.06-1.06
		C21.86,12.1,22.33,11.63,22.92,11.63z M19.82,14.63c0.59,0,1.07,0.47,1.07,1.06s-0.48,1.06-1.07,1.06c-0.58,0-1.06-0.47-1.06-1.06
		S19.24,14.63,19.82,14.63z M18.1,33.34c0.18,0,0.82,0,1,0c0.59,0,1.07,0.48,1.07,1.06c0,0.59-0.48,1.07-1.07,1.07
		c-0.18,0-0.82,0-1,0c-0.58,0-1.06-0.48-1.06-1.07C17.04,33.82,17.52,33.34,18.1,33.34z M16.17,41.85c0.01,0,0.01,0,0.02,0
		l4.16-4.16V21.21l4.32-4.31h0.53c0.2-0.19,0.46-0.31,0.76-0.31c0.58,0,1.06,0.47,1.06,1.06s-0.48,1.06-1.06,1.06
		c-0.28,0-0.53-0.1-0.72-0.28l-2.2,2.21c0.53,0.06,0.94,0.51,0.94,1.05c0,0.59-0.48,1.06-1.06,1.06c-0.54,0-1-0.4-1.06-0.93
		l-0.01,0.01v16.48l-4.62,4.62c-0.01,0.58-0.48,1.04-1.06,1.04s-1.06-0.47-1.06-1.06S15.59,41.85,16.17,41.85z M26.09,41.5
		c0.78,0,1.41,0.64,1.41,1.42s-0.63,1.41-1.41,1.41c-0.79,0-1.42-0.63-1.42-1.41S25.3,41.5,26.09,41.5z M22.92,28.75
		c-0.59,0-1.06-0.47-1.06-1.06c0-0.58,0.47-1.06,1.06-1.06s1.06,0.48,1.06,1.06C23.98,28.28,23.51,28.75,22.92,28.75z M23.98,30.69
		c0,0.59-0.47,1.06-1.06,1.06s-1.06-0.47-1.06-1.06c0-0.58,0.47-1.06,1.06-1.06C23.51,29.63,23.98,30.11,23.98,30.69z M22.92,25.75
		c-0.59,0-1.06-0.47-1.06-1.06c0-0.58,0.47-1.06,1.06-1.06s1.06,0.48,1.06,1.06C23.98,25.28,23.51,25.75,22.92,25.75z M20.14,78.76
		c-4.22,0-7.65-3.44-7.65-7.66c0-4.22,3.43-7.65,7.65-7.65s7.65,3.43,7.65,7.65C27.79,75.32,24.36,78.76,20.14,78.76z M137.38,70.13
		l-3.68,6.83l-0.02-0.01c-0.63,1.15-1.84,1.93-3.24,1.93c-0.5,0-0.98-0.1-1.41-0.28l-2.36,2.36c-0.27,0.26-0.62,0.41-1,0.41H41.29
		c-0.37,0-0.73-0.15-1-0.41l-7.01-7.01c-0.26-0.27-0.41-0.63-0.41-1.01v-7.71c0-0.38,0.15-0.73,0.41-1l0.49-0.48V53.01
		c0-0.78,0.63-1.42,1.41-1.42c0.38,0,0.72,0.15,0.97,0.4c0.12-0.55,0.57-0.98,1.13-1.07l-4.72-4.72v-1.12l-0.06-0.06
		c-0.59-0.01-1.06-0.48-1.06-1.06c0-0.28,0.11-0.54,0.29-0.73c-0.18-0.19-0.28-0.44-0.28-0.71c0-0.59,0.47-1.06,1.06-1.06
		c0.59,0,1.06,0.47,1.06,1.06v0.01l0.23,0.23c0.15-0.39,0.53-0.67,0.98-0.67c0.05,0,0.1,0,0.15,0.01c0.17-0.37,0.55-0.64,0.98-0.64
		c0.44,0,0.82,0.27,0.99,0.64c0.05-0.01,0.1-0.01,0.15-0.01s0.1,0,0.15,0.01c0.17-0.37,0.54-0.64,0.98-0.64s0.81,0.27,0.97,0.64
		c0.05-0.02,0.1-0.02,0.16-0.02c0.05,0,0.11,0,0.16,0.01c0.17-0.37,0.54-0.63,0.98-0.63c0.58,0,1.06,0.47,1.06,1.06h0.14
		c0-0.59,0.48-1.07,1.07-1.07c0.51,0,0.94,0.37,1.04,0.85c0.03-0.01,0.06-0.01,0.09-0.01s0.06,0,0.09,0.01
		c0.1-0.48,0.53-0.85,1.04-0.85c0.52,0,0.95,0.37,1.05,0.85c0.03-0.01,0.06-0.01,0.09-0.01c0.58,0,1.06,0.48,1.06,1.07
		c0,0.24-0.09,0.47-0.23,0.65l1.09,1.09h3.14l-7.68-7.68V23.54l-1.07-1.07h-6.58l-2.96-2.95V19.3c-0.19-0.19-0.31-0.46-0.31-0.75
		c0-0.59,0.48-1.07,1.06-1.07c0.03,0,0.07,0,0.1,0.01c0.1-0.48,0.52-0.85,1.04-0.85c0.51,0,0.94,0.37,1.04,0.85
		c0.03-0.01,0.06-0.01,0.09-0.01c0.59,0,1.07,0.48,1.07,1.07l0.97,0.97h1.51c-0.37-0.17-0.63-0.54-0.63-0.97
		c0-0.59,0.48-1.07,1.06-1.07c0.59,0,1.06,0.48,1.06,1.07c0,0.01,0,0.01,0,0.02l0.23,0.23l0.6-0.6c-0.09-0.14-0.13-0.31-0.13-0.49
		c0-0.59,0.48-1.07,1.07-1.07l0.84-0.83h3.47l0.53,0.53h1.4c-0.15-0.18-0.23-0.4-0.23-0.65v-0.01l-0.38-0.38h-7.01
		c0.04,0.12,0.07,0.25,0.07,0.39c0,0.59-0.48,1.06-1.06,1.06c-0.59,0-1.07-0.47-1.07-1.06c0-0.14,0.03-0.27,0.07-0.39h-5.77
		L27.89,21v6.24l-0.66,0.66v0.01c0,0.58-0.48,1.06-1.06,1.06c-0.59,0-1.07-0.48-1.07-1.06c0-0.31,0.14-0.59,0.35-0.78
		c-0.21-0.19-0.35-0.47-0.35-0.78c0-0.29,0.12-0.55,0.3-0.74v-5.32l7.22-7.22h6.73c-0.05-0.12-0.07-0.25-0.07-0.38
		c0-0.59,0.48-1.06,1.07-1.06c0.58,0,1.06,0.47,1.06,1.06c0,0.13-0.02,0.26-0.07,0.38h7.02l0.37-0.37v-0.01
		c0-0.59,0.47-1.06,1.06-1.06s1.06,0.47,1.06,1.06c0,0.59-0.47,1.06-1.06,1.06l-0.44,0.44l0.44,0.44c0.59,0,1.06,0.47,1.06,1.06
		c0,0.25-0.08,0.47-0.23,0.65h3.29l3.26,3.26h0.28c-0.51-0.35-0.87-0.91-0.96-1.57c-0.02-0.14-0.02-2.41-0.02-2.43
		c0-1.28,1.04-2.33,2.33-2.33s2.33,1.05,2.33,2.33c0,0.02,0,2.29-0.02,2.45c-0.1,0.65-0.46,1.21-0.97,1.55h15.27l0.71,0.71
		c0.1-0.02,0.2-0.03,0.3-0.03c0.59,0,1.09,0.36,1.31,0.87c-0.01-0.04-0.01-0.09-0.01-0.14c0-0.78,0.64-1.41,1.42-1.41
		s1.42,0.63,1.42,1.41s-0.64,1.42-1.42,1.42c-0.11,0-0.22-0.01-0.33-0.04l-2.09,2.09c0.17-0.07,0.35-0.11,0.55-0.11
		c0.47,0,0.89,0.23,1.15,0.59c0.26-0.11,0.55-0.17,0.85-0.17c0.84,0,1.57,0.46,1.97,1.14c0.39-0.74,1.17-1.24,2.06-1.24
		c1.28,0,2.33,1.04,2.33,2.33c0,0.03,0,3.13-0.03,3.28c-0.17,1.14-1.16,1.99-2.3,1.99c-1.16,0-2.15-0.86-2.31-2.01
		c-0.01-0.07-0.02-0.92-0.02-1.73c-0.41,0.48-1.02,0.78-1.7,0.78c-0.72,0-1.37-0.34-1.78-0.87c-0.07,0.01-0.15,0.02-0.22,0.02
		c-0.78,0-1.42-0.64-1.42-1.42c0-0.23,0-1.04,0-1.27c0-0.2,0.04-0.38,0.11-0.55l-0.05,0.05h-4.53l-2-2.01H53.63l-0.99,0.99
		c0,0.01,0,0.01,0,0.02c0,0.52-0.37,0.95-0.86,1.05c0.01,0.03,0.01,0.05,0.01,0.08s0,0.07-0.01,0.1c0.49,0.1,0.86,0.53,0.86,1.04
		c0,0.52-0.37,0.95-0.86,1.05c0.01,0.03,0.01,0.06,0.01,0.09c0,0.58-0.47,1.06-1.06,1.06c-0.25,0-0.49-0.09-0.67-0.25
		c0,0.68-0.47,1.24-1.1,1.37c0.63,0.14,1.1,0.71,1.1,1.38c0,0.78-0.63,1.42-1.41,1.42c-0.28,0-0.54-0.08-0.76-0.22v3.06l1.9,1.9
		c0.14-0.28,0.41-0.49,0.73-0.56c-0.01-0.03-0.01-0.06-0.01-0.09s0-0.06,0.01-0.09c-0.48-0.1-0.85-0.53-0.85-1.05
		c0-0.51,0.37-0.94,0.85-1.04c-0.01-0.03-0.01-0.06-0.01-0.09c0-0.59,0.48-1.06,1.06-1.06c0.3,0,0.56,0.12,0.76,0.31h55.34
		l4.16-4.15h5.73c-0.01-0.03-0.01-0.07-0.01-0.11c0-0.51,0.26-0.95,0.65-1.19c-0.4-0.25-0.67-0.7-0.67-1.21
		c0-0.78,0.63-1.42,1.41-1.42c0.79,0,1.42,0.64,1.42,1.42c0,0.11-0.01,0.22-0.04,0.33l0.83,0.83v2.27l-0.79,0.79l1.57,1.58V47
		l-1.61,1.61c0.03,0.1,0.04,0.2,0.04,0.31c0,0.78-0.63,1.42-1.42,1.42c-0.78,0-1.41-0.64-1.41-1.42s0.63-1.42,1.41-1.42v-0.28
		c-0.78,0-1.41-0.64-1.41-1.42s0.63-1.42,1.41-1.42c0.11,0,0.22,0.01,0.33,0.04l0.38-0.38v-7.5c-0.04,0.74-0.66,1.32-1.41,1.32
		c-0.78,0-1.42-0.63-1.42-1.41c0-0.7,0.5-1.27,1.15-1.39c-0.27-0.26-0.44-0.62-0.44-1.02c0-0.02,0-0.05,0.01-0.07h-3.82l-1.12,1.12
		c0.61,0.14,1.06,0.7,1.06,1.36c0,0.78-0.64,1.41-1.42,1.41v0.29c0.78,0,1.42,0.63,1.42,1.41c0,0.79-0.64,1.42-1.42,1.42
		c-0.54,0-1.01-0.3-1.25-0.75c-0.25,0.36-0.67,0.59-1.14,0.59c-0.17,0-0.33-0.03-0.47-0.09c-0.14,0.62-0.7,1.09-1.37,1.09
		c-0.17,0-0.33-0.03-0.48-0.09c-0.14,0.62-0.69,1.09-1.36,1.09c-0.17,0-0.33-0.03-0.48-0.09c-0.14,0.62-0.7,1.09-1.37,1.09
		c-0.17,0-0.33-0.03-0.47-0.09c-0.14,0.62-0.7,1.09-1.37,1.09c-0.17,0-0.33-0.03-0.48-0.09c-0.14,0.62-0.69,1.09-1.36,1.09
		c-0.17,0-0.33-0.03-0.48-0.09c-0.09,0.42-0.38,0.77-0.76,0.96c0.48,0.22,0.81,0.72,0.81,1.28c0,0.48-0.24,0.9-0.6,1.16v4.36
		l-1.6,1.6v1.55c0.19-0.1,0.41-0.16,0.64-0.16c0.78,0,1.42,0.64,1.42,1.42h0.38c0-0.78,0.63-1.42,1.41-1.42
		c0.78,0,1.42,0.64,1.42,1.42h0.38c0-0.78,0.64-1.42,1.42-1.42s1.41,0.64,1.41,1.42c0,0.06,0,0.12-0.02,0.17l1.23,1.23h5.7
		l2.96,2.95v2.06h1.6c0.17-0.03,0.34-0.04,0.52-0.04s0.35,0.01,0.52,0.04h6.93c0.17-0.03,0.34-0.04,0.52-0.04s0.35,0.01,0.52,0.04
		h7.42c2.02,0,3.68,1.65,3.68,3.68C138.07,68.79,137.81,69.53,137.38,70.13z M66.3,25.79c0,0.23,0,1.04,0,1.27
		c0,0.78-0.63,1.42-1.41,1.42c-0.07,0-0.15-0.01-0.22-0.02c-0.41,0.53-1.06,0.87-1.78,0.87c-0.71,0-1.34-0.33-1.76-0.84
		c0,0.83-0.01,1.73-0.02,1.81c-0.17,1.14-1.16,1.99-2.31,1.99c-1.16,0-2.15-0.86-2.31-2.01c-0.02-0.14-0.02-3.23-0.02-3.26
		c0-1.29,1.04-2.33,2.33-2.33c0.92,0,1.7,0.52,2.09,1.29c0.39-0.71,1.14-1.19,2-1.19c0.3,0,0.59,0.06,0.85,0.17
		c0.26-0.36,0.68-0.59,1.15-0.59C65.67,24.37,66.3,25.01,66.3,25.79z M54.64,29.67c0,0.58-0.47,1.06-1.06,1.06s-1.06-0.48-1.06-1.06
		c0-0.59,0.47-1.07,1.06-1.07S54.64,29.08,54.64,29.67z M120.07,60.62c0,0.78-0.63,1.42-1.41,1.42c-0.79,0-1.42-0.64-1.42-1.42
		s0.63-1.42,1.42-1.42C119.44,59.2,120.07,59.84,120.07,60.62z M141.36,61.56c-0.78,0-1.42-0.63-1.42-1.42
		c0-0.78,0.64-1.41,1.42-1.41s1.42,0.63,1.42,1.41C142.78,60.93,142.14,61.56,141.36,61.56z M142.36,47.36
		c0-1.56,1.27-2.83,2.83-2.83s2.84,1.27,2.84,2.83c0,1.57-1.28,2.84-2.84,2.84S142.36,48.93,142.36,47.36z M161.67,71.12
		c0,4.22-3.44,7.66-7.66,7.66s-7.65-3.44-7.65-7.66s3.43-7.65,7.65-7.65C158.23,63.47,161.67,66.9,161.67,71.12z"/>
	<circle cx="26.09" cy="42.91" r="0.85"/>
</g>
</svg>
