<?xml version="1.0" encoding="utf-8"?>
<!-- Generator: Adobe Illustrator 27.0.0, SVG Export Plug-In . SVG Version: 6.00 Build 0)  -->
<svg version="1.1" id="Calque_1" xmlns="http://www.w3.org/2000/svg" xmlns:xlink="http://www.w3.org/1999/xlink" x="0px" y="0px"
	 viewBox="0 0 172.88 106.64" style="enable-background:new 0 0 172.88 106.64;" xml:space="preserve">
<style type="text/css">
	.st0{fill:none;stroke:#000000;stroke-width:0.1;stroke-miterlimit:10;}
	.st1{fill:none;stroke:#000000;stroke-width:1.7;stroke-linecap:round;stroke-linejoin:round;}
	.st2{fill:none;stroke:#000000;stroke-linecap:round;stroke-linejoin:round;}
	.st3{fill:none;stroke:#000000;stroke-width:1.7;}
	.st4{fill:none;stroke:#000000;stroke-width:0.98;}
</style>
<path class="st0" d="M164.07,97.99H9.9V16.11c0-3.71,3.01-6.73,6.73-6.73h140.7c3.71,0,6.73,3.01,6.73,6.73v81.88H164.07z"/>
<g>
	<polyline class="st1" points="53.61,56.98 53.61,39.93 64.92,28.62 77.27,28.62 77.27,25.79 	"/>
	<line class="st1" x1="64.88" y1="25.79" x2="64.88" y2="28.62"/>
	<polyline class="st2" points="22.92,24.7 24.51,26.29 24.51,30.55 31.99,38.04 45.65,38.04 46.27,37.42 46.27,33.35 49.95,29.68 
		53.58,29.68 	"/>
	<path d="M45,24c0.16,0,0.28,0.13,0.28,0.28v12.5c0,0.16-0.13,0.28-0.28,0.28H32.5c-0.16,0-0.28-0.13-0.28-0.28v-12.5
		c0-0.16,0.13-0.28,0.28-0.28C32.5,24,45,24,45,24z"/>
	<line class="st2" x1="22.92" y1="30.7" x2="24.51" y2="30.7"/>
	<circle cx="104.32" cy="27.94" r="0.85"/>
	<circle cx="100.63" cy="27.94" r="0.85"/>
	<circle cx="100.63" cy="18.07" r="0.85"/>
	<circle cx="95.11" cy="18.07" r="0.85"/>
	<circle cx="112.38" cy="11.91" r="0.85"/>
	<circle cx="122.38" cy="11.91" r="0.85"/>
	<circle cx="132.38" cy="11.91" r="0.85"/>
	<circle cx="152.38" cy="11.91" r="0.85"/>
	<circle cx="161.38" cy="26.97" r="0.85"/>
	<circle cx="161.38" cy="36.97" r="0.85"/>
	<circle cx="161.38" cy="46.97" r="0.85"/>
	<circle cx="161.38" cy="85.4" r="0.85"/>
	<circle cx="161.38" cy="95.4" r="0.85"/>
	<circle cx="152.38" cy="95.4" r="0.85"/>
	<circle cx="142.38" cy="95.4" r="0.85"/>
	<circle cx="132.38" cy="95.4" r="0.85"/>
	<circle cx="122.38" cy="95.4" r="0.85"/>
	<circle cx="112.38" cy="95.4" r="0.85"/>
	<circle cx="102.38" cy="95.4" r="0.85"/>
	<circle cx="92.38" cy="95.4" r="0.85"/>
	<circle cx="82.38" cy="95.4" r="0.85"/>
	<circle cx="72.38" cy="95.4" r="0.85"/>
	<circle cx="62.38" cy="95.4" r="0.85"/>
	<circle cx="52.37" cy="95.4" r="0.85"/>
	<circle cx="42.37" cy="95.4" r="0.85"/>
	<circle cx="32.37" cy="95.4" r="0.85"/>
	<circle cx="22.37" cy="95.4" r="0.85"/>
	<circle cx="12.37" cy="95.4" r="0.85"/>
	<circle cx="12.37" cy="84.97" r="0.85"/>
	<circle cx="18.09" cy="58.13" r="0.85"/>
	<circle cx="18.09" cy="59.76" r="0.85"/>
	<circle cx="18.09" cy="61.4" r="0.85"/>
	<circle cx="22.63" cy="58.13" r="0.85"/>
	<circle cx="22.63" cy="59.76" r="0.85"/>
	<circle cx="22.63" cy="61.4" r="0.85"/>
	<circle cx="38.37" cy="56.62" r="0.85"/>
	<circle cx="38.37" cy="62.9" r="0.85"/>
	<circle cx="28.37" cy="40.53" r="0.85"/>
	<circle cx="18.09" cy="19.77" r="0.85"/>
	<circle cx="12.37" cy="18.01" r="0.85"/>
	<circle cx="12.37" cy="28.43" r="0.85"/>
	<circle cx="12.37" cy="44.97" r="0.85"/>
	<circle cx="18.18" cy="11.91" r="0.85"/>
	<circle cx="50.84" cy="21.18" r="0.85"/>
	<circle cx="60.68" cy="11.91" r="0.85"/>
	<circle cx="70.68" cy="11.91" r="0.85"/>
	<circle cx="80.68" cy="11.91" r="0.85"/>
	<circle cx="83.3" cy="41.83" r="0.85"/>
	<circle cx="91.08" cy="53.21" r="0.85"/>
	<circle cx="79.7" cy="44.24" r="0.85"/>
	<circle cx="72.28" cy="41.56" r="0.85"/>
	<circle cx="95.11" cy="47.97" r="0.85"/>
	<circle cx="96.95" cy="49.28" r="0.85"/>
	<circle cx="98.79" cy="47.97" r="0.85"/>
	<circle cx="109.85" cy="49.28" r="0.85"/>
	<circle cx="101.86" cy="57.9" r="0.85"/>
	<circle cx="98.65" cy="57.9" r="0.85"/>
	<circle cx="95.43" cy="57.9" r="0.85"/>
	<circle cx="92.22" cy="57.9" r="0.85"/>
	<circle cx="89.01" cy="57.9" r="0.85"/>
	<circle cx="85.8" cy="57.9" r="0.85"/>
	<circle cx="82.58" cy="57.9" r="0.85"/>
	<circle cx="79.37" cy="57.9" r="0.85"/>
	<circle cx="66.52" cy="57.9" r="0.85"/>
	<circle cx="63.31" cy="57.9" r="0.85"/>
	<circle cx="60.09" cy="57.9" r="0.85"/>
	<circle cx="56.88" cy="57.9" r="0.85"/>
	<circle cx="79.37" cy="62.54" r="0.85"/>
	<circle cx="85.15" cy="45.63" r="0.85"/>
	<circle cx="64.88" cy="27.07" r="0.85"/>
	<circle cx="77.27" cy="27.07" r="0.85"/>
	<circle cx="64.88" cy="25.79" r="0.85"/>
	<circle cx="77.27" cy="25.79" r="0.85"/>
	<circle cx="105.07" cy="57.9" r="0.85"/>
	<circle cx="35.18" cy="55.99" r="0.85"/>
	<circle cx="112.24" cy="42.69" r="0.85"/>
	<circle cx="118.24" cy="42.69" r="0.85"/>
	<circle cx="76.16" cy="57.9" r="0.85"/>
	<circle cx="72.95" cy="57.9" r="0.85"/>
	<circle cx="109.85" cy="39.4" r="0.85"/>
	<circle cx="108" cy="40.4" r="0.85"/>
	<circle cx="106.16" cy="41.4" r="0.85"/>
	<circle cx="104.32" cy="42.41" r="0.85"/>
	<circle cx="102.48" cy="43.41" r="0.85"/>
	<circle cx="100.63" cy="44.41" r="0.85"/>
	<circle cx="98.79" cy="45.41" r="0.85"/>
	<circle cx="96.95" cy="46.41" r="0.85"/>
	<circle cx="35.18" cy="53.01" r="0.85"/>
	<circle cx="53.61" cy="56.98" r="0.85"/>
	<circle cx="53.61" cy="55.28" r="0.85"/>
	<circle cx="86.96" cy="44.43" r="0.85"/>
	<circle cx="91.71" cy="39.65" r="0.85"/>
	<circle cx="112.24" cy="39.57" r="0.85"/>
	<circle cx="118.94" cy="34.04" r="0.85"/>
	<circle cx="118.96" cy="29.49" r="0.85"/>
	<circle cx="118.94" cy="27.1" r="0.85"/>
	<circle cx="118.94" cy="45.8" r="0.85"/>
	<circle cx="118.94" cy="48.92" r="0.85"/>
	<circle cx="26.16" cy="27.91" r="0.5"/>
	<circle cx="50.73" cy="33.37" r="0.5"/>
	<circle cx="51.57" cy="34.5" r="0.5"/>
	<circle cx="50.73" cy="35.64" r="0.5"/>
	<circle cx="51.57" cy="36.77" r="0.5"/>
	<circle cx="50.73" cy="37.91" r="0.5"/>
	<circle cx="46.11" cy="43.36" r="0.5"/>
	<circle cx="44.98" cy="42.52" r="0.5"/>
	<circle cx="43.85" cy="43.36" r="0.5"/>
	<circle cx="42.71" cy="42.52" r="0.5"/>
	<circle cx="16.03" cy="38.66" r="0.5"/>
	<circle cx="17.03" cy="38.66" r="0.5"/>
	<circle cx="19.72" cy="42.91" r="0.5"/>
	<circle cx="19.27" cy="46.3" r="0.5"/>
	<circle cx="22.92" cy="30.7" r="0.5"/>
	<circle cx="22.92" cy="24.7" r="0.5"/>
	<circle cx="39.31" cy="43.15" r="0.5"/>
	<circle cx="40.44" cy="42.52" r="0.5"/>
	<circle cx="37.04" cy="43.16" r="0.5"/>
	<circle cx="38.18" cy="42.53" r="0.5"/>
	<circle cx="34.78" cy="43.16" r="0.5"/>
	<circle cx="35.91" cy="42.53" r="0.5"/>
	<circle cx="32.51" cy="42.52" r="0.5"/>
	<path d="M79.86,75.09c0-1.72,1.39-3.12,3.11-3.12s3.11,1.39,3.11,3.12c0,1.72-1.39,3.11-3.11,3.11
		C81.26,78.21,79.86,76.81,79.86,75.09z"/>
	<path d="M87.56,75.09c0-1.72,1.39-3.12,3.11-3.12s3.11,1.39,3.11,3.12c0,1.72-1.39,3.11-3.11,3.11
		C88.95,78.21,87.56,76.81,87.56,75.09z"/>
	<circle cx="98.64" cy="75.13" r="3.11"/>
	<path d="M103.46,75.13c0-1.72,1.39-3.11,3.12-3.11c1.72,0,3.11,1.39,3.11,3.11s-1.39,3.11-3.11,3.11
		C104.85,78.24,103.46,76.85,103.46,75.13z"/>
	<path d="M75.98,67.91c0-1.72,1.39-3.12,3.11-3.12s3.11,1.39,3.11,3.12c0,1.72-1.39,3.11-3.11,3.11
		C77.37,71.02,75.98,69.63,75.98,67.91z"/>
	<path d="M83.84,67.91c0-1.72,1.39-3.12,3.12-3.12c1.72,0,3.11,1.39,3.11,3.12c0,1.72-1.39,3.11-3.11,3.11
		C85.24,71.02,83.84,69.63,83.84,67.91z"/>
	<path d="M91.5,67.88c0-1.72,1.39-3.12,3.11-3.12s3.12,1.39,3.12,3.12c0,1.72-1.4,3.11-3.12,3.11C92.9,70.99,91.5,69.6,91.5,67.88z"
		/>
	<path d="M99.47,67.88c0-1.72,1.39-3.12,3.12-3.12c1.72,0,3.11,1.39,3.11,3.12c0,1.72-1.39,3.11-3.11,3.11S99.47,69.6,99.47,67.88z"
		/>
	<path d="M107.41,67.91c0-1.72,1.39-3.12,3.11-3.12s3.11,1.39,3.11,3.12c0,1.72-1.39,3.11-3.11,3.11
		C108.8,71.02,107.41,69.63,107.41,67.91z"/>
	<path d="M111.42,75.18c0-1.72,1.39-3.12,3.11-3.12s3.11,1.39,3.11,3.12c0,1.72-1.39,3.11-3.11,3.11S111.42,76.89,111.42,75.18z"/>
	<circle cx="122.5" cy="75.21" r="3.11"/>
	<path d="M127.32,75.21c0-1.72,1.39-3.11,3.12-3.11c1.72,0,3.11,1.39,3.11,3.11s-1.39,3.11-3.11,3.11
		C128.71,78.32,127.32,76.93,127.32,75.21z"/>
	<path d="M115.36,67.96c0-1.72,1.39-3.12,3.11-3.12s3.12,1.39,3.12,3.12c0,1.72-1.4,3.11-3.12,3.11
		C116.76,71.07,115.36,69.68,115.36,67.96z"/>
	<path d="M123.33,67.96c0-1.72,1.39-3.12,3.12-3.12c1.72,0,3.11,1.39,3.11,3.12c0,1.72-1.39,3.11-3.11,3.11
		C124.73,71.07,123.33,69.68,123.33,67.96z"/>
	<path d="M131.27,67.99c0-1.72,1.39-3.12,3.11-3.12s3.11,1.39,3.11,3.12c0,1.72-1.39,3.11-3.11,3.11S131.27,69.71,131.27,67.99z"/>
	<circle cx="154.01" cy="71.13" r="7.09"/>
	<path d="M48.31,75.07c0-1.72,1.39-3.12,3.11-3.12s3.11,1.39,3.11,3.12c0,1.72-1.39,3.11-3.11,3.11
		C49.71,78.18,48.31,76.79,48.31,75.07z"/>
	<path d="M56.01,75.07c0-1.72,1.39-3.12,3.11-3.12s3.11,1.39,3.11,3.12c0,1.72-1.39,3.11-3.11,3.11
		C57.4,78.18,56.01,76.79,56.01,75.07z"/>
	<circle cx="67.09" cy="75.1" r="3.11"/>
	<path d="M71.91,75.1c0-1.72,1.39-3.11,3.12-3.11c1.72,0,3.11,1.39,3.11,3.11s-1.39,3.11-3.11,3.11
		C73.31,78.22,71.91,76.82,71.91,75.1z"/>
	<path d="M44.43,67.89c0-1.72,1.39-3.12,3.11-3.12s3.11,1.39,3.11,3.12c0,1.72-1.39,3.11-3.11,3.11S44.43,69.6,44.43,67.89z"/>
	<path d="M52.29,67.89c0-1.72,1.39-3.12,3.12-3.12c1.72,0,3.11,1.39,3.11,3.12c0,1.72-1.39,3.11-3.11,3.11S52.29,69.6,52.29,67.89z"
		/>
	<path d="M59.96,67.85c0-1.72,1.39-3.12,3.11-3.12s3.12,1.39,3.12,3.12c0,1.72-1.4,3.11-3.12,3.11
		C61.35,70.97,59.96,69.57,59.96,67.85z"/>
	<path d="M67.93,67.85c0-1.72,1.39-3.12,3.12-3.12c1.72,0,3.11,1.39,3.11,3.12c0,1.72-1.39,3.11-3.11,3.11
		C69.32,70.97,67.93,69.57,67.93,67.85z"/>
	<path d="M40.44,75.07c0-1.72,1.39-3.12,3.11-3.12s3.11,1.39,3.11,3.12c0,1.72-1.39,3.11-3.11,3.11
		C41.84,78.19,40.44,76.79,40.44,75.07z"/>
	<path d="M36.56,67.89c0-1.72,1.39-3.12,3.11-3.12s3.11,1.39,3.11,3.12c0,1.72-1.39,3.11-3.11,3.11S36.56,69.61,36.56,67.89z"/>
	<circle cx="20.14" cy="71.11" r="7.09"/>
	<path d="M81.53,27.02c0,0.09,0.01,3.11,0.02,3.19c0.12,0.86,0.85,1.52,1.74,1.52s1.62-0.65,1.75-1.5c0.01-0.09,0.02-3.11,0.02-3.2
		c0-0.97-0.79-1.76-1.77-1.76C82.32,25.26,81.53,26.05,81.53,27.02z"/>
	<path d="M81.53,15.61c0,0.09,0.01,2.27,0.02,2.35c0.12,0.86,0.85,1.52,1.74,1.52s1.62-0.65,1.75-1.5c0.01-0.09,0.02-2.28,0.02-2.37
		c0-0.97-0.79-1.76-1.77-1.76C82.32,13.84,81.53,14.63,81.53,15.61z"/>
	<path d="M57.03,27.02c0,0.09,0.01,3.11,0.02,3.19c0.12,0.86,0.85,1.52,1.74,1.52c0.89,0,1.62-0.65,1.75-1.5
		c0.01-0.09,0.02-3.11,0.02-3.2c0-0.97-0.79-1.76-1.77-1.76C57.82,25.26,57.03,26.05,57.03,27.02z"/>
	<path d="M57.03,15.61c0,0.09,0.01,2.27,0.02,2.35c0.12,0.86,0.85,1.52,1.74,1.52c0.89,0,1.62-0.65,1.75-1.5
		c0.01-0.09,0.02-2.28,0.02-2.37c0-0.97-0.79-1.76-1.77-1.76C57.82,13.84,57.03,14.63,57.03,15.61z"/>
	<circle cx="26.16" cy="26.35" r="0.5"/>
	<circle cx="49.79" cy="15.7" r="0.5"/>
	<circle cx="49.79" cy="12.7" r="0.5"/>
	<circle cx="33.64" cy="18.55" r="0.5"/>
	<circle cx="34.78" cy="17.71" r="0.5"/>
	<circle cx="35.91" cy="18.55" r="0.5"/>
	<circle cx="39.89" cy="18.55" r="0.5"/>
	<circle cx="32.5" cy="43.96" r="0.5"/>
	<circle cx="25.95" cy="17.65" r="0.5"/>
	<circle cx="16.17" cy="42.91" r="0.5"/>
	<circle cx="43.85" cy="18.55" r="0.5"/>
	<circle cx="44.98" cy="17.55" r="0.5"/>
	<circle cx="42.71" cy="17.71" r="0.5"/>
	<circle cx="46.11" cy="18.55" r="0.5"/>
	<path d="M51.57,24.8c-0.27,0-0.5-0.22-0.5-0.5c0-0.27,0.22-0.5,0.5-0.5s0.5,0.22,0.5,0.5C52.07,24.57,51.84,24.8,51.57,24.8"/>
	<circle cx="51.57" cy="26.57" r="0.5"/>
	<circle cx="50.73" cy="27.7" r="0.5"/>
	<path d="M50.73,25.92c-0.27,0-0.5-0.22-0.5-0.5s0.22-0.5,0.5-0.5s0.5,0.22,0.5,0.5S51,25.92,50.73,25.92"/>
	<circle cx="72.37" cy="23.11" r="0.85"/>
	<circle cx="74.37" cy="22.39" r="0.85"/>
	<circle cx="76.42" cy="21.7" r="0.85"/>
	<circle cx="79.14" cy="21.02" r="0.85"/>
	<circle cx="66.34" cy="39.4" r="0.85"/>
	<circle cx="60.82" cy="39.4" r="0.85"/>
	<circle cx="70.02" cy="41.56" r="0.85"/>
	<circle cx="71.86" cy="44.44" r="0.85"/>
	<circle cx="58.96" cy="43.71" r="0.85"/>
	<circle cx="77.78" cy="43.03" r="0.85"/>
	<circle cx="70.02" cy="39.4" r="0.85"/>
	<circle cx="83.3" cy="39.4" r="0.85"/>
	<circle cx="34.35" cy="12.7" r="0.5"/>
	<circle cx="43.79" cy="12.7" r="0.5"/>
	<circle cx="53.58" cy="29.67" r="0.5"/>
	<circle cx="34.35" cy="15.7" r="0.5"/>
	<circle cx="88.41" cy="28.66" r="0.5"/>
	<path d="M88.41,14.65c0.27,0,0.5,0.22,0.5,0.5s-0.22,0.5-0.5,0.5c-0.27,0-0.5-0.22-0.5-0.5S88.13,14.65,88.41,14.65z"/>
	<circle cx="95.07" cy="27.19" r="0.85"/>
	<circle cx="51.76" cy="31.03" r="0.5"/>
	<line class="st3" x1="22.63" y1="58.13" x2="22.63" y2="61.4"/>
	<line class="st3" x1="18.09" y1="58.13" x2="18.09" y2="61.4"/>
	<line class="st4" x1="17.03" y1="38.66" x2="16.03" y2="38.66"/>
	<circle cx="57.12" cy="39.4" r="0.85"/>
	<path d="M161.38,83.97c0.56,0,1.04,0.32,1.27,0.79V47.59c-0.23,0.47-0.71,0.79-1.27,0.79c-0.78,0-1.42-0.64-1.42-1.42
		s0.64-1.42,1.42-1.42c0.56,0,1.03,0.33,1.27,0.79v-8.75c-0.23,0.47-0.71,0.79-1.27,0.79c-0.78,0-1.42-0.64-1.42-1.42
		s0.64-1.42,1.42-1.42c0.56,0,1.03,0.32,1.27,0.79v-8.75c-0.23,0.47-0.71,0.79-1.27,0.79c-0.78,0-1.42-0.64-1.42-1.42
		s0.64-1.42,1.42-1.42c0.56,0,1.03,0.32,1.27,0.79V16.09c0-2.93-2.38-5.31-5.31-5.31h-4.1c0.34,0.25,0.56,0.66,0.56,1.12
		c0,0.78-0.64,1.42-1.42,1.42s-1.42-0.64-1.42-1.42c0-0.46,0.22-0.87,0.56-1.12h-18.28c0.34,0.25,0.56,0.66,0.56,1.12
		c0,0.78-0.64,1.42-1.42,1.42s-1.42-0.64-1.42-1.42c0-0.46,0.22-0.87,0.56-1.12h-8.28c0.34,0.25,0.56,0.66,0.56,1.12
		c0,0.78-0.64,1.42-1.42,1.42s-1.42-0.64-1.42-1.42c0-0.46,0.22-0.87,0.56-1.12h-8.28c0.34,0.25,0.56,0.66,0.56,1.12
		c0,0.78-0.64,1.42-1.42,1.42s-1.42-0.64-1.42-1.42c0-0.46,0.22-0.87,0.56-1.12H81.54c0.34,0.26,0.55,0.66,0.55,1.12
		c0,0.78-0.63,1.42-1.41,1.42c-0.78,0-1.42-0.64-1.42-1.42c0-0.46,0.22-0.87,0.56-1.12h-8.28c0.34,0.26,0.55,0.66,0.55,1.12
		c0,0.78-0.63,1.42-1.41,1.42c-0.78,0-1.42-0.64-1.42-1.42c0-0.46,0.22-0.87,0.56-1.12h-8.28c0.34,0.26,0.55,0.66,0.55,1.12
		c0,0.78-0.63,1.42-1.41,1.42c-0.79,0-1.42-0.64-1.42-1.42c0-0.46,0.21-0.86,0.55-1.12H19.04c0.34,0.25,0.56,0.66,0.56,1.12
		c0,0.78-0.64,1.42-1.42,1.42s-1.41-0.64-1.41-1.42c0-0.46,0.21-0.86,0.55-1.12h-0.69c-2.93,0-5.31,2.38-5.31,5.31v0.96
		c0.25-0.29,0.63-0.47,1.05-0.47c0.78,0,1.42,0.63,1.42,1.41s-0.64,1.42-1.42,1.42c-0.42,0-0.8-0.19-1.05-0.48v8.55
		c0.25-0.29,0.63-0.48,1.05-0.48c0.78,0,1.42,0.64,1.42,1.42s-0.64,1.42-1.42,1.42c-0.42,0-0.8-0.19-1.05-0.48v14.65
		c0.25-0.29,0.63-0.47,1.05-0.47c0.78,0,1.42,0.63,1.42,1.42c0,0.78-0.64,1.41-1.42,1.41c-0.42,0-0.8-0.18-1.05-0.47v38.12
		c0.25-0.29,0.63-0.48,1.05-0.48c0.78,0,1.42,0.64,1.42,1.42s-0.64,1.42-1.42,1.42c-0.42,0-0.8-0.19-1.05-0.48v8.54
		c0.25-0.29,0.63-0.47,1.05-0.47c0.78,0,1.42,0.63,1.42,1.41c0,0.49-0.25,0.92-0.63,1.18h8.42c-0.37-0.26-0.62-0.69-0.62-1.18
		c0-0.78,0.63-1.41,1.41-1.41s1.42,0.63,1.42,1.41c0,0.49-0.25,0.92-0.63,1.18h8.42c-0.37-0.26-0.62-0.69-0.62-1.18
		c0-0.78,0.63-1.41,1.41-1.41c0.78,0,1.42,0.63,1.42,1.41c0,0.49-0.25,0.92-0.63,1.18h8.42c-0.37-0.26-0.62-0.69-0.62-1.18
		c0-0.78,0.63-1.41,1.41-1.41c0.79,0,1.42,0.63,1.42,1.41c0,0.49-0.25,0.92-0.62,1.18h8.41c-0.37-0.26-0.62-0.69-0.62-1.18
		c0-0.78,0.63-1.41,1.41-1.41c0.79,0,1.42,0.63,1.42,1.41c0,0.49-0.25,0.92-0.62,1.18h8.41c-0.37-0.26-0.62-0.69-0.62-1.18
		c0-0.78,0.63-1.41,1.42-1.41c0.78,0,1.41,0.63,1.41,1.41c0,0.49-0.25,0.92-0.62,1.18h8.41c-0.37-0.26-0.62-0.69-0.62-1.18
		c0-0.78,0.63-1.41,1.42-1.41c0.78,0,1.41,0.63,1.41,1.41c0,0.49-0.25,0.92-0.62,1.18h8.41c-0.37-0.26-0.62-0.69-0.62-1.18
		c0-0.78,0.63-1.41,1.42-1.41c0.78,0,1.41,0.63,1.41,1.41c0,0.49-0.25,0.92-0.62,1.18h8.42c-0.38-0.26-0.63-0.69-0.63-1.18
		c0-0.78,0.64-1.41,1.42-1.41s1.41,0.63,1.41,1.41c0,0.49-0.25,0.92-0.62,1.18h8.42c-0.38-0.26-0.63-0.69-0.63-1.18
		c0-0.78,0.64-1.41,1.42-1.41s1.42,0.63,1.42,1.41c0,0.49-0.25,0.92-0.63,1.18h8.42c-0.38-0.26-0.63-0.69-0.63-1.18
		c0-0.78,0.64-1.41,1.42-1.41s1.42,0.63,1.42,1.41c0,0.49-0.25,0.92-0.63,1.18h8.42c-0.38-0.26-0.63-0.69-0.63-1.18
		c0-0.78,0.64-1.41,1.42-1.41s1.42,0.63,1.42,1.41c0,0.49-0.25,0.92-0.63,1.18h8.42c-0.38-0.26-0.63-0.69-0.63-1.18
		c0-0.78,0.64-1.41,1.42-1.41s1.42,0.63,1.42,1.41c0,0.49-0.25,0.92-0.63,1.18h8.42c-0.38-0.26-0.63-0.69-0.63-1.18
		c0-0.78,0.64-1.41,1.42-1.41s1.42,0.63,1.42,1.41c0,0.49-0.25,0.92-0.63,1.18h8.42c-0.38-0.26-0.63-0.69-0.63-1.18
		c0-0.78,0.64-1.41,1.42-1.41s1.42,0.63,1.42,1.41c0,0.49-0.25,0.92-0.63,1.18h7.42c-0.38-0.26-0.63-0.69-0.63-1.18
		c0-0.78,0.64-1.41,1.42-1.41c0.56,0,1.04,0.32,1.27,0.79V86c-0.23,0.47-0.71,0.8-1.27,0.8c-0.78,0-1.42-0.64-1.42-1.42
		C159.96,84.6,160.6,83.97,161.38,83.97z M118.94,25.66c0.78,0,1.42,0.64,1.42,1.42c0,0.5-0.26,0.94-0.66,1.19
		c0.41,0.25,0.68,0.7,0.68,1.21c0,0.78-0.64,1.41-1.42,1.41s-1.42-0.63-1.42-1.41c0-0.51,0.26-0.95,0.66-1.19
		c-0.41-0.25-0.68-0.7-0.68-1.21C117.52,26.3,118.16,25.66,118.94,25.66z M118.94,47.21c-0.78,0-1.42-0.64-1.42-1.42
		s0.64-1.42,1.42-1.42s1.42,0.64,1.42,1.42S119.72,47.21,118.94,47.21z M120.36,48.91c0,0.78-0.64,1.42-1.42,1.42
		s-1.42-0.64-1.42-1.42s0.64-1.42,1.42-1.42S120.36,48.13,120.36,48.91z M118.94,35.44c-0.78,0-1.41-0.63-1.41-1.41
		s0.63-1.42,1.41-1.42c0.79,0,1.42,0.64,1.42,1.42C120.36,34.81,119.73,35.44,118.94,35.44z M118.24,41.25
		c0.78,0,1.41,0.64,1.41,1.42s-0.63,1.42-1.41,1.42c-0.79,0-1.42-0.64-1.42-1.42S117.45,41.25,118.24,41.25z M104.32,26.51
		c0.78,0,1.42,0.63,1.42,1.42c0,0.78-0.64,1.41-1.42,1.41s-1.42-0.63-1.42-1.41C102.9,27.14,103.54,26.51,104.32,26.51z
		 M100.63,16.64c0.78,0,1.42,0.63,1.42,1.41s-0.64,1.42-1.42,1.42s-1.41-0.64-1.41-1.42C99.22,17.27,99.85,16.64,100.63,16.64z
		 M100.63,26.51c0.78,0,1.42,0.63,1.42,1.42c0,0.78-0.64,1.41-1.42,1.41s-1.41-0.63-1.41-1.41C99.22,27.14,99.85,26.51,100.63,26.51
		z M97.42,45.06c0.14-0.62,0.7-1.09,1.37-1.09c0.17,0,0.33,0.03,0.48,0.09c0.14-0.62,0.69-1.09,1.36-1.09
		c0.17,0,0.33,0.03,0.48,0.09c0.14-0.62,0.69-1.09,1.37-1.09c0.17,0,0.33,0.03,0.47,0.09c0.14-0.62,0.7-1.09,1.37-1.09
		c0.17,0,0.33,0.03,0.47,0.09c0.14-0.62,0.7-1.09,1.37-1.09c0.17,0,0.33,0.03,0.48,0.09c0.14-0.62,0.69-1.09,1.36-1.09
		c0.17,0,0.33,0.03,0.48,0.09c0.14-0.62,0.7-1.09,1.37-1.09c0.54,0,1.01,0.31,1.24,0.76c0.25-0.36,0.67-0.59,1.15-0.59
		c0.78,0,1.41,0.63,1.41,1.41c0,0.79-0.63,1.42-1.41,1.42c-0.55,0-1.02-0.3-1.25-0.75c-0.26,0.36-0.67,0.59-1.14,0.59
		c-0.17,0-0.33-0.03-0.48-0.09c-0.14,0.62-0.7,1.09-1.37,1.09c-0.17,0-0.33-0.03-0.47-0.09c-0.14,0.62-0.7,1.09-1.37,1.09
		c-0.17,0-0.33-0.03-0.47-0.09c-0.14,0.62-0.7,1.09-1.37,1.09c-0.17,0-0.33-0.03-0.48-0.09c-0.14,0.62-0.69,1.09-1.36,1.09
		c-0.17,0-0.33-0.03-0.48-0.09c-0.14,0.62-0.7,1.09-1.37,1.09c-0.17,0-0.33-0.03-0.47-0.09c-0.09,0.42-0.38,0.77-0.77,0.96
		c0.48,0.22,0.82,0.72,0.82,1.28c0,0.78-0.64,1.42-1.42,1.42c-0.15,0-0.29-0.02-0.42-0.07c-0.03,0.77-0.66,1.37-1.42,1.37
		s-1.39-0.6-1.42-1.37c-0.13,0.05-0.27,0.07-0.42,0.07c-0.79,0-1.42-0.64-1.42-1.42s0.63-1.42,1.42-1.42c0.16,0,0.3,0.03,0.44,0.08
		c-0.01-0.07-0.02-0.15-0.02-0.23c0-0.78,0.64-1.42,1.42-1.42C97.12,44.97,97.28,45,97.42,45.06z M110.82,42.67
		c0-0.78,0.63-1.42,1.42-1.42c0.78,0,1.41,0.64,1.41,1.42s-0.63,1.42-1.41,1.42C111.45,44.09,110.82,43.45,110.82,42.67z
		 M111.26,49.26c0,0.79-0.63,1.42-1.41,1.42c-0.78,0-1.42-0.63-1.42-1.42c0-0.78,0.64-1.41,1.42-1.41S111.26,48.48,111.26,49.26z
		 M106.49,57.89c0,0.78-0.64,1.42-1.42,1.42s-1.42-0.64-1.42-1.42s0.64-1.42,1.42-1.42S106.49,57.11,106.49,57.89z M103.28,57.89
		c0,0.78-0.64,1.42-1.42,1.42s-1.42-0.64-1.42-1.42s0.64-1.42,1.42-1.42S103.28,57.11,103.28,57.89z M100.07,57.89
		c0,0.78-0.64,1.42-1.42,1.42s-1.42-0.64-1.42-1.42s0.64-1.42,1.42-1.42S100.07,57.11,100.07,57.89z M96.85,57.89
		c0,0.78-0.63,1.42-1.42,1.42c-0.78,0-1.41-0.64-1.41-1.42s0.63-1.42,1.41-1.42C96.22,56.47,96.85,57.11,96.85,57.89z M95.11,16.64
		c0.78,0,1.41,0.63,1.41,1.41s-0.63,1.42-1.41,1.42c-0.79,0-1.42-0.64-1.42-1.42C93.69,17.27,94.32,16.64,95.11,16.64z M95.07,25.76
		c0.78,0,1.41,0.63,1.41,1.41s-0.63,1.42-1.41,1.42c-0.79,0-1.42-0.64-1.42-1.42S94.28,25.76,95.07,25.76z M93.64,57.89
		c0,0.78-0.64,1.42-1.42,1.42s-1.42-0.64-1.42-1.42s0.64-1.42,1.42-1.42S93.64,57.11,93.64,57.89z M91.71,38.22
		c0.78,0,1.42,0.64,1.42,1.42s-0.64,1.42-1.42,1.42s-1.42-0.64-1.42-1.42S90.93,38.22,91.71,38.22z M91.08,51.78
		c0.78,0,1.42,0.63,1.42,1.41c0,0.79-0.64,1.42-1.42,1.42s-1.42-0.63-1.42-1.42C89.66,52.41,90.3,51.78,91.08,51.78z M90.43,57.89
		c0,0.78-0.64,1.42-1.42,1.42s-1.42-0.64-1.42-1.42s0.64-1.42,1.42-1.42S90.43,57.11,90.43,57.89z M88.41,14.07
		c0.58,0,1.06,0.48,1.06,1.06c0,0.59-0.48,1.07-1.06,1.07c-0.59,0-1.07-0.48-1.07-1.07C87.34,14.55,87.82,14.07,88.41,14.07z
		 M88.41,27.58c0.58,0,1.06,0.48,1.06,1.06c0,0.59-0.48,1.06-1.06,1.06c-0.59,0-1.07-0.47-1.07-1.06
		C87.34,28.06,87.82,27.58,88.41,27.58z M86.96,43c0.78,0,1.42,0.64,1.42,1.42s-0.64,1.42-1.42,1.42c-0.15,0-0.29-0.02-0.42-0.07
		c-0.07,0.71-0.66,1.27-1.39,1.27c-0.79,0-1.42-0.64-1.42-1.42s0.63-1.42,1.42-1.42c0.14,0,0.28,0.02,0.41,0.07
		C85.63,43.56,86.23,43,86.96,43z M87.21,57.89c0,0.78-0.63,1.42-1.41,1.42c-0.79,0-1.42-0.64-1.42-1.42s0.63-1.42,1.42-1.42
		C86.58,56.47,87.21,57.11,87.21,57.89z M81.89,39.39c0-0.78,0.63-1.42,1.41-1.42c0.79,0,1.42,0.64,1.42,1.42
		c0,0.51-0.27,0.96-0.68,1.22c0.41,0.24,0.68,0.69,0.68,1.21c0,0.78-0.63,1.41-1.42,1.41c-0.78,0-1.41-0.63-1.41-1.41
		c0-0.52,0.27-0.97,0.68-1.21C82.16,40.35,81.89,39.9,81.89,39.39z M82.58,56.47c0.78,0,1.42,0.64,1.42,1.42s-0.64,1.42-1.42,1.42
		s-1.41-0.64-1.41-1.42S81.8,56.47,82.58,56.47z M83.29,13.26c1.29,0,2.33,1.05,2.33,2.33c0,0.03,0,2.3-0.02,2.45
		c-0.17,1.14-1.16,1.99-2.31,1.99c-1.15,0-2.15-0.86-2.3-2.01c-0.03-0.14-0.03-2.4-0.03-2.43C80.96,14.31,82.01,13.26,83.29,13.26z
		 M72.37,21.68c0.25,0,0.48,0.06,0.68,0.18c0.2-0.53,0.72-0.9,1.32-0.9c0.27,0,0.52,0.07,0.73,0.21c0.21-0.53,0.72-0.9,1.32-0.9
		c0.61,0,1.13,0.4,1.32,0.95c-0.01-0.07-0.02-0.15-0.02-0.22c0-0.78,0.63-1.41,1.41-1.41c0.79,0,1.42,0.63,1.42,1.41
		s-0.63,1.42-1.42,1.42c-0.61,0-1.13-0.4-1.32-0.95c0.01,0.07,0.02,0.15,0.02,0.22c0,0.78-0.63,1.42-1.41,1.42
		c-0.27,0-0.52-0.07-0.73-0.2c-0.22,0.52-0.73,0.88-1.32,0.88c-0.25,0-0.48-0.06-0.68-0.18c-0.2,0.53-0.72,0.9-1.32,0.9
		c-0.78,0-1.42-0.63-1.42-1.41C70.95,22.31,71.59,21.68,72.37,21.68z M58.8,13.26c1.28,0,2.33,1.05,2.33,2.33
		c0,0.03,0,2.3-0.03,2.45c-0.17,1.14-1.16,1.99-2.3,1.99c-1.16,0-2.15-0.86-2.31-2.01c-0.02-0.14-0.02-2.4-0.02-2.43
		C56.47,14.31,57.51,13.26,58.8,13.26z M58.8,24.68c0.91,0,1.7,0.52,2.09,1.29c0.38-0.7,1.13-1.18,1.99-1.18
		c0.3,0,0.59,0.06,0.85,0.17c0.26-0.36,0.68-0.6,1.15-0.6c0.39,0,0.74,0.16,1,0.42c0.06,0.06,0.13,0.13,0.18,0.21
		c0.15,0.22,0.24,0.5,0.24,0.79v1.27v0.14h9.55v-0.14v-1.27c0-0.78,0.64-1.42,1.42-1.42c0.47,0,0.89,0.24,1.15,0.6
		c0.26-0.11,0.55-0.17,0.85-0.17c0.84,0,1.57,0.45,1.96,1.13c0.39-0.74,1.17-1.24,2.06-1.24c1.29,0,2.33,1.04,2.33,2.33
		c0,0.03,0,3.13-0.02,3.28c-0.17,1.14-1.16,1.99-2.31,1.99c-1.15,0-2.15-0.86-2.3-2.01c-0.02-0.07-0.02-0.91-0.03-1.72
		c-0.41,0.47-1.02,0.77-1.69,0.77c-0.25,0-0.49-0.04-0.72-0.12c-0.22,0.49-0.71,0.82-1.28,0.82H65.51L55.03,40.5v14.76v1.7
		c0,0.79-0.64,1.42-1.42,1.42s-1.42-0.63-1.42-1.42v-1.7V39.92c0-0.38,0.15-0.74,0.42-1.01l6.69-6.69c-0.16,0.04-0.33,0.06-0.5,0.06
		c-1.16,0-2.15-0.86-2.31-2.01c-0.02-0.14-0.02-3.23-0.02-3.26C56.47,25.72,57.51,24.68,58.8,24.68z M79.37,59.31
		c-0.78,0-1.42-0.64-1.42-1.42s0.64-1.42,1.42-1.42s1.42,0.64,1.42,1.42C80.79,58.67,80.15,59.31,79.37,59.31z M80.79,62.53
		c0,0.78-0.64,1.42-1.42,1.42s-1.42-0.64-1.42-1.42s0.64-1.42,1.42-1.42S80.79,61.75,80.79,62.53z M79.69,45.65
		c-0.75,0-1.35-0.58-1.4-1.32c-0.16,0.07-0.33,0.1-0.51,0.1c-0.79,0-1.42-0.64-1.42-1.42s0.63-1.41,1.42-1.41
		c0.75,0,1.35,0.58,1.4,1.31c0.16-0.07,0.33-0.1,0.51-0.1c0.79,0,1.42,0.64,1.42,1.42C81.11,45.01,80.48,45.65,79.69,45.65z
		 M77.58,57.89c0,0.78-0.64,1.42-1.42,1.42s-1.42-0.64-1.42-1.42s0.64-1.42,1.42-1.42S77.58,57.11,77.58,57.89z M68.6,39.39
		c0-0.78,0.64-1.42,1.42-1.42s1.42,0.64,1.42,1.42c0,0.43-0.2,0.83-0.51,1.08c0.08,0.06,0.16,0.14,0.22,0.23
		c0.25-0.35,0.67-0.57,1.13-0.57c0.78,0,1.41,0.64,1.41,1.42s-0.63,1.41-1.41,1.41c-0.46,0-0.87-0.22-1.13-0.56
		c-0.26,0.34-0.67,0.56-1.13,0.56c-0.78,0-1.42-0.63-1.42-1.41c0-0.43,0.2-0.83,0.51-1.08C68.8,40.22,68.6,39.82,68.6,39.39z
		 M71.86,43.01c0.78,0,1.42,0.63,1.42,1.41s-0.64,1.42-1.42,1.42s-1.42-0.64-1.42-1.42S71.08,43.01,71.86,43.01z M72.94,56.47
		c0.79,0,1.42,0.64,1.42,1.42s-0.63,1.42-1.42,1.42c-0.78,0-1.41-0.64-1.41-1.42S72.16,56.47,72.94,56.47z M66.52,56.47
		c0.78,0,1.42,0.64,1.42,1.42s-0.64,1.42-1.42,1.42s-1.42-0.64-1.42-1.42S65.74,56.47,66.52,56.47z M64.92,39.39
		c0-0.78,0.63-1.42,1.41-1.42c0.79,0,1.42,0.64,1.42,1.42s-0.63,1.42-1.42,1.42C65.55,40.81,64.92,40.17,64.92,39.39z M57.54,43.69
		c0-0.78,0.64-1.42,1.42-1.42s1.42,0.64,1.42,1.42s-0.64,1.42-1.42,1.42C58.18,45.11,57.54,44.47,57.54,43.69z M58.3,57.89
		c0,0.78-0.64,1.42-1.42,1.42s-1.42-0.64-1.42-1.42s0.64-1.42,1.42-1.42S58.3,57.11,58.3,57.89z M60.09,56.47
		c0.79,0,1.42,0.64,1.42,1.42s-0.63,1.42-1.42,1.42c-0.78,0-1.41-0.64-1.41-1.42S59.31,56.47,60.09,56.47z M60.82,40.81
		c-0.78,0-1.42-0.64-1.42-1.42s0.64-1.42,1.42-1.42s1.42,0.64,1.42,1.42C62.24,40.17,61.6,40.81,60.82,40.81z M63.31,56.47
		c0.78,0,1.41,0.64,1.41,1.42s-0.63,1.42-1.41,1.42c-0.78,0-1.42-0.64-1.42-1.42C61.89,57.11,62.53,56.47,63.31,56.47z M51.79,37.89
		c0,0.59-0.48,1.06-1.06,1.06c-0.59,0-1.07-0.47-1.07-1.06c0-0.51,0.37-0.94,0.86-1.04c-0.01-0.03-0.01-0.06-0.01-0.09
		s0-0.06,0.01-0.09c-0.49-0.1-0.86-0.53-0.86-1.05c0-0.51,0.37-0.94,0.86-1.04c-0.01-0.03-0.01-0.06-0.01-0.09s0-0.06,0.01-0.09
		c-0.49-0.1-0.86-0.53-0.86-1.04c0-0.59,0.48-1.07,1.07-1.07c0.58,0,1.06,0.48,1.06,1.07c0,0.03,0,0.06-0.01,0.09
		c0.48,0.1,0.85,0.52,0.85,1.04s-0.37,0.94-0.85,1.04c0.01,0.03,0.01,0.06,0.01,0.09s0,0.06-0.01,0.09c0.48,0.1,0.85,0.53,0.85,1.05
		c0,0.51-0.37,0.94-0.85,1.04C51.79,37.83,51.79,37.86,51.79,37.89z M52.63,24.3c0,0.59-0.48,1.06-1.06,1.06s-1.06-0.48-1.06-1.06
		s0.48-1.06,1.06-1.06S52.63,23.71,52.63,24.3z M52.26,21.17c0,0.78-0.64,1.42-1.42,1.42s-1.42-0.64-1.42-1.42s0.64-1.42,1.42-1.42
		S52.26,20.39,52.26,21.17z M49.79,11.62c0.58,0,1.06,0.48,1.06,1.06c0,0.59-0.48,1.06-1.06,1.06c-0.59,0-1.07-0.47-1.07-1.06
		C48.72,12.1,49.2,11.62,49.79,11.62z M49.79,14.62c0.58,0,1.06,0.48,1.06,1.06c0,0.59-0.48,1.06-1.06,1.06
		c-0.59,0-1.07-0.47-1.07-1.06C48.72,15.1,49.2,14.62,49.79,14.62z M43.79,11.62c0.59,0,1.07,0.48,1.07,1.06
		c0,0.59-0.48,1.06-1.07,1.06c-0.58,0-1.06-0.47-1.06-1.06C42.73,12.1,43.21,11.62,43.79,11.62z M42.71,16.63
		c0.52,0,0.94,0.37,1.04,0.85c0.03-0.01,0.07-0.01,0.1-0.01s0.06,0,0.08,0.01c0.02-0.56,0.48-1,1.05-1s1.03,0.44,1.05,1
		c0.02-0.01,0.05-0.01,0.08-0.01c0.59,0,1.07,0.48,1.07,1.07c0,0.58-0.48,1.06-1.07,1.06c-0.56,0-1.03-0.45-1.05-1.01h-0.01
		C45.03,18.6,45,18.6,44.98,18.6c-0.03,0-0.06,0-0.08-0.01c-0.02,0.56-0.49,1.01-1.05,1.01c-0.52,0-0.95-0.37-1.05-0.85
		c-0.03,0.01-0.06,0.01-0.09,0.01c-0.58,0-1.06-0.48-1.06-1.06C41.65,17.11,42.13,16.63,42.71,16.63z M39.89,17.47
		c0.58,0,1.06,0.48,1.06,1.07c0,0.58-0.48,1.06-1.06,1.06c-0.59,0-1.06-0.48-1.06-1.06C38.83,17.95,39.3,17.47,39.89,17.47z
		 M34.35,11.62c0.59,0,1.06,0.48,1.06,1.06c0,0.59-0.47,1.06-1.06,1.06s-1.06-0.47-1.06-1.06C33.29,12.1,33.76,11.62,34.35,11.62z
		 M33.64,17.47c0.03,0,0.06,0,0.09,0.01c0.07-0.32,0.29-0.6,0.58-0.74c-0.57-0.02-1.02-0.48-1.02-1.06s0.47-1.06,1.06-1.06
		s1.06,0.48,1.06,1.06c0,0.42-0.24,0.79-0.6,0.95c0.5,0.02,0.91,0.38,1.01,0.85c0.03-0.01,0.06-0.01,0.09-0.01
		c0.58,0,1.06,0.48,1.06,1.07c0,0.58-0.48,1.06-1.06,1.06c-0.52,0-0.94-0.37-1.04-0.85c-0.03,0.01-0.07,0.01-0.1,0.01
		s-0.06,0-0.09-0.01c-0.1,0.48-0.52,0.85-1.04,0.85c-0.59,0-1.06-0.48-1.06-1.06C32.58,17.95,33.05,17.47,33.64,17.47z M25.95,16.58
		c0.59,0,1.07,0.47,1.07,1.06s-0.48,1.06-1.07,1.06c-0.58,0-1.06-0.47-1.06-1.06C24.89,17.05,25.37,16.58,25.95,16.58z M21.21,58.11
		c0-0.78,0.64-1.42,1.42-1.42s1.42,0.64,1.42,1.42c0,0.31,0,2.97,0,3.27c0,0.78-0.64,1.42-1.42,1.42s-1.42-0.64-1.42-1.42
		C21.21,61.08,21.21,58.42,21.21,58.11z M19.72,41.84c0.59,0,1.07,0.47,1.07,1.06s-0.48,1.06-1.07,1.06c-0.58,0-1.06-0.47-1.06-1.06
		S19.14,41.84,19.72,41.84z M16.67,58.11c0-0.78,0.64-1.42,1.42-1.42s1.42,0.64,1.42,1.42c0,0.31,0,2.97,0,3.27
		c0,0.78-0.64,1.42-1.42,1.42s-1.42-0.64-1.42-1.42C16.67,61.08,16.67,58.4,16.67,58.11z M16.17,43.96c-0.59,0-1.06-0.47-1.06-1.06
		s0.47-1.06,1.06-1.06c0.59,0,1.06,0.47,1.06,1.06S16.76,43.96,16.17,43.96z M19.27,47.35c-0.59,0-1.07-0.48-1.07-1.06
		c0-0.59,0.48-1.06,1.07-1.06c0.58,0,1.06,0.47,1.06,1.06C20.33,46.87,19.85,47.35,19.27,47.35z M18.09,18.34
		c0.78,0,1.42,0.63,1.42,1.41s-0.64,1.42-1.42,1.42s-1.42-0.64-1.42-1.42S17.31,18.34,18.09,18.34z M16.03,37.58c0.18,0,0.82,0,1,0
		c0.59,0,1.06,0.48,1.06,1.07c0,0.58-0.47,1.06-1.06,1.06c-0.18,0-0.82,0-1,0c-0.59,0-1.06-0.48-1.06-1.06
		C14.97,38.06,15.44,37.58,16.03,37.58z M20.14,78.75c-4.22,0-7.66-3.44-7.66-7.66s3.44-7.65,7.66-7.65s7.65,3.43,7.65,7.65
		C27.79,75.31,24.36,78.75,20.14,78.75z M28.37,41.93c-0.78,0-1.42-0.64-1.42-1.42s0.64-1.42,1.42-1.42s1.42,0.64,1.42,1.42
		S29.15,41.93,28.37,41.93z M31.24,38.78l-7.03-7.03h-1.29c-0.59,0-1.07-0.48-1.07-1.07c0-0.58,0.48-1.06,1.07-1.06h0.52v-2.91
		l-1.28-1.27v-0.01c-0.19-0.19-0.31-0.45-0.31-0.75c0-0.51,0.37-0.94,0.85-1.04c0.07-0.02,0.14-0.03,0.22-0.03
		c0.13,0,0.25,0.02,0.36,0.07c0.15,0.06,0.28,0.14,0.39,0.25l1.59,1.59c0.04,0.04,0.08,0.08,0.1,0.13c0.19-0.23,0.48-0.37,0.8-0.37
		c0.59,0,1.06,0.47,1.06,1.06c0,0.31-0.13,0.59-0.35,0.78c0.22,0.19,0.35,0.47,0.35,0.78c0,0.59-0.47,1.06-1.06,1.06
		c-0.22,0-0.42-0.07-0.59-0.18v1.31l6.07,6.07V24.27c0-0.47,0.38-0.85,0.85-0.85H45c0.46,0,0.85,0.38,0.85,0.85v7.98l3.34-3.34
		c0.2-0.2,0.47-0.31,0.76-0.31c0,0,0.1,0,0.25,0c-0.31-0.19-0.54-0.51-0.54-0.9c0-0.59,0.48-1.04,0.85-1.04c-0.04,0-0.04,0-0.03,0
		c-0.01,0-0.01,0,0.03,0c0-0.04-0.01-0.05-0.01-0.09c0-0.59,0.48-1.06,1.06-1.06s1.06,0.48,1.06,1.06c0,0.52-0.38,0.93-0.86,1.02
		c0,0.04,0.02,0.07,0.02,0.11c0,0.39-0.22,0.71-0.53,0.9c1.03,0,2.29-0.01,2.32-0.01c0.29,0,0.56,0.12,0.75,0.32
		s0.31,0.46,0.31,0.75s-0.12,0.56-0.31,0.75c-0.18,0.2-0.45,0.32-0.75,0.32h-0.8c0.03,0.09,0.04,0.18,0.04,0.28
		c0,0.59-0.47,1.06-1.06,1.06s-1.06-0.47-1.06-1.06c0-0.1,0.01-0.19,0.04-0.28h-0.35l-3.05,3.05v3.62c0,0.29-0.11,0.55-0.31,0.76
		l-0.62,0.62c-0.2,0.2-0.47,0.31-0.76,0.31H31.99C31.71,39.09,31.44,38.98,31.24,38.78z M47.18,43.35c0,0.58-0.48,1.06-1.07,1.06
		c-0.51,0-0.94-0.37-1.04-0.85c-0.03,0.01-0.06,0.01-0.09,0.01s-0.06,0-0.09-0.01c-0.1,0.48-0.53,0.85-1.04,0.85
		c-0.52,0-0.95-0.37-1.05-0.85c-0.03,0.01-0.06,0.01-0.09,0.01c-0.58,0-1.06-0.48-1.06-1.06c0-0.59,0.48-1.07,1.06-1.07
		c0.52,0,0.94,0.37,1.04,0.85c0.03-0.01,0.07-0.01,0.1-0.01s0.06,0,0.09,0.01c0.1-0.48,0.52-0.85,1.04-0.85s0.94,0.37,1.04,0.85
		c0.03-0.01,0.06-0.01,0.09-0.01C46.7,42.28,47.18,42.76,47.18,43.35z M33.57,43.95c0,0.58-0.48,1.06-1.07,1.06
		c-0.58,0-1.06-0.48-1.06-1.06c0-0.28,0.11-0.53,0.28-0.72c-0.17-0.19-0.28-0.44-0.28-0.72c0-0.59,0.48-1.06,1.07-1.06
		c0.58,0,1.06,0.47,1.06,1.06c0,0.28-0.11,0.53-0.28,0.72C33.46,43.42,33.57,43.67,33.57,43.95z M34.77,42.08
		c0.05,0,0.11,0,0.16,0.01c0.17-0.37,0.54-0.64,0.98-0.64c0.43,0,0.81,0.27,0.98,0.64c0.05-0.01,0.1-0.01,0.15-0.01
		c0.05,0,0.1,0,0.15,0.01c0.17-0.37,0.55-0.64,0.99-0.64c0.43,0,0.81,0.27,0.97,0.64c0.05-0.02,0.11-0.02,0.16-0.02
		s0.11,0,0.16,0.02c0.16-0.38,0.54-0.64,0.97-0.64c0.59,0,1.07,0.47,1.07,1.06c0,0.58-0.48,1.06-1.07,1.06c-0.05,0-0.1,0-0.15-0.01
		c-0.17,0.37-0.54,0.64-0.98,0.64s-0.81-0.27-0.98-0.64c-0.05,0.01-0.1,0.01-0.15,0.01s-0.1,0-0.15-0.01
		c-0.17,0.38-0.55,0.65-0.99,0.65c-0.44,0-0.81-0.27-0.98-0.65c-0.05,0.01-0.1,0.01-0.15,0.01c-0.05,0-0.1,0-0.15-0.01
		c-0.17,0.38-0.55,0.64-0.99,0.64c-0.58,0-1.06-0.47-1.06-1.06C33.71,42.56,34.19,42.08,34.77,42.08z M38.37,58.02
		c-0.78,0-1.42-0.63-1.42-1.41c0-0.79,0.64-1.42,1.42-1.42s1.42,0.63,1.42,1.42C39.79,57.39,39.15,58.02,38.37,58.02z M39.79,62.89
		c0,0.78-0.64,1.42-1.42,1.42s-1.42-0.64-1.42-1.42s0.64-1.42,1.42-1.42S39.79,62.11,39.79,62.89z M36.6,53
		c0,0.78-0.64,1.42-1.42,1.42s-1.42-0.64-1.42-1.42s0.64-1.42,1.42-1.42S36.6,52.22,36.6,53z M33.76,55.98
		c0-0.78,0.64-1.42,1.42-1.42s1.42,0.64,1.42,1.42s-0.64,1.41-1.42,1.41C34.4,57.39,33.76,56.76,33.76,55.98z M35.99,67.88
		c0-2.03,1.65-3.68,3.68-3.68s3.68,1.65,3.68,3.68s-1.65,3.68-3.68,3.68C37.64,71.56,35.99,69.91,35.99,67.88z M43.55,78.74
		c-2.03,0-3.68-1.65-3.68-3.68s1.65-3.68,3.68-3.68s3.68,1.65,3.68,3.68S45.58,78.74,43.55,78.74z M43.86,67.87
		c0-2.03,1.65-3.68,3.68-3.68s3.68,1.65,3.68,3.68s-1.65,3.68-3.68,3.68C45.51,71.55,43.86,69.9,43.86,67.87z M51.43,78.73
		c-2.03,0-3.68-1.65-3.68-3.67c0-2.03,1.65-3.69,3.68-3.69s3.68,1.66,3.68,3.69C55.11,77.08,53.46,78.73,51.43,78.73z M51.73,67.87
		c0-2.03,1.65-3.68,3.68-3.68s3.68,1.65,3.68,3.68s-1.65,3.68-3.68,3.68S51.73,69.9,51.73,67.87z M59.12,78.73
		c-2.03,0-3.68-1.65-3.68-3.67c0-2.03,1.65-3.69,3.68-3.69s3.68,1.66,3.68,3.69C62.8,77.08,61.15,78.73,59.12,78.73z M63.07,71.52
		c-2.03,0-3.68-1.65-3.68-3.68s1.65-3.68,3.68-3.68s3.68,1.65,3.68,3.68C66.75,69.87,65.1,71.52,63.07,71.52z M67.09,78.77
		c-2.03,0-3.68-1.65-3.68-3.68s1.65-3.68,3.68-3.68s3.68,1.65,3.68,3.68C70.77,77.12,69.12,78.77,67.09,78.77z M67.36,67.84
		c0-2.03,1.65-3.68,3.68-3.68s3.68,1.65,3.68,3.68s-1.65,3.68-3.68,3.68S67.36,69.87,67.36,67.84z M75.03,78.77
		c-2.03,0-3.69-1.65-3.69-3.68s1.66-3.68,3.69-3.68s3.68,1.65,3.68,3.68C78.71,77.12,77.06,78.77,75.03,78.77z M75.41,67.9
		c0-2.03,1.65-3.68,3.68-3.68s3.68,1.65,3.68,3.68s-1.65,3.68-3.68,3.68C77.06,71.58,75.41,69.93,75.41,67.9z M82.97,78.76
		c-2.03,0-3.68-1.65-3.68-3.68s1.65-3.68,3.68-3.68s3.68,1.65,3.68,3.68S85,78.76,82.97,78.76z M83.27,67.9
		c0-2.03,1.66-3.68,3.69-3.68c2.02,0,3.68,1.65,3.68,3.68s-1.66,3.68-3.68,3.68C84.93,71.58,83.27,69.93,83.27,67.9z M90.67,78.76
		c-2.03,0-3.68-1.65-3.68-3.68s1.65-3.68,3.68-3.68s3.68,1.65,3.68,3.68S92.7,78.76,90.67,78.76z M90.94,67.86
		c0-2.03,1.65-3.68,3.68-3.68s3.68,1.65,3.68,3.68s-1.65,3.68-3.68,3.68C92.59,71.54,90.94,69.89,90.94,67.86z M98.64,78.79
		c-2.03,0-3.68-1.65-3.68-3.68s1.65-3.68,3.68-3.68s3.68,1.65,3.68,3.68S100.67,78.79,98.64,78.79z M98.9,67.86
		c0-2.03,1.66-3.68,3.69-3.68s3.68,1.65,3.68,3.68s-1.65,3.68-3.68,3.68C100.56,71.54,98.9,69.89,98.9,67.86z M106.57,78.79
		c-2.03,0-3.68-1.65-3.68-3.68s1.65-3.68,3.68-3.68s3.68,1.65,3.68,3.68S108.6,78.79,106.57,78.79z M106.84,67.9
		c0-2.03,1.65-3.68,3.68-3.68s3.68,1.65,3.68,3.68s-1.65,3.68-3.68,3.68S106.84,69.93,106.84,67.9z M114.53,78.84
		c-2.03,0-3.68-1.65-3.68-3.68s1.65-3.68,3.68-3.68s3.68,1.65,3.68,3.68C118.21,77.19,116.56,78.84,114.53,78.84z M114.8,67.94
		c0-2.03,1.65-3.68,3.68-3.68s3.68,1.65,3.68,3.68s-1.65,3.68-3.68,3.68C116.45,71.62,114.8,69.97,114.8,67.94z M122.5,78.87
		c-2.03,0-3.68-1.65-3.68-3.68s1.65-3.68,3.68-3.68s3.68,1.65,3.68,3.68S124.53,78.87,122.5,78.87z M122.76,67.94
		c0-2.03,1.66-3.68,3.69-3.68c2.03,0,3.68,1.65,3.68,3.68s-1.65,3.68-3.68,3.68S122.76,69.97,122.76,67.94z M130.43,78.87
		c-2.03,0-3.68-1.65-3.68-3.68s1.65-3.68,3.68-3.68s3.68,1.65,3.68,3.68C134.11,77.22,132.46,78.87,130.43,78.87z M134.38,71.66
		c-2.03,0-3.68-1.65-3.68-3.68s1.65-3.68,3.68-3.68s3.68,1.65,3.68,3.68S136.41,71.66,134.38,71.66z M145.19,21.98
		c1.56,0,2.83,1.27,2.83,2.83s-1.27,2.84-2.83,2.84c-1.57,0-2.84-1.28-2.84-2.84S143.62,21.98,145.19,21.98z M142.35,47.35
		c0-1.56,1.27-2.83,2.84-2.83c1.56,0,2.83,1.27,2.83,2.83c0,1.57-1.27,2.84-2.83,2.84C143.62,50.19,142.35,48.92,142.35,47.35z
		 M154.01,78.77c-4.22,0-7.66-3.44-7.66-7.66c0-4.22,3.44-7.65,7.66-7.65s7.65,3.43,7.65,7.65
		C161.66,75.33,158.23,78.77,154.01,78.77z"/>
</g>
</svg>
