<?xml version="1.0" encoding="utf-8"?>
<!-- Generator: Adobe Illustrator 27.0.0, SVG Export Plug-In . SVG Version: 6.00 Build 0)  -->
<svg version="1.1" id="Calque_1" xmlns="http://www.w3.org/2000/svg" xmlns:xlink="http://www.w3.org/1999/xlink" x="0px" y="0px"
	 viewBox="0 0 172.88 106.64" style="enable-background:new 0 0 172.88 106.64;" xml:space="preserve">
<style type="text/css">
	.st0{fill:none;stroke:#000000;stroke-width:0.1;stroke-miterlimit:10;}
	.st1{fill:none;stroke:#000000;stroke-width:0.98;}
	.st2{fill:none;stroke:#000000;stroke-width:1.7;stroke-miterlimit:10;}
	.st3{fill:none;stroke:#000000;stroke-width:2;stroke-miterlimit:10;}
	.st4{fill:none;stroke:#000000;stroke-miterlimit:10;}
</style>
<path class="st0" d="M164.07,97.99H9.9V16.11c0-3.71,3.01-6.73,6.73-6.73h140.7c3.71,0,6.73,3.01,6.73,6.73v81.88H164.07z"/>
<g>
	<circle cx="95.11" cy="47.97" r="0.85"/>
	<circle cx="96.95" cy="49.28" r="0.85"/>
	<circle cx="98.79" cy="47.97" r="0.85"/>
	<circle cx="111.49" cy="62.54" r="0.85"/>
	<circle cx="108.29" cy="62.54" r="0.85"/>
	<circle cx="105.07" cy="62.54" r="0.85"/>
	<circle cx="101.86" cy="57.9" r="0.85"/>
	<circle cx="101.86" cy="62.54" r="0.85"/>
	<circle cx="98.65" cy="57.9" r="0.85"/>
	<circle cx="98.65" cy="62.54" r="0.85"/>
	<circle cx="95.43" cy="57.9" r="0.85"/>
	<circle cx="95.43" cy="62.54" r="0.85"/>
	<circle cx="92.22" cy="57.9" r="0.85"/>
	<circle cx="92.22" cy="62.54" r="0.85"/>
	<circle cx="89.01" cy="57.9" r="0.85"/>
	<circle cx="89.01" cy="62.54" r="0.85"/>
	<circle cx="85.8" cy="57.9" r="0.85"/>
	<circle cx="85.8" cy="62.54" r="0.85"/>
	<circle cx="82.58" cy="57.9" r="0.85"/>
	<circle cx="82.58" cy="62.54" r="0.85"/>
	<circle cx="79.37" cy="57.9" r="0.85"/>
	<circle cx="69.73" cy="62.54" r="0.85"/>
	<circle cx="66.52" cy="57.9" r="0.85"/>
	<circle cx="66.52" cy="62.54" r="0.85"/>
	<circle cx="63.31" cy="57.9" r="0.85"/>
	<circle cx="63.31" cy="62.54" r="0.85"/>
	<circle cx="60.09" cy="57.9" r="0.85"/>
	<circle cx="60.09" cy="62.54" r="0.85"/>
	<circle cx="56.88" cy="57.9" r="0.85"/>
	<circle cx="56.88" cy="62.54" r="0.85"/>
	<circle cx="85.15" cy="45.63" r="0.85"/>
	<circle cx="64.88" cy="27.07" r="0.85"/>
	<circle cx="77.27" cy="27.07" r="0.85"/>
	<circle cx="64.88" cy="25.79" r="0.85"/>
	<circle cx="77.27" cy="25.79" r="0.85"/>
	<circle cx="105.07" cy="57.9" r="0.85"/>
	<circle cx="35.18" cy="55.99" r="0.85"/>
	<circle cx="118.24" cy="36.45" r="0.85"/>
	<circle cx="112.24" cy="36.45" r="0.85"/>
	<circle cx="76.16" cy="62.54" r="0.85"/>
	<circle cx="76.16" cy="57.9" r="0.85"/>
	<circle cx="72.95" cy="57.9" r="0.85"/>
	<circle cx="109.85" cy="39.4" r="0.85"/>
	<circle cx="108" cy="40.4" r="0.85"/>
	<circle cx="106.16" cy="41.4" r="0.85"/>
	<circle cx="104.32" cy="42.41" r="0.85"/>
	<circle cx="102.48" cy="43.41" r="0.85"/>
	<circle cx="100.63" cy="44.41" r="0.85"/>
	<circle cx="98.79" cy="45.41" r="0.85"/>
	<circle cx="96.95" cy="46.41" r="0.85"/>
	<circle cx="35.18" cy="53.01" r="0.85"/>
	<circle cx="86.96" cy="44.43" r="0.85"/>
	<circle cx="91.71" cy="39.65" r="0.85"/>
	<circle cx="112.24" cy="39.57" r="0.85"/>
	<circle cx="118.94" cy="34.04" r="0.85"/>
	<circle cx="118.96" cy="29.49" r="0.85"/>
	<circle cx="118.94" cy="27.1" r="0.85"/>
	<circle cx="118.94" cy="45.8" r="0.85"/>
	<circle cx="118.94" cy="48.92" r="0.85"/>
	<circle cx="26.16" cy="27.91" r="0.5"/>
	<circle cx="51.57" cy="34.5" r="0.5"/>
	<circle cx="50.73" cy="35.64" r="0.5"/>
	<circle cx="51.57" cy="36.77" r="0.5"/>
	<circle cx="50.73" cy="37.91" r="0.5"/>
	<circle cx="46.11" cy="43.36" r="0.5"/>
	<circle cx="44.98" cy="42.52" r="0.5"/>
	<circle cx="43.85" cy="43.36" r="0.5"/>
	<circle cx="42.71" cy="42.52" r="0.5"/>
	<circle cx="22.92" cy="30.7" r="0.5"/>
	<circle cx="22.92" cy="27.7" r="0.5"/>
	<circle cx="22.92" cy="24.7" r="0.5"/>
	<circle cx="22.92" cy="21.7" r="0.5"/>
	<circle cx="39.31" cy="43.15" r="0.5"/>
	<circle cx="40.44" cy="42.52" r="0.5"/>
	<circle cx="37.04" cy="43.16" r="0.5"/>
	<circle cx="38.18" cy="42.53" r="0.5"/>
	<circle cx="34.78" cy="43.16" r="0.5"/>
	<circle cx="35.91" cy="42.53" r="0.5"/>
	<circle cx="32.51" cy="42.52" r="0.5"/>
	<path d="M79.86,75.09c0-1.72,1.39-3.12,3.11-3.12s3.11,1.39,3.11,3.12c0,1.72-1.39,3.11-3.11,3.11
		C81.26,78.21,79.86,76.81,79.86,75.09z"/>
	<path d="M87.56,75.09c0-1.72,1.39-3.12,3.11-3.12s3.11,1.39,3.11,3.12c0,1.72-1.39,3.11-3.11,3.11
		C88.95,78.21,87.56,76.81,87.56,75.09z"/>
	<circle cx="98.64" cy="75.13" r="3.11"/>
	<path d="M103.46,75.13c0-1.72,1.39-3.11,3.12-3.11c1.72,0,3.11,1.39,3.11,3.11s-1.39,3.11-3.11,3.11
		C104.85,78.24,103.46,76.85,103.46,75.13z"/>
	<path d="M75.98,67.91c0-1.72,1.39-3.12,3.11-3.12s3.11,1.39,3.11,3.12c0,1.72-1.39,3.11-3.11,3.11
		C77.37,71.02,75.98,69.63,75.98,67.91z"/>
	<path d="M83.84,67.91c0-1.72,1.39-3.12,3.12-3.12c1.72,0,3.11,1.39,3.11,3.12c0,1.72-1.39,3.11-3.11,3.11
		C85.24,71.02,83.84,69.63,83.84,67.91z"/>
	<path d="M91.5,67.88c0-1.72,1.39-3.12,3.11-3.12s3.12,1.39,3.12,3.12c0,1.72-1.4,3.11-3.12,3.11C92.9,70.99,91.5,69.6,91.5,67.88z"
		/>
	<path d="M107.41,67.91c0-1.72,1.39-3.12,3.11-3.12s3.11,1.39,3.11,3.12c0,1.72-1.39,3.11-3.11,3.11
		C108.8,71.02,107.41,69.63,107.41,67.91z"/>
	<path d="M111.42,75.18c0-1.72,1.39-3.12,3.11-3.12s3.11,1.39,3.11,3.12c0,1.72-1.39,3.11-3.11,3.11S111.42,76.89,111.42,75.18z"/>
	<path d="M127.32,75.21c0-1.72,1.39-3.11,3.12-3.11c1.72,0,3.11,1.39,3.11,3.11s-1.39,3.11-3.11,3.11
		C128.71,78.32,127.32,76.93,127.32,75.21z"/>
	<path d="M115.36,67.96c0-1.72,1.39-3.12,3.11-3.12s3.12,1.39,3.12,3.12c0,1.72-1.4,3.11-3.12,3.11
		C116.76,71.07,115.36,69.68,115.36,67.96z"/>
	<path d="M123.33,67.96c0-1.72,1.39-3.12,3.12-3.12c1.72,0,3.11,1.39,3.11,3.12c0,1.72-1.39,3.11-3.11,3.11
		C124.73,71.07,123.33,69.68,123.33,67.96z"/>
	<path d="M131.27,67.99c0-1.72,1.39-3.12,3.11-3.12s3.11,1.39,3.11,3.12c0,1.72-1.39,3.11-3.11,3.11S131.27,69.71,131.27,67.99z"/>
	<path d="M48.31,75.07c0-1.72,1.39-3.12,3.11-3.12s3.11,1.39,3.11,3.12c0,1.72-1.39,3.11-3.11,3.11
		C49.71,78.18,48.31,76.79,48.31,75.07z"/>
	<circle cx="67.09" cy="75.1" r="3.11"/>
	<path d="M44.43,67.89c0-1.72,1.39-3.12,3.11-3.12s3.11,1.39,3.11,3.12c0,1.72-1.39,3.11-3.11,3.11S44.43,69.6,44.43,67.89z"/>
	<path d="M52.29,67.89c0-1.72,1.39-3.12,3.12-3.12c1.72,0,3.11,1.39,3.11,3.12c0,1.72-1.39,3.11-3.11,3.11S52.29,69.6,52.29,67.89z"
		/>
	<path d="M59.96,67.85c0-1.72,1.39-3.12,3.11-3.12s3.12,1.39,3.12,3.12c0,1.72-1.4,3.11-3.12,3.11
		C61.35,70.97,59.96,69.57,59.96,67.85z"/>
	<path d="M67.93,67.85c0-1.72,1.39-3.12,3.12-3.12c1.72,0,3.11,1.39,3.11,3.12c0,1.72-1.39,3.11-3.11,3.11
		C69.32,70.97,67.93,69.57,67.93,67.85z"/>
	<path d="M36.56,67.89c0-1.72,1.39-3.12,3.11-3.12s3.11,1.39,3.11,3.12c0,1.72-1.39,3.11-3.11,3.11S36.56,69.61,36.56,67.89z"/>
	<circle cx="26.16" cy="26.35" r="0.5"/>
	<circle cx="49.79" cy="15.7" r="0.5"/>
	<circle cx="49.79" cy="12.7" r="0.5"/>
	<circle cx="33.64" cy="18.55" r="0.5"/>
	<circle cx="34.78" cy="17.71" r="0.5"/>
	<circle cx="35.91" cy="18.55" r="0.5"/>
	<circle cx="39.89" cy="18.55" r="0.5"/>
	<circle cx="32.5" cy="43.96" r="0.5"/>
	<circle cx="25.95" cy="17.65" r="0.5"/>
	<circle cx="16.17" cy="42.91" r="0.5"/>
	<circle cx="43.85" cy="18.55" r="0.5"/>
	<circle cx="44.98" cy="17.55" r="0.5"/>
	<circle cx="42.71" cy="17.71" r="0.5"/>
	<circle cx="46.11" cy="18.55" r="0.5"/>
	<path d="M51.57,24.8c-0.27,0-0.5-0.22-0.5-0.5c0-0.27,0.22-0.5,0.5-0.5s0.5,0.22,0.5,0.5C52.07,24.57,51.84,24.8,51.57,24.8"/>
	<circle cx="51.57" cy="26.57" r="0.5"/>
	<circle cx="50.73" cy="27.7" r="0.5"/>
	<path d="M50.73,25.92c-0.27,0-0.5-0.22-0.5-0.5s0.22-0.5,0.5-0.5s0.5,0.22,0.5,0.5S51,25.92,50.73,25.92"/>
	<circle cx="72.37" cy="23.11" r="0.85"/>
	<circle cx="74.37" cy="22.39" r="0.85"/>
	<circle cx="76.42" cy="21.7" r="0.85"/>
	<circle cx="79.14" cy="21.02" r="0.85"/>
	<circle cx="66.34" cy="39.4" r="0.85"/>
	<circle cx="60.82" cy="39.4" r="0.85"/>
	<circle cx="70.02" cy="41.56" r="0.85"/>
	<circle cx="71.86" cy="44.44" r="0.85"/>
	<circle cx="58.96" cy="43.71" r="0.85"/>
	<circle cx="77.78" cy="43.03" r="0.85"/>
	<circle cx="70.02" cy="39.4" r="0.85"/>
	<circle cx="83.3" cy="39.4" r="0.85"/>
	<circle cx="77.78" cy="39.4" r="0.85"/>
	<circle cx="118.65" cy="60.62" r="0.85"/>
	<circle cx="127.08" cy="57.54" r="0.85"/>
	<circle cx="141.36" cy="60.15" r="0.85"/>
	<circle cx="149.14" cy="58.88" r="0.85"/>
	<circle cx="105.42" cy="22.66" r="0.85"/>
	<circle cx="92.23" cy="21.9" r="0.85"/>
	<circle cx="92.23" cy="27.19" r="0.85"/>
	<circle cx="57.12" cy="39.4" r="0.85"/>
	<circle cx="37.52" cy="52.32" r="0.85"/>
	<circle cx="90.23" cy="12.96" r="0.85"/>
	<circle cx="53.58" cy="29.67" r="0.5"/>
	<circle cx="19.82" cy="15.7" r="0.5"/>
	<circle cx="22.92" cy="12.7" r="0.5"/>
	<circle cx="40.34" cy="12.7" r="0.5"/>
	<circle cx="40.34" cy="15.7" r="0.5"/>
	<circle cx="28.36" cy="15.7" r="0.5"/>
	<circle cx="28.36" cy="12.7" r="0.5"/>
	<circle cx="19.1" cy="34.41" r="0.5"/>
	<circle cx="18.1" cy="34.41" r="0.5"/>
	<line class="st1" x1="19.1" y1="34.41" x2="18.1" y2="34.41"/>
	<line class="st2" x1="77.27" y1="25.79" x2="77.27" y2="27.07"/>
	<line class="st2" x1="64.88" y1="25.79" x2="64.88" y2="27.07"/>
	<circle cx="154.01" cy="71.13" r="7.09"/>
	<circle cx="20.14" cy="71.11" r="7.09"/>
	<path d="M81.53,27.02c0,0.09,0.01,3.11,0.02,3.19c0.12,0.86,0.85,1.52,1.74,1.52s1.62-0.65,1.75-1.5c0.01-0.09,0.02-3.11,0.02-3.2
		c0-0.97-0.79-1.76-1.77-1.76C82.32,25.26,81.53,26.05,81.53,27.02z"/>
	<path d="M81.53,15.61c0,0.09,0.01,2.27,0.02,2.35c0.12,0.86,0.85,1.52,1.74,1.52s1.62-0.65,1.75-1.5c0.01-0.09,0.02-2.28,0.02-2.37
		c0-0.97-0.79-1.76-1.77-1.76C82.32,13.84,81.53,14.63,81.53,15.61z"/>
	<path d="M57.03,27.02c0,0.09,0.01,3.11,0.02,3.19c0.12,0.86,0.85,1.52,1.74,1.52c0.89,0,1.62-0.65,1.75-1.5
		c0.01-0.09,0.02-3.11,0.02-3.2c0-0.97-0.79-1.76-1.77-1.76C57.82,25.26,57.03,26.05,57.03,27.02z"/>
	<path d="M57.03,15.61c0,0.09,0.01,2.27,0.02,2.35c0.12,0.86,0.85,1.52,1.74,1.52c0.89,0,1.62-0.65,1.75-1.5
		c0.01-0.09,0.02-2.28,0.02-2.37c0-0.97-0.79-1.76-1.77-1.76C57.82,13.84,57.03,14.63,57.03,15.61z"/>
	<line class="st3" x1="11.88" y1="71.11" x2="30.16" y2="71.11"/>
	<line class="st3" x1="20.14" y1="80.81" x2="20.14" y2="60.9"/>
	<line class="st3" x1="145.92" y1="71.13" x2="162.09" y2="71.13"/>
	<line class="st3" x1="154.01" y1="79.89" x2="154.01" y2="62.24"/>
	<line class="st4" x1="83.29" y1="20.47" x2="83.29" y2="13.04"/>
	<line class="st4" x1="80.1" y1="16.66" x2="88.47" y2="16.66"/>
	<line class="st4" x1="55.78" y1="16.66" x2="63.2" y2="16.66"/>
	<line class="st4" x1="58.8" y1="21.14" x2="58.8" y2="12.41"/>
	<line class="st4" x1="58.8" y1="32.81" x2="58.8" y2="24.2"/>
	<line class="st4" x1="58.8" y1="28.49" x2="55.54" y2="28.49"/>
	<line class="st4" x1="83.29" y1="32.88" x2="83.29" y2="24.05"/>
	<line class="st4" x1="83.29" y1="28.49" x2="86.6" y2="28.49"/>
	<circle cx="12.38" cy="49.89" r="0.85"/>
	<circle cx="12.38" cy="51.53" r="0.85"/>
	<circle cx="12.38" cy="53.16" r="0.85"/>
	<circle cx="12.38" cy="54.8" r="0.85"/>
	<circle cx="12.38" cy="56.43" r="0.85"/>
	<circle cx="12.37" cy="58.13" r="0.85"/>
	<circle cx="12.37" cy="59.76" r="0.85"/>
	<circle cx="12.37" cy="61.4" r="0.85"/>
	<circle cx="53.61" cy="55.28" r="0.85"/>
	<circle cx="53.61" cy="56.98" r="0.85"/>
	<line class="st2" x1="12.38" y1="49.89" x2="12.38" y2="61.4"/>
	<line class="st2" x1="53.61" y1="55.28" x2="53.61" y2="56.98"/>
	<path d="M162.65,16.1c0-2.93-2.39-5.31-5.32-5.31H16.63c-2.93,0-5.31,2.38-5.31,5.31v32.85c0.25-0.3,0.63-0.49,1.06-0.49
		c0.78,0,1.42,0.64,1.42,1.42c0,0.31-0.01,11.2-0.01,11.51c0,0.78-0.64,1.42-1.42,1.42c-0.42,0-0.8-0.19-1.05-0.48v34.24h151.33
		V16.1z M149.13,57.46c0.79,0,1.42,0.63,1.42,1.41c0,0.79-0.63,1.42-1.42,1.42c-0.78,0-1.41-0.63-1.41-1.42
		C147.72,58.09,148.35,57.46,149.13,57.46z M145.18,21.98c1.57,0,2.84,1.27,2.84,2.84c0,1.56-1.27,2.83-2.84,2.83
		c-1.56,0-2.83-1.27-2.83-2.83C142.35,23.25,143.62,21.98,145.18,21.98z M127.07,56.12c0.78,0,1.42,0.63,1.42,1.41
		s-0.64,1.42-1.42,1.42s-1.41-0.64-1.41-1.42S126.29,56.12,127.07,56.12z M118.94,25.67c0.78,0,1.42,0.64,1.42,1.42
		c0,0.5-0.26,0.94-0.66,1.19c0.4,0.25,0.67,0.7,0.67,1.21c0,0.78-0.63,1.41-1.41,1.41c-0.78,0-1.42-0.63-1.42-1.41
		c0-0.51,0.26-0.95,0.66-1.19c-0.41-0.25-0.68-0.7-0.68-1.21C117.52,26.31,118.16,25.67,118.94,25.67z M117.96,35.06
		c-0.27-0.26-0.44-0.62-0.44-1.02c0-0.78,0.64-1.42,1.42-1.42s1.42,0.64,1.42,1.42c0,0.69-0.5,1.26-1.15,1.38
		c0.27,0.26,0.44,0.63,0.44,1.03c0,0.78-0.64,1.41-1.42,1.41s-1.42-0.63-1.42-1.41C116.81,35.75,117.31,35.18,117.96,35.06z
		 M118.94,50.34c-0.78,0-1.42-0.64-1.42-1.42s0.64-1.42,1.42-1.42s1.42,0.64,1.42,1.42S119.72,50.34,118.94,50.34z M120.07,60.62
		c0,0.78-0.64,1.42-1.42,1.42s-1.42-0.64-1.42-1.42s0.64-1.42,1.42-1.42S120.07,59.84,120.07,60.62z M118.94,47.22
		c-0.78,0-1.42-0.64-1.42-1.42s0.64-1.42,1.42-1.42s1.42,0.64,1.42,1.42S119.72,47.22,118.94,47.22z M112.23,35.03
		c0.78,0,1.42,0.63,1.42,1.42c0,0.78-0.64,1.41-1.42,1.41s-1.42-0.63-1.42-1.41C110.81,35.66,111.45,35.03,112.23,35.03z
		 M105.41,21.23c0.78,0,1.42,0.64,1.42,1.42s-0.64,1.42-1.42,1.42S104,23.43,104,22.65C104,21.87,104.63,21.23,105.41,21.23z
		 M95.1,46.55c0.16,0,0.31,0.03,0.45,0.08c-0.01-0.07-0.02-0.15-0.02-0.23c0-0.78,0.63-1.42,1.42-1.42c0.17,0,0.33,0.03,0.47,0.09
		c0.14-0.62,0.7-1.09,1.37-1.09c0.17,0,0.33,0.03,0.47,0.09c0.14-0.62,0.7-1.09,1.37-1.09c0.17,0,0.33,0.03,0.48,0.09
		c0.14-0.62,0.69-1.09,1.36-1.09c0.17,0,0.33,0.03,0.48,0.09c0.14-0.62,0.69-1.09,1.37-1.09c0.17,0,0.33,0.03,0.47,0.09
		c0.14-0.62,0.7-1.09,1.37-1.09c0.17,0,0.33,0.03,0.47,0.09c0.14-0.62,0.7-1.09,1.37-1.09c0.17,0,0.33,0.03,0.48,0.09
		c0.14-0.62,0.69-1.09,1.36-1.09c0.54,0,1.01,0.3,1.24,0.75c0.26-0.35,0.68-0.58,1.15-0.58c0.78,0,1.42,0.63,1.42,1.41
		c0,0.79-0.64,1.42-1.42,1.42c-0.54,0-1.01-0.3-1.25-0.74c-0.25,0.35-0.67,0.58-1.14,0.58c-0.17,0-0.33-0.03-0.47-0.09
		c-0.14,0.62-0.7,1.09-1.37,1.09c-0.17,0-0.33-0.03-0.47-0.09c-0.14,0.62-0.7,1.09-1.37,1.09c-0.17,0-0.33-0.03-0.48-0.09
		c-0.14,0.62-0.69,1.09-1.36,1.09c-0.17,0-0.33-0.03-0.48-0.09c-0.14,0.62-0.69,1.09-1.37,1.09c-0.17,0-0.33-0.03-0.47-0.09
		c-0.14,0.62-0.7,1.09-1.37,1.09c-0.17,0-0.33-0.03-0.47-0.09c-0.09,0.42-0.38,0.77-0.77,0.96c0.48,0.22,0.82,0.72,0.82,1.28
		c0,0.78-0.64,1.42-1.42,1.42c-0.15,0-0.29-0.02-0.43-0.08c-0.02,0.77-0.64,1.38-1.41,1.38c-0.78,0-1.4-0.61-1.42-1.38
		c-0.14,0.06-0.28,0.08-0.43,0.08c-0.78,0-1.41-0.64-1.41-1.42S94.32,46.55,95.1,46.55z M112.9,62.54c0,0.78-0.63,1.42-1.41,1.42
		c-0.79,0-1.42-0.64-1.42-1.42s0.63-1.42,1.42-1.42C112.27,61.12,112.9,61.76,112.9,62.54z M109.7,62.54c0,0.78-0.64,1.42-1.42,1.42
		s-1.42-0.64-1.42-1.42s0.64-1.42,1.42-1.42C109.06,61.12,109.7,61.76,109.7,62.54z M105.07,59.32c-0.78,0-1.42-0.64-1.42-1.42
		s0.64-1.42,1.42-1.42s1.42,0.64,1.42,1.42S105.85,59.32,105.07,59.32z M106.49,62.54c0,0.78-0.64,1.42-1.42,1.42
		s-1.42-0.64-1.42-1.42s0.64-1.42,1.42-1.42C105.85,61.12,106.49,61.76,106.49,62.54z M103.27,57.9c0,0.78-0.63,1.42-1.41,1.42
		c-0.78,0-1.42-0.64-1.42-1.42s0.64-1.42,1.42-1.42C102.64,56.48,103.27,57.12,103.27,57.9z M98.64,59.32
		c-0.78,0-1.41-0.64-1.41-1.42s0.63-1.42,1.41-1.42c0.78,0,1.42,0.64,1.42,1.42S99.42,59.32,98.64,59.32z M100.06,62.54
		c0,0.78-0.64,1.42-1.42,1.42s-1.41-0.64-1.41-1.42s0.63-1.42,1.41-1.42C99.42,61.12,100.06,61.76,100.06,62.54z M95.43,59.32
		c-0.78,0-1.42-0.64-1.42-1.42s0.64-1.42,1.42-1.42s1.42,0.64,1.42,1.42S96.21,59.32,95.43,59.32z M96.85,62.54
		c0,0.78-0.64,1.42-1.42,1.42s-1.42-0.64-1.42-1.42s0.64-1.42,1.42-1.42C96.21,61.12,96.85,61.76,96.85,62.54z M93.65,21.9
		c0,0.78-0.64,1.42-1.42,1.42s-1.42-0.64-1.42-1.42s0.64-1.42,1.42-1.42S93.65,21.12,93.65,21.9z M89.01,59.32
		c-0.79,0-1.42-0.64-1.42-1.42s0.63-1.42,1.42-1.42c0.78,0,1.41,0.64,1.41,1.42C90.42,58.68,89.79,59.32,89.01,59.32z M90.42,62.54
		c0,0.78-0.63,1.42-1.41,1.42c-0.79,0-1.42-0.64-1.42-1.42s0.63-1.42,1.42-1.42C89.79,61.12,90.42,61.76,90.42,62.54z M90.29,39.65
		c0-0.78,0.64-1.42,1.42-1.42s1.42,0.64,1.42,1.42s-0.64,1.42-1.42,1.42S90.29,40.43,90.29,39.65z M92.22,59.32
		c-0.78,0-1.42-0.64-1.42-1.42s0.64-1.42,1.42-1.42s1.42,0.64,1.42,1.42S93,59.32,92.22,59.32z M93.64,62.54
		c0,0.78-0.64,1.42-1.42,1.42s-1.42-0.64-1.42-1.42s0.64-1.42,1.42-1.42C93,61.12,93.64,61.76,93.64,62.54z M92.23,28.6
		c-0.78,0-1.42-0.64-1.42-1.42s0.64-1.41,1.42-1.41s1.42,0.63,1.42,1.41C93.65,27.96,93.01,28.6,92.23,28.6z M90.23,11.54
		c0.78,0,1.42,0.63,1.42,1.42c0,0.78-0.64,1.41-1.42,1.41s-1.42-0.63-1.42-1.41C88.81,12.17,89.45,11.54,90.23,11.54z M86.96,43.01
		c0.78,0,1.41,0.64,1.41,1.42s-0.63,1.42-1.41,1.42c-0.15,0-0.29-0.02-0.42-0.07c-0.07,0.71-0.67,1.27-1.4,1.27
		c-0.78,0-1.41-0.64-1.41-1.42s0.63-1.42,1.41-1.42c0.15,0,0.29,0.02,0.42,0.07C85.63,43.57,86.22,43.01,86.96,43.01z M85.79,59.32
		c-0.78,0-1.41-0.64-1.41-1.42s0.63-1.42,1.41-1.42c0.78,0,1.42,0.64,1.42,1.42S86.57,59.32,85.79,59.32z M87.21,62.54
		c0,0.78-0.64,1.42-1.42,1.42s-1.41-0.64-1.41-1.42s0.63-1.42,1.41-1.42C86.57,61.12,87.21,61.76,87.21,62.54z M82.58,59.32
		c-0.78,0-1.42-0.64-1.42-1.42s0.64-1.42,1.42-1.42S84,57.12,84,57.9S83.36,59.32,82.58,59.32z M84,62.54
		c0,0.78-0.64,1.42-1.42,1.42s-1.42-0.64-1.42-1.42s0.64-1.42,1.42-1.42C83.36,61.12,84,61.76,84,62.54z M81.88,39.4
		c0-0.78,0.64-1.42,1.42-1.42s1.42,0.64,1.42,1.42s-0.64,1.42-1.42,1.42S81.88,40.18,81.88,39.4z M83.29,13.27
		c1.28,0,2.33,1.05,2.33,2.33c0,0.03,0,2.3-0.02,2.45c-0.17,1.14-1.16,1.99-2.31,1.99c-1.16,0-2.15-0.86-2.31-2.01
		c-0.02-0.14-0.02-2.4-0.02-2.43C80.96,14.32,82,13.27,83.29,13.27z M81.23,25.95c0.39-0.75,1.16-1.26,2.06-1.26
		c1.28,0,2.33,1.04,2.33,2.33c0,0.03,0,3.13-0.02,3.28c-0.17,1.14-1.16,1.99-2.31,1.99c-1.16,0-2.15-0.86-2.31-2
		c-0.01-0.08-0.01-0.93-0.02-1.75c-0.41,0.48-1.02,0.79-1.7,0.79c-0.72,0-1.36-0.35-1.77-0.88c-0.08,0.01-0.15,0.03-0.23,0.03
		c-0.78,0-1.41-0.63-1.41-1.42v-0.01v-1.26v-0.02c0.01-0.77,0.64-1.4,1.41-1.4c0.48,0,0.9,0.23,1.15,0.59
		c0.27-0.11,0.55-0.17,0.85-0.17C80.11,24.79,80.84,25.26,81.23,25.95z M76.36,43.02c0-0.78,0.63-1.41,1.41-1.41
		c0.79,0,1.42,0.63,1.42,1.41s-0.63,1.42-1.42,1.42C76.99,44.44,76.36,43.8,76.36,43.02z M77.57,57.9c0,0.78-0.63,1.42-1.42,1.42
		c-0.78,0-1.41-0.64-1.41-1.42s0.63-1.42,1.41-1.42C76.94,56.48,77.57,57.12,77.57,57.9z M76.36,39.4c0-0.78,0.63-1.42,1.41-1.42
		c0.79,0,1.42,0.64,1.42,1.42s-0.63,1.42-1.42,1.42C76.99,40.82,76.36,40.18,76.36,39.4z M79.37,56.48c0.78,0,1.42,0.64,1.42,1.42
		s-0.64,1.42-1.42,1.42s-1.42-0.64-1.42-1.42C77.95,57.12,78.59,56.48,79.37,56.48z M72.37,21.69c0.25,0,0.48,0.06,0.68,0.18
		c0.2-0.53,0.71-0.9,1.32-0.9c0.27,0,0.52,0.07,0.73,0.21c0.21-0.53,0.71-0.9,1.31-0.9c0.59,0,1.09,0.36,1.31,0.87
		c-0.01-0.04-0.01-0.09-0.01-0.14c0-0.78,0.64-1.41,1.42-1.41s1.42,0.63,1.42,1.41s-0.64,1.42-1.42,1.42
		c-0.59,0-1.09-0.36-1.31-0.87c0.01,0.04,0.01,0.09,0.01,0.14c0,0.78-0.64,1.42-1.42,1.42c-0.27,0-0.52-0.08-0.73-0.21
		c-0.21,0.52-0.71,0.89-1.31,0.89c-0.25,0-0.49-0.06-0.69-0.18c-0.2,0.53-0.71,0.9-1.31,0.9c-0.78,0-1.42-0.63-1.42-1.41
		C70.95,22.32,71.59,21.69,72.37,21.69z M72.94,56.48c0.78,0,1.42,0.64,1.42,1.42s-0.64,1.42-1.42,1.42s-1.41-0.64-1.41-1.42
		S72.16,56.48,72.94,56.48z M70.44,44.43c0-0.78,0.64-1.41,1.42-1.41s1.42,0.63,1.42,1.41s-0.64,1.42-1.42,1.42
		S70.44,45.21,70.44,44.43z M68.6,39.4c0-0.78,0.64-1.42,1.42-1.42s1.41,0.64,1.41,1.42c0,0.43-0.19,0.82-0.5,1.08
		c0.31,0.26,0.5,0.65,0.5,1.08c0,0.78-0.63,1.41-1.41,1.41c-0.78,0-1.42-0.63-1.42-1.41c0-0.43,0.2-0.83,0.51-1.08
		C68.8,40.23,68.6,39.83,68.6,39.4z M69.73,61.12c0.78,0,1.42,0.64,1.42,1.42s-0.64,1.42-1.42,1.42s-1.42-0.64-1.42-1.42
		C68.31,61.76,68.95,61.12,69.73,61.12z M66.52,59.32c-0.78,0-1.42-0.64-1.42-1.42s0.64-1.42,1.42-1.42s1.41,0.64,1.41,1.42
		S67.3,59.32,66.52,59.32z M67.93,62.54c0,0.78-0.63,1.42-1.41,1.42c-0.78,0-1.42-0.64-1.42-1.42s0.64-1.42,1.42-1.42
		C67.3,61.12,67.93,61.76,67.93,62.54z M67.75,39.4c0,0.78-0.64,1.42-1.42,1.42s-1.42-0.64-1.42-1.42s0.64-1.42,1.42-1.42
		C67.11,37.98,67.75,38.62,67.75,39.4z M58.79,13.27c1.29,0,2.34,1.05,2.34,2.33c0,0.03-0.01,2.29-0.03,2.45
		c-0.17,1.14-1.16,1.99-2.31,1.99s-2.15-0.86-2.3-2.01c-0.02-0.14-0.03-2.41-0.03-2.43C56.46,14.32,57.51,13.27,58.79,13.27z
		 M58.79,24.69c0.92,0,1.72,0.53,2.1,1.31c0.38-0.72,1.12-1.21,1.99-1.21c0.3,0,0.59,0.06,0.85,0.17c0.26-0.36,0.68-0.59,1.15-0.59
		c0.77,0,1.41,0.63,1.42,1.4v0.02v1.26v0.01c0,0.79-0.64,1.42-1.42,1.42c-0.08,0-0.15-0.02-0.23-0.03
		c-0.41,0.53-1.05,0.88-1.77,0.88c-0.71,0-1.34-0.34-1.75-0.85c-0.01,0.84-0.02,1.74-0.03,1.82c-0.17,1.14-1.16,1.99-2.31,1.99
		s-2.15-0.86-2.3-2c-0.03-0.15-0.03-3.24-0.03-3.27C56.46,25.73,57.51,24.69,58.79,24.69z M60.09,59.32c-0.78,0-1.42-0.64-1.42-1.42
		s0.64-1.42,1.42-1.42s1.42,0.64,1.42,1.42S60.87,59.32,60.09,59.32z M61.51,62.54c0,0.78-0.64,1.42-1.42,1.42s-1.42-0.64-1.42-1.42
		s0.64-1.42,1.42-1.42C60.87,61.12,61.51,61.76,61.51,62.54z M57.54,43.7c0-0.78,0.64-1.42,1.42-1.42s1.41,0.64,1.41,1.42
		s-0.63,1.42-1.41,1.42S57.54,44.48,57.54,43.7z M59.4,39.4c0-0.78,0.64-1.42,1.42-1.42s1.41,0.64,1.41,1.42s-0.63,1.42-1.41,1.42
		S59.4,40.18,59.4,39.4z M63.3,59.32c-0.78,0-1.41-0.64-1.41-1.42s0.63-1.42,1.41-1.42c0.79,0,1.42,0.64,1.42,1.42
		S64.09,59.32,63.3,59.32z M64.72,62.54c0,0.78-0.63,1.42-1.42,1.42c-0.78,0-1.41-0.64-1.41-1.42s0.63-1.42,1.41-1.42
		C64.09,61.12,64.72,61.76,64.72,62.54z M57.12,37.98c0.78,0,1.42,0.64,1.42,1.42s-0.64,1.42-1.42,1.42s-1.42-0.64-1.42-1.42
		S56.34,37.98,57.12,37.98z M56.88,56.48c0.78,0,1.42,0.64,1.42,1.42s-0.64,1.42-1.42,1.42s-1.42-0.64-1.42-1.42
		C55.46,57.12,56.1,56.48,56.88,56.48z M56.88,61.12c0.78,0,1.42,0.64,1.42,1.42s-0.64,1.42-1.42,1.42s-1.42-0.64-1.42-1.42
		C55.46,61.76,56.1,61.12,56.88,61.12z M51.79,37.9c0,0.59-0.48,1.06-1.07,1.06c-0.58,0-1.06-0.47-1.06-1.06
		c0-0.51,0.37-0.94,0.85-1.04c-0.01-0.03-0.01-0.06-0.01-0.09s0-0.06,0.01-0.09c-0.48-0.1-0.85-0.53-0.85-1.05
		c0-0.51,0.37-0.94,0.85-1.04c-0.01-0.03-0.01-0.06-0.01-0.09c0-0.59,0.48-1.06,1.07-1.06c0.58,0,1.06,0.47,1.06,1.06
		c0,0.52-0.37,0.94-0.85,1.04c0.01,0.03,0.01,0.06,0.01,0.09s0,0.06-0.01,0.09c0.48,0.1,0.85,0.53,0.85,1.05
		c0,0.51-0.37,0.94-0.85,1.04C51.79,37.84,51.79,37.87,51.79,37.9z M52.19,55.28c0-0.78,0.64-1.42,1.42-1.42s1.42,0.64,1.42,1.42
		c0,0.32,0,1.38,0,1.7c0,0.78-0.64,1.42-1.42,1.42s-1.42-0.64-1.42-1.42C52.19,56.66,52.19,55.6,52.19,55.28z M53.57,28.6
		c0.59,0,1.07,0.48,1.07,1.07c0,0.58-0.48,1.06-1.07,1.06c-0.58,0-1.06-0.48-1.06-1.06C52.51,29.08,52.99,28.6,53.57,28.6z
		 M52.63,24.3c0,0.51-0.37,0.94-0.85,1.04c0.01,0.02,0.01,0.05,0.01,0.08s0,0.07-0.01,0.1c0.48,0.1,0.85,0.53,0.85,1.04
		c0,0.52-0.37,0.95-0.85,1.05c0.01,0.03,0.01,0.06,0.01,0.09c0,0.58-0.48,1.06-1.07,1.06c-0.58,0-1.06-0.48-1.06-1.06
		c0-0.52,0.37-0.95,0.85-1.05c-0.01-0.03-0.01-0.06-0.01-0.09s0-0.07,0.01-0.1c-0.48-0.1-0.85-0.53-0.85-1.04
		c0-0.52,0.37-0.94,0.85-1.04c-0.01-0.02-0.01-0.05-0.01-0.08c0-0.59,0.48-1.07,1.07-1.07C52.15,23.23,52.63,23.71,52.63,24.3z
		 M49.78,11.63c0.59,0,1.07,0.48,1.07,1.06c0,0.59-0.48,1.06-1.07,1.06c-0.58,0-1.06-0.47-1.06-1.06
		C48.72,12.11,49.2,11.63,49.78,11.63z M49.78,14.63c0.59,0,1.07,0.48,1.07,1.06c0,0.59-0.48,1.06-1.07,1.06
		c-0.58,0-1.06-0.47-1.06-1.06C48.72,15.11,49.2,14.63,49.78,14.63z M42.71,16.64c0.52,0,0.94,0.37,1.04,0.85
		c0.03-0.01,0.06-0.01,0.09-0.01s0.05,0,0.08,0.01c0.02-0.56,0.49-1,1.06-1c0.56,0,1.03,0.44,1.05,1c0.02-0.01,0.05-0.01,0.08-0.01
		c0.59,0,1.06,0.48,1.06,1.07c0,0.58-0.47,1.06-1.06,1.06c-0.57,0-1.03-0.45-1.05-1.01h-0.01c-0.02,0.01-0.05,0.01-0.07,0.01
		c-0.03,0-0.05,0-0.08-0.01c-0.02,0.56-0.49,1.01-1.06,1.01c-0.51,0-0.94-0.37-1.04-0.85c-0.03,0.01-0.06,0.01-0.09,0.01
		c-0.59,0-1.06-0.48-1.06-1.06C41.65,17.12,42.12,16.64,42.71,16.64z M40.34,11.63c0.59,0,1.06,0.48,1.06,1.06
		c0,0.59-0.47,1.06-1.06,1.06c-0.58,0-1.06-0.47-1.06-1.06C39.28,12.11,39.76,11.63,40.34,11.63z M40.34,14.63
		c0.59,0,1.06,0.48,1.06,1.06c0,0.59-0.47,1.06-1.06,1.06c-0.58,0-1.06-0.47-1.06-1.06C39.28,15.11,39.76,14.63,40.34,14.63z
		 M39.89,17.48c0.58,0,1.06,0.48,1.06,1.07c0,0.58-0.48,1.06-1.06,1.06c-0.59,0-1.07-0.48-1.07-1.06
		C38.82,17.96,39.3,17.48,39.89,17.48z M27.22,27.91c0,0.59-0.48,1.06-1.06,1.06c-0.59,0-1.06-0.47-1.06-1.06
		c0-0.31,0.13-0.59,0.35-0.78c-0.22-0.19-0.35-0.47-0.35-0.78c0-0.59,0.47-1.06,1.06-1.06c0.58,0,1.06,0.47,1.06,1.06
		c0,0.31-0.14,0.59-0.35,0.78C27.08,27.32,27.22,27.6,27.22,27.91z M25.95,16.59c0.59,0,1.06,0.47,1.06,1.06s-0.47,1.06-1.06,1.06
		c-0.58,0-1.06-0.47-1.06-1.06C24.89,17.06,25.37,16.59,25.95,16.59z M26.09,41.5c0.78,0,1.41,0.64,1.41,1.42s-0.63,1.41-1.41,1.41
		c-0.79,0-1.42-0.63-1.42-1.41S25.3,41.5,26.09,41.5z M22.91,11.63c0.59,0,1.07,0.48,1.07,1.06c0,0.59-0.48,1.06-1.07,1.06
		c-0.58,0-1.06-0.47-1.06-1.06C21.85,12.11,22.33,11.63,22.91,11.63z M22.91,20.63c0.59,0,1.07,0.48,1.07,1.06
		c0,0.59-0.48,1.06-1.07,1.06c-0.58,0-1.06-0.47-1.06-1.06C21.85,21.11,22.33,20.63,22.91,20.63z M22.91,23.63
		c0.59,0,1.07,0.48,1.07,1.06c0,0.59-0.48,1.06-1.07,1.06c-0.58,0-1.06-0.47-1.06-1.06C21.85,24.11,22.33,23.63,22.91,23.63z
		 M22.91,26.63c0.59,0,1.07,0.48,1.07,1.06c0,0.59-0.48,1.07-1.07,1.07c-0.58,0-1.06-0.48-1.06-1.07
		C21.85,27.11,22.33,26.63,22.91,26.63z M22.91,29.63c0.59,0,1.07,0.48,1.07,1.06c0,0.59-0.48,1.07-1.07,1.07
		c-0.58,0-1.06-0.48-1.06-1.07C21.85,30.11,22.33,29.63,22.91,29.63z M19.82,14.63c0.58,0,1.06,0.48,1.06,1.06
		c0,0.59-0.48,1.06-1.06,1.06c-0.59,0-1.07-0.47-1.07-1.06C18.75,15.11,19.23,14.63,19.82,14.63z M18.03,33.35
		c0.02-0.01,1.03-0.01,1.07-0.01c0.58,0,1.06,0.48,1.06,1.06c0,0.59-0.48,1.07-1.06,1.07c-0.04,0-1.05,0-1.07-0.01
		c-0.56-0.03-0.99-0.49-0.99-1.06C17.04,33.84,17.47,33.38,18.03,33.35z M16.17,41.85c0.58,0,1.06,0.47,1.06,1.06
		s-0.48,1.06-1.06,1.06c-0.59,0-1.07-0.47-1.07-1.06S15.58,41.85,16.17,41.85z M20.13,78.76c-4.22,0-7.65-3.44-7.65-7.66
		c0-4.22,3.43-7.65,7.65-7.65s7.66,3.43,7.66,7.65C27.79,75.32,24.35,78.76,20.13,78.76z M28.35,16.75c-0.58,0-1.06-0.47-1.06-1.06
		c0-0.58,0.48-1.06,1.06-1.06c0.59,0,1.07,0.48,1.07,1.06C29.42,16.28,28.94,16.75,28.35,16.75z M28.35,13.75
		c-0.58,0-1.06-0.47-1.06-1.06c0-0.58,0.48-1.06,1.06-1.06c0.59,0,1.07,0.48,1.07,1.06C29.42,13.28,28.94,13.75,28.35,13.75z
		 M33.56,43.96c0,0.58-0.47,1.06-1.06,1.06s-1.06-0.48-1.06-1.06c0-0.28,0.1-0.53,0.28-0.72c-0.17-0.19-0.28-0.44-0.28-0.72
		c0-0.59,0.48-1.06,1.06-1.06c0.59,0,1.07,0.47,1.07,1.06c0,0.28-0.11,0.53-0.29,0.72C33.46,43.43,33.56,43.68,33.56,43.96z
		 M32.57,18.55c0-0.59,0.48-1.07,1.07-1.07c0.03,0,0.06,0,0.09,0.01c0.1-0.48,0.53-0.85,1.04-0.85c0.52,0,0.94,0.37,1.04,0.85
		c0.03-0.01,0.07-0.01,0.1-0.01c0.58,0,1.06,0.48,1.06,1.07c0,0.58-0.48,1.06-1.06,1.06c-0.52,0-0.95-0.37-1.05-0.85
		c-0.03,0.01-0.06,0.01-0.09,0.01s-0.06,0-0.09-0.01c-0.1,0.48-0.53,0.85-1.04,0.85C33.05,19.61,32.57,19.13,32.57,18.55z
		 M34.77,42.09c0.05,0,0.1,0,0.15,0.01c0.17-0.37,0.55-0.64,0.99-0.64c0.43,0,0.81,0.27,0.98,0.64c0.05-0.01,0.1-0.01,0.15-0.01
		s0.1,0,0.15,0.01c0.17-0.37,0.55-0.64,0.98-0.64s0.81,0.26,0.98,0.63c0.05-0.01,0.11-0.01,0.16-0.01c0.06,0,0.11,0,0.16,0.02
		c0.16-0.38,0.54-0.64,0.97-0.64c0.59,0,1.06,0.47,1.06,1.06c0,0.58-0.47,1.06-1.06,1.06c-0.05,0-0.1,0-0.15-0.01
		c-0.17,0.37-0.55,0.64-0.98,0.64c-0.44,0-0.82-0.27-0.99-0.64c-0.05,0.01-0.1,0.01-0.15,0.01s-0.1,0-0.15-0.01
		c-0.16,0.38-0.54,0.65-0.98,0.65s-0.82-0.27-0.98-0.65c-0.05,0.01-0.1,0.01-0.15,0.01s-0.11,0-0.16-0.01
		c-0.17,0.38-0.54,0.64-0.98,0.64c-0.58,0-1.06-0.47-1.06-1.06C33.71,42.57,34.19,42.09,34.77,42.09z M38.94,52.31
		c0,0.78-0.64,1.42-1.42,1.42c-0.38,0-0.72-0.15-0.97-0.4c-0.14,0.63-0.7,1.1-1.37,1.1c-0.79,0-1.42-0.64-1.42-1.42
		s0.63-1.42,1.42-1.42c0.37,0,0.71,0.15,0.96,0.39c0.15-0.62,0.71-1.08,1.38-1.08C38.3,50.9,38.94,51.53,38.94,52.31z M33.76,55.99
		c0-0.78,0.63-1.42,1.42-1.42c0.78,0,1.41,0.64,1.41,1.42s-0.63,1.41-1.41,1.41C34.39,57.4,33.76,56.77,33.76,55.99z M39.67,71.57
		c-2.03,0-3.68-1.65-3.68-3.68s1.65-3.68,3.68-3.68s3.68,1.65,3.68,3.68S41.7,71.57,39.67,71.57z M42.8,43.57
		c-0.03,0.01-0.06,0.01-0.09,0.01c-0.59,0-1.06-0.48-1.06-1.06c0-0.59,0.47-1.07,1.06-1.07c0.52,0,0.94,0.37,1.04,0.85
		c0.03-0.01,0.06-0.01,0.09-0.01s0.06,0,0.09,0.01c0.1-0.48,0.53-0.85,1.05-0.85c0.51,0,0.94,0.37,1.04,0.85
		c0.03-0.01,0.06-0.01,0.09-0.01c0.59,0,1.06,0.48,1.06,1.07c0,0.58-0.47,1.06-1.06,1.06c-0.52,0-0.94-0.37-1.04-0.85
		c-0.03,0.01-0.06,0.01-0.09,0.01s-0.06,0-0.09-0.01c-0.1,0.48-0.53,0.85-1.05,0.85C43.33,44.42,42.9,44.05,42.8,43.57z
		 M43.86,67.88c0-2.03,1.65-3.68,3.68-3.68s3.68,1.65,3.68,3.68s-1.65,3.68-3.68,3.68C45.51,71.56,43.86,69.91,43.86,67.88z
		 M51.42,78.74c-2.03,0-3.68-1.65-3.68-3.67c0-2.03,1.65-3.69,3.68-3.69s3.68,1.66,3.68,3.69C55.1,77.09,53.45,78.74,51.42,78.74z
		 M55.41,71.56c-2.03,0-3.69-1.65-3.69-3.68s1.66-3.68,3.69-3.68s3.68,1.65,3.68,3.68C59.09,69.91,57.44,71.56,55.41,71.56z
		 M59.39,67.85c0-2.03,1.65-3.68,3.68-3.68s3.68,1.65,3.68,3.68s-1.65,3.68-3.68,3.68S59.39,69.88,59.39,67.85z M67.09,78.78
		c-2.03,0-3.68-1.65-3.68-3.68s1.65-3.68,3.68-3.68s3.68,1.65,3.68,3.68S69.12,78.78,67.09,78.78z M71.04,71.53
		c-2.03,0-3.68-1.65-3.68-3.68s1.65-3.68,3.68-3.68s3.68,1.65,3.68,3.68S73.07,71.53,71.04,71.53z M74.74,62.54
		c0-0.78,0.63-1.42,1.41-1.42c0.79,0,1.42,0.64,1.42,1.42s-0.63,1.42-1.42,1.42C75.37,63.96,74.74,63.32,74.74,62.54z M75.41,67.91
		c0-2.03,1.65-3.68,3.68-3.68s3.68,1.65,3.68,3.68s-1.65,3.68-3.68,3.68C77.06,71.59,75.41,69.94,75.41,67.91z M82.97,78.77
		c-2.03,0-3.68-1.65-3.68-3.68s1.65-3.68,3.68-3.68s3.68,1.65,3.68,3.68C86.65,77.12,85,78.77,82.97,78.77z M83.27,67.91
		c0-2.03,1.65-3.68,3.68-3.68s3.68,1.65,3.68,3.68s-1.65,3.68-3.68,3.68C84.92,71.59,83.27,69.94,83.27,67.91z M90.67,78.77
		c-2.03,0-3.68-1.65-3.68-3.68s1.65-3.68,3.68-3.68s3.68,1.65,3.68,3.68C94.35,77.12,92.7,78.77,90.67,78.77z M90.93,67.87
		c0-2.03,1.65-3.68,3.68-3.68s3.69,1.65,3.69,3.68s-1.66,3.68-3.69,3.68S90.93,69.9,90.93,67.87z M98.63,78.8
		c-2.02,0-3.68-1.65-3.68-3.68s1.66-3.68,3.68-3.68c2.03,0,3.69,1.65,3.69,3.68S100.66,78.8,98.63,78.8z M101.86,63.96
		c-0.78,0-1.42-0.64-1.42-1.42s0.64-1.42,1.42-1.42s1.41,0.64,1.41,1.42C103.27,63.32,102.64,63.96,101.86,63.96z M106.57,78.8
		c-2.03,0-3.68-1.65-3.68-3.68s1.65-3.68,3.68-3.68s3.68,1.65,3.68,3.68S108.6,78.8,106.57,78.8z M106.84,67.91
		c0-2.03,1.65-3.68,3.68-3.68s3.68,1.65,3.68,3.68s-1.65,3.68-3.68,3.68C108.49,71.59,106.84,69.94,106.84,67.91z M114.53,78.85
		c-2.03,0-3.68-1.65-3.68-3.68s1.65-3.68,3.68-3.68s3.68,1.65,3.68,3.68S116.56,78.85,114.53,78.85z M118.47,71.63
		c-2.03,0-3.68-1.65-3.68-3.68s1.65-3.68,3.68-3.68s3.69,1.65,3.69,3.68C122.16,69.98,120.5,71.63,118.47,71.63z M122.76,67.95
		c0-2.03,1.65-3.68,3.68-3.68s3.69,1.65,3.69,3.68s-1.66,3.68-3.69,3.68S122.76,69.98,122.76,67.95z M130.43,78.88
		c-2.03,0-3.68-1.65-3.68-3.68s1.65-3.68,3.68-3.68s3.68,1.65,3.68,3.68C134.11,77.23,132.46,78.88,130.43,78.88z M134.38,71.67
		c-2.03,0-3.68-1.65-3.68-3.68s1.65-3.68,3.68-3.68s3.68,1.65,3.68,3.68S136.41,71.67,134.38,71.67z M141.35,61.56
		c-0.78,0-1.41-0.63-1.41-1.41c0-0.79,0.63-1.42,1.41-1.42c0.79,0,1.42,0.63,1.42,1.42C142.77,60.93,142.14,61.56,141.35,61.56z
		 M142.35,47.36c0-1.56,1.27-2.83,2.83-2.83c1.57,0,2.84,1.27,2.84,2.83s-1.27,2.83-2.84,2.83
		C143.62,50.19,142.35,48.92,142.35,47.36z M161.66,71.12c0,4.22-3.44,7.66-7.66,7.66s-7.65-3.44-7.65-7.66s3.43-7.65,7.65-7.65
		C158.22,63.47,161.66,66.9,161.66,71.12z"/>
	<circle cx="26.09" cy="42.91" r="0.85"/>
</g>
</svg>
