<?xml version="1.0" encoding="utf-8"?>
<!-- Generator: Adobe Illustrator 27.0.0, SVG Export Plug-In . SVG Version: 6.00 Build 0)  -->
<svg version="1.1" id="Calque_1" xmlns="http://www.w3.org/2000/svg" xmlns:xlink="http://www.w3.org/1999/xlink" x="0px" y="0px"
	 viewBox="0 0 172.88 106.64" style="enable-background:new 0 0 172.88 106.64;" xml:space="preserve">
<style type="text/css">
	.st0{fill:none;stroke:#000000;stroke-width:0.1;stroke-miterlimit:10;}
</style>
<path class="st0" d="M164.07,97.99H9.9V16.11c0-3.71,3.01-6.73,6.73-6.73h140.7c3.71,0,6.73,3.01,6.73,6.73v81.88H164.07z"/>
<g>
	<path d="M39.1,31.14c0-0.16,0.13-0.28,0.28-0.28h2.78c0.16,0,0.28,0.13,0.28,0.28v2.78c0,0.16-0.13,0.28-0.28,0.28h-2.78
		c-0.16,0-0.28-0.13-0.28-0.28V31.14z"/>
	<path d="M35.07,31.14c0-0.16,0.13-0.28,0.28-0.28h2.78c0.16,0,0.28,0.13,0.28,0.28v2.78c0,0.16-0.13,0.28-0.28,0.28h-2.78
		c-0.16,0-0.28-0.13-0.28-0.28V31.14z"/>
	<path d="M39.1,27.13c0-0.16,0.13-0.28,0.28-0.28h2.78c0.16,0,0.28,0.13,0.28,0.28v2.78c0,0.16-0.13,0.28-0.28,0.28h-2.78
		c-0.16,0-0.28-0.13-0.28-0.28V27.13z"/>
	<path d="M35.07,27.13c0-0.16,0.13-0.28,0.28-0.28h2.78c0.16,0,0.28,0.13,0.28,0.28v2.78c0,0.16-0.13,0.28-0.28,0.28h-2.78
		c-0.16,0-0.28-0.13-0.28-0.28V27.13z"/>
	<path d="M31.37,19.55c0.16,0,0.28,0.13,0.28,0.28v1.91c0,0.16-0.13,0.28-0.28,0.28l0,0c-0.16,0-0.28-0.13-0.28-0.28v-1.91
		C31.09,19.68,31.22,19.55,31.37,19.55L31.37,19.55z"/>
	<path d="M32.51,19.55c0.16,0,0.28,0.13,0.28,0.28v1.91c0,0.16-0.13,0.28-0.28,0.28l0,0c-0.16,0-0.28-0.13-0.28-0.28v-1.91
		C32.22,19.68,32.35,19.55,32.51,19.55L32.51,19.55z"/>
	<path d="M33.64,19.55c0.16,0,0.28,0.13,0.28,0.28v1.91c0,0.16-0.13,0.28-0.28,0.28l0,0c-0.16,0-0.28-0.13-0.28-0.28v-1.91
		C33.36,19.68,33.49,19.55,33.64,19.55L33.64,19.55z"/>
	<path d="M34.78,19.55c0.16,0,0.28,0.13,0.28,0.28v1.91c0,0.16-0.13,0.28-0.28,0.28l0,0c-0.16,0-0.28-0.13-0.28-0.28v-1.91
		C34.49,19.68,34.62,19.55,34.78,19.55L34.78,19.55z"/>
	<path d="M35.91,19.55c0.16,0,0.28,0.13,0.28,0.28v1.91c0,0.16-0.13,0.28-0.28,0.28l0,0c-0.16,0-0.28-0.13-0.28-0.28v-1.91
		C35.63,19.68,35.75,19.55,35.91,19.55L35.91,19.55z"/>
	<path d="M37.04,19.55c0.16,0,0.28,0.13,0.28,0.28v1.91c0,0.16-0.13,0.28-0.28,0.28l0,0c-0.16,0-0.28-0.13-0.28-0.28v-1.91
		C36.76,19.68,36.89,19.55,37.04,19.55L37.04,19.55z"/>
	<path d="M38.18,19.55c0.16,0,0.28,0.13,0.28,0.28v1.91c0,0.16-0.13,0.28-0.28,0.28l0,0c-0.16,0-0.28-0.13-0.28-0.28v-1.91
		C37.89,19.68,38.02,19.55,38.18,19.55L38.18,19.55z"/>
	<path d="M39.31,19.55c0.16,0,0.28,0.13,0.28,0.28v1.91c0,0.16-0.13,0.28-0.28,0.28l0,0c-0.16,0-0.28-0.13-0.28-0.28v-1.91
		C39.03,19.68,39.15,19.55,39.31,19.55L39.31,19.55z"/>
	<path d="M40.44,19.55c0.16,0,0.28,0.13,0.28,0.28v1.91c0,0.16-0.13,0.28-0.28,0.28l0,0c-0.16,0-0.28-0.13-0.28-0.28v-1.91
		C40.16,19.68,40.29,19.55,40.44,19.55L40.44,19.55z"/>
	<path d="M41.58,19.55c0.16,0,0.28,0.13,0.28,0.28v1.91c0,0.16-0.13,0.28-0.28,0.28l0,0c-0.16,0-0.28-0.13-0.28-0.28v-1.91
		C41.29,19.68,41.42,19.55,41.58,19.55L41.58,19.55z"/>
	<path d="M42.71,19.55c0.16,0,0.28,0.13,0.28,0.28v1.91c0,0.16-0.13,0.28-0.28,0.28l0,0c-0.16,0-0.28-0.13-0.28-0.28v-1.91
		C42.43,19.68,42.56,19.55,42.71,19.55L42.71,19.55z"/>
	<path d="M43.85,19.55c0.16,0,0.28,0.13,0.28,0.28v1.91c0,0.16-0.13,0.28-0.28,0.28l0,0c-0.16,0-0.28-0.13-0.28-0.28v-1.91
		C43.56,19.68,43.69,19.55,43.85,19.55L43.85,19.55z"/>
	<path d="M44.98,19.55c0.16,0,0.28,0.13,0.28,0.28v1.91c0,0.16-0.13,0.28-0.28,0.28l0,0c-0.16,0-0.28-0.13-0.28-0.28v-1.91
		C44.7,19.68,44.82,19.55,44.98,19.55L44.98,19.55z"/>
	<path d="M46.11,19.55c0.16,0,0.28,0.13,0.28,0.28v1.91c0,0.16-0.13,0.28-0.28,0.28l0,0c-0.16,0-0.28-0.13-0.28-0.28v-1.91
		C45.83,19.68,45.96,19.55,46.11,19.55L46.11,19.55z"/>
	<path d="M27.76,37.91c0-0.16,0.13-0.28,0.28-0.28h1.91c0.16,0,0.28,0.13,0.28,0.28l0,0c0,0.16-0.13,0.28-0.28,0.28h-1.91
		C27.89,38.19,27.76,38.06,27.76,37.91L27.76,37.91z"/>
	<path d="M27.76,36.77c0-0.16,0.13-0.28,0.28-0.28h1.91c0.16,0,0.28,0.13,0.28,0.28l0,0c0,0.16-0.13,0.28-0.28,0.28h-1.91
		C27.89,37.05,27.76,36.93,27.76,36.77L27.76,36.77z"/>
	<path d="M27.76,35.64c0-0.16,0.13-0.28,0.28-0.28h1.91c0.16,0,0.28,0.13,0.28,0.28l0,0c0,0.16-0.13,0.28-0.28,0.28h-1.91
		C27.89,35.92,27.76,35.79,27.76,35.64L27.76,35.64z"/>
	<path d="M27.76,34.5c0-0.16,0.13-0.28,0.28-0.28h1.91c0.16,0,0.28,0.13,0.28,0.28l0,0c0,0.16-0.13,0.28-0.28,0.28h-1.91
		C27.89,34.79,27.76,34.66,27.76,34.5L27.76,34.5z"/>
	<path d="M27.76,33.37c0-0.16,0.13-0.28,0.28-0.28h1.91c0.16,0,0.28,0.13,0.28,0.28l0,0c0,0.16-0.13,0.28-0.28,0.28h-1.91
		C27.89,33.65,27.76,33.53,27.76,33.37L27.76,33.37z"/>
	<path d="M27.76,32.24c0-0.16,0.13-0.28,0.28-0.28h1.91c0.16,0,0.28,0.13,0.28,0.28l0,0c0,0.16-0.13,0.28-0.28,0.28h-1.91
		C27.89,32.52,27.76,32.39,27.76,32.24L27.76,32.24z"/>
	<path d="M27.76,31.1c0-0.16,0.13-0.28,0.28-0.28h1.91c0.16,0,0.28,0.13,0.28,0.28l0,0c0,0.16-0.13,0.28-0.28,0.28h-1.91
		C27.89,31.39,27.76,31.26,27.76,31.1L27.76,31.1z"/>
	<path d="M27.76,29.97c0-0.16,0.13-0.28,0.28-0.28h1.91c0.16,0,0.28,0.13,0.28,0.28l0,0c0,0.16-0.13,0.28-0.28,0.28h-1.91
		C27.89,30.25,27.76,30.12,27.76,29.97L27.76,29.97z"/>
	<path d="M27.76,28.83c0-0.16,0.13-0.28,0.28-0.28h1.91c0.16,0,0.28,0.13,0.28,0.28l0,0c0,0.16-0.13,0.28-0.28,0.28h-1.91
		C27.89,29.12,27.76,28.99,27.76,28.83L27.76,28.83z"/>
	<path d="M27.76,27.7c0-0.16,0.13-0.28,0.28-0.28h1.91c0.16,0,0.28,0.13,0.28,0.28l0,0c0,0.16-0.13,0.28-0.28,0.28h-1.91
		C27.89,27.98,27.76,27.86,27.76,27.7L27.76,27.7z"/>
	<path d="M27.76,26.57c0-0.16,0.13-0.28,0.28-0.28h1.91c0.16,0,0.28,0.13,0.28,0.28l0,0c0,0.16-0.13,0.28-0.28,0.28h-1.91
		C27.89,26.85,27.76,26.72,27.76,26.57L27.76,26.57z"/>
	<path d="M27.76,25.43c0-0.16,0.13-0.28,0.28-0.28h1.91c0.16,0,0.28,0.13,0.28,0.28l0,0c0,0.16-0.13,0.28-0.28,0.28h-1.91
		C27.89,25.72,27.76,25.59,27.76,25.43L27.76,25.43z"/>
	<path d="M27.76,24.3c0-0.16,0.13-0.28,0.28-0.28h1.91c0.16,0,0.28,0.13,0.28,0.28l0,0c0,0.16-0.13,0.28-0.28,0.28h-1.91
		C27.89,24.58,27.76,24.45,27.76,24.3L27.76,24.3z"/>
	<path d="M27.76,23.17c0-0.16,0.13-0.28,0.28-0.28h1.91c0.16,0,0.28,0.13,0.28,0.28l0,0c0,0.16-0.13,0.28-0.28,0.28h-1.91
		C27.89,23.45,27.76,23.32,27.76,23.17L27.76,23.17z"/>
	<path d="M46.11,41.52c-0.16,0-0.28-0.13-0.28-0.28v-1.91c0-0.16,0.13-0.28,0.28-0.28c0.16,0,0.28,0.13,0.28,0.28v1.91
		C46.4,41.39,46.27,41.52,46.11,41.52z"/>
	<path d="M44.98,41.52c-0.16,0-0.28-0.13-0.28-0.28v-1.91c0-0.16,0.13-0.28,0.28-0.28c0.16,0,0.28,0.13,0.28,0.28v1.91
		C45.26,41.39,45.14,41.52,44.98,41.52z"/>
	<path d="M43.85,41.52c-0.16,0-0.28-0.13-0.28-0.28v-1.91c0-0.16,0.13-0.28,0.28-0.28s0.28,0.13,0.28,0.28v1.91
		C44.13,41.39,44,41.52,43.85,41.52z"/>
	<path d="M42.71,41.52c-0.16,0-0.28-0.13-0.28-0.28v-1.91c0-0.16,0.13-0.28,0.28-0.28S43,39.17,43,39.32v1.91
		C43,41.39,42.87,41.52,42.71,41.52z"/>
	<path d="M41.58,41.52c-0.16,0-0.28-0.13-0.28-0.28v-1.91c0-0.16,0.13-0.28,0.28-0.28s0.28,0.13,0.28,0.28v1.91
		C41.86,41.39,41.73,41.52,41.58,41.52z"/>
	<path d="M40.44,41.52c-0.16,0-0.28-0.13-0.28-0.28v-1.91c0-0.16,0.13-0.28,0.28-0.28c0.16,0,0.28,0.13,0.28,0.28v1.91
		C40.73,41.39,40.6,41.52,40.44,41.52z"/>
	<path d="M39.31,41.52c-0.16,0-0.28-0.13-0.28-0.28v-1.91c0-0.16,0.13-0.28,0.28-0.28c0.16,0,0.28,0.13,0.28,0.28v1.91
		C39.59,41.39,39.47,41.52,39.31,41.52z"/>
	<path d="M38.18,41.52c-0.16,0-0.28-0.13-0.28-0.28v-1.91c0-0.16,0.13-0.28,0.28-0.28c0.16,0,0.28,0.13,0.28,0.28v1.91
		C38.46,41.39,38.33,41.52,38.18,41.52z"/>
	<path d="M37.04,41.52c-0.16,0-0.28-0.13-0.28-0.28v-1.91c0-0.16,0.13-0.28,0.28-0.28c0.16,0,0.28,0.13,0.28,0.28v1.91
		C37.33,41.39,37.2,41.52,37.04,41.52z"/>
	<path d="M35.91,41.52c-0.16,0-0.28-0.13-0.28-0.28v-1.91c0-0.16,0.13-0.28,0.28-0.28s0.28,0.13,0.28,0.28v1.91
		C36.19,41.39,36.06,41.52,35.91,41.52z"/>
	<path d="M34.78,41.52c-0.16,0-0.28-0.13-0.28-0.28v-1.91c0-0.16,0.13-0.28,0.28-0.28s0.28,0.13,0.28,0.28v1.91
		C35.06,41.39,34.93,41.52,34.78,41.52z"/>
	<path d="M33.64,41.52c-0.16,0-0.28-0.13-0.28-0.28v-1.91c0-0.16,0.13-0.28,0.28-0.28s0.28,0.13,0.28,0.28v1.91
		C33.92,41.39,33.8,41.52,33.64,41.52z"/>
	<path d="M32.51,41.52c-0.16,0-0.28-0.13-0.28-0.28v-1.91c0-0.16,0.13-0.28,0.28-0.28c0.16,0,0.28,0.13,0.28,0.28v1.91
		C32.79,41.39,32.66,41.52,32.51,41.52z"/>
	<path d="M31.37,41.52c-0.16,0-0.28-0.13-0.28-0.28v-1.91c0-0.16,0.13-0.28,0.28-0.28c0.16,0,0.28,0.13,0.28,0.28v1.91
		C31.66,41.39,31.53,41.52,31.37,41.52z"/>
	<path d="M49.73,23.17c0,0.16-0.13,0.28-0.28,0.28h-1.91c-0.16,0-0.28-0.13-0.28-0.28c0-0.16,0.13-0.28,0.28-0.28h1.91
		C49.6,22.88,49.73,23.01,49.73,23.17z"/>
	<path d="M49.73,24.3c0,0.16-0.13,0.28-0.28,0.28h-1.91c-0.16,0-0.28-0.13-0.28-0.28c0-0.16,0.13-0.28,0.28-0.28h1.91
		C49.6,24.02,49.73,24.14,49.73,24.3z"/>
	<path d="M49.73,25.43c0,0.16-0.13,0.28-0.28,0.28h-1.91c-0.16,0-0.28-0.13-0.28-0.28c0-0.16,0.13-0.28,0.28-0.28h1.91
		C49.6,25.15,49.73,25.28,49.73,25.43z"/>
	<path d="M49.73,26.57c0,0.16-0.13,0.28-0.28,0.28h-1.91c-0.16,0-0.28-0.13-0.28-0.28s0.13-0.28,0.28-0.28h1.91
		C49.6,26.28,49.73,26.41,49.73,26.57z"/>
	<path d="M49.73,27.7c0,0.16-0.13,0.28-0.28,0.28h-1.91c-0.16,0-0.28-0.13-0.28-0.28c0-0.16,0.13-0.28,0.28-0.28h1.91
		C49.6,27.42,49.73,27.54,49.73,27.7z"/>
	<path d="M49.73,28.83c0,0.16-0.13,0.28-0.28,0.28h-1.91c-0.16,0-0.28-0.13-0.28-0.28c0-0.16,0.13-0.28,0.28-0.28h1.91
		C49.6,28.55,49.73,28.68,49.73,28.83z"/>
	<path d="M49.73,29.97c0,0.16-0.13,0.28-0.28,0.28h-1.91c-0.16,0-0.28-0.13-0.28-0.28c0-0.16,0.13-0.28,0.28-0.28h1.91
		C49.6,29.68,49.73,29.81,49.73,29.97z"/>
	<path d="M49.73,31.1c0,0.16-0.13,0.28-0.28,0.28h-1.91c-0.16,0-0.28-0.13-0.28-0.28s0.13-0.28,0.28-0.28h1.91
		C49.6,30.82,49.73,30.95,49.73,31.1z"/>
	<path d="M49.73,32.24c0,0.16-0.13,0.28-0.28,0.28h-1.91c-0.16,0-0.28-0.13-0.28-0.28s0.13-0.28,0.28-0.28h1.91
		C49.6,31.95,49.73,32.08,49.73,32.24z"/>
	<path d="M49.73,33.37c0,0.16-0.13,0.28-0.28,0.28h-1.91c-0.16,0-0.28-0.13-0.28-0.28c0-0.16,0.13-0.28,0.28-0.28h1.91
		C49.6,33.09,49.73,33.21,49.73,33.37z"/>
	<path d="M49.73,34.5c0,0.16-0.13,0.28-0.28,0.28h-1.91c-0.16,0-0.28-0.13-0.28-0.28c0-0.16,0.13-0.28,0.28-0.28h1.91
		C49.6,34.22,49.73,34.35,49.73,34.5z"/>
	<path d="M49.73,35.64c0,0.16-0.13,0.28-0.28,0.28h-1.91c-0.16,0-0.28-0.13-0.28-0.28c0-0.16,0.13-0.28,0.28-0.28h1.91
		C49.6,35.35,49.73,35.48,49.73,35.64z"/>
	<path d="M49.73,36.77c0,0.16-0.13,0.28-0.28,0.28h-1.91c-0.16,0-0.28-0.13-0.28-0.28c0-0.16,0.13-0.28,0.28-0.28h1.91
		C49.6,36.49,49.73,36.62,49.73,36.77z"/>
	<path d="M49.73,37.91c0,0.16-0.13,0.28-0.28,0.28h-1.91c-0.16,0-0.28-0.13-0.28-0.28s0.13-0.28,0.28-0.28h1.91
		C49.6,37.62,49.73,37.75,49.73,37.91z"/>
	<path d="M31.36,50.85c0.16,0,0.28-0.13,0.28-0.28V49.4c0-0.16-0.13-0.28-0.28-0.28h-2.67c-0.16,0-0.28,0.13-0.28,0.28v1.17
		c0,0.16,0.13,0.28,0.28,0.28H31.36z"/>
	<path d="M24.97,50.81c0.16,0,0.28-0.13,0.28-0.28v-1.08c0-0.16-0.13-0.28-0.28-0.28h-2.68c-0.16,0-0.28,0.13-0.28,0.28v1.08
		c0,0.16,0.13,0.28,0.28,0.28H24.97z"/>
	<path d="M25.04,56.21c0.16,0,0.28-0.13,0.28-0.28v-1.12c0-0.16-0.13-0.28-0.28-0.28h-2.75c-0.16,0-0.28,0.13-0.28,0.28v1.12
		c0,0.16,0.13,0.28,0.28,0.28H25.04z"/>
	<path d="M31.42,56.21c0.16,0,0.28-0.13,0.28-0.28v-1.16c0-0.16-0.13-0.28-0.28-0.28h-2.74c-0.16,0-0.28,0.13-0.28,0.28v1.16
		c0,0.16,0.13,0.28,0.28,0.28H31.42z"/>
	<path d="M24.97,53.51c0.16,0,0.28-0.13,0.28-0.28v-1.04c0-0.16-0.13-0.28-0.28-0.28h-2.68c-0.16,0-0.28,0.13-0.28,0.28v1.04
		c0,0.16,0.13,0.28,0.28,0.28H24.97z"/>
	<path d="M29.19,61.1c0,0.16,0.13,0.28,0.28,0.28h2.03c0.16,0,0.28-0.13,0.28-0.28v-2.75c0-0.16-0.13-0.28-0.28-0.28h-2.03
		c-0.16,0-0.28,0.13-0.28,0.28V61.1z"/>
	<path d="M23.55,61.1c0,0.16,0.13,0.28,0.28,0.28h2.03c0.16,0,0.28-0.13,0.28-0.28v-2.75c0-0.16-0.13-0.28-0.28-0.28h-2.03
		c-0.16,0-0.28,0.13-0.28,0.28V61.1z"/>
	<path d="M117.22,51.05c0.16,0,0.28,0.13,0.28,0.28v1.42c0,0.16-0.13,0.28-0.28,0.28h-3.97c-0.16,0-0.28-0.13-0.28-0.28v-1.42
		c0-0.16,0.13-0.28,0.28-0.28H117.22z"/>
	<path d="M117.22,47.93c0.16,0,0.28,0.13,0.28,0.28v1.42c0,0.16-0.13,0.28-0.28,0.28h-3.97c-0.16,0-0.28-0.13-0.28-0.28v-1.42
		c0-0.16,0.13-0.28,0.28-0.28H117.22z"/>
	<path d="M117.22,44.81c0.16,0,0.28,0.13,0.28,0.28v1.42c0,0.16-0.13,0.28-0.28,0.28h-3.97c-0.16,0-0.28-0.13-0.28-0.28V45.1
		c0-0.16,0.13-0.28,0.28-0.28L117.22,44.81L117.22,44.81z"/>
	<path d="M117.22,41.69c0.16,0,0.28,0.13,0.28,0.28v1.42c0,0.16-0.13,0.28-0.28,0.28h-3.97c-0.16,0-0.28-0.13-0.28-0.28v-1.42
		c0-0.16,0.13-0.28,0.28-0.28H117.22z"/>
	<path d="M117.22,38.58c0.16,0,0.28,0.13,0.28,0.28v1.42c0,0.16-0.13,0.28-0.28,0.28h-3.97c-0.16,0-0.28-0.13-0.28-0.28v-1.42
		c0-0.16,0.13-0.28,0.28-0.28H117.22z"/>
	<path d="M117.22,35.46c0.16,0,0.28,0.13,0.28,0.28v1.42c0,0.16-0.13,0.28-0.28,0.28h-3.97c-0.16,0-0.28-0.13-0.28-0.28v-1.42
		c0-0.16,0.13-0.28,0.28-0.28H117.22z"/>
	<path d="M117.22,32.34c0.16,0,0.28,0.13,0.28,0.28v1.42c0,0.16-0.13,0.28-0.28,0.28h-3.97c-0.16,0-0.28-0.13-0.28-0.28v-1.42
		c0-0.16,0.13-0.28,0.28-0.28H117.22z"/>
	<path d="M117.22,29.22c0.16,0,0.28,0.13,0.28,0.28v1.42c0,0.16-0.13,0.28-0.28,0.28h-3.97c-0.16,0-0.28-0.13-0.28-0.28V29.5
		c0-0.16,0.13-0.28,0.28-0.28H117.22z"/>
	<path d="M117.22,26.1c0.16,0,0.28,0.13,0.28,0.28v1.42c0,0.16-0.13,0.28-0.28,0.28h-3.97c-0.16,0-0.28-0.13-0.28-0.28v-1.42
		c0-0.16,0.13-0.28,0.28-0.28H117.22z"/>
	<path d="M114.7,55.36c0-0.16,0.13-0.28,0.28-0.28h3.4c0.16,0,0.28,0.13,0.28,0.28v2.27c0,0.16-0.13,0.28-0.28,0.28h-3.4
		c-0.16,0-0.28-0.13-0.28-0.28V55.36z"/>
	<path d="M141.07,11.08c0-0.16,0.13-0.28,0.28-0.28h5.67c0.16,0,0.28,0.13,0.28,0.28v2.83c0,0.16-0.13,0.28-0.28,0.28h-5.67
		c-0.16,0-0.28-0.13-0.28-0.28V11.08z"/>
	<path d="M141.07,54.95c0-0.16,0.13-0.28,0.28-0.28h5.67c0.16,0,0.28,0.13,0.28,0.28v2.83c0,0.16-0.13,0.28-0.28,0.28h-5.67
		c-0.16,0-0.28-0.13-0.28-0.28V54.95z"/>
	<path d="M114.7,13.05c0-0.16,0.13-0.28,0.28-0.28h3.4c0.16,0,0.28,0.13,0.28,0.28v3.97c0,0.16-0.13,0.28-0.28,0.28h-3.4
		c-0.16,0-0.28-0.13-0.28-0.28V13.05z"/>
	<path d="M161.31,14.97c0.16,0,0.28-0.13,0.28-0.28v-1.03c0-0.16-0.13-0.28-0.28-0.28h-1.75c-0.16,0-0.28,0.13-0.28,0.28v1.03
		c0,0.16,0.13,0.28,0.28,0.28H161.31z"/>
	<path d="M161.31,19.61c0.16,0,0.28-0.13,0.28-0.28V18.3c0-0.16-0.13-0.28-0.28-0.28h-1.75c-0.16,0-0.28,0.13-0.28,0.28v1.03
		c0,0.16,0.13,0.28,0.28,0.28H161.31z"/>
	<path d="M57.72,37.88c0,0.16-0.13,0.28-0.28,0.28h-0.62c-0.16,0-0.28-0.13-0.28-0.28v-2.96c0-0.16,0.13-0.28,0.28-0.28h0.62
		c0.16,0,0.28,0.13,0.28,0.28V37.88z"/>
	<path d="M59.56,37.88c0,0.16-0.13,0.28-0.28,0.28h-0.62c-0.16,0-0.28-0.13-0.28-0.28v-2.96c0-0.16,0.13-0.28,0.28-0.28h0.62
		c0.16,0,0.28,0.13,0.28,0.28V37.88z"/>
	<path d="M61.4,37.88c0,0.16-0.13,0.28-0.28,0.28H60.5c-0.16,0-0.28-0.13-0.28-0.28v-2.96c0-0.16,0.13-0.28,0.28-0.28h0.62
		c0.16,0,0.28,0.13,0.28,0.28C61.4,34.92,61.4,37.88,61.4,37.88z"/>
	<path d="M63.25,37.88c0,0.16-0.13,0.28-0.28,0.28h-0.62c-0.16,0-0.28-0.13-0.28-0.28v-2.96c0-0.16,0.13-0.28,0.28-0.28h0.62
		c0.16,0,0.28,0.13,0.28,0.28V37.88z"/>
	<path d="M65.09,37.88c0,0.16-0.13,0.28-0.28,0.28h-0.62c-0.16,0-0.28-0.13-0.28-0.28v-2.96c0-0.16,0.13-0.28,0.28-0.28h0.62
		c0.16,0,0.28,0.13,0.28,0.28V37.88z"/>
	<path d="M66.93,37.88c0,0.16-0.13,0.28-0.28,0.28h-0.62c-0.16,0-0.28-0.13-0.28-0.28v-2.96c0-0.16,0.13-0.28,0.28-0.28h0.62
		c0.16,0,0.28,0.13,0.28,0.28V37.88z"/>
	<path d="M57.72,53.76c0,0.16-0.13,0.28-0.28,0.28h-0.62c-0.16,0-0.28-0.13-0.28-0.28V50.8c0-0.16,0.13-0.28,0.28-0.28h0.62
		c0.16,0,0.28,0.13,0.28,0.28V53.76z"/>
	<path d="M59.56,53.76c0,0.16-0.13,0.28-0.28,0.28h-0.62c-0.16,0-0.28-0.13-0.28-0.28V50.8c0-0.16,0.13-0.28,0.28-0.28h0.62
		c0.16,0,0.28,0.13,0.28,0.28V53.76z"/>
	<path d="M61.4,53.76c0,0.16-0.13,0.28-0.28,0.28H60.5c-0.16,0-0.28-0.13-0.28-0.28V50.8c0-0.16,0.13-0.28,0.28-0.28h0.62
		c0.16,0,0.28,0.13,0.28,0.28C61.4,50.8,61.4,53.76,61.4,53.76z"/>
	<path d="M63.25,53.76c0,0.16-0.13,0.28-0.28,0.28h-0.62c-0.16,0-0.28-0.13-0.28-0.28V50.8c0-0.16,0.13-0.28,0.28-0.28h0.62
		c0.16,0,0.28,0.13,0.28,0.28V53.76z"/>
	<path d="M65.09,53.76c0,0.16-0.13,0.28-0.28,0.28h-0.62c-0.16,0-0.28-0.13-0.28-0.28V50.8c0-0.16,0.13-0.28,0.28-0.28h0.62
		c0.16,0,0.28,0.13,0.28,0.28V53.76z"/>
	<path d="M66.93,53.76c0,0.16-0.13,0.28-0.28,0.28h-0.62c-0.16,0-0.28-0.13-0.28-0.28V50.8c0-0.16,0.13-0.28,0.28-0.28h0.62
		c0.16,0,0.28,0.13,0.28,0.28V53.76z"/>
	<path d="M68.77,37.88c0,0.16-0.13,0.28-0.28,0.28h-0.62c-0.16,0-0.28-0.13-0.28-0.28v-2.96c0-0.16,0.13-0.28,0.28-0.28h0.62
		c0.16,0,0.28,0.13,0.28,0.28V37.88z"/>
	<path d="M70.62,37.88c0,0.16-0.13,0.28-0.28,0.28h-0.62c-0.16,0-0.28-0.13-0.28-0.28v-2.96c0-0.16,0.13-0.28,0.28-0.28h0.62
		c0.16,0,0.28,0.13,0.28,0.28V37.88z"/>
	<path d="M72.46,37.88c0,0.16-0.13,0.28-0.28,0.28h-0.62c-0.16,0-0.28-0.13-0.28-0.28v-2.96c0-0.16,0.13-0.28,0.28-0.28h0.62
		c0.16,0,0.28,0.13,0.28,0.28V37.88z"/>
	<path d="M74.3,37.88c0,0.16-0.13,0.28-0.28,0.28H73.4c-0.16,0-0.28-0.13-0.28-0.28v-2.96c0-0.16,0.13-0.28,0.28-0.28h0.62
		c0.16,0,0.28,0.13,0.28,0.28V37.88z"/>
	<path d="M68.77,53.76c0,0.16-0.13,0.28-0.28,0.28h-0.62c-0.16,0-0.28-0.13-0.28-0.28V50.8c0-0.16,0.13-0.28,0.28-0.28h0.62
		c0.16,0,0.28,0.13,0.28,0.28V53.76z"/>
	<path d="M70.62,53.76c0,0.16-0.13,0.28-0.28,0.28h-0.62c-0.16,0-0.28-0.13-0.28-0.28V50.8c0-0.16,0.13-0.28,0.28-0.28h0.62
		c0.16,0,0.28,0.13,0.28,0.28V53.76z"/>
	<path d="M72.46,53.76c0,0.16-0.13,0.28-0.28,0.28h-0.62c-0.16,0-0.28-0.13-0.28-0.28V50.8c0-0.16,0.13-0.28,0.28-0.28h0.62
		c0.16,0,0.28,0.13,0.28,0.28V53.76z"/>
	<path d="M74.3,53.76c0,0.16-0.13,0.28-0.28,0.28H73.4c-0.16,0-0.28-0.13-0.28-0.28V50.8c0-0.16,0.13-0.28,0.28-0.28h0.62
		c0.16,0,0.28,0.13,0.28,0.28V53.76z"/>
	<path d="M93.86,37.88c0,0.16-0.13,0.28-0.28,0.28h-0.62c-0.16,0-0.28-0.13-0.28-0.28v-2.96c0-0.16,0.13-0.28,0.28-0.28h0.62
		c0.16,0,0.28,0.13,0.28,0.28V37.88z"/>
	<path d="M95.7,37.88c0,0.16-0.13,0.28-0.28,0.28H94.8c-0.16,0-0.28-0.13-0.28-0.28v-2.96c0-0.16,0.13-0.28,0.28-0.28h0.62
		c0.16,0,0.28,0.13,0.28,0.28V37.88z"/>
	<path d="M97.54,37.88c0,0.16-0.13,0.28-0.28,0.28h-0.62c-0.16,0-0.28-0.13-0.28-0.28v-2.96c0-0.16,0.13-0.28,0.28-0.28h0.62
		c0.16,0,0.28,0.13,0.28,0.28V37.88z"/>
	<path d="M99.39,37.88c0,0.16-0.13,0.28-0.28,0.28h-0.62c-0.16,0-0.28-0.13-0.28-0.28v-2.96c0-0.16,0.13-0.28,0.28-0.28h0.62
		c0.16,0,0.28,0.13,0.28,0.28V37.88z"/>
	<path d="M101.23,37.88c0,0.16-0.13,0.28-0.28,0.28h-0.62c-0.16,0-0.28-0.13-0.28-0.28v-2.96c0-0.16,0.13-0.28,0.28-0.28h0.62
		c0.16,0,0.28,0.13,0.28,0.28V37.88z"/>
	<path d="M103.07,37.88c0,0.16-0.13,0.28-0.28,0.28h-0.62c-0.16,0-0.28-0.13-0.28-0.28v-2.96c0-0.16,0.13-0.28,0.28-0.28h0.62
		c0.16,0,0.28,0.13,0.28,0.28V37.88z"/>
	<path d="M93.86,53.76c0,0.16-0.13,0.28-0.28,0.28h-0.62c-0.16,0-0.28-0.13-0.28-0.28V50.8c0-0.16,0.13-0.28,0.28-0.28h0.62
		c0.16,0,0.28,0.13,0.28,0.28V53.76z"/>
	<path d="M95.7,53.76c0,0.16-0.13,0.28-0.28,0.28H94.8c-0.16,0-0.28-0.13-0.28-0.28V50.8c0-0.16,0.13-0.28,0.28-0.28h0.62
		c0.16,0,0.28,0.13,0.28,0.28V53.76z"/>
	<path d="M97.54,53.76c0,0.16-0.13,0.28-0.28,0.28h-0.62c-0.16,0-0.28-0.13-0.28-0.28V50.8c0-0.16,0.13-0.28,0.28-0.28h0.62
		c0.16,0,0.28,0.13,0.28,0.28V53.76z"/>
	<path d="M99.39,53.76c0,0.16-0.13,0.28-0.28,0.28h-0.62c-0.16,0-0.28-0.13-0.28-0.28V50.8c0-0.16,0.13-0.28,0.28-0.28h0.62
		c0.16,0,0.28,0.13,0.28,0.28V53.76z"/>
	<path d="M101.23,53.76c0,0.16-0.13,0.28-0.28,0.28h-0.62c-0.16,0-0.28-0.13-0.28-0.28V50.8c0-0.16,0.13-0.28,0.28-0.28h0.62
		c0.16,0,0.28,0.13,0.28,0.28V53.76z"/>
	<path d="M103.07,53.76c0,0.16-0.13,0.28-0.28,0.28h-0.62c-0.16,0-0.28-0.13-0.28-0.28V50.8c0-0.16,0.13-0.28,0.28-0.28h0.62
		c0.16,0,0.28,0.13,0.28,0.28V53.76z"/>
	<path d="M104.91,37.88c0,0.16-0.13,0.28-0.28,0.28h-0.62c-0.16,0-0.28-0.13-0.28-0.28v-2.96c0-0.16,0.13-0.28,0.28-0.28h0.62
		c0.16,0,0.28,0.13,0.28,0.28V37.88z"/>
	<path d="M106.76,37.88c0,0.16-0.13,0.28-0.28,0.28h-0.62c-0.16,0-0.28-0.13-0.28-0.28v-2.96c0-0.16,0.13-0.28,0.28-0.28h0.62
		c0.16,0,0.28,0.13,0.28,0.28V37.88z"/>
	<path d="M108.6,37.88c0,0.16-0.13,0.28-0.28,0.28h-0.62c-0.16,0-0.28-0.13-0.28-0.28v-2.96c0-0.16,0.13-0.28,0.28-0.28h0.62
		c0.16,0,0.28,0.13,0.28,0.28V37.88z"/>
	<path d="M110.44,37.88c0,0.16-0.13,0.28-0.28,0.28h-0.62c-0.16,0-0.28-0.13-0.28-0.28v-2.96c0-0.16,0.13-0.28,0.28-0.28h0.62
		c0.16,0,0.28,0.13,0.28,0.28V37.88z"/>
	<path d="M104.91,53.76c0,0.16-0.13,0.28-0.28,0.28h-0.62c-0.16,0-0.28-0.13-0.28-0.28V50.8c0-0.16,0.13-0.28,0.28-0.28h0.62
		c0.16,0,0.28,0.13,0.28,0.28V53.76z"/>
	<path d="M106.76,53.76c0,0.16-0.13,0.28-0.28,0.28h-0.62c-0.16,0-0.28-0.13-0.28-0.28V50.8c0-0.16,0.13-0.28,0.28-0.28h0.62
		c0.16,0,0.28,0.13,0.28,0.28V53.76z"/>
	<path d="M108.6,53.76c0,0.16-0.13,0.28-0.28,0.28h-0.62c-0.16,0-0.28-0.13-0.28-0.28V50.8c0-0.16,0.13-0.28,0.28-0.28h0.62
		c0.16,0,0.28,0.13,0.28,0.28V53.76z"/>
	<path d="M110.44,53.76c0,0.16-0.13,0.28-0.28,0.28h-0.62c-0.16,0-0.28-0.13-0.28-0.28V50.8c0-0.16,0.13-0.28,0.28-0.28h0.62
		c0.16,0,0.28,0.13,0.28,0.28V53.76z"/>
	<path d="M14.89,39.11c0.11,0,0.2-0.09,0.2-0.2v-0.49c0-0.11-0.09-0.2-0.2-0.2h-1.2c-0.11,0-0.2,0.09-0.2,0.2v0.49
		c0,0.11,0.09,0.2,0.2,0.2H14.89z"/>
	<path d="M14.89,37.69c0.11,0,0.2-0.09,0.2-0.2V37c0-0.11-0.09-0.2-0.2-0.2h-1.2c-0.11,0-0.2,0.09-0.2,0.2v0.49
		c0,0.11,0.09,0.2,0.2,0.2C13.69,37.69,14.89,37.69,14.89,37.69z"/>
	<path d="M14.89,36.27c0.11,0,0.2-0.09,0.2-0.2v-0.49c0-0.11-0.09-0.2-0.2-0.2h-1.2c-0.11,0-0.2,0.09-0.2,0.2v0.49
		c0,0.11,0.09,0.2,0.2,0.2H14.89z"/>
	<path d="M14.89,34.85c0.11,0,0.2-0.09,0.2-0.2v-0.49c0-0.11-0.09-0.2-0.2-0.2h-1.2c-0.11,0-0.2,0.09-0.2,0.2v0.49
		c0,0.11,0.09,0.2,0.2,0.2H14.89z"/>
	<path d="M22.26,39.11c0.11,0,0.2-0.09,0.2-0.2v-0.49c0-0.11-0.09-0.2-0.2-0.2h-1.2c-0.11,0-0.2,0.09-0.2,0.2v0.49
		c0,0.11,0.09,0.2,0.2,0.2H22.26z"/>
	<path d="M22.26,37.69c0.11,0,0.2-0.09,0.2-0.2V37c0-0.11-0.09-0.2-0.2-0.2h-1.2c-0.11,0-0.2,0.09-0.2,0.2v0.49
		c0,0.11,0.09,0.2,0.2,0.2C21.06,37.69,22.26,37.69,22.26,37.69z"/>
	<path d="M22.26,36.27c0.11,0,0.2-0.09,0.2-0.2v-0.49c0-0.11-0.09-0.2-0.2-0.2h-1.2c-0.11,0-0.2,0.09-0.2,0.2v0.49
		c0,0.11,0.09,0.2,0.2,0.2H22.26z"/>
	<path d="M22.26,34.85c0.11,0,0.2-0.09,0.2-0.2v-0.49c0-0.11-0.09-0.2-0.2-0.2h-1.2c-0.11,0-0.2,0.09-0.2,0.2v0.49
		c0,0.11,0.09,0.2,0.2,0.2H22.26z"/>
	<path d="M89.43,37.88c0,0.16-0.13,0.28-0.28,0.28h-0.62c-0.16,0-0.28-0.13-0.28-0.28v-2.96c0-0.16,0.13-0.28,0.28-0.28h0.62
		c0.16,0,0.28,0.13,0.28,0.28V37.88z"/>
	<path d="M78.37,37.88c0,0.16-0.13,0.28-0.28,0.28h-0.62c-0.16,0-0.28-0.13-0.28-0.28v-2.96c0-0.16,0.13-0.28,0.28-0.28h0.62
		c0.16,0,0.28,0.13,0.28,0.28V37.88z"/>
	<path d="M80.21,37.88c0,0.16-0.13,0.28-0.28,0.28h-0.62c-0.16,0-0.28-0.13-0.28-0.28v-2.96c0-0.16,0.13-0.28,0.28-0.28h0.62
		c0.16,0,0.28,0.13,0.28,0.28V37.88z"/>
	<path d="M82.06,37.88c0,0.16-0.13,0.28-0.28,0.28h-0.62c-0.16,0-0.28-0.13-0.28-0.28v-2.96c0-0.16,0.13-0.28,0.28-0.28h0.62
		c0.16,0,0.28,0.13,0.28,0.28V37.88z"/>
	<path d="M83.9,37.88c0,0.16-0.13,0.28-0.28,0.28H83c-0.16,0-0.28-0.13-0.28-0.28v-2.96c0-0.16,0.13-0.28,0.28-0.28h0.62
		c0.16,0,0.28,0.13,0.28,0.28V37.88z"/>
	<path d="M85.74,37.88c0,0.16-0.13,0.28-0.28,0.28h-0.62c-0.16,0-0.28-0.13-0.28-0.28v-2.96c0-0.16,0.13-0.28,0.28-0.28h0.62
		c0.16,0,0.28,0.13,0.28,0.28V37.88z"/>
	<path d="M87.58,37.88c0,0.16-0.13,0.28-0.28,0.28h-0.62c-0.16,0-0.28-0.13-0.28-0.28v-2.96c0-0.16,0.13-0.28,0.28-0.28h0.62
		c0.16,0,0.28,0.13,0.28,0.28V37.88z"/>
	<path d="M78.37,53.76c0,0.16-0.13,0.28-0.28,0.28h-0.62c-0.16,0-0.28-0.13-0.28-0.28V50.8c0-0.16,0.13-0.28,0.28-0.28h0.62
		c0.16,0,0.28,0.13,0.28,0.28V53.76z"/>
	<path d="M80.21,53.76c0,0.16-0.13,0.28-0.28,0.28h-0.62c-0.16,0-0.28-0.13-0.28-0.28V50.8c0-0.16,0.13-0.28,0.28-0.28h0.62
		c0.16,0,0.28,0.13,0.28,0.28V53.76z"/>
	<path d="M82.06,53.76c0,0.16-0.13,0.28-0.28,0.28h-0.62c-0.16,0-0.28-0.13-0.28-0.28V50.8c0-0.16,0.13-0.28,0.28-0.28h0.62
		c0.16,0,0.28,0.13,0.28,0.28V53.76z"/>
	<path d="M83.9,53.76c0,0.16-0.13,0.28-0.28,0.28H83c-0.16,0-0.28-0.13-0.28-0.28V50.8c0-0.16,0.13-0.28,0.28-0.28h0.62
		c0.16,0,0.28,0.13,0.28,0.28V53.76z"/>
	<path d="M85.74,53.76c0,0.16-0.13,0.28-0.28,0.28h-0.62c-0.16,0-0.28-0.13-0.28-0.28V50.8c0-0.16,0.13-0.28,0.28-0.28h0.62
		c0.16,0,0.28,0.13,0.28,0.28V53.76z"/>
	<path d="M87.58,53.76c0,0.16-0.13,0.28-0.28,0.28h-0.62c-0.16,0-0.28-0.13-0.28-0.28V50.8c0-0.16,0.13-0.28,0.28-0.28h0.62
		c0.16,0,0.28,0.13,0.28,0.28V53.76z"/>
	<path d="M89.43,53.76c0,0.16-0.13,0.28-0.28,0.28h-0.62c-0.16,0-0.28-0.13-0.28-0.28V50.8c0-0.16,0.13-0.28,0.28-0.28h0.62
		c0.16,0,0.28,0.13,0.28,0.28V53.76z"/>
	<path d="M109.16,56.7c0.16,0,0.28-0.13,0.28-0.28v-1.03c0-0.16-0.13-0.28-0.28-0.28h-1.75c-0.16,0-0.28,0.13-0.28,0.28v1.03
		c0,0.16,0.13,0.28,0.28,0.28H109.16z"/>
	<path d="M109.16,61.34c0.16,0,0.28-0.13,0.28-0.28v-1.03c0-0.16-0.13-0.28-0.28-0.28h-1.75c-0.16,0-0.28,0.13-0.28,0.28v1.03
		c0,0.16,0.13,0.28,0.28,0.28H109.16z"/>
	<path d="M112.37,56.7c0.16,0,0.28-0.13,0.28-0.28v-1.03c0-0.16-0.13-0.28-0.28-0.28h-1.75c-0.16,0-0.28,0.13-0.28,0.28v1.03
		c0,0.16,0.13,0.28,0.28,0.28H112.37z"/>
	<path d="M112.37,61.34c0.16,0,0.28-0.13,0.28-0.28v-1.03c0-0.16-0.13-0.28-0.28-0.28h-1.75c-0.16,0-0.28,0.13-0.28,0.28v1.03
		c0,0.16,0.13,0.28,0.28,0.28H112.37z"/>
	<path d="M102.74,56.7c0.16,0,0.28-0.13,0.28-0.28v-1.03c0-0.16-0.13-0.28-0.28-0.28h-1.75c-0.16,0-0.28,0.13-0.28,0.28v1.03
		c0,0.16,0.13,0.28,0.28,0.28H102.74z"/>
	<path d="M102.74,61.34c0.16,0,0.28-0.13,0.28-0.28v-1.03c0-0.16-0.13-0.28-0.28-0.28h-1.75c-0.16,0-0.28,0.13-0.28,0.28v1.03
		c0,0.16,0.13,0.28,0.28,0.28H102.74z"/>
	<path d="M105.95,56.7c0.16,0,0.28-0.13,0.28-0.28v-1.03c0-0.16-0.13-0.28-0.28-0.28h-1.75c-0.16,0-0.28,0.13-0.28,0.28v1.03
		c0,0.16,0.13,0.28,0.28,0.28H105.95z"/>
	<path d="M105.95,61.34c0.16,0,0.28-0.13,0.28-0.28v-1.03c0-0.16-0.13-0.28-0.28-0.28h-1.75c-0.16,0-0.28,0.13-0.28,0.28v1.03
		c0,0.16,0.13,0.28,0.28,0.28H105.95z"/>
	<path d="M96.31,56.7c0.16,0,0.28-0.13,0.28-0.28v-1.03c0-0.16-0.13-0.28-0.28-0.28h-1.75c-0.16,0-0.28,0.13-0.28,0.28v1.03
		c0,0.16,0.13,0.28,0.28,0.28H96.31z"/>
	<path d="M96.31,61.34c0.16,0,0.28-0.13,0.28-0.28v-1.03c0-0.16-0.13-0.28-0.28-0.28h-1.75c-0.16,0-0.28,0.13-0.28,0.28v1.03
		c0,0.16,0.13,0.28,0.28,0.28H96.31z"/>
	<path d="M99.52,56.7c0.16,0,0.28-0.13,0.28-0.28v-1.03c0-0.16-0.13-0.28-0.28-0.28h-1.75c-0.16,0-0.28,0.13-0.28,0.28v1.03
		c0,0.16,0.13,0.28,0.28,0.28H99.52z"/>
	<path d="M99.52,61.34c0.16,0,0.28-0.13,0.28-0.28v-1.03c0-0.16-0.13-0.28-0.28-0.28h-1.75c-0.16,0-0.28,0.13-0.28,0.28v1.03
		c0,0.16,0.13,0.28,0.28,0.28H99.52z"/>
	<path d="M89.89,56.7c0.16,0,0.28-0.13,0.28-0.28v-1.03c0-0.16-0.13-0.28-0.28-0.28h-1.75c-0.16,0-0.28,0.13-0.28,0.28v1.03
		c0,0.16,0.13,0.28,0.28,0.28H89.89z"/>
	<path d="M89.89,61.34c0.16,0,0.28-0.13,0.28-0.28v-1.03c0-0.16-0.13-0.28-0.28-0.28h-1.75c-0.16,0-0.28,0.13-0.28,0.28v1.03
		c0,0.16,0.13,0.28,0.28,0.28H89.89z"/>
	<path d="M93.1,56.7c0.16,0,0.28-0.13,0.28-0.28v-1.03c0-0.16-0.13-0.28-0.28-0.28h-1.75c-0.16,0-0.28,0.13-0.28,0.28v1.03
		c0,0.16,0.13,0.28,0.28,0.28H93.1z"/>
	<path d="M93.1,61.34c0.16,0,0.28-0.13,0.28-0.28v-1.03c0-0.16-0.13-0.28-0.28-0.28h-1.75c-0.16,0-0.28,0.13-0.28,0.28v1.03
		c0,0.16,0.13,0.28,0.28,0.28H93.1z"/>
	<path d="M83.46,56.7c0.16,0,0.28-0.13,0.28-0.28v-1.03c0-0.16-0.13-0.28-0.28-0.28h-1.75c-0.16,0-0.28,0.13-0.28,0.28v1.03
		c0,0.16,0.13,0.28,0.28,0.28H83.46z"/>
	<path d="M83.46,61.34c0.16,0,0.28-0.13,0.28-0.28v-1.03c0-0.16-0.13-0.28-0.28-0.28h-1.75c-0.16,0-0.28,0.13-0.28,0.28v1.03
		c0,0.16,0.13,0.28,0.28,0.28H83.46z"/>
	<path d="M86.67,56.7c0.16,0,0.28-0.13,0.28-0.28v-1.03c0-0.16-0.13-0.28-0.28-0.28h-1.75c-0.16,0-0.28,0.13-0.28,0.28v1.03
		c0,0.16,0.13,0.28,0.28,0.28H86.67z"/>
	<path d="M86.67,61.34c0.16,0,0.28-0.13,0.28-0.28v-1.03c0-0.16-0.13-0.28-0.28-0.28h-1.75c-0.16,0-0.28,0.13-0.28,0.28v1.03
		c0,0.16,0.13,0.28,0.28,0.28H86.67z"/>
	<path d="M77.04,56.7c0.16,0,0.28-0.13,0.28-0.28v-1.03c0-0.16-0.13-0.28-0.28-0.28h-1.75c-0.16,0-0.28,0.13-0.28,0.28v1.03
		c0,0.16,0.13,0.28,0.28,0.28H77.04z"/>
	<path d="M77.04,61.34c0.16,0,0.28-0.13,0.28-0.28v-1.03c0-0.16-0.13-0.28-0.28-0.28h-1.75c-0.16,0-0.28,0.13-0.28,0.28v1.03
		c0,0.16,0.13,0.28,0.28,0.28H77.04z"/>
	<path d="M80.25,56.7c0.16,0,0.28-0.13,0.28-0.28v-1.03c0-0.16-0.13-0.28-0.28-0.28H78.5c-0.16,0-0.28,0.13-0.28,0.28v1.03
		c0,0.16,0.13,0.28,0.28,0.28H80.25z"/>
	<path d="M80.25,61.34c0.16,0,0.28-0.13,0.28-0.28v-1.03c0-0.16-0.13-0.28-0.28-0.28H78.5c-0.16,0-0.28,0.13-0.28,0.28v1.03
		c0,0.16,0.13,0.28,0.28,0.28H80.25z"/>
	<path d="M70.61,56.7c0.16,0,0.28-0.13,0.28-0.28v-1.03c0-0.16-0.13-0.28-0.28-0.28h-1.75c-0.16,0-0.28,0.13-0.28,0.28v1.03
		c0,0.16,0.13,0.28,0.28,0.28H70.61z"/>
	<path d="M70.61,61.34c0.16,0,0.28-0.13,0.28-0.28v-1.03c0-0.16-0.13-0.28-0.28-0.28h-1.75c-0.16,0-0.28,0.13-0.28,0.28v1.03
		c0,0.16,0.13,0.28,0.28,0.28H70.61z"/>
	<path d="M73.82,56.7c0.16,0,0.28-0.13,0.28-0.28v-1.03c0-0.16-0.13-0.28-0.28-0.28h-1.75c-0.16,0-0.28,0.13-0.28,0.28v1.03
		c0,0.16,0.13,0.28,0.28,0.28H73.82z"/>
	<path d="M73.82,61.34c0.16,0,0.28-0.13,0.28-0.28v-1.03c0-0.16-0.13-0.28-0.28-0.28h-1.75c-0.16,0-0.28,0.13-0.28,0.28v1.03
		c0,0.16,0.13,0.28,0.28,0.28H73.82z"/>
	<path d="M64.18,56.7c0.16,0,0.28-0.13,0.28-0.28v-1.03c0-0.16-0.13-0.28-0.28-0.28h-1.75c-0.16,0-0.28,0.13-0.28,0.28v1.03
		c0,0.16,0.13,0.28,0.28,0.28H64.18z"/>
	<path d="M64.18,61.34c0.16,0,0.28-0.13,0.28-0.28v-1.03c0-0.16-0.13-0.28-0.28-0.28h-1.75c-0.16,0-0.28,0.13-0.28,0.28v1.03
		c0,0.16,0.13,0.28,0.28,0.28H64.18z"/>
	<path d="M67.4,56.7c0.16,0,0.28-0.13,0.28-0.28v-1.03c0-0.16-0.13-0.28-0.28-0.28h-1.75c-0.16,0-0.28,0.13-0.28,0.28v1.03
		c0,0.16,0.13,0.28,0.28,0.28H67.4z"/>
	<path d="M67.4,61.34c0.16,0,0.28-0.13,0.28-0.28v-1.03c0-0.16-0.13-0.28-0.28-0.28h-1.75c-0.16,0-0.28,0.13-0.28,0.28v1.03
		c0,0.16,0.13,0.28,0.28,0.28H67.4z"/>
	<path d="M57.76,56.7c0.16,0,0.28-0.13,0.28-0.28v-1.03c0-0.16-0.13-0.28-0.28-0.28h-1.75c-0.16,0-0.28,0.13-0.28,0.28v1.03
		c0,0.16,0.13,0.28,0.28,0.28H57.76z"/>
	<path d="M57.76,61.34c0.16,0,0.28-0.13,0.28-0.28v-1.03c0-0.16-0.13-0.28-0.28-0.28h-1.75c-0.16,0-0.28,0.13-0.28,0.28v1.03
		c0,0.16,0.13,0.28,0.28,0.28H57.76z"/>
	<path d="M60.97,56.7c0.16,0,0.28-0.13,0.28-0.28v-1.03c0-0.16-0.13-0.28-0.28-0.28h-1.75c-0.16,0-0.28,0.13-0.28,0.28v1.03
		c0,0.16,0.13,0.28,0.28,0.28H60.97z"/>
	<path d="M60.97,61.34c0.16,0,0.28-0.13,0.28-0.28v-1.03c0-0.16-0.13-0.28-0.28-0.28h-1.75c-0.16,0-0.28,0.13-0.28,0.28v1.03
		c0,0.16,0.13,0.28,0.28,0.28H60.97z"/>
	<g>
		<path d="M15.76,50.59c0-0.16-0.13-0.28-0.28-0.28h-1.6c-0.16,0-0.28,0.13-0.28,0.28v4.28c0,0.16,0.13,0.28,0.28,0.28h1.6
			c0.16,0,0.28-0.13,0.28-0.28V50.59z"/>
	</g>
	<g>
		<path d="M19.63,50.59c0-0.16-0.13-0.28-0.28-0.28h-1.6c-0.16,0-0.28,0.13-0.28,0.28v4.28c0,0.16,0.13,0.28,0.28,0.28h1.6
			c0.16,0,0.28-0.13,0.28-0.28V50.59z"/>
	</g>
	<path d="M104.91,16.54c0,0.16-0.13,0.28-0.28,0.28h-0.62c-0.16,0-0.28-0.13-0.28-0.28v-2.96c0-0.16,0.13-0.28,0.28-0.28h0.62
		c0.16,0,0.28,0.13,0.28,0.28V16.54z"/>
	<path d="M93.86,16.54c0,0.16-0.13,0.28-0.28,0.28h-0.62c-0.16,0-0.28-0.13-0.28-0.28v-2.96c0-0.16,0.13-0.28,0.28-0.28h0.62
		c0.16,0,0.28,0.13,0.28,0.28V16.54z"/>
	<path d="M95.7,16.54c0,0.16-0.13,0.28-0.28,0.28H94.8c-0.16,0-0.28-0.13-0.28-0.28v-2.96c0-0.16,0.13-0.28,0.28-0.28h0.62
		c0.16,0,0.28,0.13,0.28,0.28V16.54z"/>
	<path d="M97.54,16.54c0,0.16-0.13,0.28-0.28,0.28h-0.62c-0.16,0-0.28-0.13-0.28-0.28v-2.96c0-0.16,0.13-0.28,0.28-0.28h0.62
		c0.16,0,0.28,0.13,0.28,0.28V16.54z"/>
	<path d="M99.39,16.54c0,0.16-0.13,0.28-0.28,0.28h-0.62c-0.16,0-0.28-0.13-0.28-0.28v-2.96c0-0.16,0.13-0.28,0.28-0.28h0.62
		c0.16,0,0.28,0.13,0.28,0.28V16.54z"/>
	<path d="M101.23,16.54c0,0.16-0.13,0.28-0.28,0.28h-0.62c-0.16,0-0.28-0.13-0.28-0.28v-2.96c0-0.16,0.13-0.28,0.28-0.28h0.62
		c0.16,0,0.28,0.13,0.28,0.28V16.54z"/>
	<path d="M103.07,16.54c0,0.16-0.13,0.28-0.28,0.28h-0.62c-0.16,0-0.28-0.13-0.28-0.28v-2.96c0-0.16,0.13-0.28,0.28-0.28h0.62
		c0.16,0,0.28,0.13,0.28,0.28V16.54z"/>
	<path d="M93.86,32.42c0,0.16-0.13,0.28-0.28,0.28h-0.62c-0.16,0-0.28-0.13-0.28-0.28v-2.96c0-0.16,0.13-0.28,0.28-0.28h0.62
		c0.16,0,0.28,0.13,0.28,0.28V32.42z"/>
	<path d="M95.7,32.42c0,0.16-0.13,0.28-0.28,0.28H94.8c-0.16,0-0.28-0.13-0.28-0.28v-2.96c0-0.16,0.13-0.28,0.28-0.28h0.62
		c0.16,0,0.28,0.13,0.28,0.28V32.42z"/>
	<path d="M97.54,32.42c0,0.16-0.13,0.28-0.28,0.28h-0.62c-0.16,0-0.28-0.13-0.28-0.28v-2.96c0-0.16,0.13-0.28,0.28-0.28h0.62
		c0.16,0,0.28,0.13,0.28,0.28V32.42z"/>
	<path d="M99.39,32.42c0,0.16-0.13,0.28-0.28,0.28h-0.62c-0.16,0-0.28-0.13-0.28-0.28v-2.96c0-0.16,0.13-0.28,0.28-0.28h0.62
		c0.16,0,0.28,0.13,0.28,0.28V32.42z"/>
	<path d="M101.23,32.42c0,0.16-0.13,0.28-0.28,0.28h-0.62c-0.16,0-0.28-0.13-0.28-0.28v-2.96c0-0.16,0.13-0.28,0.28-0.28h0.62
		c0.16,0,0.28,0.13,0.28,0.28V32.42z"/>
	<path d="M103.07,32.42c0,0.16-0.13,0.28-0.28,0.28h-0.62c-0.16,0-0.28-0.13-0.28-0.28v-2.96c0-0.16,0.13-0.28,0.28-0.28h0.62
		c0.16,0,0.28,0.13,0.28,0.28V32.42z"/>
	<path d="M104.91,32.42c0,0.16-0.13,0.28-0.28,0.28h-0.62c-0.16,0-0.28-0.13-0.28-0.28v-2.96c0-0.16,0.13-0.28,0.28-0.28h0.62
		c0.16,0,0.28,0.13,0.28,0.28V32.42z"/>
	<path d="M19.08,61.1c0,0.16,0.13,0.28,0.28,0.28h2.03c0.16,0,0.28-0.13,0.28-0.28v-2.75c0-0.16-0.13-0.28-0.28-0.28h-2.03
		c-0.16,0-0.28,0.13-0.28,0.28V61.1z"/>
	<path d="M13.44,61.1c0,0.16,0.13,0.28,0.28,0.28h2.03c0.16,0,0.28-0.13,0.28-0.28v-2.75c0-0.16-0.13-0.28-0.28-0.28h-2.03
		c-0.16,0-0.28,0.13-0.28,0.28V61.1z"/>
	<path d="M109.79,29.45c0,0.11,0.09,0.2,0.2,0.2h1.03c0.11,0,0.2-0.09,0.2-0.2v-1.59c0-0.11-0.09-0.2-0.2-0.2H110
		c-0.11,0-0.2,0.09-0.2,0.2v1.59H109.79z"/>
	<path d="M106.7,29.45c0,0.11,0.09,0.2,0.2,0.2h1.03c0.11,0,0.2-0.09,0.2-0.2v-1.59c0-0.11-0.09-0.2-0.2-0.2h-1.03
		c-0.11,0-0.2,0.09-0.2,0.2V29.45z"/>
	<path d="M109.79,32.45c0,0.11,0.09,0.2,0.2,0.2h1.03c0.11,0,0.2-0.09,0.2-0.2v-1.59c0-0.11-0.09-0.2-0.2-0.2H110
		c-0.11,0-0.2,0.09-0.2,0.2v1.59H109.79z"/>
	<path d="M106.7,32.45c0,0.11,0.09,0.2,0.2,0.2h1.03c0.11,0,0.2-0.09,0.2-0.2v-1.59c0-0.11-0.09-0.2-0.2-0.2h-1.03
		c-0.11,0-0.2,0.09-0.2,0.2V32.45z"/>
	<path d="M109.79,23.45c0,0.11,0.09,0.2,0.2,0.2h1.03c0.11,0,0.2-0.09,0.2-0.2v-1.59c0-0.11-0.09-0.2-0.2-0.2H110
		c-0.11,0-0.2,0.09-0.2,0.2v1.59H109.79z"/>
	<path d="M106.7,23.45c0,0.11,0.09,0.2,0.2,0.2h1.03c0.11,0,0.2-0.09,0.2-0.2v-1.59c0-0.11-0.09-0.2-0.2-0.2h-1.03
		c-0.11,0-0.2,0.09-0.2,0.2V23.45z"/>
	<path d="M109.79,26.45c0,0.11,0.09,0.2,0.2,0.2h1.03c0.11,0,0.2-0.09,0.2-0.2v-1.59c0-0.11-0.09-0.2-0.2-0.2H110
		c-0.11,0-0.2,0.09-0.2,0.2v1.59H109.79z"/>
	<path d="M106.7,26.45c0,0.11,0.09,0.2,0.2,0.2h1.03c0.11,0,0.2-0.09,0.2-0.2v-1.59c0-0.11-0.09-0.2-0.2-0.2h-1.03
		c-0.11,0-0.2,0.09-0.2,0.2V26.45z"/>
	<path d="M21.81,23.9c0-0.11-0.09-0.2-0.2-0.2h-1.03c-0.11,0-0.2,0.09-0.2,0.2v1.59c0,0.11,0.09,0.2,0.2,0.2h1.03
		c0.11,0,0.2-0.09,0.2-0.2V23.9z"/>
	<path d="M24.91,23.9c0-0.11-0.09-0.2-0.2-0.2h-1.03c-0.11,0-0.2,0.09-0.2,0.2v1.59c0,0.11,0.09,0.2,0.2,0.2h1.03
		c0.11,0,0.2-0.09,0.2-0.2V23.9z"/>
	<path d="M21.81,20.9c0-0.11-0.09-0.2-0.2-0.2h-1.03c-0.11,0-0.2,0.09-0.2,0.2v1.59c0,0.11,0.09,0.2,0.2,0.2h1.03
		c0.11,0,0.2-0.09,0.2-0.2V20.9z"/>
	<path d="M24.91,20.9c0-0.11-0.09-0.2-0.2-0.2h-1.03c-0.11,0-0.2,0.09-0.2,0.2v1.59c0,0.11,0.09,0.2,0.2,0.2h1.03
		c0.11,0,0.2-0.09,0.2-0.2V20.9z"/>
	<path d="M21.81,29.9c0-0.11-0.09-0.2-0.2-0.2h-1.03c-0.11,0-0.2,0.09-0.2,0.2v1.59c0,0.11,0.09,0.2,0.2,0.2h1.03
		c0.11,0,0.2-0.09,0.2-0.2V29.9z"/>
	<path d="M24.91,29.9c0-0.11-0.09-0.2-0.2-0.2h-1.03c-0.11,0-0.2,0.09-0.2,0.2v1.59c0,0.11,0.09,0.2,0.2,0.2h1.03
		c0.11,0,0.2-0.09,0.2-0.2V29.9z"/>
	<path d="M21.81,26.9c0-0.11-0.09-0.2-0.2-0.2h-1.03c-0.11,0-0.2,0.09-0.2,0.2v1.59c0,0.11,0.09,0.2,0.2,0.2h1.03
		c0.11,0,0.2-0.09,0.2-0.2V26.9z"/>
	<path d="M24.91,26.9c0-0.11-0.09-0.2-0.2-0.2h-1.03c-0.11,0-0.2,0.09-0.2,0.2v1.59c0,0.11,0.09,0.2,0.2,0.2h1.03
		c0.11,0,0.2-0.09,0.2-0.2V26.9z"/>
	<path d="M15.62,45.51c0-0.11-0.09-0.2-0.2-0.2h-1.03c-0.11,0-0.2,0.09-0.2,0.2v1.59c0,0.11,0.09,0.2,0.2,0.2h1.03
		c0.11,0,0.2-0.09,0.2-0.2V45.51z"/>
	<path d="M18.71,45.51c0-0.11-0.09-0.2-0.2-0.2h-1.03c-0.11,0-0.2,0.09-0.2,0.2v1.59c0,0.11,0.09,0.2,0.2,0.2h1.03
		c0.11,0,0.2-0.09,0.2-0.2V45.51z"/>
	<path d="M15.62,42.12c0-0.11-0.09-0.2-0.2-0.2h-1.03c-0.11,0-0.2,0.09-0.2,0.2v1.59c0,0.11,0.09,0.2,0.2,0.2h1.03
		c0.11,0,0.2-0.09,0.2-0.2V42.12z"/>
	<path d="M18.71,42.12c0-0.11-0.09-0.2-0.2-0.2h-1.03c-0.11,0-0.2,0.09-0.2,0.2v1.59c0,0.11,0.09,0.2,0.2,0.2h1.03
		c0.11,0,0.2-0.09,0.2-0.2V42.12z"/>
	<path d="M21.71,45.51c0-0.11-0.09-0.2-0.2-0.2h-1.03c-0.11,0-0.2,0.09-0.2,0.2v1.59c0,0.11,0.09,0.2,0.2,0.2h1.03
		c0.11,0,0.2-0.09,0.2-0.2V45.51z"/>
	<path d="M24.81,45.51c0-0.11-0.09-0.2-0.2-0.2h-1.03c-0.11,0-0.2,0.09-0.2,0.2v1.59c0,0.11,0.09,0.2,0.2,0.2h1.03
		c0.11,0,0.2-0.09,0.2-0.2V45.51z"/>
	<path d="M27.81,45.51c0-0.11-0.09-0.2-0.2-0.2h-1.03c-0.11,0-0.2,0.09-0.2,0.2v1.59c0,0.11,0.09,0.2,0.2,0.2h1.03
		c0.11,0,0.2-0.09,0.2-0.2V45.51z"/>
	<path d="M30.91,45.51c0-0.11-0.09-0.2-0.2-0.2h-1.03c-0.11,0-0.2,0.09-0.2,0.2v1.59c0,0.11,0.09,0.2,0.2,0.2h1.03
		c0.11,0,0.2-0.09,0.2-0.2V45.51z"/>
	<path d="M21.71,42.12c0-0.11-0.09-0.2-0.2-0.2h-1.03c-0.11,0-0.2,0.09-0.2,0.2v1.59c0,0.11,0.09,0.2,0.2,0.2h1.03
		c0.11,0,0.2-0.09,0.2-0.2V42.12z"/>
	<path d="M24.81,42.12c0-0.11-0.09-0.2-0.2-0.2h-1.03c-0.11,0-0.2,0.09-0.2,0.2v1.59c0,0.11,0.09,0.2,0.2,0.2h1.03
		c0.11,0,0.2-0.09,0.2-0.2V42.12z"/>
	<path d="M21.81,17.9c0-0.11-0.09-0.2-0.2-0.2h-1.03c-0.11,0-0.2,0.09-0.2,0.2v1.59c0,0.11,0.09,0.2,0.2,0.2h1.03
		c0.11,0,0.2-0.09,0.2-0.2V17.9z"/>
	<path d="M24.91,17.9c0-0.11-0.09-0.2-0.2-0.2h-1.03c-0.11,0-0.2,0.09-0.2,0.2v1.59c0,0.11,0.09,0.2,0.2,0.2h1.03
		c0.11,0,0.2-0.09,0.2-0.2V17.9z"/>
	<path d="M21.81,14.9c0-0.11-0.09-0.2-0.2-0.2h-1.03c-0.11,0-0.2,0.09-0.2,0.2v1.59c0,0.11,0.09,0.2,0.2,0.2h1.03
		c0.11,0,0.2-0.09,0.2-0.2V14.9z"/>
	<path d="M24.91,14.9c0-0.11-0.09-0.2-0.2-0.2h-1.03c-0.11,0-0.2,0.09-0.2,0.2v1.59c0,0.11,0.09,0.2,0.2,0.2h1.03
		c0.11,0,0.2-0.09,0.2-0.2V14.9z"/>
	<path d="M15.71,29.9c0-0.11-0.09-0.2-0.2-0.2h-1.03c-0.11,0-0.2,0.09-0.2,0.2v1.59c0,0.11,0.09,0.2,0.2,0.2h1.03
		c0.11,0,0.2-0.09,0.2-0.2V29.9z"/>
	<path d="M18.81,29.9c0-0.11-0.09-0.2-0.2-0.2h-1.03c-0.11,0-0.2,0.09-0.2,0.2v1.59c0,0.11,0.09,0.2,0.2,0.2h1.03
		c0.11,0,0.2-0.09,0.2-0.2V29.9z"/>
	<path d="M15.71,26.9c0-0.11-0.09-0.2-0.2-0.2h-1.03c-0.11,0-0.2,0.09-0.2,0.2v1.59c0,0.11,0.09,0.2,0.2,0.2h1.03
		c0.11,0,0.2-0.09,0.2-0.2V26.9z"/>
	<path d="M18.81,26.9c0-0.11-0.09-0.2-0.2-0.2h-1.03c-0.11,0-0.2,0.09-0.2,0.2v1.59c0,0.11,0.09,0.2,0.2,0.2h1.03
		c0.11,0,0.2-0.09,0.2-0.2V26.9z"/>
	<path d="M46.85,46.66c0,0.16-0.13,0.28-0.28,0.28h-2.06c-0.16,0-0.28-0.13-0.28-0.28v-1.34c0-0.16,0.13-0.28,0.28-0.28h2.06
		c0.16,0,0.28,0.13,0.28,0.28V46.66z"/>
	<path d="M50.87,50.19c0,0.16-0.13,0.28-0.28,0.28h-2.06c-0.16,0-0.28-0.13-0.28-0.28v-1.34c0-0.16,0.13-0.28,0.28-0.28h2.06
		c0.16,0,0.28,0.13,0.28,0.28V50.19z"/>
	<path d="M50.87,46.66c0,0.16-0.13,0.28-0.28,0.28h-2.06c-0.16,0-0.28-0.13-0.28-0.28v-1.34c0-0.16,0.13-0.28,0.28-0.28h2.06
		c0.16,0,0.28,0.13,0.28,0.28V46.66z"/>
	<path d="M46.85,50.19c0,0.16-0.13,0.28-0.28,0.28h-2.06c-0.16,0-0.28-0.13-0.28-0.28v-1.34c0-0.16,0.13-0.28,0.28-0.28h2.06
		c0.16,0,0.28,0.13,0.28,0.28V50.19z"/>
	<path d="M36.11,55.07c0,0.16-0.13,0.28-0.28,0.28h-1.3c-0.16,0-0.28-0.13-0.28-0.28v-1.13c0-0.16,0.13-0.28,0.28-0.28h1.3
		c0.16,0,0.28,0.13,0.28,0.28V55.07z"/>
	<path d="M42.07,55.07c0,0.16-0.13,0.28-0.28,0.28h-1.3c-0.16,0-0.28-0.13-0.28-0.28v-1.13c0-0.16,0.13-0.28,0.28-0.28h1.3
		c0.16,0,0.28,0.13,0.28,0.28V55.07z"/>
	<path d="M39.83,61.1c0,0.16,0.13,0.28,0.28,0.28h2.03c0.16,0,0.28-0.13,0.28-0.28v-2.75c0-0.16-0.13-0.28-0.28-0.28h-2.03
		c-0.16,0-0.28,0.13-0.28,0.28V61.1z"/>
	<path d="M34.19,61.1c0,0.16,0.13,0.28,0.28,0.28h2.03c0.16,0,0.28-0.13,0.28-0.28v-2.75c0-0.16-0.13-0.28-0.28-0.28h-2.03
		c-0.16,0-0.28,0.13-0.28,0.28V61.1z"/>
	<path d="M49.47,61.1c0,0.16,0.13,0.28,0.28,0.28h2.03c0.16,0,0.28-0.13,0.28-0.28v-2.75c0-0.16-0.13-0.28-0.28-0.28h-2.03
		c-0.16,0-0.28,0.13-0.28,0.28V61.1z"/>
	<path d="M43.83,61.1c0,0.16,0.13,0.28,0.28,0.28h2.03c0.16,0,0.28-0.13,0.28-0.28v-2.75c0-0.16-0.13-0.28-0.28-0.28h-2.03
		c-0.16,0-0.28,0.13-0.28,0.28V61.1z"/>
	<path d="M46.07,55.07c0,0.16-0.13,0.28-0.28,0.28h-1.3c-0.16,0-0.28-0.13-0.28-0.28v-1.13c0-0.16,0.13-0.28,0.28-0.28h1.3
		c0.16,0,0.28,0.13,0.28,0.28V55.07z"/>
	<path d="M52.02,55.07c0,0.16-0.13,0.28-0.28,0.28h-1.3c-0.16,0-0.28-0.13-0.28-0.28v-1.13c0-0.16,0.13-0.28,0.28-0.28h1.3
		c0.16,0,0.28,0.13,0.28,0.28V55.07z"/>
	<path d="M71.98,32.64c0.16,0,0.28-0.13,0.28-0.28v-3.74c0-0.16-0.13-0.28-0.28-0.28h-0.36c-0.16,0-0.28,0.13-0.28,0.28v3.74
		c0,0.16,0.13,0.28,0.28,0.28H71.98z"/>
	<path d="M73.4,32.64c0.16,0,0.28-0.13,0.28-0.28v-3.74c0-0.16-0.13-0.28-0.28-0.28h-0.36c-0.16,0-0.28,0.13-0.28,0.28v3.74
		c0,0.16,0.13,0.28,0.28,0.28H73.4z"/>
	<path d="M74.82,32.64c0.16,0,0.28-0.13,0.28-0.28v-3.74c0-0.16-0.13-0.28-0.28-0.28h-0.36c-0.16,0-0.28,0.13-0.28,0.28v3.74
		c0,0.16,0.13,0.28,0.28,0.28H74.82z"/>
	<path d="M76.24,32.64c0.16,0,0.28-0.13,0.28-0.28v-3.74c0-0.16-0.13-0.28-0.28-0.28h-0.36c-0.16,0-0.28,0.13-0.28,0.28v3.74
		c0,0.16,0.13,0.28,0.28,0.28H76.24z"/>
	<path d="M69.15,32.64c0.16,0,0.28-0.13,0.28-0.28v-3.74c0-0.16-0.13-0.28-0.28-0.28h-0.36c-0.16,0-0.28,0.13-0.28,0.28v3.74
		c0,0.16,0.13,0.28,0.28,0.28H69.15z"/>
	<path d="M70.57,32.64c0.16,0,0.28-0.13,0.28-0.28v-3.74c0-0.16-0.13-0.28-0.28-0.28h-0.36c-0.16,0-0.28,0.13-0.28,0.28v3.74
		c0,0.16,0.13,0.28,0.28,0.28H70.57z"/>
	<path d="M66.31,32.64c0.16,0,0.28-0.13,0.28-0.28v-3.74c0-0.16-0.13-0.28-0.28-0.28h-0.36c-0.16,0-0.28,0.13-0.28,0.28v3.74
		c0,0.16,0.13,0.28,0.28,0.28H66.31z"/>
	<path d="M67.73,32.64c0.16,0,0.28-0.13,0.28-0.28v-3.74c0-0.16-0.13-0.28-0.28-0.28h-0.36c-0.16,0-0.28,0.13-0.28,0.28v3.74
		c0,0.16,0.13,0.28,0.28,0.28H67.73z"/>
	<path d="M78.46,32.64c0.16,0,0.28-0.13,0.28-0.28v-3.74c0-0.16-0.13-0.28-0.28-0.28h-1.17c-0.16,0-0.28,0.13-0.28,0.28v3.74
		c0,0.16,0.13,0.28,0.28,0.28H78.46z"/>
	<path d="M64.9,32.64c0.16,0,0.28-0.13,0.28-0.28v-3.74c0-0.16-0.13-0.28-0.28-0.28h-1.17c-0.16,0-0.28,0.13-0.28,0.28v3.74
		c0,0.16,0.13,0.28,0.28,0.28H64.9z"/>
	<path d="M62.67,32.64c0.16,0,0.28-0.13,0.28-0.28v-3.74c0-0.16-0.13-0.28-0.28-0.28H61.5c-0.16,0-0.28,0.13-0.28,0.28v3.74
		c0,0.16,0.13,0.28,0.28,0.28H62.67z"/>
	<path d="M80.69,32.64c0.16,0,0.28-0.13,0.28-0.28v-3.74c0-0.16-0.13-0.28-0.28-0.28h-1.17c-0.16,0-0.28,0.13-0.28,0.28v3.74
		c0,0.16,0.13,0.28,0.28,0.28H80.69z"/>
	<path d="M89.51,29.45c0,0.11,0.09,0.2,0.2,0.2h1.03c0.11,0,0.2-0.09,0.2-0.2v-1.59c0-0.11-0.09-0.2-0.2-0.2h-1.03
		c-0.11,0-0.2,0.09-0.2,0.2V29.45z"/>
	<path d="M86.41,29.45c0,0.11,0.09,0.2,0.2,0.2h1.03c0.11,0,0.2-0.09,0.2-0.2v-1.59c0-0.11-0.09-0.2-0.2-0.2h-1.03
		c-0.11,0-0.2,0.09-0.2,0.2V29.45z"/>
	<path d="M89.51,22.7c0,0.11,0.09,0.2,0.2,0.2h1.03c0.11,0,0.2-0.09,0.2-0.2v-1.59c0-0.11-0.09-0.2-0.2-0.2h-1.03
		c-0.11,0-0.2,0.09-0.2,0.2V22.7z"/>
	<path d="M86.41,22.7c0,0.11,0.09,0.2,0.2,0.2h1.03c0.11,0,0.2-0.09,0.2-0.2v-1.59c0-0.11-0.09-0.2-0.2-0.2h-1.03
		c-0.11,0-0.2,0.09-0.2,0.2V22.7z"/>
	<path d="M89.51,26.45c0,0.11,0.09,0.2,0.2,0.2h1.03c0.11,0,0.2-0.09,0.2-0.2v-1.59c0-0.11-0.09-0.2-0.2-0.2h-1.03
		c-0.11,0-0.2,0.09-0.2,0.2V26.45z"/>
	<path d="M86.41,26.45c0,0.11,0.09,0.2,0.2,0.2h1.03c0.11,0,0.2-0.09,0.2-0.2v-1.59c0-0.11-0.09-0.2-0.2-0.2h-1.03
		c-0.11,0-0.2,0.09-0.2,0.2V26.45z"/>
	<path d="M89.51,15.94c0,0.11,0.09,0.2,0.2,0.2h1.03c0.11,0,0.2-0.09,0.2-0.2v-1.59c0-0.11-0.09-0.2-0.2-0.2h-1.03
		c-0.11,0-0.2,0.09-0.2,0.2V15.94z"/>
	<path d="M86.41,15.94c0,0.11,0.09,0.2,0.2,0.2h1.03c0.11,0,0.2-0.09,0.2-0.2v-1.59c0-0.11-0.09-0.2-0.2-0.2h-1.03
		c-0.11,0-0.2,0.09-0.2,0.2V15.94z"/>
	<path d="M89.51,18.86c0,0.11,0.09,0.2,0.2,0.2h1.03c0.11,0,0.2-0.09,0.2-0.2v-1.59c0-0.11-0.09-0.2-0.2-0.2h-1.03
		c-0.11,0-0.2,0.09-0.2,0.2V18.86z"/>
	<path d="M86.41,18.86c0,0.11,0.09,0.2,0.2,0.2h1.03c0.11,0,0.2-0.09,0.2-0.2v-1.59c0-0.11-0.09-0.2-0.2-0.2h-1.03
		c-0.11,0-0.2,0.09-0.2,0.2V18.86z"/>
	<path d="M109.79,18.75c0,0.11,0.09,0.2,0.2,0.2h1.03c0.11,0,0.2-0.09,0.2-0.2v-1.59c0-0.11-0.09-0.2-0.2-0.2H110
		c-0.11,0-0.2,0.09-0.2,0.2v1.59H109.79z"/>
	<path d="M106.7,18.75c0,0.11,0.09,0.2,0.2,0.2h1.03c0.11,0,0.2-0.09,0.2-0.2v-1.59c0-0.11-0.09-0.2-0.2-0.2h-1.03
		c-0.11,0-0.2,0.09-0.2,0.2V18.75z"/>
	<path d="M54.37,23.53c0.11,0,0.2-0.09,0.2-0.2V22.3c0-0.11-0.09-0.2-0.2-0.2h-1.59c-0.11,0-0.2,0.09-0.2,0.2v1.03
		c0,0.11,0.09,0.2,0.2,0.2H54.37z"/>
	<path d="M54.37,26.63c0.11,0,0.2-0.09,0.2-0.2V25.4c0-0.11-0.09-0.2-0.2-0.2h-1.59c-0.11,0-0.2,0.09-0.2,0.2v1.03
		c0,0.11,0.09,0.2,0.2,0.2H54.37z"/>
	<path d="M54.37,34.67c0.11,0,0.2-0.09,0.2-0.2v-1.03c0-0.11-0.09-0.2-0.2-0.2h-1.59c-0.11,0-0.2,0.09-0.2,0.2v1.03
		c0,0.11,0.09,0.2,0.2,0.2H54.37z"/>
	<path d="M54.37,37.77c0.11,0,0.2-0.09,0.2-0.2v-1.03c0-0.11-0.09-0.2-0.2-0.2h-1.59c-0.11,0-0.2,0.09-0.2,0.2v1.03
		c0,0.11,0.09,0.2,0.2,0.2H54.37z"/>
	<path d="M54.37,29.12c0.11,0,0.2-0.09,0.2-0.2v-1.03c0-0.11-0.09-0.2-0.2-0.2h-1.59c-0.11,0-0.2,0.09-0.2,0.2v1.03
		c0,0.11,0.09,0.2,0.2,0.2H54.37z"/>
	<path d="M54.37,32.22c0.11,0,0.2-0.09,0.2-0.2v-1.03c0-0.11-0.09-0.2-0.2-0.2h-1.59c-0.11,0-0.2,0.09-0.2,0.2v1.03
		c0,0.11,0.09,0.2,0.2,0.2H54.37z"/>
	<path d="M54.37,50.04c0.11,0,0.2-0.09,0.2-0.2V48.8c0-0.11-0.09-0.2-0.2-0.2h-1.59c-0.11,0-0.2,0.09-0.2,0.2v1.03
		c0,0.11,0.09,0.2,0.2,0.2h1.59V50.04z"/>
	<path d="M54.37,40.77c0.11,0,0.2-0.09,0.2-0.2v-1.03c0-0.11-0.09-0.2-0.2-0.2h-1.59c-0.11,0-0.2,0.09-0.2,0.2v1.03
		c0,0.11,0.09,0.2,0.2,0.2H54.37z"/>
	<path d="M54.37,43.87c0.11,0,0.2-0.09,0.2-0.2v-1.03c0-0.11-0.09-0.2-0.2-0.2h-1.59c-0.11,0-0.2,0.09-0.2,0.2v1.03
		c0,0.11,0.09,0.2,0.2,0.2H54.37z"/>
	<path d="M42.32,46.94c0.11,0,0.2-0.09,0.2-0.2V45.7c0-0.11-0.09-0.2-0.2-0.2h-1.59c-0.11,0-0.2,0.09-0.2,0.2v1.03
		c0,0.11,0.09,0.2,0.2,0.2L42.32,46.94L42.32,46.94z"/>
	<path d="M42.32,50.04c0.11,0,0.2-0.09,0.2-0.2V48.8c0-0.11-0.09-0.2-0.2-0.2h-1.59c-0.11,0-0.2,0.09-0.2,0.2v1.03
		c0,0.11,0.09,0.2,0.2,0.2h1.59V50.04z"/>
	<path d="M38.32,46.94c0.11,0,0.2-0.09,0.2-0.2V45.7c0-0.11-0.09-0.2-0.2-0.2h-1.59c-0.11,0-0.2,0.09-0.2,0.2v1.03
		c0,0.11,0.09,0.2,0.2,0.2L38.32,46.94L38.32,46.94z"/>
	<path d="M38.32,50.04c0.11,0,0.2-0.09,0.2-0.2V48.8c0-0.11-0.09-0.2-0.2-0.2h-1.59c-0.11,0-0.2,0.09-0.2,0.2v1.03
		c0,0.11,0.09,0.2,0.2,0.2h1.59V50.04z"/>
	<path d="M15.41,14.9c0-0.11-0.09-0.2-0.2-0.2h-1.03c-0.11,0-0.2,0.09-0.2,0.2v1.59c0,0.11,0.09,0.2,0.2,0.2h1.03
		c0.11,0,0.2-0.09,0.2-0.2V14.9z"/>
	<path d="M18.81,22.7c0-0.11-0.09-0.2-0.2-0.2h-1.03c-0.11,0-0.2,0.09-0.2,0.2v1.59c0,0.11,0.09,0.2,0.2,0.2h1.03
		c0.11,0,0.2-0.09,0.2-0.2V22.7z"/>
	<path d="M15.41,22.7c0-0.11-0.09-0.2-0.2-0.2h-1.03c-0.11,0-0.2,0.09-0.2,0.2v1.59c0,0.11,0.09,0.2,0.2,0.2h1.03
		c0.11,0,0.2-0.09,0.2-0.2V22.7z"/>
	<path d="M18.81,14.9c0-0.11-0.09-0.2-0.2-0.2h-1.03c-0.11,0-0.2,0.09-0.2,0.2v1.59c0,0.11,0.09,0.2,0.2,0.2h1.03
		c0.11,0,0.2-0.09,0.2-0.2V14.9z"/>
	<path d="M54.37,46.94c0.11,0,0.2-0.09,0.2-0.2V45.7c0-0.11-0.09-0.2-0.2-0.2h-1.59c-0.11,0-0.2,0.09-0.2,0.2v1.03
		c0,0.11,0.09,0.2,0.2,0.2L54.37,46.94L54.37,46.94z"/>
	<path d="M33.8,14.9c0-0.11-0.09-0.2-0.2-0.2h-1.03c-0.11,0-0.2,0.09-0.2,0.2v1.59c0,0.11,0.09,0.2,0.2,0.2h1.03
		c0.11,0,0.2-0.09,0.2-0.2V14.9z"/>
	<path d="M36.9,14.9c0-0.11-0.09-0.2-0.2-0.2h-1.03c-0.11,0-0.2,0.09-0.2,0.2v1.59c0,0.11,0.09,0.2,0.2,0.2h1.03
		c0.11,0,0.2-0.09,0.2-0.2V14.9z"/>
	<path d="M39.79,14.9c0-0.11-0.09-0.2-0.2-0.2h-1.03c-0.11,0-0.2,0.09-0.2,0.2v1.59c0,0.11,0.09,0.2,0.2,0.2h1.03
		c0.11,0,0.2-0.09,0.2-0.2V14.9z"/>
	<path d="M42.89,14.9c0-0.11-0.09-0.2-0.2-0.2h-1.03c-0.11,0-0.2,0.09-0.2,0.2v1.59c0,0.11,0.09,0.2,0.2,0.2h1.03
		c0.11,0,0.2-0.09,0.2-0.2V14.9z"/>
	<path d="M27.8,14.9c0-0.11-0.09-0.2-0.2-0.2h-1.03c-0.11,0-0.2,0.09-0.2,0.2v1.59c0,0.11,0.09,0.2,0.2,0.2h1.03
		c0.11,0,0.2-0.09,0.2-0.2V14.9z"/>
	<path d="M30.9,14.9c0-0.11-0.09-0.2-0.2-0.2h-1.03c-0.11,0-0.2,0.09-0.2,0.2v1.59c0,0.11,0.09,0.2,0.2,0.2h1.03
		c0.11,0,0.2-0.09,0.2-0.2V14.9z"/>
	<path d="M33.8,11.9c0-0.11-0.09-0.2-0.2-0.2h-1.03c-0.11,0-0.2,0.09-0.2,0.2v1.59c0,0.11,0.09,0.2,0.2,0.2h1.03
		c0.11,0,0.2-0.09,0.2-0.2V11.9z"/>
	<path d="M36.9,11.9c0-0.11-0.09-0.2-0.2-0.2h-1.03c-0.11,0-0.2,0.09-0.2,0.2v1.59c0,0.11,0.09,0.2,0.2,0.2h1.03
		c0.11,0,0.2-0.09,0.2-0.2V11.9z"/>
	<path d="M27.8,11.9c0-0.11-0.09-0.2-0.2-0.2h-1.03c-0.11,0-0.2,0.09-0.2,0.2v1.59c0,0.11,0.09,0.2,0.2,0.2h1.03
		c0.11,0,0.2-0.09,0.2-0.2V11.9z"/>
	<path d="M30.9,11.9c0-0.11-0.09-0.2-0.2-0.2h-1.03c-0.11,0-0.2,0.09-0.2,0.2v1.59c0,0.11,0.09,0.2,0.2,0.2h1.03
		c0.11,0,0.2-0.09,0.2-0.2V11.9z"/>
	<path d="M39.79,11.9c0-0.11-0.09-0.2-0.2-0.2h-1.03c-0.11,0-0.2,0.09-0.2,0.2v1.59c0,0.11,0.09,0.2,0.2,0.2h1.03
		c0.11,0,0.2-0.09,0.2-0.2V11.9z"/>
	<path d="M21.81,11.9c0-0.11-0.09-0.2-0.2-0.2h-1.03c-0.11,0-0.2,0.09-0.2,0.2v1.59c0,0.11,0.09,0.2,0.2,0.2h1.03
		c0.11,0,0.2-0.09,0.2-0.2V11.9z"/>
	<path d="M24.91,11.9c0-0.11-0.09-0.2-0.2-0.2h-1.03c-0.11,0-0.2,0.09-0.2,0.2v1.59c0,0.11,0.09,0.2,0.2,0.2h1.03
		c0.11,0,0.2-0.09,0.2-0.2V11.9z"/>
	<path d="M42.89,11.9c0-0.11-0.09-0.2-0.2-0.2h-1.03c-0.11,0-0.2,0.09-0.2,0.2v1.59c0,0.11,0.09,0.2,0.2,0.2h1.03
		c0.11,0,0.2-0.09,0.2-0.2V11.9z"/>
	<path d="M45.79,14.9c0-0.11-0.09-0.2-0.2-0.2h-1.03c-0.11,0-0.2,0.09-0.2,0.2v1.59c0,0.11,0.09,0.2,0.2,0.2h1.03
		c0.11,0,0.2-0.09,0.2-0.2V14.9z"/>
	<path d="M48.88,14.9c0-0.11-0.09-0.2-0.2-0.2h-1.03c-0.11,0-0.2,0.09-0.2,0.2v1.59c0,0.11,0.09,0.2,0.2,0.2h1.03
		c0.11,0,0.2-0.09,0.2-0.2V14.9z"/>
	<path d="M45.79,11.9c0-0.11-0.09-0.2-0.2-0.2h-1.03c-0.11,0-0.2,0.09-0.2,0.2v1.59c0,0.11,0.09,0.2,0.2,0.2h1.03
		c0.11,0,0.2-0.09,0.2-0.2V11.9z"/>
	<path d="M48.88,11.9c0-0.11-0.09-0.2-0.2-0.2h-1.03c-0.11,0-0.2,0.09-0.2,0.2v1.59c0,0.11,0.09,0.2,0.2,0.2h1.03
		c0.11,0,0.2-0.09,0.2-0.2V11.9z"/>
	<path d="M51.78,11.9c0-0.11-0.09-0.2-0.2-0.2h-1.03c-0.11,0-0.2,0.09-0.2,0.2v1.59c0,0.11,0.09,0.2,0.2,0.2h1.03
		c0.11,0,0.2-0.09,0.2-0.2V11.9z"/>
	<path d="M54.88,11.9c0-0.11-0.09-0.2-0.2-0.2h-1.03c-0.11,0-0.2,0.09-0.2,0.2v1.59c0,0.11,0.09,0.2,0.2,0.2h1.03
		c0.11,0,0.2-0.09,0.2-0.2V11.9z"/>
	<path d="M120.13,59.9c-0.11,0-0.2,0.09-0.2,0.2v1.03c0,0.11,0.09,0.2,0.2,0.2h1.59c0.11,0,0.2-0.09,0.2-0.2V60.1
		c0-0.11-0.09-0.2-0.2-0.2H120.13z"/>
	<path d="M120.13,56.81c-0.11,0-0.2,0.09-0.2,0.2v1.03c0,0.11,0.09,0.2,0.2,0.2h1.59c0.11,0,0.2-0.09,0.2-0.2v-1.03
		c0-0.11-0.09-0.2-0.2-0.2H120.13z"/>
	<path d="M123.13,59.9c-0.11,0-0.2,0.09-0.2,0.2v1.03c0,0.11,0.09,0.2,0.2,0.2h1.59c0.11,0,0.2-0.09,0.2-0.2V60.1
		c0-0.11-0.09-0.2-0.2-0.2H123.13z"/>
	<path d="M123.13,56.81c-0.11,0-0.2,0.09-0.2,0.2v1.03c0,0.11,0.09,0.2,0.2,0.2h1.59c0.11,0,0.2-0.09,0.2-0.2v-1.03
		c0-0.11-0.09-0.2-0.2-0.2H123.13z"/>
	<path d="M127.88,59.27c0-0.16-0.13-0.28-0.28-0.28h-1.03c-0.16,0-0.28,0.13-0.28,0.28v1.75c0,0.16,0.13,0.28,0.28,0.28h1.03
		c0.16,0,0.28-0.13,0.28-0.28V59.27z"/>
	<path d="M132.52,59.27c0-0.16-0.13-0.28-0.28-0.28h-1.03c-0.16,0-0.28,0.13-0.28,0.28v1.75c0,0.16,0.13,0.28,0.28,0.28h1.03
		c0.16,0,0.28-0.13,0.28-0.28V59.27z"/>
	<path d="M135.52,59.27c0-0.16-0.13-0.28-0.28-0.28h-1.03c-0.16,0-0.28,0.13-0.28,0.28v1.75c0,0.16,0.13,0.28,0.28,0.28h1.03
		c0.16,0,0.28-0.13,0.28-0.28V59.27z"/>
	<path d="M140.16,59.27c0-0.16-0.13-0.28-0.28-0.28h-1.03c-0.16,0-0.28,0.13-0.28,0.28v1.75c0,0.16,0.13,0.28,0.28,0.28h1.03
		c0.16,0,0.28-0.13,0.28-0.28V59.27z"/>
	<path d="M51.78,14.9c0-0.11-0.09-0.2-0.2-0.2h-1.03c-0.11,0-0.2,0.09-0.2,0.2v1.59c0,0.11,0.09,0.2,0.2,0.2h1.03
		c0.11,0,0.2-0.09,0.2-0.2V14.9z"/>
	<path d="M54.88,14.9c0-0.11-0.09-0.2-0.2-0.2h-1.03c-0.11,0-0.2,0.09-0.2,0.2v1.59c0,0.11,0.09,0.2,0.2,0.2h1.03
		c0.11,0,0.2-0.09,0.2-0.2V14.9z"/>
	<path d="M35.32,46.94c0.11,0,0.2-0.09,0.2-0.2V45.7c0-0.11-0.09-0.2-0.2-0.2h-1.59c-0.11,0-0.2,0.09-0.2,0.2v1.03
		c0,0.11,0.09,0.2,0.2,0.2L35.32,46.94L35.32,46.94z"/>
	<path d="M35.32,50.04c0.11,0,0.2-0.09,0.2-0.2V48.8c0-0.11-0.09-0.2-0.2-0.2h-1.59c-0.11,0-0.2,0.09-0.2,0.2v1.03
		c0,0.11,0.09,0.2,0.2,0.2h1.59V50.04z"/>
	<path d="M89.51,32.45c0,0.11,0.09,0.2,0.2,0.2h1.03c0.11,0,0.2-0.09,0.2-0.2v-1.59c0-0.11-0.09-0.2-0.2-0.2h-1.03
		c-0.11,0-0.2,0.09-0.2,0.2V32.45z"/>
	<path d="M86.41,32.45c0,0.11,0.09,0.2,0.2,0.2h1.03c0.11,0,0.2-0.09,0.2-0.2v-1.59c0-0.11-0.09-0.2-0.2-0.2h-1.03
		c-0.11,0-0.2,0.09-0.2,0.2V32.45z"/>
	<path d="M161.31,56.54c0.16,0,0.28-0.13,0.28-0.28v-1.03c0-0.16-0.13-0.28-0.28-0.28h-1.75c-0.16,0-0.28,0.13-0.28,0.28v1.03
		c0,0.16,0.13,0.28,0.28,0.28H161.31z"/>
	<path d="M161.31,61.18c0.16,0,0.28-0.13,0.28-0.28v-1.03c0-0.16-0.13-0.28-0.28-0.28h-1.75c-0.16,0-0.28,0.13-0.28,0.28v1.03
		c0,0.16,0.13,0.28,0.28,0.28H161.31z"/>
	<path d="M151.76,58.08c0-0.11-0.09-0.2-0.2-0.2h-1.03c-0.11,0-0.2,0.09-0.2,0.2v1.59c0,0.11,0.09,0.2,0.2,0.2h1.03
		c0.11,0,0.2-0.09,0.2-0.2V58.08z"/>
	<path d="M154.86,58.08c0-0.11-0.09-0.2-0.2-0.2h-1.03c-0.11,0-0.2,0.09-0.2,0.2v1.59c0,0.11,0.09,0.2,0.2,0.2h1.03
		c0.11,0,0.2-0.09,0.2-0.2V58.08z"/>
</g>
</svg>
